<svg width="850" height="1210" xmlns="http://www.w3.org/2000/svg">

    <metadata id="metadata7">image/svg+xml</metadata>
    <g>
        <title>background</title>
        <rect fill="none" id="canvas_background" height="1212" width="852" y="-1" x="-1"/>
    </g>
    <g>
        <title>Layer 1</title>
        <g id="svg_1">
            <path fill="#000000" id="path5086"
                  d="m205.484619,84.590977c0.4688,1.1354 0.9376,2.27085 1.4063,3.40625c22.4967,55.6914 27.7249,116.3489 31.75,175.8125c6.8465,130.4324 -8.8538,262.51415 -50.2813,386.40625c-40.4403,-26.9693 -64.6165,-78.4394 -56.2812,-127c0.479,-6.4507 0.6604,-12.9192 1.0625,-19.375c-41.7717,58.9862 -76.1411,125.72275 -83.5313,198.59375c-5.8531,55.8039 3.8515,111.78165 19.0626,165.34375c22.2193,-30.0933 46.9628,-61.4012 83.5,-74.375c3.2664,-1.09 6.6504,-1.82105 10.0624,-2.28125c-21.1826,96.0635 -44.1921,192.03381 -57.125,289.625c-0.054,7.2607 -1.439,15.89747 3.2188,22c8.9198,9.25692 23.0613,8.16371 34.875,9.28125c52.1263,1.32787 103.3809,-10.95346 153.2812,-24.59375c135.131,-38.83544 260.1875,-108.64271 369.2813,-196.625c6.4431,-4.4448 15.2327,-2.2245 22.6563,-3.9375c19.6006,-2.3917 40.286,-5.0488 57.3124,-15.6875c10.6404,-7.8107 -1.8638,-20.03215 -7.375,-26.84375c-35.0369,-41.01841 -72.5559,-81.20108 -102.4062,-126.34375c12.853,5.05894 27.0637,7.0501 41.6875,5.15625c47.2818,-6.12324 80.7894,-50.31505 74.875,-98.71875c-5.9144,-48.4037 -49.0307,-82.68574 -96.3125,-76.5625c-30.2288,3.91479 -54.8204,23.37381 -67.0938,49.5625c-4.8142,-13.9351 -11.3976,-27.22305 -16.5624,-41.0625c-46.713,-111.8715 -101.2729,-220.95705 -172.1876,-319.59375c-35.6622,-48.6012 -76.3397,-94.79165 -127.875,-126.78125c-20.548,-12.4151 -43.2067,-21.51635 -67,-25.40625z"/>
            <path fill="#87cdde" id="path5088"
                  d="m215.265919,92.747227c32.125,78.4099 58.3773,331.337 -23.6563,566.5c-18.2296,-9.1149 -76.5627,-56.51865 -65.625,-134.90625c-72.9187,113.0241 -89.3239,200.53795 -54.6874,329.96875c56.5119,-76.5647 98.4374,-69.28125 98.4374,-69.28125c0,0 -65.6044,284.37421 -58.3124,311.71875c7.2919,27.34454 280.7214,7.29787 546.875,-207.8125c-74.7418,5.4689 -110.2813,-8.1875 -110.2813,-8.1875c0,0 155.8634,13.6675 195.9687,-15.5c4.96,-8.05986 -69.7089,-75.59572 -118.3124,-152.09375c-18.7995,-10.46969 -33.5752,-27.95231 -40.5938,-49.5c-12.8217,45.47396 -50.9844,81.09085 -99.75,87.40625c-65.3201,8.4593 -124.8933,-38.86151 -133.0625,-105.71875c-8.1692,-66.85724 38.1487,-127.9157 103.4687,-136.375c5.1032,-0.66088 10.1763,-1.00297 15.1876,-1c38.7358,0.023 74.055,19.36091 95.9374,50.03125c-49.5864,-119.35782 -192.6648,-429.99787 -351.5937,-465.25z"/>
            <path fill="#5abad2" id="path5090"
                  d="m268.640919,349.247227c0,0 -5.4685,151.28047 -16.4063,178.625c-10.9377,27.34454 -69.2811,220.60011 -74.75,360.96875c40.1055,-71.09581 69.2918,-178.66514 67.4688,-231.53125c-1.823,-52.86611 16.3852,-74.72843 20.0312,-100.25c3.646,-25.52157 29.1779,-111.19512 3.6563,-207.8125zm129.7813,181.65625c0,0 -50.2421,18.03273 -56.6876,85.0625c-6.4452,67.02976 11.3934,112.38016 86.3438,150.8125c54.8898,28.14586 113.4375,-11.59375 113.4375,-11.59375c15.6617,-4.18558 53.9095,36.6695 76.0625,83.78125c3.8672,24.49165 -59.2899,27.07807 -94.0938,24.5c-34.8037,-2.57807 58.0011,16.76545 109.5626,9.03125c51.5613,-7.73421 63.1481,2.57749 43.8124,-25.78125c-19.3355,-28.35875 -103.109,-94.10313 -95.375,-165c-0.5018,-1.00374 -1.092,-2.03738 -1.7187,-3.09375c-16.2809,38.15272 -51.1722,66.83441 -94.4375,72.4375c-65.3201,8.4593 -124.8933,-38.86151 -133.0625,-105.71875c-5.5456,-45.38575 14.0215,-88.0995 47.5937,-113.5c-0.2094,-0.13743 -1.4374,-0.9375 -1.4374,-0.9375zm-297.5,84.46875c-0.9117,29.16751 17.3124,48.3125 17.3124,48.3125c0,0 -26.4318,-12.74445 -43.75,-24.59375c-2.7344,22.78712 29.1927,48.29156 33.75,51.9375c4.5574,3.64593 -31,-6.375 -31,-6.375c0,0 16.4165,10.02078 20.0626,11.84375c3.6458,1.82297 -40.125,0.9375 -40.125,0.9375l47.4062,26.40625l-44.6562,2.75c0,0 48.3018,3.65625 55.5937,3.65625c4.5032,0 -17.7517,7.62541 -35.4375,13.46875c25.1419,-5.72939 78.1562,-17.9375 73.25,-17.9375c-6.3804,0 -86.5938,-26.4375 -86.5938,-26.4375l92.9688,9.125c0,0 -67.4424,-31.895 -77.4688,-61.0625c30.9905,23.6986 87.5,42.84375 87.5,42.84375c0,0 -8.8711,-7.59483 -19.6562,-20.46875c-28.7893,-19.87429 -47.7635,-48.8352 -49.1562,-54.40625zm50.5937,127.71875c-46.5927,2.82377 -71.4383,3.44737 -80.4687,3.59375c-6.4719,2.10622 -11.125,3.59375 -11.125,3.59375l21.875,0.90625l-20.9688,8.21875c0,0 0.01,1.83343 36.4688,-1.8125c-18.2297,10.02633 -25.5209,28.23303 -27.3438,74.71875c35.9277,-60.42384 85.6981,-62.32906 94.375,-66c-27.494,-1.00243 -70.7118,7.19932 -85.7188,49.71875c0,-44.6628 30.978,-64.7342 72.9063,-72.9375zm124.4687,94.59375c-0.9834,6.74395 -2.1434,13.09343 -3.4374,19.125c-0.5755,6.07955 -0.707,12.53501 -0.25,19.25c1.0243,-12.39465 2.1009,-25.28592 3.6874,-38.375zm12.3126,2.375c9.886,18.31893 20.4374,21.875 20.4374,21.875c0,0 -19.135,-5.45812 -28.25,-12.75c2.2787,11.39356 15.4971,19.13531 29.625,22.78125c-25.9772,-1.82297 -29.1562,2.75 -29.1562,2.75l19.125,0c0,0 -14.1119,2.72113 -19.125,10.46875c13.2165,-1.82297 43.2859,-3.65117 64.25,0.90625c6.3804,-13.21653 2.2812,-17.3125 2.2812,-17.3125c-4.9346,-2.24311 -47.8492,-9.791 -59.1874,-28.71875zm-23.8126,45.90625c-10.9702,32.26135 -25.7952,54.89542 -37.5,81.90625c-16.7574,38.67102 10.3356,82.48454 1.3126,90.21875c-9.0232,7.7342 -19.3454,11.6021 -91.5313,36.09375c248.7835,-15.46841 416.3532,-149.50881 487.25,-194.625c-46.4052,11.6013 -110.8437,-3.875 -110.8437,-3.875c29.6476,92.81044 -152.1254,126.33619 -167.5938,137.9375c-15.4684,11.60131 -56.7033,20.62477 -69.5938,10.3125c-12.8903,-10.31227 -23.2107,-73.4771 -14.1874,-97.96875c3.8839,-10.54238 6.0771,-24.19973 7.75,-39.71875c-2.2808,-6.29192 -3.9771,-13.10416 -5.0626,-20.28125z"/>
            <path fill="#c8e8f0" id="path5092"
                  d="m587.345736,647.820537c5.544965,45.380244 45.77369,77.540453 89.853445,71.831894c44.079755,-5.708558 75.318471,-47.124173 69.773506,-92.504417c-5.544965,-45.380244 -45.773849,-77.54058 -89.853604,-71.832022c-44.079755,5.708558 -75.318311,47.124301 -69.773347,92.504545z"/>
            <path fill="#ffffff"
                  d="m616.605006,632.186627c4.200147,34.374198 34.67222,58.734608 68.061334,54.410543c33.389115,-4.324065 57.05152,-35.695173 52.851373,-70.06937c-4.200147,-34.374198 -34.672341,-58.734704 -68.061455,-54.410639c-33.389115,4.324065 -57.0514,35.695269 -52.851252,70.069467z"
                  id="path5094"/>
            <path fill="#000000"
                  d="m640.9566,647.590535c1.368543,11.200216 11.297376,19.137662 22.17662,17.728743c10.879244,-1.408919 18.589222,-11.630683 17.22068,-22.830899c-1.368543,-11.200216 -11.297376,-19.137662 -22.17662,-17.728743c-10.879244,1.408919 -18.589222,11.630683 -17.22068,22.830899z"
                  id="path5098"/>
            <path fill="#ffffff" id="path5100"
                  d="m657.971354,637.098855c0.634421,5.19213 5.237171,8.871725 10.280508,8.218587c5.043336,-0.653138 8.617483,-5.391684 7.983062,-10.583815c-0.634421,-5.19213 -5.237171,-8.871725 -10.280508,-8.218587c-5.043336,0.653138 -8.617483,5.391684 -7.983062,10.583815z"/>
            <path fill="#c8e8f0"
                  d="m581.0798,618.470138c7.658941,62.681123 -35.489109,119.886107 -96.373945,127.771011c-60.884836,7.884904 -116.45066,-36.536119 -124.109601,-99.217242c-7.658941,-62.681123 35.48928,-119.886334 96.374116,-127.771237c60.884836,-7.884904 116.450489,36.536345 124.10943,99.217468z"
                  id="path5102"/>
            <path fill="#ffffff" id="path5104"
                  d="m568.940464,604.374241c5.708956,46.722354 -27.031258,89.43763 -73.127373,95.407318c-46.096115,5.969688 -88.092509,-27.066808 -93.801465,-73.789162c-5.708956,-46.722354 27.031388,-89.437799 73.127503,-95.407487c46.096115,-5.969688 88.092379,27.066977 93.801335,73.789331z"/>
            <path fill="#000000" id="path5108"
                  d="m464.7536,645.546935c1.368543,11.200216 11.297376,19.137662 22.17662,17.728743c10.879244,-1.408919 18.589222,-11.630683 17.22068,-22.830899c-1.368543,-11.200216 -11.297376,-19.137662 -22.17662,-17.728743c-10.879244,1.408919 -18.589222,11.630683 -17.22068,22.830899z"/>
            <path fill="#ffffff"
                  d="m481.768354,635.055255c0.634421,5.19213 5.237171,8.871725 10.280508,8.218587c5.043336,-0.653138 8.617483,-5.391684 7.983062,-10.583815c-0.634421,-5.19213 -5.237171,-8.871725 -10.280508,-8.218587c-5.043336,0.653138 -8.617483,5.391684 -7.983062,10.583815z"
                  id="path5110"/>
            <path fill="#000000" id="path5112"
                  d="m787.998019,519.286744c-7.7342,-5.1561 0,-50.2723 -60.5846,-39.9601c28.3588,-52.8504 83.7872,-28.3587 60.5846,39.9601z"/>
            <path fill="#000000" id="path5114"
                  d="m393.553619,447.100844c0,0 -32.2258,-41.2491 -58.0065,-18.0465c-25.7807,23.2026 5.1561,69.6078 5.1561,69.6078c0,0 -5.1561,-50.2723 52.8504,-51.5613z"/>
            <path fill="#c8e8f0" id="path5116"
                  d="m309.765919,178.965977c94.4489,112.2017 175.3437,307.09375 175.3437,307.09375c0,0 20.0621,-1.81295 36.4688,14.59375c-100.2633,-215.1103 -211.8125,-321.6875 -211.8125,-321.6875zm-191.0625,374.46875c-1.289,3.22258 1.9621,71.55935 54.8125,105.71875c5.1561,-0.64451 2.5625,-4.53125 2.5625,-4.53125c0,0 -57.375,-48.98163 -57.375,-101.1875zm663.2187,-223.09375c24.6103,42.8398 57.3894,91.16045 98.4063,128.53125c10.8641,9.8985 20.0729,22.79145 18.25,31.90625c25.5215,-5.4689 16.4173,-18.23905 -7.2813,-36.46875c-23.6985,-18.2296 -85.6874,-105.71875 -85.6874,-105.71875l-23.6876,-18.25zm-299.9687,115.71875c10.9519,40.88624 47.0702,38.20839 51.125,36.40625c-41.3344,-12.08836 -49.5891,-31.14473 -51.125,-36.40625z"/>
            <path fill="#000000" id="path5118"
                  d="m408.547219,418.622227c0,0 -72.0718,76.47465 -92.75,156.59375c-19.3817,75.0957 47.1889,151.47645 -2.0313,248.09375c-0.6804,1.33562 -1.3229,2.68573 -1.9687,4.03125c-10.6189,-11.91469 -20.7736,-26.98048 -23.5626,-43.15625c-27.0697,41.24908 -30.9528,90.23512 -18.0624,123.75c6.3034,-3.43832 13.3945,-5.94925 20.625,-7.78125c-9.9956,74.99447 10.1874,143.75 10.1874,143.75c0,0 -17.0699,-62.35078 8.375,-125.53125c3.126,-7.76186 6.0551,-15.16962 8.9063,-22.4375c14.1347,-1.01054 24.75,-0.25 24.75,-0.25c0,0 -43.8405,-10.46853 -67.6875,-0.15625c-12.1487,-48.69736 12.9062,-89.4375 12.9062,-89.4375c0,0 9.6731,29.01409 45.0626,44.28125c0.3793,0.21514 0.7418,0.44497 1.125,0.65625c0.016,-0.0505 0.016,-0.10572 0.031,-0.15625c1.9223,0.80038 3.896,1.56873 5.9688,2.28125c0,0 -2.1087,-1.50497 -5.4063,-4.09375c15.6901,-51.53332 19.9393,-103.09615 2.0937,-193c-21.3416,-107.5173 71.4378,-237.4375 71.4378,-237.4375zm-296.2188,154.9375c-4.5575,63.804 57.4062,116.6875 57.4062,116.6875c0,0 -56.5095,-19.14515 -87.5,-42.84375c10.0264,29.1675 77.4688,61.0625 77.4688,61.0625l-92.9688,-9.125c0,0 80.2134,26.4375 86.5938,26.4375c6.3804,0 -86.5938,20.96875 -86.5938,20.96875c0,0 24.6233,-0.0104 84.7813,-3.65625c-41.9283,8.2033 -72.9063,28.2747 -72.9063,72.9375c16.4068,-46.4858 66.5357,-51.95325 92.9688,-49.21875c-2.7345,-42.8398 17.3125,-85.68735 17.3125,-91.15625c-37.3709,-6.3804 -71.0937,-60.16545 -76.5625,-102.09375zm446.5938,-91.125c18.2297,156.7753 -60.1346,244.29015 -85.6562,297.15625c-25.5217,52.86614 -1.8438,122.125 -1.8438,122.125l47.4062,-10.9375c0,0 -36.4497,-58.35081 25.5313,-176.84375c61.9809,-118.493 14.5625,-231.5 14.5625,-231.5z"/>
            <path fill="#000000" id="path5120"
                  d="m302.820119,232.670344c0,0 45.5742,109.3781 -18.2297,275.2683c12.7608,-120.3159 18.2297,-275.2683 18.2297,-275.2683z"/>
            <path fill="#000000" id="path5122"
                  d="m295.314819,860.236167c0,0 30.2923,10.95679 49.6278,11.60131c3.2226,5.80065 -0.6445,10.31227 -0.6445,10.31227l-46.4053,-2.57807l39.6379,-3.22258c0,0 -32.8704,-9.99002 -42.2159,-16.11293z"/>
            <path fill="#2b869d"
                  d="m314.651977,505.11002c-69.6078,131.48146 -12.8905,284.88312 -10.3124,299.0625c0,0 19.3433,-48.98568 3.875,-108.28125c-15.4684,-59.29556 -9.0309,-130.19666 6.4374,-190.78125zm11.5938,403.46875c0,0 -28.3669,50.26705 -14.1875,114.71875c20.6245,-45.11619 23.2107,-86.36001 14.1875,-114.71875z"
                  id="path5124"/>
        </g>
    </g>
</svg>