<?xml version="1.0" encoding="utf-8"?>
<!-- Generator: Adobe Illustrator 23.0.5, SVG Export Plug-In . SVG Version: 6.00 Build 0)  -->
<svg version="1.1" id="Layer_3"
     xmlns="http://www.w3.org/2000/svg"
     x="0px" y="0px" viewBox="0 0 358.5 53.6"
     style="enable-background:new 0 0 358.5 53.6;" xml:space="preserve">
  <style type="text/css">
	.st0{fill:none;stroke:#000000;stroke-width:2;stroke-miterlimit:10;}
	.st1{font-family:'Verdana';}
	.st2{font-size:16px;}

  @media (max-width: 380px) {
    .st2{font-size:20px;}
  }
  </style>
    <title>q14-img</title>
    <g id="Layer_4">
    <g>
      <line class="st0" x1="2.2" y1="16.7" x2="356.3" y2="16.7"/>
        <polygon points="8.8,24.9 10.2,23.4 2.9,16.7 10.2,10 8.8,8.5 0,16.7 		"/>
        <polygon points="349.7,24.9 348.3,23.4 355.6,16.7 348.3,10 349.7,8.5 358.5,16.7 		"/>
    </g>
        <line class="st0" x1="43.4" y1="3.2" x2="43.4" y2="30.2"/>
        <line class="st0" x1="87.4" y1="3.2" x2="87.4" y2="30.2"/>
        <line class="st0" x1="133.6" y1="3.2" x2="133.6" y2="30.2"/>
        <line class="st0" x1="177.6" y1="3.2" x2="177.6" y2="30.2"/>
        <line class="st0" x1="223.8" y1="3.2" x2="223.8" y2="30.2"/>
        <line class="st0" x1="268.9" y1="3.2" x2="268.9" y2="30.2"/>
        <line class="st0" x1="315.1" y1="3.2" x2="315.1" y2="30.2"/>
  </g>
    <text transform="matrix(1 0 0 1 36.8 50.54)" class="st1 st2">4</text>
    <text transform="matrix(1 0 0 1 80.2 50.64)" class="st1 st2">5</text>
    <text transform="matrix(1 0 0 1 126.5 51.14)" class="st1 st2">6</text>
    <text transform="matrix(1 0 0 1 171.3 50.44)" class="st1 st2">7</text>
    <text transform="matrix(1 0 0 1 217.9 50.24)" class="st1 st2">8</text>
    <text transform="matrix(1 0 0 1 264 50.24)" class="st1 st2">9</text>
    <text transform="matrix(1 0 0 1 303.3 50.54)" class="st1 st2">10</text>
</svg>
