<svg width="399.47749196838436" height="399.1" xmlns="http://www.w3.org/2000/svg" class="Layer_2">
    <defs>
        <clipPath id="myClip">
            <rect x="20" y="20" width="60" height="60" id="svg_1"/>
        </clipPath>
        <linearGradient id="hourBorder" x1="NaN" y1="NaN" x2="NaN" y2="NaN">
            <stop stop-color="#FFFFFF" offset="0.85"/>
            <stop stop-color="#DDDDDD" offset="1"/>
        </linearGradient>
    </defs>
    <desc>Created with Snap</desc>
    <g>
        <title>background</title>
        <rect x="-1" y="-1" width="396.532924" height="396.160104" id="canvas_background" fill="none"/>
    </g>
    <g>
        <title>Layer 1</title>
        <circle class="clockBoundary" fill="none" stroke="#ff00ff" stroke-width="14.2909" stroke-miterlimit="10"
                cx="198.138119" cy="198.038119" r="186" id="svg_2"/>
        <text fill="#444444" stroke-width="0" stroke-opacity="null" x="229.572095" y="244.056296" id="svg_163"
              font-size="2" font-family="'Palatino Linotype', 'Book Antiqua', Palatino, serif" text-anchor="start"
              xml:space="preserve"
              transform="matrix(6.626290892293354,0,0,5.608202334338699,-1357.166232782374,-1075.9814424722056) "
              stroke="null" font-weight="bold">Fluent Brains</text>
        <polygon class="minuteHand"
                 points="199.4063554406166,186.39300537109375 196.86988693475723,186.39300537109375 196.86988693475723,86.03260803222656 198.13813644647598,83.01575469970703 199.4063554406166,86.03260803222656 "
                 id="svg_164" fill="#ff0000" stroke="null"/>
        <rect x="25.938119" y="194.138119" fill="#7A8391" width="7.5" height="7.5" id="svg_5"/>
        <circle fill="#000000" cx="30.738119" cy="180.338119" r="2.3" id="svg_7"/>
        <circle fill="#000000" cx="33.538119" cy="162.938119" r="2.3" id="svg_9"/>
        <circle fill="#000000" cx="38.338119" cy="146.038119" r="2.3" id="svg_11"/>
        <path fill="#000000"
              d="m45.538119,127.538119c-1.2,-0.5 -2.5,0 -3.1,1.2c-0.5,1.2 0,2.5 1.2,3.1c1.2,0.5 2.5,0 3.1,-1.2c0.5,-1.2 0,-2.6 -1.2,-3.1z"
              id="svg_13"/>
        <rect x="41.791714" y="111.945273" transform="matrix(0.4999,-0.8661,0.8661,0.4999,-70.705,95.5458) "
              fill="#000000" width="7.5" height="7.5" id="svg_15"/>
        <path fill="#000000"
              d="m63.438119,97.238119c-1,-0.8 -2.5,-0.5 -3.2,0.5c-0.8,1 -0.5,2.5 0.5,3.2c1,0.8 2.5,0.5 3.2,-0.5c0.8,-1 0.5,-2.4 -0.5,-3.2z"
              id="svg_17"/>
        <circle fill="#000000" cx="73.238119" cy="85.538119" r="2.3" id="svg_19"/>
        <circle fill="#000000" cx="85.638119" cy="73.138119" r="2.3" id="svg_21"/>
        <path fill="#000000"
              d="m101.238119,60.538119c-0.8,-1 -2.2,-1.3 -3.2,-0.5c-1,0.8 -1.3,2.2 -0.5,3.2c0.8,1 2.2,1.3 3.2,0.5c1,-0.7 1.2,-2.1 0.5,-3.2z"
              id="svg_23"/>
        <rect x="107.307431" y="50.345767" transform="matrix(0.866,-0.5,0.5,0.866,-9.0315,60.9524) " fill="#000000"
              width="7.5" height="7.5" id="svg_25"/>
        <circle fill="#000000" cx="129.738119" cy="44.438119" r="2.3" id="svg_27"/>
        <circle fill="#000000" cx="146.038119" cy="38.238119" r="2.3" id="svg_29"/>
        <circle fill="#000000" cx="163.138119" cy="33.538119" r="2.3" id="svg_31"/>
        <circle fill="#000000" cx="180.538119" cy="30.838119" r="2.3" id="svg_33"/>
        <rect x="25.938119" y="194.238119" fill="#000000" width="7.5" height="7.5" id="svg_36"/>
        <circle fill="#000000" cx="30.738119" cy="215.638119" r="2.3" id="svg_38"/>
        <circle fill="#000000" cx="33.538119" cy="233.038119" r="2.3" id="svg_40"/>
        <circle fill="#000000" cx="38.338119" cy="249.938119" r="2.3" id="svg_42"/>
        <path fill="#000000"
              d="m45.538119,268.338119c-1.2,0.5 -2.5,0 -3.1,-1.2c-0.5,-1.2 0,-2.5 1.2,-3.1c1.2,-0.5 2.5,0 3.1,1.2c0.5,1.2 0,2.6 -1.2,3.1z"
              id="svg_44"/>
        <rect x="50.345273" y="271.491714" transform="matrix(0.4999,0.8661,-0.8661,0.4999,263.6294,97.4966) "
              fill="#000000" width="7.5" height="7.5" id="svg_46"/>
        <path fill="#000000"
              d="m63.438119,298.638119c-1,0.8 -2.5,0.5 -3.2,-0.5c-0.8,-1 -0.5,-2.5 0.5,-3.2c1,-0.8 2.5,-0.5 3.2,0.5c0.8,1 0.5,2.5 -0.5,3.2z"
              id="svg_48"/>
        <circle fill="#000000" cx="73.238119" cy="310.338119" r="2.3" id="svg_50"/>
        <circle fill="#000000" cx="85.638119" cy="322.738119" r="2.3" id="svg_52"/>
        <path fill="#000000"
              d="m101.238119,335.338119c-0.8,1 -2.2,1.3 -3.2,0.5c-1,-0.8 -1.3,-2.2 -0.5,-3.2c0.8,-1 2.2,-1.3 3.2,-0.5c1,0.7 1.2,2.2 0.5,3.2z"
              id="svg_54"/>
        <rect x="112.245767" y="336.807431" transform="matrix(0.866,0.5,-0.5,0.866,183.9876,-9.2336) " fill="#000000"
              width="7.5" height="7.5" id="svg_56"/>
        <circle fill="#000000" cx="129.738119" cy="351.538119" r="2.3" id="svg_58"/>
        <circle fill="#000000" cx="146.038119" cy="357.638119" r="2.3" id="svg_60"/>
        <circle fill="#000000" cx="163.138119" cy="362.338119" r="2.3" id="svg_62"/>
        <circle fill="#000000" cx="180.538119" cy="365.138119" r="2.3" id="svg_64"/>
        <circle fill="#000000" cx="365.438119" cy="215.638119" r="2.3" id="svg_67"/>
        <circle fill="#000000" cx="362.638119" cy="233.038119" r="2.3" id="svg_69"/>
        <circle fill="#000000" cx="357.838119" cy="249.938119" r="2.3" id="svg_71"/>
        <path fill="#000000"
              d="m350.638119,268.338119c1.2,0.5 2.5,0 3.1,-1.2c0.5,-1.2 0,-2.5 -1.2,-3.1c-1.2,-0.5 -2.5,0 -3.1,1.2c-0.5,1.2 0,2.6 1.2,3.1z"
              id="svg_73"/>
        <rect x="336.908286" y="266.554727" transform="matrix(-0.4999,0.8661,-0.8661,-0.4999,748.2562,122.0441) "
              fill="#000000" width="7.5" height="7.5" id="svg_75"/>
        <path fill="#000000"
              d="m332.738119,298.638119c1,0.8 2.5,0.5 3.2,-0.5c0.8,-1 0.5,-2.5 -0.5,-3.2c-1,-0.8 -2.5,-0.5 -3.2,0.5c-0.8,1 -0.6,2.5 0.5,3.2z"
              id="svg_77"/>
        <circle fill="#000000" cx="322.938119" cy="310.338119" r="2.3" id="svg_79"/>
        <circle fill="#000000" cx="310.538119" cy="322.738119" r="2.3" id="svg_81"/>
        <path fill="#000000"
              d="m294.938119,335.338119c0.8,1 2.2,1.3 3.2,0.5c1,-0.8 1.3,-2.2 0.5,-3.2c-0.8,-1 -2.2,-1.3 -3.2,-0.5c-1,0.7 -1.2,2.2 -0.5,3.2z"
              id="svg_83"/>
        <rect x="271.492569" y="328.254233" transform="matrix(-0.866,0.5,-0.5,-0.866,686.3503,493.5194) " fill="#000000"
              width="7.5" height="7.5" id="svg_85"/>
        <circle fill="#000000" cx="266.438119" cy="351.538119" r="2.3" id="svg_87"/>
        <circle fill="#000000" cx="250.038119" cy="357.638119" r="2.3" id="svg_89"/>
        <circle fill="#000000" cx="233.038119" cy="362.338119" r="2.3" id="svg_91"/>
        <circle fill="#000000" cx="215.638119" cy="365.138119" r="2.3" id="svg_93"/>
        <rect x="194.438119" y="362.838119" fill="#000000" width="7.5" height="7.5" id="svg_95"/>
        <rect x="362.738119" y="194.138119" fill="#000000" width="7.5" height="7.5" id="svg_98"/>
        <circle fill="#000000" cx="365.438119" cy="180.338119" r="2.3" id="svg_100"/>
        <circle fill="#000000" cx="362.638119" cy="162.938119" r="2.3" id="svg_102"/>
        <circle fill="#000000" cx="357.838119" cy="146.038119" r="2.3" id="svg_104"/>
        <path fill="#000000"
              d="m350.638119,127.538119c1.2,-0.5 2.5,0 3.1,1.2c0.5,1.2 0,2.5 -1.2,3.1c-1.2,0.5 -2.5,0 -3.1,-1.2c-0.5,-1.2 0,-2.6 1.2,-3.1z"
              id="svg_106"/>
        <rect x="340.038119" y="110.138119" fill="#000000" width="7.5" height="7.5" id="svg_108"/>
        <path fill="#000000"
              d="m332.738119,97.238119c1,-0.8 2.5,-0.5 3.2,0.5c0.8,1 0.5,2.5 -0.5,3.2c-1,0.8 -2.5,0.5 -3.2,-0.5c-0.8,-1 -0.6,-2.4 0.5,-3.2z"
              id="svg_110"/>
        <circle fill="#000000" cx="322.938119" cy="85.538119" r="2.3" id="svg_112"/>
        <circle fill="#000000" cx="310.538119" cy="73.138119" r="2.3" id="svg_114"/>
        <path fill="#000000"
              d="m294.938119,60.538119c0.8,-1 2.2,-1.3 3.2,-0.5c1,0.8 1.3,2.2 0.5,3.2c-0.8,1 -2.2,1.3 -3.2,0.5c-1,-0.7 -1.2,-2.1 -0.5,-3.2z"
              id="svg_116"/>
        <rect x="278.238119" y="48.538119" fill="#000000" width="7.5" height="7.5" id="svg_118"/>
        <circle fill="#000000" cx="266.438119" cy="44.438119" r="2.3" id="svg_120"/>
        <circle fill="#000000" cx="250.038119" cy="38.238119" r="2.3" id="svg_122"/>
        <circle fill="#000000" cx="233.038119" cy="33.538119" r="2.3" id="svg_124"/>
        <circle fill="#000000" cx="215.638119" cy="30.838119" r="2.3" id="svg_126"/>
        <rect x="194.438119" y="26.538119" fill="#000000" width="7.5" height="7.5" id="svg_128"/>
        <path fill="#231F20" d="m184.438119,54.338119l-5.6,0l2.7,-4.6l7.8,0l0,32.4l-4.9,0l0,-27.8z" id="svg_131"/>
        <path fill="#231F20"
              d="m206.738119,77.538119l12.1,0l0,4.6l-21.8,0l11.3,-13.6c1.1,-1.4 2,-2.5 2.8,-3.5c0.7,-1 1.3,-1.8 1.7,-2.5c0.8,-1.3 1.2,-2.5 1.2,-3.5c0,-1.5 -0.5,-2.8 -1.6,-3.8c-1.1,-1 -2.4,-1.5 -3.9,-1.5c-3.3,0 -5.2,1.9 -5.6,5.8l-5,0c0.8,-6.8 4.2,-10.2 10.4,-10.2c3,0 5.4,0.9 7.4,2.8c2,1.9 3,4.2 3,7c0,1.8 -0.5,3.5 -1.4,5.2c-0.5,0.9 -1.2,1.9 -2.1,3.1c-0.9,1.2 -2.1,2.6 -3.5,4.3l-5,5.8z"
              id="svg_132"/>
        <path fill="#231F20" d="m267.338119,74.638119l-5.6,0l2.7,-4.6l7.8,0l0,32.4l-4.9,0l0,-27.8z" id="svg_134"/>
        <path fill="#231F20"
              d="m313.138119,143.538119l12.1,0l0,4.6l-21.8,0l11.3,-13.6c1.1,-1.4 2,-2.5 2.8,-3.5c0.7,-1 1.3,-1.8 1.7,-2.5c0.8,-1.3 1.2,-2.5 1.2,-3.5c0,-1.5 -0.5,-2.8 -1.6,-3.8c-1.1,-1 -2.4,-1.5 -3.9,-1.5c-3.3,0 -5.2,1.9 -5.6,5.8l-4.9,0c0.8,-6.8 4.2,-10.2 10.4,-10.2c3,0 5.4,0.9 7.4,2.8c2,1.9 3,4.2 3,7c0,1.8 -0.5,3.5 -1.4,5.2c-0.5,0.9 -1.2,1.9 -2.1,3.1c-0.9,1.2 -2.1,2.6 -3.5,4.3l-5.1,5.8z"
              id="svg_136"/>
        <path fill="#231F20"
              d="m334.438119,199.738119l0,-4.2c2.1,0 3.5,-0.2 4.2,-0.7c1.3,-0.8 1.9,-2.1 1.9,-3.9c0,-1.4 -0.5,-2.5 -1.4,-3.4c-0.9,-0.9 -2.1,-1.3 -3.5,-1.3c-1.4,0 -2.4,0.3 -3.1,1c-0.7,0.7 -1.2,1.8 -1.6,3.4l-4.9,0c0.5,-3.1 1.5,-5.3 3.1,-6.7c1.6,-1.4 3.8,-2.1 6.6,-2.1c2.8,0 5.2,0.8 6.9,2.5c1.8,1.7 2.7,3.8 2.7,6.4c0,3 -1.2,5.3 -3.5,6.9c2.7,1.6 4.1,4.1 4.1,7.7c0,2.9 -1,5.3 -3,7.1s-4.5,2.8 -7.5,2.8c-3.9,0 -6.8,-1.4 -8.7,-4.3c-0.8,-1.2 -1.3,-2.9 -1.5,-5l4.7,0c0.3,1.6 0.9,2.8 1.8,3.6c1,0.8 2.2,1.2 3.8,1.2c1.6,0 2.9,-0.5 3.9,-1.6c1,-1.1 1.6,-2.4 1.6,-4.1c0,-2.2 -0.8,-3.7 -2.3,-4.7c-0.9,-0.3 -2.4,-0.6 -4.3,-0.6z"
              id="svg_138"/>
        <path fill="#231F20"
              d="m58.638119,215.938119l-3.6,-2.7l7.7,-10.6c-0.4,0.1 -0.8,0.1 -1.1,0.1s-0.5,0 -0.7,0c-2.6,0 -4.9,-1 -6.8,-3c-1.9,-2 -2.9,-4.4 -2.9,-7.2c0,-3 1.1,-5.5 3.2,-7.6c2.1,-2.1 4.7,-3.2 7.6,-3.2c3,0 5.5,1 7.7,3.1c2.2,2.1 3.3,4.5 3.3,7.4c0,2.5 -1.1,5.2 -3.2,8.2l-11.2,15.5zm-2.5,-23.6c0,1.8 0.6,3.2 1.8,4.4c1.2,1.2 2.7,1.8 4.3,1.8c1.7,0 3.1,-0.6 4.3,-1.8c1.2,-1.2 1.8,-2.7 1.8,-4.3c0,-1.7 -0.6,-3.1 -1.8,-4.3c-1.2,-1.2 -2.6,-1.8 -4.3,-1.8c-1.7,0 -3.1,0.6 -4.3,1.8c-1.2,1.1 -1.8,2.5 -1.8,4.2z"
              id="svg_140"/>
        <path fill="#231F20"
              d="m78.538119,265.238119c-2.4,-1.7 -3.6,-4 -3.6,-6.9c0,-2.6 0.9,-4.8 2.7,-6.6c1.8,-1.8 4.1,-2.6 6.8,-2.6c2.7,0 4.9,0.9 6.7,2.6c1.8,1.8 2.7,4 2.7,6.6c0,2.8 -1.2,5.1 -3.5,6.8c1.3,0.7 2.3,1.7 3.1,3.1c0.8,1.3 1.2,2.9 1.2,4.5c0,2.9 -0.9,5.2 -2.8,7.1c-1.9,1.8 -4.3,2.8 -7.2,2.8c-3,0 -5.5,-0.9 -7.4,-2.8c-2,-1.8 -2.9,-4.2 -2.9,-7c-0.2,-3.6 1.2,-6.1 4.2,-7.6zm0.4,7.5c0,1.5 0.5,2.8 1.6,3.9c1,1.1 2.3,1.6 3.8,1.6c1.5,0 2.7,-0.5 3.8,-1.6c1,-1.1 1.6,-2.3 1.6,-3.8c0,-1.5 -0.5,-2.8 -1.6,-3.8s-2.3,-1.6 -3.8,-1.6c-1.5,0 -2.7,0.5 -3.8,1.6c-1.1,1 -1.6,2.3 -1.6,3.7zm0.6,-14.3c0,1.4 0.5,2.5 1.4,3.5c1,1 2.1,1.4 3.4,1.4c1.3,0 2.5,-0.5 3.4,-1.4s1.4,-2.1 1.4,-3.4c0,-1.3 -0.5,-2.5 -1.4,-3.4s-2.1,-1.4 -3.4,-1.4c-1.3,0 -2.5,0.5 -3.4,1.4s-1.4,2 -1.4,3.3z"
              id="svg_142"/>
        <path fill="#231F20" d="m140.238119,297.638119l-16,0l0,-4.6l24.2,0l-20.5,33.5l-3.9,-2.5l16.2,-26.4z"
              id="svg_144"/>
        <path fill="#231F20" d="m64.038119,123.638119l-5.6,0l2.7,-4.6l7.8,0l0,32.4l-4.9,0l0,-27.8z" id="svg_146"/>
        <path fill="#231F20"
              d="m78.138119,135.038119c0,-5.2 1.2,-9.3 3.6,-12.4c2.2,-2.8 4.8,-4.2 7.8,-4.2s5.7,1.4 7.8,4.2c2.4,3.1 3.6,7.3 3.6,12.6c0,5.3 -1.2,9.5 -3.6,12.6c-2.2,2.8 -4.8,4.2 -7.8,4.2s-5.7,-1.4 -7.9,-4.2c-2.3,-3.1 -3.5,-7.4 -3.5,-12.8zm4.9,0c0,3.6 0.6,6.6 1.9,9c1.2,2.3 2.8,3.5 4.8,3.5c1.9,0 3.5,-1.2 4.8,-3.5c1.3,-2.3 1.9,-5.3 1.9,-8.8c0,-3.5 -0.6,-6.5 -1.9,-8.8c-1.3,-2.3 -2.8,-3.5 -4.8,-3.5c-1.9,0 -3.5,1.2 -4.7,3.5c-1.4,2.3 -2,5.2 -2,8.6z"
              id="svg_147"/>
        <path fill="#231F20" d="m124.238119,74.638119l-5.6,0l2.7,-4.6l7.8,0l0,32.4l-4.9,0l0,-27.8z" id="svg_149"/>
        <path fill="#231F20" d="m144.438119,74.638119l-5.6,0l2.7,-4.6l7.8,0l0,32.4l-4.9,0l0,-27.8z" id="svg_150"/>
        <path fill="#231F20"
              d="m320.538119,269.438119l3.4,0l0,4.5l-3.4,0l0,4.6l-4.9,0l0,-4.6l-15.9,0l20.8,-30.2l0,25.7zm-4.9,0l0,-10.9l-7.5,10.9l7.5,0z"
              id="svg_152"/>
        <path fill="#231F20"
              d="m275.938119,298.338119l-10,0l-1.6,5.4c0.2,0 0.5,0 0.7,-0.1c0.2,0 0.4,0 0.6,0c3.1,0 5.7,1.1 7.7,3.2c2,2.1 3,4.8 3,8.1c0,3.4 -1.1,6.2 -3.4,8.4c-2.3,2.2 -5.2,3.3 -8.7,3.3c-4.3,0 -7.7,-2 -10.2,-6l3.7,-3.1c1,1.7 2,3 3.1,3.7c1,0.7 2.3,1 3.8,1c2,0 3.6,-0.7 4.9,-2.1c1.3,-1.4 2,-3.1 2,-5.1c0,-2.1 -0.7,-3.8 -2,-5.1c-1.3,-1.4 -3,-2 -4.9,-2c-2.2,0 -4.1,1 -5.7,2.9l-1.6,0l5.1,-17l13.5,0l0,4.5z"
              id="svg_154"/>
        <path fill="#231F20"
              d="m202.238119,313.238119l3.6,2.7l-7.7,10.5c0.4,-0.1 0.8,-0.1 1.1,-0.1c0.3,0 0.5,0 0.7,0c2.6,0 4.9,1 6.8,3c1.9,2 2.9,4.4 2.9,7.2c0,3 -1.1,5.5 -3.2,7.6c-2.1,2.1 -4.7,3.2 -7.6,3.2c-2.9,0 -5.5,-1 -7.7,-3.1c-2.2,-2.1 -3.3,-4.6 -3.3,-7.4c0,-2.6 1.1,-5.3 3.2,-8.1l11.2,-15.5zm2.5,23.6c0,-1.7 -0.6,-3.2 -1.8,-4.4c-1.2,-1.2 -2.7,-1.8 -4.3,-1.8c-1.7,0 -3.2,0.6 -4.3,1.8c-1.2,1.2 -1.8,2.6 -1.8,4.3c0,1.7 0.6,3.1 1.8,4.3c1.2,1.2 2.6,1.8 4.4,1.8c1.7,0 3.1,-0.6 4.3,-1.8c1.1,-1.1 1.7,-2.6 1.7,-4.2z"
              id="svg_156"/>
        <polygon class="minuteHand"
                 points="149.78169113397598,218.98770141601562 143.78169113397598,218.98770141601562 143.78169113397598,119.18768310546875 146.78169113397598,116.18768310546875 149.78169113397598,119.18768310546875 "
                 id="svg_157" transform="rotate(-59.711551666259766 146.7816925048828,167.5876922607422) "/>
        <polygon stroke="url(#hourBorder)" class="hourHand"
                 points="150.91015625,257.74214309453964 142.45361328125,252.5156416296959 174.30625915527344,193.46067947149277 180.94622802734375,191.70201247930527 182.7626953125,198.68711990118027 "
                 id="svg_158" transform="rotate(-154.76036071777344 162.608154296875,224.72207641601562) "/>
        <path fill="#000000"
              d="m208.738119,196.238119c1.2,7.4 -5.1,13.7 -12.5,12.5c-4.5,-0.7 -8.1,-4.3 -8.8,-8.8c-1.2,-7.4 5.1,-13.7 12.5,-12.5c4.5,0.7 8.1,4.3 8.8,8.8z"
              id="svg_161"/>
        <path class="centerOutline" fill="#ffffff"
              d="m209.738119,196.138119c-0.8,-4.9 -4.7,-8.8 -9.6,-9.6c-8,-1.3 -14.9,5.5 -13.6,13.6c0.8,4.9 4.7,8.8 9.6,9.6c8,1.3 14.9,-5.6 13.6,-13.6zm-13,10.1c-3.4,-0.6 -6.2,-3.3 -6.7,-6.7c-0.9,-5.7 3.9,-10.5 9.5,-9.5c3.4,0.6 6.2,3.3 6.7,6.7c1,5.6 -3.8,10.4 -9.5,9.5z"
              id="svg_162"/>
    </g>
</svg>