<svg width="80" height="80" xmlns="http://www.w3.org/2000/svg">
    <title/>

    <g>
        <title>background</title>
        <rect fill="none" id="canvas_background" height="82" width="82" y="-1" x="-1"/>
    </g>
    <g>
        <title>Layer 1</title>
        <polygon id="svg_1"
                 points="33.89127171039581,71.35010528564453 30.891265988349915,76.35010528564453 38.89122211933136,76.35010528564453 36.89124119281769,71.35010528564453 33.89127171039581,71.35010528564453 "
                 fill="#fe9f59"/>
        <path stroke="null" id="svg_9" fill="#fe964a"
              d="m71.694012,37.624742c0,19.176692 -14.284701,34.725361 -31.901316,34.725361c-10.043007,0 -19.010822,-5.0585 -24.812135,-12.96759a45.595252,40.001543 0 0 1 -7.089181,-21.768137c0,-19.166326 14.284701,-34.714995 31.901316,-34.714995a28.356726,24.877871 0 0 1 20.086014,7.7847c7.230965,6.364589 11.815302,16.056592 11.815302,26.940661z"/>
        <path stroke="null" id="svg_10" fill="#fe9f59"
              d="m63.49262,32.525923c0,19.231264 -13.444404,34.82418 -30.024724,34.82418a26.688643,24.948667 0 0 1 -18.904456,-7.806854a42.913115,40.115377 0 0 1 -6.672161,-21.830083c0,-19.220869 13.444404,-34.813785 30.024724,-34.813785a26.688643,24.948667 0 0 1 18.904456,7.806854a42.913115,40.115377 0 0 1 6.672161,21.819688z"/>
        <ellipse id="svg_12" transform="rotate(-54.369998931884766 -20.38888740539549,49.280101776123054) " ry="2.5"
                 rx="5" fill="#feb27a" cy="64.280104" cx="32.11112"/>
        <ellipse id="svg_13" ry="2" rx="1.5" fill="#feb27a" cy="24.350103" cx="18.39112"/>
        <path id="svg_16" stroke-width="2" stroke-miterlimit="10" stroke-linecap="round" stroke="#a81e49" fill="none"
              d="m35.89112,72.350103s-10,15 -7,33s19,16 21,16"/>
        <path id="svg_19" stroke-width="2" stroke-miterlimit="10" stroke-linecap="round" stroke="#a81e49" fill="none"
              d="m38.39112,72.520103s-5,-1 -6,0"/>
    </g>
</svg>
