<svg xmlns:xlink="http://www.w3.org/1999/xlink" width="490" height="310" xmlns="http://www.w3.org/2000/svg"
     class="clock-body-3">
    <defs>
        <svg viewBox="-182 0 310 310" y="0px" x="0px" id="digit0-3DIVSkp48tuqyiy">
            <path id="svg_1"
                  d="m137.475,162.153l-12.138,11.849l-11.849,-11.849l0.289,-75.14l11.849,-12.138l11.849,12.138l0,75.14zm0.289,103.463l-12.138,12.138l-11.849,-12.138l-0.289,-75.141l11.849,-11.85l12.138,11.85l0.289,75.141zm90.17,-192.764l-12.139,12.138l-76.007,0l-12.138,-12.138l12.138,-12.138l76.007,0l12.139,12.138zm0,206.925l-11.85,12.138l-76.296,0l-12.138,-12.138l12.138,-12.139l76.007,0l12.139,12.139zm14.161,-117.624l-12.139,11.849l-12.138,-11.849l0.289,-75.14l11.849,-12.138l12.139,12.138l0,75.14zm0.289,103.463l-12.139,12.138l-12.138,-12.138l-0.289,-75.141l12.138,-11.85l12.139,11.85l0.289,75.141z"/>
            <desc>Created with Snap</desc>

        </svg>
    </defs>
    <desc>Created with Snap</desc>
    <g>
        <title>background</title>
        <rect fill="none" id="canvas_background" height="312" width="492" y="-1" x="-1"/>
    </g>
    <g>
        <title>Layer 1</title>
        <rect id="svg_21" height="223.2" width="440.8" fill="#E6E7E8" y="33.283292" x="17.323835"/>
        <rect stroke="null" id="svg_24" height="27.213843" width="81.4" y="272.281325" x="17.927795"/>
        <rect stroke="null" id="svg_25" height="27.981167" width="81.4" y="270.746685" x="388.029777"/>
        <path id="svg_26"
              d="m3.595119,14.354577l0,265.6l14.9,0l81.4,0l286.3,0l81.4,0l17.4,0l0,-265.6l-481.4,0zm34.6,231.1l0,-196.5l412.4,0l0,196.5l-412.4,0z"
              fill="#56aaff" class="clock-body-colorable"/>
        <use id="svg_32" fill="#000000" height="55%" y="257" x="248" xlink:href="#digit0-3DIVSkp48tuqyiy"/>
        <polyline stroke-linecap="round" id="svg_34"
                  points="294.4925443486617,175.54196951315933 294.4925443486617,175.54196951315933 "
                  fill-opacity="null" stroke-opacity="null" stroke-width="null" stroke="null" fill="none"/>
        <text stroke="null"
              transform="matrix(26.904216766357422,0,0,4.857127666473389,-1546.1579382419586,-261.72258571199563) "
              xml:space="preserve" text-anchor="start" font-family="Helvetica, Arial, sans-serif" font-size="24"
              id="svg_36" y="91.903406" x="59.690706" fill-opacity="null" stroke-opacity="null" stroke-width="0"
              fill="#000000"/>
        <text font-weight="bold" stroke="null"
              transform="matrix(5.992710508792362,0,0,7.297556327417833,-1053.4024751741727,-429.44483299290374) "
              xml:space="preserve" text-anchor="start" font-family="Oswald, sans-serif" font-size="24" id="svg_37"
              y="85.489573" x="182.387125" fill-opacity="null" stroke-opacity="null" stroke-width="0" fill="#000000">10:20</text>
        <text stroke="null"
              transform="matrix(2.3025953955979532,0,0,1.7988202504142514,-641.0067644182111,-172.69056040478023) "
              xml:space="preserve" text-anchor="start" font-family="Oswald, sans-serif" font-size="24" id="svg_38"
              y="229.228925" x="437.349617" fill-opacity="null" stroke-opacity="null" stroke-width="0"
              fill="#000000">AM</text>
        <text stroke="null" xml:space="preserve" text-anchor="start" font-family="Oswald, sans-serif" font-size="13"
              id="svg_40" y="259.180533" x="200.87874" fill-opacity="null" stroke-opacity="null" stroke-width="0"
              fill="#000000"/>
    </g>
</svg>