<svg width="24" height="24" xmlns="http://www.w3.org/2000/svg">
    <title/>

    <g>
        <title>background</title>
        <rect x="-1" y="-1" width="9.603939" height="9.603939" id="canvas_background" fill="none"/>
    </g>
    <g>
        <title>Layer 1</title>
        <path d="m21.82,10.74l-5.12,3.71l2,6a1,1 0 0 1 -0.37,1.12a1,1 0 0 1 -1.17,0l-5.16,-3.7l-5.12,3.72a1,1 0 0 1 -1.17,0a1,1 0 0 1 -0.37,-1.12l2,-6l-5.16,-3.73a1,1 0 0 1 0.59,-1.81l6.32,0l2,-6a1,1 0 0 1 1.9,0l2,6l6.32,0a1,1 0 0 1 0.59,1.81l-0.08,0z"
              fill="#5656ff" id="svg_1"/>
    </g>
</svg>