<svg width="100" height="170" xmlns="http://www.w3.org/2000/svg" style="vector-effect: non-scaling-stroke;"
     stroke="null">
    <title style="vector-effect: non-scaling-stroke;" stroke="null"/>

    <g stroke="null">
        <title stroke="null">background</title>
        <rect stroke="null" fill="none" id="canvas_background" height="172" width="102" y="-1" x="-1"/>
    </g>
    <g stroke="null">
        <title stroke="null">Layer 1</title>
        <path stroke="null" id="svg_16"
              d="m88.031079,80.920996a13.881879,14.457792 0 0 0 -5.099694,-5.018517a45.837586,47.739235 0 0 0 -13.953887,-5.238077a93.519976,97.399809 0 0 0 -19.194124,-1.965586c-10.631055,0 -20.268272,1.651928 -27.325526,4.349381a27.618899,28.764715 0 0 0 -8.482759,4.851233a10.855703,11.30607 0 0 0 -2.439421,3.021565a6.799749,7.081848 0 0 0 -0.903489,3.460685l0,62.731457a6.800091,7.082204 0 0 0 0.903489,3.460685a13.882361,14.458294 0 0 0 5.099694,5.018517a45.840778,47.74256 0 0 0 13.953887,5.238077a93.519976,97.399809 0 0 0 19.194124,1.965586c10.631055,0 20.268272,-1.651928 27.325526,-4.349381a27.618869,28.764684 0 0 0 8.482759,-4.851233a10.856636,11.307042 0 0 0 2.439421,-3.021565a6.800091,7.082204 0 0 0 0.903489,-3.460685l0,-62.731457a6.799749,7.081848 0 0 0 -0.903489,-3.460685zm-74.738626,1.014159a11.87011,12.362561 0 0 1 4.386942,-4.244829a43.84733,45.66641 0 0 1 13.321445,-4.987151a92.209214,96.034668 0 0 1 18.782534,-1.913309c10.43028,0 19.87676,1.631018 26.622812,4.223918a25.861974,26.934901 0 0 1 7.870394,4.453933a9.087434,9.464441 0 0 1 1.997715,2.467437a4.554468,4.743418 0 0 1 0,4.893054a11.869628,12.36206 0 0 1 -4.386942,4.244829a43.845714,45.664726 0 0 1 -13.321445,4.987151a92.208993,96.034438 0 0 1 -18.782534,1.913309c-10.43028,0 -19.87676,-1.631018 -26.622812,-4.223918a25.861984,26.934912 0 0 1 -7.870394,-4.453933a9.087605,9.464619 0 0 1 -1.997715,-2.467437a4.554468,4.743418 0 0 1 0,-4.893054zm73.634362,65.177984a4.757231,4.954593 0 0 1 -0.65252,2.446527a11.869628,12.36206 0 0 1 -4.386942,4.244829a43.845714,45.664726 0 0 1 -13.321445,4.987151a92.208993,96.034438 0 0 1 -18.782534,1.913309c-10.43028,0 -19.87676,-1.631018 -26.622812,-4.223918a25.861984,26.934912 0 0 1 -7.870394,-4.453933a9.087605,9.464619 0 0 1 -1.997715,-2.467437a4.757231,4.954593 0 0 1 -0.65252,-2.446527l0,-57.650209a16.248669,16.922772 0 0 0 3.99543,3.397954a45.840778,47.74256 0 0 0 13.953887,5.238077a93.519976,97.399809 0 0 0 19.194124,1.965586c10.631055,0 20.268272,-1.651928 27.325526,-4.349381a27.618869,28.764684 0 0 0 8.482759,-4.851233a12.82553,13.357618 0 0 0 1.335156,-1.380092l0,57.629299z"/>
        <path stroke="null" stroke-width="0.2" id="svg_5"
              d="m88.731834,82.291989l-38.047008,-73.379501a1.016805,1.018458 0 0 0 -1.803673,0l-37.998846,73.286613a6.567862,6.578535 0 0 0 -0.617991,2.286267a6.863917,6.875072 0 0 0 0.911969,3.359471a14.012663,14.035435 0 0 0 5.14756,4.871741a46.271046,46.346241 0 0 0 14.08486,5.08488a94.397768,94.551174 0 0 0 19.374283,1.908099c10.73084,0 20.458513,-1.603615 27.582007,-4.222175a27.878103,27.923408 0 0 0 8.562379,-4.70935a10.958538,10.976347 0 0 0 2.462317,-2.933194a6.863917,6.875072 0 0 0 0.911969,-3.359471a6.082755,6.09264 0 0 0 -0.569829,-2.19338zm-2.115414,4.568353a11.981038,12.000509 0 0 1 -4.428118,4.120681a44.257256,44.329178 0 0 1 -13.446482,4.841293a93.07448,93.225735 0 0 1 -18.95883,1.857351c-10.52818,0 -20.063326,-1.583316 -26.872698,-4.100382a26.104728,26.147151 0 0 1 -7.944267,-4.32367a9.172902,9.187809 0 0 1 -2.016466,-2.395273a4.801884,4.809687 0 0 1 -0.658645,-2.374974a3.465392,3.471024 0 0 1 0.070931,-0.720612s1.665378,-3.238114 1.960734,-3.793686s2.528182,-1.676874 3.156427,-2.052404a1.0088,1.01044 0 1 0 -1.033565,-1.735558c-0.081064,0.040598 -0.151995,0.091345 -0.233059,0.142042l33.570606,-64.743356l33.570606,64.743407c-0.081064,-0.050747 -0.151995,-0.101495 -0.233059,-0.152242a1.015762,1.017412 0 0 0 -1.043698,1.745707c0.628246,0.37553 2.87777,1.49329 3.173106,2.063385l1.954188,3.772554a4.449752,4.456983 0 0 1 0.070931,0.730761a4.801884,4.809687 0 0 1 -0.658645,2.374974z"/>
        <path stroke="null" id="svg_13"
              d="m433.756967,395.609042a100.595498,100.595498 0 0 1 8.998526,6.134862a5.220793,5.220793 0 0 0 7.397592,-1.046728a5.437645,5.437645 0 0 0 -1.028361,-7.528287a111.138529,111.138529 0 0 0 -9.9428,-6.782869a5.229764,5.229764 0 0 0 -7.243964,1.851017a5.428461,5.428461 0 0 0 1.818954,7.371952l0.000053,0.000053zm-40.717917,-17.683958q5.483032,1.730567 10.602645,3.599899a5.257103,5.257103 0 0 0 6.75415,-3.24423a5.400485,5.400485 0 0 0 -3.187801,-6.873644q-5.344056,-1.95087 -11.040012,-3.748696a5.265066,5.265066 0 0 0 -6.609069,3.541187a5.392523,5.392523 0 0 0 3.479821,6.725431l0.000265,0.000053zm-43.721619,-10.468341q5.636023,0.986317 11.069846,2.098499a5.285132,5.285132 0 0 0 6.21863,-4.209632a5.372191,5.372191 0 0 0 -4.13664,-6.328515q-5.580708,-1.141856 -11.361706,-2.153919a5.290865,5.290865 0 0 0 -6.099985,4.385874a5.366139,5.366139 0 0 0 4.309697,6.2078l0.000159,-0.000106zm-44.780822,-5.504425q5.685392,0.425369 11.249379,0.97071a5.374527,5.374527 0 0 0 1.011533,-10.699738q-5.681357,-0.55633 -11.486509,-0.991254a5.374898,5.374898 0 0 0 -0.774243,10.720282l-0.000159,0z"/>
        <path stroke="null" id="svg_14"
              d="m215.054911,362.925896q5.561545,-0.544916 11.248689,-0.971454a5.374898,5.374898 0 0 0 -0.775039,-10.720175q-5.803612,0.434447 -11.48619,0.991732a5.374527,5.374527 0 0 0 1.01217,10.699685l0.000372,0.000212zm-44.599325,6.634337q5.431062,-1.111598 11.069208,-2.09903a5.366246,5.366246 0 0 0 4.309378,-6.20796a5.290812,5.290812 0 0 0 -6.099985,-4.385608q-5.778981,1.011586 -11.361069,2.15445a5.372191,5.372191 0 0 0 -4.136322,6.328781a5.285026,5.285026 0 0 0 6.218948,4.209366l-0.000159,0zm-43.251871,11.972448q5.115101,-1.867951 10.601849,-3.600801a5.392788,5.392788 0 0 0 3.479025,-6.725856a5.26496,5.26496 0 0 0 -6.609069,-3.540762q-5.692399,1.797295 -11.039428,3.749704a5.400538,5.400538 0 0 0 -3.187323,6.873963a5.257368,5.257368 0 0 0 6.754681,3.243487l0.000265,0.000265zm-39.109338,20.225078a100.554782,100.554782 0 0 1 8.996721,-6.137144a5.428302,5.428302 0 0 0 1.817202,-7.37227a5.229552,5.229552 0 0 0 -7.244124,-1.849478a111.035491,111.035491 0 0 0 -9.941101,6.785948a5.437751,5.437751 0 0 0 -1.026343,7.528818a5.220952,5.220952 0 0 0 7.39807,1.044392l-0.000425,-0.000265z"/>
        <path stroke="null" id="svg_15"
              d="m275.995677,355.243238a5.262677,5.262677 0 0 1 -5.334076,5.267295l-10.456768,0a5.262677,5.262677 0 0 1 -5.334129,-5.267295a5.359504,5.359504 0 0 1 5.228384,-5.481864l10.668205,0a5.359451,5.359451 0 0 1 5.228384,5.481864z"/>
        <g stroke="null" id="svg_17"/>
    </g>
</svg>
