<svg width="115" height="70" xmlns="http://www.w3.org/2000/svg">

 <g>
  <title>background</title>
  <rect fill="none" id="canvas_background" height="72" width="117" y="-1" x="-1"/>
 </g>
 <g>
  <title>Layer 1</title>
  <path stroke="null" id="svg_1" d="m3.702323,68.455116l22.343565,0l0,-21.978782l-22.343565,0l0,21.978782zm0.930982,-21.062999l20.481602,0l0,20.147217l-20.481602,0l0,-20.147217z"/>
  <path stroke="null" id="svg_3" d="m25.102951,68.455116l22.34357,0l0,-21.97878l-22.34357,0l0,21.97878zm0.93098,-21.063l20.4816,0l0,20.14722l-20.4816,0l0,-20.14722z"/>
  <path stroke="null" id="svg_4" d="m25.102953,47.176084l22.34357,0l0,-21.97878l-22.34357,0l0,21.97878zm0.93098,-21.063l20.4816,0l0,20.14722l-20.4816,0l0,-20.14722z"/>
  <path stroke="null" id="svg_5" d="m46.50358,47.176086l22.34357,0l0,-21.97878l-22.34357,0l0,21.97878zm0.93098,-21.063l20.4816,0l0,20.14722l-20.4816,0l0,-20.14722z"/>
  <path stroke="null" id="svg_6" d="m46.50358,68.455116l22.34357,0l0,-21.97878l-22.34357,0l0,21.97878zm0.93098,-21.063l20.4816,0l0,20.14722l-20.4816,0l0,-20.14722z"/>
  <path stroke="null" id="svg_7" d="m67.904207,68.455116l22.34357,0l0,-21.97878l-22.34357,0l0,21.97878zm0.93098,-21.063l20.4816,0l0,20.14722l-20.4816,0l0,-20.14722z"/>
  <path stroke="null" id="svg_8" d="m89.304834,68.455116l22.34357,0l0,-21.97878l-22.34357,0l0,21.97878zm0.93098,-21.063l20.4816,0l0,20.14722l-20.4816,0l0,-20.14722z"/>
  <path stroke="null" id="svg_9" d="m89.304834,47.297678l22.34357,0l0,-21.97878l-22.34357,0l0,21.97878zm0.93098,-21.063l20.4816,0l0,20.14722l-20.4816,0l0,-20.14722z"/>
  <path stroke="null" id="svg_10" d="m46.50358,26.140242l22.34357,0l0,-21.97878l-22.34357,0l0,21.97878zm0.93098,-21.063l20.4816,0l0,20.14722l-20.4816,0l0,-20.14722z"/>
 </g>
</svg>