<svg width="30.000000000000004" height="30.000000000000004" xmlns="http://www.w3.org/2000/svg">

    <g>
        <title>background</title>
        <rect fill="none" id="canvas_background" height="402" width="582" y="-1" x="-1"/>
    </g>
    <g>
        <title>Layer 1</title>
        <path fill="#a14f4c" id="svg_3"
              d="m14.921,1.353c0,0 -4.745,4.709 -0.084,11.194c0.034,-0.004 6.306,-4.7 0.084,-11.194z" class="st0"/>
        <path fill="#a14f4c" id="svg_4"
              d="m3.904,6.766c0,0 0.649,6.653 8.62,7.142c0.018,-0.029 0.345,-7.857 -8.62,-7.142z" class="st0"/>
        <path fill="#a14f4c" id="svg_5"
              d="m0.844,18.813c0,0 5.814,3.299 11.063,-2.179c-0.01,-0.031 -6.076,-4.759 -11.063,2.179z" class="st0"/>
        <path fill="#a14f4c" id="svg_6"
              d="m8.661,28.618c0,0 6.229,-2.425 5.297,-9.954c-0.03,-0.012 -7.527,1.706 -5.297,9.954z" class="st0"/>
        <path fill="#a14f4c" id="svg_7"
              d="m21.118,28.649c0,0 2.056,-6.46 -4.607,-10.291c-0.03,0.016 -3.47,7.061 4.607,10.291z" class="st0"/>
        <path fill="#a14f4c" id="svg_8"
              d="m26.268,6.817c0,0 -6.748,-0.646 -9.087,6.675c0.022,0.026 7.634,1.902 9.087,-6.675z" class="st0"/>
        <path fill="#a14f4c" id="svg_9"
              d="m29.438,19.084c0,0 -4.548,-6.016 -11.452,-2.638c-0.003,0.033 4.255,7.525 11.452,2.638z" class="st0"/>
        <ellipse fill="#f0c419" id="svg_10" ry="2.345" rx="2.247" cy="15.5" cx="15.191" class="st1"/>
        <path stroke-miterlimit="10" stroke-linejoin="round" stroke-linecap="round" stroke-width="0.8" stroke="#000000"
              fill="#ffff00" id="svg_15"
              d="m17.453,6.958c0,3.341 -2.363,6.05 -2.363,6.05s-2.363,-2.708 -2.363,-6.05s2.363,-6.05 2.363,-6.05s2.363,2.709 2.363,6.05z"
              class="st2"/>
        <path stroke-miterlimit="10" stroke-linejoin="round" stroke-linecap="round" stroke-width="0.8" stroke="#000000"
              fill="#ffff00" id="svg_16"
              d="m9.687,8.351c2.612,2.083 3.256,5.619 3.256,5.619s-3.591,0.159 -6.203,-1.924s-3.256,-5.619 -3.256,-5.619s3.591,-0.159 6.203,1.924z"
              class="st2"/>
        <path stroke-miterlimit="10" stroke-linejoin="round" stroke-linecap="round" stroke-width="0.8" stroke="#000000"
              fill="#ffff00" id="svg_17"
              d="m5.935,15.291c3.257,-0.743 6.424,0.958 6.424,0.958s-2.115,2.907 -5.372,3.65c-3.257,0.743 -6.424,-0.958 -6.424,-0.958s2.114,-2.907 5.372,-3.65z"
              class="st2"/>
        <path stroke-miterlimit="10" stroke-linejoin="round" stroke-linecap="round" stroke-width="0.8" stroke="#000000"
              fill="#ffff00" id="svg_18"
              d="m9.021,22.552c1.45,-3.01 4.754,-4.425 4.754,-4.425s0.954,3.466 -0.496,6.476s-4.754,4.425 -4.754,4.425s-0.954,-3.466 0.496,-6.476z"
              class="st2"/>
        <path stroke-miterlimit="10" stroke-linejoin="round" stroke-linecap="round" stroke-width="0.8" stroke="#000000"
              fill="#ffff00" id="svg_19"
              d="m16.622,24.666c-1.45,-3.01 -0.496,-6.476 -0.496,-6.476s3.304,1.415 4.754,4.425c1.45,3.01 0.496,6.476 0.496,6.476s-3.305,-1.414 -4.754,-4.425z"
              class="st2"/>
        <path stroke-miterlimit="10" stroke-linejoin="round" stroke-linecap="round" stroke-width="0.8" stroke="#000000"
              fill="#ffff00" id="svg_20"
              d="m23.014,20.042c-3.257,-0.743 -5.372,-3.65 -5.372,-3.65s3.166,-1.701 6.424,-0.958c3.257,0.743 5.372,3.65 5.372,3.65s-3.167,1.701 -6.424,0.958z"
              class="st2"/>
        <path stroke-miterlimit="10" stroke-linejoin="round" stroke-linecap="round" stroke-width="0.8" stroke="#000000"
              fill="#ffff00" id="svg_21"
              d="m23.384,12.161c-2.612,2.083 -6.203,1.924 -6.203,1.924s0.644,-3.536 3.256,-5.619s6.203,-1.924 6.203,-1.924s-0.644,3.536 -3.256,5.619z"
              class="st2"/>
        <circle stroke-miterlimit="10" stroke-linejoin="round" stroke-linecap="round" stroke-width="0.8"
                stroke="#000000" fill="none" id="svg_22" r="2.349" cy="15.496" cx="15.09" class="st2"/>
        <circle id="svg_23" r="0.229" cy="13.859" cx="15.141"/>
        <circle id="svg_24" r="0.229" cy="14.7" cx="14.751"/>
        <circle id="svg_25" r="0.229" cy="15.332" cx="16.582"/>
        <circle id="svg_26" r="0.229" cy="16.046" cx="13.629"/>
        <circle id="svg_27" r="0.229" cy="15.87" cx="15.371"/>
        <circle id="svg_28" r="0.229" cy="16.681" cx="15.882"/>
        <circle id="svg_29" r="0.229" cy="14.7" cx="15.319"/>
        <circle id="svg_30" r="0.229" cy="15.246" cx="15.319"/>
        <circle id="svg_31" r="0.229" cy="15.332" cx="15.882"/>
        <ellipse id="svg_32" transform="matrix(0.1206,-0.9927,0.9927,0.1206,-0.1952,28.0618) " ry="0.229" rx="0.229"
                 cy="14.141" cx="15.741"/>
        <ellipse id="svg_33" transform="matrix(0.1206,-0.9927,0.9927,0.1206,-1.1562,26.6411) " ry="0.229" rx="0.229"
                 cy="13.973" cx="14.459"/>
        <circle id="svg_34" r="0.229" cy="15.94" cx="16.276"/>
        <circle id="svg_35" r="0.229" cy="14.7" cx="16.276"/>
        <circle id="svg_36" r="0.229" cy="15.246" cx="14.476"/>
        <circle id="svg_37" r="0.229" cy="15.817" cx="14.706"/>
        <circle id="svg_38" r="0.229" cy="16.223" cx="14.229"/>
        <circle id="svg_39" r="0.229" cy="14.47" cx="14.182"/>
        <circle id="svg_40" r="0.229" cy="14.7" cx="13.723"/>
        <circle id="svg_41" r="0.229" cy="16.634" cx="15.229"/>
        <circle id="svg_42" r="0.229" cy="16.998" cx="14.459"/>
        <circle id="svg_43" r="0.229" cy="15.332" cx="13.723"/>
        <line stroke-miterlimit="10" stroke-linejoin="round" stroke-linecap="round" stroke-width="0.8" stroke="#000000"
              fill="none" id="svg_44" y2="8.656" y1="12.344" x2="15.141" x1="15.09" class="st2"/>
        <line stroke-miterlimit="10" stroke-linejoin="round" stroke-linecap="round" stroke-width="0.8" stroke="#000000"
              fill="none" id="svg_45" y2="11.441" y1="13.629" x2="9.573" x1="12.542" class="st2"/>
        <line stroke-miterlimit="10" stroke-linejoin="round" stroke-linecap="round" stroke-width="0.8" stroke="#000000"
              fill="none" id="svg_46" y2="17.261" y1="16.277" x2="8.455" x1="12.009" class="st2"/>
        <line stroke-miterlimit="10" stroke-linejoin="round" stroke-linecap="round" stroke-width="0.8" stroke="#000000"
              fill="none" id="svg_47" y2="21.751" y1="18.422" x2="12.009" x1="13.595" class="st2"/>
        <line stroke-miterlimit="10" stroke-linejoin="round" stroke-linecap="round" stroke-width="0.8" stroke="#000000"
              fill="none" id="svg_48" y2="21.616" y1="18.127" x2="17.409" x1="16.215" class="st2"/>
        <line stroke-miterlimit="10" stroke-linejoin="round" stroke-linecap="round" stroke-width="0.8" stroke="#000000"
              fill="none" id="svg_49" y2="17.647" y1="16.349" x2="21.508" x1="18.056" class="st2"/>
        <line stroke-miterlimit="10" stroke-linejoin="round" stroke-linecap="round" stroke-width="0.8" stroke="#000000"
              fill="none" id="svg_50" y2="11.441" y1="13.86" x2="20.143" x1="17.359" class="st2"/>
    </g>
</svg>
