<svg width="792.0000000000001" height="732" xmlns="http://www.w3.org/2000/svg">
    <g>
        <title>background</title>
        <rect x="-1" y="-1" width="794" height="734" id="canvas_background" fill="none"/>
    </g>

    <g>
        <title>Layer 1</title>
        <polygon
                points="520.7803955078125,133.10840320587158 288.78057861328125,229.1067018508911 56.78057861328125,133.10840320587158 288.78057861328125,37.108431816101074 "
                fill="#79b8f7" id="svg_85"/>
        <polygon
                points="288.78057861328125,229.1067018508911 288.78057861328125,509.10925006866455 56.78057861328125,413.1047639846802 56.78057861328125,133.10840320587158 "
                fill="#007fff" id="svg_86"/>
        <polygon
                points="520.7803955078125,133.10840320587158 520.7803955078125,413.1047639846802 288.78057861328125,509.10925006866455 288.78057861328125,229.1067018508911 "
                fill="#164777" id="svg_87"/>
        <polygon
                points="754.2949829101562,229.39138507843018 522.2950439453125,325.38915729522705 290.2950439453125,229.39138507843018 522.2950439453125,133.3931016921997 "
                fill="#79b8f7" id="svg_89"/>
        <polygon
                points="522.2950439453125,325.38915729522705 522.2950439453125,605.3983125686646 290.2950439453125,509.39367389678955 290.2950439453125,229.39138507843018 "
                fill="#007fff" id="svg_90"/>
        <polygon
                points="754.2949829101562,229.39138507843018 754.2949829101562,509.39367389678955 522.2950439453125,605.3983125686646 522.2950439453125,325.38915729522705 "
                fill="#164777" id="svg_91"/>
        <polygon
                points="521.885498046875,326.6327180862427 289.88525390625,422.6304597854614 57.878662109375,326.6327180862427 289.88525390625,230.63448810577393 "
                fill="#79b8f7" id="svg_97"/>
        <polygon
                points="289.88525390625,422.6304597854614 289.88525390625,702.6395235061646 57.878662109375,606.635006904602 57.878662109375,326.6327180862427 "
                fill="#007fff" id="svg_98"/>
        <polygon
                points="521.885498046875,326.6327180862427 521.885498046875,606.635006904602 289.88525390625,702.6395235061646 289.88525390625,422.6304597854614 "
                fill="#164777" id="svg_99"/>
    </g>
</svg>
