<svg width="1032" height="912" xmlns="http://www.w3.org/2000/svg">

    <g>
        <title>background</title>
        <rect fill="none" id="canvas_background" height="914" width="1034" y="-1" x="-1"/>
    </g>
    <g>
        <title>Layer 1</title>
        <g id="svg_104">
            <polygon id="svg_101" fill="#79b8f7"
                     points="983.49609375,312.16966223716736 751.49609375,408.1677396297455 519.49609375,312.16966223716736 751.49609375,216.1710660457611 "/>
            <polygon id="svg_102" fill="#007fff"
                     points="751.49609375,408.1677396297455 751.49609375,688.1772916316986 519.49609375,592.1727750301361 519.49609375,312.16966223716736 "/>
            <polygon id="svg_103" fill="#164777"
                     points="983.49609375,312.16966223716736 983.49609375,592.1727750301361 751.49609375,688.1772916316986 751.49609375,408.1677396297455 "/>
        </g>
        <polygon id="svg_80" fill="#79b8f7"
                 points="983.9544677734375,594.5594937801361 751.9556274414062,690.5616910457611 519.9563598632812,594.5594937801361 751.9556274414062,498.55943274497986 "/>
        <g id="svg_88">
            <polygon id="svg_85" fill="#79b8f7"
                     points="516.6481323242188,313.44761633872986 284.6483459472656,409.446426153183 52.64834976196289,313.44761633872986 284.6483459472656,217.44740271568298 "/>
            <polygon id="svg_86" fill="#007fff"
                     points="284.6483459472656,409.446426153183 284.6483459472656,689.4492642879486 52.64834976196289,593.4448697566986 52.64834976196289,313.44761633872986 "/>
            <polygon id="svg_87" fill="#164777"
                     points="516.6481323242188,313.44761633872986 516.6481323242188,593.4448697566986 284.6483459472656,689.4492642879486 284.6483459472656,409.446426153183 "/>
        </g>
        <g id="svg_92">
            <polygon id="svg_89" fill="#79b8f7"
                     points="750.1626586914062,409.7309720516205 518.1627197265625,505.729140996933 286.1628112792969,409.7309720516205 518.1627197265625,313.7323453426361 "/>
            <polygon id="svg_90" fill="#007fff"
                     points="518.1627197265625,505.729140996933 518.1627197265625,785.7381436824799 286.1628112792969,689.7336881160736 286.1628112792969,409.7309720516205 "/>
            <polygon id="svg_91" fill="#164777"
                     points="750.1626586914062,409.7309720516205 750.1626586914062,689.7336881160736 518.1627197265625,785.7381436824799 518.1627197265625,505.729140996933 "/>
        </g>
        <g id="svg_96">
            <polygon id="svg_93" fill="#79b8f7"
                     points="983.677490234375,507.393203496933 751.676025390625,603.3939664363861 519.676025390625,507.393203496933 751.676025390625,411.3950650691986 "/>
            <polygon id="svg_94" fill="#007fff"
                     points="751.676025390625,603.3939664363861 751.676025390625,883.4030606746674 519.676025390625,787.4015958309174 519.676025390625,507.393203496933 "/>
            <polygon id="svg_95" fill="#164777"
                     points="983.677490234375,507.393203496933 983.677490234375,787.4015958309174 751.676025390625,883.4030606746674 751.676025390625,603.3939664363861 "/>
        </g>
        <g id="svg_100">
            <polygon id="svg_97" fill="#79b8f7"
                     points="517.753173828125,506.972793340683 285.7530212402344,602.9705045223236 53.74643325805664,506.972793340683 285.7530212402344,410.9741361141205 "/>
            <polygon id="svg_98" fill="#007fff"
                     points="285.7530212402344,602.9705045223236 285.7530212402344,882.9786221981049 53.74643325805664,786.9747159481049 53.74643325805664,506.972793340683 "/>
            <polygon id="svg_99" fill="#164777"
                     points="517.753173828125,506.972793340683 517.753173828125,786.9747159481049 285.7530212402344,882.9786221981049 285.7530212402344,602.9705045223236 "/>
        </g>
        <g id="svg_108">
            <polygon id="svg_105" fill="#79b8f7"
                     points="750.1626586914062,127.91307044029236 518.1627197265625,223.91120886802673 286.1628112792969,127.91307044029236 518.1627197265625,31.915130376815796 "/>
            <polygon id="svg_106" fill="#007fff"
                     points="518.1627197265625,223.91120886802673 518.1627197265625,503.92271399497986 286.1628112792969,407.917617559433 286.1628112792969,127.91307044029236 "/>
            <polygon id="svg_107" fill="#164777"
                     points="750.1626586914062,127.91307044029236 750.1626586914062,407.917617559433 518.1627197265625,503.92271399497986 518.1627197265625,223.91120886802673 "/>
        </g>
    </g>
</svg>
