<svg width="80" height="100" xmlns="http://www.w3.org/2000/svg">
    <title/>
    <defs>
        <radialGradient spreadMethod="pad" id="svg_69">
            <stop offset="0" stop-color="#fffd40" id="svg_58"/>
            <stop offset="0.539063" stop-color="#f8ff56" id="svg_57"/>
            <stop offset="1" stop-color="#bdbe32" id="svg_56"/>
            <stop offset="1" stop-color="#6c6c1e" id="svg_55"/>
        </radialGradient>
    </defs>
    <g>
        <title>background</title>
        <rect fill="none" id="canvas_background" height="102" width="82" y="-1" x="-1"/>
    </g>
    <g>
        <title>Layer 1</title>
        <path stroke-width="0.5" stroke="#4c4c4c" fill="#aad4ff" id="svg_2"
              d="m39.931478,44.938523l38,-20l-37.5342,-19.7548a1.001,1.001 0 0 0 -0.9316,0l-37.5342,19.7548l38,20z"/>
        <path stroke="#ffffff" fill="#ffffff" id="svg_4"
              d="m39.824411,42.15656l33.827814,-17.208825l-33.413156,-16.997845a0.891096,0.861302 0 0 0 -0.829316,0l-33.413156,16.997845l33.827814,17.208825z"/>

        <metadata transform="matrix(1.363056294536591,0,0,1.363056294536591,0,0) ">image/svg+xmlOpencliparttennis ball,
            teniso kamuoliukas2013-08-06T12:09:24teniso kamuoliukas, tennis balls,
            SPORThttps://openclipart.org/detail/181597/tennis-ball-teniso-kamuoliukas-by-keistutis-181597Keistutisteniso
            kamuoliukas tennis balls sports2010
        </metadata>
        <g id="svg_63"/>
        <g stroke="null" id="svg_87">
            <path stroke="null"
                  d="m40.400454,2.348983c-0.53137,0 -1.05408,0.02669 -1.57171,0.07357c-0.25829,0.21166 -0.66297,0.3915 -1.13913,0.4891c-0.56472,0.11575 -1.09602,0.08644 -1.43711,-0.05627c-5.84042,1.45308 -10.29417,5.89993 -11.20852,11.39185c0.24837,0.28431 0.2905,0.8753 0.0769,1.49756c-0.0673,0.19604 -0.15572,0.37791 -0.25475,0.5367c-0.00066,0.00105 0.00067,0.00323 0,0.00432c-0.00007,0.01733 0,0.03459 0,0.05194c0,7.70507 6.91494,13.95789 15.46231,13.99312c0.302,-0.19193 0.79244,-0.31595 1.3458,-0.31595c0.38705,0 0.74132,0.06209 1.02377,0.16446c0.00134,0.00061 0.00345,-0.0006 0.0048,0c7.24697,-0.97011 12.86268,-6.45005 13.21763,-13.16643c-0.14143,-0.30007 -0.22591,-0.70045 -0.22591,-1.14264c0,-0.36724 0.05737,-0.706 0.15861,-0.98251c-0.80674,-7.04459 -7.4165,-12.53876 -15.45261,-12.53876l-0.00008,-0.00006z"
                  fill="url(#svg_69)" id="svg_80"/>
            <path stroke="null"
                  d="m55.603804,15.369983c-4.60873,1.45984 -9.11916,4.86833 -12.20831,9.68652c-1.08002,1.68455 -1.90077,3.41864 -2.48008,5.14625c0.18729,-0.03375 0.39241,-0.05194 0.60561,-0.05194c0.20626,0 0.40415,0.02024 0.58638,0.05194c2.53709,-6.01194 7.7029,-11.21329 13.50118,-13.54297c-0.04308,-0.20108 -0.06729,-0.42149 -0.06729,-0.65355c0,-0.22535 0.02173,-0.43988 0.06248,-0.63625l0.00003,0z"
                  fill="#ffffff" id="svg_81"/>
            <path stroke="null"
                  d="m38.102464,2.879543c-0.17263,0.06918 -0.36187,0.12672 -0.56716,0.1688c-0.26702,0.05473 -0.5288,0.07653 -0.76422,0.06925c-2.46269,5.01346 -6.84589,9.30276 -11.77094,11.44816c0.13734,0.30684 0.13993,0.77547 -0.01923,1.26816c4.19628,-1.46674 8.26014,-4.60124 11.07878,-8.96807c0.84344,-1.30663 1.5211,-2.64584 2.04272,-3.98623l0.00005,-0.00007z"
                  fill="#ffffff" id="svg_82"/>
            <path stroke="null"
                  d="m55.587084,15.376003c-4.60873,1.45984 -9.11916,4.86833 -12.20831,9.68652c-1.08002,1.68455 -1.90077,3.41864 -2.48008,5.14625c0.1498,-0.027 0.31303,-0.03754 0.48064,-0.04328c0.57847,-1.71331 1.39467,-3.43249 2.4657,-5.10289c2.97864,-4.64581 7.2779,-7.98059 11.71326,-9.52211c0.00818,-0.05565 0.01781,-0.11134 0.02884,-0.16447l-0.00005,-0.00002zm-13.61654,14.78083c-0.07545,0 -0.14809,0.00855 -0.22109,0.01298c0.11833,0.0089 0.23253,0.02004 0.34125,0.03895c0.00669,-0.01585 0.01251,-0.03177 0.01923,-0.04761c-0.04579,-0.00197 -0.09265,-0.00432 -0.13939,-0.00432l0,0z"
                  fill="#ffffff" id="svg_83"/>
            <path stroke="null"
                  d="m55.575384,16.478063c-4.29576,1.59814 -8.43318,4.8748 -11.32388,9.3836c-0.91068,1.42039 -1.63424,2.87529 -2.187,4.33251c0.07939,0.01281 0.15248,0.02963 0.22591,0.04761c0.53754,-1.36731 1.2217,-2.73106 2.07632,-4.06422c2.8815,-4.49435 6.9997,-7.75837 11.28074,-9.36192c-0.02951,-0.10611 -0.05474,-0.219 -0.0721,-0.3376l0.00001,0.00002z"
                  fill="#ffffff" id="svg_84"/>
            <path stroke="null"
                  d="m36.448964,3.087313c-2.45551,4.8909 -6.73337,9.07165 -11.54507,11.21012c-0.00503,0.02894 -0.0096,0.05757 -0.01441,0.08657c0.0439,0.05025 0.0798,0.11388 0.11054,0.18178c4.92506,-2.14525 9.30825,-6.4347 11.77095,-11.44816c-0.11416,-0.00338 -0.22111,-0.01361 -0.32204,-0.03029l0.00003,-0.00002z"
                  fill="#ffffff" id="svg_85"/>
            <path stroke="null"
                  d="m38.102464,2.879543c-0.08761,0.03511 -0.17788,0.06661 -0.27398,0.09522c-0.51051,1.27386 -1.15938,2.54527 -1.96096,3.7872c-2.76229,4.2792 -6.72233,7.37445 -10.82883,8.87713c-0.01559,0.06491 -0.03632,0.12867 -0.05767,0.19478c4.19627,-1.46675 8.26014,-4.60125 11.07878,-8.96808c0.84343,-1.30663 1.5211,-2.64584 2.04271,-3.98622l-0.00005,-0.00003z"
                  fill="#ffffff" id="svg_86"/>
        </g>
        <g stroke="null" id="svg_71">
            <path stroke="null"
                  d="m18.558912,11.984955c-0.53137,0 -1.05408,0.02669 -1.57171,0.07358c-0.25829,0.21165 -0.66297,0.39149 -1.13913,0.48909c-0.56472,0.11576 -1.09602,0.08644 -1.43711,-0.05627c-5.84042,1.45308 -10.29417,5.89993 -11.20852,11.39185c0.24837,0.28431 0.2905,0.8753 0.0769,1.49757c-0.0673,0.19603 -0.15572,0.3779 -0.25475,0.53669c-0.00066,0.00105 0.00067,0.00324 0,0.00432c-0.00007,0.01734 0,0.03459 0,0.05194c0,7.70507 6.91494,13.9579 15.46231,13.99313c0.302,-0.19194 0.79244,-0.31596 1.3458,-0.31596c0.38705,0 0.74132,0.06209 1.02377,0.16446c0.00134,0.00061 0.00345,-0.0006 0.0048,0c7.24697,-0.9701 12.86268,-6.45005 13.21763,-13.16643c-0.14143,-0.30006 -0.22591,-0.70045 -0.22591,-1.14264c0,-0.36723 0.05737,-0.706 0.15861,-0.9825c-0.80674,-7.04459 -7.4165,-12.53877 -15.45261,-12.53877l-0.00008,-0.00006z"
                  fill="url(#svg_69)" id="svg_48"/>
            <path stroke="null"
                  d="m33.762262,25.00596c-4.608732,1.459835 -9.119156,4.868326 -12.208307,9.686517c-1.080024,1.684553 -1.900772,3.418638 -2.480081,5.146249c0.187285,-0.033753 0.392409,-0.051938 0.605609,-0.051938c0.206261,0 0.404146,0.020242 0.586382,0.051938c2.537093,-6.011937 7.702898,-11.213289 13.501179,-13.542967c-0.043085,-0.20108 -0.06729,-0.421492 -0.06729,-0.653556c0,-0.22535 0.021733,-0.439875 0.062484,-0.636243l0.000025,0z"
                  fill="#ffffff" id="svg_46"/>
            <path stroke="null"
                  d="m16.260919,12.515518c-0.172623,0.069183 -0.361864,0.126722 -0.567155,0.168802c-0.267018,0.054731 -0.528802,0.076524 -0.764221,0.069252c-2.462694,5.01346 -6.845887,9.302754 -11.770941,11.448154c0.137341,0.306845 0.139934,0.775475 -0.019227,1.268165c4.196276,-1.466746 8.260139,-4.601242 11.078778,-8.968072c0.843435,-1.306631 1.521102,-2.645842 2.042715,-3.986228l0.00005,-0.000072z"
                  fill="#ffffff" id="svg_44"/>
            <path stroke="null"
                  d="m33.745543,25.011982c-4.608732,1.459835 -9.119156,4.868326 -12.208307,9.686517c-1.080024,1.684553 -1.900772,3.418638 -2.480081,5.146249c0.149796,-0.026996 0.313028,-0.037542 0.480635,-0.043281c0.578474,-1.713309 1.394674,-3.432489 2.465703,-5.10289c2.978639,-4.645806 7.277904,-7.980586 11.71326,-9.522112c0.008176,-0.055648 0.017812,-0.111336 0.028838,-0.164466l-0.000048,-0.000018zm-13.61654,14.780825c-0.075454,0 -0.148094,0.008551 -0.221091,0.012978c0.118328,0.008898 0.232526,0.020042 0.341249,0.038953c0.006688,-0.015846 0.012506,-0.031774 0.019227,-0.04761c-0.045791,-0.001972 -0.092649,-0.004321 -0.139387,-0.004321l0.000002,0z"
                  fill="#ffffff" id="svg_42"/>
            <path stroke="null"
                  d="m33.73384,26.11404c-4.295754,1.598135 -8.43318,4.8748 -11.323877,9.383602c-0.910678,1.42039 -1.634239,2.875287 -2.186999,4.332503c0.07939,0.012812 0.152476,0.029637 0.225906,0.04761c0.537546,-1.367305 1.2217,-2.731056 2.07632,-4.064215c2.881502,-4.494349 6.999701,-7.758367 11.280742,-9.361922c-0.029507,-0.106109 -0.054744,-0.218996 -0.072095,-0.337603l0.000003,0.000026z"
                  fill="#ffffff" id="svg_40"/>
            <path stroke="null"
                  d="m14.60742,12.723284c-2.455505,4.890909 -6.733369,9.071653 -11.545068,11.210127c-0.005032,0.028935 -0.009597,0.057567 -0.014412,0.086564c0.043905,0.050257 0.079804,0.113881 0.110547,0.181779c4.925053,-2.145249 9.308247,-6.434693 11.770941,-11.448154c-0.114155,-0.003381 -0.221107,-0.013616 -0.322039,-0.030298l0.000032,-0.00002z"
                  fill="#ffffff" id="svg_38"/>
            <path stroke="null"
                  d="m16.260919,12.515518c-0.087604,0.035111 -0.177872,0.066607 -0.273973,0.095221c-0.510512,1.273856 -1.159389,2.545272 -1.96096,3.787195c-2.762296,4.279207 -6.722335,7.374454 -10.828831,8.877137c-0.015599,0.064902 -0.036323,0.12867 -0.057677,0.194772c4.196276,-1.466746 8.260139,-4.601242 11.078778,-8.968072c0.843435,-1.306631 1.521102,-2.645842 2.042715,-3.986228l-0.000054,-0.000026z"
                  fill="#ffffff" id="svg_36"/>
        </g>
        <g stroke="null" id="svg_95">
            <path stroke="null"
                  d="m61.385467,12.627359c-0.53137,0 -1.05408,0.02669 -1.57171,0.07357c-0.25829,0.21166 -0.66297,0.3915 -1.13913,0.4891c-0.56472,0.11575 -1.09602,0.08644 -1.43711,-0.05627c-5.84042,1.45308 -10.29417,5.89993 -11.20852,11.39185c0.24837,0.28431 0.2905,0.8753 0.0769,1.49756c-0.0673,0.19604 -0.15572,0.37791 -0.25475,0.5367c-0.00066,0.00105 0.00067,0.00323 0,0.00432c-0.00007,0.01733 0,0.03459 0,0.05194c0,7.70507 6.91494,13.95789 15.46231,13.99312c0.302,-0.19193 0.79244,-0.31595 1.3458,-0.31595c0.38705,0 0.74132,0.06209 1.02377,0.16446c0.00134,0.00061 0.00345,-0.0006 0.0048,0c7.24697,-0.97011 12.86268,-6.45005 13.21763,-13.16643c-0.14143,-0.30007 -0.22591,-0.70045 -0.22591,-1.14264c0,-0.36724 0.05737,-0.706 0.15861,-0.98251c-0.80674,-7.04459 -7.4165,-12.53876 -15.45261,-12.53876l-0.00008,-0.00006z"
                  fill="url(#svg_69)" id="svg_88"/>
            <path stroke="null"
                  d="m76.588817,25.648359c-4.60873,1.45984 -9.11916,4.86833 -12.20831,9.68652c-1.08002,1.68455 -1.90077,3.41864 -2.48008,5.14625c0.18729,-0.03375 0.39241,-0.05194 0.60561,-0.05194c0.20626,0 0.40415,0.02024 0.58638,0.05194c2.53709,-6.01194 7.7029,-11.21329 13.50118,-13.54297c-0.04308,-0.20108 -0.06729,-0.42149 -0.06729,-0.65355c0,-0.22535 0.02173,-0.43988 0.06248,-0.63625l0.00003,0z"
                  fill="#ffffff" id="svg_89"/>
            <path stroke="null"
                  d="m59.087477,13.157919c-0.17263,0.06918 -0.36187,0.12672 -0.56716,0.1688c-0.26702,0.05473 -0.5288,0.07653 -0.76422,0.06925c-2.46269,5.01346 -6.84589,9.30276 -11.77094,11.44816c0.13734,0.30684 0.13993,0.77547 -0.01923,1.26816c4.19628,-1.46674 8.26014,-4.60124 11.07878,-8.96807c0.84344,-1.30663 1.5211,-2.64584 2.04272,-3.98623l0.00005,-0.00007z"
                  fill="#ffffff" id="svg_90"/>
            <path stroke="null"
                  d="m76.572097,25.654379c-4.60873,1.45984 -9.11916,4.86833 -12.20831,9.68652c-1.08002,1.68455 -1.90077,3.41864 -2.48008,5.14625c0.1498,-0.027 0.31303,-0.03754 0.48064,-0.04328c0.57847,-1.71331 1.39467,-3.43249 2.4657,-5.10289c2.97864,-4.64581 7.2779,-7.98059 11.71326,-9.52211c0.00818,-0.05565 0.01781,-0.11134 0.02884,-0.16447l-0.00005,-0.00002zm-13.61654,14.78083c-0.07545,0 -0.14809,0.00855 -0.22109,0.01298c0.11833,0.0089 0.23253,0.02004 0.34125,0.03895c0.00669,-0.01585 0.01251,-0.03177 0.01923,-0.04761c-0.04579,-0.00197 -0.09265,-0.00432 -0.13939,-0.00432l0,0z"
                  fill="#ffffff" id="svg_91"/>
            <path stroke="null"
                  d="m76.560397,26.756439c-4.29576,1.59814 -8.43318,4.8748 -11.32388,9.3836c-0.91068,1.42039 -1.63424,2.87529 -2.187,4.33251c0.07939,0.01281 0.15248,0.02963 0.22591,0.04761c0.53754,-1.36731 1.2217,-2.73106 2.07632,-4.06422c2.8815,-4.49435 6.9997,-7.75837 11.28074,-9.36192c-0.02951,-0.10611 -0.05474,-0.219 -0.0721,-0.3376l0.00001,0.00002z"
                  fill="#ffffff" id="svg_92"/>
            <path stroke="null"
                  d="m57.433977,13.365689c-2.45551,4.8909 -6.73337,9.07165 -11.54507,11.21012c-0.00503,0.02894 -0.0096,0.05757 -0.01441,0.08657c0.0439,0.05025 0.0798,0.11388 0.11054,0.18178c4.92506,-2.14525 9.30825,-6.4347 11.77095,-11.44816c-0.11416,-0.00338 -0.22111,-0.01361 -0.32204,-0.03029l0.00003,-0.00002z"
                  fill="#ffffff" id="svg_93"/>
            <path stroke="null"
                  d="m59.087477,13.157919c-0.08761,0.03511 -0.17788,0.06661 -0.27398,0.09522c-0.51051,1.27386 -1.15938,2.54527 -1.96096,3.7872c-2.76229,4.2792 -6.72233,7.37445 -10.82883,8.87713c-0.01559,0.06491 -0.03632,0.12867 -0.05767,0.19478c4.19627,-1.46675 8.26014,-4.60125 11.07878,-8.96808c0.84343,-1.30663 1.5211,-2.64584 2.04271,-3.98622l-0.00005,-0.00003z"
                  fill="#ffffff" id="svg_94"/>
        </g>
        <g stroke="null" id="svg_79">
            <path stroke="null"
                  d="m36.974329,22.905728c-0.53137,0 -1.05408,0.02669 -1.57171,0.07357c-0.25829,0.21166 -0.66297,0.3915 -1.13913,0.4891c-0.56472,0.11575 -1.09602,0.08644 -1.43711,-0.05627c-5.84042,1.45308 -10.29417,5.89993 -11.20852,11.39185c0.24837,0.28431 0.2905,0.8753 0.0769,1.49756c-0.0673,0.19604 -0.15572,0.37791 -0.25475,0.5367c-0.00066,0.00105 0.00067,0.00323 0,0.00432c-0.00007,0.01733 0,0.03459 0,0.05194c0,7.70507 6.91494,13.95789 15.46231,13.99312c0.302,-0.19193 0.79244,-0.31595 1.3458,-0.31595c0.38705,0 0.74132,0.06209 1.02377,0.16446c0.00134,0.00061 0.00345,-0.0006 0.0048,0c7.24697,-0.97011 12.86268,-6.45005 13.21763,-13.16643c-0.14143,-0.30007 -0.22591,-0.70045 -0.22591,-1.14264c0,-0.36724 0.05737,-0.706 0.15861,-0.98251c-0.80674,-7.04459 -7.4165,-12.53876 -15.45261,-12.53876l-0.00008,-0.00006z"
                  fill="url(#svg_69)" id="svg_72"/>
            <path stroke="null"
                  d="m52.177679,35.926728c-4.60873,1.45984 -9.11916,4.86833 -12.20831,9.68652c-1.08002,1.68455 -1.90077,3.41864 -2.48008,5.14625c0.18729,-0.03375 0.39241,-0.05194 0.60561,-0.05194c0.20626,0 0.40415,0.02024 0.58638,0.05194c2.53709,-6.01194 7.7029,-11.21329 13.50118,-13.54297c-0.04308,-0.20108 -0.06729,-0.42149 -0.06729,-0.65355c0,-0.22535 0.02173,-0.43988 0.06248,-0.63625l0.00003,0z"
                  fill="#ffffff" id="svg_73"/>
            <path stroke="null"
                  d="m34.676339,23.436288c-0.17263,0.06918 -0.36187,0.12672 -0.56716,0.1688c-0.26702,0.05473 -0.5288,0.07653 -0.76422,0.06925c-2.46269,5.01346 -6.84589,9.30276 -11.77094,11.44816c0.13734,0.30684 0.13993,0.77547 -0.01923,1.26816c4.19628,-1.46674 8.26014,-4.60124 11.07878,-8.96807c0.84344,-1.30663 1.5211,-2.64584 2.04272,-3.98623l0.00005,-0.00007z"
                  fill="#ffffff" id="svg_74"/>
            <path stroke="null"
                  d="m52.160959,35.932748c-4.60873,1.45984 -9.11916,4.86833 -12.20831,9.68652c-1.08002,1.68455 -1.90077,3.41864 -2.48008,5.14625c0.1498,-0.027 0.31303,-0.03754 0.48064,-0.04328c0.57847,-1.71331 1.39467,-3.43249 2.4657,-5.10289c2.97864,-4.64581 7.2779,-7.98059 11.71326,-9.52211c0.00818,-0.05565 0.01781,-0.11134 0.02884,-0.16447l-0.00005,-0.00002zm-13.61654,14.78083c-0.07545,0 -0.14809,0.00855 -0.22109,0.01298c0.11833,0.0089 0.23253,0.02004 0.34125,0.03895c0.00669,-0.01585 0.01251,-0.03177 0.01923,-0.04761c-0.04579,-0.00197 -0.09265,-0.00432 -0.13939,-0.00432l0,0z"
                  fill="#ffffff" id="svg_75"/>
            <path stroke="null"
                  d="m52.149259,37.034808c-4.29576,1.59814 -8.43318,4.8748 -11.32388,9.3836c-0.91068,1.42039 -1.63424,2.87529 -2.187,4.33251c0.07939,0.01281 0.15248,0.02963 0.22591,0.04761c0.53754,-1.36731 1.2217,-2.73106 2.07632,-4.06422c2.8815,-4.49435 6.9997,-7.75837 11.28074,-9.36192c-0.02951,-0.10611 -0.05474,-0.219 -0.0721,-0.3376l0.00001,0.00002z"
                  fill="#ffffff" id="svg_76"/>
            <path stroke="null"
                  d="m33.022839,23.644058c-2.45551,4.8909 -6.73337,9.07165 -11.54507,11.21012c-0.00503,0.02894 -0.0096,0.05757 -0.01441,0.08657c0.0439,0.05025 0.0798,0.11388 0.11054,0.18178c4.92506,-2.14525 9.30825,-6.4347 11.77095,-11.44816c-0.11416,-0.00338 -0.22111,-0.01361 -0.32204,-0.03029l0.00003,-0.00002z"
                  fill="#ffffff" id="svg_77"/>
            <path stroke="null"
                  d="m34.676339,23.436288c-0.08761,0.03511 -0.17788,0.06661 -0.27398,0.09522c-0.51051,1.27386 -1.15938,2.54527 -1.96096,3.7872c-2.76229,4.2792 -6.72233,7.37445 -10.82883,8.87713c-0.01559,0.06491 -0.03632,0.12867 -0.05767,0.19478c4.19627,-1.46675 8.26014,-4.60125 11.07878,-8.96808c0.84343,-1.30663 1.5211,-2.64584 2.04271,-3.98622l-0.00005,-0.00003z"
                  fill="#ffffff" id="svg_78"/>
        </g>
        <path stroke-width="0.5" stroke="#4c4c4c" fill="#aad4ff" id="svg_3"
              d="m40.289457,45.388082l0,44l37.4658,-19.7188a1.0008,1.0008 0 0 0 0.5342,-0.8848l0,-43.3963l-38,19.9999z"/>
        <path stroke-width="0.5" stroke="#4c4c4c" fill="#aad4ff" id="svg_1"
              d="m39.787505,45.388082l-38,-20l0,43.3964a1,1 0 0 0 0.5342,0.8848l37.4658,19.7188l0,-44z"/>
        <text stroke="#4c4c4c"
              transform="matrix(0.2829820720605997,0,0,0.2550896983754178,21.090678606684392,73.66542499907882) "
              xml:space="preserve" text-anchor="start" font-family="Helvetica, Arial, sans-serif" font-size="24"
              id="svg_98" y="86.648729" x="-20.885744" fill-opacity="null" stroke-opacity="null" stroke-width="0"
              fill="#000000">box with 12 balls</text>
    </g>
</svg>
