<svg width="100" height="100" xmlns="http://www.w3.org/2000/svg">
    <title/>

    <g>
        <title>background</title>
        <rect fill="none" id="canvas_background" height="102" width="102" y="-1" x="-1"/>
    </g>
    <g>
        <title>Layer 1</title>
        <path id="svg_1"
              d="m50,5a45,45 0 1 0 45,45a45.00058,45.00058 0 0 0 -45,-45zm-30.40552,14.59448a42.99068,42.99068 0 0 1 73.22736,26.58612c-0.08295,-0.06793 -0.15088,-0.14068 -0.23779,-0.20739a1,1 0 0 0 -1.2165,1.58752a5.52943,5.52943 0 0 1 1.18756,1.18677a0.97211,0.97211 0 0 0 0.42145,0.3266c0.00653,0.309 0.02344,0.61535 0.02344,0.9259a2.04347,2.04347 0 0 1 -0.63708,1.34625a13.4011,13.4011 0 0 1 -5.08332,2.90253a73.77635,73.77635 0 0 1 -15.508,3.43475a170.6829,170.6829 0 0 1 -21.7716,1.31647c-12.087,0.001 -23.03278,-1.11688 -30.891,-2.904a38.14808,38.14808 0 0 1 -9.17791,-3.0844a8.54533,8.54533 0 0 1 -2.294,-1.66535a2.04318,2.04318 0 0 1 -0.63709,-1.34625c0,-0.31055 0.01691,-0.61694 0.02344,-0.9259a0.97211,0.97211 0 0 0 0.42145,-0.3266a5.528,5.528 0 0 1 1.18756,-1.18677a1,1 0 0 0 -1.21645,-1.58752l-0.00011,0c-0.08691,0.06665 -0.15478,0.13946 -0.23773,0.20733a42.85482,42.85482 0 0 1 12.41632,-26.58606zm60.811,60.811a42.98816,42.98816 0 0 1 -73.24343,-26.79836a18.72517,18.72517 0 0 0 4.85773,2.51488a75.60894,75.60894 0 0 0 15.94946,3.54468a172.6715,172.6715 0 0 0 22.03076,1.33332c12.21332,-0.0011 23.26752,-1.1217 31.33423,-2.9538a39.96337,39.96337 0 0 0 9.68133,-3.27282a13.01557,13.01557 0 0 0 1.823,-1.17365a42.85352,42.85352 0 0 1 -12.43304,26.80579l-0.00004,-0.00004z"/>
        <path id="svg_2"
              d="m53,41q1.00387,0 1.99,0.01013a1,1 0 1 0 0.02057,-1.99988q-0.99641,-0.01025 -2.01057,-0.01025a1,1 0 0 0 0,2z"/>
        <path id="svg_3"
              d="m60.95575,41.16846q1.00479,0.04366 1.9859,0.0982a1,1 0 1 0 0.111,-1.99688q-0.99316,-0.05521 -2.01,-0.09943a1,1 0 1 0 -0.08685,1.99811l-0.00005,0z"/>
        <path id="svg_4"
              d="m68.88525,41.71423q1.00388,0.09678 1.97431,0.20551a1,1 0 0 0 0.22265,-1.98755q-0.98592,-0.1105 -2.00512,-0.20874a1,1 0 1 0 -0.19184,1.99078z"/>
        <path id="svg_5"
              d="m84.43451,44.46106q0.98,0.28957 1.858,0.5965a1,1 0 0 0 0.65967,-1.88807q-0.92752,-0.324 -1.95081,-0.62646a1,1 0 0 0 -0.56689,1.918l0.00003,0.00003z"/>
        <path id="svg_6"
              d="m76.748,42.73785l0,0.00007q0.99892,0.16872 1.94574,0.3515a1,1 0 1 0 0.379,-1.96375q-0.97036,-0.18723 -1.99151,-0.35986a1,1 0 1 0 -0.33319,1.972l-0.00004,0.00004z"/>
        <path id="svg_7"
              d="m21.30627,43.08942q0.94648,-0.18265 1.94574,-0.3515a1,1 0 1 0 -0.33319,-1.97205l0,-0.00006q-1.021,0.17257 -1.99151,0.35986a1,1 0 1 0 0.379,1.96375l-0.00004,0z"/>
        <path id="svg_8"
              d="m13.70746,45.05756q0.87726,-0.30653 1.858,-0.5965a1,1 0 0 0 -0.56689,-1.918q-1.02293,0.3024 -1.95081,0.62646a1,1 0 1 0 0.65967,1.88807l0.00003,-0.00003z"/>
        <path id="svg_9"
              d="m37.05829,41.26666q0.981,-0.05447 1.986,-0.0982a1,1 0 0 0 -0.08685,-1.99811q-1.01679,0.04413 -2.01007,0.09943a1,1 0 1 0 0.111,1.99688l-0.00008,0z"/>
        <path id="svg_10"
              d="m29.14044,41.91974q0.97018,-0.10867 1.97431,-0.20551a1,1 0 0 0 -0.1919,-1.99078q-1.019,0.09823 -2.00506,0.20874a1,1 0 1 0 0.22265,1.98755z"/>
        <path id="svg_11"
              d="m45.00989,41.01013q0.98611,-0.01006 1.99011,-0.01013a1,1 0 0 0 0,-2q-1.01414,0 -2.01062,0.01025a1,1 0 1 0 0.02051,1.99988z"/>
        <line stroke-linecap="undefined" stroke-linejoin="undefined" id="svg_12" y2="50.025331" x2="93.165764"
              y1="49.052581" x1="51.823902" stroke="#000" fill="none" stroke-dasharray="2,2"/>
        <text stroke="#000"
              transform="matrix(0.94368073263861,0,0,0.4725000208153498,0.212618061697178,23.14781951418866) "
              xml:space="preserve" text-anchor="start" font-family="Helvetica, Arial, sans-serif" font-size="24"
              id="svg_13" y="54.515962" x="68.274435" stroke-opacity="null" stroke-width="0" fill="#007f00">r</text>
    </g>
</svg>
