<svg width="160" height="160" xmlns="http://www.w3.org/2000/svg">

 <g>
  <title>background</title>
  <rect fill="#ffffff" id="canvas_background" height="162" width="162" y="-1" x="-1"/>
 </g>
 <g>
  <title>Layer 1</title>
  <circle stroke="null" transform="matrix(0.235692419802516,0,0,0.24036418321469408,8.142748881036368,7.685882547509436) " id="svg_82" r="16" cy="522.36019" cx="407.556475" class="cls-1"/>
  <circle stroke="null" transform="matrix(0.235692419802516,0,0,0.24036418321469408,8.142748881036368,7.685882547509436) " id="svg_81" r="16" cy="517.503747" cx="260.626226" class="cls-1"/>
  <circle stroke="null" transform="matrix(0.235692419802516,0,0,0.24036418321469408,8.142748881036368,7.685882547509436) " id="svg_80" r="16" cy="517.503747" cx="328.313196" class="cls-1"/>
  <ellipse stroke="null" ry="3.501946" rx="4.085604" id="svg_79" cy="133.218218" cx="92.062262" stroke-opacity="null" stroke-width="null" fill="#ffaa56"/>
  <ellipse stroke="null" ry="3.501946" rx="4.085604" id="svg_78" cy="133.996428" cx="73.385222" stroke-opacity="null" stroke-width="null" fill="#ffaa56"/>
  <ellipse stroke="null" ry="3.501946" rx="4.085604" id="svg_77" cy="134.385533" cx="82.723742" stroke-opacity="null" stroke-width="null" fill="#ffaa56"/>
  <ellipse stroke="null" ry="3.501946" rx="4.085604" id="svg_76" cy="133.607323" cx="64.435807" stroke-opacity="null" stroke-width="null" fill="#ffaa56"/>
  <ellipse stroke="null" ry="3.501946" rx="4.085604" id="svg_75" cy="133.607323" cx="100.233469" stroke-opacity="null" stroke-width="null" fill="#ffaa56"/>
  <g transform="rotate(8.53007984161377 62.36943054199224,82.45308685302737) " stroke="null" id="svg_71">
   <path stroke="null" id="svg_58" opacity="0.2" d="m79.207876,97.953249c8.27265,5.50979 22.47296,10.41484 9.64057,18.47794c-11.98557,7.52556 -25.53448,-0.26877 -32.2438,-7.12241c-13.48377,-13.84165 -36.54298,-13.64007 -20.25823,-15.99181c1.23764,-0.20158 10.29196,0 19.28115,1.34385c9.31487,1.34385 21.10503,1.61262 23.58031,3.29243z"/>
   <path stroke="null" id="svg_59" fill="#825012" d="m74.583006,93.518549c0,0 1.30278,3.15805 1.23764,4.16593s-0.52111,2.35174 0.06514,2.88928c0.58625,0.47035 5.08084,3.49401 5.92765,4.77067c0.84681,1.27666 1.30278,3.49401 4.29918,2.01577s2.0193,-3.69558 0.58625,-4.30032c-1.36792,-0.60473 -4.23404,-1.14227 -5.73224,-2.6205c-1.49819,-1.47824 -2.08444,-1.94859 -0.78166,-4.23313c1.30278,-2.28455 1.88903,-4.09874 1.88903,-4.09874l-7.49099,1.41104z"/>
   <path stroke="null" id="svg_60" opacity="0.2" d="m74.583006,93.518549c0,0 1.30278,3.15805 1.23764,4.16593s-0.52111,2.35174 0.06514,2.88928c0.58625,0.47035 5.08084,3.49401 5.92765,4.77067c0.84681,1.27666 1.30278,3.49401 4.29918,2.01577s2.0193,-3.69558 0.58625,-4.30032c-1.36792,-0.60473 -4.23404,-1.14227 -5.73224,-2.6205c-1.49819,-1.47824 -2.08444,-1.94859 -0.78166,-4.23313c1.30278,-2.28455 1.88903,-4.09874 1.88903,-4.09874l-7.49099,1.41104z"/>
   <path stroke="null" id="svg_61" fill="#825012" d="m68.525086,51.456049c0.52111,-1.00789 1.69361,-2.41893 3.58264,-3.35962c1.88903,-0.9407 3.25695,-1.27666 3.25695,-1.27666s1.10736,-2.08297 3.58265,-1.20946c2.47528,0.8735 4.88542,5.71136 5.47167,7.79432s1.43306,5.84575 0.65139,6.3161c-0.78167,0.47035 -1.95417,-1.41104 -1.95417,-1.41104s0.65139,3.02366 1.1725,4.90505c0.45598,1.88139 -0.06514,5.17382 0.45598,6.2489c0.45597,1.07508 2.73583,5.03944 2.47528,9.20537s-1.82389,8.19748 -1.88903,9.94449s2.21472,11.28834 2.60556,12.02745c0.39083,0.73912 0.13028,2.95647 0.78167,4.30032c0.65139,1.34385 5.66709,2.62051 4.03861,5.24102c-1.56333,2.6205 -6.05792,1.34385 -6.70931,-0.13439c-0.65139,-1.47823 0.06514,-3.09085 -0.71653,-5.91294s-4.36432,-10.61641 -4.36432,-10.61641s-1.30277,0.40315 -3.12667,0.60473c-1.88903,0.26877 -3.8432,2.62051 -3.19181,6.51767s1.30278,5.3754 1.69362,6.3161c0.39083,0.94069 0.13027,3.09085 0.71653,4.30032c0.58625,1.27665 4.69,2.82208 3.12667,4.90505c-1.56334,2.08297 -4.88543,2.15016 -6.64418,0.40315s-0.26056,-2.55331 -1.43306,-6.85363c-1.23764,-4.30032 -2.60556,-9.27256 -2.60556,-9.27256l-4.10376,1.00788l-2.86611,6.24891c0,0 2.47528,1.88138 3.71292,2.6205c1.23764,0.73912 3.71292,0.13439 4.55973,1.27666c0.84681,1.14227 1.1725,3.69559 -1.43306,4.70347c-2.60556,1.00789 -4.10375,-2.28454 -5.0157,-3.02366c-0.91194,-0.67192 -4.55973,-2.21735 -5.53681,-3.35962s-0.13028,-3.89717 -0.13028,-3.89717s-3.8432,-0.40315 -5.73223,-2.95647s-1.62848,-3.09085 -2.41015,-3.69558c-0.78166,-0.60474 -2.0193,-1.14228 -5.73223,-0.73912c-3.71292,0.40315 -8.27265,-1.20947 -10.22682,-3.49401c-2.01931,-2.28455 -2.41014,-7.59275 -1.88903,-8.0631c0.52111,-0.47035 1.43306,3.02366 2.47528,3.82997s3.45237,2.82209 6.31848,2.55332c2.86612,-0.26877 8.14238,-2.41893 8.14238,-2.41893s2.99639,-8.60064 7.03501,-13.23692c4.03862,-4.70348 9.51029,-7.86152 10.3571,-11.28834c0.71653,-3.42682 0.65139,-13.37131 1.4982,-15.05112z"/>
   <path stroke="null" id="svg_62" opacity="0.2" d="m67.092026,91.973119c0,0 -0.78167,1.07508 -2.60556,1.07508c-0.97709,0 -2.41014,-0.13438 -3.45237,-0.26877c0.39084,0.06719 0.91195,0.20158 1.43306,0.40316c1.82389,0.60473 2.54042,1.41104 3.32209,3.09085c0.71653,1.67981 -0.52111,5.17382 -0.52111,5.17382l4.10375,-1.00788c0,0 -0.45597,-1.41105 -0.65139,-2.15016c-0.19541,-0.67193 -1.69361,-4.43471 -1.62847,-6.3161z"/>
   <path stroke="null" id="svg_63" opacity="0.2" d="m73.801346,63.281929c-0.26056,-1.00789 -1.17251,-3.42682 -2.60556,-5.03944c-1.04223,-1.20946 -1.95417,-3.89716 -2.34501,-5.57697l-0.71653,0.20157c-0.39083,2.48613 -0.52111,7.1896 -0.8468,10.61642c0.58625,0.47034 2.73583,1.27665 3.45236,1.67981c3.06154,1.747 3.58265,0.33596 3.06154,-1.88139z"/>
   <path stroke="null" id="svg_64" fill="#262626" d="m73.019676,54.815679c0,0 -0.06514,-1.47824 0.52111,-2.08297c0.52111,-0.60473 1.62847,-0.40316 1.10736,0.8735c-0.52111,1.34385 -1.62847,1.20947 -1.62847,1.20947z"/>
   <path stroke="null" id="svg_65" fill="#262626" d="m79.012466,50.045009c0,0 -0.13028,-0.73912 0.45597,-1.00789c0.58625,-0.20158 1.1725,1.00789 1.1725,1.00789l-1.62847,0z"/>
   <path stroke="null" id="svg_66" fill="#262626" d="m84.353856,55.218829c0,0 -0.19541,-0.40315 -0.65139,-0.53754c-0.39083,-0.13438 -0.8468,-0.06719 -1.36792,0.13439l-0.58625,-1.20947l-0.19541,0.13439l0.58625,1.20946c-0.84681,0.47035 -1.23764,1.00789 -1.69362,1.67981c-0.26055,0.40316 -0.58625,0.87351 -1.04222,1.27666c-1.1725,1.20947 -1.82389,1.41104 -1.82389,1.41104c-0.06514,0 -0.06514,0.0672 -0.06514,0.13439c0,0.06719 0.06514,0.06719 0.13028,0.06719c0,0 0,0 0.06514,0c0,0 0.71652,-0.26877 1.95417,-1.47823c0.45597,-0.47035 0.78166,-0.9407 1.04222,-1.34385c0.45597,-0.67193 0.84681,-1.20947 1.69361,-1.67982c0.52111,-0.26877 0.91195,-0.33596 1.23764,-0.20157c0.39084,0.13438 0.52112,0.40315 0.52112,0.40315c0,0.06719 0.13027,0.06719 0.13027,0.06719c0.06514,0.0672 0.06514,0 0.06514,-0.06719z"/>
   <path stroke="null" id="svg_67" fill="#825012" d="m68.915916,50.985699c-0.52111,-0.33596 -1.75875,0.47035 -2.6707,2.28455c-0.91194,1.8142 -2.21472,5.03944 -1.1725,6.65206s2.80098,3.02366 4.36431,3.62839c1.4982,0.60473 3.25695,1.747 3.71293,1.41104c0.45597,-0.33596 -0.71653,-3.82997 -1.95417,-5.64417c-1.23765,-1.81419 -2.60556,-3.89716 -2.60556,-3.89716s1.62847,-3.5612 0.32569,-4.43471z"/>
   <path stroke="null" id="svg_68" opacity="0.2" d="m84.353856,53.337439c0.45598,1.14227 0.3257,2.35174 -0.06514,3.49401c-0.39083,1.07508 -1.10736,1.54543 -1.10736,1.54543l0,0.06719c0.19542,0.33596 1.1725,1.8142 1.88903,1.34385c0.78167,-0.47035 -0.06514,-4.23313 -0.65139,-6.31609s-2.99639,-6.85364 -5.47167,-7.79433c-2.27987,-0.80631 -3.38723,0.8735 -3.58265,1.14227c1.04223,0 2.86612,0.26877 3.8432,1.27666c1.04223,1.00788 1.69362,1.61262 2.34501,2.55331c0.65139,0.9407 2.27986,1.47824 2.80097,2.6877z"/>
   <path stroke="null" id="svg_69" fill="#262626" d="m78.817046,51.926399c-0.45597,1.07508 1.1725,2.6877 2.80097,1.94858c1.62848,-0.80631 0.97709,-2.6877 0.45598,-3.09085c-0.52111,-0.47035 -2.73584,-0.13439 -3.25695,1.14227z"/>
   <path stroke="null" id="svg_70" fill="#262626" d="m85.070386,66.238399c-2.73584,0.47035 -6.05792,0.73912 -9.44515,0.53754c-5.01571,-0.20158 -7.81668,-1.07508 -8.92405,-1.74701c-0.06513,0.47035 -0.13027,0.9407 -0.26055,1.34385c-0.13028,0.40316 -0.26056,0.87351 -0.52111,1.27666c2.60556,1.34385 6.83959,1.74701 9.57543,1.8142c0.71653,0 1.43306,0.06719 2.14959,0.06719c2.41014,0 5.0157,-0.13438 7.49098,-0.60473c-0.13028,-0.67193 -0.06514,-1.67981 -0.06514,-2.6877z"/>
  </g>
  <g transform="matrix(0.7484381860208534,0,0,0.7509063144173471,121.7121545618688,248.40096188553403) " id="svg_37">
   <path id="svg_38" fill="#FBD7C7" d="m1.644154,-284.052727c0,0 1.5,13.1 0.2,18.2s-2.3,8.4 -2.9,14s-0.3,10.3 -1.3,13c-1,2.6 -0.8,7.1 -0.3,10c0.3,2.2 1,6.4 2.1,6.2c1.1,-0.2 0.7,-1.5 0.9,-2.7c0.2,-1.1 0.4,-2.8 0.2,-3.7c-0.1,-0.9 -0.1,-0.8 0.6,-1.4c0.7,-0.6 0.2,-3.4 0.1,-4.7c-0.4,-2.9 2,-9.6 3,-14.3c1,-4.7 4.1,-11.6 3.5,-16.2s-0.7,-16.9 -0.7,-16.9l-5.4,-1.5z"/>
   <path id="svg_39" opacity="0.2" d="m-19.955846,-144.752727c-6.2,7.5 4.4,11.2 19.8,12.5c15.4,1.3 29.8,8.1 40.2,2.8s4,-15.3 -16.3,-16.6c-20.3,-1.3 -19.7,-6.1 -28.8,-4.1s-12.7,2.8 -14.9,5.4z"/>
   <g id="svg_40">
    <path id="svg_41" fill="#262626" d="m5.844154,-147.052727c2.4,0 4,4.7 -0.4,6c-4.4,1.3 -9.2,1.9 -10.6,2.1c-2.1,0.2 -7.3,0.7 -9.8,0c-2.7,-0.7 -2.2,-3.4 -1.5,-4.6c0.7,-1.1 15.1,-4.3 17.7,-4.3c2.6,0.2 4.2,0.8 4.6,0.8z"/>
    <path id="svg_42" fill="#FFFFFF" d="m-15.555846,-140.752727c1.5,0.5 6,0.5 9.8,0c1.5,-0.2 13.2,-2.5 13.9,-3.9s-9.9,-5.6 -9.9,-5.6s-5.5,2.7 -7.7,3.1c-2.2,0.4 -5.4,0.8 -7.1,2.7c-1.1,1.2 -0.3,3.3 1,3.7z"/>
   </g>
   <path id="svg_43" fill="#262626" d="m28.244154,-143.852727c-0.2,2 -1.2,6.7 0.5,10.2c1,2.1 6.8,3 9.2,0.5c2.4,-2.5 -1.4,-14.2 -1.4,-14.2l-8.3,3.5z"/>
   <path id="svg_44" fill="#FFFFFF" d="m28.844154,-144.652727c0,0 -2.8,11.2 4.3,11.1c7.2,-0.1 5.1,-5.1 4.5,-8.5c-0.6,-3.4 -2,-5.2 -2,-5.2l-6.8,2.6z"/>
   <path id="svg_45" fill="#CC291F" d="m27.544154,-143.052727c0,0 2.9,0.1 6.7,0.3c3.8,0.2 4.1,-1.6 4.1,-1.6s-0.8,-6.5 -0.9,-11.4c-0.2,-4.9 0.4,-18.8 -0.2,-25.2c-0.7,-6.4 -0.8,-11.7 0.4,-23.3s2.5,-18.7 0.2,-24.7c-2.3,-6 -3.7,-8.5 -3.7,-8.5l-31.9,3.4c0,0 -3.8,9 -4.2,20c-0.4,11.1 2.6,20.8 1.7,26.6c-0.9,5.9 -1.3,18.7 -1.9,24.7c-0.9,9.4 -4.4,15.5 -4.4,15.5s1,3 6.1,3.8s8.7,-1.7 8.7,-1.7s0.2,-6.5 0.9,-14.7c0.8,-8.2 2.2,-16.2 2.4,-22.7s0.6,-7.5 1,-9.2c0.5,-1.7 2.3,-13.6 3.4,-17.1c1.4,-4.7 1.8,-9.4 2.9,-9.4c1.1,0.1 0.9,4.1 2.2,11.9c1.1,6.5 4.8,32.8 4.9,40.8c0.1,8.1 1.6,22.5 1.6,22.5z"/>
   <g id="svg_46">
    <path id="svg_47" fill="#CC291F" d="m2.144154,-234.152727c0,0 -3.8,9 -4.2,20c-0.4,11.1 2.6,20.8 1.7,26.6c-0.9,5.9 -1.3,18.7 -1.9,24.7c-0.9,9.4 -4.4,15.5 -4.4,15.5s1,3 6.1,3.8c5.1,0.8 8.7,-1.7 8.7,-1.7s0.2,-6.5 0.9,-14.7c0.8,-8.2 2.2,-16.2 2.4,-22.7c0.2,-6.5 0.6,-7.5 1,-9.2c0.5,-1.7 2.3,-13.6 3.4,-17.1c1.4,-4.7 1.8,-9.4 2.9,-9.4c0,0 1.1,-10.4 0.5,-17.5l-17.1,1.7z"/>
    <path id="svg_48" opacity="0.2" d="m2.144154,-234.152727c0,0 -3.8,9 -4.2,20c-0.4,11.1 2.6,20.8 1.7,26.6c-0.9,5.9 -1.3,18.7 -1.9,24.7c-0.9,9.4 -4.4,15.5 -4.4,15.5s1,3 6.1,3.8c5.1,0.8 8.7,-1.7 8.7,-1.7s0.2,-6.5 0.9,-14.7c0.8,-8.2 2.2,-16.2 2.4,-22.7c0.2,-6.5 0.6,-7.5 1,-9.2c0.5,-1.7 2.3,-13.6 3.4,-17.1c1.4,-4.7 1.8,-9.4 2.9,-9.4c0,0 1.1,-10.4 0.5,-17.5l-17.1,1.7z"/>
    <path id="svg_49" fill="#CC291F" d="m21.044154,-206.252727c1.1,6.5 4.8,32.8 4.9,40.8c0.1,8 1.6,22.4 1.6,22.4s2.9,0.1 6.7,0.3c3.8,0.2 4.1,-1.6 4.1,-1.6s-0.8,-6.5 -0.9,-11.4c-0.2,-4.9 0.4,-18.8 -0.2,-25.2c-0.7,-6.4 -0.8,-11.7 0.4,-23.3c1.1,-11.6 2.5,-18.7 0.2,-24.7s-3.7,-8.5 -3.7,-8.5l-17.6,1.8c0.6,7.1 2.3,17.5 2.3,17.5c1.1,0.1 0.9,4.1 2.2,11.9z"/>
   </g>
   <path id="svg_50" fill="#FBD7C7" d="m34.044154,-277.152727c0,0 -2.6,15.5 -2.1,20.6c0.4,5.1 1.3,11.2 2.3,14.8c1,3.6 1.7,6 0.9,7.3s-1.8,5.3 -1.1,6c1.8,1.6 2.5,5.6 3,6.6c0.3,0.6 0.9,1.1 1.8,0.6c0.9,-0.5 0.2,-4.7 0.3,-5.7c0.1,-1 0.4,-5.8 0.4,-7.4c0,-1.6 0.6,-15.7 0,-18.8s-1.4,-8.2 0.4,-14.7c1.8,-6.4 2.8,-7.3 2.8,-10.2c-0.1,-3 -8.7,0.9 -8.7,0.9z"/>
   <path id="svg_51" fill="#FBD7C7" d="m13.744154,-292.852727c0,0 -12.3,13.3 1.7,14.9s16.5,-7.7 13.9,-12.9c-2.6,-5.1 -6.9,-7.8 -6.9,-7.8l-8.7,5.8z"/>
   <path id="svg_52" fill="#FFCC00" d="m14.044154,-292.052727c0,0 -5.6,-1.7 -8.9,0.6s-3.8,7.7 -3.8,7.7s0.6,0.5 1.4,0.9c0.8,0.4 1.3,0.4 1.3,0.4s0,1.7 -0.9,4.2c-0.8,2.6 -2.7,5 -1.7,8.5c0.9,3.4 3.1,3.9 3.1,4.6c0,0.8 0.6,12.2 -0.7,18.5s-2.5,12.8 -2.4,14.6c0,0.3 0.4,5.5 13.1,5.8c12.7,0.2 20.7,-8.8 20.7,-8.8s-2.6,-6.8 -3.7,-11c-1,-3.9 2.4,-17.8 2.4,-21.4c0,-3.6 0,-8.5 0,-8.5s1.3,1.2 5.2,1.1c2.1,-0.1 3.7,-1.4 3.7,-1.4s0.9,-5.6 -3.1,-8.9s-8.5,-3.5 -8.5,-3.5s-5.1,10.4 -13.9,8.1c-9.5,-2.4 -3.3,-11.5 -3.3,-11.5z"/>
   <path id="svg_53" fill="#825012" d="m21.644154,-319.552727c-8.1,-0.5 -12,3 -13.5,8.6c-1.5,5.4 4,15.3 -1.8,17.9c0.1,2.2 5.1,4.5 7.3,2.1c2.2,-2.3 2.9,-2.4 2.9,-2.4l5.1,-26.2z"/>
   <path id="svg_54" fill="#FBD7C7" d="m10.944154,-309.452727c-1.5,3.1 -1.9,15.6 0.6,17.6c2.5,2 7.6,-1.3 12.5,-3.5s5.5,-19 -1.9,-19.2s-9.6,1.8 -11.2,5.1z"/>
   <path id="svg_55" fill="#825012" d="m20.144154,-319.352727c-3.3,0.8 -7.1,5.2 -6.4,10c1,6.2 13.2,18.3 4.6,22.2c1.4,4.6 9.5,4.3 14,2c4.3,-2.3 4.7,-4.5 4.6,-5.3c-0.1,-0.8 -3.8,-4.9 -3.8,-10.9c-0.1,-6.1 -0.5,-21.1 -13,-18z"/>
   <path id="svg_56" opacity="0.2" d="m1.644154,-269.752727c0,0 1.1,4.3 13.6,5.1c12.5,0.9 18.6,-4.8 18.6,-4.8s-3.3,7.9 -17.4,7.4s-14.8,-7.7 -14.8,-7.7z"/>
  </g>
  <g transform="rotate(8.53007984161377 31.630128860473665,100.74102783203124) " stroke="null" id="svg_16">
   <path stroke="null" id="svg_2" opacity="0.2" d="m48.468582,116.241189c8.272652,5.509784 22.472953,10.414836 9.640571,18.477934c-11.985575,7.525559 -25.534486,-0.26877 -32.243803,-7.122404c-13.483772,-13.841653 -36.542977,-13.640075 -20.258228,-15.991812c1.237641,-0.201577 10.291961,0 19.281143,1.34385c9.314876,1.34385 21.105035,1.61262 23.580316,3.292432z"/>
   <path stroke="null" id="svg_3" fill="#825012" d="m43.843713,111.806485c0,0 1.30278,3.158047 1.237641,4.165934s-0.521112,2.351737 0.065139,2.889277c0.586251,0.470347 5.080842,3.494009 5.927649,4.770667c0.846807,1.276657 1.30278,3.494009 4.299174,2.015775s2.019309,-3.695587 0.586251,-4.300319c-1.367919,-0.604732 -4.234035,-1.142272 -5.732232,-2.620507c-1.498197,-1.478235 -2.084448,-1.948582 -0.781668,-4.233127c1.30278,-2.284545 1.889031,-4.098742 1.889031,-4.098742l-7.490984,1.411042z"/>
   <path stroke="null" id="svg_4" opacity="0.2" d="m43.843713,111.806485c0,0 1.30278,3.158047 1.237641,4.165934s-0.521112,2.351737 0.065139,2.889277c0.586251,0.470347 5.080842,3.494009 5.927649,4.770667c0.846807,1.276657 1.30278,3.494009 4.299174,2.015775s2.019309,-3.695587 0.586251,-4.300319c-1.367919,-0.604732 -4.234035,-1.142272 -5.732232,-2.620507c-1.498197,-1.478235 -2.084448,-1.948582 -0.781668,-4.233127c1.30278,-2.284545 1.889031,-4.098742 1.889031,-4.098742l-7.490984,1.411042z"/>
   <path stroke="null" id="svg_5" fill="#825012" d="m37.785787,69.743987c0.521112,-1.007887 1.693614,-2.41893 3.582645,-3.359624c1.889031,-0.940695 3.25695,-1.276657 3.25695,-1.276657s1.107363,-2.082967 3.582645,-1.209465c2.475282,0.873502 4.885425,5.711362 5.471676,7.794329s1.433058,5.845747 0.65139,6.316094c-0.781668,0.470347 -1.95417,-1.411042 -1.95417,-1.411042s0.65139,3.023662 1.172502,4.905052c0.455973,1.88139 -0.065139,5.173822 0.455973,6.248901c0.455973,1.07508 2.735838,5.039437 2.475282,9.205371s-1.823892,8.197484 -1.889031,9.944488s2.214726,11.288338 2.60556,12.027456c0.390834,0.739117 0.130278,2.95647 0.781668,4.300319c0.65139,1.34385 5.667093,2.620507 4.038618,5.241014c-1.563336,2.620507 -6.057927,1.34385 -6.709317,-0.134385c-0.65139,-1.478235 0.065139,-3.090854 -0.716529,-5.912939s-4.364313,-10.616413 -4.364313,-10.616413s-1.30278,0.403155 -3.126672,0.604732c-1.889031,0.26877 -3.843201,2.620507 -3.191811,6.517671s1.30278,5.375399 1.693614,6.316094c0.390834,0.940695 0.130278,3.090854 0.716529,4.300319c0.586251,1.276657 4.690008,2.822085 3.126672,4.905052c-1.563336,2.082967 -4.885425,2.15016 -6.644178,0.403155s-0.260556,-2.553315 -1.433058,-6.853634c-1.237641,-4.300319 -2.60556,-9.272563 -2.60556,-9.272563l-4.103757,1.007887l-2.866116,6.248901c0,0 2.475282,1.88139 3.712923,2.620507c1.237641,0.739117 3.712923,0.134385 4.55973,1.276657c0.846807,1.142272 1.172502,3.695587 -1.433058,4.703474c-2.60556,1.007887 -4.103757,-2.284545 -5.015703,-3.023662c-0.911946,-0.671925 -4.55973,-2.217352 -5.536815,-3.359624s-0.130278,-3.897164 -0.130278,-3.897164s-3.843201,-0.403155 -5.732232,-2.95647s-1.628475,-3.090854 -2.410143,-3.695587c-0.781668,-0.604732 -2.019309,-1.142272 -5.732232,-0.739117c-3.712923,0.403155 -8.272652,-1.209465 -10.226822,-3.494009c-2.019309,-2.284545 -2.410143,-7.592751 -1.889031,-8.063099c0.521112,-0.470347 1.433058,3.023662 2.475282,3.829972s3.452367,2.822085 6.318483,2.553315c2.866116,-0.26877 8.142374,-2.41893 8.142374,-2.41893s2.996394,-8.600639 7.035012,-13.23692c4.038618,-4.703474 9.510293,-7.861521 10.3571,-11.288338c0.716529,-3.426817 0.65139,-13.371305 1.498197,-15.051118z"/>
   <path stroke="null" id="svg_7" opacity="0.2" d="m36.352729,110.261057c0,0 -0.781668,1.07508 -2.60556,1.07508c-0.977085,0 -2.410143,-0.134385 -3.452367,-0.26877c0.390834,0.067192 0.911946,0.201577 1.433058,0.403155c1.823892,0.604732 2.540421,1.411042 3.322089,3.090854c0.716529,1.679812 -0.521112,5.173822 -0.521112,5.173822l4.103757,-1.007887c0,0 -0.455973,-1.411042 -0.65139,-2.15016c-0.195417,-0.671925 -1.693614,-4.434704 -1.628475,-6.316094z"/>
   <path stroke="null" id="svg_8" opacity="0.2" d="m43.062045,81.569865c-0.260556,-1.007887 -1.172502,-3.426817 -2.60556,-5.039437c-1.042224,-1.209465 -1.95417,-3.897164 -2.345004,-5.576977l-0.716529,0.201577c-0.390834,2.486122 -0.521112,7.189596 -0.846807,10.616413c0.586251,0.470347 2.735838,1.276657 3.452367,1.679812c3.061533,1.747005 3.582645,0.335962 3.061533,-1.88139z"/>
   <path stroke="null" id="svg_9" fill="#262626" d="m42.280377,73.103611c0,0 -0.065139,-1.478235 0.521112,-2.082967c0.521112,-0.604732 1.628475,-0.403155 1.107363,0.873502c-0.521112,1.34385 -1.628475,1.209465 -1.628475,1.209465z"/>
   <path stroke="null" id="svg_10" fill="#262626" d="m48.273165,68.332944c0,0 -0.130278,-0.739117 0.455973,-1.007887c0.586251,-0.201577 1.172502,1.007887 1.172502,1.007887l-1.628475,0z"/>
   <path stroke="null" id="svg_11" fill="#262626" d="m53.614563,73.506766c0,0 -0.195417,-0.403155 -0.65139,-0.53754c-0.390834,-0.134385 -0.846807,-0.067192 -1.367919,0.134385l-0.586251,-1.209465l-0.195417,0.134385l0.586251,1.209465c-0.846807,0.470347 -1.237641,1.007887 -1.693614,1.679812c-0.260556,0.403155 -0.586251,0.873502 -1.042224,1.276657c-1.172502,1.209465 -1.823892,1.411042 -1.823892,1.411042c-0.065139,0 -0.065139,0.067192 -0.065139,0.134385c0,0.067192 0.065139,0.067192 0.130278,0.067192c0,0 0,0 0.065139,0c0,0 0.716529,-0.26877 1.95417,-1.478235c0.455973,-0.470347 0.781668,-0.940695 1.042224,-1.34385c0.455973,-0.671925 0.846807,-1.209465 1.693614,-1.679812c0.521112,-0.26877 0.911946,-0.335962 1.237641,-0.201577c0.390834,0.134385 0.521112,0.403155 0.521112,0.403155c0,0.067192 0.130278,0.067192 0.130278,0.067192c0.065139,0.067192 0.065139,0 0.065139,-0.067192z"/>
   <path stroke="null" id="svg_12" fill="#825012" d="m38.176621,69.273639c-0.521112,-0.335962 -1.758753,0.470347 -2.670699,2.284545c-0.911946,1.814197 -2.214726,5.039437 -1.172502,6.652056s2.800977,3.023662 4.364313,3.628394c1.498197,0.604732 3.25695,1.747005 3.712923,1.411042c0.455973,-0.335962 -0.716529,-3.829972 -1.95417,-5.644169c-1.237641,-1.814197 -2.60556,-3.897164 -2.60556,-3.897164s1.628475,-3.561202 0.325695,-4.434704z"/>
   <path stroke="null" id="svg_13" opacity="0.2" d="m53.614563,71.625376c0.455973,1.142272 0.325695,2.351737 -0.065139,3.494009c-0.390834,1.07508 -1.107363,1.545427 -1.107363,1.545427l0,0.067192c0.195417,0.335962 1.172502,1.814197 1.889031,1.34385c0.781668,-0.470347 -0.065139,-4.233127 -0.65139,-6.316094s-2.996394,-6.853634 -5.471676,-7.794329c-2.279865,-0.80631 -3.387228,0.873502 -3.582645,1.142272c1.042224,0 2.866116,0.26877 3.843201,1.276657c1.042224,1.007887 1.693614,1.61262 2.345004,2.553315c0.65139,0.940695 2.279865,1.478235 2.800977,2.6877z"/>
   <path stroke="null" id="svg_14" fill="#262626" d="m48.077748,70.214334c-0.455973,1.07508 1.172502,2.6877 2.800977,1.948582c1.628475,-0.80631 0.977085,-2.6877 0.455973,-3.090854c-0.521112,-0.470347 -2.735838,-0.134385 -3.25695,1.142272z"/>
   <path stroke="null" id="svg_15" fill="#262626" d="m54.331092,84.526334c-2.735838,0.470347 -6.057927,0.739117 -9.445154,0.53754c-5.015703,-0.201577 -7.816679,-1.07508 -8.924042,-1.747005c-0.065139,0.470347 -0.130278,0.940695 -0.260556,1.34385c-0.130278,0.403155 -0.260556,0.873502 -0.521112,1.276657c2.60556,1.34385 6.839595,1.747005 9.575432,1.814197c0.716529,0 1.433058,0.067192 2.149587,0.067192c2.410143,0 5.015703,-0.134385 7.490984,-0.604732c-0.130278,-0.671925 -0.065139,-1.679812 -0.065139,-2.6877z"/>
  </g>
  <defs>
   <style>.cls-1{fill:#704220;}.cls-2{fill:#009788;}</style>
  </defs>
  <g id="svg_31"/>
  <circle stroke="null" transform="matrix(0.235692419802516,0,0,0.24036418321469408,8.142748881036368,7.685882547509436) " id="svg_27" r="16" cy="532.073077" cx="290.342458" class="cls-1"/>
  <circle stroke="null" transform="matrix(0.235692419802516,0,0,0.24036418321469408,8.142748881036368,7.685882547509436) " id="svg_29" r="16" cy="536.073077" cx="350.342458" class="cls-1"/>
  <path stroke="null" id="svg_30" d="m54.956557,149.243446l56.434193,0a1.885539,1.922913 0 0 0 1.791262,-2.680061l-4.174113,-9.614567a1.951533,1.990215 0 0 0 -1.793619,-1.165766l-48.081254,0a1.951533,1.990215 0 0 0 -1.791262,1.165766l-4.174113,9.614567a1.885539,1.922913 0 0 0 1.788905,2.680061z" class="cls-2"/>
  <g id="svg_57"/>
  <ellipse stroke="null" ry="0.77821" rx="0.778209" id="svg_73" cy="22.412463" cx="129.610894" stroke-opacity="null" stroke-width="null" fill="#000000"/>
  <rect stroke="null" id="svg_74" height="0.389106" width="0.389095" y="26.303511" x="131.167325" stroke-opacity="null" stroke-width="null" fill="#000000"/>
  <ellipse stroke="null" ry="0.77821" rx="0.778209" id="svg_84" cy="22.412463" cx="133.112839" stroke-opacity="null" stroke-width="null" fill="#000000"/>
 </g>
</svg>