<svg id="Layer_3" enable-background="new 0 0 64 64" height="512" viewBox="0 0 64 64" width="512"
     xmlns="http://www.w3.org/2000/svg">
    <g>
        <g>
            <path d="m14 49h-2.075c-1.457 0-2.9-.481-4.065-1.355l-.15-.112c-1.697-1.273-2.71-3.3-2.71-5.421v-.305c0-2.714 1.612-5.157 4.106-6.227l.284-.122c1.585-.679 2.61-2.232 2.61-3.958 0-1.378-1.122-2.5-2.5-2.5s-2.5 1.122-2.5 2.5v1.5h-2v-1.5c0-2.481 2.019-4.5 4.5-4.5s4.5 2.019 4.5 4.5c0 2.526-1.5 4.802-3.823 5.798l-.284.122c-1.757.753-2.893 2.476-2.893 4.388v.305c0 1.495.714 2.923 1.91 3.82l.149.111c.822.617 1.839.956 2.866.956h2.075z"
                  fill="#c18e59"/>
        </g>
        <path d="m43 32 .406.406c2.941 2.941 4.594 6.931 4.594 11.092v1.526c0 2.574-.876 5.071-2.484 7.081-.981 1.227-1.516 2.751-1.516 4.322 0 .377.088.748.256 1.085l.488.975c.168.338.256.709.256 1.086 0 1.34-1.087 2.427-2.427 2.427h-5.745c-1.274 0-2.351-.842-2.705-2h-2.247c-.354 1.158-1.431 2-2.705 2h-5.745c-1.339 0-2.426-1.087-2.426-2.427 0-.377.088-.748.256-1.085l.488-.975c.168-.338.256-.709.256-1.086 0-1.571-.535-3.095-1.516-4.322-1.608-2.01-2.484-4.507-2.484-7.081v-1.526c0-4.16 1.653-8.15 4.594-11.092l.406-.406"
              fill="#c18e59"/>
        <path d="m52.277 44.916c-.798-1.197-2.141-1.916-3.58-1.916h-.722c.006.166.025.331.025.497v1.526c0 2.574-.876 5.071-2.484 7.081-.981 1.228-1.516 2.752-1.516 4.323 0 .377.088.748.256 1.085l.488.975c.168.338.256.709.256 1.086 0 .146-.018.288-.043.427h4.254c.988 0 1.789-.801 1.789-1.789v-.106c0-.678-.383-1.297-.989-1.6l-.022-.011c-.606-.303-.989-.922-.989-1.6 0-.563.265-1.093.716-1.431l1.563-1.172c1.083-.813 1.721-2.088 1.721-3.442v-1.546c0-.85-.251-1.68-.723-2.387z"
              fill="#976947"/>
        <path d="m13.723 44.916c.798-1.197 2.141-1.916 3.58-1.916h.722c-.006.166-.025.331-.025.497v1.526c0 2.574.876 5.071 2.484 7.081.981 1.228 1.516 2.752 1.516 4.323 0 .377-.088.748-.256 1.085l-.488.975c-.168.338-.256.709-.256 1.086 0 .146.018.288.043.427h-4.254c-.988 0-1.789-.801-1.789-1.789v-.106c0-.678.383-1.297.989-1.6l.022-.011c.606-.303.989-.922.989-1.6 0-.563-.265-1.093-.716-1.431l-1.563-1.172c-1.083-.813-1.721-2.088-1.721-3.442v-1.546c0-.85.251-1.68.723-2.387z"
              fill="#976947"/>
        <path d="m39.929 33c.047.327.071 2.66.071 3 0 3.866-3.134 7-7 7s-7-3.134-7-7c0-.34.024-2.673.071-3"
              fill="#efbe9a"/>
        <circle cx="33" cy="19" fill="#c18e59" r="17"/>
        <path d="m45 17c0-3.866-3.134-7-7-7-1.96 0-3.729.808-5 2.106-1.271-1.298-3.04-2.106-5-2.106-3.866 0-7 3.134-7 7 0 2.54 1.358 4.758 3.383 5.985-.247.638-.383 1.314-.383 2.015 0 3.866 4.029 7 9 7s9-3.134 9-7c0-.701-.136-1.377-.383-2.015 2.025-1.227 3.383-3.445 3.383-5.985z"
              fill="#efbe9a"/>
        <path d="m18.875 9.541c-.893-.344-1.86-.541-2.875-.541-4.418 0-8 3.582-8 8s3.582 8 8 8c.367 0 .726-.033 1.08-.081-.686-1.846-1.08-3.834-1.08-5.919 0-3.501 1.061-6.754 2.875-9.459z"
              fill="#db9b7c"/>
        <path d="m17.052 13.158c-.337-.093-.685-.158-1.052-.158-2.209 0-4 1.791-4 4s1.791 4 4 4c.043 0 .083-.011.126-.013-.076-.653-.126-1.314-.126-1.987 0-2.056.384-4.018 1.052-5.842z"
              fill="#efbe9a"/>
        <path d="m50 9c-1.015 0-1.982.197-2.875.541 1.814 2.705 2.875 5.958 2.875 9.459 0 2.085-.394 4.073-1.08 5.919.354.048.713.081 1.08.081 4.418 0 8-3.582 8-8s-3.582-8-8-8z"
              fill="#db9b7c"/>
        <path d="m31 8 2.205-.735c2.111-.704 3.565-2.596 3.756-4.782-1.273-.304-2.595-.483-3.961-.483 0 1.956-.579 3.869-1.664 5.496z"
              fill="#976947"/>
        <g>
            <path d="m33 59.172h-2c0-.481-.195-.952-.535-1.293-1.59-1.59-2.465-3.703-2.465-5.95v-.342c0-.925-.174-1.829-.518-2.689-.886-2.214-2.189-4.191-3.875-5.876l-.314-.314 1.414-1.414.314.314c1.878 1.877 3.331 4.08 4.317 6.548.44 1.096.662 2.251.662 3.431v.342c0 1.713.667 3.324 1.878 4.536.724.723 1.122 1.683 1.122 2.707z"
                  fill="#976947"/>
        </g>
        <g>
            <path d="m35 59.172h-2c0-1.023.398-1.984 1.122-2.707 1.211-1.212 1.878-2.823 1.878-4.536v-.342c0-1.18.222-2.335.661-3.432.987-2.468 2.44-4.671 4.318-6.548l.314-.314 1.414 1.414-.314.314c-1.685 1.685-2.989 3.662-3.875 5.876-.344.861-.518 1.765-.518 2.69v.342c0 2.247-.875 4.36-2.464 5.95-.341.341-.536.811-.536 1.293z"
                  fill="#976947"/>
        </g>
        <g>
            <path d="m24 59h2v3h-2z" fill="#976947"/>
        </g>
        <g>
            <path d="m27 59h2v3h-2z" fill="#976947"/>
        </g>
        <g>
            <path d="m37 59h2v3h-2z" fill="#976947"/>
        </g>
        <g>
            <path d="m40 59h2v3h-2z" fill="#976947"/>
        </g>
        <g>
            <path d="m31 17h-2c0-.551-.449-1-1-1s-1 .449-1 1h-2c0-1.654 1.346-3 3-3s3 1.346 3 3z" fill="#db9b7c"/>
        </g>
        <g>
            <path d="m41 17h-2c0-.551-.449-1-1-1s-1 .449-1 1h-2c0-1.654 1.346-3 3-3s3 1.346 3 3z" fill="#db9b7c"/>
        </g>
        <path d="m36 25c0 .851-.85 1.59-2 1.873v-3.873h-2v3.873c-1.15-.282-2-1.022-2-1.873h-2c0 2.206 2.243 4 5 4s5-1.794 5-4z"
              fill="#db9b7c"/>
        <path d="m50 13c-.367 0-.715.065-1.052.158.668 1.824 1.052 3.786 1.052 5.842 0 .673-.05 1.334-.126 1.987.043.002.083.013.126.013 2.209 0 4-1.791 4-4s-1.791-4-4-4z"
              fill="#efbe9a"/>
    </g>
</svg>
