<svg width="1420" height="1410.0000000000002" xmlns="http://www.w3.org/2000/svg">

    <metadata id="metadata7">image/svg+xml</metadata>
    <g>
        <title>background</title>
        <rect fill="none" id="canvas_background" height="1412" width="1422" y="-1" x="-1"/>
    </g>
    <g>
        <title>Layer 1</title>
        <g id="svg_3">
            <g id="svg_6">
                <path fill="#aa87de" id="path4739"
                      d="m773.440254,882.742883c1.5784,38.99546 0.3897,116.86513 -24.9676,204.46336c-36.28846,125.36012 -4.9411,174.865 72.5843,272.18408c-19.7937,-67.62853 23.0741,-92.38613 -6.6165,-120.42717c-47.0139,-44.402 -71.8574,-30.24322 -51.1229,-122.06727c19.5508,-86.58201 33.1953,-114.05355 32.9132,-179.49565c-0.2428,0.37414 -0.4844,0.73282 -0.7352,1.1028c-7.2873,-18.61624 -14.4009,-37.2941 -22.0553,-55.76015zm35.3733,2.60139c0.2628,7.25918 -0.1404,14.63164 -1.329,21.82902c3.0282,23.19876 5.8097,58.15171 2.0076,94.27198c-6.5979,62.68011 9.8938,141.84939 108.8624,192.98332c-14.8453,-47.83492 -6.5862,-113.82074 -75.8643,-92.37753c-22.3172,-55.13654 -11.2154,-115.47459 -13.2332,-164.42463c-6.7088,-17.4843 -13.5385,-34.93919 -20.4435,-52.28216z"/>
                <path fill="#2d1650"
                      d="m639.672104,47.256526l-0.8125,0.375l-0.21875,0.0937c-62.63143,31.1246 -119.23038,78.80305 -150.875,142.09375c-2.80733,5.8724 -5.1609,11.9834 -7.21875,18.1875c17.819,-1.7873 35.62203,-3.71055 53.4375,-5.53125c-18.50043,29.94012 -32.95769,62.79961 -42.0625,97c-31.66038,3.07066 -56.40625,29.61723 -56.40625,61.90625c0,29.57092 20.74974,54.31344 48.5625,60.625c0.11738,0.79152 0.21935,1.584 0.34375,2.375c10.43911,69.7801 43.62267,135.75238 92.375,186.40625c1.69339,1.43606 5.95374,3.46458 2.5,5.75c-4.70394,6.23065 -6.18442,17.04501 1.28125,21.78125c6.22215,4.75434 14.313,5.59717 21.8125,6.9375c-2.94631,7.65486 -4.81288,19.10436 3.5625,24.03125c5.31063,3.0539 11.75628,1.85191 17.46875,0.84375c3.38768,30.69084 16.54098,59.96822 36.65625,83.375c24.80031,31.44954 56.9913,58.63043 71.9687,96.59375c8.2193,23.7526 4.7401,49.9246 4.0626,74.7813c20.2219,-7.0816 31.0529,-28.6642 31.7812,-49.0626c-0.022,-1.4288 0.032,-3.8466 0.6562,-5.9375c0.5504,19.9636 0.9671,41.9898 -0.5624,61.7189c-2.1827,59.401 -13.4432,118.1525 -30.3438,174.9687c-11.6097,45.7677 -15.1134,96.068 3.5,140.5c17.8698,44.5491 49.0692,82.0163 78.7812,119.125c3.3524,3.0657 9.3227,-0.7667 7,-5.0937c-8.0486,-25.6544 -7.3806,-53.7463 0.8126,-79.2188c3.9378,-13.9843 5.3602,-31.2612 -5.6563,-42.5312c-15.4922,-18.7349 -39.574,-28.6912 -54.8437,-47.6876c-8.6548,-14.3212 -5.8194,-32.2629 -3.5938,-48c10.8852,-67.0204 38.4105,-131.463 38.0625,-200.1562c-0.7376,-5.0876 0.6966,-10.8146 -0.2187,-15.9062c0.7994,-1.8036 1.5604,-3.6401 2.2187,-5.5c1.5938,16.4742 2.7678,32.9887 2.0625,49.5624c-0.3045,27.4158 -5.8797,54.9727 -1.0938,82.25c5.8706,42.0338 26.665,81.7544 58.6563,109.5938c19.1184,17.2563 41.312,30.683 64.4687,41.875c-13.2356,-31.0282 -10.0443,-67.5782 -28.125,-96.6875c-9.4492,-13.5522 -27.2834,-18.701 -43.125,-15.5625c-3.6566,0.6142 -7.149,1.7494 -10.8437,2.0625c-16.2774,-43.8091 -11.4923,-91.7122 -10.9063,-137.625c0.107,-1.5617 0.1916,-3.1084 0.25,-4.6875c0.251,0.6612 0.5307,1.3075 0.7813,1.9688c8.678,-28.2186 3.8114,-58.3169 -3.4063,-86.25c11.1616,14.7393 24.9381,28.9863 42.5938,35.5624c3.3515,1.179 10.2323,2.6612 14.3438,1.7188c-5.8976,-3.6669 -10.3595,-8.3267 -12.875,-11.4688c-23.0265,-27.099 -28.364,-63.8248 -29.8438,-98.21875c-1.6149,-46.78984 -5.2477,-95.89435 -29.0938,-137.21875c-15.7422,-27.43517 -38.0977,-50.27455 -54.8437,-77.15625c25.1849,-71.2301 21.7989,-149.6349 5.1563,-222.4375c-13.2322,-57.7657 -34.1028,-113.82755 -62.12505,-165.96875c17.67475,4.8961 34.45675,13.1935 50.15625,22.5625c7.0344,-21.5474 -1.8781,-44.15565 -12.7812,-62.65625c-25.7117,-42.71875 -64.41712,-75.63285 -103.43755,-106.06245z"
                      id="path4737"/>
                <path fill="#aa87de"
                      d="m639.015854,53.600276c-120.13465,60.6505 -150.4375,148.125 -150.4375,148.125l55.96875,-5.84375c-22.96348,35.74154 -38.03115,70.34998 -47.03125,103.3125c0.17775,-0.001 0.35315,0 0.53125,0c23.58611,0 44.1564,12.955 54.8125,32.125c4.2679,-43.4822 41.14332,-77.46875 86,-77.46875c47.72336,0 86.40625,38.491 86.40625,85.9375c0,47.4465 -38.68289,85.90625 -86.40625,85.90625c-35.62642,0 -66.21829,-21.4566 -79.4375,-52.0625c-5.72241,28.483 -31.04827,49.9375 -61.375,49.9375c-2.84947,0 -5.6266,-0.19577 -8.375,-0.5625c15.76769,109.01793 86.5762,182.40497 98.625,190.4375c-14.57952,18.66166 -8.74212,23.32402 21,27.40625c-2.33274,10.4972 -14.23956,32.3656 18.75,22.46875c6.59793,54.43276 21.45316,70.91782 70.9375,127c49.48425,56.08227 44.52445,79.1583 42.87505,125.3437c31.34,-18.1442 18.1562,-75.87495 18.1562,-75.87495c0,0 8.2401,13.20429 36.2812,85.78125c14.8453,-28.0411 1.6563,-80.8125 1.6563,-80.8125c0,0 14.8381,34.6366 36.2813,90.7188c5.3144,-33.2153 -13.9468,-92.06083 -21.6563,-113.7188c6.907,17.31799 25.8441,57.3145 59.5937,75.7812c-19.7935,-21.4431 -30.1407,-59.39898 -31.3437,-107.2187c-3.2989,-131.13339 -42.888,-141.86465 -84.125,-207.84375c56.0823,-153.4015 -27.8632,-339.911 -61.6875,-397.0625c27.9925,4.6655 57.1562,22.15625 57.1562,22.15625c0,0 18.6421,-52.49575 -113.1562,-153.96875z"
                      id="path4741"/>
                <path fill="#8d5fd3" id="path4743"
                      d="m643.311042,53.607543c-2.18435,4.6098 -2.43164,6.3292 -4.32626,11.169c-15.43984,41.6938 -49.35214,130.6359 -40.32149,201.353c12.99499,-7.7789 28.20374,-12.2718 44.47801,-12.2718c47.72336,0 86.41123,38.4841 86.41123,85.9306c0,47.4465 -38.68787,85.9023 -86.41123,85.9023c-35.62633,0 -66.20786,-21.4502 -79.42707,-52.056c-5.72241,28.4829 -31.03205,49.9352 -61.35878,49.9352c-2.84958,0 -5.64949,-0.1987 -8.398,-0.5655c0.22322,1.5513 0.46074,3.1017 0.70694,4.6373c10.38012,2.805 27.06139,1.8583 52.73467,-12.5828c15.66976,-9.0721 17.33311,-9.8965 17.33311,-9.8965c0,0 14.83921,16.4946 45.3546,24.7414c103.91701,37.1139 62.67767,139.3767 84.12096,158.3452c21.44312,18.9695 61.8431,14.03311 95.6575,61.86776c33.8143,47.83528 37.9601,62.66255 45.3829,121.21899c5.1748,40.82593 4.3319,78.4531 21.5179,111.7465c5.9085,5.51386 12.4687,10.48708 19.7083,14.44905c-19.7937,-21.44365 -30.1268,-59.40308 -31.3297,-107.22235c-3.2989,-131.13385 -42.8839,-141.84857 -84.1209,-207.82825c56.0823,-153.4014 -27.9021,-339.9275 -61.72633,-397.0789c20.05643,3.3427 40.65553,13.2443 50.75523,18.6055c-1.0685,-17.4629 -6.5945,-43.2684 -27.4276,-64.1015c-29.31679,-29.3167 -71.73603,-56.4345 -78.88989,-85.9589c-0.14496,-0.1117 -0.27905,-0.2274 -0.4241,-0.3393zm40.18007,558.13876c-5.36085,36.28847 -46.20289,49.90698 -46.20289,49.90698c39.17516,-0.41224 54.0379,-32.17512 46.20289,-49.90698zm39.58632,26.80558c0,0 52.7902,34.63925 87.4292,167.42179c-8.2474,-66.80351 -20.6254,-144.32908 -87.4292,-167.42179zm-17.92696,23.89313c24.49346,22.74435 64.12336,122.4501 93.28226,171.43705c-39.073,-148.12727 -93.28226,-171.43705 -93.28226,-171.43705zm-32.09314,11.08416c0,0 -9.90689,16.91019 8.1717,44.90219c18.0785,27.993 51.8975,50.72821 75.8077,102.04791c-27.9925,-78.14592 -51.32155,-120.12342 -83.9794,-146.9501zm140.0507,211.8151c0.2628,7.25918 -0.1404,14.63164 -1.329,21.82902c0.9297,7.12219 1.845,15.37044 2.5449,24.40218c11.7958,-13.46911 15.4876,19.4638 14.3075,43.06421c-1.237,24.74222 -2.0526,82.46585 8.2566,114.63065c10.3093,32.16481 13.6215,21.04436 32.1781,22.28144c18.5565,1.23709 34.6379,19.80203 39.5863,42.89455c2.9634,13.82961 7.8107,28.7213 11.2537,38.54015c0.912,0.48345 1.8165,0.96347 2.7429,1.44212c-14.8453,-47.83519 -6.5862,-113.82074 -75.8643,-92.37753c-22.3172,-55.13654 -11.2154,-115.47432 -13.2332,-164.42463c-6.7088,-17.48403 -13.5385,-34.93919 -20.4435,-52.28216zm-27.9367,15.80629c1.2199,27.72843 2.9812,94.14585 -6.0227,130.8044c-11.5464,47.01045 -54.4236,141.86857 8.2566,194.65156c62.68,52.78344 15.674,63.49273 23.9213,95.65754c2.7236,10.62171 5.4343,20.5819 7.8608,29.3221c2.0318,2.56863 4.0641,5.1683 6.1641,7.80416c-19.7937,-67.62853 23.0741,-92.38613 -6.6165,-120.42717c-47.0139,-44.402 -71.8574,-30.24286 -51.1229,-122.06727c19.5508,-86.58174 33.1953,-114.05319 32.9132,-179.49565c-0.2428,0.37451 -0.4844,0.73282 -0.7352,1.1028c-4.8745,-12.45263 -9.6857,-24.9268 -14.6187,-37.35247z"/>
                <path fill="#e3dbdb" id="path4747"
                      d="m556.386131,362.789472c0,32.204943 -26.107227,58.31217 -58.31217,58.31217c-32.204943,0 -58.312273,-26.107227 -58.312273,-58.31217c0,-32.204943 26.10733,-58.312273 58.312273,-58.312273c32.204943,0 58.31217,26.10733 58.31217,58.312273z"/>
                <path fill="#ffffff"
                      d="m533.968949,354.514452c0,24.394296 -19.775455,44.169751 -44.169751,44.169751c-24.394296,0 -44.169829,-19.775455 -44.169829,-44.169751c0,-24.394296 19.775533,-44.169829 44.169829,-44.169829c24.394296,0 44.169751,19.775533 44.169751,44.169829z"
                      id="path4749"/>
                <path fill="#000000"
                      d="m517.807596,367.479266c0,7.948444 -6.443513,14.391956 -14.391956,14.391956c-7.948444,0 -14.391956,-6.443513 -14.391956,-14.391956c0,-7.948444 6.443513,-14.391956 14.391956,-14.391956c7.948444,0 14.391956,6.443513 14.391956,14.391956z"
                      id="path4753"/>
                <path fill="#ffffff" id="path4755"
                      d="m504.648134,361.689028c0,3.684693 -2.987046,6.671739 -6.671739,6.671739c-3.684693,0 -6.671739,-2.987046 -6.671739,-6.671739c0,-3.684693 2.987046,-6.671739 6.671739,-6.671739c3.684693,0 6.671739,2.987046 6.671739,6.671739z"/>
                <path fill="#e3dbdb"
                      d="m558.314009,341.71787c0,44.482838 36.060413,80.543251 80.543251,80.543251c44.482838,0 80.543394,-36.060413 80.543394,-80.543251c0,-44.482838 -36.060555,-80.543394 -80.543394,-80.543394c-44.482838,0 -80.543251,36.060555 -80.543251,80.543394z"
                      id="path4757"/>
                <path fill="#ffffff" id="path4759"
                      d="m565.805634,330.772138c0,33.157397 27.301462,60.03674 60.979571,60.03674c33.678109,0 60.979679,-26.879342 60.979679,-60.03674c0,-33.157397 -27.30157,-60.036846 -60.979679,-60.036846c-33.678109,0 -60.979571,26.879449 -60.979571,60.036846z"/>
                <path fill="#000000" id="path4763"
                      d="m644.357596,350.109766c0,7.948444 -6.443513,14.391956 -14.391956,14.391956c-7.948444,0 -14.391956,-6.443513 -14.391956,-14.391956c0,-7.948444 6.443513,-14.391956 14.391956,-14.391956c7.948444,0 14.391956,6.443513 14.391956,14.391956z"/>
                <path fill="#ffffff"
                      d="m631.198134,344.319528c0,3.684693 -2.987046,6.671739 -6.671739,6.671739c-3.684693,0 -6.671739,-2.987046 -6.671739,-6.671739c0,-3.684693 2.987046,-6.671739 6.671739,-6.671739c3.684693,0 6.671739,2.987046 6.671739,6.671739z"
                      id="path4765"/>
                <path fill="#c6afe9" id="path4767"
                      d="m631.353744,63.730343c0,0 -64.3354,63.4841 -122.06718,230.0813c16.49469,-4.9484 31.35797,6.6166 31.35797,6.6166c0,0 1.63747,-114.6366 90.70921,-236.6979zm-37.94631,27.2015c0,0 -66.80107,39.5986 -94.01754,101.454c32.16499,-41.2369 94.01754,-101.454 94.01754,-101.454zm-57.03261,333.5712c-10.49711,9.3309 -32.65866,8.1718 -32.65866,8.1718c9.33087,55.9851 42.00474,118.9507 81.6609,162.1059c-30.32528,-45.4879 -46.66959,-135.287 -49.00224,-170.2777zm124.66865,172.8225c0,0 -9.90517,9.89633 -37.9463,14.84494c-28.04105,4.94833 -31.32974,14.02487 -31.32974,14.02487c45.36066,1.64923 69.27604,-28.86981 69.27604,-28.86981zm53.61118,55.25121c0,0 35.4589,40.54959 52.2539,88.70157c11.5107,33.00214 39.3036,103.4617 39.3036,103.4617c-35.0635,-158.2155 -91.5575,-192.16327 -91.5575,-192.16327zm57.7395,4.94833c14.8452,22.26778 23.0916,35.4754 34.6379,91.5574c11.5465,56.08227 20.599,85.76558 23.0732,89.88925c0,0 -4.1233,-38.76047 -9.8965,-79.17262c-5.7732,-40.41225 -21.423,-78.35693 -47.8146,-102.27403zm-135.27212,19.79316c-1.6495,34.63888 42.90306,80.83959 75.89262,115.47893c26.4276,27.74878 30.6204,59.65807 31.2449,71.28359c-1.2262,-57.24054 -10.8014,-57.52167 -48.57801,-98.51336c-38.76273,-42.06166 -49.08006,-65.77427 -58.55951,-88.24916zm107.13752,186.76252c0.032,1.49415 0.064,3.00721 0.085,4.58071c0,0 0.071,-1.69412 -0.085,-4.58071zm-44.44981,-170.24937c7.42268,10.72133 28.04951,38.75133 37.94641,65.96772c9.8967,27.21638 44.5345,102.27402 44.5345,102.27402c-18.1442,-79.17471 -54.4398,-146.79881 -82.48091,-168.24174zm119.57901,376.06997c0,0 4.9505,66.80043 93.1975,118.75894c-41.2369,-37.93807 -72.5791,-53.60466 -93.1975,-118.75894zm-79.9927,76.71258c-17.3195,97.31917 58.5595,172.37011 58.5595,172.37011c-54.4327,-80.82439 -51.9617,-121.23636 -58.5595,-172.37011z"/>
                <path fill="#2d1650" id="path4769"
                      d="m605.202164,641.443723c0,0 53.50658,-10.20558 71.00201,-38.78137c-13.41311,-13.99631 -27.2637,-17.20371 -27.2637,-17.20371c0,0 32.8038,4.3738 42.4263,38.19811c-4.22809,-7.72706 -12.68418,-17.78687 -12.68418,-17.78687c0,0 -26.24305,32.65794 -71.73094,38.48975c-8.16446,-2.91591 -1.74949,-2.91591 -1.74949,-2.91591z"/>
                <path fill="#2d1650" id="path4771"
                      d="m673.434044,682.266213c0,0 22.74389,49.57012 60.06731,97.39075c-18.0785,-33.82436 -51.31969,-91.55894 -60.06731,-97.39075z"/>
                <path fill="#2d1650" id="path4773"
                      d="m740.499454,652.524093c0,0 31.4917,17.49534 55.9851,108.4712c-19.828,-49.57021 -27.4093,-73.48052 -55.9851,-108.4712z"/>
                <path fill="#2d1650" id="path4775"
                      d="m722.420954,682.849383c0,0 36.157,58.31783 57.1515,114.30292c-20.9945,-39.07291 -57.1515,-114.30292 -57.1515,-114.30292z"/>
                <path fill="#000000"
                      d="m679.848915,127.080508c0,0 30.325287,-26.826201 50.15337,24.493495c36.157007,-59.484194 -40.822492,-93.30855 -50.15337,-24.493495z"
                      id="path4779"/>
                <path fill="#000000" id="path4781"
                      d="m445.219346,175.843091c0,0 -42.696395,-16.104599 -62.524478,35.215097c-36.157007,-59.484194 40.822492,-96.607506 62.524478,-35.215097z"/>
            </g>
        </g>
    </g>
</svg>
