<svg width="1230" height="800" xmlns="http://www.w3.org/2000/svg">

    <metadata id="metadata7">image/svg+xml</metadata>
    <g>
        <title>background</title>
        <rect fill="none" id="canvas_background" height="802" width="1232" y="-1" x="-1"/>
    </g>
    <g>
        <title>Layer 1</title>
        <g id="svg_1">
            <path fill="#000000"
                  d="m1082.902882,154.268066l-0.9376,0.4063l-0.875,0.3437c-52.4798,18.7087 -99.404,58.877 -117.0312,112.6875c-1.562,2.0201 -0.6603,8.5016 -4.1875,5.7188c-18.1377,-8.3323 -36.8574,-15.4541 -55.9687,-21.3438c5.0315,-27.883 12.3695,-55.8483 10.8124,-84.2812c-1.873,-6.5701 -8.7797,-10.9107 -15.5,-10.5c-23.3191,2.6181 -43.7338,15.2106 -65.0624,24.0624c-20.2439,11.0748 -35.4104,29.9979 -43.8126,51.375c-13.7122,-0.4753 -27.451,-0.2745 -41.1562,0.625c-14.4238,-34.2391 -48.4487,-58.2812 -88.125,-58.2812c-49.5747,0 -90.3145,37.5694 -95.0312,85.625c-11.7771,-21.1863 -34.4644,-35.5312 -60.5313,-35.5312c-38.1778,0 -69.125,30.7551 -69.125,68.7187c0,23.6867 12.0406,44.5733 30.375,56.9375c-13.4553,5.1371 -27.1173,9.764 -40.875,13.9375c-107.265,32.0583 -223.4439,32.2608 -331.6563,4.1875c-21.7723,19.4118 -24.2047,53.8165 -11.2812,78.8438c19.1406,42.6025 56.7106,73.0068 95.125,97.8124c71.1248,44.4078 156.691,67.7556 240.6562,59.6876c7.5128,-0.8988 12.6502,6.3221 19.4376,8.375c42.8942,20.8212 89.9612,32.4411 137.125,38.625c59.739,7.0765 121.4213,1.4504 178.4062,-17.7813c13.6782,12.8115 30.9164,21.2133 48.4375,27.625c7.9447,1.5866 15.5714,-6.0396 13.5625,-14c0.308,-10.4352 -1.3102,-20.7144 -2.7812,-31c16.6691,9.1803 36.4377,12.3041 55.4374,10.5625c13.3399,-0.1817 28.8717,1.8199 40.0313,-6.9062c5.9049,-6.8219 1.2618,-16.2108 -3.1875,-22.4063c-7.477,-12.6651 -16.3377,-24.3485 -25.0625,-36.125c54.6381,-45.7635 98.2682,-104.4484 132.25,-166.8437c1.7418,-3.7601 5.8865,1.9112 8.75,2.375c22.7651,11.4113 51.1625,17.7482 75.0937,6.2812c4.2493,-1.7148 10.0258,-5.7121 6.875,-10.9375c-9.0394,-29.2993 -27.6015,-57.3986 -56.25,-70.4063c37.1654,-21.9649 56.6329,-67.2131 51.8126,-109.6562c-1.5818,-20.4143 -7.4725,-40.1956 -15.75,-58.8125z"
                  id="path5692"/>
            <path fill="#6dbfbf"
                  d="m898.184082,163.393066c-10.2736,0.4773 -27.8928,8.0593 -56.7188,21.2187c-26.0787,11.9057 -38.7201,34.1512 -44.6562,48.375c34.3247,1.7196 68.419,7.6823 101.4062,17.375c5.1061,-25.4445 14.5391,-76.2968 9.7813,-83.0937c-1.9939,-2.8484 -5.1427,-4.092 -9.8125,-3.875zm180.4062,1.25c-100.5446,39.96 -110.8437,121.1563 -110.8437,121.1563c0,0 -96.2062,-52.0987 -215.6875,-44.6563c2.9238,9.1095 4.5,18.8011 4.5,28.875c0,52.4369 -42.7572,94.9687 -95.5,94.9687c-39.3736,0 -73.1717,-23.7061 -87.7812,-57.5312c-6.3255,31.4774 -34.2658,55.1875 -67.7813,55.1875c-10.6879,0 -20.8096,-2.4112 -29.8437,-6.7187c-83.0924,32.8799 -215.1698,62.5718 -378.875,21.9062c-82.0337,91.1484 219.6707,310.8058 440.25,181.375c-10.4955,27.1961 -97.5313,46.5 -97.5313,46.5c0,0 354.2235,184.1161 570.7813,-223.2188c55.4283,34.8039 85.0937,12.875 85.0937,12.875c0,0 -16.7667,-63.1406 -70.9063,-70.875c61.8736,-23.2026 82.4838,-90.2359 54.125,-159.8437zm-203.0624,401.4375c-15.2659,12.4422 -31.3932,23.8886 -48.375,34.125c-5.066,3.1198 -10.1979,6.0891 -15.4063,8.9375c9.3775,6.2554 22.5491,12.2332 39.1563,12.5313c36.9139,0.6619 52.6174,0.2611 54.4062,-7.7188c1.2059,-5.3793 -17.4064,-31.3597 -29.7812,-47.875zm133.7498,-355.4375c-14.8978,7.8053 -30.3121,14.5618 -46.125,20.2188c2.957,2.8889 6.4571,5.6108 10.5938,7.9687c23.7066,13.5123 34.0431,18.8226 38.0312,14.2813c2.7412,-3.1214 -0.3161,-27.4291 -2.5,-42.4688z"
                  id="path5694"/>
            <path fill="#3d8b8b"
                  d="m909.215282,178.611784c-46.5432,14.9955 -55.56,53.1628 -57.375,60.75c15.6418,2.8363 31.12,6.5177 46.375,11c3.897,-19.4191 10.2945,-53.6113 11,-71.75zm158.4376,18.9063c-55.4285,44.4717 -67.0313,108.9063 -67.0313,108.9063c15.4684,19.3353 14.8125,34.1645 14.8125,58.6562c15.4684,14.1793 32.2314,22.5667 74.125,29.6562c-19.3355,-50.9166 -56.0703,-61.2461 -65.0938,-64.4687c-9.0232,-3.2225 -10.3045,-6.4334 -6.4374,-9.6563c48.3386,-18.0462 63.1595,-77.9775 49.625,-123.0937zm-311.1563,69.0937c0.04,1.1351 0.062,2.2614 0.062,3.4063c0,52.4369 -42.7572,94.9687 -95.5,94.9687c-37.5907,0 -70.0759,-21.608 -85.6562,-53c-1.1717,0.3821 -2.3667,0.7751 -3.5313,1.1563c-8.3641,28.6048 -34.9089,49.5 -66.375,49.5c-10.7026,0 -20.8314,-2.4313 -29.875,-6.75c-3.9366,1.5578 -7.9695,3.1195 -12.125,4.6563c5.9665,6.0349 19.1019,13.193 47.9375,13.5624c50.2723,0.6445 60.5938,-24.5 60.5938,-24.5c0,0 16.1071,38.0274 88.9374,36.0938c72.8307,-1.9335 100.539,53.5004 94.0938,74.125c-6.4452,20.6245 -37.3845,95.3832 -118.5938,114.7188c-81.2091,19.3353 28.3463,73.4752 141.7813,15.4687c113.435,-58.0065 194.6722,-162.4071 207.5625,-198.5c12.5942,-35.2639 -11.7858,-120.986 -229.3125,-124.9063l0.0005,0zm116.25,301.7188c-14.4388,11.5741 -29.6409,22.2589 -45.5937,31.875c-0.1234,0.076 -0.252,0.1427 -0.375,0.2188c13.2197,8.9854 41.0988,23.8557 71.6562,15.3124c4.299,-3.3069 -14.8183,-31.8824 -25.6875,-47.4062z"
                  id="path5696"/>
            <path fill="#e1ffff"
                  d="m569.929854,295.459786c0,35.592259 -28.853184,64.445443 -64.445443,64.445443c-35.592259,0 -64.445557,-28.853184 -64.445557,-64.445443c0,-35.592259 28.853298,-64.445557 64.445557,-64.445557c35.592259,0 64.445443,28.853298 64.445443,64.445557z"
                  id="path5698"/>
            <path fill="#ffffff" id="path5700"
                  d="m545.154741,286.314362c0,26.960087 -21.855437,48.815523 -48.815523,48.815523c-26.960087,0 -48.81561,-21.855437 -48.81561,-48.815523c0,-26.960087 21.855523,-48.81561 48.81561,-48.81561c26.960087,0 48.815523,21.855523 48.815523,48.81561z"/>
            <path fill="#000000" id="path5704"
                  d="m527.293624,300.642645c0,8.784461 -7.121241,15.905702 -15.905702,15.905702c-8.784461,0 -15.905702,-7.121241 -15.905702,-15.905702c0,-8.784461 7.121241,-15.905702 15.905702,-15.905702c8.784461,0 15.905702,7.121241 15.905702,15.905702z"/>
            <path fill="#ffffff"
                  d="m512.75005,294.24339c0,4.072249 -3.301223,7.373472 -7.373472,7.373472c-4.072249,0 -7.373472,-3.301223 -7.373472,-7.373472c0,-4.072249 3.301223,-7.373472 7.373472,-7.373472c4.072249,0 7.373472,3.301223 7.373472,7.373472z"
                  id="path5706"/>
            <path fill="#e1ffff" id="path5708"
                  d="m572.06,272.171939c0,49.161542 39.853246,89.014788 89.014788,89.014788c49.161542,0 89.014946,-39.853246 89.014946,-89.014788c0,-49.161542 -39.853404,-89.014946 -89.014946,-89.014946c-49.161542,0 -89.014788,39.853404 -89.014788,89.014946z"/>
            <path fill="#ffffff"
                  d="m580.340176,260.074759c0,36.644891 30.173028,66.3514 67.393399,66.3514c37.220371,0 67.393518,-29.70651 67.393518,-66.3514c0,-36.644891 -30.173147,-66.351518 -67.393518,-66.351518c-37.220371,0 -67.393399,29.706627 -67.393399,66.351518z"
                  id="path5710"/>
            <path fill="#000000"
                  d="m667.154124,281.446245c0,8.784461 -7.121241,15.905702 -15.905702,15.905702c-8.784461,0 -15.905702,-7.121241 -15.905702,-15.905702c0,-8.784461 7.121241,-15.905702 15.905702,-15.905702c8.784461,0 15.905702,7.121241 15.905702,15.905702z"
                  id="path5714"/>
            <path fill="#ffffff" id="path5716"
                  d="m652.61055,275.04699c0,4.072249 -3.301223,7.373472 -7.373472,7.373472c-4.072249,0 -7.373472,-3.301223 -7.373472,-7.373472c0,-4.072249 3.301223,-7.373472 7.373472,-7.373472c4.072249,0 7.373472,3.301223 7.373472,7.373472z"/>
            <path fill="#ff6600"
                  d="m774.902882,240.424384c48.3484,54.1328 121.7953,160.9861 113.5937,304.0312c13.0897,-11.8814 26.0225,-25.0477 38.75,-39.5625c-9.7247,-56.0929 -39.5669,-174.2112 -126.0625,-263.625c-8.5744,-0.5529 -17.3422,-0.8597 -26.2812,-0.8437z"
                  id="path5718"/>
            <path fill="#ff6600"
                  d="m844.809082,246.361784c43.9769,40.8377 100.5927,108.3794 126.125,201.6876c7.4286,-10.9593 14.7505,-22.4792 21.9375,-34.5938c-21.7438,-48.8457 -56.2656,-108.5669 -108.8437,-158.6562c-12.1122,-3.1598 -25.2394,-6.0743 -39.2188,-8.4376z"
                  id="path5720"/>
            <path fill="#e1ffff"
                  d="m895.777882,170.174384c-8.1879,0.3385 -31.1386,11.5294 -52.75,20.875c-23.8471,10.3121 -39.3126,38.6874 -39.3126,38.6874c7.7343,-2.5781 26.75,2.25 26.75,2.25c0,0 6.1296,-23.8305 33.8438,-42.8437c7.1404,-4.8986 38.9784,-16.463 33.5,-18.7187c-0.5136,-0.2115 -1.1842,-0.2851 -2.0312,-0.25zm176.75,5.3124c-27.8003,10.0263 -80.6584,41.4745 -99.3438,113.9376c0,0 15.0206,6.8201 22.3125,13.6562c1.8229,-32.8134 28.2668,-87.0328 77.0313,-127.5938z"
                  id="path5722"/>
            <path fill="#aa4400"
                  d="m798.121582,268.486784c41.3595,53.859 88.0972,137.7232 90.875,244c12.0701,-10.9204 23.1974,-21.905 33.3125,-32.6562c-11.8754,-53.8022 -38.1284,-136.549 -94.8125,-208.4375c-9.2751,-1.1712 -19.0734,-2.1337 -29.375,-2.9063zm80.3125,12.3438c32.5526,36.8058 66.0572,86.0073 86.4688,147.3438c9.2264,-13.132 15.8469,-24.4859 19.4687,-32.9688c-15.4147,-31.653 -35.9798,-66.5033 -62.9063,-99.7188c-12.2192,-5.4843 -26.4644,-10.4442 -43.0312,-14.6562z"
                  id="path5724"/>
            <path fill="#e1ffff"
                  d="m115.009882,397.887584c0,0 -13.6723,2.7345 -13.6723,21.8757c0,19.1411 42.6179,66.5507 177.5452,66.6947c33.4694,0.036 42.8914,-22.3962 37.2851,-31.1785c-9.1077,-14.2671 -45.9014,-18.6158 -73.5501,-19.1095c-51.0432,-0.9115 -115.7586,-43.7513 -127.6079,-38.2824z"
                  id="path5726"/>
            <path fill="#000000" stroke-width="1px"
                  d="m389.557879,216.93001c0,0 -1.7317,-46.7546 41.5596,-41.55964c-32.9014,-41.55965 -90.0459,6.9266 -41.5596,41.55964z"
                  id="path3182"/>
            <path fill="#000000" stroke-width="1px"
                  d="m680.475379,102.64099c0,0 48.4862,-8.65826 60.6078,41.55965c24.2431,-41.55965 -34.6331,-116.02067 -60.6078,-41.55965z"
                  id="path3184"/>
        </g>
    </g>
</svg>