<?xml version="1.0" ?><!DOCTYPE svg  PUBLIC '-//W3C//DTD SVG 1.1//EN'  'http://www.w3.org/Graphics/SVG/1.1/DTD/svg11.dtd'><svg id="Layer_1" style="enable-background:new 0 0 512 512;" version="1.1" viewBox="0 0 512 512" xml:space="preserve" xmlns="http://www.w3.org/2000/svg" xmlns:xlink="http://www.w3.org/1999/xlink"><style type="text/css">
	.st0{fill:#603913;}
</style><path class="st0" d="M391.3,205.5c-11.7,0-22.9,2.2-33.2,6.2l-10.5-20.3l18.7-37.4c0,0,0-0.1,0.1-0.1c0.1-0.2,0.2-0.4,0.3-0.6  c0-0.1,0.1-0.2,0.1-0.3c0.1-0.2,0.1-0.3,0.2-0.5c0-0.1,0.1-0.3,0.1-0.4c0,0,0,0,0-0.1c0-0.1,0-0.2,0-0.2c0.1-0.2,0.1-0.5,0.1-0.7  c0-0.1,0-0.2,0-0.3c0-0.2,0-0.4,0.1-0.6c0-0.2,0-0.3,0-0.5c0-0.2,0-0.3,0-0.5c0-0.2,0-0.4,0-0.5c0-0.1,0-0.3,0-0.4  c0-0.2-0.1-0.4-0.1-0.6c0-0.1,0-0.3-0.1-0.4c0-0.2-0.1-0.4-0.1-0.5c0-0.1-0.1-0.3-0.1-0.4c-0.1-0.2-0.1-0.3-0.2-0.5  c-0.1-0.1-0.1-0.3-0.2-0.4c-0.1-0.1-0.1-0.3-0.2-0.4c-0.1-0.2-0.2-0.3-0.2-0.5c-0.1-0.1-0.1-0.2-0.2-0.4c-0.1-0.2-0.2-0.3-0.3-0.5  c-0.1-0.1-0.2-0.2-0.2-0.3c-0.1-0.1-0.2-0.3-0.4-0.4c-0.1-0.1-0.2-0.2-0.3-0.3c-0.1-0.1-0.2-0.3-0.4-0.4c-0.1-0.1-0.3-0.2-0.4-0.3  c-0.1-0.1-0.2-0.2-0.3-0.3c-0.2-0.1-0.3-0.2-0.5-0.4c-0.1-0.1-0.2-0.1-0.3-0.2c-0.2-0.1-0.4-0.2-0.6-0.4c-0.1,0-0.1-0.1-0.2-0.1  c0,0,0,0,0,0c-0.2-0.1-0.4-0.2-0.6-0.3c-0.1-0.1-0.2-0.1-0.4-0.2c-0.1-0.1-0.3-0.1-0.4-0.1c-0.2-0.1-0.4-0.1-0.6-0.2c0,0,0,0-0.1,0  l-68-17c-5.4-1.3-10.8,1.9-12.1,7.3c-1.3,5.4,1.9,10.8,7.3,12.1l55.9,14l-12.7,25.3H167.5l-4.3-9h25.1c5.5,0,10-4.5,10-10  s-4.5-10-10-10h-81c-5.5,0-10,4.5-10,10s4.5,10,10,10H141l7.2,14.9c-0.1,0.2-0.2,0.5-0.3,0.8l-7,19.6c-6.5-1.4-13.2-2.2-20.1-2.2  c-50.7,0-92,41.3-92,92s41.3,92,92,92s92-41.3,92-92c0-36.8-21.7-68.6-53-83.3l4.5-12.7h165.9l10.1,19.5c-24.7,16.5-41,44.7-41,76.5  c0,50.7,41.3,92,92,92s92-41.3,92-92S442,205.5,391.3,205.5z M192.8,297.5c0,39.7-32.3,72-72,72s-72-32.3-72-72s32.3-72,72-72  c4.5,0,8.9,0.4,13.2,1.2l-15,41.8c-15.9,0.1-28.8,13.1-28.8,29c0,16,13,29,29,29s29-13,29-29c0-8.9-4.1-16.9-10.4-22.2l15.1-42.1  C176.5,245,192.8,269.4,192.8,297.5z M391.3,369.5c-39.7,0-72-32.3-72-72c0-24.2,12-45.6,30.3-58.6l20.3,39.1  c-4.7,5.2-7.6,12-7.6,19.5c0,16,13,29,29,29s29-13,29-29s-13-29-29-29c-1.2,0-2.5,0.1-3.7,0.2l-20.3-39.1c7.5-2.7,15.6-4.1,24-4.1  c39.7,0,72,32.3,72,72S431,369.5,391.3,369.5z"/></svg>