<svg width="220" height="100" xmlns="http://www.w3.org/2000/svg">
 <title/>

 <g>
  <title>background</title>
  <rect fill="none" id="canvas_background" height="102" width="222" y="-1" x="-1"/>
 </g>
 <g>
  <title>Layer 1</title>
  <g stroke="null" transform="rotate(38.819007873535156 199.72967529296872,54.06188583374023) " id="svg_145">
   <path stroke="null" stroke-width="0" id="svg_142" d="m201.108135,53.061891l-2.756186,0a1.378093,1 0 0 0 0,2l2.756186,0a1.378093,1 0 0 0 0,-2z"/>
   <path stroke="null" stroke-width="0" id="svg_143" d="m212.132898,53.061891l-2.756196,0a1.378093,1 0 0 0 0,2l2.756196,0a1.378093,1 0 0 0 0,-2z"/>
   <path stroke="null" stroke-width="0" id="svg_144" d="m190.083371,53.061891l-2.756186,0a1.378093,1 0 0 0 0,2l2.756186,0a1.378093,1 0 0 0 0,-2z"/>
  </g>
  <text font-weight="bold" stroke="null" transform="rotate(-37.05443572998047 118.97430419921882,79.54589843749999) matrix(0.372499018907547,0,0,0.49296480417251587,74.36867096228525,48.14457632880658) " xml:space="preserve" text-anchor="start" font-family="Helvetica, Arial, sans-serif" font-size="24" id="svg_19" y="72.04195" x="92.401984" fill-opacity="null" stroke-opacity="null" stroke-width="0" fill="#000000">6 cm</text>
  <text font-weight="bold" stroke="null" transform="rotate(-1.3731361627578735 119.2186203002927,41.36243057250966) matrix(0.372499018907547,0,0,0.49296480417251587,74.36867096228525,48.14457632880658) " xml:space="preserve" text-anchor="start" font-family="Helvetica, Arial, sans-serif" font-size="24" id="svg_20" y="-5.409535" x="93.054845" fill-opacity="null" stroke-opacity="null" stroke-width="0" fill="#000000">6 cm</text>
  <text font-weight="bold" stroke="null" transform="rotate(-1.3731361627578735 49.96290206909107,92.91576385498048) matrix(0.372499018907547,0,0,0.49296480417251587,74.36867096228525,48.14457632880658) " xml:space="preserve" text-anchor="start" font-family="Helvetica, Arial, sans-serif" font-size="24" id="svg_22" y="99.174625" x="-99.539188" fill-opacity="null" stroke-opacity="null" stroke-width="0" fill="#000000">10 cm</text>
  <path id="svg_28" d="m94.487058,149.12833l4.33251,-1.455847a2.429807,2.429807 0 0 0 1.476988,-3.015719a2.251696,2.251696 0 0 0 -2.855522,-1.559849l-4.33251,1.45587a2.429807,2.429807 0 0 0 -1.476988,3.015696a2.251696,2.251696 0 0 0 2.855522,1.559849zm-17.33004,5.823434l4.33251,-1.455847a2.429829,2.429829 0 0 0 1.476988,-3.015719a2.251696,2.251696 0 0 0 -2.855522,-1.559849l-4.33251,1.455847a2.429852,2.429852 0 0 0 -1.476988,3.015719a2.251719,2.251719 0 0 0 2.855522,1.559849zm-17.33004,5.823434l4.33251,-1.45587a2.429784,2.429784 0 0 0 1.476988,-3.015696a2.251696,2.251696 0 0 0 -2.855522,-1.559849l-4.33251,1.45587a2.429784,2.429784 0 0 0 -1.476988,3.015696a2.251696,2.251696 0 0 0 2.855522,1.559849zm-17.330086,5.823456l4.332533,-1.45587a2.429829,2.429829 0 0 0 1.476988,-3.015719a2.251696,2.251696 0 0 0 -2.855522,-1.559826l-4.33251,1.455847a2.429829,2.429829 0 0 0 -1.477011,3.015719a2.251719,2.251719 0 0 0 2.855522,1.559849zm0.000068,-0.000023l4.33251,-1.45587a2.429784,2.429784 0 0 0 1.476988,-3.015696a2.251696,2.251696 0 0 0 -2.855522,-1.559849l-4.33251,1.45587a2.429784,2.429784 0 0 0 -1.476988,3.015696a2.251696,2.251696 0 0 0 -14.474564,7.383306l17.330086,-5.823456z"/>
  <path id="svg_29" d="m130.327329,144.552785l-4.33251,-1.45587a2.251696,2.251696 0 0 0 -2.855522,1.559849a2.429829,2.429829 0 0 0 1.476988,3.015719l4.33251,1.455847a2.251696,2.251696 0 0 0 2.855522,-1.559895a2.429784,2.429784 0 0 0 -1.476988,-3.015651zm17.33004,5.823411l-4.33251,-1.455847a2.251719,2.251719 0 0 0 -2.855522,1.559849a2.429829,2.429829 0 0 0 1.476988,3.015719l4.33251,1.455847a2.251696,2.251696 0 0 0 2.855522,-1.559849a2.429807,2.429807 0 0 0 -1.476988,-3.015719zm17.33004,5.823456l-4.33251,-1.45587a2.251696,2.251696 0 0 0 -2.855522,1.559849a2.429807,2.429807 0 0 0 1.476988,3.015696l4.33251,1.45587a2.251696,2.251696 0 0 0 2.855522,-1.559849a2.429807,2.429807 0 0 0 -1.476943,-3.015696l-0.000045,0zm17.33004,5.823434l-4.332487,-1.455847a2.251673,2.251673 0 0 0 -2.855522,1.559826a2.429829,2.429829 0 0 0 1.476988,3.015719l4.332556,1.45587a2.251696,2.251696 0 0 0 2.855522,-1.559849a2.429829,2.429829 0 0 0 -1.477057,-3.015719zm17.330063,5.823456l-4.33251,-1.45587a2.251696,2.251696 0 0 0 -2.855522,1.559849a2.429807,2.429807 0 0 0 1.476988,3.015696l4.33251,1.45587a2.251696,2.251696 0 0 0 2.855522,-1.559849a2.429807,2.429807 0 0 0 -1.476988,-3.015696z"/>
  <g id="svg_30"/>
  <path id="svg_36" d="m94.487058,149.12833l4.33251,-1.455847a2.429807,2.429807 0 0 0 1.476988,-3.015719a2.251696,2.251696 0 0 0 -2.855522,-1.559849l-4.33251,1.45587a2.429807,2.429807 0 0 0 -1.476988,3.015696a2.251696,2.251696 0 0 0 2.855522,1.559849zm-17.33004,5.823434l4.33251,-1.455847a2.429829,2.429829 0 0 0 1.476988,-3.015719a2.251696,2.251696 0 0 0 -2.855522,-1.559849l-4.33251,1.455847a2.429852,2.429852 0 0 0 -1.476988,3.015719a2.251719,2.251719 0 0 0 2.855522,1.559849zm-17.33004,5.823434l4.33251,-1.45587a2.429784,2.429784 0 0 0 1.476988,-3.015696a2.251696,2.251696 0 0 0 -2.855522,-1.559849l-4.33251,1.45587a2.429784,2.429784 0 0 0 -1.476988,3.015696a2.251696,2.251696 0 0 0 2.855522,1.559849zm-17.330086,5.823456l4.332533,-1.45587a2.429829,2.429829 0 0 0 1.476988,-3.015719a2.251696,2.251696 0 0 0 -2.855522,-1.559826l-4.33251,1.455847a2.429829,2.429829 0 0 0 -1.477011,3.015719a2.251719,2.251719 0 0 0 2.855522,1.559849zm0.000068,-0.000023l4.33251,-1.45587a2.429784,2.429784 0 0 0 1.476988,-3.015696a2.251696,2.251696 0 0 0 -2.855522,-1.559849l-4.33251,1.45587a2.429784,2.429784 0 0 0 -1.476988,3.015696a2.251696,2.251696 0 0 0 -14.474564,7.383306l17.330086,-5.823456z"/>
  <path id="svg_37" d="m130.327329,144.552785l-4.33251,-1.45587a2.251696,2.251696 0 0 0 -2.855522,1.559849a2.429829,2.429829 0 0 0 1.476988,3.015719l4.33251,1.455847a2.251696,2.251696 0 0 0 2.855522,-1.559895a2.429784,2.429784 0 0 0 -1.476988,-3.015651zm17.33004,5.823411l-4.33251,-1.455847a2.251719,2.251719 0 0 0 -2.855522,1.559849a2.429829,2.429829 0 0 0 1.476988,3.015719l4.33251,1.455847a2.251696,2.251696 0 0 0 2.855522,-1.559849a2.429807,2.429807 0 0 0 -1.476988,-3.015719zm17.33004,5.823456l-4.33251,-1.45587a2.251696,2.251696 0 0 0 -2.855522,1.559849a2.429807,2.429807 0 0 0 1.476988,3.015696l4.33251,1.45587a2.251696,2.251696 0 0 0 2.855522,-1.559849a2.429807,2.429807 0 0 0 -1.476943,-3.015696l-0.000045,0zm17.33004,5.823434l-4.332487,-1.455847a2.251673,2.251673 0 0 0 -2.855522,1.559826a2.429829,2.429829 0 0 0 1.476988,3.015719l4.332556,1.45587a2.251696,2.251696 0 0 0 2.855522,-1.559849a2.429829,2.429829 0 0 0 -1.477057,-3.015719zm17.330063,5.823456l-4.33251,-1.45587a2.251696,2.251696 0 0 0 -2.855522,1.559849a2.429807,2.429807 0 0 0 1.476988,3.015696l4.33251,1.45587a2.251696,2.251696 0 0 0 2.855522,-1.559849a2.429807,2.429807 0 0 0 -1.476988,-3.015696z"/>
  <g id="svg_38"/>
  <metadata transform="matrix(0.031834129684776835,0,0,0.031834129684776835,0,0) " id="svg_71">image/svg+xml</metadata>

  <g id="svg_73"/>
  <metadata transform="matrix(0.031834129684776835,0,0,0.031834129684776835,0,0) " id="svg_106">image/svg+xml</metadata>

  <g id="svg_108"/>
  <path stroke="null" id="svg_114" d="m214.272608,60.734072l-29.185864,-42.641962c-0.009463,-0.013978 -0.019975,-0.026211 -0.029957,-0.039553c-0.007008,-0.009227 -0.013757,-0.018592 -0.020888,-0.027495c-0.031005,-0.038942 -0.06343,-0.075178 -0.097544,-0.107748c-0.003109,-0.00288 -0.006354,-0.005412 -0.009476,-0.008267c-0.033979,-0.031622 -0.069389,-0.059603 -0.105848,-0.085178c-0.006354,-0.004464 -0.012449,-0.009065 -0.018927,-0.013355c-0.039963,-0.026547 -0.081073,-0.049429 -0.123232,-0.068656c-0.002468,-0.001122 -0.00454,-0.002855 -0.007008,-0.003978c-0.004405,-0.001908 -0.008822,-0.002706 -0.013226,-0.004439c-0.040222,-0.017008 -0.081073,-0.031323 -0.122455,-0.041797c-0.004676,-0.001122 -0.009216,-0.002868 -0.01388,-0.003978c-0.042541,-0.010025 -0.085613,-0.015587 -0.128809,-0.018442c-0.010241,-0.000636 -0.020493,-0.001272 -0.03087,-0.001584c-0.043195,-0.001272 -0.086526,0 -0.129586,0.005723c-0.002727,0.000324 -0.005318,0.00111 -0.008044,0.001596c-0.041764,0.006023 -0.083146,0.016048 -0.124268,0.028754c-0.007514,0.002382 -0.01504,0.004452 -0.022566,0.006995c-0.042418,0.014464 -0.084182,0.031934 -0.125046,0.053718c-0.004664,0.002544 -0.009081,0.005399 -0.013621,0.007931c-0.035805,0.019876 -0.070697,0.04277 -0.104811,0.068195c-0.008168,0.006035 -0.016336,0.011759 -0.024257,0.018105c-0.032942,0.026223 -0.065243,0.054366 -0.096113,0.085989c-0.002862,0.002855 -0.005318,0.006197 -0.008044,0.009215c-0.00649,0.006833 -0.012585,0.014464 -0.018939,0.021622c-0.029315,0.03257 -0.056681,0.066736 -0.082109,0.102498c-0.003504,0.005075 -0.007785,0.009053 -0.011289,0.014128l-29.185864,42.641962c-0.180554,0.263814 -0.25916,0.610425 -0.215705,0.950526c0.043454,0.340077 0.204947,0.640451 0.442712,0.824012l29.185864,22.516555c0.007267,0.005549 0.01504,0.009377 0.022443,0.014614c0.024121,0.017482 0.048636,0.03353 0.073806,0.048319c0.01504,0.008903 0.030092,0.017794 0.045404,0.025737c0.024775,0.012719 0.050068,0.023517 0.07562,0.033692c0.015953,0.006347 0.031647,0.013355 0.047736,0.018592c0.027625,0.009065 0.055644,0.015574 0.083787,0.021771c0.014016,0.00303 0.027761,0.00732 0.0419,0.009701c0.042554,0.006983 0.085613,0.010961 0.128685,0.010961c0.009858,0 0.01958,-0.00207 0.029438,-0.002531c0.031918,-0.001272 0.063825,-0.00303 0.095471,-0.008105c0.018556,-0.00303 0.036706,-0.008591 0.055126,-0.012881c0.023615,-0.005561 0.047353,-0.010487 0.070697,-0.01828c0.01868,-0.006048 0.036841,-0.014464 0.055262,-0.021934c0.023084,-0.009364 0.046181,-0.018904 0.068747,-0.0305c0.017249,-0.008903 0.034115,-0.01924 0.051104,-0.029565c0.014398,-0.008591 0.029192,-0.015425 0.043331,-0.024964c0.008686,-0.005873 0.016336,-0.013342 0.024898,-0.019539c0.007662,-0.005561 0.01583,-0.009539 0.023479,-0.01525l29.185864,-22.516555c0.237766,-0.183399 0.39927,-0.483923 0.442725,-0.824025c0.043319,-0.339927 -0.035287,-0.686538 -0.215853,-0.950352zm-28.958475,21.123267l0,-8.965488c0,-0.658432 -0.435581,-1.19192 -0.972852,-1.19192s-0.972864,0.533489 -0.972864,1.19192l0,8.965488l-26.751119,-20.638084l26.751119,-39.084917l0,45.989808c0,0.658432 0.435581,1.191933 0.972864,1.191933s0.972852,-0.533501 0.972852,-1.191933l0,-45.989658l26.751119,39.084768l-26.751119,20.638084z"/>
  <g transform="matrix(0.10513443728627525,0,0,0.10513443728627525,0,0) " id="svg_117"/>
  <g transform="matrix(0.10513443728627525,0,0,0.10513443728627525,0,0) " id="svg_118"/>
  <g transform="matrix(0.10513443728627525,0,0,0.10513443728627525,0,0) " id="svg_119"/>
  <g transform="matrix(0.10513443728627525,0,0,0.10513443728627525,0,0) " id="svg_120"/>
  <g transform="matrix(0.10513443728627525,0,0,0.10513443728627525,0,0) " id="svg_121"/>
  <g transform="matrix(0.10513443728627525,0,0,0.10513443728627525,0,0) " id="svg_122"/>
  <g transform="matrix(0.10513443728627525,0,0,0.10513443728627525,0,0) " id="svg_123"/>
  <g transform="matrix(0.10513443728627525,0,0,0.10513443728627525,0,0) " id="svg_124"/>
  <g transform="matrix(0.10513443728627525,0,0,0.10513443728627525,0,0) " id="svg_125"/>
  <g transform="matrix(0.10513443728627525,0,0,0.10513443728627525,0,0) " id="svg_126"/>
  <g transform="matrix(0.10513443728627525,0,0,0.10513443728627525,0,0) " id="svg_127"/>
  <g transform="matrix(0.10513443728627525,0,0,0.10513443728627525,0,0) " id="svg_128"/>
  <g transform="matrix(0.10513443728627525,0,0,0.10513443728627525,0,0) " id="svg_129"/>
  <g transform="matrix(0.10513443728627525,0,0,0.10513443728627525,0,0) " id="svg_130"/>
  <g transform="matrix(0.10513443728627525,0,0,0.10513443728627525,0,0) " id="svg_131"/>
  <g id="svg_132"/>
  <g stroke="null" transform="rotate(-36.66307830810547 170.22595214843753,53.257953643798864) " id="svg_141">
   <path stroke="null" stroke-width="0" id="svg_138" d="m171.783223,52.452079l-3.113809,0a1.556905,0.805881 0 0 0 0,1.611762l3.113809,0a1.556905,0.805881 0 0 0 0,-1.611762z"/>
   <path stroke="null" stroke-width="0" id="svg_139" d="m184.238483,52.452079l-3.11382,0a1.556905,0.805881 0 0 0 0,1.611762l3.11382,0a1.556905,0.805881 0 0 0 0,-1.611762z"/>
   <path stroke="null" stroke-width="0" id="svg_140" d="m159.327964,52.452079l-3.113809,0a1.556905,0.805881 0 0 0 0,1.611762l3.113809,0a1.556905,0.805881 0 0 0 0,-1.611762z"/>
  </g>
  <path stroke="null" transform="rotate(-90 184.3401031494141,70.0411834716797) " stroke-width="0" id="svg_146" d="m185.897361,69.001336l-3.11381,0a1.5569,1.039837 0 0 0 0,2.079673l3.11381,0a1.5569,1.039837 0 0 0 0,-2.079673z"/>
  <text font-weight="bold" stroke="null" transform="rotate(-40.09430694580078 203.36085510253903,76.62451171875) matrix(0.372499018907547,0,0,0.49296480417251587,74.36867096228525,48.14457632880658) " xml:space="preserve" text-anchor="start" font-family="Helvetica, Arial, sans-serif" font-size="24" id="svg_150" y="66.122088" x="318.944821" fill-opacity="null" stroke-opacity="null" stroke-width="0" fill="#000000">3 cm</text>
  <text font-weight="bold" stroke="null" transform="rotate(37.504852294921875 165.18019104003906,76.62517547607422) matrix(0.372499018907547,0,0,0.49296480417251587,74.36867096228525,48.14457632880658) " xml:space="preserve" text-anchor="start" font-family="Helvetica, Arial, sans-serif" font-size="24" id="svg_151" y="66.122089" x="216.445606" fill-opacity="null" stroke-opacity="null" stroke-width="0" fill="#000000">5 cm</text>
  <g stroke="null" id="svg_152">
   <path stroke="null" stroke-width="0" id="svg_1" d="m132.341597,14.023727a1.441768,0.829381 0 0 0 -1.328057,-0.512069l-92.015505,0a1.447088,0.832441 0 0 0 -1.016699,0.242256l-34.505814,19.849554a1.45212,0.835335 0 0 0 -0.421043,0.585066l0,52.931888a1.437742,0.827065 0 0 0 1.437742,0.827065l92.015505,0l0.015096,-0.00177a1.432279,0.823922 0 0 0 1.001517,-0.240486l34.505814,-19.849554a1.45823,0.83885 0 0 0 0.421129,-0.584809l0,-52.932144a1.438734,0.827635 0 0 0 -0.109685,-0.314996zm-94.681266,2.254132a1.430697,0.823012 0 0 0 2.775446,-0.285007l0,-0.827065l87.106694,0l-31.63033,18.195425l-87.948952,0l29.697142,-17.083353zm-29.861231,70.015497a1.43665,0.826436 0 0 0 -1.869137,-1.075275l0,-50.20274l31.63033,0l0,0.827065a1.437742,0.827065 0 0 0 2.875485,0l0,-0.827065l54.634206,0l0,31.428461l-1.437742,0a1.437742,0.827065 0 0 0 0,1.65413l1.437742,0l0,18.195425l-87.270884,0zm90.146368,-51.762526l31.630244,-18.195367l0.000086,50.108338l-1.437742,0a1.430726,0.823029 0 0 0 -0.495547,1.596582l-29.697041,17.083295l0,-50.592849z"/>
   <path stroke="null" stroke-width="0" id="svg_2" d="m38.998035,59.827284a1.437742,0.827065 0 0 0 -1.437742,0.827065l0,1.65413a1.437742,0.827065 0 0 0 2.875485,0l0,-1.65413a1.437742,0.827065 0 0 0 -1.437742,-0.827065z"/>
   <path stroke="null" stroke-width="0" id="svg_3" d="m38.998035,53.210766a1.437742,0.827065 0 0 0 -1.437742,0.827065l0,1.65413a1.437742,0.827065 0 0 0 2.875485,0l0,-1.65413a1.437742,0.827065 0 0 0 -1.437742,-0.827065z"/>
   <path stroke="null" stroke-width="0" id="svg_4" d="m38.998035,23.436435a1.437742,0.827065 0 0 0 1.437742,-0.827065l0,-1.65413a1.437742,0.827065 0 0 0 -2.875485,0l0,1.65413a1.437742,0.827065 0 0 0 1.437742,0.827065z"/>
   <path stroke="null" stroke-width="0" id="svg_5" d="m38.998035,46.594248a1.437742,0.827065 0 0 0 -1.437742,0.827065l0,1.65413a1.437742,0.827065 0 0 0 2.875485,0l0,-1.65413a1.437742,0.827065 0 0 0 -1.437742,-0.827065z"/>
   <path stroke="null" stroke-width="0" id="svg_6" d="m40.435778,29.225888l0,-1.65413a1.437742,0.827065 0 0 0 -2.875485,0l0,1.65413a1.437742,0.827065 0 0 0 2.875485,0z"/>
   <path stroke="null" stroke-width="0" id="svg_7" d="m38.998035,39.97773a1.437742,0.827065 0 0 0 -1.437742,0.827065l0,1.65413a1.437742,0.827065 0 0 0 2.875485,0l0,-1.65413a1.437742,0.827065 0 0 0 -1.437742,-0.827065z"/>
   <path stroke="null" stroke-width="0" id="svg_8" d="m73.50385,66.443802l-2.875485,0a1.437742,0.827065 0 0 0 0,1.65413l2.875485,0a1.437742,0.827065 0 0 0 0,-1.65413z"/>
   <path stroke="null" stroke-width="0" id="svg_9" d="m85.005788,66.443802l-2.875485,0a1.437742,0.827065 0 0 0 0,1.65413l2.875485,0a1.437742,0.827065 0 0 0 0,-1.65413z"/>
   <path stroke="null" stroke-width="0" id="svg_10" d="m108.009664,66.443802l-2.875485,0a1.437742,0.827065 0 0 0 0,1.65413l2.875485,0a1.437742,0.827065 0 0 0 0,-1.65413z"/>
   <path stroke="null" stroke-width="0" id="svg_11" d="m119.511602,66.443802l-2.875485,0a1.437742,0.827065 0 0 0 0,1.65413l2.875485,0a1.437742,0.827065 0 0 0 0,-1.65413z"/>
   <path stroke="null" stroke-width="0" id="svg_12" d="m62.001912,66.443802l-2.875485,0a1.437742,0.827065 0 0 0 0,1.65413l2.875485,0a1.437742,0.827065 0 0 0 0,-1.65413z"/>
   <path stroke="null" stroke-width="0" id="svg_13" d="m50.499974,66.443802l-2.875485,0a1.437742,0.827065 0 0 0 0,1.65413l2.875485,0a1.437742,0.827065 0 0 0 0,-1.65413z"/>
   <path stroke="null" stroke-width="0" id="svg_14" d="m40.32477,66.954763a1.43675,0.826494 0 0 0 -2.337769,-0.27088l-0.005751,0.002175l-2.033241,1.169618a1.437742,0.827065 0 1 0 2.033327,1.169627l2.033313,-1.169627a1.443033,0.830108 0 0 0 0.310121,-0.900913z"/>
   <path stroke="null" stroke-width="0" id="svg_15" d="m29.848244,71.364598l-2.033341,1.169709a1.437742,0.827065 0 0 0 2.033341,1.169585l2.033298,-1.169585a1.437742,0.827065 0 0 0 -2.033298,-1.169709z"/>
   <path stroke="null" stroke-width="0" id="svg_16" d="m21.715123,76.043187l-2.033327,1.169668a1.437742,0.827065 0 0 0 2.033327,1.169627l2.033313,-1.169627a1.437742,0.827065 0 0 0 -2.033313,-1.169668z"/>
   <path stroke="null" stroke-width="0" id="svg_17" d="m13.582016,80.721777l-2.033356,1.169668a1.437742,0.827065 0 0 0 2.033327,1.169627l2.033313,-1.169676a1.437742,0.827065 0 1 0 -2.033313,-1.169618l0.000029,0z"/>
  </g>
  <text style="cursor: move;" stroke="null" transform="matrix(0.4384069515907055,0,0,0.34563393878609716,46.38078580781131,15.373584822245835) " xml:space="preserve" text-anchor="start" font-family="Helvetica, Arial, sans-serif" font-size="24" id="svg_153" y="-12.982529" x="28.150777" fill-opacity="null" stroke-opacity="null" stroke-width="0" fill="#000000">cuboid</text>
  <text stroke="null" transform="matrix(0.34720147816633307,0,0,0.3648603418006752,96.7601742348114,14.466247749874126) " xml:space="preserve" text-anchor="start" font-family="Helvetica, Arial, sans-serif" font-size="24" id="svg_154" y="-5.707398" x="208.013014" fill-opacity="null" stroke-opacity="null" stroke-width="0" fill="#000000">pyramid</text>
 </g>
</svg>