<?xml version="1.0" encoding="utf-8"?>
<!-- Generator: Adobe Illustrator 23.0.5, SVG Export Plug-In . SVG Version: 6.00 Build 0)  -->
<svg version="1.1" id="Layer_1" xmlns="http://www.w3.org/2000/svg" x="0px"
     y="0px"
     viewBox="0 0 130 70.4" style="enable-background:new 0 0 130 70.4;" xml:space="preserve">
<style type="text/css">
	.st0{fill:none;}
</style>
    <g>
	<title>background</title>
        <rect id="canvas_background" x="-1" y="19.4" class="st0" width="132" height="52"/>
</g>
    <g>
	<title>Layer 1</title>
        <path id="svg_1" d="M2,69.4h22.3v-22H2V69.4z M2.9,48.3h20.5v20.1H2.9C2.9,68.5,2.9,48.3,2.9,48.3z"/>
        <path id="svg_3" d="M23.4,69.4h22.3v-22H23.4C23.4,47.4,23.4,69.4,23.4,69.4z M24.3,48.3h20.5v20.1H24.3V48.3z"/>
        <path id="svg_4" d="M23.4,48.1h22.3v-22H23.4V48.1z M24.3,27.1h20.5v20.1H24.3C24.3,47.2,24.3,27.1,24.3,27.1z"/>
        <path id="svg_5" d="M44.8,48.1h22.3v-22H44.8V48.1z M45.7,27.1h20.5v20.1H45.7V27.1z"/>
        <path id="svg_6" d="M44.8,69.4h22.3v-22H44.8V69.4z M45.7,48.3h20.5v20.1H45.7V48.3z"/>
        <path id="svg_7" d="M66.2,69.4h22.3v-22H66.2C66.2,47.4,66.2,69.4,66.2,69.4z M67.1,48.3h20.5v20.1H67.1V48.3z"/>
        <path id="svg_8" d="M87.6,69.4h22.3v-22H87.6V69.4z M88.5,48.3H109v20.1H88.5V48.3z"/>
</g>
</svg>
