<?xml version="1.0" encoding="utf-8"?>
<!-- Generator: Adobe Illustrator 23.0.5, SVG Export Plug-In . SVG Version: 6.00 Build 0)  -->
<svg version="1.1" id="Layer_1" xmlns="http://www.w3.org/2000/svg" x="0px"
     y="0px"
     viewBox="0 0 351.5 321.8" style="enable-background:new 0 0 351.5 321.8;" xml:space="preserve">
<style type="text/css">
	.st0{fill:#999999;stroke:#000000;stroke-width:3;stroke-miterlimit:10;}
	.st1{display:none;fill:#999999;stroke:#000000;stroke-miterlimit:10;}
	.st2{fill:#F2F2F2;}
	.st3{fill:none;stroke:#000000;stroke-width:3;stroke-miterlimit:10;}
	.st4{font-family:'Verdana';}
	.st5{font-size:17px;}
</style>
    <title>q11-img</title>
    <g>
	<g>
		<rect x="1.5" y="1.5" class="st0" width="271" height="271"/>
        <path class="st1" d="M271,3v268H3V3H271 M274,0H0v274h274V0z"/>
	</g>
        <g>

			<ellipse transform="matrix(0.7071 -0.7071 0.7071 0.7071 -55.6137 136.6841)" class="st2" cx="137.2"
                     cy="135.5" rx="101" ry="101"/>
            <path d="M137.2,36c55,0,99.5,44.5,99.5,99.5S192.2,235,137.2,235s-99.5-44.5-99.5-99.5C37.8,80.6,82.3,36.1,137.2,36 M137.2,33
			C80.6,33,34.7,78.9,34.7,135.5S80.6,238,137.2,238s102.5-45.9,102.5-102.5S193.8,33,137.2,33L137.2,33z"/>
	</g>
        <line class="st3" x1="137.2" y1="135.5" x2="240.1" y2="135.5"/>
        <g>
		<line class="st3" x1="2.8" y1="290.5" x2="273.2" y2="291.5"/>
            <path d="M13,297.7c0.2-0.2,0.3-0.6,0-0.8c-0.1-0.1-0.1-0.1-0.2-0.2l-9.7-6.2l9.7-6.1c0.4-0.2,0.5-0.7,0.3-1.1c0,0,0,0,0,0
			c-0.3-0.3-0.7-0.4-1.1-0.2l-10.7,6.8c-0.3,0.2-0.4,0.6-0.2,1c0.1,0.1,0.1,0.2,0.2,0.2L12,298h0.4C12.6,298,12.9,297.9,13,297.7z"
            />
            <path d="M262.9,298.7c-0.2-0.4-0.1-0.9,0.3-1.1c0,0,0,0,0,0l9.7-6.1l-9.7-6.2c-0.3-0.1-0.5-0.5-0.4-0.8c0-0.1,0.1-0.2,0.2-0.2
			c0.2-0.4,0.6-0.5,0.9-0.3c0,0,0,0,0.1,0l10.7,6.9c0.3,0.3,0.4,0.8,0.1,1.1c0,0,0,0-0.1,0.1l-10.7,6.8h-0.4
			C263.3,298.9,263.1,298.9,262.9,298.7z"/>
	</g>
        <g>
		<line class="st3" x1="291.5" y1="272.2" x2="291.5" y2="1.8"/>
            <path d="M298.7,261.9c-0.3-0.2-0.8-0.1-1,0.2c0,0,0,0,0,0.1l-6.2,9.7l-6.2-9.7c-0.2-0.4-0.6-0.5-0.9-0.3c0,0,0,0-0.1,0
			c-0.3,0.3-0.4,0.7-0.2,1.1l6.8,10.7c0.3,0.3,0.8,0.4,1.1,0.1c0,0,0,0,0.1-0.1l6.8-10.7c0.1-0.1,0.1-0.3,0.1-0.4
			C299,262.3,298.9,262.1,298.7,261.9z"/>
            <path d="M298.7,12.1c-0.3,0.2-0.8,0.1-1-0.2c0,0,0,0,0-0.1l-6.2-9.7l-6.2,9.7c-0.2,0.4-0.6,0.5-0.9,0.3c0,0,0,0-0.1,0
			c-0.3-0.3-0.4-0.7-0.2-1.1l6.8-10.7c0.2-0.3,0.6-0.4,1-0.2c0.1,0.1,0.2,0.1,0.2,0.2l6.8,10.7c0.1,0.1,0.1,0.3,0.1,0.4
			C299,11.7,298.9,11.9,298.7,12.1z"/>
	</g>
        <text transform="matrix(1 0 0 1 157.8 127.6)" class="st4 st5">7 cm</text>
        <text transform="matrix(1 0 0 1 298.5 135.7)" class="st4 st5">16 cm</text>
        <text transform="matrix(1 0 0 1 104 316.6)" class="st4 st5">16 cm</text>
</g>
</svg>
