<?xml version="1.0" ?>
<svg data-name="Слой 1" id="Слой_1" viewBox="0 0 512 512" xmlns="http://www.w3.org/2000/svg">
    <defs>
        <style>
            .cls-1{fill:#333;}.cls-2{fill:#29a9e0;}.cls-3{fill:#0071ba;}.cls-4{fill:#004972;}.cls-5{fill:#faec21;}.cls-6{fill:#eb1c24;}.cls-7{fill:#231f20;}.cls-8{fill:#1a1a1a;}.cls-9{fill:#4d4d4d;}
        </style>
    </defs>
    <title/>
    <path class="cls-1"
          d="M101.4,295.71a35.12,35.12,0,1,0,35.48,34.76A35.12,35.12,0,0,0,101.4,295.71Zm.34,55.53a20.41,20.41,0,1,1,20.2-20.62A20.41,20.41,0,0,1,101.74,351.24Z"/>
    <path class="cls-1"
          d="M392.37,295.71a35.12,35.12,0,1,0,35.48,34.76A35.12,35.12,0,0,0,392.37,295.71Zm.34,55.53a20.41,20.41,0,1,1,20.2-20.62A20.41,20.41,0,0,1,392.71,351.24Z"/>
    <path class="cls-2"
          d="M70.11,250.86a18.81,18.81,0,0,1-5.71-3.61,32.19,32.19,0,0,1,1.28-5.68c.65-1.34,9.23-10.1,12.21-12.13s15-2.15,20.64-2.54,91-3.27,115.3-3.52,44.06,4.88,55.09,7.77,63.73,38.34,63.73,38.34S73.46,252.16,70.11,250.86Z"/>
    <path class="cls-3"
          d="M488,334.21c-3-1.3-4.14-13-4.14-13a31.51,31.51,0,0,1,4.31-2.45c1-.27.51-15.6-2.17-17.24s-7.09-8.26-7.45-10.59-3.73-6-4.75-8-13.13-13.2-61.2-19.37-62.75-8.36-62.75-8.36-57.65-30.4-67-33.64-18.38-4.15-26.05-5.07-5.37-3.28-11.38-4.21-155.67.6-163,1.67a15.36,15.36,0,0,0-10.6,6.78s-22.32,1.23-22.64,2.56,6.4,6.27,6.4,6.27S28.11,252.6,24.14,255.31s-11.24,8.45-10.89,10.78-1.23,9.68-1.88,11-1.27,6.45-2.6,6.91-4.65,1.83-3.95,4.49.85,18.33,1.55,21.32,1.43,9.65,2.44,10.64,3,4.64,4.06,5.63S24.6,332,25.28,334s5.36,2.61,8.69,2.24,12.32-1.46,15.34.18S56.68,340,56.68,340s-2.82-47.31,42.52-47.44,41.55,53.58,41.55,53.58l204,1.23s-4.22-54.29,44.44-55.12,47.58,56.18,47.58,56.18,25.36,2.4,32-.33,18.59-7.53,19.24-8.87S491,335.51,488,334.21ZM71.11,251.83a18.81,18.81,0,0,1-5.71-3.61,32.19,32.19,0,0,1,1.28-5.68c.65-1.34,9.23-10.1,12.21-12.13s15-2.15,20.64-2.54,91-3.27,115.3-3.52,44.06,4.88,55.09,7.77,63.73,38.34,63.73,38.34S74.46,253.13,71.11,251.83Z"/>
    <rect class="cls-4" height="7.23" rx="3.61" ry="3.61" width="20" x="112.18" y="269.64"/>
    <rect class="cls-4" height="7.23" rx="3.61" ry="3.61" width="20" x="226.29" y="279.91"/>
    <path class="cls-5"
          d="M468.72,277.84l-40.87-3.62a38.31,38.31,0,0,0,15.33,13.89c10.5,5.23,37.35,3,37.35,3l-4.75-7.95Z"/>
    <path class="cls-6" d="M15.25,264.31s23.93-6.1,24.93,0-7.93,22.13-12.47,21.86-20.43,5-20.43,5v-6.7l3.49-2.2Z"/>
    <polygon class="cls-1" points="108.64 252.71 118.12 225.68 110.61 226.11 99.23 252.71 108.64 252.71"/>
    <polygon class="cls-1" points="227.29 222.68 221.18 261.82 202.53 259.79 214.91 222.82 227.29 222.68"/>
    <path class="cls-2" d="M278.68,219.39c-1-1-8-.83-7.5,3.52s67,34.35,67,34.35l10.7-4.42Z"/>
    <path class="cls-7"
          d="M105.75,367.63a36.62,36.62,0,0,1-.37-73.24h.38a36.63,36.63,0,0,1,.37,73.25Zm0-70.25h-.35a33.62,33.62,0,0,0,.34,67.24h.35a33.63,33.63,0,0,0-.34-67.25Zm-.23,55.54a21.91,21.91,0,0,1-.22-43.81h.23a21.91,21.91,0,0,1,.22,43.81h-.23Zm0-40.81h-.2a18.91,18.91,0,1,0,.39,37.81h0a18.91,18.91,0,0,0-.19-37.81Z"/>
    <path class="cls-7"
          d="M396.72,367.63a36.62,36.62,0,0,1-.37-73.24h.38a36.63,36.63,0,0,1,.37,73.25Zm0-70.25h-.35a32.86,32.86,0,1,0,.35,0Zm-.23,55.54a21.91,21.91,0,0,1-.22-43.81h.23a21.91,21.91,0,0,1,.22,43.81h-.23Zm0-40.81h-.2a18.91,18.91,0,1,0,.39,37.81h0a18.91,18.91,0,0,0-.19-37.81Z"/>
    <path class="cls-8"
          d="M462.12,349.38c-9,0-18.82-.92-19.47-1l-1.39-.13,0-1.39c0-.28.31-27.59-15.48-43.4-7.68-7.69-18-11.48-30.58-11.25-13,.22-23.25,4.39-30.54,12.39-14.21,15.61-12.44,40.86-12.42,41.12l.12,1.62h-1.63l-205.62-1.24.11-1.6c0-.26,1.65-26.15-12.42-41.19-6.73-7.19-16.05-10.77-27.63-10.78-12.59,0-22.51,3.83-29.5,11.26-12.6,13.39-11.53,34.38-11.52,34.59l.14,2.47-2.25-1c-.18-.08-4.44-2-7.47-3.64-2.48-1.34-11.15-.38-14-.06l-.45.06c-3.55.38-9.21-.16-10.27-3.25-.59-.93-5.61-3.62-8-4.91a22.88,22.88,0,0,1-4-2.38,22.1,22.1,0,0,1-2.23-3.06A23.44,23.44,0,0,0,13.76,320c-.93-.91-1.38-3.06-2.18-7.75-.24-1.39-.46-2.7-.67-3.62a97.79,97.79,0,0,1-.81-11,102.32,102.32,0,0,0-.74-10.3c-.32-1.25-.5-4.33,4.74-6.22a17,17,0,0,0,1.12-3.56A14.23,14.23,0,0,1,16,275c.57-1.17,2-8.24,1.75-10.13-.56-3.69,8.68-10.31,11.53-12.25,3.34-2.28,24.12-19.59,29.83-24.36-5.94-4.59-5.61-6-5.44-6.67.28-1.18.57-2.4,23.27-3.68a16.83,16.83,0,0,1,11.21-6.8c7.55-1.11,157.25-2.64,163.44-1.68a10.6,10.6,0,0,1,5.47,2.21c1.09.8,2.12,1.56,5.85,2l1.63.2c7.44.88,15.87,1.88,24.74,4.94,9.16,3.17,62.48,31.24,67,33.62,2.14.31,18.27,2.64,62.47,8.31,45.67,5.87,60.49,16.55,62.35,20.18a24.13,24.13,0,0,0,1.64,2.45c1.46,2,3,4.11,3.25,6s4.37,8.08,6.75,9.53c3.45,2.11,3.55,15.44,3.21,17.81-.08.55-.27,1.85-1.43,2.16a24.36,24.36,0,0,0-3.11,1.76c.61,5.32,2.05,10.35,3.14,10.82a3.76,3.76,0,0,1,2.28,2.26c.5,1.59-.41,3-1.08,4.11-.15.24-.29.47-.39.67-.63,1.29-3.32,2.74-18,8.76l-2,.83C472.75,349,467.59,349.38,462.12,349.38Zm-17.84-3.84c7.81.67,25.08,1.65,29.93-.35l2-.83c4.93-2,15.1-6.2,16.52-7.45.13-.25.29-.52.47-.8s.84-1.35.76-1.62a1.31,1.31,0,0,0-.61-.4c-3.45-1.49-4.67-10.42-5-14.19l-.08-.9.75-.5a38.56,38.56,0,0,1,4-2.36c.51-2.84-.35-13.55-1.85-14.81-3.07-1.88-7.69-8.83-8.12-11.63-.17-1.13-1.64-3.17-2.72-4.65a25.94,25.94,0,0,1-1.88-2.84c-1.33-2.47-15.41-12.84-60.06-18.57-47.53-6.11-62.64-8.34-62.78-8.36l-.26,0-.22-.12c-.58-.3-57.66-30.39-66.81-33.55-8.56-3-16.82-3.94-24.11-4.8l-1.63-.2c-4.52-.54-6-1.62-7.28-2.57a7.77,7.77,0,0,0-4.15-1.65c-6.16-1-155,.57-162.54,1.68a13.84,13.84,0,0,0-9.52,6l-.4.7-.82,0c-8.14.45-17.12,1.2-20.53,1.85a47,47,0,0,0,5.09,4.27L64,228.08l-1.47,1.22c-1.12.94-27.54,23-31.52,25.75-5.72,3.9-10.13,8.17-10.25,9.38.42,2.7-1.31,10.38-2,11.84a16.83,16.83,0,0,0-.57,2.05c-.77,3.14-1.34,5.08-2.88,5.62-1,.35-3.35,1.33-3,2.69s.55,5.05.82,10.92c.2,4.26.42,9.08.74,10.44.23,1,.46,2.36.71,3.8.35,2.06.94,5.51,1.39,6.18a22.8,22.8,0,0,1,2.16,3,24.48,24.48,0,0,0,1.83,2.57c.3.24,2,1.15,3.35,1.88,6.2,3.32,8.88,5,9.43,6.57.23.67,3.39,1.65,7.11,1.24l.45-.05c6.47-.72,12.86-1.17,15.77.4,1.6.87,3.61,1.84,5.11,2.55.07-6.19,1.37-22.66,12.36-34.36,7.57-8.07,18.24-12.18,31.69-12.22h.17c12.41,0,22.39,3.95,29.67,11.74,13,14,13.45,35.75,13.29,41.85l200.88,1.21c-.19-6,.16-27.32,13.26-41.73,7.87-8.64,18.87-13.15,32.72-13.38,13.46-.23,24.49,3.85,32.76,12.14C442.72,316.17,444.16,339.54,444.28,345.54Zm-99.17-74.71-5.56-.37C296.23,267.56,80,253,76.57,251.73h0a20.44,20.44,0,0,1-6.22-3.94l-.54-.53.11-.75a30.08,30.08,0,0,1,1.41-6.13c.88-1.81,9.8-10.72,12.71-12.71,2.54-1.73,9.11-2.18,17.43-2.58,1.49-.08,2.85-.14,4-.22,6.37-.44,91.64-3.28,115.39-3.52,24.68-.25,44.7,5,55.48,7.81,11.14,2.92,62,37.1,64.18,38.56ZM77.58,248.9c5.65,1.18,166.93,12.19,256.55,18.19-13.11-8.7-49.84-32.73-58.59-35-10.64-2.79-30.44-8-54.69-7.72-25.36.26-110.08,3.16-115.22,3.51-1.12.08-2.5.15-4,.22-5.18.26-13.85.68-15.89,2.07-2.93,2-11,10.39-11.71,11.57a24.23,24.23,0,0,0-1,4.42A17.41,17.41,0,0,0,77.58,248.9Z"/>
    <path class="cls-7"
          d="M465.68,348l-3-.18c0-.48,2.42-47.44-37.68-67.2-40.28-19.86-72.22-.28-72.54-.08l-.41.26-.49,0L71,260.66l-7.52-4.38L24,265.15l-.65-2.93,40.57-9.12,7.94,4.62,279.46,20c4.08-2.34,35.85-19.12,75,.18C468.25,298.55,465.71,347.47,465.68,348Z"/>
    <path class="cls-7"
          d="M225.22,345.47c-.41-1.61-10-39.59-11.53-49.36-1.53-10,5.3-34.58,5.6-35.62l2.88.81c-.06.25-6.95,25-5.51,34.36,1.47,9.62,11.37,48.68,11.47,49.07Z"/>
    <polygon class="cls-7"
             points="357.02 310.93 350.32 280.04 338.67 270.1 340.62 267.82 353.03 278.42 359.95 310.29 357.02 310.93"/>
    <polygon class="cls-7"
             points="110.21 291.87 100.64 261.33 104.37 252.2 107.15 253.34 103.83 261.46 113.08 290.97 110.21 291.87"/>
    <path class="cls-7"
          d="M132.56,277.69H119.79a5.12,5.12,0,0,1,0-10.23h12.77a5.12,5.12,0,1,1,0,10.23Zm-12.77-7.23a2.12,2.12,0,0,0,0,4.23h12.77a2.12,2.12,0,1,0,0-4.23Z"/>
    <path class="cls-7"
          d="M246.68,288H233.9a5.12,5.12,0,0,1,0-10.23h12.78a5.12,5.12,0,0,1,0,10.23Zm-12.78-7.23a2.12,2.12,0,0,0,0,4.23h12.78a2.12,2.12,0,0,0,0-4.23Z"/>
    <path class="cls-7"
          d="M471.78,291.45c-8.58,0-19.31-.68-25.27-3.65a39.54,39.54,0,0,1-16-14.49l-1.38-2.48,44.12,3.9,7.64,5.77,6.13,10.27-2.39.2C484.16,291,478.67,291.45,471.78,291.45Zm-36.9-17.1a38.09,38.09,0,0,0,13,10.76c8.21,4.09,27.37,3.42,34.15,3l-3.34-5.6-6.49-4.9Z"/>
    <path class="cls-7"
          d="M9.78,293.49V283.9l3.68-2.33L18,263.36l.87-.22c2-.51,19.69-4.88,25-1.41a3.84,3.84,0,0,1,1.78,2.62c.83,5.1-4,15.34-8.6,20.41-2,2.25-3.82,3.32-5.43,3.19-3.48-.17-15.54,3.46-19.88,4.89Zm3-7.94v3.81c4.55-1.44,15.16-4.63,19-4.4.11,0,1.05,0,3-2.21,4.36-4.83,8.47-14.21,7.87-17.92a.87.87,0,0,0-.47-.59c-3-2-14.58-.15-21.74,1.59l-4.41,17.64Z"/>
    <path class="cls-7"
          d="M163.17,345.18l-3-.16a90.08,90.08,0,0,0-1.49-18.49c-1.72-9.39-5.75-22.53-15.17-31.86-8.93-8.84-21.21-12.85-36.49-11.92-18.42,1.13-32.37,7-41.48,17.49C52.76,315,54.09,333.87,54.11,334.05l-3,.24c-.07-.82-1.45-20.34,12.17-36,9.65-11.11,24.3-17.34,43.56-18.52,16.18-1,29.23,3.31,38.79,12.79C164.7,311.42,163.25,343.81,163.17,345.18Z"/>
    <rect class="cls-7" height="206.29" transform="translate(-85.6 570.1) rotate(-88.76)" width="3" x="246.97"
          y="225.64"/>
    <path class="cls-7" d="M112.71,254.27H100l12.64-29.54,10.68-.62Zm-8.2-3h6.07l8.38-23.9-4.33.25Z"/>
    <path class="cls-7" d="M225.44,263.53l-21.93-2.39,13.31-39.74,15.22-.18Zm-17.9-5,15.38,1.67,5.61-36-9.54.11Z"/>
    <path class="cls-7" d="M72.45,221l15.49-9.9,163.73-1.69L267.48,216ZM88.83,214l-5.7,3.64,170.37-4.29-2.42-1Z"/>
    <path class="cls-7"
          d="M343.15,258.82l-.59-.26c-.17-.08-16.83-7.6-33.35-15.56-34.12-16.45-34.36-18.58-34.52-20a4.62,4.62,0,0,1,2.78-4.84c2.22-1.09,5.57-1.12,7-.14l73.11,34.84Zm-65.5-36.34c2.56,3.42,35.39,19.45,65.55,33.07l7-2.88-67.37-32.1-.1-.1a6.09,6.09,0,0,0-4.33.63A1.49,1.49,0,0,0,277.65,222.48Zm5.11-2Z"/>
    <circle class="cls-9" cx="103.5" cy="330.75" r="17.88"/>
    <circle class="cls-9" cx="392.5" cy="330.75" r="17.88"/>
</svg>
