<svg width="85" height="85" xmlns="http://www.w3.org/2000/svg">

    <g>
        <title>background</title>
        <rect fill="none" id="canvas_background" height="87" width="87" y="-1" x="-1"/>
    </g>
    <g>
        <title>Layer 1</title>
        <path fill="#9966cc" id="svg_4"
              d="m60.182925,37.176183c0,8.06205 -6.53559,14.59763 -14.59764,14.59763s-14.59763,-6.53558 -14.59763,-14.59763s4.93717,-35.77851 14.59763,-35.77851s14.59764,27.71646 14.59764,35.77851z"
              class="st9"/>
        <path fill="#9966cc" id="svg_5"
              d="m48.350835,30.481933c5.78669,5.61345 5.92713,14.8551 0.31368,20.64179c-5.61346,5.78669 -14.8551,5.92712 -20.64179,0.31367s-22.24305,-28.45564 -15.51666,-35.38962s30.05808,8.82071 35.84477,14.43416z"
              class="st9"/>
        <path fill="#9966cc" id="svg_6"
              d="m37.044455,32.893773c8.06173,-0.07226 14.65562,6.40448 14.72789,14.4662s-6.40447,14.65562 -14.4662,14.72789s-35.82132,-4.61628 -35.90791,-14.27635s27.5845,-14.84548 35.64622,-14.91774z"
              class="st9"/>
        <path fill="#9966cc" id="svg_7"
              d="m39.916395,26.676103c-6.86757,4.22292 -9.01149,13.21354 -4.78856,20.08112c4.22292,6.86757 13.21354,9.01148 20.08111,4.78856c6.86758,-4.22292 27.89146,-22.94654 22.83128,-31.17571s-31.25625,2.08311 -38.12383,6.30603z"
              class="st9"/>
        <path fill="#9966cc" id="svg_8"
              d="m52.603365,57.821263c4.46163,-6.71494 2.63496,-15.77535 -4.07999,-20.23698c-6.71494,-4.46163 -15.77535,-2.63495 -20.23698,4.07999s-15.68802,32.5325 -7.64174,37.87871s27.49708,-15.00677 31.95871,-21.72172z"
              class="st9"/>
        <path fill="#9966cc" id="svg_9"
              d="m52.471475,32.452303c-7.84559,-1.85564 -15.70999,3.00018 -17.56562,10.84577c-1.85564,7.84558 3.00018,15.70998 10.84577,17.56562s35.95426,3.43049 38.17779,-5.97059c2.22355,-9.40108 -23.61235,-20.58517 -31.45794,-22.4408z"
              class="st9"/>
        <path fill="#9966cc" id="svg_10"
              d="m57.006365,44.063553c-3.7089,-7.15826 -12.51847,-9.95452 -19.67673,-6.24562s-9.95452,12.51848 -6.24562,19.67674s20.8434,29.49627 29.42088,25.05202c8.57749,-4.44423 0.21037,-31.32488 -3.49853,-38.48314z"
              class="st9"/>
        <path fill="#cc66ff" id="svg_12"
              d="m51.945085,48.944443c-3.26356,2.71374 -8.10913,2.26802 -10.82288,-0.99556c-2.71374,-3.26356 -2.26801,-8.10914 0.99556,-10.82288s16.14526,-10.04469 19.39703,-6.13408s-6.30613,15.23878 -9.56971,17.95252z"
              class="st8"/>
        <path fill="#cc66ff" id="svg_13"
              d="m50.672205,41.901403c-0.32452,4.23202 -4.01833,7.39967 -8.25034,7.07515s-7.39967,-4.01833 -7.07515,-8.25035c0.32452,-4.23201 4.03186,-18.5825 9.10294,-18.19363c5.07106,0.38886 6.54707,15.13681 6.22255,19.36883z"
              class="st8"/>
        <path fill="#cc66ff" id="svg_14"
              d="m45.890075,38.136353c2.74288,3.23911 2.34061,8.08848 -0.89851,10.83137c-3.23911,2.74288 -8.08848,2.34061 -10.83137,-0.89851s-10.18901,-16.05457 -6.30769,-19.34127c3.88131,-3.2867 15.29468,6.16929 18.03757,9.40841z"
              class="st8"/>
        <path fill="#cc66ff" id="svg_15"
              d="m49.373735,37.206023c-4.02114,-1.35858 -8.38225,0.79986 -9.74083,4.821c-1.35857,4.02114 0.79986,8.38226 4.821,9.74083s18.67737,3.56668 20.3053,-1.25171c1.62793,-4.81839 -11.36432,-11.95155 -15.38547,-13.31012z"
              class="st8"/>
        <path fill="#cc66ff" id="svg_16"
              d="m41.036495,52.825463c4.22007,-0.4542 7.27291,-4.24344 6.81871,-8.46351s-4.24344,-7.27291 -8.46351,-6.81871s-18.45007,4.60005 -17.90581,9.65681c0.54425,5.05676 15.33054,6.07961 19.55061,5.62541z"
              class="st8"/>
        <path fill="#cc66ff" id="svg_17"
              d="m51.261625,44.232703c-1.88971,-3.80056 -6.50259,-5.34962 -10.30315,-3.45991c-3.80057,1.8897 -5.34962,6.50258 -3.45991,10.30315c1.8897,3.80056 10.71376,15.70925 15.26784,13.44488c4.55408,-2.26437 0.38492,-16.48756 -1.50478,-20.28812z"
              class="st8"/>
        <path fill="#cc66ff" id="svg_18"
              d="m48.087785,49.976883c1.64927,-3.9109 -0.18415,-8.41832 -4.09506,-10.06759c-3.9109,-1.64926 -8.41832,0.18416 -10.06759,4.09507s-4.92425,18.36619 -0.23795,20.34245s12.75134,-10.45902 14.4006,-14.36993z"
              class="st8"/>
        <circle fill="#ffcc33" id="svg_19" r="7.736537" cy="43.412273" cx="44.488051" class="st3"/>
        <circle fill="#f9af38" id="svg_20" r="2.654694" cy="39.9991" cx="42.288447" class="st7"/>
    </g>
</svg>
