<?xml version="1.0" encoding="utf-8"?>
<!-- Generator: Adobe Illustrator 23.0.5, SVG Export Plug-In . SVG Version: 6.00 Build 0)  -->
<svg version="1.1" id="Layer_8" xmlns="http://www.w3.org/2000/svg" x="0px"
     y="0px"
     viewBox="0 0 390.7 353.8" style="enable-background:new 0 0 390.7 353.8;" xml:space="preserve">
<style type="text/css">
	.st0{fill:none;stroke:#000000;stroke-width:3;stroke-miterlimit:10;}
	.st1{font-family:'Verdana';}
	.st2{font-size:17px;}
	.st3{letter-spacing:-1;}
	.st4{font-size:10.18px;}
</style>
    <title>q12-img</title>
    <g id="Layer_9">
	<polyline class="st0" points="34.7,26.3 34.7,295 377.9,295 	"/>
        <line class="st0" x1="28" y1="246.1" x2="40.2" y2="246.1"/>
        <line class="st0" x1="28" y1="197.3" x2="40.2" y2="197.3"/>
        <line class="st0" x1="28" y1="148.4" x2="40.2" y2="148.4"/>
        <line class="st0" x1="28" y1="99.6" x2="40.2" y2="99.6"/>
        <line class="st0" x1="28" y1="50.7" x2="40.2" y2="50.7"/>
        <polyline class="st0" points="28.6,34.8 34.4,22.6 40.2,34.8 	"/>
        <polyline class="st0" points="370.3,289.2 382.5,295 370.3,300.8 	"/>
</g>
    <g id="Layer_10">
	<path class="st0" d="M82.7,295"/>
        <polyline class="st0" points="59.8,295 60.3,99.6 108,99.6 108,295 	"/>
        <polyline class="st0" points="131.9,295 132.4,148.4 181.3,148.4 181.3,295 	"/>
        <polyline class="st0" points="206.3,295 206.9,197.3 255.8,197.3 255.8,295 	"/>
        <polyline class="st0" points="279.1,295 279,50.7 327.9,50.7 327.9,295 	"/>
</g>
    <g id="Layer_11">
	<text transform="matrix(1 0 0 1 9.84 14.7)" class="st1 st2">No of hours</text>
        <text transform="matrix(1 0 0 1 9.04 300.4)" class="st1 st2">0</text>
        <text transform="matrix(1 0 0 1 8.54 253.2)" class="st1 st2">2</text>
        <text transform="matrix(1 0 0 1 9.04 204.9)" class="st1 st2">4</text>
        <text transform="matrix(1 0 0 1 8.94 155.1)" class="st1 st2">6</text>
        <text transform="matrix(1 0 0 1 9.34 104.3)" class="st1 st2">8</text>
        <text transform="matrix(1 0 0 1 0 58.0999)" class="st1 st2">10</text>
        <text transform="matrix(1 0 0 1 66.94 322.2)" class="st1 st2">20 c</text>
        <text transform="matrix(1 0 0 1 137.04 322.5)" class="st1 st2">30 c</text>
        <text transform="matrix(1 0 0 1 212.64 322.4)" class="st1 st2">40 c</text>
        <text transform="matrix(1 0 0 1 286.24 321.9)" class="st1 st2">50 c</text>
        <text transform="matrix(1 0 0 1 149.8402 350.3208)" class="st1 st2 st3">T</text>
        <text transform="matrix(1 0 0 1 158.4402 350.3208)" class="st1 st2">empe</text>
        <text transform="matrix(1 0 0 1 205.8402 350.3208)" class="st1 st2">r</text>
        <text transform="matrix(1 0 0 1 212.8402 350.3208)" class="st1 st2">ature</text>
        <text transform="matrix(1.05 0 0 1 89.5402 311.2998)" class="st1 st4">o</text>
        <text transform="matrix(1.05 0 0 1 159.5402 311.2998)" class="st1 st4">o</text>
        <text transform="matrix(1.05 0 0 1 235.5402 311.2998)" class="st1 st4">o</text>
        <text transform="matrix(1.05 0 0 1 308.5402 311.2998)" class="st1 st4">o</text>
</g>
</svg>
