<?xml version="1.0" encoding="utf-8"?>
<!-- Generator: Adobe Illustrator 23.0.5, SVG Export Plug-In . SVG Version: 6.00 Build 0)  -->
<svg version="1.1" id="q23" xmlns="http://www.w3.org/2000/svg" x="0px"
     y="0px"
     viewBox="0 0 280.3 217.7" style="enable-background:new 0 0 280.3 217.7;" xml:space="preserve">
<style type="text/css">
	.st0{fill:#3FA9F5;stroke:#000000;stroke-width:0.5;stroke-miterlimit:10;}
	.st1{fill:#FF931E;stroke:#000000;stroke-width:0.5;stroke-miterlimit:10;}
	.st2{fill:#7AC943;stroke:#000000;stroke-width:0.5;stroke-miterlimit:10;}
	.st3{fill:#FCEE21;stroke:#000000;stroke-width:0.5;stroke-miterlimit:10;}
	.st4{fill:#FF1D25;stroke:#000000;stroke-width:0.5;stroke-miterlimit:10;}
	.st5{font-family:'Verdana';}
	.st6{font-size:14px;}
</style>
    <title>q23-img</title>
    <g id="Layer_17">
	<g>
		<path class="st0" d="M135.7,109.8l-95.8,46.8C14,103.7,36,39.8,88.9,14c0,0,0.1,0,0.1,0c14.5-7.2,30.5-10.9,46.7-10.8L135.7,109.8
			z"/>
        <path class="st1" d="M135.7,109.8l-5.5,106.5c-40-2.1-72.8-23.7-90.3-59.7L135.7,109.8z"/>
        <path class="st2" d="M135.7,109.8l101.5,33c-15.3,47-57.6,76.1-107,73.5L135.7,109.8z"/>
        <path class="st3" d="M135.7,109.8l89.5-58.1c18,27.7,22.2,59.7,12,91.1L135.7,109.8z"/>
        <path class="st4" d="M135.7,109.8V3.2c37.7,0,69,16.9,89.5,48.5L135.7,109.8z"/>
	</g>
        <text transform="matrix(1 0 0 1 204.84 19.14)" class="st5 st6">16%</text>
        <text transform="matrix(1 0 0 1 244.66 103.4599)" class="st5 st6">14%</text>
        <text transform="matrix(1 0 0 1 219.88 193.44)" class="st5 st6">21%</text>
        <text transform="matrix(1 0 0 1 25.3802 200.1598)" class="st5 st6">17%</text>
        <text transform="matrix(1 0 0 1 0 68.5598)" class="st5 st6">32%</text>
</g>
</svg>
