<svg id="angle-q13" xmlns="http://www.w3.org/2000/svg" viewBox="0 0 345.6 217">
    <defs>
        <style>
            .cls-1, .cls-3 {
            fill: none;
            stroke: #000;
            stroke-miterlimit: 10;
            stroke-width: 3px;
            }

            .cls-2 {
            font-size: 19px;
            font-family: Verdana;
            }

            .cls-3 {
            fill-rule: evenodd;
            }
        </style>
    </defs>
    <title>q13-angle</title>
    <g id="Layer_10" data-name="Layer 10">
        <line class="cls-1" x1="22.1" y1="4.1" x2="320.2" y2="208.3"/>
        <polyline class="cls-1" points="33.7 1.5 22.1 4.1 24.8 15.7"/>
        <polyline class="cls-1" points="308.6 210.9 320.2 208.3 317.6 196.7"/>
        <line class="cls-1" x1="36.4" y1="18.2" x2="40.2" y2="12.1"/>
        <line class="cls-1" x1="305.2" y1="202.6" x2="309" y2="196.5"/>
    </g>
    <g id="Layer_11" data-name="Layer 11">
        <line class="cls-1" x1="163.6" y1="101.1" x2="343.5" y2="111.3"/>
        <line class="cls-1" x1="1.9" y1="182.6" x2="163.6" y2="101.1"/>
        <polyline class="cls-1" points="5.1 171.2 1.9 182.6 13.3 185.9"/>
        <polyline class="cls-1" points="335 119.5 343.5 111.3 335.3 102.7"/>
        <line class="cls-1" x1="21.1" y1="176.9" x2="17.6" y2="170.6"/>
        <line class="cls-1" x1="327.8" y1="114.2" x2="327.8" y2="106.9"/>
    </g>
    <text class="cls-2" transform="translate(161.2 92.9)">P</text>
    <text class="cls-2" transform="translate(22.2 191.3)">Q</text>
    <text class="cls-2" transform="translate(312.5 102.9)">R</text>
    <text class="cls-2" transform="translate(28.2 35.5)">A</text>
    <text class="cls-2" transform="translate(286.1 211.3)">B</text>
    <g id="Layer_12" data-name="Layer 12">
        <path class="cls-3" d="M161,164a26.2,26.2,0,0,0-11.8,18.7c-1.2,9.2,2.3,18.7,9,24.3"
              transform="translate(-31.6 -86.7)"/>
        <path class="cls-3" d="M236.6,190a13.9,13.9,0,0,1,3.3,10.6c-.7,5.1-4.5,9.4-9.9,11.4"
              transform="translate(-31.6 -86.7)"/>
        <text class="cls-2" transform="translate(87.3 102.9)">2x</text>
        <text class="cls-2" transform="translate(215 124.2)">x</text>
    </g>
</svg>
