<?xml version="1.0" encoding="utf-8"?>
<!-- Generator: Adobe Illustrator 23.0.5, SVG Export Plug-In . SVG Version: 6.00 Build 0)  -->
<svg version="1.1" id="angle-q15" xmlns="http://www.w3.org/2000/svg" x="0px"
     y="0px"
     viewBox="0 0 331.6 230.9" style="enable-background:new 0 0 331.6 230.9;" xml:space="preserve">
<style type="text/css">
	.st0{fill:none;stroke:#000000;stroke-width:3;stroke-miterlimit:10;}
	.st1{font-family:'Verdana';}
	.st2{font-size:19px;}
</style>
    <title>q15-angle</title>
    <g id="Layer_18">
	<line class="st0" x1="3" y1="98.1" x2="325.1" y2="216.2"/>
        <polyline class="st0" points="13.1,93 3,98.1 8,108.1 	"/>
        <polyline class="st0" points="315.1,221.4 325.1,216.2 320.1,206.2 	"/>
        <line class="st0" x1="19.3" y1="107.7" x2="21.5" y2="101.2"/>
        <line class="st0" x1="310.1" y1="214.6" x2="312.1" y2="208"/>
</g>
    <g id="Layer_19">
	<line class="st0" x1="80.9" y1="2.6" x2="172" y2="159.2"/>
        <polyline class="st0" points="92.4,5.2 80.9,2.6 78.3,14.3 	"/>
        <line class="st0" x1="87.7" y1="21.5" x2="93.7" y2="17.6"/>
        <line class="st0" x1="328.6" y1="67.9" x2="172" y2="159.2"/>
        <polyline class="st0" points="326,79.6 328.6,67.9 317,65.4 	"/>
        <line class="st0" x1="309.7" y1="74.9" x2="313.6" y2="80.9"/>
</g>
    <polyline class="st0" points="180,153.8 175.8,146.5 168.2,150.9 "/>
    <text transform="matrix(0.9998 -1.879563e-02 1.879563e-02 0.9998 14.5414 127.589)" class="st1 st2">P</text>
    <text transform="matrix(1 -3.412059e-03 3.412059e-03 1 289.9033 225.1033)" class="st1 st2">Q</text>
    <text transform="matrix(0.9996 -2.718132e-02 2.718132e-02 0.9996 71.3946 35.2111)" class="st1 st2">R</text>
    <text transform="matrix(1 -2.645933e-03 2.645933e-03 1 311.8544 99.3472)" class="st1 st2">S</text>
    <text transform="matrix(1 -2.692601e-04 2.692601e-04 1 159.2596 179.5263)" class="st1 st2">T</text>
</svg>
