<svg width="399.47749196838436" height="399.1" xmlns="http://www.w3.org/2000/svg" class="Layer_2">
    <defs>
        <clipPath id="myClip">
            <rect id="svg_1" height="60" width="60" y="20" x="20"/>
        </clipPath>
        <linearGradient y2="NaN" x2="NaN" y1="NaN" x1="NaN" id="hourBorder">
            <stop offset="0.85" stop-color="#FFFFFF"/>
            <stop offset="1" stop-color="#DDDDDD"/>
        </linearGradient>
    </defs>
    <desc>Created with Snap</desc>
    <g>
        <title>background</title>
        <rect fill="none" id="canvas_background" height="245.636367" width="245.866813" y="-1" x="-1"/>
    </g>
    <g>
        <title>Layer 1</title>
        <path stroke="#0000ff" transform="rotate(-50.36182403564453 194.92059326171878,199.40916442871094) " id="svg_32"
              d="m171.726535,189.642816c40.062458,61.875912 46.388109,-6.400956 46.388109,-6.400956" fill-opacity="null"
              stroke-opacity="null" stroke-width="4" fill="none"/>
        <circle id="svg_2" r="186" cy="193.1" cx="193.2" stroke-miterlimit="10" stroke-width="14.2909" stroke="#F7B2E6"
                fill="none" class="clockBoundary"/>
        <polygon stroke="null" fill="#ff0000" id="svg_164"
                 points="194.46823120117188,181.4548797607422 191.9317626953125,181.4548797607422 191.9317626953125,81.09447973139322 193.20001220703125,78.0776301761307 194.46823120117188,81.09447973139322 "
                 class="minuteHand"/>
        <rect id="svg_5" height="7.5" width="7.5" fill="#7A8391" y="189.2" x="21"/>
        <circle id="svg_7" r="2.3" cy="175.4" cx="25.8" fill="#000000"/>
        <circle id="svg_9" r="2.3" cy="158" cx="28.6" fill="#000000"/>
        <circle id="svg_11" r="2.3" cy="141.1" cx="33.4" fill="#000000"/>
        <path id="svg_13"
              d="m40.6,122.6c-1.2,-0.5 -2.5,0 -3.1,1.2c-0.5,1.2 0,2.5 1.2,3.1c1.2,0.5 2.5,0 3.1,-1.2c0.5,-1.2 0,-2.6 -1.2,-3.1z"
              fill="#000000"/>
        <rect id="svg_15" height="7.5" width="7.5" fill="#000000"
              transform="matrix(0.4999,-0.8661,0.8661,0.4999,-70.705,95.5458) " y="105.2" x="43.6"/>
        <path id="svg_17"
              d="m58.5,92.3c-1,-0.8 -2.5,-0.5 -3.2,0.5c-0.8,1 -0.5,2.5 0.5,3.2c1,0.8 2.5,0.5 3.2,-0.5c0.8,-1 0.5,-2.4 -0.5,-3.2z"
              fill="#000000"/>
        <circle id="svg_19" r="2.3" cy="80.6" cx="68.3" fill="#000000"/>
        <circle id="svg_21" r="2.3" cy="68.2" cx="80.7" fill="#000000"/>
        <path id="svg_23"
              d="m96.3,55.6c-0.8,-1 -2.2,-1.3 -3.2,-0.5c-1,0.8 -1.3,2.2 -0.5,3.2c0.8,1 2.2,1.3 3.2,0.5c1,-0.7 1.2,-2.1 0.5,-3.2z"
              fill="#000000"/>
        <rect id="svg_25" height="7.5" width="7.5" fill="#000000"
              transform="matrix(0.866,-0.5,0.5,0.866,-9.0315,60.9524) " y="43.6" x="105.5"/>
        <circle id="svg_27" r="2.3" cy="39.5" cx="124.8" fill="#000000"/>
        <circle id="svg_29" r="2.3" cy="33.3" cx="141.1" fill="#000000"/>
        <circle id="svg_31" r="2.3" cy="28.6" cx="158.2" fill="#000000"/>
        <circle id="svg_33" r="2.3" cy="25.9" cx="175.6" fill="#000000"/>
        <rect id="svg_36" height="7.5" width="7.5" fill="#000000" y="189.3" x="21"/>
        <circle id="svg_38" r="2.3" cy="210.7" cx="25.8" fill="#000000"/>
        <circle id="svg_40" r="2.3" cy="228.1" cx="28.6" fill="#000000"/>
        <circle id="svg_42" r="2.3" cy="245" cx="33.4" fill="#000000"/>
        <path id="svg_44"
              d="m40.6,263.4c-1.2,0.5 -2.5,0 -3.1,-1.2c-0.5,-1.2 0,-2.5 1.2,-3.1c1.2,-0.5 2.5,0 3.1,1.2c0.5,1.2 0,2.6 -1.2,3.1z"
              fill="#000000"/>
        <rect id="svg_46" height="7.5" width="7.5" fill="#000000"
              transform="matrix(0.4999,0.8661,-0.8661,0.4999,263.6294,97.4966) " y="273.3" x="43.6"/>
        <path id="svg_48"
              d="m58.5,293.7c-1,0.8 -2.5,0.5 -3.2,-0.5c-0.8,-1 -0.5,-2.5 0.5,-3.2c1,-0.8 2.5,-0.5 3.2,0.5c0.8,1 0.5,2.5 -0.5,3.2z"
              fill="#000000"/>
        <circle id="svg_50" r="2.3" cy="305.4" cx="68.3" fill="#000000"/>
        <circle id="svg_52" r="2.3" cy="317.8" cx="80.7" fill="#000000"/>
        <path id="svg_54"
              d="m96.3,330.4c-0.8,1 -2.2,1.3 -3.2,0.5c-1,-0.8 -1.3,-2.2 -0.5,-3.2c0.8,-1 2.2,-1.3 3.2,-0.5c1,0.7 1.2,2.2 0.5,3.2z"
              fill="#000000"/>
        <rect id="svg_56" height="7.5" width="7.5" fill="#000000"
              transform="matrix(0.866,0.5,-0.5,0.866,183.9876,-9.2336) " y="335" x="105.5"/>
        <circle id="svg_58" r="2.3" cy="346.6" cx="124.8" fill="#000000"/>
        <circle id="svg_60" r="2.3" cy="352.7" cx="141.1" fill="#000000"/>
        <circle id="svg_62" r="2.3" cy="357.4" cx="158.2" fill="#000000"/>
        <circle id="svg_64" r="2.3" cy="360.2" cx="175.6" fill="#000000"/>
        <circle id="svg_67" r="2.3" cy="210.7" cx="360.5" fill="#000000"/>
        <circle id="svg_69" r="2.3" cy="228.1" cx="357.7" fill="#000000"/>
        <circle id="svg_71" r="2.3" cy="245" cx="352.9" fill="#000000"/>
        <path id="svg_73"
              d="m345.7,263.4c1.2,0.5 2.5,0 3.1,-1.2c0.5,-1.2 0,-2.5 -1.2,-3.1c-1.2,-0.5 -2.5,0 -3.1,1.2c-0.5,1.2 0,2.6 1.2,3.1z"
              fill="#000000"/>
        <rect id="svg_75" height="7.5" width="7.5" fill="#000000"
              transform="matrix(-0.4999,0.8661,-0.8661,-0.4999,748.2562,122.0441) " y="273.3" x="335.1"/>
        <path id="svg_77"
              d="m327.8,293.7c1,0.8 2.5,0.5 3.2,-0.5c0.8,-1 0.5,-2.5 -0.5,-3.2c-1,-0.8 -2.5,-0.5 -3.2,0.5c-0.8,1 -0.6,2.5 0.5,3.2z"
              fill="#000000"/>
        <circle id="svg_79" r="2.3" cy="305.4" cx="318" fill="#000000"/>
        <circle id="svg_81" r="2.3" cy="317.8" cx="305.6" fill="#000000"/>
        <path id="svg_83"
              d="m290,330.4c0.8,1 2.2,1.3 3.2,0.5c1,-0.8 1.3,-2.2 0.5,-3.2c-0.8,-1 -2.2,-1.3 -3.2,-0.5c-1,0.7 -1.2,2.2 -0.5,3.2z"
              fill="#000000"/>
        <rect id="svg_85" height="7.5" width="7.5" fill="#000000"
              transform="matrix(-0.866,0.5,-0.5,-0.866,686.3503,493.5194) " y="335" x="273.3"/>
        <circle id="svg_87" r="2.3" cy="346.6" cx="261.5" fill="#000000"/>
        <circle id="svg_89" r="2.3" cy="352.7" cx="245.1" fill="#000000"/>
        <circle id="svg_91" r="2.3" cy="357.4" cx="228.1" fill="#000000"/>
        <circle id="svg_93" r="2.3" cy="360.2" cx="210.7" fill="#000000"/>
        <rect id="svg_95" height="7.5" width="7.5" fill="#000000" y="357.9" x="189.5"/>
        <rect id="svg_98" height="7.5" width="7.5" fill="#000000" y="189.2" x="357.8"/>
        <circle id="svg_100" r="2.3" cy="175.4" cx="360.5" fill="#000000"/>
        <circle id="svg_102" r="2.3" cy="158" cx="357.7" fill="#000000"/>
        <circle id="svg_104" r="2.3" cy="141.1" cx="352.9" fill="#000000"/>
        <path id="svg_106"
              d="m345.7,122.6c1.2,-0.5 2.5,0 3.1,1.2c0.5,1.2 0,2.5 -1.2,3.1c-1.2,0.5 -2.5,0 -3.1,-1.2c-0.5,-1.2 0,-2.6 1.2,-3.1z"
              fill="#000000"/>
        <rect id="svg_108" height="7.5" width="7.5" fill="#000000" y="105.2" x="335.1"/>
        <path id="svg_110"
              d="m327.8,92.3c1,-0.8 2.5,-0.5 3.2,0.5c0.8,1 0.5,2.5 -0.5,3.2c-1,0.8 -2.5,0.5 -3.2,-0.5c-0.8,-1 -0.6,-2.4 0.5,-3.2z"
              fill="#000000"/>
        <circle id="svg_112" r="2.3" cy="80.6" cx="318" fill="#000000"/>
        <circle id="svg_114" r="2.3" cy="68.2" cx="305.6" fill="#000000"/>
        <path id="svg_116"
              d="m290,55.6c0.8,-1 2.2,-1.3 3.2,-0.5c1,0.8 1.3,2.2 0.5,3.2c-0.8,1 -2.2,1.3 -3.2,0.5c-1,-0.7 -1.2,-2.1 -0.5,-3.2z"
              fill="#000000"/>
        <rect id="svg_118" height="7.5" width="7.5" fill="#000000" y="43.6" x="273.3"/>
        <circle id="svg_120" r="2.3" cy="39.5" cx="261.5" fill="#000000"/>
        <circle id="svg_122" r="2.3" cy="33.3" cx="245.1" fill="#000000"/>
        <circle id="svg_124" r="2.3" cy="28.6" cx="228.1" fill="#000000"/>
        <circle id="svg_126" r="2.3" cy="25.9" cx="210.7" fill="#000000"/>
        <rect id="svg_128" height="7.5" width="7.5" fill="#000000" y="21.6" x="189.5"/>
        <path id="svg_131" d="m179.5,49.4l-5.6,0l2.7,-4.6l7.8,0l0,32.4l-4.9,0l0,-27.8z" fill="#231F20"/>
        <path id="svg_132"
              d="m201.8,72.6l12.1,0l0,4.6l-21.8,0l11.3,-13.6c1.1,-1.4 2,-2.5 2.8,-3.5c0.7,-1 1.3,-1.8 1.7,-2.5c0.8,-1.3 1.2,-2.5 1.2,-3.5c0,-1.5 -0.5,-2.8 -1.6,-3.8c-1.1,-1 -2.4,-1.5 -3.9,-1.5c-3.3,0 -5.2,1.9 -5.6,5.8l-5,0c0.8,-6.8 4.2,-10.2 10.4,-10.2c3,0 5.4,0.9 7.4,2.8c2,1.9 3,4.2 3,7c0,1.8 -0.5,3.5 -1.4,5.2c-0.5,0.9 -1.2,1.9 -2.1,3.1c-0.9,1.2 -2.1,2.6 -3.5,4.3l-5,5.8z"
              fill="#231F20"/>
        <path id="svg_134" d="m262.4,69.7l-5.6,0l2.7,-4.6l7.8,0l0,32.4l-4.9,0l0,-27.8z" fill="#231F20"/>
        <path id="svg_136"
              d="m308.2,138.6l12.1,0l0,4.6l-21.8,0l11.3,-13.6c1.1,-1.4 2,-2.5 2.8,-3.5c0.7,-1 1.3,-1.8 1.7,-2.5c0.8,-1.3 1.2,-2.5 1.2,-3.5c0,-1.5 -0.5,-2.8 -1.6,-3.8c-1.1,-1 -2.4,-1.5 -3.9,-1.5c-3.3,0 -5.2,1.9 -5.6,5.8l-4.9,0c0.8,-6.8 4.2,-10.2 10.4,-10.2c3,0 5.4,0.9 7.4,2.8c2,1.9 3,4.2 3,7c0,1.8 -0.5,3.5 -1.4,5.2c-0.5,0.9 -1.2,1.9 -2.1,3.1c-0.9,1.2 -2.1,2.6 -3.5,4.3l-5.1,5.8z"
              fill="#231F20"/>
        <path id="svg_138"
              d="m329.5,194.8l0,-4.2c2.1,0 3.5,-0.2 4.2,-0.7c1.3,-0.8 1.9,-2.1 1.9,-3.9c0,-1.4 -0.5,-2.5 -1.4,-3.4c-0.9,-0.9 -2.1,-1.3 -3.5,-1.3c-1.4,0 -2.4,0.3 -3.1,1c-0.7,0.7 -1.2,1.8 -1.6,3.4l-4.9,0c0.5,-3.1 1.5,-5.3 3.1,-6.7c1.6,-1.4 3.8,-2.1 6.6,-2.1c2.8,0 5.2,0.8 6.9,2.5c1.8,1.7 2.7,3.8 2.7,6.4c0,3 -1.2,5.3 -3.5,6.9c2.7,1.6 4.1,4.1 4.1,7.7c0,2.9 -1,5.3 -3,7.1s-4.5,2.8 -7.5,2.8c-3.9,0 -6.8,-1.4 -8.7,-4.3c-0.8,-1.2 -1.3,-2.9 -1.5,-5l4.7,0c0.3,1.6 0.9,2.8 1.8,3.6c1,0.8 2.2,1.2 3.8,1.2c1.6,0 2.9,-0.5 3.9,-1.6c1,-1.1 1.6,-2.4 1.6,-4.1c0,-2.2 -0.8,-3.7 -2.3,-4.7c-0.9,-0.3 -2.4,-0.6 -4.3,-0.6z"
              fill="#231F20"/>
        <path id="svg_140"
              d="m53.7,211l-3.6,-2.7l7.7,-10.6c-0.4,0.1 -0.8,0.1 -1.1,0.1s-0.5,0 -0.7,0c-2.6,0 -4.9,-1 -6.8,-3c-1.9,-2 -2.9,-4.4 -2.9,-7.2c0,-3 1.1,-5.5 3.2,-7.6c2.1,-2.1 4.7,-3.2 7.6,-3.2c3,0 5.5,1 7.7,3.1c2.2,2.1 3.3,4.5 3.3,7.4c0,2.5 -1.1,5.2 -3.2,8.2l-11.2,15.5zm-2.5,-23.6c0,1.8 0.6,3.2 1.8,4.4c1.2,1.2 2.7,1.8 4.3,1.8c1.7,0 3.1,-0.6 4.3,-1.8c1.2,-1.2 1.8,-2.7 1.8,-4.3c0,-1.7 -0.6,-3.1 -1.8,-4.3c-1.2,-1.2 -2.6,-1.8 -4.3,-1.8c-1.7,0 -3.1,0.6 -4.3,1.8c-1.2,1.1 -1.8,2.5 -1.8,4.2z"
              fill="#231F20"/>
        <path id="svg_142"
              d="m73.6,260.3c-2.4,-1.7 -3.6,-4 -3.6,-6.9c0,-2.6 0.9,-4.8 2.7,-6.6c1.8,-1.8 4.1,-2.6 6.8,-2.6c2.7,0 4.9,0.9 6.7,2.6c1.8,1.8 2.7,4 2.7,6.6c0,2.8 -1.2,5.1 -3.5,6.8c1.3,0.7 2.3,1.7 3.1,3.1c0.8,1.3 1.2,2.9 1.2,4.5c0,2.9 -0.9,5.2 -2.8,7.1c-1.9,1.8 -4.3,2.8 -7.2,2.8c-3,0 -5.5,-0.9 -7.4,-2.8c-2,-1.8 -2.9,-4.2 -2.9,-7c-0.2,-3.6 1.2,-6.1 4.2,-7.6zm0.4,7.5c0,1.5 0.5,2.8 1.6,3.9c1,1.1 2.3,1.6 3.8,1.6c1.5,0 2.7,-0.5 3.8,-1.6c1,-1.1 1.6,-2.3 1.6,-3.8c0,-1.5 -0.5,-2.8 -1.6,-3.8s-2.3,-1.6 -3.8,-1.6c-1.5,0 -2.7,0.5 -3.8,1.6c-1.1,1 -1.6,2.3 -1.6,3.7zm0.6,-14.3c0,1.4 0.5,2.5 1.4,3.5c1,1 2.1,1.4 3.4,1.4c1.3,0 2.5,-0.5 3.4,-1.4s1.4,-2.1 1.4,-3.4c0,-1.3 -0.5,-2.5 -1.4,-3.4s-2.1,-1.4 -3.4,-1.4c-1.3,0 -2.5,0.5 -3.4,1.4s-1.4,2 -1.4,3.3z"
              fill="#231F20"/>
        <path id="svg_144" d="m135.3,292.7l-16,0l0,-4.6l24.2,0l-20.5,33.5l-3.9,-2.5l16.2,-26.4z" fill="#231F20"/>
        <path id="svg_146" d="m59.1,118.7l-5.6,0l2.7,-4.6l7.8,0l0,32.4l-4.9,0l0,-27.8z" fill="#231F20"/>
        <path id="svg_147"
              d="m73.2,130.1c0,-5.2 1.2,-9.3 3.6,-12.4c2.2,-2.8 4.8,-4.2 7.8,-4.2s5.7,1.4 7.8,4.2c2.4,3.1 3.6,7.3 3.6,12.6c0,5.3 -1.2,9.5 -3.6,12.6c-2.2,2.8 -4.8,4.2 -7.8,4.2s-5.7,-1.4 -7.9,-4.2c-2.3,-3.1 -3.5,-7.4 -3.5,-12.8zm4.9,0c0,3.6 0.6,6.6 1.9,9c1.2,2.3 2.8,3.5 4.8,3.5c1.9,0 3.5,-1.2 4.8,-3.5c1.3,-2.3 1.9,-5.3 1.9,-8.8c0,-3.5 -0.6,-6.5 -1.9,-8.8c-1.3,-2.3 -2.8,-3.5 -4.8,-3.5c-1.9,0 -3.5,1.2 -4.7,3.5c-1.4,2.3 -2,5.2 -2,8.6z"
              fill="#231F20"/>
        <path id="svg_149" d="m119.3,69.7l-5.6,0l2.7,-4.6l7.8,0l0,32.4l-4.9,0l0,-27.8z" fill="#231F20"/>
        <path id="svg_150" d="m139.5,69.7l-5.6,0l2.7,-4.6l7.8,0l0,32.4l-4.9,0l0,-27.8z" fill="#231F20"/>
        <path id="svg_152"
              d="m315.6,264.5l3.4,0l0,4.5l-3.4,0l0,4.6l-4.9,0l0,-4.6l-15.9,0l20.8,-30.2l0,25.7zm-4.9,0l0,-10.9l-7.5,10.9l7.5,0z"
              fill="#231F20"/>
        <path id="svg_154"
              d="m271,293.4l-10,0l-1.6,5.4c0.2,0 0.5,0 0.7,-0.1c0.2,0 0.4,0 0.6,0c3.1,0 5.7,1.1 7.7,3.2c2,2.1 3,4.8 3,8.1c0,3.4 -1.1,6.2 -3.4,8.4c-2.3,2.2 -5.2,3.3 -8.7,3.3c-4.3,0 -7.7,-2 -10.2,-6l3.7,-3.1c1,1.7 2,3 3.1,3.7c1,0.7 2.3,1 3.8,1c2,0 3.6,-0.7 4.9,-2.1c1.3,-1.4 2,-3.1 2,-5.1c0,-2.1 -0.7,-3.8 -2,-5.1c-1.3,-1.4 -3,-2 -4.9,-2c-2.2,0 -4.1,1 -5.7,2.9l-1.6,0l5.1,-17l13.5,0l0,4.5z"
              fill="#231F20"/>
        <path id="svg_156"
              d="m197.3,308.3l3.6,2.7l-7.7,10.5c0.4,-0.1 0.8,-0.1 1.1,-0.1c0.3,0 0.5,0 0.7,0c2.6,0 4.9,1 6.8,3c1.9,2 2.9,4.4 2.9,7.2c0,3 -1.1,5.5 -3.2,7.6c-2.1,2.1 -4.7,3.2 -7.6,3.2c-2.9,0 -5.5,-1 -7.7,-3.1c-2.2,-2.1 -3.3,-4.6 -3.3,-7.4c0,-2.6 1.1,-5.3 3.2,-8.1l11.2,-15.5zm2.5,23.6c0,-1.7 -0.6,-3.2 -1.8,-4.4c-1.2,-1.2 -2.7,-1.8 -4.3,-1.8c-1.7,0 -3.2,0.6 -4.3,1.8c-1.2,1.2 -1.8,2.6 -1.8,4.3c0,1.7 0.6,3.1 1.8,4.3c1.2,1.2 2.6,1.8 4.4,1.8c1.7,0 3.1,-0.6 4.3,-1.8c1.1,-1.1 1.7,-2.6 1.7,-4.2z"
              fill="#231F20"/>
        <polygon stroke="url(#hourBorder)" transform="rotate(-150.8898468017578 154.56951904296875,217.0337066650391) "
                 id="svg_158"
                 points="141.99099731445312,250.20250362157822 132.89801025390625,244.95250362157822 167.14801025390625,185.63151973485947 174.287841796875,183.86491817235947 176.24102783203125,190.8815044760704 "
                 class="hourHand"/>
        <path id="svg_161"
              d="m203.8,191.3c1.2,7.4 -5.1,13.7 -12.5,12.5c-4.5,-0.7 -8.1,-4.3 -8.8,-8.8c-1.2,-7.4 5.1,-13.7 12.5,-12.5c4.5,0.7 8.1,4.3 8.8,8.8z"
              fill="#000000"/>
        <path id="svg_162"
              d="m204.8,191.2c-0.8,-4.9 -4.7,-8.8 -9.6,-9.6c-8,-1.3 -14.9,5.5 -13.6,13.6c0.8,4.9 4.7,8.8 9.6,9.6c8,1.3 14.9,-5.6 13.6,-13.6zm-13,10.1c-3.4,-0.6 -6.2,-3.3 -6.7,-6.7c-0.9,-5.7 3.9,-10.5 9.5,-9.5c3.4,0.6 6.2,3.3 6.7,6.7c1,5.6 -3.8,10.4 -9.5,9.5z"
              fill="#ffffff" class="centerOutline"/>
        <text font-weight="bold" stroke="null"
              transform="matrix(7.3950462341308585,0,0,6.509042263031006,-1532.322482585907,-1295.8149237235848) "
              xml:space="preserve" text-anchor="start"
              font-family="'Palatino Linotype', 'Book Antiqua', Palatino, serif" font-size="2" id="svg_163"
              y="242.953573" x="228.093929" stroke-opacity="null" stroke-width="0" fill="#444444">Fluent Brains</text>
        <path id="svg_4" d="m202.485821,166.890251" opacity="0.5" fill-opacity="null" stroke-opacity="null"
              stroke-width="null" stroke="null" fill="#ED9572"/>
        <polygon id="svg_157" points="196.2,193 190.2,193 190.2,93.2 193.2,90.2 196.2,93.2 " class="minuteHand"/>
    </g>
</svg>
