<svg id="angel-q12" xmlns="http://www.w3.org/2000/svg" viewBox="0 0 350 292.8">
  <defs>
    <style>
      .cls-1 {
        fill: none;
        stroke: #000;
        stroke-miterlimit: 10;
        stroke-width: 3px;
      }

      .cls-2 {
        font-size: 19px;
        font-family: Verdana;
      }
    </style>
  </defs>
  <title>q12-angel</title>
  <g id="Layer_6" data-name="Layer 6">
    <line class="cls-1" x1="2" y1="198.5" x2="348" y2="94.4"/>
    <polyline class="cls-1" points="7.2 187.8 2 198.5 12.7 203.7"/>
    <polyline class="cls-1" points="342.8 105 348 94.4 337.3 89.1"/>
    <line class="cls-1" x1="22" y1="196.2" x2="19.5" y2="189.4"/>
    <line class="cls-1" x1="334.2" y1="102.4" x2="331.8" y2="95.6"/>
  </g>
  <g id="Layer_7" data-name="Layer 7">
    <line class="cls-1" x1="30.2" y1="254.5" x2="319.8" y2="38.3"/>
    <polyline class="cls-1" points="31.5 242.7 30.2 254.5 42 255.7"/>
    <polyline class="cls-1" points="318.5 50.1 319.8 38.3 308 37.1"/>
    <line class="cls-1" x1="48.2" y1="245.5" x2="43.6" y2="240"/>
    <line class="cls-1" x1="309.6" y1="50.6" x2="305" y2="45.1"/>
    <line class="cls-1" x1="283.1" y1="291.2" x2="66.9" y2="1.7"/>
    <polyline class="cls-1" points="271.3 289.9 283.1 291.2 284.3 279.4"/>
    <polyline class="cls-1" points="78.7 2.9 66.9 1.6 65.7 13.5"/>
    <line class="cls-1" x1="274.1" y1="273.2" x2="268.6" y2="277.8"/>
    <line class="cls-1" x1="79.2" y1="11.8" x2="73.7" y2="16.4"/>
  </g>
  <g id="Layer_8" data-name="Layer 8">
    <polyline class="cls-1" points="180.7 155 173.7 160 168.7 153"/>
    <text class="cls-2" transform="translate(276.6 270.6)">P</text>
    <text class="cls-2" transform="translate(51.5 255.8)">Q</text>
    <text class="cls-2" transform="translate(27.4 209.8)">R</text>
    <text class="cls-2" transform="translate(88.6 16.7)">S</text>
    <text class="cls-2" transform="translate(291.2 47.6)">T</text>
    <text class="cls-2" transform="translate(324.2 120.4)">U</text>
    <text class="cls-2" transform="translate(189.7 160.3)">O</text>
  </g>
</svg>
