<?xml version="1.0" ?><svg enable-background="new 0 0 64 64" id="Слой_1" version="1.1" viewBox="0 0 64 64" xml:space="preserve" xmlns="http://www.w3.org/2000/svg" xmlns:xlink="http://www.w3.org/1999/xlink"><g id="row_3"><g id="bathtub"><path d="M54.6,41.4C58,36.1,60,29.8,60,23H32L4,16l7.3,24.3c1,3.4,4.1,5.7,7.7,5.7l27.2,0    C49.6,46,52.8,44.2,54.6,41.4z" fill="#039BE5"/><g><path d="M20.2,53h-0.3c-0.5,0-0.9-0.4-1-0.8L18,47h4l-0.9,5.2C21.1,52.6,20.6,53,20.2,53z" fill="#757575"/><path d="M45.2,53h-0.3c-0.5,0-0.9-0.4-1-0.8L43,47h4l-0.9,5.2C46.1,52.6,45.6,53,45.2,53z" fill="#757575"/></g><g><path d="M23,47h-6c-0.6,0-1-0.4-1-1v0c0-1.7,1.3-3,3-3h2c1.7,0,3,1.3,3,3v0C24,46.6,23.6,47,23,47z" fill="#BDBDBD"/><path d="M48,47h-6c-0.6,0-1-0.4-1-1v0c0-1.7,1.3-3,3-3h2c1.7,0,3,1.3,3,3v0C49,46.6,48.6,47,48,47z" fill="#BDBDBD"/></g><path d="M61.3,25H39.4c-5.1,0-10.1-0.6-15-1.9L2.2,17.6c-1.1-0.3-0.1-4.1,1-3.9l22.2,5.6c4.6,1.1,9.3,1.7,14.1,1.7    h21.9C62.4,21,62.4,25,61.3,25z" fill="#CFD8DC"/></g></g></svg>