<?xml version="1.0" encoding="iso-8859-1"?>
<!-- Generator: Adobe Illustrator 19.0.0, SVG Export Plug-In . SVG Version: 6.00 Build 0)  -->
<svg version="1.1" id="Capa_1" xmlns="http://www.w3.org/2000/svg" xmlns:xlink="http://www.w3.org/1999/xlink" x="0px" y="0px"
	 viewBox="0 0 472 472" style="enable-background:new 0 0 472 472;" xml:space="preserve">
<path style="fill:#737373;" d="M36,144h400v328H36V144z"/>
<path style="fill:#DE4C3C;" d="M388,424H84v-80l32-16h240l32,16V424z"/>
<path style="fill:#D64333;" d="M328.672,328c-53.194,41.918-113.191,74.39-177.376,96H388v-80l-32-16H328.672z"/>
<path style="fill:#4398D1;" d="M4,144h32v328H4V144z"/>
<path style="fill:#3E8CC7;" d="M436,144h32v328h-32V144z"/>
<path style="fill:#4398D1;" d="M468,144H4V80L236,0l232,80V144z"/>
<path style="fill:#87CED9;" d="M356,328H116l27.576-55.152c2.71-5.422,8.25-8.848,14.312-8.848h156.224
	c6.062,0,11.603,3.426,14.312,8.848L356,328z"/>
<g>
	<path style="fill:#5E5E5F;" d="M84,424h48l0,0v32c0,4.418-3.582,8-8,8H92c-4.418,0-8-3.582-8-8V424L84,424z"/>
	<path style="fill:#5E5E5F;" d="M340,424h48l0,0v32c0,4.418-3.582,8-8,8h-32c-4.418,0-8-3.582-8-8V424L340,424z"/>
</g>
<g>
	<path style="fill:#DEDEDE;" d="M124,360h24c4.418,0,8,3.582,8,8v16c0,4.418-3.582,8-8,8h-24c-4.418,0-8-3.582-8-8v-16
		C116,363.582,119.582,360,124,360z"/>
	<path style="fill:#DEDEDE;" d="M324,360h24c4.418,0,8,3.582,8,8v16c0,4.418-3.582,8-8,8h-24c-4.418,0-8-3.582-8-8v-16
		C316,363.582,319.582,360,324,360z"/>
	<path style="fill:#DEDEDE;" d="M36,144h400v64H36V144z"/>
</g>
<path style="fill:#BF362C;" d="M196,360h80c4.418,0,8,3.582,8,8v16c0,4.418-3.582,8-8,8h-80c-4.418,0-8-3.582-8-8v-16
	C188,363.582,191.582,360,196,360z"/>
<path style="fill:#C7C7C7;" d="M36,168h400v16H36V168z"/>
<path style="fill:#71C4D1;" d="M328.424,272.848c-2.71-5.422-8.25-8.848-14.312-8.848H284l-64,64h136L328.424,272.848z"/>
<g>
	<path style="fill:#565657;" d="M84,424h48v16H84V424z"/>
	<path style="fill:#565657;" d="M340,424h48v16h-48V424z"/>
</g>
<path style="fill:#3E8CC7;" d="M468,80L349.496,39.136C300.828,81.648,246.316,116.962,187.624,144H468V80z"/>
<g>
</g>
<g>
</g>
<g>
</g>
<g>
</g>
<g>
</g>
<g>
</g>
<g>
</g>
<g>
</g>
<g>
</g>
<g>
</g>
<g>
</g>
<g>
</g>
<g>
</g>
<g>
</g>
<g>
</g>
</svg>
