<svg width="64" height="64" xmlns="http://www.w3.org/2000/svg">

 <title/>
 <g>
  <title>background</title>
  <rect fill="none" id="canvas_background" height="402" width="582" y="-1" x="-1"/>
 </g>
 <g>
  <title>Layer 1</title>
  <rect fill="#7c6749" id="svg_1" y="40" x="44" width="16" height="22" class="cls-1"/>
  <rect fill="#a58961" id="svg_2" y="40" x="44" width="13" height="22" class="cls-2"/>
  <circle fill="#b5a656" id="svg_3" r="7" cy="10" cx="55" class="cls-3"/>
  <ellipse fill="#f2dd72" id="svg_4" ry="6.83" rx="5.5" cy="10" cx="53.5" class="cls-4"/>
  <path fill="#808080" id="svg_5" d="m57,13a4.93,4.93 0 0 0 -1.09,0.13a5,5 0 0 0 -9.34,-1.4a5,5 0 0 0 -2.57,-0.73a4.94,4.94 0 0 0 -2.71,0.81a6,6 0 0 0 -8.58,0a4.94,4.94 0 0 0 -2.71,-0.81a5,5 0 0 0 -2.57,0.73a5,5 0 0 0 -9.34,1.4a4.93,4.93 0 0 0 -1.09,-0.13a5,5 0 0 0 0,10a5.08,5.08 0 0 0 2.06,-0.45a5,5 0 0 0 9.85,0.32a5,5 0 0 0 6.66,1.4a5,5 0 0 0 9.16,-0.71a5,5 0 0 0 9.18,-1.66a4.93,4.93 0 0 0 3.09,1.1a5,5 0 0 0 0,-10z" class="cls-5"/>
  <path fill="#999999" id="svg_6" d="m57,16a4.93,4.93 0 0 0 -1.09,0.13a5,5 0 0 0 -9.34,-1.4a5,5 0 0 0 -2.57,-0.73a4.94,4.94 0 0 0 -2.71,0.81a6,6 0 0 0 -8.58,0a4.94,4.94 0 0 0 -2.71,-0.81a5,5 0 0 0 -2.57,0.73a5,5 0 0 0 -9.34,1.4a4.93,4.93 0 0 0 -1.09,-0.13a5,5 0 0 0 -4.75,3.5a5,5 0 0 0 4.75,3.5a5.08,5.08 0 0 0 2.06,-0.45a5,5 0 0 0 9.85,0.32a5,5 0 0 0 6.66,1.4a5,5 0 0 0 9.16,-0.71a5,5 0 0 0 9.18,-1.66a4.93,4.93 0 0 0 3.09,1.1a5,5 0 0 0 4.75,-3.5a5,5 0 0 0 -4.75,-3.5z" class="cls-6"/>
  <polygon fill="#534741" id="svg_7" points="18 26 32 12 46 26 18 26" class="cls-7"/>
  <polygon fill="#756c67" id="svg_8" points="18 26 42 26 30 14 18 26" class="cls-8"/>
  <polygon fill="#534741" id="svg_9" points="22 40 12 30 2 40 22 40" class="cls-7"/>
  <path fill="#756c67" id="svg_10" d="m2,40l16,0l-8,-8l-8,8z" class="cls-8"/>
  <polygon fill="#534741" id="svg_11" points="62 40 52 30 42 40 62 40" class="cls-7"/>
  <path fill="#756c67" id="svg_12" d="m42,40l16,0l-8,-8l-8,8z" class="cls-8"/>
  <rect fill="#c68343" id="svg_13" y="26" x="20" width="24" height="36" class="cls-7"/>
  <rect fill="#bf8f63" id="svg_14" y="26" x="20" width="20" height="36" class="cls-9"/>
  <path fill="#8b8b8b" id="svg_15" d="m28,44l0,-10a4,4 0 0 1 4,-4l0,0a4,4 0 0 1 4,4l0,10" class="cls-10"/>
  <path fill="#bababa" id="svg_16" d="m33,34a4,4 0 0 0 -2.5,-3.7a4,4 0 0 0 -2.5,3.7l0,10l5,0l0,-10z" class="cls-11"/>
  <rect fill="#7c6749" id="svg_17" y="40" x="4" width="16" height="22" class="cls-1"/>
  <rect fill="#a58961" id="svg_18" y="40" x="4" width="13" height="22" class="cls-2"/>
  <path fill="#8b8b8b" id="svg_19" d="m32,50l0,0a6,6 0 0 1 6,6l0,6a0,0 0 0 1 0,0l-12,0a0,0 0 0 1 0,0l0,-6a6,6 0 0 1 6,-6z" class="cls-10"/>
  <path fill="#bababa" id="svg_20" d="m30.5,50.2a6,6 0 0 0 -4.5,5.8l0,6l9,0l0,-6a6,6 0 0 0 -4.5,-5.8z" class="cls-11"/>
  <path fill="#8b8b8b" id="svg_21" d="m56,62l0,-5a4,4 0 0 0 -4,-4l0,0a4,4 0 0 0 -4,4l0,5l8,0z" class="cls-10"/>
  <path fill="#bababa" id="svg_22" d="m50.5,53.3a4,4 0 0 0 -2.5,3.7l0,5l5,0l0,-5a4,4 0 0 0 -2.5,-3.7z" class="cls-11"/>
  <path fill="#8b8b8b" id="svg_23" d="m16,62l0,-5a4,4 0 0 0 -4,-4l0,0a4,4 0 0 0 -4,4l0,5l8,0z" class="cls-10"/>
  <path fill="#bababa" id="svg_24" d="m10.5,53.3a4,4 0 0 0 -2.5,3.7l0,5l5,0l0,-5a4,4 0 0 0 -2.5,-3.7z" class="cls-11"/>
  <rect fill="#bababa" id="svg_25" y="44" x="48" width="4" height="5" class="cls-11"/>
  <rect fill="#bababa" id="svg_26" y="44" x="52" width="4" height="5" class="cls-11"/>
  <rect fill="#bababa" id="svg_27" y="44" x="8" width="4" height="5" class="cls-11"/>
  <rect fill="#bababa" id="svg_28" y="44" x="12" width="4" height="5" class="cls-11"/>
  <polygon stroke-width="0.5" stroke-linejoin="round" stroke="#000000" fill="none" id="svg_29" points="18 26 32 12 46 26 18 26" class="cls-12"/>
  <polyline stroke-width="0.5" stroke-linejoin="round" stroke="#000000" fill="none" id="svg_30" points="19.844356536865234,26.3112845569849 19.844356536865234,62.3112845569849 43.844364166259766,62.3112845569849 43.844364166259766,26.3112845569849 " class="cls-12"/>
  <line stroke-width="2px" stroke-linejoin="round" stroke="#000000" fill="none" id="svg_31" y2="44" y1="44" x2="44" x1="20" class="cls-12"/>
  <line stroke-width="2px" stroke-linejoin="round" stroke="#000000" fill="none" id="svg_32" y2="38" y1="38" x2="44" x1="20" class="cls-12"/>
  <line stroke-width="2px" stroke-linejoin="round" stroke="#000000" fill="none" id="svg_33" y2="44" y1="38" x2="24" x1="24" class="cls-12"/>
  <path stroke-width="2px" stroke-linejoin="round" stroke="#000000" fill="none" id="svg_34" d="m28,44l0,-10a4,4 0 0 1 4,-4l0,0a4,4 0 0 1 4,4l0,10" class="cls-12"/>
  <line stroke-width="2px" stroke-linejoin="round" stroke="#000000" fill="none" id="svg_35" y2="44" y1="38" x2="32" x1="32" class="cls-12"/>
  <line stroke-width="2px" stroke-linejoin="round" stroke="#000000" fill="none" id="svg_36" y2="44" y1="38" x2="40" x1="40" class="cls-12"/>
  <path stroke-width="2px" stroke-linejoin="round" stroke="#000000" fill="none" id="svg_37" d="m32,50l0,0a6,6 0 0 1 6,6l0,6a0,0 0 0 1 0,0l-12,0a0,0 0 0 1 0,0l0,-6a6,6 0 0 1 6,-6z" class="cls-12"/>
  <polyline stroke-width="0.5" stroke-linejoin="round" stroke="#000000" fill="none" id="svg_38" points="44 38 52 30 62 40 44 40" class="cls-12"/>
  <polyline stroke-width="0.5" stroke-linejoin="round" stroke="#000000" fill="none" id="svg_39" points="44 62 60 62 60 40" class="cls-12"/>
  <polyline stroke-width="0.5" stroke-linejoin="round" stroke="#000000" fill="none" id="svg_40" points="20 62 4 62 4 40" class="cls-12"/>
  <path stroke-width="2px" stroke-linejoin="round" stroke="#000000" fill="none" id="svg_41" d="m48,62l0,-5a4,4 0 0 1 4,-4l0,0a4,4 0 0 1 4,4l0,5" class="cls-12"/>
  <rect stroke-width="2px" stroke-linejoin="round" stroke="#000000" fill="none" id="svg_42" y="44" x="48" width="8" height="5" class="cls-12"/>
  <line stroke-width="2px" stroke-linejoin="round" stroke="#000000" fill="none" id="svg_43" y2="49" y1="44" x2="52" x1="52" class="cls-12"/>
  <polyline stroke-width="0.5" stroke-linejoin="round" stroke="#000000" fill="none" id="svg_44" points="20 38 12 30 2 40 20 40" class="cls-12"/>
  <path stroke-width="2px" stroke-linejoin="round" stroke="#000000" fill="none" id="svg_45" d="m16,62l0,-5a4,4 0 0 0 -4,-4l0,0a4,4 0 0 0 -4,4l0,5" class="cls-12"/>
  <rect stroke-width="2px" stroke-linejoin="round" stroke="#000000" fill="none" id="svg_46" y="137" x="32" width="8" transform="rotate(-180 24,93) " height="5" class="cls-12"/>
  <line stroke-width="2px" stroke-linejoin="round" stroke="#000000" fill="none" id="svg_47" y2="49" y1="44" x2="12" x1="12" class="cls-12"/>
  <line stroke-width="2px" stroke-linejoin="round" stroke="#000000" fill="none" id="svg_48" y2="1" y1="12" x2="32" x1="32" class="cls-12"/>
  <line stroke-width="2px" stroke-linejoin="round" stroke="#000000" fill="none" id="svg_49" y2="5" y1="5" x2="37" x1="27" class="cls-12"/>
 </g>
</svg>