<?xml version="1.0" ?><svg enable-background="new 0 0 64 64" id="Слой_1" version="1.1" viewBox="0 0 64 64" xml:space="preserve" xmlns="http://www.w3.org/2000/svg" xmlns:xlink="http://www.w3.org/1999/xlink"><g id="row_4"><g id="fireplace"><g><rect fill="#BF360C" height="8" width="9" x="14" y="45"/><rect fill="#E65100" height="8" width="18" x="23" y="45"/><rect fill="#BF360C" height="8" width="9" x="41" y="45"/><rect fill="#E65100" height="8" width="18" x="14" y="21"/><rect fill="#BF360C" height="8" width="18" x="32" y="21"/><rect fill="#E64A19" height="8" width="18" x="32" y="37"/><rect fill="#E65100" height="8" width="18" x="14" y="37"/><rect fill="#E64A19" height="8" width="9" x="14" y="29"/><rect fill="#EF6C00" height="8" width="18" x="23" y="29"/><rect fill="#E65100" height="8" width="9" x="41" y="29"/></g><rect fill="#A1887F" height="20" width="10" x="4" y="23"/><g><g><path d="M15,53H3v-9c0.4-0.4,0.6-0.6,1-1h10c0.4,0.4,0.6,0.6,1,1V53z" fill="#BCAAA4"/><path d="M61,53H49v-9c0.4-0.4,0.6-0.6,1-1h10c0.4,0.4,0.6,0.6,1,1V53z" fill="#BCAAA4"/></g></g><rect fill="#A1887F" height="20" width="10" x="50" y="23"/><rect fill="#BCAAA4" height="2" width="58" x="3" y="21"/><rect fill="#BCAAA4" height="2" width="58" x="3" y="13"/><rect fill="#A1887F" height="6" width="56" x="4" y="15"/><path d="M61,13H3c-0.6,0-1-0.4-1-1v-1h60v1C62,12.6,61.6,13,61,13z" fill="#D7CCC8"/><rect fill="#3E2723" height="4" width="34" x="15" y="49"/><path d="M21.9,43.8C21.1,45.5,21.5,49,23,49h18c1.5,0,1.9-3.5,1.1-5.2c-3,1.7-6.4,2.7-10.1,2.7    S24.9,45.5,21.9,43.8z" fill="#3E2723"/><path d="M41,43H23c-0.5,0-0.8,0.3-1.1,0.8c3,1.7,6.4,2.7,10.1,2.7s7.1-1,10.1-2.7C41.8,43.3,41.5,43,41,43z" fill="#EF6C00"/><g><path d="M37.7,36.9L37.7,36.9C36.6,34.9,36,32.5,36,30c0-1.7,0.3-3.4,0.9-5c-3.3,0.3-5.9,3.1-5.9,6.5     c0,0.4,0,0.9,0.1,1.3c-1.1-1.8-3-3.1-5.3-3.2c0.9,1.1,1.4,2.5,1.4,4c0,1.2-0.3,2.3-0.9,3.2c-0.5,1-0.9,2.1-0.9,3.2     c0,3.6,2.9,6.5,6.5,6.5s6.5-2.9,6.5-6.5C38.5,38.9,38.2,37.8,37.7,36.9z" fill="#FB8C00"/><path d="M30.5,34.7C30.5,34.7,30.5,34.7,30.5,34.7c0.5,0.4,1.2,0.2,1.3-0.4c0.2-0.8,0.5-1.5,0.9-2.2     c0.5-0.9,2-0.5,1.9,0.5l0,0c0,2.3,0.5,4.5,1.6,6.4c0.4,0.7,0.6,1.5,0.6,2.3c0,2.6-2.1,4.8-4.8,4.8s-4.8-2.1-4.8-4.8     c0-0.8,0.2-1.6,0.6-2.4c0.6-1,0.9-2.1,0.9-3.2c0,0,0-0.1,0-0.1C28.7,34.6,29.8,34.1,30.5,34.7z" fill="#FFEA00"/><path d="M35.3,42.8c0,1.8-1.5,3.3-3.3,3.3s-3.3-1.5-3.3-3.3s1.5-4.1,3.3-4.1S35.3,41,35.3,42.8z" fill="#FFFDE7"/></g></g></g></svg>