<?xml version="1.0" ?><svg id="Layer_1" style="enable-background:new 0 0 48 48;" version="1.1" viewBox="0 0 48 48" xml:space="preserve" xmlns="http://www.w3.org/2000/svg" xmlns:xlink="http://www.w3.org/1999/xlink"><style type="text/css">
	.st0{fill:#FF7170;}
	.st1{fill:#FFFFFF;}
	.st2{fill:#FFBEA0;}
	.st3{fill:#AD9DC4;}
	.st4{fill:#64D3FF;}
	.st5{fill:#FFBF5B;}
	.st6{fill:#8CCDA5;}
	.st7{fill:#D2E18C;}
	.st8{fill:#E2E2E2;}
	.st9{fill:#2A3883;}
	.st10{fill:none;stroke:#000000;stroke-width:1.5;stroke-miterlimit:10;}
</style><g><g><g><path class="st2" d="M41.1,29.9v-3.5c0-7.5-6.1-13.6-13.6-13.6H14.7l-4.6,0.6c0,0-6.5,4.8-8.5,10.3c-0.4,1,0.4,2.1,1.5,2.1h7     l2.6,4h-4c-3.5,0-3.7,3.8-3.7,3.8h14.7c0.8,0,1.2-1.3,0.7-2.1l-1.1-1.7h7.4c-3.5,0-3.7,3.8-3.7,3.8h14.7c0.8,0,1.2-1.3,0.7-2.1     l-1.1-1.7h0.3H41.1z"/></g><g><path class="st2" d="M14,10c0.6-1.2,1.5-2.2,2.8-2.8h0c0.4-0.2,1,0,1.2,0.4l0,0c0.8,1.7,0.8,3.6,0,5.2h-4.5L14,10z"/></g><g><path class="st2" d="M10.1,7.6L10.1,7.6c-1.4,3-0.2,6.6,2.8,8l0.8,0.4l0.4-0.8c1.4-3,0.2-6.6-2.8-8h0C10.8,7,10.3,7.2,10.1,7.6z"/></g></g><path d="M8.1,17.7c-0.7,0-1.3,0.6-1.3,1.3c0,0.7,0.6,1.3,1.3,1.3c0.7,0,1.3-0.6,1.3-1.3C9.5,18.3,8.9,17.7,8.1,17.7z"/><path d="M42.8,29.1h-0.9v-2.7c0-7.9-6.5-14.4-14.4-14.4h-8.3c0.4-1.6,0.3-3.2-0.4-4.7c-0.2-0.4-0.5-0.7-0.9-0.8   c-0.4-0.1-0.9-0.1-1.3,0.1c-1,0.5-1.8,1.2-2.5,2c-0.6-0.9-1.5-1.6-2.5-2c-0.4-0.2-0.8-0.2-1.3-0.1C9.9,6.6,9.6,6.9,9.4,7.3   c-0.9,1.9-0.9,4,0,5.8c-1.3,1-6.6,5.4-8.4,10.4c-0.3,0.7-0.2,1.5,0.3,2.1c0.4,0.6,1.2,1,1.9,1h6.6l1.6,2.5H8.8   c-3.3,0-4.4,3-4.5,4.5l0,0.8h15.5c0.6,0,1.1-0.3,1.4-0.9c0.4-0.7,0.4-1.7-0.1-2.4l-0.3-0.5h2.7c-0.8,1-1.1,2.2-1.2,3l0,0.8h15.5   c0.6,0,1.1-0.3,1.4-0.9c0.4-0.7,0.4-1.7-0.1-2.4l-0.3-0.5h1.3h1.8h0.9c1.6,0,3,1.3,3,3s-1.3,3-3,3H9.9c-2.8,0-5.1,2.3-5.1,5.1h1.5   c0-2,1.6-3.6,3.6-3.6h32.9c2.5,0,4.5-2,4.5-4.5S45.2,29.1,42.8,29.1z M17.2,7.9c0.1,0,0.2,0,0.2,0.1C18,9.2,18,10.7,17.5,12h-2.2   c0-0.6-0.2-1.1-0.4-1.7c0-0.1-0.1-0.2-0.1-0.3C15.4,9.1,16.2,8.3,17.2,7.9z M10.7,7.9c0-0.1,0.1-0.1,0.2-0.1c1.3,0.6,2.2,1.7,2.7,3   c0.5,1.3,0.4,2.7-0.2,4L13.3,15l-0.1-0.1C10.6,13.7,9.5,10.5,10.7,7.9z M40.1,29.1h-2.2l-0.5-0.8L36,29.1l1.8,2.9   c0.1,0.2,0.2,0.5,0.1,0.7c-0.1,0.2-0.1,0.3-0.1,0.3H23.9c0.2-0.9,0.9-2.3,2.8-2.3h5.4v-1.5H19.8l-0.5-0.8L18,29.1l1.8,2.9   c0.1,0.2,0.2,0.5,0.1,0.7c-0.1,0.2-0.1,0.3-0.1,0.3H5.9c0.2-0.9,0.9-2.3,2.8-2.3h3.5h0.4h1.6v-1.5h-1.1l-2.6-4H3.1   c-0.3,0-0.5-0.1-0.7-0.4c-0.2-0.2-0.2-0.5-0.1-0.8c1.6-4.5,6.4-8.5,7.8-9.6c0.6,0.8,1.4,1.5,2.4,2L14,17l0.7-1.5   c0.3-0.6,0.5-1.3,0.6-2h12.1c7.1,0,12.9,5.8,12.9,12.9v2.7H40.1z"/></g></svg>