<?xml version="1.0" ?><svg enable-background="new 0 0 64 64" id="Слой_1" version="1.1" viewBox="0 0 64 64" xml:space="preserve" xmlns="http://www.w3.org/2000/svg" xmlns:xlink="http://www.w3.org/1999/xlink"><g id="row_3"><g id="gasstove_x5F_n_x5F_oven"><g><rect fill="#757575" height="3" width="2" x="15" y="58"/><rect fill="#757575" height="3" width="2" x="47" y="58"/></g><rect fill="#424242" height="22" width="42" x="11" y="32"/><g><rect fill="#BDBDBD" height="10" width="42" x="11" y="22"/><rect fill="#BDBDBD" height="4" width="42" x="11" y="54"/><rect fill="#E0E0E0" height="20" width="34" x="11" y="33"/><rect fill="#E0E0E0" height="20" width="7" x="46" y="33"/></g><g><circle cx="49.5" cy="45.5" fill="#F44336" r="2.5"/><path d="M50,44.1V45c0,0.7-1,0.7-1,0v-0.9c-0.6,0.2-1,0.8-1,1.4c0,0.8,0.7,1.5,1.5,1.5s1.5-0.7,1.5-1.5     C51,44.8,50.6,44.3,50,44.1z" fill="#424242"/></g><g><circle cx="19.5" cy="27.5" fill="#F44336" r="2.5"/><path d="M20,26.1V27c0,0.7-1,0.7-1,0v-0.9c-0.6,0.2-1,0.8-1,1.4c0,0.8,0.7,1.5,1.5,1.5s1.5-0.7,1.5-1.5     C21,26.8,20.6,26.3,20,26.1z" fill="#424242"/></g><g><circle cx="44.5" cy="27.5" fill="#F44336" r="2.5"/><path d="M45,26.1V27c0,0.7-1,0.7-1,0v-0.9c-0.6,0.2-1,0.8-1,1.4c0,0.8,0.7,1.5,1.5,1.5s1.5-0.7,1.5-1.5     C46,26.8,45.6,26.3,45,26.1z" fill="#424242"/></g><g><circle cx="27.5" cy="27.5" fill="#F44336" r="2.5"/><path d="M28,26.1V27c0,0.7-1,0.7-1,0v-0.9c-0.6,0.2-1,0.8-1,1.4c0,0.8,0.7,1.5,1.5,1.5s1.5-0.7,1.5-1.5     C29,26.8,28.6,26.3,28,26.1z" fill="#424242"/></g><g><circle cx="36.5" cy="27.5" fill="#F44336" r="2.5"/><path d="M37,26.1V27c0,0.7-1,0.7-1,0v-0.9c-0.6,0.2-1,0.8-1,1.4c0,0.8,0.7,1.5,1.5,1.5s1.5-0.7,1.5-1.5     C38,26.8,37.6,26.3,37,26.1z" fill="#424242"/></g><circle cx="49.5" cy="39" fill="#424242" r="1"/><path d="M38,37H18c-0.6,0-1-0.4-1-1l0,0c0-0.6,0.4-1,1-1h20c0.6,0,1,0.4,1,1l0,0C39,36.6,38.6,37,38,37z" fill="#424242"/><path d="M53,22H11c-0.6,0-1-0.4-1-1v-2c0-0.6,0.4-1,1-1h42c0.6,0,1,0.4,1,1v2C54,21.6,53.6,22,53,22z" fill="#E0E0E0"/><path d="M49,3H15c-2.2,0-4,1.8-4,4v11h42V7C53,4.8,51.2,3,49,3z" fill="#EEEEEE"/><g><path d="M18,16h-2c-1.1,0-2,0.9-2,2v0h5v-1C19,16.4,18.6,16,18,16z" fill="#424242"/><path d="M25,18h5v0c0-1.1-0.9-2-2-2h-2c-0.6,0-1,0.4-1,1V18z" fill="#424242"/><path d="M23,18h-2v-1c0-0.6,0.4-1,1-1h0c0.6,0,1,0.4,1,1V18z" fill="#424242"/></g><g><path d="M45,17v1h5v0c0-1.1-0.9-2-2-2h-2C45.4,16,45,16.4,45,17z" fill="#424242"/><path d="M38,16h-2c-1.1,0-2,0.9-2,2v0h5v-1C39,16.4,38.6,16,38,16z" fill="#424242"/><path d="M43,18h-2v-1c0-0.6,0.4-1,1-1l0,0c0.6,0,1,0.4,1,1V18z" fill="#424242"/></g></g></g></svg>