<?xml version="1.0" encoding="utf-8"?>

<!DOCTYPE svg PUBLIC "-//W3C//DTD SVG 1.1//EN" "http://www.w3.org/Graphics/SVG/1.1/DTD/svg11.dtd">
<svg version="1.1" id="Layer_1" xmlns="http://www.w3.org/2000/svg" xmlns:xlink="http://www.w3.org/1999/xlink" x="0px" y="0px"
	 viewBox="-331.662 -706.0834 1259.5442 2249.3235" enable-background="new -331.662 -706.0834 1259.5442 2249.3235"
	 xml:space="preserve">
<g>
	<path fill="#F0977C" d="M120.57,362.6035c-18.258,12.564-62.289,119.211-89.211,121.338c-32.073,2.52-74.298-80.64-86.772-100.752
		c-17.208-27.738-17.697-28.842-4.803-52.254c14.412-26.154,61.245-56.892,33.387-76.62c-17.421-12.345-33.261,17.322-47.118,29.772
		c-3.138-16.71,8.934-77.103-14.982-80.4361c-33.123-4.602-22.995,58.926-26.064,75.1231c-6.495-14.766-23.058-71.973-54.741-47.526
		c-19.035,14.7,21.525,48.6391,24.447,68.961c-8.625-10.962-39.714-59.4-63.579-37.998c-16.677,14.967,21.783,47.487,30.402,59.763
		c-10.743-8.016-60.153-24.912-60.153-6.573c0,29.949,83.319,39.948,99.735,56.382c43.539,43.533,115.365,254.064,202.014,205.5179
		c29.778-16.689,134.178-127.584,139.773-162.567c6.003-37.566-67.791-80.427-88.299-46.041"/>
	<path fill="#F0977C" d="M292.6799,911.7534c-24.771,54.5911-47.106,121.9019-46.077,185.2439
		c1.011,62.5081,42.132,41.979,62.385,97.6292c13.647,37.506-0.951,120.204,36.549,120.141
		c37.227-0.0391,55.938,4.3229,53.778-36.324c-3.21-60.1169-26.76-118.233-29.922-178.389
		c-1.854-35.4031,70.212-132.069,75.345-155.184c15.12-68.2621-117.867-70.0739-155.364-33.117"/>
	<path d="M174.6,1419.9835c1.131-6.462-3.054-12.5551-9.336-13.665c-6.276-1.1071-12.291,3.228-13.407,9.687l-2.106,11.9879
		c-1.131,6.4441,3.054,12.5431,9.327,13.6439c6.282,1.1011,12.294-3.2279,13.413-9.663l2.1-12L174.6,1419.9835z"/>
	<path d="M216.24,1421.0635c0.417-6.5281-4.407-12.135-10.752-12.5431c-6.342-0.399-11.823,4.563-12.237,11.1061l-0.771,12.141
		c-0.42,6.5249,4.395,12.1381,10.746,12.552c6.348,0.3811,11.826-4.563,12.24-11.0911l0.78-12.1499L216.24,1421.0635z"/>
	<path d="M295.92,1407.8635c-1.338-6.408-7.485-10.5269-13.707-9.2161c-6.219,1.296-10.179,7.548-8.832,13.953l2.517,11.9249
		c1.338,6.399,7.479,10.5121,13.71,9.2101c6.207-1.311,10.176-7.557,8.829-13.968l-2.52-11.9099L295.92,1407.8635z"/>
	<path d="M333.6,1398.9235c-1.356-6.3961-7.497-10.527-13.719-9.204c-6.225,1.302-10.176,7.554-8.835,13.959l2.517,11.907
		c1.341,6.4141,7.488,10.5179,13.704,9.228c6.216-1.3319,10.182-7.5659,8.841-13.9591l-2.52-11.9399L333.6,1398.9235z"/>
	<path d="M371.04,1383.3834c-1.353-6.4139-7.494-10.533-13.719-9.21c-6.216,1.311-10.182,7.554-8.82,13.959l2.505,11.907
		c1.341,6.405,7.485,10.53,13.71,9.228c6.216-1.326,10.182-7.563,8.841-13.953l-2.52-11.9399L371.04,1383.3834z"/>
	<path fill="#EE3135" d="M243.48,1062.0535c6.165,19.6589,31.839,23.4811,49.692,26.7871c20.223,3.726,42.174,1.6589,63.018,1.8571
		c12.564,0.123,13.806-1.134,14.4,10.437c0.42,8.202,29.133,153.7321,28.569,168.171c-0.273,7.3859-3.168,37.614-15.249,41.766
		c-18.276,6.2909-40.539,3.687-59.052,0.219c-21.36-4.002-52.968-69.3779-56.148-90.498
		c-2.721-18.015-27.141-132.7679-27.141-153.9661"/>
	<path fill="#2451A4" d="M248.19,1052.9036c5.055,1.2781,52.1699,23.7001,64.683,25.803c14.484,2.4181,49.224,6.399,61.647-1.842
		c23.85,33.714-50.565,27.561-64.872,26.076c-17.553-1.812-66.933-22.8629-69.8609-29.9639c-2.49-6.0601-0.45-20.0701,8.4-20.0701"
		/>
	<path fill="#683996" d="M335.46,1244.7534c-6.87-3.525-52.065-7.4249-53.406-1.0499c-1.821,8.6221,6.501,40.083,10.23,47.7599
		c3.513,7.2571,37.788,3.7231,38.961,11.697c1.068,7.296,0.348,14.907,1.59,22.038c3.45-0.048,5.634-15.624,6.717-19.3829
		c2.22-7.701,8.679-56.4301-3.21-61.14"/>
	<path fill="none" stroke="#CEDD3E" stroke-width="5.7693" stroke-linecap="round" stroke-linejoin="round" d="M297.12,1292.1235
		c2.139-7.7551,1.29-18.2999,0.327-26.532c-1.167-9.8521-5.193-19.2571-15.384-21.8671c-9.984-2.547-21.483,1.8149-22.716,12.7891
		c-1.389,12.408,5.124,19.6381,14.322,26.502c5.511,4.1039,17.133,13.155,24.492,11.178c-0.018-0.8309-0.537-0.3871-0.918-0.7289"/>
	<path fill="none" stroke="#CEDD3E" stroke-width="5.7693" stroke-linecap="round" stroke-linejoin="round" d="M290.76,1289.7235
		c0.132-8.031-3.336-18.036-6.33-25.7759c-3.588-9.228-9.84-17.337-20.37-17.313c-10.296,0.033-20.343,7.1339-18.792,18.0659
		c1.764,12.342,9.885,17.724,20.502,22.0559c6.369,2.6221,19.89,8.4751,26.514,4.698c-0.228-0.8011-0.618-0.2251-1.086-0.4709"/>
	<path fill="none" stroke="#CEDD3E" stroke-width="5.7693" stroke-linecap="round" stroke-linejoin="round" d="M283.26,1295.6334
		c-0.237-7.6499-55.3139-6.567-66.057-5.6071"/>
	<path fill="none" stroke="#CEDD3E" stroke-width="5.7693" stroke-linecap="round" stroke-linejoin="round" d="M276.72,1294.3735
		c-0.237-7.65-22.971-12.063-28.6229-13.014c-10.536-1.791-20.88-0.501-31.626,0.4559"/>
	<path fill="#9456A2" d="M339.24,1318.9735c20.661-3.0089,40.779-2.547,60.45-5.4569c0.213-4.005-0.063-18.5819-5.058-18.9569
		c-8.439-0.6119-43.863,1.3801-51.798,3.9569c-6.564,2.142-7.461,13.3469-5.97,20.592c0.495,0.0959,0.921-0.114,1.398-0.0389"/>
	<path fill="#683996" d="M329.1,1292.9634c-62.751,9.5339-192.648-11.037-235.05,83.7571
		c-36.462,81.5399,257.862,36.423,293.526-3.0809c17.043-18.87,12.711-86.7931,11.478-114.933
		c-0.135-3.0869-32.571,2.166-53.067,4.4581c-18.66,2.094-10.764,28.584-19.467,29.9639"/>
	<path fill="#2156A7" d="M195.12,1303.8234c2.751,7.47,5.697,19.509,11.028,24.4709c6.669,6.2069,15.915,7.026,23.478,8.2711
		c20.499,3.3239,82.4939-6.993,86.676-7.6439c5.427-0.8309,10.785-2.4271,16.206-3.3031c-0.438-9.6749-0.111-24.156-4.206-32.646
		c-3.72,0.5099-129.8999,7.6499-133.2,10.83"/>
	<path fill="#DEE44B" d="M291.15,1297.1034c2.745,5.5441,8.349,22.3319,10.581,23.28c2.112,0.8971,5.673-0.438,7.26-1.656
		c0.66-0.5099-5.55-13.953-6.21-15.3209c-2.406-5.076-4.941-6.858-10.815-7.2631"/>
	<path fill="#DEE44B" d="M272.58,1298.7534c2.751,5.5559,8.346,22.3319,10.581,23.286c2.115,0.9031,5.676-0.4501,7.266-1.6681
		c0.657-0.498-5.559-13.9469-6.207-15.3091c-2.406-5.085-4.947-6.879-10.821-7.272"/>
	<path fill="#DEE44B" d="M253.53,1300.4634c2.7479,5.562,8.343,22.3319,10.584,23.2861c2.115,0.9031,5.673-0.4441,7.254-1.671
		c0.663-0.495-5.55-13.9441-6.204-15.324c-2.406-5.061-4.947-6.858-10.815-7.251"/>
	<path fill="#DEE44B" d="M232.62,1302.3234c2.748,5.5531,8.343,22.326,10.59,23.2891c2.103,0.897,5.673-0.4501,7.254-1.656
		c0.66-0.525-5.547-13.947-6.198-15.3481c-2.415-5.061-4.953-6.8549-10.83-7.251"/>
	<path fill="#F0977C" d="M540.09,924.1136c-16.023,57.7711-32.415,131.007-16.806,190.1429
		c15.243,57.717,36.069,111.621,64.719,163.467c19.296,34.938,29.7479,42.1951,66.792,36.33
		c36.7681-5.826,55.944-4.428,47.496-44.2321c-12.4951-58.8989-44.772-112.6649-57.222-171.5879
		c-7.329-34.689,48.876-141.3571,50.3461-164.985c4.359-69.798-127.302-50.9581-158.595-8.6371"/>
	<path d="M501.63,1446.8335c0.117-6.5431-4.968-11.937-11.331-12.045c-6.375-0.1169-11.637,5.0911-11.751,11.64l-0.219,12.1771
		c-0.111,6.5339,4.962,11.9159,11.337,12.0389c6.375,0.1021,11.634-5.0911,11.754-11.6189l0.21-12.2101V1446.8335z"/>
	<path d="M542.94,1441.4634c-0.6-6.5099-6.2371-11.3069-12.564-10.725c-6.321,0.579-10.9711,6.342-10.368,12.864l1.116,12.1321
		c0.609,6.501,6.225,11.2919,12.558,10.71c6.3391-0.6,10.983-6.342,10.374-12.8459l-1.11-12.1199L542.94,1441.4634z"/>
	<path d="M619.62,1416.0234c-2.334-6.0959-9.03-9.2279-14.976-6.9661c-5.949,2.2621-8.892,9.0361-6.564,15.1681l4.338,11.376
		c2.313,6.123,9.021,9.2401,14.967,6.978c5.934-2.2621,8.883-9.0361,6.564-15.1589l-4.35-11.4301L619.62,1416.0234z"/>
	<path d="M655.44,1401.3534c-2.313-6.123-9.033-9.2429-14.97-6.9811c-5.949,2.2561-8.88,9.045-6.564,15.1531l4.335,11.3971
		c2.316,6.123,9.018,9.2161,14.967,6.9811c5.94-2.283,8.892-9.057,6.573-15.1801l-4.32-11.3699L655.44,1401.3534z"/>
	<path d="M689.9999,1380.2335c-2.319-6.123-9.033-9.2369-14.973-6.999c-5.937,2.28-8.883,9.063-6.543,15.1799l4.317,11.376
		c2.3099,6.1141,9.024,9.234,14.976,6.978c5.937-2.2679,8.8799-9.0361,6.564-15.1589l-4.35-11.4L689.9999,1380.2335z"/>
	<path fill="#EE3135" d="M514.17,1082.5734c9.129,18.4559,35.094,18.2581,53.244,18.7411c20.553,0.549,41.91-4.884,62.541-7.923
		c12.42-1.842,13.4641-3.267,15.837,8.064c1.692,8.049,52.626,147.3571,54.321,161.7119c0.858,7.338,2.694,37.6321-8.592,43.635
		c-17.079,9.036-39.483,9.912-58.314,9.3629c-21.717-0.6631-63.081-60.3331-69.504-80.6941
		c-5.481-17.382-47.397-126.9661-50.688-147.8999"/>
	<path fill="#2451A4" d="M517.41,1072.7936c5.178,0.4709,55.215,15.312,67.902,15.438c14.685,0.162,49.623-1.29,60.6121-11.361
		c28.791,29.6071-45.678,35.067-60.045,35.835c-17.619,0.921-69.66-12.2219-73.665-18.783c-3.36-5.61-3.48-19.77,5.25-21.1499"/>
	<path fill="#683996" d="M633.3599,1248.8035c-7.344-2.4329-52.584,0.7321-52.932,7.236c-0.444,8.8051,12.6539,38.595,17.535,45.594
		c4.584,6.618,37.896-2.187,40.2841,5.517c2.196,7.026,2.664,14.67,4.9979,21.5221c3.396-0.573,3.147-16.314,3.621-20.187
		c1.002-7.947-0.168-57.093-12.645-59.8981"/>
	<path fill="none" stroke="#CEDD3E" stroke-width="5.7693" stroke-linecap="round" stroke-linejoin="round" d="M602.8199,1301.5436
		c0.9241-8.0131-1.563-18.2999-3.792-26.28c-2.685-9.531-8.1121-18.2069-18.597-19.212c-10.254-0.9779-20.937,5.118-20.454,16.1461
		c0.555,12.4769,8.1121,18.6208,18.273,23.97c6.072,3.21,18.972,10.344,25.92,7.251c-0.141-0.8251-0.588-0.3031-1.023-0.579"/>
	<path fill="none" stroke="#CEDD3E" stroke-width="5.7693" stroke-linecap="round" stroke-linejoin="round" d="M596.19,1300.1635
		c-1.1041-7.953-6.0811-17.295-10.233-24.4651c-4.992-8.5649-12.4321-15.6029-22.824-13.9469
		c-10.173,1.6169-18.981,10.203-15.756,20.7599c3.654,11.9191,12.5101,15.9719,23.676,18.627
		c6.6929,1.578,20.967,5.2679,26.931,0.51c-0.3541-0.7471-0.657-0.1292-1.164-0.2849"/>
	<path fill="none" stroke="#CEDD3E" stroke-width="5.7693" stroke-linecap="round" stroke-linejoin="round" d="M589.6799,1307.1536
		c-1.413-7.527-55.65,2.0819-66.129,4.6979"/>
	<path fill="none" stroke="#CEDD3E" stroke-width="5.7693" stroke-linecap="round" stroke-linejoin="round" d="M583.02,1306.9135
		c-1.425-7.521-24.561-8.358-30.294-8.424c-10.692-0.129-20.703,2.751-31.1849,5.376"/>
	<path fill="#9456A2" d="M648.6,1321.5234c19.9321-6.1829,39.873-8.85,58.86-14.766c-0.414-3.984-2.949-18.351-7.929-17.937
		c-8.439,0.696-43.125,8.181-50.562,11.949c-6.147,3.1199-5.289,14.334-2.7,21.255c0.504,0.027,0.9-0.2369,1.383-0.27"/>
	<path fill="#683996" d="M634.56,1297.4036c-60.501,19.1519-192.033,18.9629-219.216,119.1991
		c-23.373,86.193,260.403-4.0291,289.5-48.5701c13.899-21.297-0.9-87.72-6.492-115.314c-0.597-3.045-31.8391,7.173-51.72,12.618
		c-18.1201,4.9769-6.21,29.9009-14.61,32.6279"/>
	<path fill="#2156A7" d="M502.6799,1330.1034c3.852,6.936,9.843,17.1781,15.882,21.261c7.545,5.079,16.818,4.467,24.465,4.5121
		c20.784,0.111,80.424-19.7069,84.45-20.985c5.217-1.656,10.281-4.0649,15.504-5.7689c-1.941-9.5071-3.864-23.853-9.222-31.5991
		c-3.54,1.08-122.13,24.4501-131.07,32.5499"/>
	<path fill="#DEE44B" d="M597.72,1307.3635c3.579,5.0551,11.703,20.76,14.064,21.3721c2.235,0.564,5.538-1.3379,6.915-2.7899
		c0.573-0.5851-7.65-12.9121-8.508-14.1749c-3.171-4.635-5.9641-6.0061-11.82-5.484"/>
	<path fill="#DEE44B" d="M579.6,1311.8934c3.5731,5.064,11.7211,20.7689,14.0731,21.36c2.226,0.567,5.538-1.314,6.906-2.766
		c0.567-0.5969-7.644-12.9089-8.508-14.166c-3.162-4.6499-5.949-6.015-11.805-5.499"/>
	<path fill="#DEE44B" d="M561.06,1316.5135c3.5731,5.061,11.697,20.748,14.07,21.366c2.2291,0.5551,5.5261-1.326,6.9091-2.7781
		c0.564-0.6061-7.644-12.9181-8.514-14.1749c-3.168-4.647-5.943-6.015-11.82-5.505"/>
	<path fill="#DEE44B" d="M540.69,1321.5835c3.579,5.061,11.709,20.775,14.079,21.3661c2.22,0.567,5.538-1.314,6.9119-2.7631
		c0.5731-0.594-7.65-12.9181-8.499-14.1749c-3.186-4.641-5.961-6.0211-11.835-5.5051"/>
	<path d="M645.6-477.8165c-31.5209-54.318-236.103-154.812-292.218-155.673c22.344,9.294,38.727,92.151,35.022,113.745
		c-42.588-33.477-257.898-113.814-320.97-113.745c36.099,3.597,61.074,96.822,58.218,130.68
		c-113.673-48.747-171.024-62.403-325.26,32.724c32.031,0.135,68.106,47.673,90.543,68.199
		c-38.463,2.856-124.506,24.357-160.251,38.982c35.805-5.982,53.526,23.553,77.769,51.009
		c-32.184,19.155-59.325,41.445-99.465,81.588c54.543,7.071,127.344-5.82,181.314,14.676
		c-19.179,15.231-83.268,98.103-82.716,119.937c30.075-17.871,79.38-18.201,113.979-15.618c-20.19,20.34-17.121,58.767-15.612,85.41
		c57.015-95.121,174.777-166.563,278.154-182.28c139.221-21.165,579.9,86.244,595.23,90.603c31.491-25.137,24.72-109.926,9.3-141.33
		c24.2761-24.27,85.377-27.879,98.595-11.541c-12.762-23.877-113.703-91.656-129.462-113.982
		c19.476-11.169,80.295-48.075,102.7681-49.713c-59.28-30.048-144.597-46.401-214.95-46.401"/>
	<path fill="#2451A4" d="M524.4299,844.1935c6.048,11.976-20.121,131.58-3.165,135.882c21.783,5.5109,187.272-7.413,191.046-31.5511
		c6.756-43.314,10.0021-95.475,26.523-136.314c13.803-34.1611,24.609-91.6531,7.764-129.228
		c-9.033-20.13-11.493-12.438-33.783-13.38c-22.182-0.939-257.25-4.989-351.6,0c-9.444,0.4951-17.499-0.1769-25.866,4.176
		c6.411,31.9261-51.321,207.516-47.88,241.6921c2.412,23.9581,152.259,67.014,174.192,50.5681
		c26.13-19.5601,43.86-90.72,62.7601-121.7999"/>
	<path fill="#EE3135" d="M687.96,693.6835c2.172,0.96,56.535,59.871,65.3461,62.9071c-0.099,3.087-2.277,12.4709-2.694,15.843
		c-0.666,5.3159-93.483-82.107-84.8071-78.75c5.9401,2.3099,17.73,0.84,22.17,0"/>
	<path fill="#EE3135" d="M325.4099,741.5034c6.897-6.891,33.606-34.914,33.606-38.361c0-3.6749,13.269-0.639,16.95-0.438
		c0.765,6.3149-50.58,52.6589-54.651,55.6049c0.99-3.72,3.33-12.72,4.11-16.7999"/>
	<path fill="#EE3135" d="M268.71,360.6235c0,61.671,31.356,333.09,74.418,341.9399c71.229,14.616,323.94,2.9971,403.4701-19.587
		c-20.211-55.209-76.926-334.05-68.814-314.1c14.121,34.794,118.134,6.978,102.318-41.175c-9.564-29.127-15.951-58.92-32.832-86.013
		c-38.436-61.719-512.55-77.505-560.58-21.03c-41.721,49.083-60.369,96.831-79.47,165.288c43.278,21.216,67.206,52.47,109.845,21
		c24.96-18.39,52.47-48.18,51.63-46.32"/>
	<path fill="#F0977C" d="M832.6799-76.2065c0,34.374-24.195,63.021-56.295,69.282c-7.3649,156.732-170.7,282.018-371.1,282.018
		c-200.184,0-363.3-124.938-371.13-281.376c-3.216,0.459-6.492,0.702-9.885,0.702c-38.472,0-69.63-31.632-69.63-70.626
		c0-38.991,31.158-70.626,69.63-70.626c14.844,0,28.59,4.686,39.873,12.687c56.94-104.178,188.241-177.072,341.13-177.072
		c148.377,0,276.4081,68.628,335.91,167.952c6.843-2.331,14.202-3.567,21.873-3.567c38.46,0,69.6,31.65,69.6,70.62L832.6799-76.2065
		z"/>
	<path d="M66.63-130.9565c-1.341,16.227-11.475,29.292-21.714,40.542c41.094-14.502,141.9181-98.448,155.742-76.047
		c7.929,12.846-3.768,50.349-10.926,59.532c38.88-6.894,166.23-59.589,176.835-64.638c1.755,29.811-10.944,46.77-15.399,73.107
		c74.784-16.56,176.382-48.072,213.123-125.133c30.114,22.638-4.707,84.834-21.489,105.816
		c34.038,2.913,98.406-31.695,119.064-59.316c37.011,21.318,41.238,79.443,30.594,119.049
		c20.085-30.441,62.55-67.074,46.7939-102.717c-3.723,24.726,16.302,43.8,29.6821,64.758
		c32.391-33.795-33.126-201.783-74.154-215.196c-284.043-92.892-191.172-55.389-513.5099-79.812
		c-70.176-5.316-138.117,36.453-178.074,96.096c-24.261,36.201-64.773,119.958-23.967,158.892"/>
	<ellipse opacity="0.4" fill="#EF4450" enable-background="new    " cx="194.97" cy="104.6035" rx="65.343" ry="54.927"/>
	<path fill="#EF4450" d="M282.06,114.8335c39.975,59.28,173.697,32.133,221.484-0.537c12.564,47.688-46.308,113.553-95.847,112.515
		c-46.242-0.987-105.603-59.19-120.171-101.052"/>
	<path opacity="0.4" fill="#EF4450" enable-background="new    " d="M656.55,95.6335c0-30.339-29.25-54.927-65.349-54.927
		c-36.087,0-65.34,24.585-65.34,54.927c0,30.33,29.253,54.921,65.34,54.921c36.09-0.03,65.34-24.6,65.34-54.93L656.55,95.6335z"/>
	<path fill="#DB8671" d="M441.4799,62.4535c0,2.598-0.519,5.166-1.575,7.59c-5.379-12.87-24.024-22.377-46.245-22.377
		c-22.212,0-40.86,9.507-46.242,22.377c-1.053-2.427-1.578-4.992-1.578-7.59c0-16.557,21.396-29.988,47.82-29.988
		c26.43,0.03,47.82,13.44,47.82,30V62.4535z"/>
	<path fill="#FFFFFF" d="M560.76-35.0165c0-22.917-23.5261-41.556-54.4441-41.556s-55.989,18.573-55.989,41.502
		c0,22.911,25.071,41.478,55.989,41.478c30.93,0,54.45-18.51,54.45-41.43L560.76-35.0165z"/>
	<path fill="#66BC46" d="M560.76-35.0165c0-20.46-17.322-37.05-38.688-37.05c-21.351,0-38.676,16.587-38.676,37.05
		s17.322,37.059,38.676,37.059c21.39,0.03,38.7-16.59,38.7-37.05L560.76-35.0165z"/>
	<path d="M550.17-33.1865c0-15.279-9.798-27.654-21.9-27.654c-12.108,0-21.93,12.375-21.93,27.654
		c0,15.273,9.819,27.648,21.93,27.648c12.09,0,21.9-12.39,21.9-27.66V-33.1865z"/>
	<path fill="#FFFFFF" d="M341.79-33.1265c0-22.914-23.508-41.547-54.435-41.547c-30.924,0-55.995,18.567-55.995,41.49
		c0,22.914,25.071,41.478,55.995,41.478c30.93,0,54.45-18.51,54.45-41.43L341.79-33.1265z"/>
	<ellipse fill="#66BC46" cx="303.09" cy="-33.1265" rx="38.679" ry="37.056"/>
	<path d="M331.17-31.2965c0-15.27-9.807-27.648-21.915-27.648c-12.102,0-21.921,12.378-21.921,27.648
		c0,15.279,9.816,27.651,21.921,27.651c12.12,0,21.93-12.36,21.93-27.66L331.17-31.2965z"/>
	<path fill="#FFFFFF" d="M665.16,556.6435c0-96.09-76.3381-173.973-170.5261-173.973c-94.185,0-170.52,77.883-170.52,173.973
		c0,96.066,76.335,173.958,170.52,173.958c94.2,0,170.52-77.88,170.52-173.97L665.16,556.6435z"/>
	<path d="M632.91,605.9635c0,0,26.187-12.483,30.2009-22.011c0,0,6.201-43.845-2.913-68.037c0,0-11.871-18.042-29.727-23.538
		c0,0-13.47,50.28-15.507,56.8259c0,0.03,11.82,29.28,17.9401,56.79L632.91,605.9635z"/>
	<path d="M480.63,706.4036c0,0,11.688,17.5051,27.603,24.2069c0,0,42.522-0.603,79.116-28.158c0,0,5.4241-20.0341,4.59-32.1511
		c0,0-35.2291,1.8-63.186-2.8409c0.03,0.03-14.34,21.12-48.1201,38.97L480.63,706.4036z"/>
	<path d="M589.26,433.0435c0,0-0.24-15.849-8.2291-26.868c0,0-41.853-25.539-83.868-23.337c0,0-9.45,10.671-14.448,16.983
		c0,0,33.423,20.58,42.81,30.549c0,0,24.1201-4.14,63.75,2.7L589.26,433.0435z"/>
	<path d="M345.3,592.1635c0,0-8.544,19.254-7.587,33.678c0,0,13.818,33.924,38.67,56.643c0,0,22.581,3.996,36.378,1.953
		c0,0-17.646-35.046-19.467-58.05c-0.03,0-31.68-12.9-48-34.23L345.3,592.1635z"/>
	<path d="M408.03,423.5935c0,0-11.649-2.172-24.063,0.609c0,0-29.349,22.935-47.04,65.124c0,0,1.368,19.581,7.62,30.57
		c0,0,24.78-30.3,45.186-40.953c0,0,9.72-43.74,18.3-55.35H408.03z"/>
	<path d="M506.46,490.6735c0,0-58.215,17.202-69.057,21.432c0,0-2.79,46.578,2.097,74.793c0,0,45.963,18.819,71.907,21.876
		c0,0,28.8931-38.2531,37.902-61.047c0,0.03-28.74-41.13-42.84-57.03L506.46,490.6735z"/>
	<path fill="#EE3135" d="M646.56,845.9336c-0.792,9.819-1.3019,37.4789-1.983,48.132c12.288-0.5281,33.603,4.602,33.2371,20.5649
		c-0.3541,15.564-22.7521,20.736-35.181,16.32c-0.693,3.8849-1.134,8.1061-1.8781,11.5739c9.702,1.6771,23.646,4.002,33.234,1.0051
		c11.4091-3.5521,17.6431-14.508,19.647-26.733c1.782-10.752-2.5289-21.438-10.626-27.666
		c-3.8489-2.9581-20.5049-7.173-24.204-8.025c-4.284-0.9719-0.129-19.3411,0.624-23.8021c7.755,0.141,35.388,8.0671,38.496,7.275
		c4.68-1.197,4.164-4.9111,4.488-9.7711c-17.82-3.03-37.62-6.6599-55.86-8.9099"/>
	<path fill="#2451A4" d="M113.49,364.6435c1.482,8.943,8.406,14.907,16.386,18.612c8.931,4.137,63.528,24.567,68.313,25.596
		c3.615,0.792,9.279,0.591,12.087,2.706c-2.226,2.226-7.029,12.576-10.05,13.149c-5.427,1.023-5.778-0.477-10.896-0.036
		c-9.114,0.807-76.041-28.161-79.545-31.248c-7.728-6.777-3.723-20.379,1.368-27.858"/>
	<path fill="#F0977C" d="M369.39-81.0665c0,11.178-32.601,20.226-72.801,20.226c-40.215,0-72.813-9.051-72.813-20.226
		c0-11.157,32.595-20.211,72.813-20.211c40.2,0.03,72.81,9.09,72.81,20.22L369.39-81.0665z"/>
	<path fill="#F0977C" d="M567.45-81.0665c0,11.178-32.601,20.226-72.807,20.226c-40.212,0-72.81-9.051-72.81-20.226
		c0-11.157,32.595-20.211,72.81-20.211c40.2,0.03,72.81,9.09,72.81,20.22L567.45-81.0665z"/>
	<path fill="#F0977C" d="M703.83,467.5135c32.847,122.886-66.2131,202.194-97.074,218.856
		c-31.704,17.1181-34.839-42.042-46.041-42.867c-18.108-1.3409-16.2,23.4481-16.038,34.959
		c-22.008-12.783,6.5491-51.933-21.198-56.907c-35.181-6.306-27.396,39.198-27.843,58.311
		c-24.657-13.116,7.254-50.097-9.471-55.6351c-35.661-11.808-33.156,50.925-28.686,63.144c-13.839-2.718-2.547-49.17-14.541-48.351
		c-14.649,1.011-19.557,43.254-15.945,51.219c-8.607-8.733-14.079-13.068-19.527-5.439
		c-30.825,43.056,51.291,89.2081,108.1081,79.929c143.973-23.547,214.53-108.051,234.0209-127.482
		c46.035-45.885,50.0341-118.116,50.868-141.9269c0.36-10.881-13.797-129.36-15.165-145.515
		c-3.819-45.099-118.329-31.227-104.364,24.87c7.59,30.48,14.16,54.93,22.92,92.88"/>
	<path fill="#2451A4" d="M780.39,327.5635c-19.743-13.737-44.748-9.624-66.831-4.866c-14.571,3.156-47.442,14.586-43.656,35.184
		c1.023,5.502,5.9969,13.905,11.031,16.782c0.048-7.755,32.0759-24.975,42.039-26.499c19.44-2.976,43.992-6.225,62.325,1.629
		c-0.09-4.011-4.524-19.362-5.391-23.202"/>
</g>
</svg>
