<svg height="416pt" viewBox="-27 0 416 416.42667" width="416pt" xmlns="http://www.w3.org/2000/svg"><path d="m252.800781 126.292969c0 69.75-56.542969 126.292969-126.292969 126.292969s-126.292968-56.542969-126.292968-126.292969 56.542968-126.292969 126.292968-126.292969 126.292969 56.542969 126.292969 126.292969zm0 0" fill="#e7d1c4"/><path d="m198.1875 150.1875h75.09375v232.105469h-75.09375zm0 0" fill="#6b4f5b"/><path d="m273.28125 389.121094h-75.09375c-3.773438 0-6.828125-3.054688-6.828125-6.828125v-232.105469c0-3.773438 3.054687-6.828125 6.828125-6.828125h75.09375c3.773438 0 6.824219 3.054687 6.824219 6.828125v232.105469c0 3.773437-3.050781 6.828125-6.824219 6.828125zm-68.269531-13.65625h61.441406v-218.453125h-61.441406zm0 0" fill="#4c241d"/><path d="m143.574219 382.292969h184.320312v27.308593h-184.320312zm0 0" fill="#b5a19c"/><path d="m327.894531 416.425781h-184.320312c-3.769531 0-6.828125-3.050781-6.828125-6.824219v-27.308593c0-3.773438 3.058594-6.828125 6.828125-6.828125h184.320312c3.773438 0 6.824219 3.054687 6.824219 6.828125v27.308593c0 3.773438-3.050781 6.824219-6.824219 6.824219zm-177.496093-13.652343h170.667968v-13.652344h-170.667968zm0 0" fill="#4c241d"/><path d="m225.183594 54.613281h20.789062v71.992188h-20.789062zm0 0" fill="#b5a19c"/><path d="m245.972656 133.433594h-20.792968c-3.773438 0-6.828126-3.054688-6.828126-6.828125v-71.992188c0-3.773437 3.054688-6.828125 6.828126-6.828125h20.792968c3.773438 0 6.828125 3.054688 6.828125 6.828125v71.992188c0 3.773437-3.054687 6.828125-6.828125 6.828125zm-13.964844-13.652344h7.140626v-58.339844h-7.140626zm0 0" fill="#4c241d"/><path d="m280.105469 54.613281h-88.746094c-3.769531 0-6.824219-3.054687-6.824219-6.828125 0-3.773437 3.054688-6.824218 6.824219-6.824218h88.746094c3.773437 0 6.828125 3.050781 6.828125 6.824218 0 3.773438-3.054688 6.828125-6.828125 6.828125zm0 0" fill="#4c241d"/><path d="m341.234375 61.441406h-47.472656c-7.542969 0-13.65625-6.113281-13.65625-13.65625 0-7.539062 6.113281-13.652344 13.65625-13.652344h47.472656c7.542969 0 13.65625 6.113282 13.65625 13.652344 0 7.542969-6.113281 13.65625-13.65625 13.65625zm0 0" fill="#6b4f5b"/><path d="m341.234375 68.265625h-47.472656c-11.292969 0-20.480469-9.1875-20.480469-20.480469 0-11.292968 9.1875-20.476562 20.480469-20.476562h47.472656c11.292969 0 20.476563 9.183594 20.476563 20.476562 0 11.292969-9.183594 20.480469-20.476563 20.480469zm-47.472656-27.304687c-3.769531 0-6.828125 3.058593-6.828125 6.824218 0 3.769532 3.058594 6.828125 6.828125 6.828125h47.472656c3.765625 0 6.824219-3.058593 6.824219-6.828125 0-3.765625-3.058594-6.824218-6.824219-6.824218zm0 0" fill="#4c241d"/><path d="m177.394531 61.441406h-47.472656c-7.542969 0-13.65625-6.113281-13.65625-13.65625 0-7.539062 6.113281-13.652344 13.65625-13.652344h47.472656c7.542969 0 13.65625 6.113282 13.65625 13.652344 0 7.542969-6.113281 13.65625-13.65625 13.65625zm0 0" fill="#6b4f5b"/><path d="m177.394531 68.265625h-47.472656c-11.292969 0-20.480469-9.1875-20.480469-20.480469 0-11.292968 9.1875-20.476562 20.480469-20.476562h47.472656c11.292969 0 20.476563 9.183594 20.476563 20.476562 0 11.292969-9.183594 20.480469-20.476563 20.480469zm-47.472656-27.304687c-3.765625 0-6.828125 3.058593-6.828125 6.824218 0 3.769532 3.0625 6.828125 6.828125 6.828125h47.472656c3.765625 0 6.828125-3.058593 6.828125-6.828125 0-3.765625-3.0625-6.824218-6.828125-6.824218zm0 0" fill="#4c241d"/><path d="m195.691406 341.367188c-24.972656 0-45.292968-20.320313-45.292968-45.292969v-135.648438c0-9.414062-7.65625-17.066406-17.066407-17.066406-9.410156 0-17.066406 7.652344-17.066406 17.066406v116.054688c0 24.464843-19.90625 44.371093-44.371094 44.371093-3.769531 0-6.828125-3.050781-6.828125-6.824218 0-3.773438 3.058594-6.828125 6.828125-6.828125 16.9375 0 30.71875-13.777344 30.71875-30.71875v-116.054688c0-16.941406 13.78125-30.71875 30.71875-30.71875 16.941407 0 30.722657 13.777344 30.722657 30.71875v135.648438c0 17.445312 14.191406 31.636719 31.636718 31.636719 3.773438 0 6.828125 3.054687 6.828125 6.828124 0 3.773438-3.054687 6.828126-6.828125 6.828126zm0 0" fill="#4c241d"/><path d="m211.839844 20.480469h47.785156v47.785156h-47.785156zm0 0" fill="#fc8c29"/><path d="m259.625 75.09375h-47.785156c-3.773438 0-6.828125-3.054688-6.828125-6.828125v-47.785156c0-3.773438 3.054687-6.828125 6.828125-6.828125h47.785156c3.773438 0 6.828125 3.054687 6.828125 6.828125v47.785156c0 3.773437-3.054687 6.828125-6.828125 6.828125zm-40.957031-13.652344h34.132812v-34.132812h-34.132812zm0 0" fill="#4c241d"/><path d="m184.535156 122.878906h102.398438v27.308594h-102.398438zm0 0" fill="#ffce56"/><path d="m286.933594 157.011719h-102.398438c-3.773437 0-6.828125-3.050781-6.828125-6.824219v-27.308594c0-3.773437 3.054688-6.824218 6.828125-6.824218h102.398438c3.773437 0 6.828125 3.050781 6.828125 6.824218v27.308594c0 3.773438-3.054688 6.824219-6.828125 6.824219zm-95.574219-13.652344h88.746094v-13.652344h-88.746094zm0 0" fill="#4c241d"/></svg>