<?xml version="1.0" ?><svg id="Layer_1" style="enable-background:new 0 0 512 512;" version="1.1" viewBox="0 0 512 512" xml:space="preserve" xmlns="http://www.w3.org/2000/svg" xmlns:xlink="http://www.w3.org/1999/xlink"><style type="text/css">
	.st0{fill:#DB3429;}
	.st1{fill:#B3271E;}
	.st2{fill:#E96B4E;}
	.st3{fill:#F7C9AB;}
	.st4{fill:#F3AB7D;}
	.st5{fill:#EBEAE0;}
	.st6{fill:#D7D5C1;}
	.st7{fill:#F5F4EF;}
	.st8{fill:#B24E10;}
	.st9{fill-rule:evenodd;clip-rule:evenodd;fill:#B24E10;}
	.st10{fill:#57130F;}
</style><g id="XMLID_1_"><g id="XMLID_3246_"><path class="st0" d="M361.1,360c0,0,23.8-6.1,32.3-28c11-28.7-12.3-51-12.3-51s38-17.3,38-69.4    c0-35.7-32-55.6-32-55.6s21.3-15.8,13-46.8c-6.5-24.2-35-29.5-35-29.5s3.7-28.7-19-46c-22.7-17.3-62,1.3-62,1.3S267,5,230,5    c-37,0-49,30-49,30s-34.5-1-50,22.5c-15.5,23.5,2.5,51,2.5,51S93,126.3,93,159c0,32.7,20.7,59.3,20.7,59.3S93,234,100.3,265.1    c7.3,31.2,43.2,37.9,43.2,37.9s-29,26.3,7.4,57H361.1L361.1,360z" id="XMLID_3505_"/><path class="st1" d="M131,191c0,48,25.2,48.7,25.2,48.7s-19,41.6,26.5,59.6c0,0,19.7,48.3,73.3,48.3    c53.7,0,66-51.3,66-51.3s42-6.5,29-54.5c0,0,30-4.8,30-50.8H131L131,191z" id="XMLID_3504_"/><path class="st2" d="M286,287h-60v38l-103.8,48.4c-18.2,8.5-31,25.6-34,45.5L75,507h362l-13.2-88.1    c-3-19.9-15.7-37-34-45.5L286,325V287L286,287z" id="XMLID_3503_"/><path class="st3" d="M343,351.6c0,0-15,55.4-87,55.4c-72,0-87-55.4-87-55.4l57-26.6v-38h60v38L343,351.6    L343,351.6z" id="XMLID_3502_"/><path class="st4" d="M286,316.3V287h-60v29.3c16.2,7.8,30,11.7,30,11.7S269.8,324.1,286,316.3" id="XMLID_3499_"/><path class="st5" d="M381,426c0,57.7-25,81-25,81H156c0,0-25-23.3-25-81c0-37.2,87.2-69.9,125-103    C293.8,356.1,381,388.8,381,426" id="XMLID_3498_"/><path class="st6" d="M131,426c0,37.2,53,81,125,81c72,0,125-43.8,125-81s-87.2-69.9-125-103    C218.2,356.1,131,388.8,131,426" id="XMLID_3497_"/><path class="st0" d="M257.3,437c-30.2,0-43.3,18.4-43.3,34.3c0,15.9,19.6,35.7,43.3,35.7    c23.6,0,40.7-18.4,40.7-35S282.4,437,257.3,437" id="XMLID_3496_"/><path class="st1" d="M256,495.9c-0.7,0-1.4-0.2-2.1-0.5l-42-19.4l4.2-9.1l39.5,18.2l23.3-15.6l-8.4-23l-23.3,8.8    l9.3,12l4.4-7.8l8.7,4.9l-8,14.4c-0.8,1.5-2.3,2.4-4,2.5c-1.7,0.1-3.3-0.6-4.3-1.9l-18.1-23.3c-1-1.3-1.3-2.9-0.9-4.4    c0.4-1.5,1.6-2.8,3-3.3l34.3-13c1.2-0.5,2.6-0.4,3.9,0.1c1.2,0.6,2.2,1.6,2.6,2.8l11.5,31.4c0.8,2.2,0,4.6-1.9,5.9L258.8,495    C257.9,495.6,257,495.9,256,495.9" id="XMLID_3323_"/><path class="st0" d="M257.3,345c-30.2,0-43.3,18.4-43.3,34.3c0,15.9,19.6,35.7,43.3,35.7    c23.6,0,40.7-18.4,40.7-35S282.4,345,257.3,345" id="XMLID_3322_"/><path class="st1" d="M256,403.9c0.7,0,1.4-0.2,2.1-0.5l42-19.4l-4.2-9.1l-39.5,18.2l-23.3-15.6l8.4-23l23.3,8.8    l-9.3,12l-4.4-7.8l-8.7,4.9l8,14.4c0.8,1.5,2.3,2.4,4,2.5c1.7,0.1,3.3-0.6,4.3-1.9l18.1-23.3c1-1.3,1.3-2.9,0.9-4.4    c-0.4-1.5-1.6-2.8-3-3.3l-34.3-13c-1.3-0.5-2.6-0.4-3.9,0.1c-1.2,0.6-2.2,1.6-2.6,2.8l-11.5,31.4c-0.8,2.2,0,4.6,1.9,5.9    l28.9,19.4C254.1,403.6,255,403.9,256,403.9" id="XMLID_3321_"/><path class="st0" d="M174.3,387.2c-30.2,0-43.3,18.4-43.3,34.3c0,15.9,19.6,35.7,43.3,35.7    c23.6,0,40.7-18.4,40.7-35S199.4,387.2,174.3,387.2" id="XMLID_3320_"/><path class="st1" d="M173,445.9c-0.7,0-1.4-0.2-2.1-0.5l-42-19.4l4.2-9.1l39.5,18.2l23.3-15.6l-8.4-23l-23.3,8.8    l9.3,12l4.4-7.8l8.7,4.9l-8,14.4c-0.8,1.5-2.3,2.4-4,2.5c-1.7,0.1-3.3-0.6-4.3-1.9l-18.1-23.3c-1-1.3-1.3-2.9-0.9-4.4    c0.4-1.5,1.6-2.8,3-3.3l34.3-13c1.2-0.5,2.6-0.4,3.9,0.1c1.2,0.6,2.2,1.6,2.6,2.8l11.5,31.4c0.8,2.2,0,4.6-1.9,5.9L175.8,445    C174.9,445.6,174,445.9,173,445.9" id="XMLID_3319_"/><path class="st0" d="M337.7,387.2c30.2,0,43.3,18.4,43.3,34.3c0,15.9-19.6,35.7-43.3,35.7s-40.7-18.4-40.7-35    S312.6,387.2,337.7,387.2" id="XMLID_3318_"/><path class="st1" d="M339,445.9c-1,0-1.9-0.3-2.8-0.8l-28.9-19.4c-1.9-1.3-2.7-3.7-1.9-5.9l11.5-31.4    c0.5-1.3,1.4-2.3,2.6-2.8c1.2-0.6,2.6-0.6,3.9-0.1l34.3,13c1.5,0.6,2.6,1.8,3,3.3c0.4,1.5,0.1,3.2-0.9,4.4l-18.1,23.3    c-1,1.3-2.6,2-4.3,1.9c-1.7-0.1-3.2-1.1-4-2.5l-8-14.4l8.7-4.9l4.4,7.8l9.3-12l-23.3-8.8l-8.4,23l23.3,15.6l39.5-18.2l4.2,9.1    l-42,19.4C340.4,445.7,339.7,445.9,339,445.9" id="XMLID_3317_"/><path class="st3" d="M169,226c-25.5,0-38-16.7-38-34.9c0-18.1,26.1-21.1,30-21.1L169,226L169,226z" id="XMLID_3316_"/><path class="st4" d="M166.8,210.8L143.5,187c0,0-3.1,34.1,25.5,39L166.8,210.8L166.8,210.8z" id="XMLID_3315_"/><path class="st3" d="M343,226c25.5,0,38-16.7,38-34.9c0-18.1-26.1-21.1-30-21.1L343,226L343,226z" id="XMLID_3314_"/><path class="st4" d="M345.2,210.8l23.3-23.8c0,0,3.1,34.1-25.5,39L345.2,210.8L345.2,210.8z" id="XMLID_3291_"/><path class="st3" d="M351,170c0,0-3.4,67.8-24,95.7C306,294,256,308,256,308s-50-14-71-42.3    c-20.6-27.8-24-95.7-24-95.7c44,0,121-78,121-78S316,170,351,170" id="XMLID_3290_"/><path class="st4" d="M278,120c0,0,23.1,50,73,50c-35,0-69-78-69-78s-77,78-121,78C215.7,170,265.7,142.7,278,120    " id="XMLID_3289_"/><path class="st7" d="M194,187c2.7-1.9,9.2-5.9,18-6c9-0.1,15.3,4.8,18,5.8l4,12.2h-28    C199.4,199,194,193.6,194,187" id="XMLID_3288_"/><path class="st7" d="M318,187c-2.7-1.9-9.2-5.9-18-6c-9-0.1-15.3,4.8-18,5.8l-4,12.2h28    C312.6,199,318,193.6,318,187" id="XMLID_3286_"/><path class="st2" d="M256,262.1c-18.6,0-29.7-11.4-31.7-13.7l7.5-6.7c1,1.1,9.7,10.3,24.3,10.3    c0.1,0,0.2,0,0.3,0c14.1-0.1,22.4-8.6,23.9-10.3l7.5,6.7c-2,2.3-13,13.5-31.3,13.7C256.3,262.1,256.1,262.1,256,262.1" id="XMLID_3285_"/><path class="st8" d="M192.5,161.3l-5.1-8.6c5.2-3.1,13.6-6.7,24.5-6.7c0.1,0,0.2,0,0.3,0    c10.8,0.1,19.1,3.7,24.3,6.7l-5.1,8.6c-4.1-2.4-10.7-5.3-19.2-5.3C203.4,155.9,196.7,158.9,192.5,161.3" id="XMLID_3284_"/><polygon class="st9" id="XMLID_3283_" points="204,181 214,181 214,199 204,199 204,181   "/><polygon class="st9" id="XMLID_3282_" points="210,181 220,181 220,199 210,199 210,181   "/><path class="st8" d="M194,192h-4v-10h2.5c6-3.9,12.7-6,19.5-6c8.2,0,14.2,3.2,17.9,5.1c0.7,0.4,1.6,0.8,1.9,0.9    l-3.4,9.4c-1-0.4-2-0.9-3.2-1.5c-3.1-1.7-7.4-4-12.9-4c0,0-0.1,0-0.1,0c-5.2,0-10.5,1.8-15.2,5.1C196,191.7,195,192,194,192" id="XMLID_3281_"/><path class="st8" d="M319.5,161.3c-4.2-2.4-11-5.4-19.7-5.3c-8.6,0.1-15.2,2.9-19.2,5.3l-5.1-8.6    c5.1-3,13.5-6.6,24.3-6.7c11-0.1,19.6,3.6,24.8,6.7L319.5,161.3L319.5,161.3z" id="XMLID_3280_"/><polygon class="st9" id="XMLID_3279_" points="298,181 308,181 308,199 298,199 298,181   "/><polygon class="st9" id="XMLID_3278_" points="292,181 302,181 302,199 292,199 292,181   "/><path class="st8" d="M322,192h-4c-1,0-2-0.3-2.9-0.9c-4.7-3.3-9.9-5.1-15.2-5.1h-0.1c-5.6,0-9.8,2.3-12.9,4    c-1.2,0.6-2.2,1.2-3.2,1.5l-3.4-9.4c0.3-0.1,1.2-0.6,1.9-0.9c3.6-1.9,9.7-5.2,17.9-5.1c6.8,0,13.5,2.1,19.5,6h2.5V192L322,192z" id="XMLID_3277_"/></g><g id="XMLID_5079_"><g id="XMLID_951_"><rect class="st10" height="10" id="XMLID_3810_" transform="matrix(0.7003 0.7138 -0.7138 0.7003 187.8642 -50.9134)" width="31.6" x="138.8" y="193.3"/></g><g id="XMLID_950_"><rect class="st10" height="31.6" id="XMLID_3809_" transform="matrix(0.7138 0.7003 -0.7003 0.7138 241.1566 -193.5771)" width="10" x="352.4" y="182.5"/></g><g id="XMLID_949_"><path class="st10" d="M169,231c-29.5,0-43-20.7-43-39.9c0-21.5,28.1-26.1,35-26.1v10c-0.3,0-25,1.7-25,16.1     c0,13.8,8.6,29.9,33,29.9V231z" id="XMLID_3808_"/></g><g id="XMLID_948_"><path class="st10" d="M343,231v-10c24.4,0,33-16.1,33-29.9c0-14.4-24.8-16.1-25-16.1v-10c6.9,0,35,4.6,35,26.1     C386,210.3,372.5,231,343,231z" id="XMLID_3807_"/></g><g id="XMLID_1057_"><path class="st10" d="M437,512H75c-1.5,0-2.8-0.6-3.8-1.7c-1-1.1-1.4-2.6-1.2-4l13.2-88.1     c3.2-21.6,17-40,36.8-49.3l100.9-47v-25.5h10V325c0,1.9-1.1,3.7-2.9,4.5l-103.8,48.4c-16.8,7.8-28.4,23.4-31.2,41.7L80.8,502     h350.4l-12.4-82.4c-2.7-18.3-14.4-33.9-31.2-41.7l-103.8-48.4c-1.8-0.8-2.9-2.6-2.9-4.5v-29h10v25.8l100.9,47     c19.8,9.2,33.6,27.7,36.8,49.3l13.2,88.1c0.2,1.4-0.2,2.9-1.2,4C439.8,511.4,438.5,512,437,512z" id="XMLID_3806_"/></g><g id="XMLID_946_"><path class="st10" d="M256,262.1c-18.6,0-29.7-11.4-31.7-13.7l7.5-6.7c1,1.1,9.8,10.4,24.6,10.3     c14.1-0.1,22.4-8.6,23.9-10.3l7.5,6.7c-2,2.3-13,13.5-31.3,13.7C256.3,262.1,256.1,262.1,256,262.1z" id="XMLID_3805_"/></g><g id="XMLID_945_"><path class="st10" d="M192.5,161.3l-5.1-8.6c5.2-3.1,13.6-6.7,24.5-6.7c0.1,0,0.2,0,0.3,0     c10.8,0.1,19.1,3.7,24.3,6.7l-5.1,8.6c-4.1-2.4-10.7-5.3-19.2-5.3C203.5,156,196.7,158.9,192.5,161.3z" id="XMLID_3804_"/></g><g id="XMLID_944_"><rect class="st10" height="18" id="XMLID_3803_" width="10" x="204" y="181"/></g><g id="XMLID_943_"><rect class="st10" height="18" id="XMLID_3802_" width="10" x="210" y="181"/></g><g id="XMLID_942_"><path class="st10" d="M194,192h-4v-10h2.5c6-3.9,12.7-6,19.5-6c0.1,0,0.1,0,0.2,0c8.1,0,14.1,3.2,17.7,5.1     c0.7,0.4,1.6,0.8,1.9,0.9l-3.4,9.4c-1-0.4-2-0.9-3.2-1.5c-3.1-1.7-7.4-4-13.1-4c-5.2,0-10.5,1.8-15.2,5.1     C196,191.7,195,192,194,192z" id="XMLID_3801_"/></g><g id="XMLID_941_"><path class="st10" d="M319.5,161.3c-4.2-2.4-10.9-5.4-19.7-5.3c-8.5,0-15.2,2.9-19.2,5.3l-5.1-8.6     c5.1-3,13.5-6.7,24.3-6.7c0.1,0,0.2,0,0.3,0c10.9,0,19.3,3.6,24.5,6.7L319.5,161.3z" id="XMLID_3800_"/></g><g id="XMLID_940_"><rect class="st10" height="18" id="XMLID_3799_" width="10" x="298" y="181"/></g><g id="XMLID_939_"><rect class="st10" height="18" id="XMLID_3798_" width="10" x="292" y="181"/></g><g id="XMLID_938_"><path class="st10" d="M322,192h-4c-1,0-2-0.3-2.9-0.9c-4.7-3.3-9.9-5.1-15.2-5.1c0,0-0.1,0-0.1,0     c-5.6,0-9.8,2.3-12.9,4c-1.2,0.6-2.2,1.2-3.2,1.5l-3.4-9.4c0.3-0.1,1.2-0.6,1.9-0.9c3.6-1.9,9.6-5.1,17.7-5.1c0.1,0,0.1,0,0.2,0     c6.8,0,13.5,2.1,19.5,6h2.5V192z" id="XMLID_3797_"/></g><g id="XMLID_937_"><path class="st10" d="M256,313c-0.5,0-0.9-0.1-1.3-0.2c-2.1-0.6-51.9-14.8-73.7-44.2     c-21.3-28.7-24.8-95.6-25-98.4c-0.1-1.4,0.4-2.7,1.4-3.7c0.9-1,2.3-1.6,3.6-1.6c41.4,0,116.7-75.7,117.4-76.5     c1.2-1.2,2.8-1.7,4.5-1.4c1.6,0.3,3,1.4,3.7,2.9c9.1,20.9,38.4,75,64.4,75c1.4,0,2.7,0.6,3.6,1.6c0.9,1,1.4,2.3,1.4,3.7     c-0.1,2.8-3.7,69.7-25,98.4c-21.8,29.4-71.6,43.6-73.7,44.2C256.9,312.9,256.5,313,256,313z M166.3,174.7     c1.2,15.9,6.3,65.9,22.7,88c17.9,24.1,59,37.6,67,40.1c8-2.4,49.1-16,67-40.1c16.4-22.2,21.5-72.5,22.7-88.2     c-14.8-2.7-30.4-16.3-46.5-40.8c-8.6-13-15.1-25.8-18.7-33.2C263,117.4,205.7,170.1,166.3,174.7z" id="XMLID_3794_"/></g><g id="XMLID_936_"><path class="st10" d="M362.3,364.8l-2.5-9.7c0.2-0.1,21.5-5.8,28.8-24.9c9.7-25.3-10.9-45.4-11.1-45.6     c-1.2-1.1-1.7-2.8-1.5-4.4s1.3-3,2.9-3.7c1.4-0.7,35.1-16.8,35.1-64.9c0-32.4-29.4-51.1-29.6-51.3c-1.4-0.9-2.3-2.4-2.3-4     c-0.1-1.6,0.7-3.2,2-4.2c0.7-0.6,18.4-14.4,11.1-41.5c-5.6-20.8-30.8-25.9-31.1-25.9c-2.6-0.5-4.4-2.9-4-5.5     c0.1-1,2.9-26.1-17.1-41.4c-20-15.3-56.5,1.7-56.8,1.9c-2.4,1.1-5.2,0.2-6.5-2.1C279,36.4,263.5,10,230,10     c-33,0-43.9,25.8-44.4,26.9c-0.8,1.9-2.7,3.2-4.8,3.1c-0.3,0-31.9-0.6-45.7,20.3c-13.5,20.4,2.4,45.3,2.5,45.5     c0.8,1.2,1,2.8,0.6,4.2s-1.4,2.6-2.8,3.1C135.1,113.2,98,130,98,159c0,30.6,19.4,56,19.6,56.2c0.8,1.1,1.2,2.4,1,3.7     c-0.2,1.3-0.9,2.5-1.9,3.3c-0.7,0.6-17.9,14.3-11.5,41.7c6.5,27.7,38.9,34,39.2,34.1c1.9,0.3,3.4,1.7,3.9,3.6s0,3.8-1.5,5.1     c-0.1,0.1-9.6,9-9.3,21.5c0.2,9.4,5.8,18.8,16.6,27.9l-6.4,7.6c-13.1-11.1-19.9-23-20.1-35.5c-0.2-9.7,3.7-17.5,7.2-22.6     c-11.8-4-33.4-14.7-39.3-39.5c-6.1-25.9,5.4-42.1,11.6-48.7C101.3,208.9,88,186.1,88,159c0-28.7,27.2-46.4,38.6-52.6     c-4.8-9.6-13-31.6,0.2-51.6c14.1-21.3,41.5-24.3,51-24.7C182.2,21.8,197,0,230,0c31.7,0,49.7,20.2,55.9,28.8     C297,24.3,328.5,14,349,29.7c19.4,14.8,21.3,36.8,21.2,46.1c8.9,2.7,28.9,10.9,34.6,32.1c6.5,24.4-3.5,40.3-10,47.6     c9.6,7.6,29.2,26.8,29.2,56.1c0,42.7-23.9,63.4-35.2,70.7c6.8,8.7,18.2,28,9.2,51.5C388.8,357.9,363.4,364.6,362.3,364.8z" id="XMLID_3793_"/></g><g id="XMLID_947_"><path class="st10" d="M256,512c-74.4,0-130-45.4-130-86h10c0,35.1,52.4,76,120,76s120-40.9,120-76h10     C386,466.6,330.4,512,256,512z" id="XMLID_3544_"/></g><g id="XMLID_3177_"><path class="st10" d="M359.4,510.7l-6.8-7.3c0.2-0.2,23.4-22.9,23.4-77.3h10C386,485.2,360.5,509.6,359.4,510.7     z" id="XMLID_3543_"/></g><g id="XMLID_3266_"><path class="st10" d="M353.8,394c-13.5-10.9-31.6-21.8-49.1-32.3c-18.3-11-35.6-21.4-48.7-32.1     c-13.1,10.7-30.4,21.1-48.7,32.1c-17.5,10.5-35.6,21.4-49.1,32.3l-6.3-7.8c14.1-11.4,32.5-22.4,50.3-33.1     c19.4-11.7,37.8-22.7,50.5-33.8c1.9-1.6,4.7-1.6,6.6,0c12.7,11.1,31.1,22.2,50.5,33.8c17.8,10.7,36.2,21.8,50.3,33.1L353.8,394z" id="XMLID_3542_"/></g><g id="XMLID_473_"><path class="st10" d="M138.4,489.1c-8.2-17.8-12.4-39-12.4-63.1h10c0,28.2,6.3,47.6,11.5,58.9L138.4,489.1z" id="XMLID_3540_"/></g><g id="XMLID_584_"><path class="st10" d="M257.3,512c-26.7,0-48.3-22.3-48.3-40.7c0-19.5,16.6-39.3,48.3-39.3     c28.3,0,45.7,20.8,45.7,40C303,490.9,284.2,512,257.3,512z M257.3,442c-26.3,0-38.3,15.2-38.3,29.3c0,13.6,18,30.7,38.3,30.7     c20.5,0,35.7-15.8,35.7-30C293,457.6,279.3,442,257.3,442z" id="XMLID_3536_"/></g><g id="XMLID_585_"><path class="st10" d="M256,495.9c-0.7,0-1.4-0.2-2.1-0.5l-42-19.4l4.2-9.1l39.5,18.2l23.3-15.6l-8.4-23     l-23.3,8.8l9.3,12l4.4-7.8l8.7,4.9l-8,14.4c-0.8,1.5-2.3,2.4-4,2.5c-1.7,0.1-3.3-0.6-4.3-1.9l-18.1-23.3c-1-1.3-1.3-2.9-0.9-4.4     c0.4-1.5,1.6-2.8,3-3.3l34.3-13c1.2-0.5,2.6-0.4,3.9,0.1c1.2,0.6,2.2,1.6,2.6,2.8l11.5,31.4c0.8,2.2,0,4.6-1.9,5.9L258.8,495     C257.9,495.6,257,495.9,256,495.9z" id="XMLID_3535_"/></g><g id="XMLID_706_"><path class="st10" d="M257,420c-26,0-48.1-22.3-48.1-40.7c0-19.5,16.6-39.3,48.3-39.3c28.3,0,45.8,20.8,45.8,40     c0,14.1-10,28.3-24.8,35.3l-4.3-9c11.3-5.4,19.1-16.2,19.1-26.3c0-14.4-13.7-30-35.7-30c-26.3,0-38.4,15.2-38.4,29.3     c0,13.6,18.1,30.7,38.1,30.7V420z" id="XMLID_3534_"/></g><g id="XMLID_600_"><path class="st10" d="M256,403.9c-1,0-1.9-0.3-2.8-0.8l-28.9-19.4c-1.9-1.3-2.7-3.7-1.9-5.9l11.5-31.4     c0.5-1.3,1.4-2.3,2.6-2.8c1.2-0.6,2.6-0.6,3.9-0.1l34.3,13c1.5,0.6,2.6,1.8,3,3.3c0.4,1.5,0.1,3.2-0.9,4.4l-18.1,23.3     c-1,1.3-2.6,2-4.3,1.9c-1.7-0.1-3.2-1.1-4-2.5l-8-14.4l8.7-4.9l4.4,7.8l9.3-12l-23.3-8.8l-8.4,23l23.3,15.6l39.5-18.2l4.2,9.1     l-42,19.4C257.4,403.7,256.7,403.9,256,403.9z" id="XMLID_3533_"/></g><g id="XMLID_588_"><path class="st10" d="M174.3,462.3c-26.7,0-48.3-22.3-48.3-40.7c0-19.5,16.6-39.3,48.3-39.3     c28.3,0,45.7,20.8,45.7,40C220,441.2,201.2,462.3,174.3,462.3z M174.3,392.3c-26.3,0-38.3,15.2-38.3,29.3     c0,13.6,18,30.7,38.3,30.7c20.5,0,35.7-15.8,35.7-30C210,407.8,196.3,392.3,174.3,392.3z" id="XMLID_3529_"/></g><g id="XMLID_587_"><path class="st10" d="M173,445.9c-0.7,0-1.4-0.2-2.1-0.5l-42-19.4l4.2-9.1l39.5,18.2l23.3-15.6l-8.4-23     l-23.3,8.8l9.3,12l4.4-7.8l8.7,4.9l-8,14.4c-0.8,1.5-2.3,2.4-4,2.5c-1.7,0.1-3.3-0.6-4.3-1.9l-18.1-23.3c-1-1.3-1.3-2.9-0.9-4.4     c0.4-1.5,1.6-2.8,3-3.3l34.3-13c1.2-0.5,2.6-0.4,3.9,0.1c1.2,0.6,2.2,1.6,2.6,2.8l11.5,31.4c0.8,2.2,0,4.6-1.9,5.9L175.8,445     C174.9,445.6,174,445.9,173,445.9z" id="XMLID_3528_"/></g><g id="XMLID_596_"><path class="st10" d="M337.7,462.3c-27,0-45.7-21.1-45.7-40c0-19.2,17.5-40,45.7-40c31.7,0,48.3,19.7,48.3,39.3     C386,440,364.5,462.3,337.7,462.3z M337.7,392.3c-22.1,0-35.7,15.6-35.7,30c0,14.2,15.3,30,35.7,30c20.2,0,38.3-17.2,38.3-30.7     C376,407.4,364,392.3,337.7,392.3z" id="XMLID_3525_"/></g><g id="XMLID_589_"><path class="st10" d="M339,445.9c-1,0-1.9-0.3-2.8-0.8l-28.9-19.4c-1.9-1.3-2.7-3.7-1.9-5.9l11.5-31.4     c0.5-1.3,1.4-2.3,2.6-2.8c1.2-0.6,2.6-0.6,3.9-0.1l34.3,13c1.5,0.6,2.6,1.8,3,3.3c0.4,1.5,0.1,3.2-0.9,4.4l-18.1,23.3     c-1,1.3-2.6,2-4.3,1.9c-1.7-0.1-3.2-1.1-4-2.5l-8-14.4l8.7-4.9l4.4,7.8l9.3-12l-23.3-8.8l-8.4,23l23.3,15.6l39.5-18.2l4.2,9.1     l-42,19.4C340.4,445.7,339.7,445.9,339,445.9z" id="XMLID_3524_"/></g></g></g></svg>