<svg id="q14" xmlns="http://www.w3.org/2000/svg" viewBox="0 0 348.7 137.4">
    <defs>
        <style>
            .cls-1 {
            fill: none;
            stroke: #000;
            stroke-miterlimit: 10;
            stroke-width: 3px;
            }
        </style>
    </defs>
    <title>q14-img</title>
    <g id="Layer_4" data-name="Layer 4">
        <path class="cls-1" d="M281.9,191H109.2L34.5,313.5H206l75.9-122.4Z" transform="translate(-31.8 -182.1)"/>
        <path class="cls-1" d="M282.5,191.7h-1L206,313.5H377.5Z" transform="translate(-31.8 -182.1)"/>
        <line class="cls-1" x1="77.4" y1="8.9" x2="174.2" y2="131.4"/>
        <line class="cls-1" x1="2.7" y1="131.4" x2="250.1" y2="8.9"/>
    </g>
    <g id="Layer_5" data-name="Layer 5">
        <polyline class="cls-1" points="22.1 87.3 34.1 79.9 33.5 93.1"/>
        <polyline class="cls-1" points="28.1 77.3 40.1 69.9 39.5 83.1"/>
        <polyline class="cls-1" points="34.1 68.3 46.1 60.9 45.5 74.1"/>
        <polyline class="cls-1" points="192.1 90.3 204.1 82.9 203.5 96.1"/>
        <polyline class="cls-1" points="198.1 80.3 210.1 72.9 209.5 86.1"/>
        <polyline class="cls-1" points="204.1 71.3 216.1 63.9 215.5 77.1"/>
    </g>
    <g id="Layer_6" data-name="Layer 6">
        <polyline class="cls-1" points="135.8 1.3 147.5 9 135.3 14"/>
        <polyline class="cls-1" points="145.8 1.3 157.5 9 145.3 14"/>
        <polyline class="cls-1" points="87.8 123.3 99.5 131 87.3 136"/>
        <polyline class="cls-1" points="97.8 123.3 109.5 131 97.3 136"/>
    </g>
    <g id="Layer_7" data-name="Layer 7">
        <polyline class="cls-1" points="110.5 62.4 110 48.3 121.2 55.4"/>
        <polyline class="cls-1" points="277.5 55.4 277 41.3 288.2 48.4"/>
    </g>
</svg>
