<svg width="1440" height="1024" viewBox="0 0 1440 1024" fill="none" xmlns="http://www.w3.org/2000/svg">
<g clip-path="url(#clip0_520_4353)">
<rect width="1440" height="1024" fill="#7EA6F6"/>
<g opacity="0.43" clip-path="url(#clip1_520_4353)">
<path d="M1096.43 211.973H983.571C980.476 211.973 978 209.498 978 206.403V133.571C978 130.476 980.476 128 983.571 128H1096.43C1099.52 128 1102 130.476 1102 133.571V206.196C1102 209.291 1099.52 211.973 1096.43 211.973Z" fill="#0254E4"/>
<path d="M1094.43 134.602H985.57C984.466 134.602 983.57 135.498 983.57 136.602V203.165C983.57 204.269 984.466 205.165 985.57 205.165H1094.43C1095.53 205.165 1096.43 204.269 1096.43 203.165V136.602C1096.43 135.498 1095.53 134.602 1094.43 134.602Z" fill="#AFEAF0"/>
<path d="M1033.35 153.701C1030.69 152.329 1027.52 154.262 1027.52 157.257V182.412C1027.52 185.406 1030.69 187.339 1033.35 185.967L1057.76 173.39C1060.65 171.9 1060.65 167.768 1057.76 166.279L1033.35 153.701Z" fill="#FF4C6B"/>
</g>
<g opacity="0.8" clip-path="url(#clip2_520_4353)">
<path opacity="0.6" d="M313.297 959H61.2266C55.0156 959 50 953.984 50 947.797V736.227C50 730.016 55.0156 725 61.2266 725H313.297C319.484 725 324.523 730.016 324.523 736.227V947.797C324.5 953.984 319.484 959 313.297 959Z" fill="white"/>
<path d="M324.5 750.969H50V733.391C50 728.75 53.75 725 58.3672 725H316.133C320.75 725 324.5 728.75 324.5 733.367V750.969Z" fill="#699DEE"/>
<path d="M61.1094 737.82C61.1094 736.109 62.4922 734.727 64.2031 734.727C65.9141 734.727 67.2969 736.109 67.2969 737.82C67.3203 739.531 65.9141 740.937 64.2031 740.937C62.4922 740.937 61.1094 739.531 61.1094 737.82Z" fill="#DDE7FE"/>
<path d="M74.1406 737.82C74.1406 736.109 75.5234 734.727 77.2344 734.727C78.9453 734.727 80.3281 736.109 80.3281 737.82C80.3281 739.531 78.9453 740.914 77.2344 740.914C75.5234 740.938 74.1406 739.531 74.1406 737.82Z" fill="#DDE7FE"/>
<path d="M87.1719 737.82C87.1719 736.109 88.5547 734.727 90.2656 734.727C91.9766 734.727 93.3594 736.109 93.3594 737.82C93.3594 739.531 91.9766 740.914 90.2656 740.914C88.5547 740.938 87.1719 739.531 87.1719 737.82Z" fill="#DDE7FE"/>
<path opacity="0.5" d="M149.562 771.57H71.75V849.383H149.562V771.57Z" fill="#CDE0FB"/>
<path opacity="0.5" d="M232.625 777.359H170.727C169.109 777.359 167.797 776.047 167.797 774.43C167.797 772.812 169.109 771.5 170.727 771.5H232.625C234.242 771.5 235.555 772.812 235.555 774.43C235.555 776.047 234.242 777.359 232.625 777.359Z" fill="#7C9AF2"/>
<path opacity="0.5" d="M306.641 773.422H244.742C243.125 773.422 241.812 772.109 241.812 770.492C241.812 768.875 243.125 767.562 244.742 767.562H306.641C308.258 767.562 309.57 768.875 309.57 770.492C309.57 772.109 308.258 773.422 306.641 773.422Z" fill="#7C9AF2"/>
<g opacity="0.3">
<path opacity="0.3" d="M244.883 800H169.695C168.641 800 167.797 799.156 167.797 798.102C167.797 797.047 168.641 796.203 169.695 796.203H244.883C245.938 796.203 246.781 797.047 246.781 798.102C246.781 799.156 245.938 800 244.883 800Z" fill="#BDD1F9"/>
<path opacity="0.3" d="M273.453 800H253.602C252.547 800 251.703 799.156 251.703 798.102C251.703 797.047 252.547 796.203 253.602 796.203H273.453C274.508 796.203 275.352 797.047 275.352 798.102C275.352 799.156 274.508 800 273.453 800Z" fill="#BDD1F9"/>
<path opacity="0.3" d="M198.055 811.836H169.695C168.641 811.836 167.797 810.992 167.797 809.938C167.797 808.883 168.641 808.039 169.695 808.039H198.055C199.109 808.039 199.953 808.883 199.953 809.938C199.977 810.969 199.109 811.836 198.055 811.836Z" fill="#BDD1F9"/>
<path opacity="0.3" d="M244.016 811.836H205.133C204.078 811.836 203.234 810.992 203.234 809.938C203.234 808.883 204.078 808.039 205.133 808.039H243.992C245.047 808.039 245.891 808.883 245.891 809.938C245.914 810.969 245.047 811.836 244.016 811.836Z" fill="#BDD1F9"/>
<path opacity="0.3" d="M273.453 811.836H253.602C252.547 811.836 251.703 810.992 251.703 809.938C251.703 808.883 252.547 808.039 253.602 808.039H273.453C274.508 808.039 275.352 808.883 275.352 809.938C275.352 810.969 274.508 811.836 273.453 811.836Z" fill="#BDD1F9"/>
<path opacity="0.3" d="M208.18 822.055H169.695C168.641 822.055 167.797 821.211 167.797 820.156C167.797 819.102 168.641 818.258 169.695 818.258H208.18C209.234 818.258 210.078 819.102 210.078 820.156C210.078 821.188 209.234 822.055 208.18 822.055Z" fill="#BDD1F9"/>
<path opacity="0.3" d="M281.68 822.055H218.727C217.672 822.055 216.828 821.211 216.828 820.156C216.828 819.102 217.672 818.258 218.727 818.258H281.68C282.734 818.258 283.578 819.102 283.578 820.156C283.602 821.188 282.734 822.055 281.68 822.055Z" fill="#BDD1F9"/>
</g>
<g opacity="0.3">
<path opacity="0.3" d="M244.883 837.57H169.695C168.641 837.57 167.797 836.727 167.797 835.672C167.797 834.617 168.641 833.773 169.695 833.773H244.883C245.938 833.773 246.781 834.617 246.781 835.672C246.781 836.703 245.938 837.57 244.883 837.57Z" fill="#BDD1F9"/>
<path opacity="0.3" d="M273.453 837.57H253.602C252.547 837.57 251.703 836.727 251.703 835.672C251.703 834.617 252.547 833.773 253.602 833.773H273.453C274.508 833.773 275.352 834.617 275.352 835.672C275.352 836.703 274.508 837.57 273.453 837.57Z" fill="#BDD1F9"/>
<path opacity="0.3" d="M198.055 849.383H169.695C168.641 849.383 167.797 848.539 167.797 847.484C167.797 846.43 168.641 845.586 169.695 845.586H198.055C199.109 845.586 199.953 846.43 199.953 847.484C199.977 848.539 199.109 849.383 198.055 849.383Z" fill="#BDD1F9"/>
<path opacity="0.3" d="M244.016 849.383H205.133C204.078 849.383 203.234 848.539 203.234 847.484C203.234 846.43 204.078 845.586 205.133 845.586H243.992C245.047 845.586 245.891 846.43 245.891 847.484C245.914 848.539 245.047 849.383 244.016 849.383Z" fill="#BDD1F9"/>
</g>
<path d="M106.648 783.172H114.688L136.391 832.859H127.227L122.211 820.953H98.8672L93.7813 832.859H84.9219L106.648 783.172ZM119.047 813.266L110.516 793.531L102.055 813.266H119.047Z" fill="#BDD1F9"/>
<path d="M147.242 869.82H123.336C122.328 869.82 121.531 869 121.531 868.016C121.531 867.008 122.352 866.211 123.336 866.211H147.242C148.25 866.211 149.047 867.031 149.047 868.016C149.07 869 148.25 869.82 147.242 869.82Z" fill="#BDD1F9"/>
<path d="M139.203 876.195H123.336C122.328 876.195 121.531 875.375 121.531 874.391C121.531 873.383 122.352 872.586 123.336 872.586H139.203C140.211 872.586 141.008 873.406 141.008 874.391C141.008 875.375 140.187 876.195 139.203 876.195Z" fill="#BDD1F9"/>
<path d="M147.242 913.203H123.336C122.328 913.203 121.531 912.383 121.531 911.398C121.531 910.391 122.352 909.594 123.336 909.594H147.242C148.25 909.594 149.047 910.414 149.047 911.398C149.07 912.383 148.25 913.203 147.242 913.203Z" fill="#BDD1F9"/>
<path d="M139.203 919.578H123.336C122.328 919.578 121.531 918.758 121.531 917.773C121.531 916.766 122.352 915.969 123.336 915.969H139.203C140.211 915.969 141.008 916.789 141.008 917.773C141.008 918.781 140.187 919.578 139.203 919.578Z" fill="#BDD1F9"/>
</g>
<path d="M965.316 796.335L967.56 794.091L976.533 803.065L974.29 805.308L965.316 796.335ZM983.264 814.282L985.507 812.039L994.481 821.013L992.238 823.256L983.264 814.282ZM1001.21 832.23L1003.45 829.986L1012.43 838.96L1010.19 841.204L1001.21 832.23ZM1019.16 850.177L1021.4 847.934L1030.38 856.908L1028.13 859.151L1019.16 850.177ZM1037.11 868.125L1039.35 865.882L1048.32 874.855L1046.08 877.099L1037.11 868.125ZM1055.05 886.073L1057.3 883.829L1066.27 892.803L1064.03 895.046L1055.05 886.073Z" fill="white"/>
<path d="M962.398 799.701C960.154 797.458 959.93 793.644 962.398 791.176C964.641 788.932 968.455 788.708 970.923 791.176C973.166 793.419 973.391 797.233 970.923 799.701C968.231 801.944 964.641 801.944 962.398 799.701Z" fill="white"/>
<path d="M961.726 800.374C964.418 803.066 968.681 802.841 971.148 800.374C973.841 797.681 973.841 793.195 971.373 790.727C968.681 788.035 964.418 788.259 961.95 790.727C959.034 793.195 959.034 797.681 961.726 800.374C964.194 802.841 959.034 797.681 961.726 800.374ZM970.251 791.848C972.27 793.868 972.27 797.008 970.251 799.028C968.232 801.047 965.091 801.047 963.072 799.028C961.053 797.008 961.053 793.868 963.072 791.848C964.867 789.605 968.232 789.829 970.251 791.848C972.27 793.868 968.232 789.829 970.251 791.848Z" fill="white"/>
<path d="M1060.89 898.189C1063.13 900.432 1066.94 900.656 1069.41 898.189C1071.65 895.945 1071.88 892.131 1069.41 889.663C1066.94 887.196 1063.13 887.42 1060.89 889.663C1058.42 892.131 1058.42 895.721 1060.89 898.189Z" fill="white"/>
<path d="M1060.21 898.861C1057.52 896.169 1057.75 891.906 1060.21 889.439C1062.68 886.522 1067.17 886.522 1069.86 889.214C1072.33 891.682 1072.33 896.169 1069.86 898.637C1067.17 901.329 1062.68 901.329 1060.21 898.861C1057.52 896.169 1062.68 901.329 1060.21 898.861ZM1068.74 890.336C1066.72 888.317 1063.58 888.317 1061.56 890.336C1059.32 892.131 1059.32 895.72 1061.34 897.739C1063.36 899.759 1066.5 899.759 1068.51 897.739C1070.76 895.496 1070.76 892.355 1068.74 890.336C1066.72 888.317 1070.76 892.355 1068.74 890.336Z" fill="white"/>
<path d="M363.396 115.368L366.568 115.368L366.568 128.059L363.396 128.059L363.396 115.368ZM363.396 140.749L366.568 140.749L366.568 153.44L363.396 153.44L363.396 140.749ZM363.396 166.131L366.568 166.131L366.568 178.822L363.396 178.822L363.396 166.131ZM363.396 191.513L366.568 191.513L366.568 204.204L363.396 204.204L363.396 191.513ZM363.396 216.895L366.568 216.895L366.568 229.586L363.396 229.586L363.396 216.895ZM363.396 242.276L366.568 242.276L366.568 254.967L363.396 254.967L363.396 242.276Z" fill="white"/>
<path d="M358.951 115.685C358.951 112.512 361.49 109.657 364.98 109.657C368.152 109.657 371.008 112.195 371.008 115.685C371.008 118.858 368.47 121.713 364.98 121.713C361.49 121.396 358.951 118.858 358.951 115.685Z" fill="white"/>
<path d="M358 115.685C358 119.492 361.173 122.347 364.663 122.347C368.47 122.347 371.643 119.175 371.643 115.685C371.643 111.877 368.47 109.022 364.98 109.022C361.173 108.705 358 111.877 358 115.685C358 119.175 358 111.877 358 115.685ZM370.056 115.685C370.056 118.54 367.835 120.761 364.98 120.761C362.124 120.761 359.904 118.54 359.904 115.685C359.904 112.829 362.124 110.608 364.98 110.608C367.835 110.291 370.056 112.829 370.056 115.685C370.056 118.54 370.056 112.829 370.056 115.685Z" fill="white"/>
<path d="M358.951 254.967C358.951 258.14 361.49 260.996 364.98 260.996C368.152 260.996 371.008 258.457 371.008 254.967C371.008 251.477 368.152 248.939 364.98 248.939C361.49 248.939 358.951 251.477 358.951 254.967Z" fill="white"/>
<path d="M358 254.967C358 251.16 361.173 248.304 364.663 248.304C368.47 247.987 371.643 251.16 371.643 254.967C371.643 258.457 368.47 261.63 364.98 261.63C361.173 261.63 358 258.457 358 254.967C358 251.16 358 258.457 358 254.967ZM370.056 254.967C370.056 252.112 367.835 249.891 364.98 249.891C362.124 249.574 359.586 252.112 359.586 254.967C359.586 257.823 361.807 260.044 364.663 260.044C367.835 260.044 370.056 257.823 370.056 254.967C370.056 252.112 370.056 257.823 370.056 254.967Z" fill="white"/>
<g clip-path="url(#clip3_520_4353)">
<path d="M1030.9 381.46C1030.52 381.46 1030.14 381.27 1029.76 381.08C1028.81 380.511 1028.62 379.182 1029.19 378.423C1029.19 378.423 1030.33 376.715 1032.61 373.679C1033.18 372.92 1034.51 372.73 1035.26 373.299C1036.02 373.869 1036.21 375.197 1035.64 375.956C1033.37 378.803 1032.23 380.511 1032.23 380.511C1032.23 381.08 1031.47 381.46 1030.9 381.46Z" fill="#292C3D"/>
<path d="M1242.13 409.168C1239.85 409.168 1237.76 408.978 1235.67 408.598C1234.53 408.409 1233.96 407.46 1234.15 406.321C1234.34 405.182 1235.29 404.613 1236.43 404.803C1239.85 405.372 1243.45 405.752 1247.25 404.613C1248.39 404.423 1249.34 404.993 1249.53 405.942C1249.72 406.89 1249.15 408.029 1248.2 408.219C1246.11 408.978 1244.02 409.168 1242.13 409.168ZM1224.86 404.423C1224.48 404.423 1224.1 404.423 1223.91 404.234C1220.68 402.336 1217.45 399.679 1214.42 396.453C1213.66 395.693 1213.66 394.365 1214.42 393.796C1215.18 393.036 1216.5 393.036 1217.07 393.796C1219.92 396.832 1222.77 399.109 1225.8 400.817C1226.75 401.387 1226.94 402.526 1226.56 403.474C1226.18 404.044 1225.61 404.423 1224.86 404.423ZM1258.07 403.285C1257.5 403.285 1256.93 402.905 1256.55 402.526C1255.98 401.577 1256.17 400.438 1257.12 399.869C1259.96 397.971 1262.81 395.504 1266.04 392.467C1266.8 391.708 1268.13 391.708 1268.69 392.467C1269.45 393.226 1269.45 394.555 1268.69 395.124C1265.47 398.35 1262.43 400.817 1259.4 402.905C1258.83 403.095 1258.45 403.285 1258.07 403.285ZM1208.34 387.912C1207.77 387.912 1207.21 387.533 1206.83 387.153C1204.74 384.307 1202.65 380.89 1200.37 377.095C1199.8 376.146 1200.18 375.007 1201.13 374.438C1202.08 373.869 1203.22 374.248 1203.79 375.197C1206.07 378.993 1208.15 382.219 1210.05 385.066C1210.62 386.015 1210.43 387.153 1209.67 387.723C1209.1 387.723 1208.72 387.912 1208.34 387.912ZM1275.34 387.153C1274.96 387.153 1274.39 386.963 1274.01 386.584C1273.25 385.825 1273.06 384.686 1273.82 383.927C1276.1 381.27 1278.56 378.234 1281.22 374.817C1281.98 374.058 1283.12 373.869 1283.88 374.438C1284.64 375.197 1284.83 376.336 1284.26 377.095C1281.41 380.511 1278.94 383.547 1276.67 386.204C1276.29 386.963 1275.91 387.153 1275.34 387.153ZM1290.14 368.744C1289.76 368.744 1289.38 368.555 1289 368.365C1288.24 367.796 1288.05 366.467 1288.62 365.708L1290.9 362.671C1292.61 360.584 1294.13 358.307 1295.83 356.219C1296.4 355.46 1297.73 355.27 1298.49 355.839C1299.25 356.409 1299.44 357.737 1298.87 358.496C1297.16 360.584 1295.64 362.671 1293.94 364.949L1291.66 367.985C1291.28 368.365 1290.71 368.744 1290.14 368.744ZM1196.2 367.606C1195.44 367.606 1194.87 367.226 1194.49 366.657L1192.59 363.051C1191.26 360.774 1190.13 358.496 1188.8 356.219C1188.23 355.27 1188.61 354.131 1189.56 353.562C1190.5 352.993 1191.64 353.372 1192.21 354.321C1193.54 356.598 1194.68 358.876 1196.01 361.153L1197.91 364.759C1198.48 365.708 1198.1 366.847 1197.15 367.416C1196.96 367.606 1196.58 367.606 1196.2 367.606ZM1041.72 367.606C1041.34 367.606 1040.77 367.416 1040.39 367.226C1039.63 366.467 1039.44 365.328 1040.2 364.569C1042.67 361.533 1045.32 358.496 1047.98 355.65C1048.74 354.89 1049.88 354.89 1050.64 355.46C1051.4 356.219 1051.4 357.358 1050.83 358.117C1048.17 360.963 1045.51 364 1043.04 366.847C1042.86 367.226 1042.29 367.606 1041.72 367.606ZM1057.85 350.146C1057.28 350.146 1056.9 349.956 1056.52 349.577C1055.76 348.817 1055.76 347.679 1056.52 346.92C1059.37 344.073 1062.4 341.416 1065.25 338.759C1066.01 338 1067.34 338.19 1067.91 338.949C1068.67 339.708 1068.48 341.036 1067.72 341.606C1064.87 344.073 1062.02 346.92 1059.18 349.577C1058.8 349.956 1058.23 350.146 1057.85 350.146ZM1304.75 350.146C1304.37 350.146 1303.8 349.956 1303.42 349.766C1302.67 349.007 1302.48 347.869 1303.23 347.109C1306.27 343.504 1308.74 340.657 1311.21 338.19C1311.96 337.431 1313.1 337.431 1313.86 338.19C1314.62 338.949 1314.62 340.088 1313.86 340.847C1311.58 343.124 1308.93 345.971 1306.08 349.577C1305.7 349.766 1305.32 350.146 1304.75 350.146ZM1184.62 346.92C1184.05 346.92 1183.29 346.54 1182.91 345.971C1180.64 342.365 1178.55 339.139 1176.46 336.292C1175.89 335.343 1176.08 334.204 1176.84 333.635C1177.79 333.066 1178.93 333.255 1179.5 334.015C1181.58 337.051 1183.86 340.277 1186.14 344.073C1186.71 345.022 1186.33 346.161 1185.57 346.73C1185.38 346.92 1185 346.92 1184.62 346.92ZM1075.5 334.394C1074.93 334.394 1074.36 334.204 1073.98 333.635C1073.41 332.876 1073.41 331.547 1074.36 330.978C1077.58 328.511 1080.81 326.044 1084.04 323.956C1084.99 323.387 1086.13 323.577 1086.69 324.525C1087.26 325.474 1087.07 326.613 1086.13 327.182C1083.09 329.27 1079.86 331.547 1076.64 334.015C1076.26 334.394 1075.88 334.394 1075.5 334.394ZM1170.77 327.942C1170.2 327.942 1169.82 327.752 1169.44 327.372C1166.78 324.525 1163.94 321.869 1160.9 319.781C1159.95 319.212 1159.76 317.883 1160.52 317.124C1161.09 316.175 1162.42 315.985 1163.18 316.744C1166.21 319.022 1169.25 321.679 1172.29 324.905C1173.04 325.664 1173.04 326.993 1172.1 327.562C1171.72 327.752 1171.15 327.942 1170.77 327.942ZM1095.04 321.299C1094.29 321.299 1093.72 320.92 1093.34 320.35C1092.77 319.401 1093.15 318.263 1094.1 317.693C1097.7 315.606 1101.31 313.898 1104.91 312.569C1105.86 312.19 1107 312.569 1107.38 313.708C1107.76 314.657 1107.38 315.796 1106.24 316.175C1102.83 317.504 1099.22 319.212 1095.8 321.109C1095.8 321.299 1095.42 321.299 1095.04 321.299ZM1151.79 314.277C1151.6 314.277 1151.22 314.277 1151.03 314.088C1147.8 312.759 1144.39 311.81 1140.78 311.241L1140.02 311.051C1138.88 310.861 1138.31 309.912 1138.31 308.774C1138.5 307.635 1139.45 307.066 1140.59 307.066L1141.35 307.255C1145.15 307.825 1148.94 308.963 1152.36 310.292C1153.31 310.671 1153.88 311.81 1153.5 312.759C1153.31 313.898 1152.55 314.277 1151.79 314.277ZM1117.06 312.569C1116.11 312.569 1115.35 312 1115.16 311.051C1114.97 310.102 1115.54 308.963 1116.49 308.774C1120.48 307.825 1124.65 307.066 1128.45 306.876C1129.58 306.686 1130.34 307.635 1130.53 308.774C1130.53 309.912 1129.77 310.671 1128.64 310.861C1125.03 311.051 1121.23 311.62 1117.25 312.569H1117.06Z" fill="#292C3D"/>
<path d="M1383.7 296.817L1317.66 337.62L1320.69 313.898L1383.7 296.817Z" fill="#0254E4"/>
<path d="M1383.7 296.817L1317.66 337.62L1326.01 320.73L1383.7 296.817Z" fill="#292C3D"/>
<path d="M1345.18 345.591L1303.99 295.299L1393 286L1345.18 345.591Z" fill="white"/>
<path d="M1390.16 287.518L1320.51 315.416L1325.44 321.679L1390.16 287.518Z" fill="#0254E4"/>
</g>
<g clip-path="url(#clip4_520_4353)">
<path d="M189.057 422.857H167.114L185.857 463.543L144.714 422.857H72.9429C69.7429 422.857 67 420.114 67 416.914V341.943C67 338.743 69.7429 336 72.9429 336H189.514C192.714 336 195 338.743 195 341.943V416.914C195 420.114 192.714 422.857 189.057 422.857Z" fill="white"/>
<path d="M148.373 368C148.373 378.057 135.573 380.8 135.573 384.914V386.285H122.773V382.628C122.773 377.143 132.373 373.943 132.373 368C132.83 365.714 131.001 363.428 128.258 363.428C124.144 363.428 123.687 366.628 123.687 369.828C123.687 370.285 123.687 371.2 123.687 371.657H109.973C109.973 370.743 109.973 369.828 109.973 368.914C109.973 359.314 118.658 353.371 130.087 353.371C141.058 352.914 148.373 358.857 148.373 368ZM136.944 404.571H122.316V390.857H136.944V404.571Z" fill="#8B94C6"/>
</g>
<g clip-path="url(#clip5_520_4353)">
<path d="M1230.7 944.171V950.394H1303.09V967.099H1230.7V973.649H1385.3V944.171H1230.7Z" fill="#DA395B"/>
<path d="M1403.97 977.907H1408.55V973.649H1246.09V993.956H1408.55V989.698H1403.97C1402.33 989.698 1401.35 987.078 1401.35 983.803C1401.02 980.527 1402.33 978.235 1403.97 977.907Z" fill="#0254E4"/>
<path d="M1385.3 944.171H1315.21V973.649H1385.3V944.171Z" fill="#FF4C6B"/>
<path opacity="0.65" d="M1335.84 973.649H1246.09V993.956H1335.84V973.649Z" fill="#00A1CC"/>
<path d="M1230.7 950.394C1233 950.722 1234.63 954.325 1234.63 958.583C1234.63 963.168 1233 966.771 1230.7 966.771H1308.66V950.067H1230.7V950.394Z" fill="#F8F2ED"/>
<path d="M1402.66 882.594V876.044H1330.27V859.339H1402.66V853.116H1248.06V882.594H1402.66Z" fill="#FF4C6B"/>
<path d="M1318.15 853.116H1248.06V882.594H1318.15V853.116Z" fill="#DA395B"/>
<path d="M1402.66 876.043C1400.37 875.716 1398.73 872.113 1398.73 867.855C1398.73 863.27 1400.37 859.667 1402.66 859.667H1324.71V876.371H1402.66V876.043Z" fill="#F8F2ED"/>
<path d="M1207.12 993.957V1000.18H1284.75V1016.88H1207.12V1023.43H1372.85V993.957H1207.12Z" fill="#48525B"/>
<path d="M1392.83 993.957H1297.52V1023.43H1392.83V993.957Z" fill="#B6B6B6"/>
<path d="M1207.12 1000.18C1209.41 1000.51 1211.38 1004.11 1211.38 1008.7C1211.38 1013.28 1209.41 1016.88 1207.12 1016.88H1382.02V1000.18H1207.12Z" fill="#F8F2ED"/>
<path d="M1297.85 1000.18H1207.12C1209.41 1000.51 1211.38 1004.11 1211.38 1008.7C1211.38 1013.28 1209.41 1016.88 1207.12 1016.88H1297.85V1000.18Z" fill="#F8F2ED"/>
<path d="M1215.63 914.693V920.916H1280.16V937.62H1215.63V944.171H1352.87V914.693H1215.63Z" fill="#48525B"/>
<path d="M1369.58 914.693H1290.64V944.171H1369.58V914.693Z" fill="#B6B6B6"/>
<path d="M1215.63 920.916C1217.6 921.243 1219.24 924.846 1219.24 929.104C1219.24 933.69 1217.6 937.293 1215.63 937.293H1360.73V920.588H1215.63V920.916Z" fill="#F8F2ED"/>
<path d="M1290.97 920.916H1215.63C1217.6 921.244 1219.24 924.846 1219.24 929.104C1219.24 933.69 1217.6 937.293 1215.63 937.293H1290.97V920.916Z" fill="#F8F2ED"/>
<path d="M1411.5 1055.53V1048.33H1323.72V1030.31H1411.5V1023.43H1235.29V1055.53H1411.5Z" fill="#AFEAF0"/>
<path d="M1310.62 1023.43H1214.98V1055.53H1310.62V1023.43Z" fill="#5AC4E0"/>
<path d="M1381.7 914.693V907.487H1313.57V889.473H1381.7V882.594H1245.11V914.693H1381.7Z" fill="#AFEAF0"/>
<path d="M1303.42 882.594H1229.06V914.693H1303.42V882.594Z" fill="#5AC4E0"/>
<path d="M1381.7 907.487C1379.73 907.159 1378.42 903.229 1378.42 898.316C1378.42 893.403 1380.06 889.472 1381.7 889.145H1237.58V907.159H1381.7V907.487Z" fill="#F8F2ED"/>
<path d="M1303.41 907.487H1381.7C1379.73 907.159 1378.42 903.229 1378.42 898.316C1378.42 893.403 1380.06 889.472 1381.7 889.145H1303.41V907.487Z" fill="#F8F2ED"/>
<path d="M1401.02 983.803C1401.02 980.855 1402.33 978.235 1403.64 977.907H1341.41V989.371H1403.97C1402.33 989.371 1401.02 986.751 1401.02 983.803Z" fill="#F8F2ED"/>
<path d="M1386.61 828.878H1390.21V822H1270.33V853.116H1389.88V846.238H1386.28C1385.3 845.91 1384.32 842.307 1384.32 837.394C1384.32 832.809 1385.3 828.878 1386.61 828.878Z" fill="#0254E4"/>
<path opacity="0.65" d="M1336.5 822H1270.33V853.116H1336.5V822Z" fill="#00A1CC"/>
<path d="M1384.32 837.394C1384.32 832.809 1385.3 828.878 1386.28 828.551H1340.43V846.238H1386.28C1385.3 845.91 1384.32 842.307 1384.32 837.394Z" fill="#F8F2ED"/>
</g>
<path d="M181 126.105H172.711V118H168.105V126.105H160V130.711H168.105V139H172.711V130.711H181V126.105Z" fill="#FFF9FD"/>
<path d="M85 554.105H76.7105V546H72.1053V554.105H64V558.711H72.1053V567H76.7105V558.711H85V554.105Z" fill="#FFF9FD"/>
<path d="M171 904.105H162.711V896H158.105V904.105H150V908.711H158.105V917H162.711V908.711H171V904.105Z" fill="#FFF9FD"/>
<path d="M694 900.105H685.711V892H681.105V900.105H673V904.711H681.105V913H685.711V904.711H694V900.105Z" fill="#FFF9FD"/>
<path d="M1124 974.105H1115.71V966H1111.11V974.105H1103V978.711H1111.11V987H1115.71V978.711H1124V974.105Z" fill="#FFF9FD"/>
<path d="M1406 754.105H1397.71V746H1393.11V754.105H1385V758.711H1393.11V767H1397.71V758.711H1406V754.105Z" fill="#FFF9FD"/>
<path d="M1245 136.105H1236.71V128H1232.11V136.105H1224V140.711H1232.11V149H1236.71V140.711H1245V136.105Z" fill="#FFF9FD"/>
<path d="M618 157.105H609.711V149H605.105V157.105H597V161.711H605.105V170H609.711V161.711H618V157.105Z" fill="#FFF9FD"/>
<g clip-path="url(#clip6_520_4353)">
<path d="M1307.76 763.581H1267.16L1245.24 781.516L1254.95 763.581H1244.99C1243.25 763.581 1241.75 762.087 1241.75 760.343V720.238C1242 718.495 1243.5 717 1245.24 717H1308.01C1309.76 717 1311.25 718.495 1311.25 720.238V760.592C1311 762.336 1309.51 763.581 1307.76 763.581Z" fill="white"/>
<path opacity="0.4" d="M1273.14 755.112V748.884H1279.36V755.112H1273.14ZM1275.13 746.892L1273.14 724.722H1279.86L1277.37 746.892H1275.13Z" fill="black"/>
</g>
<path d="M-33.6732 772.791L-36.4209 771.204L-30.0755 760.214L-27.3278 761.8L-33.6732 772.791ZM-20.9824 750.81L-23.73 749.223L-17.3846 738.233L-14.6369 739.819L-20.9824 750.81ZM-8.29149 728.828L-11.0391 727.242L-4.69371 716.251L-1.94606 717.838L-8.29149 728.828ZM4.39938 706.847L1.65173 705.261L7.99716 694.27L10.7448 695.856L4.39938 706.847ZM17.0903 684.866L14.3426 683.279L20.688 672.289L23.4357 673.875L17.0903 684.866ZM29.7811 662.885L27.0335 661.298L33.3789 650.308L36.1266 651.894L29.7811 662.885Z" fill="white"/>
<path d="M39.9739 654.116C41.5602 651.368 40.7898 647.626 37.7674 645.881C35.0198 644.295 31.2778 645.065 29.5328 648.087C27.7878 651.11 28.9916 654.736 31.7393 656.322C34.7617 658.067 38.2289 657.138 39.9739 654.116Z" fill="white"/>
<path d="M40.798 654.591C38.8944 657.889 34.719 658.775 31.6966 657.03C28.2408 655.401 27.0795 651.067 28.9831 647.77C30.7281 644.748 35.0621 643.586 38.0845 645.331C41.3817 647.235 42.543 651.569 40.798 654.591C38.8944 657.889 42.543 651.569 40.798 654.591ZM30.3569 648.563C28.9292 651.036 29.7421 654.07 32.215 655.498C34.5293 657.2 37.9965 656.271 39.4242 653.798C40.8519 651.325 40.039 648.292 37.5661 646.864C34.8185 645.277 31.7846 646.09 30.3569 648.563C28.9292 651.036 31.7846 646.09 30.3569 648.563Z" fill="white"/>
<g clip-path="url(#clip7_520_4353)">
<path d="M71.0005 181.9L66.1005 179.2C60.9005 176.3 59.0005 169.8 61.8005 164.6L84.3005 123.6C87.2005 118.4 93.7005 116.5 98.9005 119.3L105.901 123.1C107.001 123.7 107.401 125 106.801 126C106.201 127 105.001 127.4 103.901 126.8L96.9005 123C93.7005 121.3 89.7005 122.4 88.0005 125.6L65.5005 166.6C63.8005 169.8 64.9005 173.8 68.1005 175.5L73.0005 178.2C76.2005 179.9 80.2005 178.8 81.9005 175.6L96.8005 148.4C97.4005 147.4 98.6005 147 99.7005 147.6C100.701 148.2 101.101 149.4 100.501 150.5L85.7005 177.7C82.8005 182.9 76.3005 184.8 71.0005 181.9Z" fill="#AFCDFB"/>
<path d="M50.1996 225L41.3996 220.2C33.2996 215.7 30.5996 205 35.2996 196.3L69.0996 134.6C69.6996 133.6 70.8996 133.2 71.9996 133.8C72.9996 134.4 73.3996 135.6 72.7996 136.7L39.0996 198.3C35.3996 205 37.3996 213.2 43.4996 216.5L52.2996 221.3C58.3996 224.6 66.2996 221.9 69.9996 215.2L108.4 145C112 138.3 110 130.2 103.9 126.9C102.9 126.3 102.5 125.1 103.1 124C103.7 123 105 122.6 106 123.2C114.1 127.7 116.9 138.4 112.1 147.1L73.5996 217.3C68.7996 226 58.2996 229.5 50.1996 225Z" fill="#AFCDFB"/>
</g>
<g clip-path="url(#clip8_520_4353)">
<path d="M1341.09 568.314L1345.44 565.686C1350.08 562.914 1356.06 564.371 1358.87 568.933L1380.9 605.242C1383.67 609.884 1382.22 615.858 1377.65 618.676L1371.49 622.455C1370.51 623.048 1369.31 622.772 1368.8 621.846C1368.28 620.92 1368.51 619.795 1369.48 619.202L1375.65 615.423C1378.44 613.678 1379.39 610.033 1377.65 607.244L1355.62 570.935C1353.88 568.145 1350.23 567.194 1347.44 568.939L1343.09 571.566C1340.3 573.311 1339.35 576.956 1341.1 579.746L1355.72 603.812C1356.24 604.738 1356.01 605.863 1355.03 606.456C1354.11 606.97 1352.98 606.74 1352.39 605.768L1337.72 581.78C1334.95 577.139 1336.4 571.165 1341.09 568.314Z" fill="#AFCDFB"/>
<path d="M1316.64 532.389L1324.41 527.648C1331.63 523.321 1341.27 526.056 1345.98 533.702L1379.15 588.295C1379.67 589.221 1379.44 590.346 1378.46 590.939C1377.54 591.453 1376.41 591.222 1375.82 590.251L1342.68 535.782C1339.09 529.83 1331.73 527.68 1326.37 530.979L1318.6 535.72C1313.24 539.019 1311.77 546.457 1315.36 552.408L1353.13 614.478C1356.77 620.351 1364.04 622.456 1369.41 619.157C1370.33 618.643 1371.46 618.873 1372.05 619.845C1372.57 620.771 1372.29 621.974 1371.36 622.488C1364.15 626.815 1354.46 624.159 1349.8 616.434L1312.07 554.286C1307.41 546.561 1309.43 536.715 1316.64 532.389Z" fill="#AFCDFB"/>
</g>
</g>
<defs>
<clipPath id="clip0_520_4353">
<rect width="1440" height="1024" fill="white"/>
</clipPath>
<clipPath id="clip1_520_4353">
<rect width="124" height="83.9734" fill="white" transform="translate(978 128)"/>
</clipPath>
<clipPath id="clip2_520_4353">
<rect width="274.5" height="234" fill="white" transform="translate(50 725)"/>
</clipPath>
<clipPath id="clip3_520_4353">
<rect width="364" height="123.168" fill="white" transform="translate(1029 286)"/>
</clipPath>
<clipPath id="clip4_520_4353">
<rect width="128" height="127.543" fill="white" transform="translate(67 336)"/>
</clipPath>
<clipPath id="clip5_520_4353">
<rect width="226" height="254.168" fill="white" transform="translate(1195 822)"/>
</clipPath>
<clipPath id="clip6_520_4353">
<rect width="69" height="64.5162" fill="white" transform="translate(1242 717)"/>
</clipPath>
<clipPath id="clip7_520_4353">
<rect width="81.4" height="108.9" fill="white" transform="translate(33 118)"/>
</clipPath>
<clipPath id="clip8_520_4353">
<rect width="73.9147" height="98.8859" fill="white" transform="translate(1408.6 567.443) rotate(120)"/>
</clipPath>
</defs>
</svg>
