<svg width="23.999999999999996" height="23.999999999999996" xmlns="http://www.w3.org/2000/svg">
 <title/>

 <g>
  <title>background</title>
  <rect fill="none" id="canvas_background" height="402" width="582" y="-1" x="-1"/>
 </g>
 <g>
  <title>Layer 1</title>
  <path id="svg_1" fill="#4b5661" d="m19.5,22l-5.5,0a1,1 0 0 1 -1,-1l0,-1a1,1 0 0 1 1,-1l5.5,0a1.5,1.5 0 0 1 1.5,1.5l0,0a1.5,1.5 0 0 1 -1.5,1.5z"/>
  <path id="svg_2" fill="#4b5661" d="m11,10l6,0a0,0 0 0 1 0,0l0,12a0,0 0 0 1 0,0l-9,0a4,4 0 0 1 -4,-4l0,-1a7,7 0 0 1 7,-7z"/>
  <path id="svg_3" fill="#fff" d="m12,22l0,0a1,1 0 0 1 -1,-1l0,-1l2,0l0,1a1,1 0 0 1 -1,1z"/>
  <path id="svg_4" fill="#fff" d="m16,22l0,0a1,1 0 0 1 -1,-1l0,-1l2,0l0,1a1,1 0 0 1 -1,1z"/>
  <path id="svg_5" fill="#ffaa56" d="m14,14l0,0a2.99994,2.99994 0 0 1 -3,-3l0,-2l6,0l0,2a2.99994,2.99994 0 0 1 -3,3z"/>
  <path id="svg_6" fill="#ff888b" d="m13,4l-3,2l0,-3.7929a0.5,0.5 0 0 1 0.8536,-0.3535l2.1464,2.1464z"/>
  <path id="svg_7" fill="#ff888b" d="m15,4l3,2l0,-3.7929a0.5,0.5 0 0 0 -0.8536,-0.3535l-2.1464,2.1464z"/>
  <path id="svg_8" fill="#4b5661" d="m14,11l0,0a4,4 0 0 1 -4,-4l0,-3l8,0l0,3a4.00005,4.00005 0 0 1 -4,4z"/>
  <circle id="svg_9" fill="#fff" r="0.75" cy="6.75" cx="12.25"/>
  <circle id="svg_10" fill="#fff" r="0.75" cy="6.75" cx="16"/>
  <rect id="svg_11" height="0.408922" width="2.193306" y="8.782066" x="13.022303" stroke-opacity="null" stroke-width="null" stroke="null" fill="#ffffff"/>
 </g>
</svg>