<svg width="32" height="32" xmlns="http://www.w3.org/2000/svg" clip-rule="evenodd">

 <g>
  <title>background</title>
  <rect fill="none" id="canvas_background" height="402" width="582" y="-1" x="-1"/>
 </g>
 <g>
  <title>Layer 1</title>
  <path id="svg_1" fill="#f4d160" d="m16,4.497c0,-0.206 -0.126,-0.391 -0.318,-0.466c-0.191,-0.075 -0.409,-0.025 -0.549,0.126c0,0 -7.595,8.203 -10.945,11.821c-0.405,0.437 -0.512,1.073 -0.274,1.619c0.239,0.547 0.779,0.9 1.375,0.9c3.608,0 10.212,0 10.212,0c0.132,0 0.259,-0.053 0.353,-0.147c0.094,-0.093 0.147,-0.221 0.147,-0.353l-0.001,-13.5z"/>
  <path id="svg_2" fill="#d3a511" d="m15.501,18.497l-9.213,0c-0.596,0 -1.136,-0.353 -1.374,-0.9c-0.239,-0.546 -0.132,-1.182 0.274,-1.619l10.784,-11.647c-0.048,-0.135 -0.152,-0.246 -0.29,-0.3c-0.191,-0.075 -0.409,-0.025 -0.549,0.126c0,0 -7.595,8.203 -10.945,11.821c-0.405,0.437 -0.512,1.073 -0.274,1.619c0.239,0.547 0.779,0.9 1.375,0.9l10.212,0z"/>
  <path id="svg_3" fill="#fbeeac" d="m17.845,7.135c-0.145,-0.138 -0.358,-0.177 -0.542,-0.098c-0.184,0.079 -0.303,0.26 -0.303,0.46l0.001,10.5c0,0.276 0.223,0.5 0.5,0.5c0,0 5.258,0 8.503,0c0.613,0 1.165,-0.373 1.393,-0.942c0.228,-0.569 0.086,-1.22 -0.357,-1.643c-3.121,-2.979 -9.195,-8.777 -9.195,-8.777z"/>
  <path id="svg_4" fill="#fff7d0" d="m17.248,7.065c0.033,0.019 0.064,0.043 0.093,0.07c0,0 6.074,5.798 9.195,8.777c0.443,0.423 0.584,1.074 0.356,1.643c-0.228,0.569 -0.779,0.942 -1.392,0.942l-7.999,0c0,0 5.258,0 8.503,0c0.613,0 1.165,-0.373 1.393,-0.942c0.228,-0.569 0.086,-1.22 -0.357,-1.643c-3.121,-2.979 -9.195,-8.777 -9.195,-8.777c-0.145,-0.138 -0.358,-0.177 -0.542,-0.098c-0.019,0.008 -0.037,0.018 -0.055,0.028z"/>
  <path id="svg_5" fill="#f4d160" d="m3.501,23.497c-0.276,0 -0.5,0.224 -0.5,0.5c0,0.831 0.335,1.621 0.946,2.315c0.842,0.956 2.622,1.267 3.929,1.173c0.962,-0.07 20.13,0.015 20.13,0.015c0.274,-0.003 0.494,-0.226 0.494,-0.5l0,-3.003c0,-0.276 -0.224,-0.5 -0.5,-0.5l-24.499,0z"/>
  <path id="svg_6" fill="#d3a511" d="m4.502,23.497l-1.001,0c-0.276,0 -0.5,0.224 -0.5,0.5c0,0.831 0.335,1.621 0.946,2.315c0.842,0.956 2.622,1.267 3.929,1.173c0.011,-0.001 0.025,-0.002 0.04,-0.002c-1.116,-0.081 -2.319,-0.436 -2.968,-1.171c-0.611,-0.694 -0.946,-1.484 -0.946,-2.315c0,-0.276 0.224,-0.5 0.5,-0.5z"/>
  <path id="svg_7" fill="#fff7d0" d="m28.506,24l-0.5,0l-0.006,3c0,0.261 -0.2,0.475 -0.455,0.498c0.298,0.001 0.461,0.002 0.461,0.002c0.274,-0.003 0.494,-0.226 0.494,-0.5l0.006,-3z"/>
  <path id="svg_8" fill="#f4d160" d="m17.501,22.495c0.276,-0.001 0.5,-0.224 0.5,-0.5l-0.001,-17.499c0,-0.399 -0.158,-0.78 -0.44,-1.062c-0.282,-0.281 -0.664,-0.439 -1.062,-0.438c-0.827,0.001 -1.498,0.672 -1.498,1.5c0,3.848 0.001,17.501 0.001,17.501c0,0.133 0.052,0.26 0.146,0.354c0.094,0.093 0.221,0.146 0.354,0.146l2,-0.002z"/>
  <path id="svg_9" fill="#d3a511" d="m16.469,22.496c-0.121,-0.008 -0.235,-0.059 -0.321,-0.145c-0.094,-0.094 -0.147,-0.221 -0.147,-0.354c0,0 0,-13.653 0,-17.501c0,-0.653 0.417,-1.208 0.999,-1.415c-0.16,-0.056 -0.329,-0.086 -0.502,-0.085c-0.827,0.001 -1.498,0.672 -1.498,1.5c0,3.848 0.001,17.501 0.001,17.501c0,0.133 0.052,0.26 0.146,0.354c0.094,0.093 0.221,0.146 0.354,0.146l0.968,-0.001z"/>
  <path id="svg_10" fill="#ffe286" d="m16.498,3.081c0.21,0.073 0.402,0.193 0.563,0.353c0.281,0.282 0.439,0.663 0.44,1.062l0,17.499c0,0.276 -0.223,0.499 -0.499,0.5l-1.524,0.001c0.008,0.001 0.015,0.001 0.023,0.001l2,-0.002c0.276,-0.001 0.5,-0.224 0.5,-0.5l-0.001,-17.499c0,-0.399 -0.158,-0.78 -0.44,-1.062c-0.282,-0.281 -0.664,-0.439 -1.062,-0.438l0,0.085zm-0.499,0.915l0,-0.915c0,0 0,0.915 0,0.915zm0.499,-0.915l0,-0.085c-0.084,0 -0.167,0.007 -0.248,0.02c0.084,0.015 0.168,0.036 0.248,0.065z"/>
  <path id="svg_11" fill="#fbeeac" d="m3.5,24.499l0,0c0,0 24.526,0.001 24.539,0c0.81,-0.021 1.462,-0.685 1.462,-1.499c0,-0.805 -0.635,-1.463 -1.432,-1.498c-0.022,-0.004 -24.616,-0.004 -24.639,0c-0.795,0.036 -1.43,0.694 -1.43,1.498c0,0.827 0.672,1.499 1.5,1.499z"/>
  <path id="svg_12" fill="#e1d286" d="m16.322,21.499c-6.339,0 -12.88,0.001 -12.892,0.003c-0.795,0.036 -1.43,0.694 -1.43,1.498c0,0.827 0.672,1.499 1.5,1.499l0,0c0,0 6.505,0 12.815,0c-5.98,0 -11.814,0 -11.814,0l0,0c-0.828,0 -1.5,-0.672 -1.5,-1.499c0,-0.804 0.635,-1.462 1.43,-1.498c0.011,-0.002 5.884,-0.003 11.891,-0.003z"/>
  <path id="svg_13" fill="#fff7d0" d="m28.069,21.502c-0.011,-0.002 -0.511,-0.002 -0.5,0c0.797,0.035 1.432,0.693 1.432,1.498c0,0.814 -0.652,1.478 -1.462,1.499c-0.006,0 0.493,0 0.5,0c0.81,-0.021 1.462,-0.685 1.462,-1.499c0,-0.805 -0.635,-1.463 -1.432,-1.498z"/>
  <path id="svg_14" fill="#28527a" d="m19.001,27.007l0,0l0,0c0.134,-0.068 0,0 0,0c0,0 -1.105,-0.553 -1.105,-0.553c-0.563,-0.282 -1.227,-0.282 -1.79,0l-0.001,0l0,0l-1.104,0.553l-1.106,-0.553c-0.563,-0.281 -1.226,-0.281 -1.789,0l-1.105,0.553c0.134,-0.067 0,0 0,0l-1.105,-0.554c-0.563,-0.282 -1.227,-0.282 -1.79,0l-1.105,0.553c0,0 -1.106,-0.552 -1.106,-0.552c-0.563,-0.282 -1.226,-0.281 -1.788,0l-1.553,0.776c-0.494,0.247 -0.694,0.848 -0.448,1.342c0.247,0.494 1.189,0.524 1.683,0.277l1.212,-0.606c0,0 1.106,0.552 1.106,0.552c0.563,0.281 1.225,0.281 1.788,0l1.106,-0.553l0,0l0,0c-0.135,0.067 0,0 0,0c0,0 1.105,0.553 1.105,0.553c0.563,0.282 1.226,0.282 1.79,0.001l1.105,-0.553c0,0 1.105,0.553 1.105,0.553c0.563,0.281 1.227,0.281 1.79,-0.001l1.105,-0.553c0,0 1.105,0.553 1.105,0.553c0.563,0.282 1.227,0.282 1.79,0l1.105,-0.553l0,0l1.105,0.553c0.563,0.282 1.226,0.282 1.79,0l1.105,-0.553l1.105,0.553c0.563,0.281 1.227,0.281 1.79,-0.001l1.552,-0.777c0.494,-0.247 0.694,-0.848 0.447,-1.342c-0.247,-0.493 -0.848,-0.694 -1.342,-0.447l-1.552,0.778c-0.33,-0.165 -0.776,-0.388 -1.106,-0.553c-0.563,-0.281 -1.226,-0.281 -1.789,0.001l-1.105,0.553l-1.105,-0.553c-0.563,-0.283 -1.227,-0.283 -1.79,0l-1.105,0.553z"/>
  <path id="svg_15" fill="#3d668e" d="m28.875,26.131c0.32,0.04 0.615,0.234 0.77,0.544c0.247,0.494 0.047,1.095 -0.447,1.342l-1.552,0.777c-0.244,0.122 -0.506,0.191 -0.771,0.208c0.348,0.022 0.701,-0.048 1.021,-0.208l1.552,-0.777c0.494,-0.247 0.694,-0.848 0.447,-1.342c-0.195,-0.39 -0.611,-0.596 -1.02,-0.544zm-15.999,0.116c0.264,0.016 0.526,0.085 0.769,0.207l1.231,0.615l0.125,-0.062l-1.106,-0.553c-0.32,-0.16 -0.672,-0.229 -1.019,-0.207zm-4.001,-0.001c0.265,0.016 0.527,0.086 0.771,0.207l1.229,0.616c0,0 0.134,-0.067 0,0l0.125,-0.062l-1.104,-0.554c-0.32,-0.16 -0.673,-0.229 -1.021,-0.207zm8.001,0c0.264,0.017 0.526,0.086 0.77,0.208c0,0 1.229,0.615 1.229,0.615c0,0 0.134,-0.067 0,0l0.125,-0.062l-1.104,-0.553c-0.32,-0.16 -0.672,-0.23 -1.02,-0.208zm4,0c0.264,0.016 0.526,0.086 0.77,0.208l1.229,0.615l0.125,-0.062l-1.104,-0.553c-0.32,-0.161 -0.672,-0.23 -1.02,-0.208zm-16,0.001c0.264,0.016 0.526,0.085 0.769,0.207c0,0 1.23,0.615 1.23,0.615l0.125,-0.062l-1.105,-0.553c-0.32,-0.16 -0.672,-0.229 -1.019,-0.207zm20,-0.001c0.264,0.017 0.526,0.086 0.769,0.207c0.33,0.165 0.9,0.452 1.23,0.616l0.125,-0.062l-1.105,-0.554c-0.319,-0.16 -0.671,-0.229 -1.019,-0.207z"/>
  <path id="svg_16" fill="#28527a" d="m19.001,29.552857l0,0l0,0c0.134,-0.068 0,0 0,0c0,0 -1.105,-0.553 -1.105,-0.553c-0.563,-0.282 -1.227,-0.282 -1.79,0l-0.001,0l0,0l-1.104,0.553l-1.106,-0.553c-0.563,-0.281 -1.226,-0.281 -1.789,0l-1.105,0.553c0.134,-0.067 0,0 0,0l-1.105,-0.554c-0.563,-0.282 -1.227,-0.282 -1.79,0l-1.105,0.553c0,0 -1.106,-0.552 -1.106,-0.552c-0.563,-0.282 -1.226,-0.281 -1.788,0l-1.553,0.776c-0.494,0.247 -0.694,0.848 -0.448,1.342c0.247,0.494 1.189,0.524 1.683,0.277l1.212,-0.606c0,0 1.106,0.552 1.106,0.552c0.563,0.281 1.225,0.281 1.788,0l1.106,-0.553l0,0l0,0c-0.135,0.067 0,0 0,0c0,0 1.105,0.553 1.105,0.553c0.563,0.282 1.226,0.282 1.79,0.001l1.105,-0.553c0,0 1.105,0.553 1.105,0.553c0.563,0.281 1.227,0.281 1.79,-0.001l1.105,-0.553c0,0 1.105,0.553 1.105,0.553c0.563,0.282 1.227,0.282 1.79,0l1.105,-0.553l0,0l1.105,0.553c0.563,0.282 1.226,0.282 1.79,0l1.105,-0.553l1.105,0.553c0.563,0.281 1.227,0.281 1.79,-0.001l1.552,-0.777c0.494,-0.247 0.694,-0.848 0.447,-1.342c-0.247,-0.493 -0.848,-0.694 -1.342,-0.447l-1.552,0.778c-0.33,-0.165 -0.776,-0.388 -1.106,-0.553c-0.563,-0.281 -1.226,-0.281 -1.789,0.001l-1.105,0.553l-1.105,-0.553c-0.563,-0.283 -1.227,-0.283 -1.79,0l-1.105,0.553z"/>
 </g>
</svg>