<?xml version="1.0" ?>
<svg id="Layer_1" style="enable-background:new 0 0 512 512;" version="1.1" viewBox="0 0 512 512" xml:space="preserve"
     xmlns="http://www.w3.org/2000/svg"><style type="text/css">
	.st0{fill:#B24E10;}
	.st1{fill:#E36414;}
	.st2{fill:#F7C9AB;}
	.st3{fill:#F3AB7D;}
	.st4{fill:#EF803A;}
	.st5{fill-rule:evenodd;clip-rule:evenodd;fill:#B24E10;}
	.st6{fill-rule:evenodd;clip-rule:evenodd;fill:#E36414;}
	.st7{fill:#57130F;}
</style>
    <g id="XMLID_1_"><g id="XMLID_4179_"><path class="st0" d="M162,423.1l3.7,51.4L76,506.9H5c0,0,8.5-16.2,20-26.7c11.5-10.5,100.3-8.4,100.3-8.4    l3.8-59.9H162L162,423.1L162,423.1z" id="XMLID_4223_"/><path
            class="st1"
            d="M507,506.9c-51,0-197,6-251-80c0,0-21.5,1.5-29.5,9c-8,7.5,9,53.5,9,53.5l-10,17.6L76,506.9    c0,0,9.5-24.5,26-30c16.5-5.5,92.5-1,92.5-1s0.5-31-3.5-51c-84.7,0-99.3-54.4-99.3-54.4l-13-22l-13.9-73.7c0,0,2.3-55.2,4.9-72.6    c2.6-17.3,24.4-37.3,24.4-37.3h83.4c25.3,56.7,111.6,73,143.6,135c32,62-16.7,96.1-10,116c16.9,50,133,66.6,178.1,71.2    C499.3,488.2,507,496.7,507,506.9"
            id="XMLID_4222_"/><path class="st0"
                                    d="M80.7,179.8c3.3,3.2,6.5,5.7,9.1,7.7c1,3.5,2.4,7.5,4.4,11.6c8.1,16.4,22.6,25.8,39.8,25.8    c17.1,0,31.5-9,39.4-24.8c1.8-3.6,3.1-7.1,4-10.3c3.1-2,6.7-4.6,10.4-7.6c-4.1-5.4-7.6-11.1-10.4-17.4H94    C94,164.9,87.2,171.2,80.7,179.8"
                                    id="XMLID_4221_"/><path class="st2"
                                                            d="M191,424.9c-84.7,0-99.3-54.4-99.3-54.4l-13-22l-9.8-51.8l37.3-131.8h42.3l34.4,91.8    l-8.8,48.2l12.3,12.9l2.4,9.1C167.3,360.8,187.4,407,191,424.9"
                                                            id="XMLID_4220_"/><path class="st3"
                                                                                    d="M144.4,350.3l-6.8-7.3c18.2-17.1,17.2-30.3,17.1-30.8l9.9-1.2    C164.7,311.7,166.7,329.4,144.4,350.3"
                                                                                    id="XMLID_4219_"/><path class="st3"
                                                                                                            d="M134,224.9c12.6,0,23.7-4.9,31.9-13.8l-17.3-46.2h-42.3l-10.5,37    C104.1,216.6,117.9,224.9,134,224.9"
                                                                                                            id="XMLID_4218_"/><path
            class="st1"
            d="M193.9,144.2c-6,17.3-34.3,33.1-34.3,33.1s-2.2,27.6-25.6,27.6c-23.3,0-26.3-29.3-26.3-29.3    s-17.9-10-30.5-32C64.5,121.6,96,77.4,96,77.4s-29.5-5-34-25.5c-4.5-20.5-11-47,0-47c11,0,35,12.5,40,21.5c5,9,24,46.5,32,46.5    c8,0,11.8-36,19.3-46.5S190,4.9,198,4.9c8,0,3.3,28.2,3.3,41.2c0,11.7-34.3,30.3-34.3,30.3S199.9,126.9,193.9,144.2"
            id="XMLID_4217_"/><path class="st2"
                                    d="M91.7,35.9C86.3,28.6,56,14.6,56,14.6c-0.3,9.6,3.2,24.6,6,37.3c4.5,20.5,34,25.5,34,25.5    S97,43.2,91.7,35.9"
                                    id="XMLID_4216_"/><path class="st2"
                                                            d="M201.3,46.1c0-8.1,1.8-22.1,1.3-31.5c-1.8,0.7-28.4,10.3-32.2,19c-4,9-3.3,42.8-3.3,42.8    S201.3,57.8,201.3,46.1"
                                                            id="XMLID_4215_"/><path class="st0"
                                                                                    d="M104.9,137.2c-4.9,0-7.1-4.8-7.1-15.2c0-10.4,2.3-15.3,7.1-15.3c4.9,0,7.1,4.8,7.1,15.3    C112,132.3,109.7,137.2,104.9,137.2"
                                                                                    id="XMLID_4214_"/><path class="st0"
                                                                                                            d="M161.9,137.2c-4.9,0-7.1-4.8-7.1-15.2c0-10.4,2.3-15.3,7.1-15.3c4.9,0,7.1,4.8,7.1,15.3    C169.1,132.3,166.8,137.2,161.9,137.2"
                                                                                                            id="XMLID_4213_"/><path
            class="st0"
            d="M102.7,118.9l-5-0.5l-4.9-0.4c0.4-4.5,4.2-11.3,12.2-11.3v10    C104,116.7,103,116.7,102.7,118.9"
            id="XMLID_4212_"/><path class="st0"
                                    d="M164.1,118.8c-0.2-2.1-2.1-2.1-2.1-2.1v-10c8,0,11.7,6.8,12.1,11.4L164.1,118.8L164.1,118.8    z"
                                    id="XMLID_4211_"/><path class="st0"
                                                            d="M133.8,187.9c-1.5,0-3-0.7-4-1.9l-8.5-11c-1.2-1.5-1.4-3.5-0.5-5.3c0.8-1.7,2.6-2.8,4.5-2.8    H142c1.9,0,3.6,1.1,4.5,2.8c0.8,1.7,0.7,3.7-0.5,5.2l-8.2,11C136.9,187.1,135.4,187.9,133.8,187.9L133.8,187.9L133.8,187.9z"
                                                            id="XMLID_4210_"/><path class="st4"
                                                                                    d="M78.7,348.5c0,0-15.2,15.4-6.2,25.9c9,10.5,38-21.5,46.5-21c8.5,0.5,25.5-1.4,26-17.5    c0.5-16-11.5-28-11.5-28s22-5,26.5-11.5c4.5-6.5,6-27.5,0-27.5s-23.5,1.5-28,6c-4.5,4.5-7.6,26-14.8,25c-7.2-1,11.3-33-10.7-40    c-22-7-7.5,39.5-7.5,39.5s-13.5,9.9-16,18.4C80.5,326.4,78.7,348.5,78.7,348.5"
                                                                                    id="XMLID_4209_"/><polygon
            class="st5" id="XMLID_4208_" points="101,326.9 111,326.9 111,340.9 101,340.9 101,326.9   "/><polygon
            class="st5" id="XMLID_4207_" points="64.4,354.9 81.9,360.1 79.1,369.7 61.6,364.4 64.4,354.9   "/><polygon
            class="st0" id="XMLID_4206_" points="66.8,285.7 71,307.7 96.5,217.6 86.9,214.9 66.8,285.7   "/><polygon
            class="st5" id="XMLID_4205_" points="105,491.9 115,491.9 115,506.9 105,506.9 105,491.9   "/><polygon
            class="st6" id="XMLID_4204_" points="33,491.9 43,491.9 43,506.9 33,506.9 33,491.9   "/><path class="st0"
                                                                                                         d="M186.1,425.9c-0.6-3-1.8-7.1-3.1-11.9c-7.1-25-20.4-71.5,11.9-102.1    c10.3-9.7,21.4-13.8,33-12.2c25,3.4,42.6,32.4,43.4,33.7l-8.6,5.2c-0.2-0.3-16-26.1-36.2-28.9c-8.6-1.2-16.7,2-24.7,9.6    c-27.9,26.4-16.2,67.5-9.2,92c1.4,5,2.6,9.2,3.3,12.7L186.1,425.9L186.1,425.9z"
                                                                                                         id="XMLID_4203_"/><path
            class="st0"
            d="M186.5,322.9c-1.4,0-2.7-0.6-3.6-1.6l-12.3-13c-1.1-1.2-1.6-2.8-1.3-4.3l8.5-46.8    l-17.1-45.5l9.4-3.5l17.6,46.8c0.3,0.8,0.4,1.8,0.2,2.7l-8.3,45.7l6.8,7.1l10-11.5l-6.1-9.3c-0.9-1.4-1.1-3.2-0.4-4.8    c0.1-0.3,12.6-27.9,13.6-43.7c0.9-15.3-12.1-37.5-12.2-37.8l8.6-5.1c0.6,1,14.7,25.1,13.6,43.4c-0.9,14.9-10.1,37.2-13.3,44.7    l6.7,10.2c1.2,1.9,1.1,4.3-0.4,6l-16.2,18.5C189.3,322.2,188,322.9,186.5,322.9L186.5,322.9L186.5,322.9z"
            id="XMLID_4202_"/><path class="st0"
                                    d="M160,296.4c3-4.3,4.6-14.9,3.7-21.6c0,0-20.7,2.4-24,6.8c-3.3,4.3-6.2,26.3-6.2,26.3    S155.5,302.9,160,296.4"
                                    id="XMLID_4201_"/></g>
        <g id="XMLID_4910_"><g id="XMLID_483_"><path class="st7" d="M134,210c-20.5,0-28.9-19.2-30.9-31.3c-5.4-3.5-19.5-13.9-30.2-32.5     c-6.1-10.6-4.6-26,4.4-45.9c3.6-7.9,7.7-15,10.6-19.6c-10-3.1-27.1-10.7-30.8-27.6l-0.8-3.4c-5.1-23.1-8-38.7-2.2-46     C56.1,1.3,58.8,0,62,0c12.2,0,38.2,12.9,44.4,24.1c0.6,1.1,1.5,2.7,2.5,4.7c14.7,27.4,21.5,36.4,24.7,38.8     c2.2-3.2,4.9-13.2,6.6-19.4c2.7-9.9,5.3-19.3,9-24.5C158,11.2,189,0,198,0c2.2,0,4.3,0.9,5.9,2.6c4.6,4.9,4.2,15.3,3,31.9     c-0.3,4.4-0.6,8.6-0.6,11.8c0,11.7-20.9,25.5-32.2,32.1c3.1,5,8.2,13.7,13.1,23.4c10.7,21.2,14.4,35.7,11.4,44.3l0,0     c-5.6,16.1-27.3,30.2-34.4,34.5C162.4,192,154.4,210,134,210z M61.9,10c-0.3,0.5-1.6,3-0.5,12.5c0.9,7.5,2.8,16.4,4.7,25l0.8,3.4     c3.7,17,29.7,21.6,30,21.6c1.7,0.3,3.1,1.4,3.8,3c0.7,1.6,0.5,3.4-0.5,4.8c-8.2,11.6-27.6,45-18.5,60.8     c11.8,20.4,28.5,30,28.7,30.1c1.4,0.8,2.4,2.2,2.5,3.9c0.1,1,2.8,24.8,21.3,24.8c18.5,0,20.5-22,20.6-23c0.1-1.7,1.1-3.2,2.6-4     c7.4-4.1,27.6-17.7,32-30.4l0,0c3.6-10.4-13.2-43.3-26.3-63.5c-0.8-1.2-1-2.6-0.7-4c0.3-1.4,1.2-2.5,2.5-3.2     c15-8.1,31.7-20.7,31.7-25.9c0-3.5,0.3-7.8,0.6-12.5c0.5-7,1.4-19.7,0-23.7c-8.1,0.9-33.4,10.7-39.6,19.3     c-2.7,3.8-5.3,13.1-7.5,21.3C145.5,66.6,142.4,78,134,78c-7.5,0-16-11.2-33.9-44.5c-1-1.9-1.8-3.4-2.5-4.5     C93.7,21.8,71.4,10,61.9,10C62,10,61.9,10,61.9,10z" id="XMLID_3372_"/></g>
            <g id="XMLID_482_"><path class="st7" d="M101,77.6l-10-0.3c0.5-15.6-0.7-34.7-3.4-38.4C84.5,34.6,66,24.8,53.9,19.2l4.2-9.1     c5.3,2.4,31.8,15,37.6,22.9C101.6,41.1,101.2,69.2,101,77.6z" id="XMLID_3371_"/></g>
            <g id="XMLID_2573_"><path class="st7" d="M162,76.6c-0.1-3.6-0.6-35.2,3.8-45c1.8-4.1,6.3-8,14.1-12.3l4.8,8.7     c-8.1,4.5-9.6,7.1-9.8,7.6c-2.6,5.8-3.2,28-2.9,40.7L162,76.6z" id="XMLID_3370_"/></g>
            <g id="XMLID_485_"><path class="st7" d="M104.9,137.2c-4.9,0-7.1-4.8-7.1-15.2c0-10.4,2.3-15.2,7.1-15.2s7.1,4.8,7.1,15.2     C112,132.4,109.7,137.2,104.9,137.2z" id="XMLID_3369_"/></g>
            <g id="XMLID_488_"><path class="st7" d="M161.9,137.2c-4.9,0-7.1-4.8-7.1-15.2c0-10.4,2.3-15.2,7.1-15.2s7.1,4.8,7.1,15.2     C169.1,132.4,166.8,137.2,161.9,137.2z" id="XMLID_3368_"/></g>
            <g id="XMLID_487_"><path class="st7" d="M102.7,119l-5-0.5l-4.9-0.4c0.4-4.5,4.2-11.3,12.2-11.3v10C104,116.7,103,116.7,102.7,119z     " id="XMLID_3367_"/></g>
            <g id="XMLID_486_"><path class="st7" d="M164.1,118.8c-0.2-2.1-2.1-2.1-2.1-2.1v-10c8,0,11.7,6.8,12.1,11.4L164.1,118.8z" id="XMLID_3366_"/></g>
            <g id="XMLID_557_"><path class="st7" d="M133.8,188c-1.5,0-3-0.7-4-2l-8.5-11c-1.2-1.5-1.4-3.5-0.5-5.2c0.8-1.7,2.6-2.8,4.5-2.8     H142c1.9,0,3.6,1.1,4.5,2.7c0.8,1.7,0.7,3.7-0.5,5.2l-8.2,11C136.9,187.2,135.4,188,133.8,188C133.9,188,133.8,188,133.8,188z" id="XMLID_3365_"/></g>
            <g id="XMLID_489_"><path class="st7" d="M225.5,512C225.5,512,225.5,512,225.5,512L76,511.9c-1.6,0-3.2-0.8-4.1-2.2     c-0.9-1.4-1.1-3.1-0.5-4.6c0.4-1.1,10.6-26.8,29.1-32.9c14.9-5,70.6-2.5,89.1-1.5c-0.1-9.6-0.5-30.3-3.4-44.7     c-0.6-3-1.8-7.1-3.1-11.9c-7.1-25-20.4-71.5,11.9-102c10.3-9.7,21.4-13.8,33-12.2c25,3.4,42.7,32.4,43.4,33.6l-8.6,5.1     c-0.2-0.3-16-26.1-36.2-28.9c-8.6-1.2-16.7,2-24.7,9.6c-27.9,26.4-16.2,67.5-9.2,92c1.4,5,2.6,9.2,3.3,12.7     c4.1,20.3,3.6,50.8,3.6,52.1c0,1.4-0.6,2.7-1.6,3.6c-1,0.9-2.3,1.4-3.7,1.3c-20.9-1.2-77.8-3.5-90.6,0.8     c-8.6,2.9-15.6,12.7-19.7,20.3l138.7,0.1l7.4-13.1c-1.4-4-4.4-12.8-6.9-22.2c-6.4-24.6-3.4-31.3-0.1-34.5     c9-8.5,30.2-10.2,32.6-10.3c1.8-0.1,3.6,0.8,4.6,2.3c49.5,78.8,181.1,78,237.3,77.7c1.2,0,2.5,0,3.6,0c-1.9-5.3-6.6-9.2-12.5-9.8     c-21.4-2.2-62.9-7.5-100.6-18.8c-46.4-13.9-74-32.6-81.8-55.8c-2.9-8.7,1.8-18.4,7.2-29.5c9.7-19.9,23-47.1,3.1-85.8     c-15.5-30-44.8-49.3-73.1-67.9c-29.5-19.4-57.5-37.8-70.6-67.3l9.1-4.1c12,26.8,38.7,44.4,67,63c29.4,19.3,59.8,39.4,76.5,71.7     c22.3,43.2,7.1,74.2-3,94.8c-4.5,9.2-8.4,17.1-6.8,21.9c16.2,48.1,137.2,64.1,173.9,67.8c12.7,1.3,22.4,11.9,22.4,24.7     c0,2.8-2.2,5-5,5c-2.9,0-6,0-9.4,0c-57.3,0.3-190.5,1.1-244.1-79.8c-7.8,0.9-19.1,3.3-23.5,7.3c-0.2,0.4-2.4,5,3.1,25.7     c3.1,11.7,7.1,22.4,7.1,22.5c0.5,1.4,0.4,2.9-0.3,4.2l-10,17.6C229,511,227.3,512,225.5,512z" id="XMLID_3364_"/></g>
            <g id="XMLID_574_"><path class="st7" d="M77.3,381.6c-3.5,0-6.3-1.3-8.6-3.9c-8.9-10.4-1.5-23.9,5.1-31.3     c0.5-5.5,2.2-22.3,4.4-29.9c2.2-7.5,10.5-15.2,15-18.9c-2.9-10.2-7.6-31.7,0.7-40c2.4-2.4,6.7-4.7,14-2.4     c15.1,4.8,15.5,18.8,14.1,29.2c0.1-0.3,0.2-0.6,0.3-0.8c1.9-5.2,3.5-9.7,6-12.2c7.1-7.1,31.3-7.5,31.5-7.5c2.9,0,5.5,1.7,7,4.6     c3.8,7.3,1.6,24.3-2.9,30.8c-3.7,5.3-14.2,9.3-22,11.6c3.8,5.7,8.2,14.6,7.9,25.3c-0.2,6.3-2.4,11.4-6.7,15.3     c-7.8,7.1-19.6,7.3-24.5,7c-2.2,0.3-9,5.3-13.5,8.6c-5.7,4.1-12.1,8.8-17.8,11.7C83.6,380.6,80.2,381.6,77.3,381.6z M82.2,352.1     c-0.1,0.1-11.7,12.4-5.9,19.1c0.7,0.8,3.4,0.3,6.8-1.4c5-2.4,11-6.8,16.3-10.7c9.5-6.9,15-10.9,19.9-10.6     c5.7,0.3,13.2-0.7,17.3-4.4c2.2-2,3.3-4.7,3.4-8.2c0.4-13.6-9.9-24.3-10-24.4c-1.3-1.3-1.8-3.2-1.2-4.9s1.9-3.1,3.7-3.5     c9.7-2.2,21.5-6.5,23.5-9.5c2.7-3.9,3.8-15.6,2.6-19.6c-8.7,0.2-20.7,2.3-23,4.5c-1,1-2.6,5.5-3.7,8.5c-3.2,8.9-6.9,19-15.4,17.9     c-1.8-0.3-3.4-1.2-4.5-2.7c-2.3-3.2-1.6-7.6-0.6-13.6c2.4-14,2-21.2-6.4-23.9c-1.1-0.4-3.1-0.8-3.9-0.1     c-3.4,3.4-1.3,20.3,2.7,33.3c0.6,2-0.1,4.3-1.8,5.5c-4.7,3.5-12.7,10.8-14.2,15.8c-1.9,6.6-3.7,23.7-4.2,29.7     C83.6,350.1,83,351.2,82.2,352.1L82.2,352.1z" id="XMLID_3360_"/></g>
            <g id="XMLID_575_"><rect class="st7" height="14" id="XMLID_3358_" width="10" x="101" y="327"/></g>
            <g id="XMLID_581_"><rect class="st7" height="10" id="XMLID_3357_" transform="matrix(0.9578 0.2873 -0.2873 0.9578 107.1176 -5.3389)" width="18.3" x="62.6" y="357.3"/></g>
            <g id="XMLID_586_"><path class="st7" d="M144.4,350.3l-6.8-7.3c18.2-17.1,17.2-30.3,17.1-30.8l9.9-1.2     C164.7,311.7,166.7,329.4,144.4,350.3z" id="XMLID_3356_"/></g>
            <g id="XMLID_2371_"><path class="st7" d="M191,429.9c-51.7,0-78.5-19.7-91.9-36.2l7.8-6.3c12.1,14.8,36.5,32.5,84.2,32.5V429.9z" id="XMLID_3355_"/></g>
            <g id="XMLID_603_"><path class="st7" d="M73.8,349.5l-13.9-73.7c-0.1-0.4-0.1-0.8-0.1-1.1c0.1-2.3,2.3-55.7,5-73.1     c2.9-18.8,25-39.4,25.9-40.3l6.8,7.4c-5.7,5.2-20.9,21.6-22.8,34.4c-2.4,15.9-4.6,65.5-4.8,71.4l13.8,73.1L73.8,349.5z      M97.4,168.6L94,165L97.4,168.6C97.4,168.6,97.4,168.6,97.4,168.6L97.4,168.6z" id="XMLID_3352_"/></g>
            <g id="XMLID_612_"><path class="st7" d="M186.5,323c-1.4,0-2.7-0.6-3.6-1.6l-12.3-13c-1.1-1.2-1.6-2.8-1.3-4.3l8.5-46.8l-17.1-45.5     l9.4-3.5l17.6,46.8c0.3,0.8,0.4,1.8,0.2,2.7l-8.3,45.7l6.8,7.1l10-11.5l-6.1-9.3c-0.9-1.4-1.1-3.2-0.4-4.8     c0.1-0.3,12.6-27.9,13.6-43.7c0.9-15.3-12.1-37.5-12.2-37.8l8.6-5.1c0.6,1,14.7,25.1,13.6,43.4c-0.9,14.9-10.1,37.2-13.3,44.7     l6.7,10.2c1.2,1.9,1.1,4.3-0.4,6l-16.2,18.5C189.3,322.3,188,323,186.5,323C186.6,323,186.5,323,186.5,323z" id="XMLID_3351_"/></g>
            <g id="XMLID_582_"><rect class="st7" height="83.6" id="XMLID_3350_" transform="matrix(0.9621 0.2726 -0.2726 0.9621 72.9675 -12.1675)" width="10" x="75.3" y="214.7"/></g>
            <g id="XMLID_606_"><path class="st7" d="M76,512H5c-1.8,0-3.4-1-4.3-2.5c-0.9-1.5-1-3.4-0.1-4.9c0.4-0.7,9-17.1,21.1-28     c2.3-2.1,8.5-7.8,57.7-9.5c17-0.6,33.5-0.5,41.3-0.4l3.5-55.3l10,0.6l-3.8,60c-0.2,2.7-2.4,4.8-5.1,4.7c-0.2,0-22.4-0.5-45.6,0.4     c-43.2,1.5-50.3,6.1-51.2,7c-6,5.5-11.2,13-14.6,18H76V512z" id="XMLID_3349_"/></g>
            <g id="XMLID_619_"><rect class="st7" height="10" id="XMLID_3347_" transform="matrix(7.107640e-002 0.9975 -0.9975 7.107640e-002 599.6889 253.331)" width="51.6" x="138.1" y="443.6"/></g>
            <g id="XMLID_624_"><rect class="st7" height="15" id="XMLID_3001_" width="10" x="105" y="492"/></g>
            <g id="XMLID_25_"><rect class="st7" height="15" id="XMLID_3000_" width="10" x="33" y="492"/></g></g></g></svg>