<svg width="1115" height="160" xmlns="http://www.w3.org/2000/svg">
    <g>
        <title>background</title>
        <rect x="-1" y="-1" width="1117" height="162" id="canvas_background" fill="none"/>
    </g>

    <g>
        <title>Layer 1</title>
        <path d="m161.297254,160l-160,0l0,-160l160,0l0,160z" fill="#000000" id="svg_2"/>
        <path d="m2.630584,1.33333l157.33367,0l0,157.33367l-157.33367,0l0,-157.33367z" fill="#FFFFFF" id="svg_3"/>
        <path d="m5.297254,4l152,0l0,152l-152,0l0,-152z" fill="#ffff00" id="svg_4"/>
        <path d="m320.052114,160l-160,0l0,-160l160,0l0,160z" fill="#000000" id="svg_10"/>
        <path d="m161.385444,1.33333l157.33367,0l0,157.33367l-157.33367,0l0,-157.33367z" fill="#FFFFFF" id="svg_11"/>
        <path d="m164.052114,4l152,0l0,152l-152,0l0,-152z" fill="#ffff00" id="svg_12"/>
        <path d="m478.806974,160l-160,0l0,-160l160,0l0,160z" fill="#000000" id="svg_14"/>
        <path d="m320.140304,1.33333l157.33367,0l0,157.33367l-157.33367,0l0,-157.33367z" fill="#FFFFFF" id="svg_15"/>
        <path d="m322.806974,4l152,0l0,152l-152,0l0,-152z" fill="#ffff00" id="svg_16"/>
        <path d="m637.561824,160l-160,0l0,-160l160,0l0,160z" fill="#000000" id="svg_19"/>
        <path d="m478.895154,1.33333l157.33367,0l0,157.33367l-157.33367,0l0,-157.33367z" fill="#FFFFFF" id="svg_20"/>
        <path d="m481.561824,4l152,0l0,152l-152,0l0,-152z" fill="#ffff00" id="svg_21"/>
        <path d="m796.316674,160l-160,0l0,-160l160,0l0,160z" fill="#000000" id="svg_23"/>
        <path d="m637.650004,1.33333l157.33367,0l0,157.33367l-157.33367,0l0,-157.33367z" fill="#FFFFFF" id="svg_24"/>
        <path d="m640.316674,4l152,0l0,152l-152,0l0,-152z" fill="#ff0000" id="svg_25"/>
        <path d="m955.460624,160l-160,0l0,-160l160,0l0,160z" fill="#000000" id="svg_27"/>
        <path d="m796.793954,1.33333l157.33367,0l0,157.33367l-157.33367,0l0,-157.33367z" fill="#FFFFFF" id="svg_28"/>
        <path d="m799.460624,4l152,0l0,152l-152,0l0,-152z" fill="#ff0000" id="svg_29"/>
        <path d="m1114.215484,160l-160,0l0,-160l160,0l0,160z" fill="#000000" id="svg_31"/>
        <path d="m955.548814,1.33333l157.33367,0l0,157.33367l-157.33367,0l0,-157.33367z" fill="#FFFFFF" id="svg_32"/>
        <path d="m958.215484,4l152,0l0,152l-152,0l0,-152z" fill="#ff0000" id="svg_33"/>
    </g>
</svg>
