<svg width="1272" height="160" xmlns="http://www.w3.org/2000/svg">
    <g>
        <title>background</title>
        <rect x="-1" y="-1" width="1274" height="162" id="canvas_background" fill="none"/>
    </g>

    <g>
        <title>Layer 1</title>
        <path d="m161.297254,160l-160,0l0,-160l160,0l0,160z" fill="#000000" id="svg_2"/>
        <path d="m2.630584,1.33333l157.33367,0l0,157.33367l-157.33367,0l0,-157.33367z" fill="#FFFFFF" id="svg_3"/>
        <path d="m5.297254,4l152,0l0,152l-152,0l0,-152z" fill="#ffff00" id="svg_4"/>
        <path d="m320.052114,160l-160,0l0,-160l160,0l0,160z" fill="#000000" id="svg_10"/>
        <path d="m161.385444,1.33333l157.33367,0l0,157.33367l-157.33367,0l0,-157.33367z" fill="#FFFFFF" id="svg_11"/>
        <path d="m164.052114,4l152,0l0,152l-152,0l0,-152z" fill="#ffff00" id="svg_12"/>
        <path d="m478.806974,160l-160,0l0,-160l160,0l0,160z" fill="#000000" id="svg_14"/>
        <path d="m320.140304,1.33333l157.33367,0l0,157.33367l-157.33367,0l0,-157.33367z" fill="#FFFFFF" id="svg_15"/>
        <path d="m322.806974,4l152,0l0,152l-152,0l0,-152z" fill="#ffff00" id="svg_16"/>
        <path d="m636.790583,160l-160,0l0,-160l160,0l0,160z" fill="#000000" id="svg_23"/>
        <path d="m478.123913,1.33333l157.33367,0l0,157.33367l-157.33367,0l0,-157.33367z" fill="#FFFFFF" id="svg_24"/>
        <path d="m480.790583,4l152,0l0,152l-152,0l0,-152z" fill="#ff0000" id="svg_25"/>
        <path d="m794.605149,160l-160,0l0,-160l160,0l0,160z" fill="#000000" id="svg_27"/>
        <path d="m635.938479,1.33333l157.33367,0l0,157.33367l-157.33367,0l0,-157.33367z" fill="#FFFFFF" id="svg_28"/>
        <path d="m638.605149,4l152,0l0,152l-152,0l0,-152z" fill="#ff0000" id="svg_29"/>
        <path d="m953.360009,160l-160,0l0,-160l160,0l0,160z" fill="#000000" id="svg_31"/>
        <path d="m794.693339,1.33333l157.33367,0l0,157.33367l-157.33367,0l0,-157.33367z" fill="#FFFFFF" id="svg_32"/>
        <path d="m797.360009,4l152,0l0,152l-152,0l0,-152z" fill="#ff0000" id="svg_33"/>
        <path d="m1111.556715,160l-160,0l0,-160l160,0l0,160z" fill="#000000" id="svg_1"/>
        <path d="m952.890045,1.33333l157.33367,0l0,157.33367l-157.33367,0l0,-157.33367z" fill="#FFFFFF" id="svg_5"/>
        <path d="m955.556715,4l152,0l0,152l-152,0l0,-152z" fill="#ff0000" id="svg_6"/>
        <path d="m1269.753427,160l-160,0l0,-160l160,0l0,160z" fill="#000000" id="svg_7"/>
        <path d="m1111.086757,1.33333l157.33367,0l0,157.33367l-157.33367,0l0,-157.33367z" fill="#FFFFFF" id="svg_8"/>
        <path d="m1113.753427,4l152,0l0,152l-152,0l0,-152z" fill="#ff0000" id="svg_9"/>
    </g>
</svg>
