<svg width="1429.9999999999998" height="162" xmlns="http://www.w3.org/2000/svg">
    <g>
        <title>background</title>
        <rect x="-1" y="-1" width="1432" height="164" id="canvas_background" fill="none"/>
    </g>

    <g>
        <title>Layer 1</title>
        <path d="m161.297254,161.329384l-160,0l0,-160l160,0l0,160z" fill="#000000" id="svg_2"/>
        <path d="m2.630584,2.662714l157.33367,0l0,157.33367l-157.33367,0l0,-157.33367z" fill="#FFFFFF" id="svg_3"/>
        <path d="m5.297254,5.329384l152,0l0,152l-152,0l0,-152z" fill="#ffff00" id="svg_4"/>
        <path d="m320.052114,161.329384l-160,0l0,-160l160,0l0,160z" fill="#000000" id="svg_10"/>
        <path d="m161.385444,2.662714l157.33367,0l0,157.33367l-157.33367,0l0,-157.33367z" fill="#FFFFFF" id="svg_11"/>
        <path d="m164.052114,5.329384l152,0l0,152l-152,0l0,-152z" fill="#ffff00" id="svg_12"/>
        <path d="m478.806974,161.329384l-160,0l0,-160l160,0l0,160z" fill="#000000" id="svg_14"/>
        <path d="m320.140304,2.662714l157.33367,0l0,157.33367l-157.33367,0l0,-157.33367z" fill="#FFFFFF" id="svg_15"/>
        <path d="m322.806974,5.329384l152,0l0,152l-152,0l0,-152z" fill="#ffff00" id="svg_16"/>
        <path d="m636.790583,161.329384l-160,0l0,-160l160,0l0,160z" fill="#000000" id="svg_23"/>
        <path d="m478.123913,2.662714l157.33367,0l0,157.33367l-157.33367,0l0,-157.33367z" fill="#FFFFFF" id="svg_24"/>
        <path d="m480.790583,5.329384l152,0l0,152l-152,0l0,-152z" fill="#ff0000" id="svg_25"/>
        <path d="m794.605149,161.329384l-160,0l0,-160l160,0l0,160z" fill="#000000" id="svg_27"/>
        <path d="m635.938479,2.662714l157.33367,0l0,157.33367l-157.33367,0l0,-157.33367z" fill="#FFFFFF" id="svg_28"/>
        <path d="m638.605149,5.329384l152,0l0,152l-152,0l0,-152z" fill="#ff0000" id="svg_29"/>
        <path d="m953.360009,161.329384l-160,0l0,-160l160,0l0,160z" fill="#000000" id="svg_31"/>
        <path d="m794.693339,2.662714l157.33367,0l0,157.33367l-157.33367,0l0,-157.33367z" fill="#FFFFFF" id="svg_32"/>
        <path d="m797.360009,5.329384l152,0l0,152l-152,0l0,-152z" fill="#ff0000" id="svg_33"/>
        <path d="m1111.556715,161.329384l-160,0l0,-160l160,0l0,160z" fill="#000000" id="svg_1"/>
        <path d="m952.890045,2.662714l157.33367,0l0,157.33367l-157.33367,0l0,-157.33367z" fill="#FFFFFF" id="svg_5"/>
        <path d="m955.556715,5.329384l152,0l0,152l-152,0l0,-152z" fill="#ff0000" id="svg_6"/>
        <path d="m1269.753427,161.329384l-160,0l0,-160l160,0l0,160z" fill="#000000" id="svg_7"/>
        <path d="m1111.086757,2.662714l157.33367,0l0,157.33367l-157.33367,0l0,-157.33367z" fill="#FFFFFF" id="svg_8"/>
        <path d="m1113.753427,5.329384l152,0l0,152l-152,0l0,-152z" fill="#ff0000" id="svg_9"/>
        <path d="m1427.950134,161.329384l-160,0l0,-160l160,0l0,160z" fill="#000000" id="svg_13"/>
        <path d="m1269.283464,2.662714l157.33367,0l0,157.33367l-157.33367,0l0,-157.33367z" fill="#FFFFFF" id="svg_17"/>
        <path d="m1271.950134,5.329384l152,0l0,152l-152,0l0,-152z" fill="#ff0000" id="svg_18"/>
    </g>
</svg>
