<svg width="600" height="230" xmlns="http://www.w3.org/2000/svg">

    <g>
        <title>background</title>
        <rect fill="none" id="canvas_background" height="232" width="602" y="-1" x="-1"/>
    </g>
    <g>
        <title>Layer 1</title>
        <rect stroke="#191919" id="svg_25" height="65.363357" width="66.765451" y="117.836319" x="222.645162"
              stroke-width="null" fill="#ffff56"/>
        <rect stroke="#191919" id="svg_26" height="65.363357" width="66.765451" y="117.836319" x="294.123471"
              stroke-width="null" fill="#ffff56"/>
        <g stroke="null" id="svg_53"/>
        <g stroke="null" id="svg_54">
            <path stroke="null" id="svg_31" fill="#5B412C"
                  d="m170.508508,172.313098c3.821608,-1.748273 6.476939,-5.586568 6.476939,-10.042901c0,-5.257997 -3.694634,-9.655246 -8.642331,-10.77358c2.654049,-2.019887 4.367124,-5.200188 4.367124,-8.779197c0,-6.103442 -4.976769,-11.051569 -11.115538,-11.051569c-0.100467,0 -0.20008,0.004676 -0.299692,0.007651c2.771617,-2.01011 4.574899,-5.261822 4.574899,-8.933919c0,-6.103442 -4.976769,-11.051569 -11.115538,-11.051569s-11.115538,4.948128 -11.115538,11.051569s4.976769,11.051569 11.115538,11.051569c0.10004,0 0.199652,-0.005101 0.299692,-0.007651c-2.772044,2.009685 -4.574899,5.261397 -4.574899,8.933919c0,5.257572 3.694206,9.654821 8.641904,10.77358c-2.653621,2.019462 -4.366696,5.199338 -4.366696,8.779197c0,4.512441 2.721597,8.390691 6.621013,10.10751c-4.265802,1.838386 -7.365754,6.132346 -7.778312,11.251773c-0.050875,0.629089 0.418543,1.168916 1.006811,1.168916l22.833881,0c0.589124,0 1.058114,-0.539827 1.006384,-1.168916c-0.416833,-5.181911 -3.588609,-9.516676 -7.935639,-11.316382z"/>
            <path stroke="null" id="svg_32" fill="#5B412C"
                  d="m37.794538,111.688439c-6.13877,0 -11.115538,4.948128 -11.115538,11.051569c0,3.672096 1.803282,6.923808 4.574899,8.933919c-0.099612,-0.002975 -0.199225,-0.007651 -0.299692,-0.007651c-6.13877,0 -11.115538,4.948128 -11.115538,11.051569c0,3.579008 1.713075,6.75931 4.367124,8.779197c-4.947697,1.118334 -8.642331,5.515583 -8.642331,10.77358c0,4.456333 2.654904,8.294628 6.476939,10.042901c-4.347031,1.79928 -7.518807,6.134471 -7.936922,11.316382c-0.050447,0.629089 0.418543,1.168916 1.007239,1.168916l22.833881,0c0.589124,0 1.058114,-0.539827 1.006811,-1.168916c-0.412985,-5.119427 -3.512938,-9.413387 -7.778312,-11.251773c3.899416,-1.716819 6.621013,-5.595069 6.621013,-10.10751c0,-3.579858 -1.713075,-6.759735 -4.366696,-8.779197c4.947697,-1.118759 8.641904,-5.516008 8.641904,-10.77358c0,-3.672521 -1.802855,-6.924233 -4.574899,-8.933919c0.10004,0.00255 0.199652,0.007651 0.299692,0.007651c6.13877,0 11.115538,-4.948128 11.115538,-11.051569s-4.975913,-11.051569 -11.115111,-11.051569z"/>
            <circle stroke="null"
                    transform="matrix(0.427520705529233,0,0,0.4250603579266933,-27.788440435976575,-58.29144236686136) "
                    id="svg_33" r="36.536999" fill="#FFBF94" cy="373.83387" cx="150.922046"/>
            <path stroke="null" id="svg_34" fill="#ED9572"
                  d="m36.734287,110.113591c-7.589775,0 -13.912379,-5.382114 -15.324052,-12.516752c-0.192812,0.975088 -0.296272,1.982056 -0.296272,3.013678c0,8.576868 6.993384,15.530005 15.620324,15.530005s15.619896,-6.953137 15.619896,-15.530005c0,-1.031621 -0.10346,-2.038589 -0.296272,-3.013678c-1.411246,7.134638 -7.734277,12.516752 -15.323625,12.516752z"/>
            <circle stroke="null"
                    transform="matrix(0.427520705529233,0,0,0.4250603579266933,-27.788440435976575,-58.29144236686136) "
                    id="svg_35" r="36.536999" fill="#FFBF94" cy="373.83387" cx="429.461046"/>
            <path stroke="null" id="svg_36" fill="#ED9572"
                  d="m155.815049,110.113591c-7.589348,0 -13.912379,-5.382114 -15.323625,-12.516752c-0.192812,0.975088 -0.296272,1.982056 -0.296272,3.013678c0,8.576868 6.992956,15.530005 15.619896,15.530005s15.620324,-6.953137 15.620324,-15.530005c0,-1.031621 -0.10346,-2.038589 -0.296272,-3.013678c-1.411673,7.134638 -7.735132,12.516752 -15.324052,12.516752z"/>
            <circle stroke="null"
                    transform="matrix(0.427520705529233,0,0,0.4250603579266933,-27.788440435976575,-58.29144236686136) "
                    id="svg_37" r="150.5" fill="#5B412C" cy="302.39587" cx="290.192046"/>
            <path stroke="null" id="svg_38" fill="#D1375F"
                  d="m144.533633,192.499639c0,26.499963 -96.51793,26.499963 -96.51793,0c0,-26.499113 21.606041,-47.981238 48.258965,-47.981238c26.652923,0 48.258965,21.482125 48.258965,47.981238z"/>
            <path stroke="null" id="svg_39" fill="#EF5B7B"
                  d="m96.27424,144.518401c-23.822309,0 -43.610532,17.162237 -47.545433,39.729116c8.302025,21.429843 86.788841,21.429843 95.090865,0c-3.934473,-22.566879 -23.722696,-39.729116 -47.545433,-39.729116z"/>
            <circle stroke="null"
                    transform="matrix(0.427520705529233,0,0,0.4250603579266933,-27.788440435976575,-58.29144236686136) "
                    id="svg_40" r="44.716" fill="#FFBF94" cy="493.25887" cx="290.192046"/>
            <path stroke="null" id="svg_41" fill="#ED9572"
                  d="m96.27424,132.365925c-8.524763,0 -15.743878,5.550013 -18.208962,13.212576c2.465084,7.662563 9.683772,13.212151 18.208962,13.212151c8.52519,0 15.744305,-5.549588 18.208962,-13.212151c-2.464657,-7.662563 -9.683772,-13.212576 -18.208962,-13.212576z"/>
            <path stroke="null" id="svg_42" fill="#FFBF94"
                  d="m150.995608,77.431125c-1.221427,-29.000168 -23.843685,-52.140454 -54.708115,-52.153206l0,-0.000425c-0.004275,0 -0.00855,0 -0.012826,0c-0.004275,0 -0.00855,0 -0.012826,0l0,0.000425c-30.864002,0.012752 -53.48626,23.153463 -54.708115,52.153206l-0.053013,0l0,33.37829l0.053013,0c1.221427,28.999318 25.707248,42.873288 54.708115,42.881789l0,0c0.004703,0 0.008978,0 0.012826,0c0.004703,0 0.008978,0 0.012826,0l0,0c29.000867,-0.008501 53.486688,-13.882471 54.708115,-42.881789l0.053013,0l0,-33.37829l-0.053013,0z"/>
            <path stroke="null" id="svg_43" fill="#E89C21"
                  d="m48.015703,192.499639c0,7.248979 7.2251,12.512077 17.718168,15.794818l0,-52.935742c-10.812854,8.798749 -17.718168,22.165197 -17.718168,37.140924z"/>
            <path stroke="null" id="svg_44" fill="#E89C21"
                  d="m144.533633,192.499639c0,-13.517344 -5.62489,-25.725503 -14.671656,-34.446041l0,49.198611c8.819752,-3.31122 14.671656,-8.228318 14.671656,-14.75257z"/>
            <path stroke="null" id="svg_45" fill="#FFC866"
                  d="m48.729235,184.247517c2.060222,5.31793 8.445244,9.314773 17.004636,11.993078l0,-40.88358c-8.78042,7.145265 -14.984601,17.302932 -17.004636,28.890502z"/>
            <path stroke="null" id="svg_46" fill="#FFC866"
                  d="m143.820101,184.247517c-1.778059,-10.197198 -6.796297,-19.287539 -13.958124,-26.192219l0,37.140074c7.01305,-2.634524 12.150566,-6.282392 13.958124,-10.947855z"/>
            <circle stroke="null"
                    transform="matrix(0.427520705529233,0,0,0.4250603579266933,-27.788440435976575,-58.29144236686136) "
                    id="svg_47" r="30.538" fill="#F97A7A" cy="408.18787" cx="208.394046"/>
            <circle stroke="null"
                    transform="matrix(0.427520705529233,0,0,0.4250603579266933,-27.788440435976575,-58.29144236686136) "
                    id="svg_48" r="30.538" fill="#F97A7A" cy="408.18787" cx="371.990046"/>
            <circle stroke="null"
                    transform="matrix(0.427520705529233,0,0,0.4250603579266933,-27.788440435976575,-58.29144236686136) "
                    id="svg_49" r="17.450001" fill="#493E2F" cy="354.74687" cx="242.236046"/>
            <circle stroke="null"
                    transform="matrix(0.427520705529233,0,0,0.4250603579266933,-27.788440435976575,-58.29144236686136) "
                    id="svg_50" r="17.450001" fill="#493E2F" cy="354.74687" cx="338.336046"/>
            <path stroke="null" id="svg_51" fill="#F97A7A"
                  d="m96.507239,125.363056c-3.880605,0 -7.761211,-1.468584 -10.715379,-4.405751c-1.001681,-0.996341 -1.001681,-2.611146 0,-3.607062c1.001681,-0.995491 2.62626,-0.995491 3.627513,0c3.909249,3.887177 10.268192,3.886327 14.176587,0c1.001681,-0.995491 2.62626,-0.995491 3.627513,0c1.001681,0.996341 1.001681,2.611146 0,3.607062c-2.954596,2.937167 -6.835201,4.405751 -10.716234,4.405751z"/>
            <path stroke="null" id="svg_52" fill="#7C4E2E"
                  d="m41.682839,78.533731c-2.816506,0 -5.058425,-2.578416 -4.815593,-5.589119c2.638658,-32.718596 28.228765,-58.391817 59.406995,-58.391817c31.178658,0 56.768764,25.673221 59.407422,58.391391c0.242832,3.010703 -1.999087,5.589119 -4.816021,5.589119l-109.182803,0l0,0.000425z"/>
        </g>
        <g stroke="null" id="svg_62"/>
        <rect stroke="#191919" id="svg_63" height="65.363357" width="66.765451" y="117.836319" x="365.215522"
              stroke-width="null" fill="#ffff56"/>
        <rect stroke="#191919" id="svg_64" height="65.363357" width="66.765451" y="117.836319" x="435.910477"
              stroke-width="null" fill="#ffff56"/>
        <rect stroke="#191919" id="svg_65" height="65.363357" width="66.765451" y="46.551139" x="222.645162"
              stroke-width="null" fill="#ff5656"/>
        <rect stroke="#191919" id="svg_66" height="65.363357" width="66.765451" y="46.551139" x="294.123471"
              stroke-width="null" fill="#ff5656"/>
        <rect stroke="#191919" id="svg_67" height="65.363357" width="66.765451" y="46.551139" x="365.215522"
              stroke-width="null" fill="#ff5656"/>
        <rect stroke="#191919" id="svg_68" height="65.363357" width="66.765451" y="46.551139" x="435.910477"
              stroke-width="null" fill="#ff5656"/>
        <rect stroke="#191919" id="svg_69" height="65.363357" width="66.765451" y="46.551139" x="506.412304"
              stroke-width="null" fill="#ff5656"/>
    </g>
</svg>
