<svg width="600" height="230" xmlns="http://www.w3.org/2000/svg">

    <g>
        <title>background</title>
        <rect fill="none" id="canvas_background" height="232" width="602" y="-1" x="-1"/>
    </g>
    <g>
        <title>Layer 1</title>
        <g stroke="null" id="svg_24">
            <rect id="svg_25" height="63.451647" width="66.585062" y="105.556918" x="231.456553" stroke-width="null"
                  stroke="#191919" fill="#ffff56"/>
            <rect id="svg_26" height="63.451647" width="66.585062" y="105.556918" x="302.74174" stroke-width="null"
                  stroke="#191919" fill="#ffff56"/>
            <g id="svg_53"/>
            <g stroke="null" id="svg_54">
                <path stroke="null" id="svg_31" fill="#5B412C"
                      d="m170.085918,173.649245c3.811282,-1.697141 6.459439,-5.423176 6.459439,-9.749172c0,-5.104214 -3.684652,-9.372855 -8.618981,-10.45848c2.646878,-1.96081 4.355325,-5.048096 4.355325,-8.522428c0,-5.924932 -4.963322,-10.728339 -11.085506,-10.728339c-0.100196,0 -0.199539,0.004539 -0.298882,0.007427c2.764128,-1.95132 4.562538,-5.107927 4.562538,-8.672625c0,-5.924932 -4.963322,-10.728339 -11.085506,-10.728339s-11.085506,4.803408 -11.085506,10.728339s4.963322,10.728339 11.085506,10.728339c0.09977,0 0.199113,-0.004952 0.298882,-0.007427c-2.764555,1.950907 -4.562538,5.107515 -4.562538,8.672625c0,5.103801 3.684225,9.372442 8.618555,10.45848c-2.646451,1.960398 -4.354898,5.047271 -4.354898,8.522428c0,4.380464 2.714244,8.145285 6.603124,9.811892c-4.254276,1.784618 -7.345853,5.952991 -7.757296,10.922687c-0.050738,0.61069 0.417412,1.134728 1.004091,1.134728l22.772188,0c0.587532,0 1.055255,-0.524038 1.003665,-1.134728c-0.415706,-5.030353 -3.578913,-9.238338 -7.914199,-10.985407z"/>
                <path stroke="null" id="svg_32" fill="#5B412C"
                      d="m37.730519,114.797701c-6.122184,0 -11.085506,4.803408 -11.085506,10.728339c0,3.564697 1.79841,6.721305 4.562538,8.672625c-0.099343,-0.002888 -0.198686,-0.007427 -0.298882,-0.007427c-6.122184,0 -11.085506,4.803408 -11.085506,10.728339c0,3.474331 1.708447,6.561617 4.355325,8.522428c-4.934329,1.085625 -8.618981,5.354267 -8.618981,10.45848c0,4.325997 2.64773,8.052031 6.459439,9.749172c-4.335286,1.746656 -7.498492,5.955054 -7.915478,10.985407c-0.050311,0.61069 0.417412,1.134728 1.004517,1.134728l22.772188,0c0.587532,0 1.055255,-0.524038 1.004091,-1.134728c-0.411869,-4.969697 -3.503446,-9.138069 -7.757296,-10.922687c3.888881,-1.666606 6.603124,-5.431428 6.603124,-9.811892c0,-3.475157 -1.708447,-6.56203 -4.354898,-8.522428c4.934329,-1.086038 8.618555,-5.354679 8.618555,-10.45848c0,-3.56511 -1.797984,-6.721717 -4.562538,-8.672625c0.09977,0.002476 0.199113,0.007427 0.298882,0.007427c6.122184,0 11.085506,-4.803408 11.085506,-10.728339s-4.962469,-10.728339 -11.08508,-10.728339z"/>
                <circle stroke="null"
                        transform="matrix(0.4263656169839609,0,0,0.41262844140428634,-27.675265622364677,-50.21070831276262) "
                        id="svg_33" r="36.536999" fill="#FFBF94" cy="373.83387" cx="150.922046"/>
                <path stroke="null" id="svg_34" fill="#ED9572"
                      d="m36.673132,113.268913c-7.569269,0 -13.87479,-5.224701 -15.282649,-12.15067c-0.192291,0.94657 -0.295471,1.924086 -0.295471,2.925536c0,8.326017 6.974489,15.075793 15.578121,15.075793s15.577694,-6.749776 15.577694,-15.075793c0,-1.001449 -0.10318,-1.978966 -0.295471,-2.925536c-1.407433,6.925968 -7.71338,12.15067 -15.282223,12.15067z"/>
                <circle stroke="null"
                        transform="matrix(0.4263656169839609,0,0,0.41262844140428634,-27.675265622364677,-50.21070831276262) "
                        id="svg_35" r="36.536999" fill="#FFBF94" cy="373.83387" cx="429.461046"/>
                <path stroke="null" id="svg_36" fill="#ED9572"
                      d="m155.432158,113.268913c-7.568842,0 -13.87479,-5.224701 -15.282223,-12.15067c-0.192291,0.94657 -0.295471,1.924086 -0.295471,2.925536c0,8.326017 6.974062,15.075793 15.577694,15.075793s15.578121,-6.749776 15.578121,-15.075793c0,-1.001449 -0.10318,-1.978966 -0.295471,-2.925536c-1.407859,6.925968 -7.714233,12.15067 -15.282649,12.15067z"/>
                <circle stroke="null"
                        transform="matrix(0.4263656169839609,0,0,0.41262844140428634,-27.675265622364677,-50.21070831276262) "
                        id="svg_37" r="150.5" fill="#5B412C" cy="302.39587" cx="290.192046"/>
                <path stroke="null" id="svg_38" fill="#D1375F"
                      d="m144.181223,193.245383c0,25.724908 -96.257154,25.724908 -96.257154,0c0,-25.724082 21.547666,-46.577911 48.128577,-46.577911c26.580912,0 48.128577,20.853829 48.128577,46.577911z"/>
                <path stroke="null" id="svg_39" fill="#EF5B7B"
                      d="m96.052219,146.667471c-23.757945,0 -43.492704,16.660286 -47.416973,38.567143c8.279594,20.803076 86.554352,20.803076 94.833946,0c-3.923843,-21.906857 -23.658602,-38.567143 -47.416973,-38.567143z"/>
                <circle stroke="null"
                        transform="matrix(0.4263656169839609,0,0,0.41262844140428634,-27.675265622364677,-50.21070831276262) "
                        id="svg_40" r="44.716" fill="#FFBF94" cy="493.25887" cx="290.192046"/>
                <path stroke="null" id="svg_41" fill="#ED9572"
                      d="m96.052219,134.870424c-8.50173,0 -15.70134,5.38769 -18.159764,12.826142c2.458424,7.438453 9.657608,12.82573 18.159764,12.82573c8.502157,0 15.701767,-5.387277 18.159764,-12.82573c-2.457998,-7.438453 -9.657608,-12.826142 -18.159764,-12.826142z"/>
                <path stroke="null" id="svg_42" fill="#FFBF94"
                      d="m150.625739,81.542325c-1.218127,-28.151988 -23.779263,-50.61548 -54.560303,-50.627859l0,-0.000413c-0.004264,0 -0.008527,0 -0.012791,0c-0.004264,0 -0.008527,0 -0.012791,0l0,0.000413c-30.780613,0.012379 -53.34175,22.476284 -54.560303,50.627859l-0.052869,0l0,32.402061l0.052869,0c1.218127,28.151163 25.637791,41.619355 54.560303,41.627608l0,0c0.00469,0 0.008954,0 0.012791,0c0.00469,0 0.008954,0 0.012791,0l0,0c28.922512,-0.008253 53.342176,-13.476445 54.560303,-41.627608l0.052869,0l0,-32.402061l-0.052869,0z"/>
                <path stroke="null" id="svg_43" fill="#E89C21"
                      d="m47.924068,193.245383c0,7.036965 7.205579,12.146131 17.670297,15.33286l0,-51.387508c-10.783639,8.541409 -17.670297,21.516923 -17.670297,36.054648z"/>
                <path stroke="null" id="svg_44" fill="#E89C21"
                      d="m144.181223,193.245383c0,-13.121997 -5.609692,-24.973099 -14.632015,-33.438584l0,47.759679c8.795923,-3.214376 14.632015,-7.987661 14.632015,-14.321095z"/>
                <path stroke="null" id="svg_45" fill="#FFC866"
                      d="m48.635672,185.234614c2.054656,5.162394 8.422426,9.04234 16.958692,11.642311l0,-39.687841c-8.756697,6.936284 -14.944115,16.796866 -16.958692,28.04553z"/>
                <path stroke="null" id="svg_46" fill="#FFC866"
                      d="m143.469618,185.234614c-1.773255,-9.898956 -6.777934,-18.723428 -13.920411,-25.426165l0,36.053823c6.994102,-2.557471 12.117737,-6.098648 13.920411,-10.627658z"/>
                <circle stroke="null"
                        transform="matrix(0.4263656169839609,0,0,0.41262844140428634,-27.675265622364677,-50.21070831276262) "
                        id="svg_47" r="30.538" fill="#F97A7A" cy="408.18787" cx="208.394046"/>
                <circle stroke="null"
                        transform="matrix(0.4263656169839609,0,0,0.41262844140428634,-27.675265622364677,-50.21070831276262) "
                        id="svg_48" r="30.538" fill="#F97A7A" cy="408.18787" cx="371.990046"/>
                <circle stroke="null"
                        transform="matrix(0.4263656169839609,0,0,0.41262844140428634,-27.675265622364677,-50.21070831276262) "
                        id="svg_49" r="17.450001" fill="#493E2F" cy="354.74687" cx="242.236046"/>
                <circle stroke="null"
                        transform="matrix(0.4263656169839609,0,0,0.41262844140428634,-27.675265622364677,-50.21070831276262) "
                        id="svg_50" r="17.450001" fill="#493E2F" cy="354.74687" cx="338.336046"/>
                <path stroke="null" id="svg_51" fill="#F97A7A"
                      d="m96.284588,128.072371c-3.870121,0 -7.740241,-1.425631 -10.686428,-4.276894c-0.998975,-0.967201 -0.998975,-2.534777 0,-3.501565c0.998975,-0.966376 2.619164,-0.966376 3.617712,0c3.898687,3.773487 10.240449,3.772662 14.138284,0c0.998975,-0.966376 2.619164,-0.966376 3.617712,0c0.998975,0.967201 0.998975,2.534777 0,3.501565c-2.946613,2.851263 -6.816733,4.276894 -10.687281,4.276894z"/>
                <path stroke="null" id="svg_52" fill="#7C4E2E"
                      d="m41.608314,82.612683c-2.808897,0 -5.044758,-2.503004 -4.802582,-5.425651c2.631529,-31.761662 28.152495,-56.684007 59.246487,-56.684007c31.094418,0 56.615385,24.922345 59.246913,56.683594c0.242176,2.922647 -1.993686,5.425651 -4.803009,5.425651l-108.887809,0l0,0.000413z"/>
            </g>
            <g stroke="null" id="svg_55">
                <circle stroke="null" id="svg_1" r="63.894505" fill="#5B412C" cy="73.889072" cx="513.331947"/>
                <path stroke="null" id="svg_2" fill="#0A717F"
                      d="m564.096809,197.845708c0,26.8689 -101.528826,26.8689 -101.528826,0c0,-26.868038 22.728005,-48.649242 50.763963,-48.649242c28.036858,0 50.764862,21.781204 50.764862,48.649242z"/>
                <path stroke="null" id="svg_3" fill="#19929B"
                      d="m513.331947,149.196466c-25.058414,0 -45.874242,17.401173 -50.013393,40.282233c8.732961,21.728193 91.294725,21.728193 100.027236,0c-4.138701,-22.88106 -24.95453,-40.282233 -50.013843,-40.282233z"/>
                <circle stroke="null" id="svg_4" r="18.984526" fill="#FFBF94" cy="156.14685" cx="513.331947"/>
                <path stroke="null" id="svg_5" fill="#ED9572"
                      d="m513.331947,136.874801c-8.967261,0 -16.561102,5.627281 -19.154142,13.396524c2.593041,7.769243 10.186431,13.396093 19.154142,13.396093c8.968161,0 16.562451,-5.62685 19.155042,-13.396093c-2.593041,-7.769243 -10.187331,-13.396524 -19.155042,-13.396524z"/>
                <path stroke="null" id="svg_6" fill="#7C4E2E"
                      d="m476.853092,67.855378c0,16.780564 -17.330109,28.711763 -20.242895,25.817314c-5.396546,-5.361799 -8.988398,-14.919601 -8.988398,-25.817314c0,-16.780995 8.51665,-30.383958 19.022826,-30.383958c10.506176,0 10.208467,13.602963 10.208467,30.383958z"/>
                <circle stroke="null" id="svg_7" r="15.511716" fill="#FFBF94" cy="104.677287" cx="450.700978"/>
                <path stroke="null" id="svg_8" fill="#ED9572"
                      d="m450.700978,114.312665c-7.983291,0 -14.634534,-5.457045 -16.119034,-12.691013c-0.20282,0.988664 -0.311651,2.009651 -0.311651,3.055635c0,8.696277 7.356392,15.746217 16.431135,15.746217s16.431135,-7.04994 16.431135,-15.746217c0,-1.045984 -0.10883,-2.066971 -0.311651,-3.055635c-1.485399,7.233968 -8.136643,12.691013 -16.119934,12.691013z"/>
                <circle stroke="null" id="svg_9" r="15.511716" fill="#FFBF94" cy="104.677287" cx="575.963365"/>
                <path stroke="null" id="svg_10" fill="#ED9572"
                      d="m575.963365,114.312665c-7.983291,0 -14.634085,-5.457045 -16.119484,-12.691013c-0.20282,0.988664 -0.311651,2.009651 -0.311651,3.055635c0,8.696277 7.356842,15.746217 16.431135,15.746217c9.075192,0 16.431135,-7.04994 16.431135,-15.746217c0,-1.045984 -0.10883,-2.066971 -0.311651,-3.055635c-1.4845,7.233968 -8.136643,12.691013 -16.119484,12.691013z"/>
                <path stroke="null" id="svg_11" fill="#FFF2DC"
                      d="m570.894209,81.175188c-1.284828,-29.403914 -25.081799,-52.866363 -57.548321,-52.879292l0,-0.000431c-0.004497,0 -0.008994,0 -0.013941,0c-0.004497,0 -0.008994,0 -0.013042,0l0,0.000431c-32.466523,0.012929 -56.263044,23.47581 -57.548321,52.879292l-0.055764,0l0,33.842988l0.055764,0c1.284828,29.403052 27.041195,43.470178 57.548321,43.478797l0,0c0.004497,0 0.008994,0 0.013042,0c0.005397,0 0.009444,0 0.013941,0l0,0c30.506677,-0.00862 56.263494,-14.075746 57.548321,-43.478797l0.055315,0l0,-33.842988l-0.055315,0z"/>
                <path stroke="null" id="svg_12" fill="#FFBF94"
                      d="m570.894209,81.175188c-1.284828,-29.403914 -25.081799,-52.866363 -57.548321,-52.879292l0,-0.000431c-0.004497,0 -0.008994,0 -0.013941,0c-0.004497,0 -0.008994,0 -0.013042,0l0,0.000431c-32.466523,0.012929 -56.263044,23.47581 -57.548321,52.879292l-0.055764,0l0,33.842988l0.055764,0c1.284828,29.403052 27.041195,43.470178 57.548321,43.478797l0,0c0.004497,0 0.008994,0 0.013042,0c0.005397,0 0.009444,0 0.013941,0l0,0c30.506677,-0.00862 56.263494,-14.075746 57.548321,-43.478797l0.055315,0l0,-33.842988l-0.055315,0z"/>
                <path stroke="null" id="svg_13" fill="#FFFFFF"
                      d="m533.439029,156.255456c-0.061611,10.593442 -9.039215,19.163442 -20.107082,19.163442c-11.083607,0 -20.071555,-8.594135 -20.107532,-19.208264c-1.549708,-0.37452 -3.068386,-0.79731 -4.553786,-1.265352c-0.020687,0.398224 -0.03193,0.798602 -0.03193,1.201567c0,13.069843 11.055725,23.665009 24.693247,23.665009c13.638422,0 24.694147,-10.595166 24.694147,-23.665009c0,-0.38314 -0.011243,-0.763262 -0.029681,-1.141661c-1.487648,0.463301 -3.007225,0.879626 -4.557383,1.250268z"/>
                <path stroke="null" id="svg_14" fill="#7C4E2E"
                      d="m511.593809,19.801317c27.596589,0 36.281881,12.231159 49.078442,22.620749c10.508425,8.533367 25.737929,4.838591 25.737929,5.157084c0,12.137206 -47.834538,21.976006 -74.81637,21.976006c-26.981833,0 -46.156212,-9.8388 -46.156212,-21.976006s19.174379,-27.777833 46.156212,-27.777833z"/>
                <path stroke="null" id="svg_15" fill="#E5E5E5"
                      d="m462.118272,197.845708c0,7.349901 7.600586,12.686272 18.637872,16.014716l0,-53.672723c-11.374121,8.921247 -18.637872,22.473785 -18.637872,37.658007z"/>
                <path stroke="null" id="svg_16" fill="#E5E5E5"
                      d="m564.546522,197.845708c0,-13.705535 -5.917313,-26.083658 -15.433223,-34.925606l0,49.883563c9.277563,-3.35732 15.433223,-8.342875 15.433223,-14.957958z"/>
                <path stroke="null" id="svg_17" fill="#FFFFFF"
                      d="m462.868841,189.478698c2.167163,5.391967 8.883615,9.444455 17.887303,12.160048l0,-41.452769c-9.236189,7.244742 -15.761963,17.543827 -17.887303,29.292721z"/>
                <path stroke="null" id="svg_18" fill="#FFFFFF"
                      d="m563.795502,189.478698c-1.869903,-10.339165 -7.148625,-19.556064 -14.682204,-26.556872l0,37.657145c7.37618,-2.671202 12.780371,-6.369857 14.682204,-11.100273z"/>
                <circle stroke="null" id="svg_19" r="12.964852" fill="#F97A7A" cy="119.48311" cx="476.546388"/>
                <circle stroke="null" id="svg_20" r="12.964852" fill="#F97A7A" cy="119.48311" cx="550.118405"/>
                <circle stroke="null" id="svg_21" r="7.40837" fill="#493E2F" cy="96.451208" cx="491.87213"/>
                <circle stroke="null" id="svg_22" r="7.408363" fill="#493E2F" cy="96.451208" cx="534.640211"/>
                <path stroke="null" id="svg_23" fill="#F97A7A"
                      d="m513.57704,129.774436c-4.082038,0 -8.164075,-1.489029 -11.272036,-4.467088c-1.053676,-1.010213 -1.053676,-2.647499 0,-3.65728c1.053676,-1.009351 2.762582,-1.009351 3.815808,0c4.112168,3.941295 10.801637,3.940433 14.912457,0c1.054125,-1.009351 2.762582,-1.009351 3.816258,0c1.054125,1.010213 1.054125,2.647499 0,3.65728c-3.107511,2.978059 -7.189999,4.467088 -11.272486,4.467088z"/>
            </g>
            <g transform="matrix(2.5814207907256628,0,0,2.157866714857211,160.06435332105445,173.28594570159873) "
               id="svg_59">
                <path id="svg_61"
                      d="m60.367262,-58.613724a1,1 0 0 0 0,1.42l4.6,4.6l-23.54,0a1,1 0 1 0 0,2l23.52,0l-4.58,4.57a1,1 0 0 0 0,1.41a1,1 0 0 0 1.41,0l6.36,-6.36a0.88,0.88 0 0 0 0,-1.27l-6.35,-6.37a1,1 0 0 0 -1.42,0z"/>
            </g>
            <g id="svg_62"/>
        </g>
    </g>
</svg>
