<svg width="677.2845" height="275.6948" xmlns="http://www.w3.org/2000/svg">

    <g>
        <title>background</title>
        <rect fill="none" id="canvas_background" height="277.6948" width="679.2845" y="-1" x="-1"/>
    </g>
    <g>
        <title>Layer 1</title>
        <path id="svg_32"
              d="m476.77,206.04c-1.028,0.931 -3.085,3.204 -3.419,4.535c1.334,0.653 5.523,4.668 6.301,1.952c0.686,-2.402 -0.165,-6.372 -2.882,-6.612"
              fill="#FFFFFF"/>
        <g stroke="null" id="svg_43">
            <path stroke="null" id="svg_8"
                  d="m556.469334,154.979536c8.222805,-10.766537 2.15297,-43.38842 -2.770768,-55.279359c-4.885204,0.772508 -7.713152,5.649262 -10.731289,9.406354c3.920594,-11.91582 5.135058,-28.178777 -3.969073,-38.241525c-2.651435,3.533159 -5.096523,7.155179 -8.255124,10.294975c1.777568,-11.361321 -7.677104,-24.439458 -18.386017,-29.387302c-1.133666,3.136241 -2.160429,6.42414 -3.020622,9.681234c-0.315736,-7.364894 -3.337601,-16.796129 -10.473976,-20.287819c-4.584385,5.252345 -10.82949,16.145658 -11.165115,22.52596c-4.588114,-0.387439 -7.018285,-4.24761 -10.30865,-6.489306c-3.515358,10.697817 -15.725881,30.5745 0.471118,38.767589c-4.898877,-0.755921 -9.602595,-0.151658 -14.358521,-1.977479c4.414086,7.860152 2.62906,15.848266 9.386304,23.227378c6.867876,7.497595 17.111887,11.979801 26.520565,15.552059c-2.507241,1.561604 -6.156848,2.086483 -9.380088,1.432458c8.821957,12.707286 24.803907,23.185909 41.948113,21.268857c-2.682511,0.061611 -6.227702,0.911133 -9.099158,1.308051c6.225216,6.528405 30.894874,12.662262 33.042872,0.03673"
                  fill="#5BBA47"/>
            <path stroke="null" id="svg_9"
                  d="m120.443145,174.09082c-9.204818,-8.945455 -15.958332,-12.325771 -28.62257,-10.541419c-12.562308,1.767764 -18.190858,3.379131 -31.092519,-2.505912c2.492324,9.360145 5.164891,16.071014 13.981876,21.5935c6.26748,3.924152 18.574962,0.741703 19.785697,7.983375c4.48494,-0.937199 9.163797,-2.368472 12.896689,-4.563959c0.707298,1.934825 2.621602,2.687191 3.182219,3.632684c2.447574,-5.100687 11.464691,-13.278373 17.63397,-14.06273c-1.578679,-0.572272 -4.87153,-1.665869 -6.805723,-1.818712"
                  fill="#6CBE45"/>
            <path stroke="null" id="svg_10"
                  d="m384.082551,185.70214c-20.179745,-5.998787 -46.075054,8.510623 -53.729783,25.906276c-3.937996,8.951379 -5.504245,19.095881 -8.98604,28.246312c-3.540219,9.303274 -8.323492,17.47859 -13.485897,25.729736c9.680908,2.792641 21.563265,-1.304496 29.548646,-5.850683c-0.601638,3.642163 -1.466804,7.131483 -1.050381,10.561561c4.18785,-1.617291 9.141422,-7.125559 12.483995,-10.369619c1.58738,-1.541462 4.200281,-5.925327 6.207814,-6.651627c3.254316,-1.178904 4.560767,1.238146 7.336507,0.471562c6.31223,-1.739328 9.053165,-2.507097 13.944584,-9.04972c3.752781,-5.017749 8.183027,-10.809191 10.973684,-16.293762c11.606399,8.672945 16.78745,-27.038972 18.156052,-33.541311c-1.21695,4.869645 -3.60983,9.864882 -3.064129,14.864859c1.522742,-7.900437 5.000808,-16.020066 5.611148,-23.925242c-8.647929,0.561609 -21.83425,0.163506 -30.659937,-1.34715"
                  fill="#67BD45"/>
            <path stroke="null" id="svg_11"
                  d="m97.45907,103.321013c-9.892227,-14.536661 -26.956878,-33.239179 -45.524381,-34.195336c2.135567,2.562784 2.477407,5.31751 3.299066,8.382662c-8.949992,-0.266586 -20.265516,1.629139 -29.452931,4.303297c1.832262,1.816342 2.605442,5.143341 4.415329,6.94191c-8.422937,5.776039 -17.003741,8.165838 -26.199857,11.862503c4.860343,6.73338 14.665556,8.591192 20.222009,14.5414c-3.13374,2.215629 -6.808209,4.171781 -9.656047,6.523666c11.315524,8.855408 25.780948,3.760646 38.569492,6.558026c-0.220021,4.683627 -2.298408,8.265364 -5.067933,12.225061c12.64062,2.129137 23.082277,-5.059218 34.43385,-9.60422c3.376136,4.872015 -0.765722,10.149241 -3.287879,14.12671c6.359466,-3.927707 13.334244,-5.794996 19.851579,-9.689528c8.038833,-4.805664 9.05938,-8.60541 14.029112,-15.627888c-3.720462,-5.761821 -10.727559,-8.4265 -14.548709,-14.740452"
                  fill="#47B649"/>
            <path stroke="null" id="svg_12"
                  d="m163.52741,182.94149c-9.012144,-6.850679 -41.948113,3.543822 -48.190733,13.158706c0.991957,0.027251 2.016234,-0.210899 2.863997,-0.150473c-6.820639,9.452562 -16.60845,15.829309 -18.366129,27.778305c9.19363,-4.201402 6.997153,8.866072 7.204743,14.095905c0.275958,6.937171 0.945964,15.749926 3.941725,21.875489c5.341405,-2.527239 8.624311,-7.389775 12.684127,-11.599471c2.312081,2.818707 3.547677,6.734565 3.04424,10.446633c16.863276,-4.255904 20.746578,-16.709637 29.205563,-29.320951c0.519597,2.381505 3.046726,4.685997 3.865899,6.311582c13.075689,-14.424102 15.089437,-35.431112 6.815667,-52.572026c-1.248027,0.607817 -1.33504,-0.082938 -2.139297,-0.383884"
                  fill="#149C48"/>
            <path stroke="null" id="svg_13"
                  d="m642.403992,188.841936c-20.048524,0.008294 -46.16026,-4.69666 -64.191455,-12.659893c-7.989468,-3.528419 -34.564054,-26.284236 -41.523025,-33.871878c0.299418,12.29615 27.888282,25.658646 25.813566,37.217833c-18.31689,0.571087 -62.64571,-1.197862 -82.079179,-1.197862c-20.455233,0 -40.702121,-2.414681 -60.59345,-5.896892c-24.791802,-4.338842 -53.229017,-1.747622 -78.934044,-1.747622l-83.851983,0c-17.847802,0 -35.921415,0.965635 -53.307614,-1.939564c-18.874556,-3.152829 -28.232613,-8.876735 -42.27656,-20.247535c-11.687279,-9.463225 -24.043257,-18.267686 -38.214457,-24.395619c-6.72817,-2.909939 -40.199348,-17.177644 -37.067936,-2.293828c30.485733,-2.443116 63.81843,25.937081 78.000858,48.947636c-10.40602,2.078189 -22.068347,0.562794 -32.878581,0.883882c-12.418357,0.369666 -23.113814,4.28671 -34.909632,6.684803c18.988085,0.021327 39.324798,0.159952 56.719731,6.411107c0,7.43006 -3.116441,16.272435 -8.628226,23.018848c9.616305,0.213269 14.163714,-7.32698 17.781681,-15.093531c5.174939,-11.108952 6.040756,-13.225056 19.339901,-13.376714c17.081791,-0.194312 35.331312,-1.62203 52.318288,-0.049763c36.329372,3.363728 74.366673,1.960891 111.402172,1.960891c19.710431,0 41.312185,2.975104 60.388848,2.054493c-11.935546,11.757053 -20.73469,14.965569 -35.685623,19.729765c9.712368,0.676537 20.982957,-3.943109 30.102727,-6.73575c9.506518,-2.911124 15.05573,-3.600694 25.007633,-4.540263c17.248966,-1.627954 35.649444,0 52.998216,0c30.782655,0 131.81873,19.975024 141.874182,23.888513c9.556421,3.715622 19.176469,5.727461 28.420997,9.342373c7.710011,3.015389 13.75451,8.132663 20.925568,11.582884c-0.981841,-9.171758 2.270586,-20.142085 -0.777239,-29.525927c-2.25811,-6.966792 -12.974776,-13.589983 -26.174115,-18.139725"
                  fill="#605921"/>
        </g>
        <g id="svg_296"/>
        <g id="svg_414">
            <path stroke="#000000" id="svg_286"
                  d="m112.686556,42.216444c6.024658,-0.985724 12.232582,1.982123 15.890791,6.736371c3.067486,4.208008 3.667105,9.830547 2.341538,14.780517c1.992799,1.412752 3.649313,3.238298 5.111884,5.183056c2.478544,3.5301 4.515825,7.563738 4.524721,11.981702c0.078289,6.981912 -4.10303,13.127561 -8.821693,17.917395c-4.046093,3.813007 -8.72739,6.924975 -13.760986,9.273631c-0.862953,0.364753 -1.725906,0.718831 -2.592418,1.072909c-3.587038,1.428765 -7.359121,2.373565 -11.195258,2.814828c-0.434146,-0.754417 -0.927007,-1.489261 -1.238382,-2.304174c1.71523,-2.590638 3.919764,-4.914384 5.465962,-7.615338c-0.679687,-0.580046 -1.36827,-1.163652 -2.145817,-1.608473c-2.243678,2.941158 -4.469563,5.923238 -6.638511,8.921333c0.250879,0.991061 0.930566,1.818429 1.375387,2.732981c-2.053294,0.088964 -4.042534,-0.270451 -6.033554,-0.690362c-2.327304,-0.633426 -4.535396,-1.702776 -6.451686,-3.168906c-0.314933,-0.225969 -0.62097,-0.469731 -0.896759,-0.741962c-0.704597,-0.725948 -1.389621,-1.471468 -1.992799,-2.284601c8.738067,-7.926713 20.703755,-11.403435 28.833306,-20.113033c2.953613,-3.3326 3.684899,-8.400002 1.757933,-12.417626c-2.030163,-4.558527 -6.622497,-7.940947 -11.666768,-8.111759c-0.037365,-0.800678 -0.032027,-1.601356 -0.042703,-2.402034c0.035586,-2.36111 -0.064054,-4.727559 0.012455,-7.08689c1.633383,-0.540903 4.569203,-0.848719 4.905487,-3.327262c-0.046261,-2.012371 -1.359373,-4.206229 -3.293455,-4.891253c1.09248,-2.620887 3.857489,-4.159968 6.551325,-4.65105m1.661852,4.517603c-3.181361,0.222411 -5.035375,4.355689 -3.010549,6.830674c1.854014,2.697395 6.535312,1.944758 7.391148,-1.233045c1.085363,-2.788138 -1.501717,-5.857404 -4.380599,-5.597629z"
                  fill="#fcea9d"/>
            <path id="svg_287"
                  d="m114.348408,46.734047c2.878882,-0.259776 5.465962,2.80949 4.380599,5.597629c-0.855836,3.177802 -5.537133,3.93044 -7.391148,1.233044c-2.024826,-2.474985 -0.170811,-6.608263 3.010549,-6.830673m-0.103199,3.035459c-1.597798,0.316713 -0.779327,3.149334 0.848719,2.547935c1.708113,-0.338064 0.862953,-3.368186 -0.848719,-2.547935z"
                  fill="#020101"/>
            <path id="svg_288"
                  d="m92.635799,48.274908c4.466004,-0.64588 9.136626,-0.37365 13.499432,-1.407414c1.934082,0.685025 3.247194,2.878882 3.293456,4.891253c-0.336285,2.478543 -3.272104,2.78636 -4.905487,3.327262c-3.165347,-3.015887 -8.309259,-4.25249 -11.8874,-6.811101z"
                  fill="#7f3f00"/>
            <path id="svg_289"
                  d="m114.24521,49.769507c1.711672,-0.82025 2.556832,2.209871 0.848719,2.547935c-1.628045,0.601398 -2.446516,-2.231223 -0.848719,-2.547935z"
                  fill="#fdfdfd"/>
            <path stroke="#000000" id="svg_290"
                  d="m103.462745,64.662118c1.74192,0.441263 0.316713,-2.015929 1.047999,-2.489219c0.010676,0.800678 0.005338,1.601356 0.042703,2.402034c5.044272,0.170811 9.636605,3.553231 11.666769,8.111758c1.926965,4.017624 1.195679,9.085027 -1.757933,12.417627c-8.129551,8.709598 -20.09524,12.18632 -28.833306,20.113032c-0.633425,0.512434 -1.158314,1.305995 -1.926965,1.574667c0.035586,-1.546198 0.252658,-3.079942 0.364753,-4.620802c0.601398,-7.821735 1.79174,-15.71642 4.663505,-23.05419c2.544377,-6.464141 7.118917,-13.782338 14.732476,-14.454908z"
                  fill="#fcd900"/>
            <path stroke="#000000" id="svg_291"
                  d="m136.030769,68.916388c6.729254,1.426986 11.629404,8.946243 9.380388,15.638132c-2.186741,6.476596 -7.876893,11.072488 -13.67736,14.260966c4.718663,-4.789834 8.899981,-10.935483 8.821693,-17.917395c-0.008896,-4.417964 -2.046177,-8.451602 -4.524721,-11.981702z"
                  fill="#fcd900"/>
            <path id="svg_292"
                  d="m99.628387,109.370201c2.168948,-2.998094 4.394833,-5.980175 6.638511,-8.921333c0.777547,0.444821 1.46613,1.028426 2.145817,1.608473c-1.546198,2.700954 -3.750732,5.0247 -5.465962,7.615338c0.311375,0.814912 0.804237,1.549757 1.238382,2.304173c2.083542,4.012287 4.142174,8.063718 6.384073,11.974585c2.66003,0.416353 5.649228,-0.428808 8.072614,1.120949c0.999958,0.37365 0.580047,2.371786 -0.656556,1.76683c-1.188562,-0.4982 -2.832621,-1.204576 -4.022962,-0.692142c1.09426,0.887863 3.638637,2.551494 1.656514,3.946453c-1.750816,0.056937 -1.857573,-2.875324 -3.816565,-2.795256c0.565812,1.222368 1.843339,2.071087 1.759712,3.576362c0.599619,1.389621 -1.985682,2.037281 -1.912731,0.466173c-0.384325,-2.240119 -2.31307,-3.663547 -3.998052,-4.957087c-1.832663,-1.163652 -4.085237,0.834484 -5.905445,-0.306037c-0.727727,-3.001653 4.357468,-1.158314 5.526458,-2.117349c-1.980344,-4.006949 -4.288076,-7.846645 -6.268419,-11.857152c-0.444821,-0.914552 -1.124508,-1.74192 -1.375387,-2.732981z"
                  fill="#782921"/>
            <path stroke="#000000" id="svg_293"
                  d="m61.733185,123.801978c7.03885,-7.400044 14.922859,-14.429998 22.33358,-21.630762c-0.112095,1.54086 -0.329168,3.074604 -0.364753,4.620802c0.768651,-0.268672 1.29354,-1.062233 1.926965,-1.574667c0.603177,0.813133 1.288202,1.558653 1.992799,2.284601c-4.960645,5.974837 -9.971111,11.926544 -14.82144,17.985008c-3.711588,-0.439483 -7.33599,-1.549757 -11.06715,-1.684982z"
                  fill="#fcd900"/>
            <path id="svg_294"
                  d="m115.380393,109.162025c0.866512,-0.354078 1.729465,-0.708155 2.592418,-1.072909c2.085321,3.684898 3.827241,7.572635 6.063802,11.170348c2.772125,0.252658 6.368059,-0.692142 8.563696,1.535523c-0.062275,3.037239 -3.683119,-0.464393 -5.202628,0.485745c0.345181,0.797119 3.490956,2.220547 1.877145,3.747173c-1.725906,0.980386 -2.044398,-2.327304 -3.921543,-2.3878c0.67257,1.329126 1.823767,2.558611 1.524847,4.181319c-0.133446,0.983944 -2.083542,0.839822 -1.887821,-0.281127c-0.366533,-2.43762 -2.647575,-3.887737 -4.453549,-5.250669c-1.768609,-0.229528 -6.284433,1.688541 -5.32184,-1.455455c1.761492,-0.405677 3.60661,-0.407456 5.409025,-0.489303c-1.462572,-3.521204 -3.713367,-6.699006 -5.243552,-10.182845z"
                  fill="#782921"/>
            <path stroke="#000000" id="svg_295"
                  d="m88.518534,108.243914c1.916289,1.46613 4.124382,2.53548 6.451686,3.168906c-2.754332,4.82542 -5.830715,9.496042 -8.736287,14.234276c-3.743615,0.22419 -7.480112,-0.270451 -11.221948,-0.12455c4.403729,-5.82004 9.029869,-11.501295 13.506549,-17.278632z"
                  fill="#fcd900"/>
        </g>
        <g id="svg_425">
            <path stroke="#000000" id="svg_415"
                  d="m160.769729,75.832114c6.024658,-0.985724 12.232582,1.982123 15.890791,6.736371c3.067486,4.208008 3.667105,9.830547 2.341538,14.780517c1.992799,1.412751 3.649313,3.238297 5.111885,5.183055c2.478543,3.530101 4.515824,7.563739 4.52472,11.981702c0.078289,6.981913 -4.10303,13.127562 -8.821693,17.917396c-4.046093,3.813007 -8.72739,6.924975 -13.760986,9.273631c-0.862953,0.364753 -1.725906,0.718831 -2.592418,1.072908c-3.587037,1.428766 -7.359121,2.373566 -11.195258,2.814829c-0.434146,-0.754417 -0.927007,-1.489262 -1.238382,-2.304174c1.71523,-2.590638 3.919764,-4.914384 5.465962,-7.615338c-0.679687,-0.580047 -1.36827,-1.163652 -2.145817,-1.608473c-2.243678,2.941157 -4.469563,5.923238 -6.638511,8.921333c0.250879,0.991061 0.930566,1.818429 1.375387,2.732981c-2.053294,0.088964 -4.042534,-0.270451 -6.033554,-0.690363c-2.327304,-0.633425 -4.535396,-1.702775 -6.451685,-3.168905c-0.314934,-0.22597 -0.620971,-0.469732 -0.89676,-0.741962c-0.704597,-0.725948 -1.389621,-1.471468 -1.992799,-2.284601c8.738067,-7.926713 20.703755,-11.403435 28.833306,-20.113033c2.953613,-3.3326 3.684899,-8.400002 1.757934,-12.417627c-2.030164,-4.558527 -6.622498,-7.940947 -11.666769,-8.111758c-0.037365,-0.800678 -0.032027,-1.601356 -0.042703,-2.402034c0.035586,-2.361111 -0.064054,-4.727559 0.012455,-7.08689c1.633383,-0.540903 4.569203,-0.848719 4.905487,-3.327262c-0.046261,-2.012371 -1.359373,-4.206229 -3.293455,-4.891254c1.09248,-2.620886 3.857489,-4.159967 6.551325,-4.651049m1.661852,4.517603c-3.181361,0.222411 -5.035375,4.355689 -3.010549,6.830673c1.854014,2.697396 6.535312,1.944758 7.391148,-1.233044c1.085363,-2.788139 -1.501716,-5.857405 -4.380599,-5.597629z"
                  fill="#fcea9d"/>
            <path id="svg_416"
                  d="m162.431581,80.349717c2.878883,-0.259776 5.465962,2.80949 4.380599,5.597629c-0.855836,3.177802 -5.537134,3.93044 -7.391148,1.233044c-2.024826,-2.474984 -0.170812,-6.608262 3.010549,-6.830673m-0.103198,3.035459c-1.597798,0.316713 -0.779327,3.149334 0.848718,2.547936c1.708114,-0.338064 0.862953,-3.368186 -0.848718,-2.547936z"
                  fill="#020101"/>
            <path id="svg_417"
                  d="m140.718972,81.890577c4.466004,-0.64588 9.136626,-0.373649 13.499432,-1.407414c1.934082,0.685025 3.247194,2.878883 3.293455,4.891254c-0.336284,2.478543 -3.272104,2.786359 -4.905487,3.327262c-3.165347,-3.015888 -8.309259,-4.25249 -11.8874,-6.811102z"
                  fill="#7f3f00"/>
            <path id="svg_418"
                  d="m162.328383,83.385176c1.711671,-0.82025 2.556832,2.209872 0.848718,2.547936c-1.628045,0.601398 -2.446516,-2.231223 -0.848718,-2.547936z"
                  fill="#fdfdfd"/>
            <path stroke="#000000" id="svg_419"
                  d="m151.545918,98.277788c1.74192,0.441263 0.316713,-2.015929 1.047999,-2.489219c0.010676,0.800678 0.005338,1.601356 0.042703,2.402034c5.044271,0.170811 9.636605,3.553231 11.666769,8.111758c1.926965,4.017625 1.195679,9.085027 -1.757934,12.417627c-8.129551,8.709598 -20.095239,12.18632 -28.833306,20.113033c-0.633425,0.512434 -1.158314,1.305994 -1.926965,1.574666c0.035586,-1.546198 0.252659,-3.079941 0.364754,-4.620802c0.601398,-7.821734 1.791739,-15.71642 4.663504,-23.054189c2.544377,-6.464141 7.118918,-13.782338 14.732476,-14.454908z"
                  fill="#fcd900"/>
            <path stroke="#000000" id="svg_420"
                  d="m184.113943,102.532057c6.729254,1.426987 11.629403,8.946243 9.380388,15.638132c-2.186741,6.476596 -7.876893,11.072488 -13.677361,14.260966c4.718663,-4.789834 8.899982,-10.935483 8.821693,-17.917396c-0.008896,-4.417963 -2.046177,-8.451601 -4.52472,-11.981702z"
                  fill="#fcd900"/>
            <path id="svg_421"
                  d="m147.71156,142.985871c2.168948,-2.998095 4.394833,-5.980176 6.638511,-8.921333c0.777547,0.444821 1.46613,1.028426 2.145817,1.608473c-1.546198,2.700954 -3.750732,5.0247 -5.465962,7.615338c0.311375,0.814912 0.804236,1.549757 1.238382,2.304174c2.083542,4.012286 4.142174,8.063717 6.384073,11.974585c2.66003,0.416352 5.649228,-0.428808 8.072614,1.120949c0.999958,0.37365 0.580047,2.371786 -0.656556,1.766829c-1.188562,-0.498199 -2.832621,-1.204575 -4.022963,-0.692141c1.09426,0.887863 3.638637,2.551494 1.656514,3.946453c-1.750816,0.056937 -1.857573,-2.875324 -3.816565,-2.795256c0.565813,1.222368 1.843339,2.071087 1.759712,3.576362c0.599619,1.389621 -1.985681,2.03728 -1.91273,0.466172c-0.384326,-2.240119 -2.31307,-3.663547 -3.998053,-4.957087c-1.832663,-1.163652 -4.085237,0.834485 -5.905445,-0.306036c-0.727728,-3.001653 4.357468,-1.158315 5.526458,-2.117349c-1.980344,-4.006949 -4.288076,-7.846645 -6.26842,-11.857152c-0.444821,-0.914552 -1.124508,-1.74192 -1.375387,-2.732981z"
                  fill="#782921"/>
            <path stroke="#000000" id="svg_422"
                  d="m109.816358,157.417648c7.03885,-7.400045 14.92286,-14.429998 22.33358,-21.630763c-0.112095,1.540861 -0.329168,3.074604 -0.364754,4.620802c0.768651,-0.268672 1.29354,-1.062232 1.926965,-1.574666c0.603178,0.813133 1.288202,1.558653 1.992799,2.284601c-4.960645,5.974837 -9.97111,11.926544 -14.82144,17.985008c-3.711588,-0.439483 -7.33599,-1.549757 -11.06715,-1.684982z"
                  fill="#fcd900"/>
            <path id="svg_423"
                  d="m163.463566,142.777694c0.866512,-0.354077 1.729465,-0.708155 2.592418,-1.072908c2.085321,3.684898 3.827241,7.572635 6.063802,11.170348c2.772125,0.252659 6.368059,-0.692141 8.563696,1.535523c-0.062275,3.037238 -3.683119,-0.464394 -5.202628,0.485744c0.345181,0.79712 3.490956,2.220548 1.877145,3.747174c-1.725906,0.980385 -2.044398,-2.327305 -3.921543,-2.3878c0.67257,1.329125 1.823767,2.558611 1.524847,4.181318c-0.133446,0.983945 -2.083542,0.839823 -1.887821,-0.281126c-0.366533,-2.43762 -2.647575,-3.887737 -4.453549,-5.250669c-1.768609,-0.229528 -6.284433,1.688541 -5.32184,-1.455455c1.761491,-0.405677 3.60661,-0.407456 5.409025,-0.489303c-1.462572,-3.521204 -3.713367,-6.699006 -5.243552,-10.182846z"
                  fill="#782921"/>
            <path stroke="#000000" id="svg_424"
                  d="m136.601708,141.859584c1.916289,1.46613 4.124381,2.53548 6.451685,3.168905c-2.754332,4.82542 -5.830715,9.496042 -8.736287,14.234277c-3.743614,0.22419 -7.480112,-0.270452 -11.221947,-0.12455c4.403729,-5.82004 9.029869,-11.501295 13.506549,-17.278632z"
                  fill="#fcd900"/>
        </g>
        <g id="svg_436">
            <path stroke="#000000" id="svg_426"
                  d="m217.788714,91.150647c6.024658,-0.985724 12.232582,1.982123 15.890791,6.736371c3.067486,4.208008 3.667105,9.830547 2.341538,14.780517c1.992799,1.412751 3.649313,3.238297 5.111885,5.183055c2.478543,3.530101 4.515824,7.563739 4.52472,11.981702c0.078289,6.981913 -4.10303,13.127562 -8.821693,17.917396c-4.046093,3.813007 -8.72739,6.924975 -13.760986,9.273631c-0.862953,0.364753 -1.725906,0.718831 -2.592418,1.072908c-3.587037,1.428766 -7.359121,2.373566 -11.195258,2.814829c-0.434146,-0.754417 -0.927007,-1.489262 -1.238382,-2.304174c1.71523,-2.590638 3.919764,-4.914384 5.465962,-7.615338c-0.679687,-0.580047 -1.36827,-1.163652 -2.145817,-1.608473c-2.243678,2.941157 -4.469563,5.923238 -6.638511,8.921333c0.250879,0.991061 0.930566,1.818429 1.375387,2.732981c-2.053294,0.088964 -4.042534,-0.270451 -6.033554,-0.690363c-2.327304,-0.633425 -4.535396,-1.702775 -6.451685,-3.168905c-0.314934,-0.22597 -0.620971,-0.469732 -0.89676,-0.741962c-0.704597,-0.725948 -1.389621,-1.471468 -1.992799,-2.284601c8.738067,-7.926713 20.703755,-11.403435 28.833306,-20.113033c2.953613,-3.3326 3.684899,-8.400002 1.757934,-12.417627c-2.030164,-4.558527 -6.622498,-7.940947 -11.666769,-8.111758c-0.037365,-0.800678 -0.032027,-1.601356 -0.042703,-2.402034c0.035586,-2.361111 -0.064054,-4.727559 0.012455,-7.08689c1.633383,-0.540903 4.569203,-0.848719 4.905487,-3.327262c-0.046261,-2.012371 -1.359373,-4.206229 -3.293455,-4.891254c1.09248,-2.620886 3.857489,-4.159967 6.551325,-4.651049m1.661852,4.517603c-3.181361,0.222411 -5.035375,4.355689 -3.010549,6.830673c1.854014,2.697396 6.535312,1.944758 7.391148,-1.233044c1.085363,-2.788139 -1.501716,-5.857405 -4.380599,-5.597629z"
                  fill="#fcea9d"/>
            <path id="svg_427"
                  d="m219.450566,95.66825c2.878883,-0.259776 5.465962,2.80949 4.380599,5.597629c-0.855836,3.177802 -5.537134,3.93044 -7.391148,1.233044c-2.024826,-2.474984 -0.170812,-6.608262 3.010549,-6.830673m-0.103198,3.035459c-1.597798,0.316713 -0.779327,3.149334 0.848718,2.547936c1.708114,-0.338064 0.862953,-3.368186 -0.848718,-2.547936z"
                  fill="#020101"/>
            <path id="svg_428"
                  d="m197.737957,97.20911c4.466004,-0.64588 9.136626,-0.373649 13.499432,-1.407414c1.934082,0.685025 3.247194,2.878883 3.293455,4.891254c-0.336284,2.478543 -3.272104,2.786359 -4.905487,3.327262c-3.165347,-3.015888 -8.309259,-4.25249 -11.8874,-6.811102z"
                  fill="#7f3f00"/>
            <path id="svg_429"
                  d="m219.347368,98.703709c1.711671,-0.82025 2.556832,2.209872 0.848718,2.547936c-1.628045,0.601398 -2.446516,-2.231223 -0.848718,-2.547936z"
                  fill="#fdfdfd"/>
            <path stroke="#000000" id="svg_430"
                  d="m208.564903,113.596321c1.74192,0.441263 0.316713,-2.015929 1.047999,-2.489219c0.010676,0.800678 0.005338,1.601356 0.042703,2.402034c5.044271,0.170811 9.636605,3.553231 11.666769,8.111758c1.926965,4.017625 1.195679,9.085027 -1.757934,12.417627c-8.129551,8.709598 -20.095239,12.18632 -28.833306,20.113033c-0.633425,0.512434 -1.158314,1.305994 -1.926965,1.574666c0.035586,-1.546198 0.252659,-3.079941 0.364754,-4.620802c0.601398,-7.821734 1.791739,-15.71642 4.663504,-23.054189c2.544377,-6.464141 7.118918,-13.782338 14.732476,-14.454908z"
                  fill="#fcd900"/>
            <path stroke="#000000" id="svg_431"
                  d="m241.132928,117.85059c6.729254,1.426987 11.629403,8.946243 9.380388,15.638132c-2.186741,6.476596 -7.876893,11.072488 -13.677361,14.260966c4.718663,-4.789834 8.899982,-10.935483 8.821693,-17.917396c-0.008896,-4.417963 -2.046177,-8.451601 -4.52472,-11.981702z"
                  fill="#fcd900"/>
            <path id="svg_432"
                  d="m204.730545,158.304404c2.168948,-2.998095 4.394833,-5.980176 6.638511,-8.921333c0.777547,0.444821 1.46613,1.028426 2.145817,1.608473c-1.546198,2.700954 -3.750732,5.0247 -5.465962,7.615338c0.311375,0.814912 0.804236,1.549757 1.238382,2.304174c2.083542,4.012286 4.142174,8.063717 6.384073,11.974585c2.66003,0.416352 5.649228,-0.428808 8.072614,1.120949c0.999958,0.37365 0.580047,2.371786 -0.656556,1.766829c-1.188562,-0.498199 -2.832621,-1.204575 -4.022963,-0.692141c1.09426,0.887863 3.638637,2.551494 1.656514,3.946453c-1.750816,0.056937 -1.857573,-2.875324 -3.816565,-2.795256c0.565813,1.222368 1.843339,2.071087 1.759712,3.576362c0.599619,1.389621 -1.985681,2.03728 -1.91273,0.466172c-0.384326,-2.240119 -2.31307,-3.663547 -3.998053,-4.957087c-1.832663,-1.163652 -4.085237,0.834485 -5.905445,-0.306036c-0.727728,-3.001653 4.357468,-1.158315 5.526458,-2.117349c-1.980344,-4.006949 -4.288076,-7.846645 -6.26842,-11.857152c-0.444821,-0.914552 -1.124508,-1.74192 -1.375387,-2.732981z"
                  fill="#782921"/>
            <path stroke="#000000" id="svg_433"
                  d="m166.835343,172.736181c7.03885,-7.400045 14.92286,-14.429998 22.33358,-21.630763c-0.112095,1.540861 -0.329168,3.074604 -0.364754,4.620802c0.768651,-0.268672 1.29354,-1.062232 1.926965,-1.574666c0.603178,0.813133 1.288202,1.558653 1.992799,2.284601c-4.960645,5.974837 -9.97111,11.926544 -14.82144,17.985008c-3.711588,-0.439483 -7.33599,-1.549757 -11.06715,-1.684982z"
                  fill="#fcd900"/>
            <path id="svg_434"
                  d="m220.482551,158.096227c0.866512,-0.354077 1.729465,-0.708155 2.592418,-1.072908c2.085321,3.684898 3.827241,7.572635 6.063802,11.170348c2.772125,0.252659 6.368059,-0.692141 8.563696,1.535523c-0.062275,3.037238 -3.683119,-0.464394 -5.202628,0.485744c0.345181,0.79712 3.490956,2.220548 1.877145,3.747174c-1.725906,0.980385 -2.044398,-2.327305 -3.921543,-2.3878c0.67257,1.329125 1.823767,2.558611 1.524847,4.181318c-0.133446,0.983945 -2.083542,0.839823 -1.887821,-0.281126c-0.366533,-2.43762 -2.647575,-3.887737 -4.453549,-5.250669c-1.768609,-0.229528 -6.284433,1.688541 -5.32184,-1.455455c1.761491,-0.405677 3.60661,-0.407456 5.409025,-0.489303c-1.462572,-3.521204 -3.713367,-6.699006 -5.243552,-10.182846z"
                  fill="#782921"/>
            <path stroke="#000000" id="svg_435"
                  d="m193.620693,157.178117c1.916289,1.46613 4.124381,2.53548 6.451685,3.168905c-2.754332,4.82542 -5.830715,9.496042 -8.736287,14.234277c-3.743614,0.22419 -7.480112,-0.270452 -11.221947,-0.12455c4.403729,-5.82004 9.029869,-11.501295 13.506549,-17.278632z"
                  fill="#fcd900"/>
        </g>
        <g id="svg_447">
            <path stroke="#000000" id="svg_437"
                  d="m285.445567,92.427191c6.024658,-0.985724 12.232582,1.982123 15.890791,6.736371c3.067486,4.208008 3.667105,9.830547 2.341538,14.780517c1.992799,1.412751 3.649313,3.238297 5.111885,5.183055c2.478543,3.530101 4.515824,7.563739 4.52472,11.981702c0.078289,6.981913 -4.10303,13.127562 -8.821693,17.917396c-4.046093,3.813007 -8.72739,6.924975 -13.760986,9.273631c-0.862953,0.364753 -1.725906,0.718831 -2.592418,1.072908c-3.587037,1.428766 -7.359121,2.373566 -11.195258,2.814829c-0.434146,-0.754417 -0.927007,-1.489262 -1.238382,-2.304174c1.71523,-2.590638 3.919764,-4.914384 5.465962,-7.615338c-0.679687,-0.580047 -1.36827,-1.163652 -2.145817,-1.608473c-2.243678,2.941157 -4.469563,5.923238 -6.638511,8.921333c0.250879,0.991061 0.930566,1.818429 1.375387,2.732981c-2.053294,0.088964 -4.042534,-0.270451 -6.033554,-0.690363c-2.327304,-0.633425 -4.535396,-1.702775 -6.451685,-3.168905c-0.314934,-0.22597 -0.620971,-0.469732 -0.89676,-0.741962c-0.704597,-0.725948 -1.389621,-1.471468 -1.992799,-2.284601c8.738067,-7.926713 20.703755,-11.403435 28.833306,-20.113033c2.953613,-3.3326 3.684899,-8.400002 1.757934,-12.417627c-2.030164,-4.558527 -6.622498,-7.940947 -11.666769,-8.111758c-0.037365,-0.800678 -0.032027,-1.601356 -0.042703,-2.402034c0.035586,-2.361111 -0.064054,-4.727559 0.012455,-7.08689c1.633383,-0.540903 4.569203,-0.848719 4.905487,-3.327262c-0.046261,-2.012371 -1.359373,-4.206229 -3.293455,-4.891254c1.09248,-2.620886 3.857489,-4.159967 6.551325,-4.651049m1.661852,4.517603c-3.181361,0.222411 -5.035375,4.355689 -3.010549,6.830673c1.854014,2.697396 6.535312,1.944758 7.391148,-1.233044c1.085363,-2.788139 -1.501716,-5.857405 -4.380599,-5.597629z"
                  fill="#fcea9d"/>
            <path id="svg_438"
                  d="m287.107419,96.944794c2.878883,-0.259776 5.465962,2.80949 4.380599,5.597629c-0.855836,3.177802 -5.537134,3.93044 -7.391148,1.233044c-2.024826,-2.474984 -0.170812,-6.608262 3.010549,-6.830673m-0.103198,3.035459c-1.597798,0.316713 -0.779327,3.149334 0.848718,2.547936c1.708114,-0.338064 0.862953,-3.368186 -0.848718,-2.547936z"
                  fill="#020101"/>
            <path id="svg_439"
                  d="m265.39481,98.485654c4.466004,-0.64588 9.136626,-0.373649 13.499432,-1.407414c1.934082,0.685025 3.247194,2.878883 3.293455,4.891254c-0.336284,2.478543 -3.272104,2.786359 -4.905487,3.327262c-3.165347,-3.015888 -8.309259,-4.25249 -11.8874,-6.811102z"
                  fill="#7f3f00"/>
            <path id="svg_440"
                  d="m287.004221,99.980253c1.711671,-0.82025 2.556832,2.209872 0.848718,2.547936c-1.628045,0.601398 -2.446516,-2.231223 -0.848718,-2.547936z"
                  fill="#fdfdfd"/>
            <path stroke="#000000" id="svg_441"
                  d="m276.221756,114.872865c1.74192,0.441263 0.316713,-2.015929 1.047999,-2.489219c0.010676,0.800678 0.005338,1.601356 0.042703,2.402034c5.044271,0.170811 9.636605,3.553231 11.666769,8.111758c1.926965,4.017625 1.195679,9.085027 -1.757934,12.417627c-8.129551,8.709598 -20.095239,12.18632 -28.833306,20.113033c-0.633425,0.512434 -1.158314,1.305994 -1.926965,1.574666c0.035586,-1.546198 0.252659,-3.079941 0.364754,-4.620802c0.601398,-7.821734 1.791739,-15.71642 4.663504,-23.054189c2.544377,-6.464141 7.118918,-13.782338 14.732476,-14.454908z"
                  fill="#fcd900"/>
            <path stroke="#000000" id="svg_442"
                  d="m308.789781,119.127134c6.729254,1.426987 11.629403,8.946243 9.380388,15.638132c-2.186741,6.476596 -7.876893,11.072488 -13.677361,14.260966c4.718663,-4.789834 8.899982,-10.935483 8.821693,-17.917396c-0.008896,-4.417963 -2.046177,-8.451601 -4.52472,-11.981702z"
                  fill="#fcd900"/>
            <path id="svg_443"
                  d="m272.387398,159.580948c2.168948,-2.998095 4.394833,-5.980176 6.638511,-8.921333c0.777547,0.444821 1.46613,1.028426 2.145817,1.608473c-1.546198,2.700954 -3.750732,5.0247 -5.465962,7.615338c0.311375,0.814912 0.804236,1.549757 1.238382,2.304174c2.083542,4.012286 4.142174,8.063717 6.384073,11.974585c2.66003,0.416352 5.649228,-0.428808 8.072614,1.120949c0.999958,0.37365 0.580047,2.371786 -0.656556,1.766829c-1.188562,-0.498199 -2.832621,-1.204575 -4.022963,-0.692141c1.09426,0.887863 3.638637,2.551494 1.656514,3.946453c-1.750816,0.056937 -1.857573,-2.875324 -3.816565,-2.795256c0.565813,1.222368 1.843339,2.071087 1.759712,3.576362c0.599619,1.389621 -1.985681,2.03728 -1.91273,0.466172c-0.384326,-2.240119 -2.31307,-3.663547 -3.998053,-4.957087c-1.832663,-1.163652 -4.085237,0.834485 -5.905445,-0.306036c-0.727728,-3.001653 4.357468,-1.158315 5.526458,-2.117349c-1.980344,-4.006949 -4.288076,-7.846645 -6.26842,-11.857152c-0.444821,-0.914552 -1.124508,-1.74192 -1.375387,-2.732981z"
                  fill="#782921"/>
            <path stroke="#000000" id="svg_444"
                  d="m234.492196,174.012725c7.03885,-7.400045 14.92286,-14.429998 22.33358,-21.630763c-0.112095,1.540861 -0.329168,3.074604 -0.364754,4.620802c0.768651,-0.268672 1.29354,-1.062232 1.926965,-1.574666c0.603178,0.813133 1.288202,1.558653 1.992799,2.284601c-4.960645,5.974837 -9.97111,11.926544 -14.82144,17.985008c-3.711588,-0.439483 -7.33599,-1.549757 -11.06715,-1.684982z"
                  fill="#fcd900"/>
            <path id="svg_445"
                  d="m288.139404,159.372771c0.866512,-0.354077 1.729465,-0.708155 2.592418,-1.072908c2.085321,3.684898 3.827241,7.572635 6.063802,11.170348c2.772125,0.252659 6.368059,-0.692141 8.563696,1.535523c-0.062275,3.037238 -3.683119,-0.464394 -5.202628,0.485744c0.345181,0.79712 3.490956,2.220548 1.877145,3.747174c-1.725906,0.980385 -2.044398,-2.327305 -3.921543,-2.3878c0.67257,1.329125 1.823767,2.558611 1.524847,4.181318c-0.133446,0.983945 -2.083542,0.839823 -1.887821,-0.281126c-0.366533,-2.43762 -2.647575,-3.887737 -4.453549,-5.250669c-1.768609,-0.229528 -6.284433,1.688541 -5.32184,-1.455455c1.761491,-0.405677 3.60661,-0.407456 5.409025,-0.489303c-1.462572,-3.521204 -3.713367,-6.699006 -5.243552,-10.182846z"
                  fill="#782921"/>
            <path stroke="#000000" id="svg_446"
                  d="m261.277546,158.454661c1.916289,1.46613 4.124381,2.53548 6.451685,3.168905c-2.754332,4.82542 -5.830715,9.496042 -8.736287,14.234277c-3.743614,0.22419 -7.480112,-0.270452 -11.221947,-0.12455c4.403729,-5.82004 9.029869,-11.501295 13.506549,-17.278632z"
                  fill="#fcd900"/>
        </g>
        <g id="svg_458">
            <path stroke="#000000" id="svg_448"
                  d="m353.953449,94.554765c6.024658,-0.985724 12.232582,1.982123 15.890791,6.736371c3.067486,4.208008 3.667105,9.830547 2.341538,14.780517c1.992799,1.412751 3.649313,3.238297 5.111885,5.183055c2.478543,3.530101 4.515824,7.563739 4.52472,11.981702c0.078289,6.981913 -4.10303,13.127562 -8.821693,17.917396c-4.046093,3.813007 -8.72739,6.924975 -13.760986,9.273631c-0.862953,0.364753 -1.725906,0.718831 -2.592418,1.072908c-3.587037,1.428766 -7.359121,2.373566 -11.195258,2.814829c-0.434146,-0.754417 -0.927007,-1.489262 -1.238382,-2.304174c1.71523,-2.590638 3.919764,-4.914384 5.465962,-7.615338c-0.679687,-0.580047 -1.36827,-1.163652 -2.145817,-1.608473c-2.243678,2.941157 -4.469563,5.923238 -6.638511,8.921333c0.250879,0.991061 0.930566,1.818429 1.375387,2.732981c-2.053294,0.088964 -4.042534,-0.270451 -6.033554,-0.690363c-2.327304,-0.633425 -4.535396,-1.702775 -6.451685,-3.168905c-0.314934,-0.22597 -0.620971,-0.469732 -0.89676,-0.741962c-0.704597,-0.725948 -1.389621,-1.471468 -1.992799,-2.284601c8.738067,-7.926713 20.703755,-11.403435 28.833306,-20.113033c2.953613,-3.3326 3.684899,-8.400002 1.757934,-12.417627c-2.030164,-4.558527 -6.622498,-7.940947 -11.666769,-8.111758c-0.037365,-0.800678 -0.032027,-1.601356 -0.042703,-2.402034c0.035586,-2.361111 -0.064054,-4.727559 0.012455,-7.08689c1.633383,-0.540903 4.569203,-0.848719 4.905487,-3.327262c-0.046261,-2.012371 -1.359373,-4.206229 -3.293455,-4.891254c1.09248,-2.620886 3.857489,-4.159967 6.551325,-4.651049m1.661852,4.517603c-3.181361,0.222411 -5.035375,4.355689 -3.010549,6.830673c1.854014,2.697396 6.535312,1.944758 7.391148,-1.233044c1.085363,-2.788139 -1.501716,-5.857405 -4.380599,-5.597629z"
                  fill="#fcea9d"/>
            <path id="svg_449"
                  d="m355.615301,99.072368c2.878883,-0.259776 5.465962,2.80949 4.380599,5.597629c-0.855836,3.177802 -5.537134,3.93044 -7.391148,1.233044c-2.024826,-2.474984 -0.170812,-6.608262 3.010549,-6.830673m-0.103198,3.035459c-1.597798,0.316713 -0.779327,3.149334 0.848718,2.547936c1.708114,-0.338064 0.862953,-3.368186 -0.848718,-2.547936z"
                  fill="#020101"/>
            <path id="svg_450"
                  d="m333.902692,100.613228c4.466004,-0.64588 9.136626,-0.373649 13.499432,-1.407414c1.934082,0.685025 3.247194,2.878883 3.293455,4.891254c-0.336284,2.478543 -3.272104,2.786359 -4.905487,3.327262c-3.165347,-3.015888 -8.309259,-4.25249 -11.8874,-6.811102z"
                  fill="#7f3f00"/>
            <path id="svg_451"
                  d="m355.512103,102.107827c1.711671,-0.82025 2.556832,2.209872 0.848718,2.547936c-1.628045,0.601398 -2.446516,-2.231223 -0.848718,-2.547936z"
                  fill="#fdfdfd"/>
            <path stroke="#000000" id="svg_452"
                  d="m344.729638,117.000439c1.74192,0.441263 0.316713,-2.015929 1.047999,-2.489219c0.010676,0.800678 0.005338,1.601356 0.042703,2.402034c5.044271,0.170811 9.636605,3.553231 11.666769,8.111758c1.926965,4.017625 1.195679,9.085027 -1.757934,12.417627c-8.129551,8.709598 -20.095239,12.18632 -28.833306,20.113033c-0.633425,0.512434 -1.158314,1.305994 -1.926965,1.574666c0.035586,-1.546198 0.252659,-3.079941 0.364754,-4.620802c0.601398,-7.821734 1.791739,-15.71642 4.663504,-23.054189c2.544377,-6.464141 7.118918,-13.782338 14.732476,-14.454908z"
                  fill="#fcd900"/>
            <path stroke="#000000" id="svg_453"
                  d="m377.297663,121.254708c6.729254,1.426987 11.629403,8.946243 9.380388,15.638132c-2.186741,6.476596 -7.876893,11.072488 -13.677361,14.260966c4.718663,-4.789834 8.899982,-10.935483 8.821693,-17.917396c-0.008896,-4.417963 -2.046177,-8.451601 -4.52472,-11.981702z"
                  fill="#fcd900"/>
            <path id="svg_454"
                  d="m340.89528,161.708522c2.168948,-2.998095 4.394833,-5.980176 6.638511,-8.921333c0.777547,0.444821 1.46613,1.028426 2.145817,1.608473c-1.546198,2.700954 -3.750732,5.0247 -5.465962,7.615338c0.311375,0.814912 0.804236,1.549757 1.238382,2.304174c2.083542,4.012286 4.142174,8.063717 6.384073,11.974585c2.66003,0.416352 5.649228,-0.428808 8.072614,1.120949c0.999958,0.37365 0.580047,2.371786 -0.656556,1.766829c-1.188562,-0.498199 -2.832621,-1.204575 -4.022963,-0.692141c1.09426,0.887863 3.638637,2.551494 1.656514,3.946453c-1.750816,0.056937 -1.857573,-2.875324 -3.816565,-2.795256c0.565813,1.222368 1.843339,2.071087 1.759712,3.576362c0.599619,1.389621 -1.985681,2.03728 -1.91273,0.466172c-0.384326,-2.240119 -2.31307,-3.663547 -3.998053,-4.957087c-1.832663,-1.163652 -4.085237,0.834485 -5.905445,-0.306036c-0.727728,-3.001653 4.357468,-1.158315 5.526458,-2.117349c-1.980344,-4.006949 -4.288076,-7.846645 -6.26842,-11.857152c-0.444821,-0.914552 -1.124508,-1.74192 -1.375387,-2.732981z"
                  fill="#782921"/>
            <path stroke="#000000" id="svg_455"
                  d="m303.000078,176.140299c7.03885,-7.400045 14.92286,-14.429998 22.33358,-21.630763c-0.112095,1.540861 -0.329168,3.074604 -0.364754,4.620802c0.768651,-0.268672 1.29354,-1.062232 1.926965,-1.574666c0.603178,0.813133 1.288202,1.558653 1.992799,2.284601c-4.960645,5.974837 -9.97111,11.926544 -14.82144,17.985008c-3.711588,-0.439483 -7.33599,-1.549757 -11.06715,-1.684982z"
                  fill="#fcd900"/>
            <path id="svg_456"
                  d="m356.647286,161.500345c0.866512,-0.354077 1.729465,-0.708155 2.592418,-1.072908c2.085321,3.684898 3.827241,7.572635 6.063802,11.170348c2.772125,0.252659 6.368059,-0.692141 8.563696,1.535523c-0.062275,3.037238 -3.683119,-0.464394 -5.202628,0.485744c0.345181,0.79712 3.490956,2.220548 1.877145,3.747174c-1.725906,0.980385 -2.044398,-2.327305 -3.921543,-2.3878c0.67257,1.329125 1.823767,2.558611 1.524847,4.181318c-0.133446,0.983945 -2.083542,0.839823 -1.887821,-0.281126c-0.366533,-2.43762 -2.647575,-3.887737 -4.453549,-5.250669c-1.768609,-0.229528 -6.284433,1.688541 -5.32184,-1.455455c1.761491,-0.405677 3.60661,-0.407456 5.409025,-0.489303c-1.462572,-3.521204 -3.713367,-6.699006 -5.243552,-10.182846z"
                  fill="#782921"/>
            <path stroke="#000000" id="svg_457"
                  d="m329.785428,160.582235c1.916289,1.46613 4.124381,2.53548 6.451685,3.168905c-2.754332,4.82542 -5.830715,9.496042 -8.736287,14.234277c-3.743614,0.22419 -7.480112,-0.270452 -11.221947,-0.12455c4.403729,-5.82004 9.029869,-11.501295 13.506549,-17.278632z"
                  fill="#fcd900"/>
        </g>
        <g id="svg_469">
            <path stroke="#000000" id="svg_459"
                  d="m422.461337,98.384398c6.024658,-0.985724 12.232582,1.982123 15.890791,6.736371c3.067486,4.208008 3.667105,9.830547 2.341538,14.780517c1.992799,1.412751 3.649313,3.238297 5.111885,5.183055c2.478543,3.530101 4.515824,7.563739 4.52472,11.981702c0.078289,6.981913 -4.10303,13.127562 -8.821693,17.917396c-4.046093,3.813007 -8.72739,6.924975 -13.760986,9.273631c-0.862953,0.364753 -1.725906,0.718831 -2.592418,1.072908c-3.587037,1.428766 -7.359121,2.373566 -11.195258,2.814829c-0.434146,-0.754417 -0.927007,-1.489262 -1.238382,-2.304174c1.71523,-2.590638 3.919764,-4.914384 5.465962,-7.615338c-0.679687,-0.580047 -1.36827,-1.163652 -2.145817,-1.608473c-2.243678,2.941157 -4.469563,5.923238 -6.638511,8.921333c0.250879,0.991061 0.930566,1.818429 1.375387,2.732981c-2.053294,0.088964 -4.042534,-0.270451 -6.033554,-0.690363c-2.327304,-0.633425 -4.535396,-1.702775 -6.451685,-3.168905c-0.314934,-0.22597 -0.620971,-0.469732 -0.89676,-0.741962c-0.704597,-0.725948 -1.389621,-1.471468 -1.992799,-2.284601c8.738067,-7.926713 20.703755,-11.403435 28.833306,-20.113033c2.953613,-3.3326 3.684899,-8.400002 1.757934,-12.417627c-2.030164,-4.558527 -6.622498,-7.940947 -11.666769,-8.111758c-0.037365,-0.800678 -0.032027,-1.601356 -0.042703,-2.402034c0.035586,-2.361111 -0.064054,-4.727559 0.012455,-7.08689c1.633383,-0.540903 4.569203,-0.848719 4.905487,-3.327262c-0.046261,-2.012371 -1.359373,-4.206229 -3.293455,-4.891254c1.09248,-2.620886 3.857489,-4.159967 6.551325,-4.651049m1.661852,4.517603c-3.181361,0.222411 -5.035375,4.355689 -3.010549,6.830673c1.854014,2.697396 6.535312,1.944758 7.391148,-1.233044c1.085363,-2.788139 -1.501716,-5.857405 -4.380599,-5.597629z"
                  fill="#fcea9d"/>
            <path id="svg_460"
                  d="m424.123189,102.902001c2.878883,-0.259776 5.465962,2.80949 4.380599,5.597629c-0.855836,3.177802 -5.537134,3.93044 -7.391148,1.233044c-2.024826,-2.474984 -0.170812,-6.608262 3.010549,-6.830673m-0.103198,3.035459c-1.597798,0.316713 -0.779327,3.149334 0.848718,2.547936c1.708114,-0.338064 0.862953,-3.368186 -0.848718,-2.547936z"
                  fill="#020101"/>
            <path id="svg_461"
                  d="m402.41058,104.442861c4.466004,-0.64588 9.136626,-0.373649 13.499432,-1.407414c1.934082,0.685025 3.247194,2.878883 3.293455,4.891254c-0.336284,2.478543 -3.272104,2.786359 -4.905487,3.327262c-3.165347,-3.015888 -8.309259,-4.25249 -11.8874,-6.811102z"
                  fill="#7f3f00"/>
            <path id="svg_462"
                  d="m424.019991,105.93746c1.711671,-0.82025 2.556832,2.209872 0.848718,2.547936c-1.628045,0.601398 -2.446516,-2.231223 -0.848718,-2.547936z"
                  fill="#fdfdfd"/>
            <path stroke="#000000" id="svg_463"
                  d="m413.237526,120.830072c1.74192,0.441263 0.316713,-2.015929 1.047999,-2.489219c0.010676,0.800678 0.005338,1.601356 0.042703,2.402034c5.044271,0.170811 9.636605,3.553231 11.666769,8.111758c1.926965,4.017625 1.195679,9.085027 -1.757934,12.417627c-8.129551,8.709598 -20.095239,12.18632 -28.833306,20.113033c-0.633425,0.512434 -1.158314,1.305994 -1.926965,1.574666c0.035586,-1.546198 0.252659,-3.079941 0.364754,-4.620802c0.601398,-7.821734 1.791739,-15.71642 4.663504,-23.054189c2.544377,-6.464141 7.118918,-13.782338 14.732476,-14.454908z"
                  fill="#fcd900"/>
            <path stroke="#000000" id="svg_464"
                  d="m445.805551,125.084341c6.729254,1.426987 11.629403,8.946243 9.380388,15.638132c-2.186741,6.476596 -7.876893,11.072488 -13.677361,14.260966c4.718663,-4.789834 8.899982,-10.935483 8.821693,-17.917396c-0.008896,-4.417963 -2.046177,-8.451601 -4.52472,-11.981702z"
                  fill="#fcd900"/>
            <path id="svg_465"
                  d="m409.403168,165.538155c2.168948,-2.998095 4.394833,-5.980176 6.638511,-8.921333c0.777547,0.444821 1.46613,1.028426 2.145817,1.608473c-1.546198,2.700954 -3.750732,5.0247 -5.465962,7.615338c0.311375,0.814912 0.804236,1.549757 1.238382,2.304174c2.083542,4.012286 4.142174,8.063717 6.384073,11.974585c2.66003,0.416352 5.649228,-0.428808 8.072614,1.120949c0.999958,0.37365 0.580047,2.371786 -0.656556,1.766829c-1.188562,-0.498199 -2.832621,-1.204575 -4.022963,-0.692141c1.09426,0.887863 3.638637,2.551494 1.656514,3.946453c-1.750816,0.056937 -1.857573,-2.875324 -3.816565,-2.795256c0.565813,1.222368 1.843339,2.071087 1.759712,3.576362c0.599619,1.389621 -1.985681,2.03728 -1.91273,0.466172c-0.384326,-2.240119 -2.31307,-3.663547 -3.998053,-4.957087c-1.832663,-1.163652 -4.085237,0.834485 -5.905445,-0.306036c-0.727728,-3.001653 4.357468,-1.158315 5.526458,-2.117349c-1.980344,-4.006949 -4.288076,-7.846645 -6.26842,-11.857152c-0.444821,-0.914552 -1.124508,-1.74192 -1.375387,-2.732981z"
                  fill="#782921"/>
            <path stroke="#000000" id="svg_466"
                  d="m371.507966,179.969932c7.03885,-7.400045 14.92286,-14.429998 22.33358,-21.630763c-0.112095,1.540861 -0.329168,3.074604 -0.364754,4.620802c0.768651,-0.268672 1.29354,-1.062232 1.926965,-1.574666c0.603178,0.813133 1.288202,1.558653 1.992799,2.284601c-4.960645,5.974837 -9.97111,11.926544 -14.82144,17.985008c-3.711588,-0.439483 -7.33599,-1.549757 -11.06715,-1.684982z"
                  fill="#fcd900"/>
            <path id="svg_467"
                  d="m425.155174,165.329978c0.866512,-0.354077 1.729465,-0.708155 2.592418,-1.072908c2.085321,3.684898 3.827241,7.572635 6.063802,11.170348c2.772125,0.252659 6.368059,-0.692141 8.563696,1.535523c-0.062275,3.037238 -3.683119,-0.464394 -5.202628,0.485744c0.345181,0.79712 3.490956,2.220548 1.877145,3.747174c-1.725906,0.980385 -2.044398,-2.327305 -3.921543,-2.3878c0.67257,1.329125 1.823767,2.558611 1.524847,4.181318c-0.133446,0.983945 -2.083542,0.839823 -1.887821,-0.281126c-0.366533,-2.43762 -2.647575,-3.887737 -4.453549,-5.250669c-1.768609,-0.229528 -6.284433,1.688541 -5.32184,-1.455455c1.761491,-0.405677 3.60661,-0.407456 5.409025,-0.489303c-1.462572,-3.521204 -3.713367,-6.699006 -5.243552,-10.182846z"
                  fill="#782921"/>
            <path stroke="#000000" id="svg_468"
                  d="m398.293316,164.411868c1.916289,1.46613 4.124381,2.53548 6.451685,3.168905c-2.754332,4.82542 -5.830715,9.496042 -8.736287,14.234277c-3.743614,0.22419 -7.480112,-0.270452 -11.221947,-0.12455c4.403729,-5.82004 9.029869,-11.501295 13.506549,-17.278632z"
                  fill="#fcd900"/>
        </g>
        <g transform="matrix(0.02394169405990471,0,0,0.025709759449628344,-276.747377032381,5.378420453620941) "
           id="svg_502">
            <path fill="#fcd900"
                  d="m31063.432236,193.033664c41.95,120.23 87.81,239.52 145.95,353.01c82.92,163.6 188.74,319.36 332.03,435.97c138.62,115.66 312.94,181.72 490.3,207.66c3.38,0.16 7.9897,0.3509 8.6297,4.5109c78.58,224.16 168.1,445.96 290.98,649.92c93.17,153.84 207.2,297.52 350.16,408c5.78,1.89 1.1794,6.69 -0.3906,9.65c-59.69,103.81 -135.49,197.55 -218.05,283.95c-151.98,156.83 -325.71,291.02 -506.54,412.81c7.19,63.61 31.089,126.94 74.989,174.42c33.83,36.76 77.401,63.549 124.04,80.959c87.08,32.63 181.42,38.67 273.57,37.27c1.1,36.72 19.2,73.949 52,92.309c-4.34,11.26 -15.06,20.511 -21.27,31.341c-18.59,1.67 -38.539,-0.3209 -56.459,3.1391c-16.85,93.76 -93.06,161.34 -166.1,215.09c34.59,27.36 70.959,52.97 106.31,79.52c35.35,-3.46 71.37,-4.62 106.35,-9.15c4.27,-27.11 11.3,-53.82 21.45,-79.32c19.4,13.6 37.799,28.68 57.459,41.93c34.93,-3.24 71.331,-4.6397 105.39,-8.9797c15.91,-96.99 69.471,-182.19 125.04,-260.87c-22.8,-5.58 -45.881,-9.9997 -68.711,-15.38c1.89,-11.46 8.9406,-21.67 14.391,-31.72c59.84,-1.24 92.93,-60.399 117.98,-106.89c122.03,-23.23 242.88,-52.241 363.43,-82.141c66.12,-18.4 129.67,-47.229 185.21,-87.809c99.73,-71.73 160,-181.7 215.89,-288.1c43.58,-81.88 94.11,-167.41 178.78,-212.28c51.74,-6.64 104.34,-7.3591 156.41,-4.0391c223.71,9.64 443.32,60.88 666.93,71.12c49.08,0.34 99.35,-0.24 146.67,-15c31.36,-9.97 61.859,-32.551 68.339,-66.611c8.54,-46.44 -11.54,-90.98 -30.25,-132.27c34.25,46.34 69.202,92.971 111.49,132.53c24.451,22.49 50.78,44.74 82.91,55.1c12.69,3.9 28.662,3.3791 37.831,-7.5109c12.06,-17.29 8.0192,-39.89 3.7896,-59.13c-13.1,-48.89 -41.27,-92.001 -70.09,-132.89c58.54,62.91 119.73,134.41 205.92,158.06c55.22,15.43 107.73,-13.89 153.03,-41.95c64.85,69.69 163.36,98.84 256.56,93.12c28.52,0.73 60.11,-4.6103 79.68,-27.27c24.15,-28.11 28.721,-67.4 26.97,-103.07c-1.98,-60.21 -18.96,-118.76 -38.77,-175.27c-40.33,-111.82 -98.02,-216.65 -163.26,-315.75c-92.95,-138.21 -203.89,-266.6 -339.44,-364.58c-36.3,-25.06 -73.599,-49.291 -114.04,-67.141c-59.18,-10.61 -120.39,-7.5888 -178.96,5.3312c-122.4,27.54 -228.82,98.349 -330.89,168.09c-4.2296,-58.43 -16.821,-118.91 -52.761,-166.61c-23.19,-31.29 -56.239,-54.671 -92.489,-68.511c-68.13,-26.42 -142.99,-26.369 -214.8,-21.069c-33.13,6.16 -62.271,24.429 -90.911,41.239c-100.7,62.31 -196.74,135.31 -309.15,175.86c-49.76,17.5 -103.22,28.609 -156.02,20.869c-79.17,-15.57 -154.58,-54.879 -208.28,-115.74c-48.62,-53.49 -81.039,-119.23 -106.84,-186.17c-38.95,-103.55 -63.54,-211.65 -94.25,-317.76c-42.2,-151.17 -97.7,-302.89 -196.2,-427.42c-67.5,-85.43 -153.6,-156.01 -250.6,-205.47c-103.08,-49.9 -217.4,-70.39 -330.31,-83.67c-161.11,-18.06 -323.38,-20.149 -485.16,-27.889c-284.92,-11.52 -574.24,-33.68 -845.68,-127.23l-0.1867,-0.1175zm2624.1,2344.3c-1.1562,1.1533 -2.3032,2.3167 -3.4407,3.4907c1.1371,-1.174 2.283,-2.3374 3.4392,-3.4907l0.0015,0zm-1071,740.9c15.39,7.7 30.13,18.081 46.8,23.791c-6.03,8.63 -11.741,17.629 -18.691,25.559c-16.23,2.4 -32.76,1.1403 -49.07,2.5703c10.45,-15.25 18.661,-33.03 20.961,-51.92l0,-0.0003zm-30.111,60.17c-3.78,21.58 -12.39,42.07 -22.35,61.48c-19.6,-3.8 -39.27,-8.3691 -58.65,-12.939c3.33,-10.6 5.7503,-21.63 10.07,-31.87c24.72,5.21 50.7,-2.0703 70.93,-16.67l0,-0.001zm-44.894,67.406c3.4036,0.1 4.0969,7.8269 -0.7156,5.8844c-4.42,-0.47 -5.3,-3.8209 -0.9,-5.4109c0.5887,-0.3476 1.1295,-0.4876 1.6156,-0.4735z"
                  id="svg_508"/>
            <path fill="#1f1b17"
                  transform="translate(2.842170943040401e-14,2.842170943040401e-14) scale(0.800000011920929) "
                  d="m38829.289217,241.291326c52.438,150.29 109.76,299.4 182.44,441.26c103.65,204.5 235.92,399.2 415.04,545c173.27,144.5 391.16,227.1 612.86,259.5c4.2,0.2 10,0.5 10.8,5.7c98.2,280.2 210.1,557.4 363.7,812.4c116.5,192.3 259,371.9 437.7,510c7.2,2.3 1.5,8.3 -0.5,12c-74.6,129.8 -169.3,247 -272.5,355c-190,196 -407.2,363.8 -633.2,516c9,79.5 38.9,158.7 93.7,218c42.3,46 96.8,79.5 155.1,101.2c108.8,40.8 226.8,48.4 342,46.6c1.3,45.9 24,92.4 65,115.4c-5.5,14.1 -18.9,25.6 -26.6,39.2c-23.3,2.1 -48.2,-0.4 -70.6,3.9c-21.1,117.2 -116.3,201.7 -207.6,268.8c43.2,34.2 88.7,66.3 132.8,99.5c44.2,-4.4 89.3,-5.8 133,-11.5c5.3,-33.9 14.1,-67.3 26.8,-99.1c24.2,17 47.2,35.8 71.8,52.4c43.7,-4.1 89.2,-5.8 131.8,-11.3c19.8,-121.2 86.8,-227.7 156.3,-326c-28.5,-7 -57.4,-12.5 -85.9,-19.3c2.3,-14.3 11.2,-27.1 18,-39.6c74.8,-1.6 116.1,-75.5 147.4,-133.6c152.6,-29.1 303.6,-65.3 454.3,-102.7c82.7,-23 162.1,-59 231.5,-109.8c124.7,-89.6 200,-227.1 269.9,-360.1c54.5,-102.3 117.6,-209.3 223.5,-265.3c64.6,-8.3 130.4,-9.2 195.5,-5.1c279.6,12.1 554.1,76.1 833.7,88.9c61.3,0.4 124.1,-0.3 183.3,-18.7c39.2,-12.5 77.3,-40.7 85.4,-83.3c10.7,-58.1 -14.4,-113.7 -37.8,-165.3c42.8,57.9 86.5,116.2 139.4,165.6c30.5,28.1 63.4,56 103.6,68.9c15.9,4.9 35.8,4.2 47.3,-9.4c15.1,-21.6 10,-49.8 4.7,-73.9c-16.4,-61.1 -51.6,-115 -87.6,-166.1c73.2,78.6 149.7,168 257.4,197.6c69,19.3 134.7,-17.4 191.3,-52.5c81.1,87.1 204.2,123.6 320.7,116.4c35.7,0.9 75.1,-5.7 99.6,-34.1c30.2,-35.1 35.9,-84.2 33.7,-128.8c-2.5,-75.3 -23.7,-148.5 -48.5,-219.1c-50.4,-139.8 -122.5,-270.8 -204,-394.7c-116.2,-172.7 -254.9,-333.2 -424.3,-455.7c-45.4,-31.3 -92,-61.6 -142.6,-83.9c-73.9,-13.3 -150.5,-9.5 -223.7,6.6c-153,34.5 -286,123 -413.6,210.1c-5.3,-73 -21,-148.6 -65.9,-208.2c-29,-39.1 -70.3,-68.4 -115.6,-85.7c-85.2,-33 -178.8,-32.9 -268.5,-26.3c-41.5,7.7 -77.9,30.5 -113.7,51.6c-125.9,77.8 -245.9,169.1 -386.4,219.8c-62.2,21.9 -129.1,35.7 -195.1,26.1c-98.9,-19.5 -193.2,-68.6 -260.3,-144.7c-60.8,-66.9 -101.3,-149 -133.5,-232.7c-48.7,-129.4 -79.5,-264.6 -117.9,-397.2c-53,-189.12 -122.3,-378.78 -245.5,-534.44c-84.3,-106.78 -192,-195.01 -313.2,-256.84c-128.9,-62.37 -271.7,-87.98 -412.9,-104.58c-201.4,-22.58 -404.2,-25.19 -606.4,-34.86c-356.19,-14.4 -717.84,-42.1 -1057.1,-159.04l-0.04,0zm135.1,109.87c66.78,21.87 135.68,36.59 204.72,49.03c432.88,67.9 874.52,17.04 1307.3,86.36c118.7,20.01 236.6,49.87 346.5,99.79c208.1,96.18 378.5,265.63 487.6,466.15c119.1,212.26 174,451.36 251.1,680.16c38.2,109.1 82.6,218.9 158.4,307.8c65.8,79.3 160.7,132 261.6,150.9c46.1,10.7 94.4,5.9 140,-5.1c152.2,-38.8 276.7,-140.6 403.8,-227.4c45.6,-29.6 91.4,-65.7 146.6,-73.7c101.8,1.2 207.2,3 303.5,39.8c41.3,16.2 79.8,46.1 94.3,89.5c22.1,64.8 8.1,134.6 6.7,201.2c22.3,86 78.1,164.6 150.2,218.2c-49.3,-17 -97.8,-36.4 -147.3,-52.7c44,33 89.9,63.8 134.9,95.7c-83,-7.1 -167.7,-24.7 -251.5,-19.9c-37.2,33.9 -72.3,72.4 -90.2,120.3c-19.5,49.1 -21.2,103.5 -43.2,151.8c-23.4,51.4 -64.8,92.1 -109.5,125.5c-138,99.3 -297.7,161.9 -454.9,223.8c-62.2,19.8 -119.4,54.3 -164.1,102.1c-119.9,131.2 -169.6,309.2 -285.1,443.7c-83.4,102.9 -203.1,172.3 -330.9,204.1c-142,36.7 -283.5,75.8 -426.8,106.9c36.4,-97.1 68.8,-195.8 106.1,-292.6c-68,108.1 -102.1,233.3 -161.8,345.7c-22.4,42.8 -47.1,92 -94.8,111.4c-45.9,16.5 -89,-16.6 -118.8,-48c-8.6,-4.6 -1.8,-13.7 -0.9,-20.4c16.9,-68 34.7,-135.8 51.3,-203.8c0.4,-2.8 -2.1,0.8 -2.1,1.9c-31.1,83.6 -44.5,173.9 -86.4,253.4c-11.5,21.7 -27.9,40.3 -47.4,55.1c-20.1,23.3 -58.4,26.4 -81.6,6c-32.8,-28.5 -43.3,-73.5 -49.2,-114.6c-5.1,-89.8 12.7,-179 35.6,-265.3c47.4,-169.2 121.5,-330.7 213.7,-480c-87.9,118.4 -167.6,245.9 -218.4,385.3c-41.3,111.3 -61.6,229.7 -65.8,348.1c-52.6,-0.5 -106.7,3.3 -158.5,-5.7c55.2,-54.9 110.9,-109.6 165,-165.5c-69.9,52 -138.3,106.7 -208.1,158.8c-42.9,-7.3 -85.3,-21 -123.2,-42.4c57.6,-59.1 118.3,-115.2 175,-175.2c-68.9,51.2 -136.1,105 -204.9,156.5c-29.3,-21.4 -54.1,-49.2 -71.1,-81.3c60,-62.4 123.5,-122.5 183.5,-185.2c-66.8,49.6 -131.8,102 -198.6,151.5c-17,-44.1 -21.1,-92 -21.4,-138.8c0.4,-4.1 -1.3,-10.6 3.6,-12.8c169.3,-126.6 332,-262.7 480,-413.7c140.6,-145.6 270.3,-305.5 359,-488.5c49.6,-104.6 86,-218 86,-334.6c-1.5,-22.3 -1.5,-45.2 -8.1,-66.8c-7.1,125.8 -43.3,248.7 -96.7,362.5c-36.8,-21.8 -72.5,-45.9 -105.9,-72.7c46,-94.4 96,-187.7 142.2,-282.2c-58.8,85 -115,172.4 -173.7,257.7c-34.8,-29.6 -69,-60.3 -100,-93.9c59.7,-86.9 120.4,-173.1 180.2,-259.9c-0.9,0.3 6.2,-8.6 2.2,-5.2c-70.8,78.3 -139.6,158.7 -211,236.3c-40.4,-46.6 -80.2,-93.9 -114.9,-144.8c75.1,-79.1 151.1,-157.4 225.8,-236.6c-83.5,66.7 -164.9,136.2 -248.6,202.7c-31.7,-45.4 -61.6,-93.2 -87.4,-142.4c81.9,-69.3 168.8,-134.8 251.1,-204c-90.5,54.4 -179.4,111.7 -269.4,166.8c-4,2.4 -4.8,-4.8 -6.7,-6.7c-35.8,-70 -72.7,-140.2 -101.2,-213.3c98.8,-43.6 199.3,-85.1 297.3,-129.3c-105,30.2 -209.4,62.4 -314.5,92.3c-24.9,-60.3 -49.3,-120.7 -71.6,-182c99.8,-38 202.2,-73.1 300.9,-111.6c-104.9,24.2 -209.6,49.3 -314.5,73.9c-22.6,-60.7 -44.2,-122 -63.9,-183.6c75,7.1 152.3,15.8 226.3,16.2c-88.6,-7.5 -180.7,-17.8 -266,-36.1c174.8,-23.2 340,-95.2 486.9,-190.4c-190.3,84.9 -391.1,159.4 -601.8,164.8c-52.4,-13.8 -106.4,-28.9 -155.5,-49.7c167.5,-19.4 327,-83.7 471.1,-168.9c-69.9,27.3 -139.5,55.9 -211.6,77.2c-116.2,35.3 -238.1,55.2 -359.66,49.6c-69.75,-31.6 -135.54,-71.9 -197.4,-116.9c119.47,-4.8 239.59,-27.75 352.06,-70.16c48.9,-17.81 96.5,-38.7 143.9,-59.92c-0.2,-2.18 -4.9,0.48 -6.8,0.61c-169.3,55.17 -346.67,97.15 -526.06,82.97c-9.6,-1.81 -22.31,1.84 -29.63,-6.65c-58.41,-51.77 -114.61,-107.4 -160.65,-170.44c182.63,28.93 370.73,2.41 544.84,-53.77c-193.99,32.6 -396.88,51.9 -588.33,-3.97c-33.05,-47.05 -63.91,-96.13 -90.17,-147.29c114.84,24.36 233.5,32.44 350.34,19.6c63.78,-6.23 126.72,-18.72 189.55,-31.03c-67.27,1.7 -135.95,10.57 -203.93,9.15c-122.99,2.14 -246.87,-14.23 -363.54,-53.9c-4.65,-1.55 -5.26,-7.51 -7.81,-11.09c-33.39,-69.47 -63.48,-140.7 -88.8,-213.5c173.14,59.19 363.05,66.1 541.29,42.09c-184.55,-0.34 -374.05,-17.5 -544.96,-92.29c-6.3,-3.93 -17.24,-3.85 -18.26,-13.1c-13.23,-39.52 -25.42,-79.42 -36.52,-119.6l0.02,0zm4612.2,1637c48.6,0.2 96.9,8.7 143.5,22.2c87.2,32.5 166,83.9 238.7,141.4c147,119.2 270.8,265.6 372.8,424.7c49.3,78.3 93.7,160 127.4,246.3c27,72.1 50,149 42.1,226.8c-4.6,48.1 -37.7,98.1 -89,103.4c-84,19.2 -166.1,-24.4 -227.1,-78.6c-132.2,-115.3 -220.4,-272.6 -353.1,-386.9c104.4,104.9 155,247.6 241.8,365.4c-11,38.1 -55.9,52.9 -91.7,44.4c-54,-10.2 -103.1,-36.9 -149,-66c-79,-50.3 -152.1,-113.4 -215.1,-180.5c7.4,80.1 46.4,154.1 52.4,234.6c0.5,11.9 -1.5,29.3 -15.7,32.2c-24.4,1.3 -43.9,-16.3 -62.9,-28.7c-71.4,-55.1 -132.8,-121.4 -195,-186.2c20.3,46.5 41.6,94.4 44,145.9c4.7,42.1 -14.5,87.1 -51.6,109c-53.2,32.4 -118.1,33.3 -178.5,35c-277.6,-9.3 -545.4,-98.6 -822.5,-112.4c150.3,-79.2 307.7,-155.7 436.9,-269.3c52.2,-45 88.1,-106.3 102.7,-173.6c13.4,-53.5 42.3,-102.9 82.4,-140.6c113.5,-9.2 227.7,2.8 338.6,27.2c-84.5,-82.2 -170.8,-170.9 -219.5,-281.2c-7.6,-12.2 -7,-26.8 -6.2,-40.7c68.9,-52.9 137.4,-107.3 214,-149.1c71.5,-40.1 152.5,-64.7 234.9,-64.7l4.7,0zm-755.1,57.7c-4.7,0 -9.4,0.3 -14.1,1.1c-49.6,4.9 -88.6,55.2 -82,104.4c2.9,41.6 37,77.4 77.7,84.9c34.7,6.5 72.4,-8 93.5,-36.3c24.2,-30 26.5,-74.7 6.3,-107.4c-16.4,-28.5 -48.7,-46.7 -81.4,-46.7zm21.6,25.4c27.5,-0.1 48.3,33.4 33.9,57.9c-13.4,29.3 -61.7,26.8 -71.4,-4.3c-10.1,-22.9 7.4,-50.8 31.9,-53.1c1.9,-0.3 3.8,-0.5 5.6,-0.5zm-2072.5,2026.6c19.3,9.6 37.7,22.6 58.5,29.7c-7.5,10.8 -14.7,22 -23.3,31.9c-20.3,3 -41,1.5 -61.4,3.3c13.1,-19.1 23.4,-41.3 26.2,-64.9zm63.6,31.1c12.6,4.4 25.9,7.4 39.4,6.8c-11.6,19.3 -33.5,31.6 -44,51.6c15.6,17.9 44.6,18.2 65.7,22.5c-41.3,62.7 -74.5,130.9 -103.7,200.1c-8.5,23.3 -20,46.5 -20.5,71.8c-0.8,4.9 11.7,7.4 4.3,10.8c-33.6,6.4 -68.2,3.7 -102.1,7.4c-23.6,-17.7 -47,-36.5 -70.1,-55.1c12.9,-28.1 26.3,-56.4 43.9,-81.9c45.9,-46 87.5,-100 103.3,-164.2c19.6,-9.3 41.8,-14.5 62.1,-22.8c9,-14.8 13.9,-31.6 21.7,-47zm-101.2,44.1c-4.7,26.9 -15.5,52.6 -28,76.8c-24.5,-4.7 -49,-10.4 -73.3,-16.1c4.2,-13.3 7.2,-27.1 12.6,-39.9c30.9,6.5 63.4,-2.6 88.7,-20.8zm-127.3,8.6c8.4,3.8 16.6,7.8 25.8,9.6c-8.3,18.2 -23.9,33.7 -30.8,52.2c21.5,8.4 44.1,16.1 66,21.6c-44.8,66.1 -79.5,138.9 -109.8,212.7c-7.5,20.7 -17.6,41.5 -16.3,64c2.3,2.9 10.1,6.2 3,9.1c-33.4,5.4 -67.7,3.9 -101.4,7.6c-32,-25.8 -65.6,-50.9 -96.7,-77.2c73.8,-58.7 150.2,-129.1 174,-224.6c20.2,-9.4 42.6,-14.2 63.1,-23.2c8.1,-17.1 15.2,-34.6 23.1,-51.8zm301.4,17.5c11.5,3.4 -3.6,14.5 -10.6,9c3.3,-3.3 6.3,-7.1 10.6,-9zm-230.2,58.1c4.2,0.2 5.1,9.8 -0.9,7.4c-5.5,-0.6 -6.6,-4.8 -1.1,-6.8c0.7,-0.4 1.4,-0.6 2,-0.6z"
                  id="svg_507"/>
            <path d="m31335.282236,320.152664c346.31,54.32 699.66,13.63 1045.9,69.09c94.9,16.01 189.2,39.9 277.2,79.83c166.4,76.95 302.7,212.51 390,372.92c95.3,169.82 139.2,361.05 200.9,544.15c30.6,87.3 66.1,175.1 126.7,246.3c52.7,63.3 128.6,105.5 209.3,120.7c36.9,8.5 75.5,4.7 112.1,-4.1c121.7,-31.1 221.3,-112.5 323,-182c36.4,-23.7 73.1,-52.6 117.2,-58.9c81.4,0.9 165.8,2.4 242.9,31.9c33,12.9 63.8,36.8 75.4,71.5c17.7,51.8 6.5,107.7 5.4,161c-25.7,-1.7 -49.3,14.3 -60.9,36.5c-25.1,47.8 -27.2,103.8 -30.1,156.5c-29.8,27.1 -57.9,58 -72.1,96.3c-15.6,39.2 -17.1,82.8 -34.6,121.4c-18.8,41.1 -51.9,73.6 -87.6,100.4c-110.4,79.4 -238.2,129.5 -364,179c-49.7,15.9 -95.5,43.5 -131.3,81.8c-95.9,104.8 -135.6,247.2 -228.1,354.8c-66.7,82.4 -162.4,137.9 -264.6,163.4c-113.6,29.4 -226.8,60.6 -341.5,85.5c29.2,-77.7 55.1,-156.7 84.9,-234.1c-54.4,86.5 -81.7,186.6 -129.4,276.6c-18,34.2 -37.7,73.6 -75.9,89.1c-36.7,13.2 -71.2,-13.3 -95,-38.4c-6.9,-3.7 -1.5,-11 -0.7,-16.4c13.5,-54.3 27.7,-108.6 41,-163c0.3,-2.2 -1.7,0.7 -1.6,1.5c-25,66.9 -35.7,139.1 -69.2,202.8c-9.2,17.3 -22.3,32.2 -37.9,44.1c-16.1,18.6 -46.7,21.1 -65.3,4.7c-26.3,-22.8 -34.6,-58.7 -39.4,-91.7c-4.1,-71.8 10.2,-143.1 28.5,-212.2c37.9,-135.4 97.2,-264.5 170.9,-384c-70.2,94.8 -134,196.7 -174.6,308.3c-33.1,89 -49.3,183.7 -52.6,278.4c-42.2,-0.4 -85.4,2.6 -126.9,-4.5c44.2,-43.9 88.7,-87.7 132,-132.4c-55.9,41.6 -110.6,85.3 -166.5,127.1c-34.3,-5.9 -68.2,-16.9 -98.5,-34c46,-47.2 94.7,-92.2 140,-140.1c-55.2,40.9 -108.9,84 -163.9,125.1c-23.5,-17.1 -43.3,-39.3 -56.9,-65c48,-50 98.8,-98 146.8,-148.1c-53.4,39.6 -105.4,81.5 -158.9,121.1c-13.6,-35.2 -16.8,-73.6 -17.1,-111c0.3,-3.3 -1.1,-8.5 2.8,-10.3c135.5,-101.2 265.6,-210.1 384.1,-330.9c112.5,-116.5 216.2,-244.4 287.2,-390.8c39.6,-83.7 68.8,-174.4 68.7,-267.7c-1.2,-17.8 -1.1,-36.1 -6.4,-53.4c-50.7,-81.8 -105.5,-161.5 -150.3,-246.9c-105.3,-192.3 -163.5,-406.8 -193.6,-623.05c-44.9,-67.26 -98.3,-128.81 -156.9,-184.49c-152.2,-144.24 -336.32,-249.61 -524.62,-339.34c-142.59,-67.94 -289.33,-126.59 -435.98,-185.01m2910.7,1317.4c-39.7,3.9 -70.9,44.1 -65.6,83.5c2.3,33.3 29.6,62 62.1,67.9c27.7,5.3 57.9,-6.3 74.9,-29c19.3,-24 21.1,-59.8 5,-85.9c-15,-26.1 -46.6,-41.3 -76.4,-36.5z"
                  fill="#fcea9d" id="svg_506"/>
            <path d="m34269.982236,1657.442664c24.2,-4.1 43.9,24.9 31.6,45.9c-10.6,23.4 -49.4,21.5 -57.1,-3.4c-8.1,-18.3 6,-40.7 25.5,-42.5z"
                  fill="#fff" id="svg_505"/>
            <path d="m34461.282236,1772.542664c17.8,68.7 62.5,131.7 120.1,174.5c-39.4,-13.6 -78.3,-29.1 -117.9,-42.2c35.2,26.5 72,51.1 107.9,76.6c-66.3,-5.7 -134.1,-19.7 -201.1,-15.9c2.9,-52.7 5,-108.7 30.1,-156.5c11.6,-22.2 35.2,-38.2 60.9,-36.5z"
                  fill="#4e2f1a" id="svg_504"/>
            <path fill="#c5cae3"
                  transform="translate(2.842170943040401e-14,2.842170943040401e-14) scale(0.800000011920929) "
                  d="m40834.227217,4128.953326c-7.8,15.4 -12.7,32.2 -21.7,47c-20.3,8.3 -42.5,13.5 -62.1,22.8c-15.8,64.2 -57.4,118.2 -103.3,164.2c-17.6,25.5 -31,53.8 -43.9,81.9c23.1,18.6 46.5,37.4 70.1,55.1c33.9,-3.7 68.5,-1 102.1,-7.4c7.4,-3.4 -5.1,-5.9 -4.3,-10.8c0.5,-25.3 12,-48.5 20.5,-71.8c29.2,-69.2 62.4,-137.4 103.7,-200.1c-21.1,-4.3 -50.1,-4.6 -65.7,-22.5c10.5,-20 32.4,-32.3 44,-51.6c-13.5,0.6 -26.8,-2.4 -39.4,-6.8zm-228.5,52.7c-7.9,17.2 -15,34.7 -23.1,51.8c-20.5,9 -42.9,13.8 -63.1,23.2c-23.8,95.5 -100.2,165.9 -174,224.6c31.1,26.3 64.7,51.4 96.7,77.2c33.7,-3.7 68,-2.2 101.4,-7.6c7.1,-2.9 -0.7,-6.2 -3,-9.1c-1.3,-22.5 8.8,-43.3 16.3,-64c30.3,-73.8 65,-146.6 109.8,-212.7c-21.9,-5.5 -44.5,-13.2 -66,-21.6c6.9,-18.5 22.5,-34 30.8,-52.2c-9.2,-1.8 -17.4,-5.8 -25.8,-9.6zm301.4,17.5c-4.3,1.9 -7.3,5.7 -10.6,9c7,5.5 22.1,-5.6 10.6,-9z"
                  id="svg_503"/>
        </g>
        <g id="svg_510"/>
        <g transform="matrix(0.02394169405990471,0,0,0.025709759449628344,-276.747377032381,5.378420453620941) "
           id="svg_517">
            <path fill="#fcd900"
                  d="m34671.343488,110.280109c41.95,120.23 87.81,239.52 145.95,353.01c82.92,163.6 188.74,319.36 332.03,435.97c138.62,115.66 312.94,181.72 490.3,207.66c3.38,0.16 7.9897,0.3509 8.6297,4.5109c78.58,224.16 168.1,445.96 290.98,649.92c93.17,153.84 207.2,297.52 350.16,408c5.78,1.89 1.1794,6.69 -0.3906,9.65c-59.69,103.81 -135.49,197.55 -218.05,283.95c-151.98,156.83 -325.71,291.02 -506.54,412.81c7.19,63.61 31.089,126.94 74.989,174.42c33.83,36.76 77.401,63.549 124.04,80.959c87.08,32.63 181.42,38.67 273.57,37.27c1.1,36.72 19.2,73.949 52,92.309c-4.34,11.26 -15.06,20.511 -21.27,31.341c-18.59,1.67 -38.539,-0.3209 -56.459,3.1391c-16.85,93.76 -93.06,161.34 -166.1,215.09c34.59,27.36 70.959,52.97 106.31,79.52c35.35,-3.46 71.37,-4.62 106.35,-9.15c4.27,-27.11 11.3,-53.82 21.45,-79.32c19.4,13.6 37.799,28.68 57.459,41.93c34.93,-3.24 71.331,-4.6397 105.39,-8.9797c15.91,-96.99 69.471,-182.19 125.04,-260.87c-22.8,-5.58 -45.881,-9.9997 -68.711,-15.38c1.89,-11.46 8.9406,-21.67 14.391,-31.72c59.84,-1.24 92.93,-60.399 117.98,-106.89c122.03,-23.23 242.88,-52.241 363.43,-82.141c66.12,-18.4 129.67,-47.229 185.21,-87.809c99.73,-71.73 160,-181.7 215.89,-288.1c43.58,-81.88 94.11,-167.41 178.78,-212.28c51.74,-6.64 104.34,-7.3591 156.41,-4.0391c223.71,9.64 443.32,60.88 666.93,71.12c49.08,0.34 99.35,-0.24 146.67,-15c31.36,-9.97 61.859,-32.551 68.339,-66.611c8.54,-46.44 -11.54,-90.98 -30.25,-132.27c34.25,46.34 69.202,92.971 111.49,132.53c24.451,22.49 50.78,44.74 82.91,55.1c12.69,3.9 28.662,3.3791 37.831,-7.5109c12.06,-17.29 8.0192,-39.89 3.7896,-59.13c-13.1,-48.89 -41.27,-92.001 -70.09,-132.89c58.54,62.91 119.73,134.41 205.92,158.06c55.22,15.43 107.73,-13.89 153.03,-41.95c64.85,69.69 163.36,98.84 256.56,93.12c28.52,0.73 60.11,-4.6103 79.68,-27.27c24.15,-28.11 28.721,-67.4 26.97,-103.07c-1.98,-60.21 -18.96,-118.76 -38.77,-175.27c-40.33,-111.82 -98.02,-216.65 -163.26,-315.75c-92.95,-138.21 -203.89,-266.6 -339.44,-364.58c-36.3,-25.06 -73.599,-49.291 -114.04,-67.141c-59.18,-10.61 -120.39,-7.5888 -178.96,5.3312c-122.4,27.54 -228.82,98.349 -330.89,168.09c-4.2296,-58.43 -16.821,-118.91 -52.761,-166.61c-23.19,-31.29 -56.239,-54.671 -92.489,-68.511c-68.13,-26.42 -142.99,-26.369 -214.8,-21.069c-33.13,6.16 -62.271,24.429 -90.911,41.239c-100.7,62.31 -196.74,135.31 -309.15,175.86c-49.76,17.5 -103.22,28.609 -156.02,20.869c-79.17,-15.57 -154.58,-54.879 -208.28,-115.74c-48.62,-53.49 -81.039,-119.23 -106.84,-186.17c-38.95,-103.55 -63.54,-211.65 -94.25,-317.76c-42.2,-151.17 -97.7,-302.89 -196.2,-427.42c-67.5,-85.43 -153.6,-156.01 -250.6,-205.47c-103.08,-49.9 -217.4,-70.39 -330.31,-83.67c-161.11,-18.06 -323.38,-20.149 -485.16,-27.889c-284.92,-11.52 -574.24,-33.68 -845.68,-127.23l-0.1867,-0.1175zm2624.1,2344.3c-1.1562,1.1533 -2.3032,2.3167 -3.4407,3.4907c1.1371,-1.174 2.283,-2.3374 3.4392,-3.4907l0.0015,0zm-1071,740.9c15.39,7.7 30.13,18.081 46.8,23.791c-6.03,8.63 -11.741,17.629 -18.691,25.559c-16.23,2.4 -32.76,1.1403 -49.07,2.5703c10.45,-15.25 18.661,-33.03 20.961,-51.92l0,-0.0003zm-30.111,60.17c-3.78,21.58 -12.39,42.07 -22.35,61.48c-19.6,-3.8 -39.27,-8.3691 -58.65,-12.939c3.33,-10.6 5.7503,-21.63 10.07,-31.87c24.72,5.21 50.7,-2.0703 70.93,-16.67l0,-0.001zm-44.894,67.406c3.4036,0.1 4.0969,7.8269 -0.7156,5.8844c-4.42,-0.47 -5.3,-3.8209 -0.9,-5.4109c0.5887,-0.3476 1.1295,-0.4876 1.6156,-0.4735z"
                  id="svg_511"/>
            <path fill="#1f1b17"
                  transform="translate(2.842170943040401e-14,2.842170943040401e-14) scale(0.800000011920929) "
                  d="m43339.178214,137.849384c52.438,150.29 109.76,299.4 182.44,441.26c103.65,204.5 235.92,399.2 415.04,545c173.27,144.5 391.16,227.1 612.86,259.5c4.2,0.2 10,0.5 10.8,5.7c98.2,280.2 210.1,557.4 363.7,812.4c116.5,192.3 259,371.9 437.7,510c7.2,2.3 1.5,8.3 -0.5,12c-74.6,129.8 -169.3,247 -272.5,355c-190,196 -407.2,363.8 -633.2,516c9,79.5 38.9,158.7 93.7,218c42.3,46 96.8,79.5 155.1,101.2c108.8,40.8 226.8,48.4 342,46.6c1.3,45.9 24,92.4 65,115.4c-5.5,14.1 -18.9,25.6 -26.6,39.2c-23.3,2.1 -48.2,-0.4 -70.6,3.9c-21.1,117.2 -116.3,201.7 -207.6,268.8c43.2,34.2 88.7,66.3 132.8,99.5c44.2,-4.4 89.3,-5.8 133,-11.5c5.3,-33.9 14.1,-67.3 26.8,-99.1c24.2,17 47.2,35.8 71.8,52.4c43.7,-4.1 89.2,-5.8 131.8,-11.3c19.8,-121.2 86.8,-227.7 156.3,-326c-28.5,-7 -57.4,-12.5 -85.9,-19.3c2.3,-14.3 11.2,-27.1 18,-39.6c74.8,-1.6 116.1,-75.5 147.4,-133.6c152.6,-29.1 303.6,-65.3 454.3,-102.7c82.7,-23 162.1,-59 231.5,-109.8c124.7,-89.6 200,-227.1 269.9,-360.1c54.5,-102.3 117.6,-209.3 223.5,-265.3c64.6,-8.3 130.4,-9.2 195.5,-5.1c279.6,12.1 554.1,76.1 833.7,88.9c61.3,0.4 124.1,-0.3 183.3,-18.7c39.2,-12.5 77.3,-40.7 85.4,-83.3c10.7,-58.1 -14.4,-113.7 -37.8,-165.3c42.8,57.9 86.5,116.2 139.4,165.6c30.5,28.1 63.4,56 103.6,68.9c15.9,4.9 35.8,4.2 47.3,-9.4c15.1,-21.6 10,-49.8 4.7,-73.9c-16.4,-61.1 -51.6,-115 -87.6,-166.1c73.2,78.6 149.7,168 257.4,197.6c69,19.3 134.7,-17.4 191.3,-52.5c81.1,87.1 204.2,123.6 320.7,116.4c35.7,0.9 75.1,-5.7 99.6,-34.1c30.2,-35.1 35.9,-84.2 33.7,-128.8c-2.5,-75.3 -23.7,-148.5 -48.5,-219.1c-50.4,-139.8 -122.5,-270.8 -204,-394.7c-116.2,-172.7 -254.9,-333.2 -424.3,-455.7c-45.4,-31.3 -92,-61.6 -142.6,-83.9c-73.9,-13.3 -150.5,-9.5 -223.7,6.6c-153,34.5 -286,123 -413.6,210.1c-5.3,-73 -21,-148.6 -65.9,-208.2c-29,-39.1 -70.3,-68.4 -115.6,-85.7c-85.2,-33 -178.8,-32.9 -268.5,-26.3c-41.5,7.7 -77.9,30.5 -113.7,51.6c-125.9,77.8 -245.9,169.1 -386.4,219.8c-62.2,21.9 -129.1,35.7 -195.1,26.1c-98.9,-19.5 -193.2,-68.6 -260.3,-144.7c-60.8,-66.9 -101.3,-149 -133.5,-232.7c-48.7,-129.4 -79.5,-264.6 -117.9,-397.2c-53,-189.12 -122.3,-378.78 -245.5,-534.44c-84.3,-106.78 -192,-195.01 -313.2,-256.84c-128.9,-62.37 -271.7,-87.98 -412.9,-104.58c-201.4,-22.58 -404.2,-25.19 -606.4,-34.86c-356.19,-14.4 -717.84,-42.1 -1057.1,-159.04l-0.04,0zm135.1,109.87c66.78,21.87 135.68,36.59 204.72,49.03c432.88,67.9 874.52,17.04 1307.3,86.36c118.7,20.01 236.6,49.87 346.5,99.79c208.1,96.18 378.5,265.63 487.6,466.15c119.1,212.26 174,451.36 251.1,680.16c38.2,109.1 82.6,218.9 158.4,307.8c65.8,79.3 160.7,132 261.6,150.9c46.1,10.7 94.4,5.9 140,-5.1c152.2,-38.8 276.7,-140.6 403.8,-227.4c45.6,-29.6 91.4,-65.7 146.6,-73.7c101.8,1.2 207.2,3 303.5,39.8c41.3,16.2 79.8,46.1 94.3,89.5c22.1,64.8 8.1,134.6 6.7,201.2c22.3,86 78.1,164.6 150.2,218.2c-49.3,-17 -97.8,-36.4 -147.3,-52.7c44,33 89.9,63.8 134.9,95.7c-83,-7.1 -167.7,-24.7 -251.5,-19.9c-37.2,33.9 -72.3,72.4 -90.2,120.3c-19.5,49.1 -21.2,103.5 -43.2,151.8c-23.4,51.4 -64.8,92.1 -109.5,125.5c-138,99.3 -297.7,161.9 -454.9,223.8c-62.2,19.8 -119.4,54.3 -164.1,102.1c-119.9,131.2 -169.6,309.2 -285.1,443.7c-83.4,102.9 -203.1,172.3 -330.9,204.1c-142,36.7 -283.5,75.8 -426.8,106.9c36.4,-97.1 68.8,-195.8 106.1,-292.6c-68,108.1 -102.1,233.3 -161.8,345.7c-22.4,42.8 -47.1,92 -94.8,111.4c-45.9,16.5 -89,-16.6 -118.8,-48c-8.6,-4.6 -1.8,-13.7 -0.9,-20.4c16.9,-68 34.7,-135.8 51.3,-203.8c0.4,-2.8 -2.1,0.8 -2.1,1.9c-31.1,83.6 -44.5,173.9 -86.4,253.4c-11.5,21.7 -27.9,40.3 -47.4,55.1c-20.1,23.3 -58.4,26.4 -81.6,6c-32.8,-28.5 -43.3,-73.5 -49.2,-114.6c-5.1,-89.8 12.7,-179 35.6,-265.3c47.4,-169.2 121.5,-330.7 213.7,-480c-87.9,118.4 -167.6,245.9 -218.4,385.3c-41.3,111.3 -61.6,229.7 -65.8,348.1c-52.6,-0.5 -106.7,3.3 -158.5,-5.7c55.2,-54.9 110.9,-109.6 165,-165.5c-69.9,52 -138.3,106.7 -208.1,158.8c-42.9,-7.3 -85.3,-21 -123.2,-42.4c57.6,-59.1 118.3,-115.2 175,-175.2c-68.9,51.2 -136.1,105 -204.9,156.5c-29.3,-21.4 -54.1,-49.2 -71.1,-81.3c60,-62.4 123.5,-122.5 183.5,-185.2c-66.8,49.6 -131.8,102 -198.6,151.5c-17,-44.1 -21.1,-92 -21.4,-138.8c0.4,-4.1 -1.3,-10.6 3.6,-12.8c169.3,-126.6 332,-262.7 480,-413.7c140.6,-145.6 270.3,-305.5 359,-488.5c49.6,-104.6 86,-218 86,-334.6c-1.5,-22.3 -1.5,-45.2 -8.1,-66.8c-7.1,125.8 -43.3,248.7 -96.7,362.5c-36.8,-21.8 -72.5,-45.9 -105.9,-72.7c46,-94.4 96,-187.7 142.2,-282.2c-58.8,85 -115,172.4 -173.7,257.7c-34.8,-29.6 -69,-60.3 -100,-93.9c59.7,-86.9 120.4,-173.1 180.2,-259.9c-0.9,0.3 6.2,-8.6 2.2,-5.2c-70.8,78.3 -139.6,158.7 -211,236.3c-40.4,-46.6 -80.2,-93.9 -114.9,-144.8c75.1,-79.1 151.1,-157.4 225.8,-236.6c-83.5,66.7 -164.9,136.2 -248.6,202.7c-31.7,-45.4 -61.6,-93.2 -87.4,-142.4c81.9,-69.3 168.8,-134.8 251.1,-204c-90.5,54.4 -179.4,111.7 -269.4,166.8c-4,2.4 -4.8,-4.8 -6.7,-6.7c-35.8,-70 -72.7,-140.2 -101.2,-213.3c98.8,-43.6 199.3,-85.1 297.3,-129.3c-105,30.2 -209.4,62.4 -314.5,92.3c-24.9,-60.3 -49.3,-120.7 -71.6,-182c99.8,-38 202.2,-73.1 300.9,-111.6c-104.9,24.2 -209.6,49.3 -314.5,73.9c-22.6,-60.7 -44.2,-122 -63.9,-183.6c75,7.1 152.3,15.8 226.3,16.2c-88.6,-7.5 -180.7,-17.8 -266,-36.1c174.8,-23.2 340,-95.2 486.9,-190.4c-190.3,84.9 -391.1,159.4 -601.8,164.8c-52.4,-13.8 -106.4,-28.9 -155.5,-49.7c167.5,-19.4 327,-83.7 471.1,-168.9c-69.9,27.3 -139.5,55.9 -211.6,77.2c-116.2,35.3 -238.1,55.2 -359.66,49.6c-69.75,-31.6 -135.54,-71.9 -197.4,-116.9c119.47,-4.8 239.59,-27.75 352.06,-70.16c48.9,-17.81 96.5,-38.7 143.9,-59.92c-0.2,-2.18 -4.9,0.48 -6.8,0.61c-169.3,55.17 -346.67,97.15 -526.06,82.97c-9.6,-1.81 -22.31,1.84 -29.63,-6.65c-58.41,-51.77 -114.61,-107.4 -160.65,-170.44c182.63,28.93 370.73,2.41 544.84,-53.77c-193.99,32.6 -396.88,51.9 -588.33,-3.97c-33.05,-47.05 -63.91,-96.13 -90.17,-147.29c114.84,24.36 233.5,32.44 350.34,19.6c63.78,-6.23 126.72,-18.72 189.55,-31.03c-67.27,1.7 -135.95,10.57 -203.93,9.15c-122.99,2.14 -246.87,-14.23 -363.54,-53.9c-4.65,-1.55 -5.26,-7.51 -7.81,-11.09c-33.39,-69.47 -63.48,-140.7 -88.8,-213.5c173.14,59.19 363.05,66.1 541.29,42.09c-184.55,-0.34 -374.05,-17.5 -544.96,-92.29c-6.3,-3.93 -17.24,-3.85 -18.26,-13.1c-13.23,-39.52 -25.42,-79.42 -36.52,-119.6l0.02,0zm4612.2,1637c48.6,0.2 96.9,8.7 143.5,22.2c87.2,32.5 166,83.9 238.7,141.4c147,119.2 270.8,265.6 372.8,424.7c49.3,78.3 93.7,160 127.4,246.3c27,72.1 50,149 42.1,226.8c-4.6,48.1 -37.7,98.1 -89,103.4c-84,19.2 -166.1,-24.4 -227.1,-78.6c-132.2,-115.3 -220.4,-272.6 -353.1,-386.9c104.4,104.9 155,247.6 241.8,365.4c-11,38.1 -55.9,52.9 -91.7,44.4c-54,-10.2 -103.1,-36.9 -149,-66c-79,-50.3 -152.1,-113.4 -215.1,-180.5c7.4,80.1 46.4,154.1 52.4,234.6c0.5,11.9 -1.5,29.3 -15.7,32.2c-24.4,1.3 -43.9,-16.3 -62.9,-28.7c-71.4,-55.1 -132.8,-121.4 -195,-186.2c20.3,46.5 41.6,94.4 44,145.9c4.7,42.1 -14.5,87.1 -51.6,109c-53.2,32.4 -118.1,33.3 -178.5,35c-277.6,-9.3 -545.4,-98.6 -822.5,-112.4c150.3,-79.2 307.7,-155.7 436.9,-269.3c52.2,-45 88.1,-106.3 102.7,-173.6c13.4,-53.5 42.3,-102.9 82.4,-140.6c113.5,-9.2 227.7,2.8 338.6,27.2c-84.5,-82.2 -170.8,-170.9 -219.5,-281.2c-7.6,-12.2 -7,-26.8 -6.2,-40.7c68.9,-52.9 137.4,-107.3 214,-149.1c71.5,-40.1 152.5,-64.7 234.9,-64.7l4.7,0zm-755.1,57.7c-4.7,0 -9.4,0.3 -14.1,1.1c-49.6,4.9 -88.6,55.2 -82,104.4c2.9,41.6 37,77.4 77.7,84.9c34.7,6.5 72.4,-8 93.5,-36.3c24.2,-30 26.5,-74.7 6.3,-107.4c-16.4,-28.5 -48.7,-46.7 -81.4,-46.7zm21.6,25.4c27.5,-0.1 48.3,33.4 33.9,57.9c-13.4,29.3 -61.7,26.8 -71.4,-4.3c-10.1,-22.9 7.4,-50.8 31.9,-53.1c1.9,-0.3 3.8,-0.5 5.6,-0.5zm-2072.5,2026.6c19.3,9.6 37.7,22.6 58.5,29.7c-7.5,10.8 -14.7,22 -23.3,31.9c-20.3,3 -41,1.5 -61.4,3.3c13.1,-19.1 23.4,-41.3 26.2,-64.9zm63.6,31.1c12.6,4.4 25.9,7.4 39.4,6.8c-11.6,19.3 -33.5,31.6 -44,51.6c15.6,17.9 44.6,18.2 65.7,22.5c-41.3,62.7 -74.5,130.9 -103.7,200.1c-8.5,23.3 -20,46.5 -20.5,71.8c-0.8,4.9 11.7,7.4 4.3,10.8c-33.6,6.4 -68.2,3.7 -102.1,7.4c-23.6,-17.7 -47,-36.5 -70.1,-55.1c12.9,-28.1 26.3,-56.4 43.9,-81.9c45.9,-46 87.5,-100 103.3,-164.2c19.6,-9.3 41.8,-14.5 62.1,-22.8c9,-14.8 13.9,-31.6 21.7,-47zm-101.2,44.1c-4.7,26.9 -15.5,52.6 -28,76.8c-24.5,-4.7 -49,-10.4 -73.3,-16.1c4.2,-13.3 7.2,-27.1 12.6,-39.9c30.9,6.5 63.4,-2.6 88.7,-20.8zm-127.3,8.6c8.4,3.8 16.6,7.8 25.8,9.6c-8.3,18.2 -23.9,33.7 -30.8,52.2c21.5,8.4 44.1,16.1 66,21.6c-44.8,66.1 -79.5,138.9 -109.8,212.7c-7.5,20.7 -17.6,41.5 -16.3,64c2.3,2.9 10.1,6.2 3,9.1c-33.4,5.4 -67.7,3.9 -101.4,7.6c-32,-25.8 -65.6,-50.9 -96.7,-77.2c73.8,-58.7 150.2,-129.1 174,-224.6c20.2,-9.4 42.6,-14.2 63.1,-23.2c8.1,-17.1 15.2,-34.6 23.1,-51.8zm301.4,17.5c11.5,3.4 -3.6,14.5 -10.6,9c3.3,-3.3 6.3,-7.1 10.6,-9zm-230.2,58.1c4.2,0.2 5.1,9.8 -0.9,7.4c-5.5,-0.6 -6.6,-4.8 -1.1,-6.8c0.7,-0.4 1.4,-0.6 2,-0.6z"
                  id="svg_512"/>
            <path d="m34943.193488,237.399109c346.31,54.32 699.66,13.63 1045.9,69.09c94.9,16.01 189.2,39.9 277.2,79.83c166.4,76.95 302.7,212.51 390,372.92c95.3,169.82 139.2,361.05 200.9,544.15c30.6,87.3 66.1,175.1 126.7,246.3c52.7,63.3 128.6,105.5 209.3,120.7c36.9,8.5 75.5,4.7 112.1,-4.1c121.7,-31.1 221.3,-112.5 323,-182c36.4,-23.7 73.1,-52.6 117.2,-58.9c81.4,0.9 165.8,2.4 242.9,31.9c33,12.9 63.8,36.8 75.4,71.5c17.7,51.8 6.5,107.7 5.4,161c-25.7,-1.7 -49.3,14.3 -60.9,36.5c-25.1,47.8 -27.2,103.8 -30.1,156.5c-29.8,27.1 -57.9,58 -72.1,96.3c-15.6,39.2 -17.1,82.8 -34.6,121.4c-18.8,41.1 -51.9,73.6 -87.6,100.4c-110.4,79.4 -238.2,129.5 -364,179c-49.7,15.9 -95.5,43.5 -131.3,81.8c-95.9,104.8 -135.6,247.2 -228.1,354.8c-66.7,82.4 -162.4,137.9 -264.6,163.4c-113.6,29.4 -226.8,60.6 -341.5,85.5c29.2,-77.7 55.1,-156.7 84.9,-234.1c-54.4,86.5 -81.7,186.6 -129.4,276.6c-18,34.2 -37.7,73.6 -75.9,89.1c-36.7,13.2 -71.2,-13.3 -95,-38.4c-6.9,-3.7 -1.5,-11 -0.7,-16.4c13.5,-54.3 27.7,-108.6 41,-163c0.3,-2.2 -1.7,0.7 -1.6,1.5c-25,66.9 -35.7,139.1 -69.2,202.8c-9.2,17.3 -22.3,32.2 -37.9,44.1c-16.1,18.6 -46.7,21.1 -65.3,4.7c-26.3,-22.8 -34.6,-58.7 -39.4,-91.7c-4.1,-71.8 10.2,-143.1 28.5,-212.2c37.9,-135.4 97.2,-264.5 170.9,-384c-70.2,94.8 -134,196.7 -174.6,308.3c-33.1,89 -49.3,183.7 -52.6,278.4c-42.2,-0.4 -85.4,2.6 -126.9,-4.5c44.2,-43.9 88.7,-87.7 132,-132.4c-55.9,41.6 -110.6,85.3 -166.5,127.1c-34.3,-5.9 -68.2,-16.9 -98.5,-34c46,-47.2 94.7,-92.2 140,-140.1c-55.2,40.9 -108.9,84 -163.9,125.1c-23.5,-17.1 -43.3,-39.3 -56.9,-65c48,-50 98.8,-98 146.8,-148.1c-53.4,39.6 -105.4,81.5 -158.9,121.1c-13.6,-35.2 -16.8,-73.6 -17.1,-111c0.3,-3.3 -1.1,-8.5 2.8,-10.3c135.5,-101.2 265.6,-210.1 384.1,-330.9c112.5,-116.5 216.2,-244.4 287.2,-390.8c39.6,-83.7 68.8,-174.4 68.7,-267.7c-1.2,-17.8 -1.1,-36.1 -6.4,-53.4c-50.7,-81.8 -105.5,-161.5 -150.3,-246.9c-105.3,-192.3 -163.5,-406.8 -193.6,-623.05c-44.9,-67.26 -98.3,-128.81 -156.9,-184.49c-152.2,-144.24 -336.32,-249.61 -524.62,-339.34c-142.59,-67.94 -289.33,-126.59 -435.98,-185.01m2910.7,1317.4c-39.7,3.9 -70.9,44.1 -65.6,83.5c2.3,33.3 29.6,62 62.1,67.9c27.7,5.3 57.9,-6.3 74.9,-29c19.3,-24 21.1,-59.8 5,-85.9c-15,-26.1 -46.6,-41.3 -76.4,-36.5z"
                  fill="#fcea9d" id="svg_513"/>
            <path d="m37877.893488,1574.689109c24.2,-4.1 43.9,24.9 31.6,45.9c-10.6,23.4 -49.4,21.5 -57.1,-3.4c-8.1,-18.3 6,-40.7 25.5,-42.5z"
                  fill="#fff" id="svg_514"/>
            <path d="m38069.193488,1689.789109c17.8,68.7 62.5,131.7 120.1,174.5c-39.4,-13.6 -78.3,-29.1 -117.9,-42.2c35.2,26.5 72,51.1 107.9,76.6c-66.3,-5.7 -134.1,-19.7 -201.1,-15.9c2.9,-52.7 5,-108.7 30.1,-156.5c11.6,-22.2 35.2,-38.2 60.9,-36.5z"
                  fill="#4e2f1a" id="svg_515"/>
            <path fill="#c5cae3"
                  transform="translate(2.842170943040401e-14,2.842170943040401e-14) scale(0.800000011920929) "
                  d="m45344.116214,4025.511384c-7.8,15.4 -12.7,32.2 -21.7,47c-20.3,8.3 -42.5,13.5 -62.1,22.8c-15.8,64.2 -57.4,118.2 -103.3,164.2c-17.6,25.5 -31,53.8 -43.9,81.9c23.1,18.6 46.5,37.4 70.1,55.1c33.9,-3.7 68.5,-1 102.1,-7.4c7.4,-3.4 -5.1,-5.9 -4.3,-10.8c0.5,-25.3 12,-48.5 20.5,-71.8c29.2,-69.2 62.4,-137.4 103.7,-200.1c-21.1,-4.3 -50.1,-4.6 -65.7,-22.5c10.5,-20 32.4,-32.3 44,-51.6c-13.5,0.6 -26.8,-2.4 -39.4,-6.8zm-228.5,52.7c-7.9,17.2 -15,34.7 -23.1,51.8c-20.5,9 -42.9,13.8 -63.1,23.2c-23.8,95.5 -100.2,165.9 -174,224.6c31.1,26.3 64.7,51.4 96.7,77.2c33.7,-3.7 68,-2.2 101.4,-7.6c7.1,-2.9 -0.7,-6.2 -3,-9.1c-1.3,-22.5 8.8,-43.3 16.3,-64c30.3,-73.8 65,-146.6 109.8,-212.7c-21.9,-5.5 -44.5,-13.2 -66,-21.6c6.9,-18.5 22.5,-34 30.8,-52.2c-9.2,-1.8 -17.4,-5.8 -25.8,-9.6zm301.4,17.5c-4.3,1.9 -7.3,5.7 -10.6,9c7,5.5 22.1,-5.6 10.6,-9z"
                  id="svg_516"/>
        </g>
    </g>
</svg>
