<svg width="677.2845" height="275.6948" xmlns="http://www.w3.org/2000/svg">

    <g>
        <title>background</title>
        <rect fill="none" id="canvas_background" height="277.6948" width="679.2845" y="-1" x="-1"/>
    </g>
    <g>
        <title>Layer 1</title>
        <path id="svg_32"
              d="m476.77,206.04c-1.028,0.931 -3.085,3.204 -3.419,4.535c1.334,0.653 5.523,4.668 6.301,1.952c0.686,-2.402 -0.165,-6.372 -2.882,-6.612"
              fill="#FFFFFF"/>
        <g stroke="null" id="svg_43">
            <path stroke="null" id="svg_8"
                  d="m556.469334,154.979536c8.222805,-10.766537 2.15297,-43.38842 -2.770768,-55.279359c-4.885204,0.772508 -7.713152,5.649262 -10.731289,9.406354c3.920594,-11.91582 5.135058,-28.178777 -3.969073,-38.241525c-2.651435,3.533159 -5.096523,7.155179 -8.255124,10.294975c1.777568,-11.361321 -7.677104,-24.439458 -18.386017,-29.387302c-1.133666,3.136241 -2.160429,6.42414 -3.020622,9.681234c-0.315736,-7.364894 -3.337601,-16.796129 -10.473976,-20.287819c-4.584385,5.252345 -10.82949,16.145658 -11.165115,22.52596c-4.588114,-0.387439 -7.018285,-4.24761 -10.30865,-6.489306c-3.515358,10.697817 -15.725881,30.5745 0.471118,38.767589c-4.898877,-0.755921 -9.602595,-0.151658 -14.358521,-1.977479c4.414086,7.860152 2.62906,15.848266 9.386304,23.227378c6.867876,7.497595 17.111887,11.979801 26.520565,15.552059c-2.507241,1.561604 -6.156848,2.086483 -9.380088,1.432458c8.821957,12.707286 24.803907,23.185909 41.948113,21.268857c-2.682511,0.061611 -6.227702,0.911133 -9.099158,1.308051c6.225216,6.528405 30.894874,12.662262 33.042872,0.03673"
                  fill="#5BBA47"/>
            <path stroke="null" id="svg_9"
                  d="m120.443145,174.09082c-9.204818,-8.945455 -15.958332,-12.325771 -28.62257,-10.541419c-12.562308,1.767764 -18.190858,3.379131 -31.092519,-2.505912c2.492324,9.360145 5.164891,16.071014 13.981876,21.5935c6.26748,3.924152 18.574962,0.741703 19.785697,7.983375c4.48494,-0.937199 9.163797,-2.368472 12.896689,-4.563959c0.707298,1.934825 2.621602,2.687191 3.182219,3.632684c2.447574,-5.100687 11.464691,-13.278373 17.63397,-14.06273c-1.578679,-0.572272 -4.87153,-1.665869 -6.805723,-1.818712"
                  fill="#6CBE45"/>
            <path stroke="null" id="svg_10"
                  d="m384.082551,185.70214c-20.179745,-5.998787 -46.075054,8.510623 -53.729783,25.906276c-3.937996,8.951379 -5.504245,19.095881 -8.98604,28.246312c-3.540219,9.303274 -8.323492,17.47859 -13.485897,25.729736c9.680908,2.792641 21.563265,-1.304496 29.548646,-5.850683c-0.601638,3.642163 -1.466804,7.131483 -1.050381,10.561561c4.18785,-1.617291 9.141422,-7.125559 12.483995,-10.369619c1.58738,-1.541462 4.200281,-5.925327 6.207814,-6.651627c3.254316,-1.178904 4.560767,1.238146 7.336507,0.471562c6.31223,-1.739328 9.053165,-2.507097 13.944584,-9.04972c3.752781,-5.017749 8.183027,-10.809191 10.973684,-16.293762c11.606399,8.672945 16.78745,-27.038972 18.156052,-33.541311c-1.21695,4.869645 -3.60983,9.864882 -3.064129,14.864859c1.522742,-7.900437 5.000808,-16.020066 5.611148,-23.925242c-8.647929,0.561609 -21.83425,0.163506 -30.659937,-1.34715"
                  fill="#67BD45"/>
            <path stroke="null" id="svg_11"
                  d="m97.45907,103.321013c-9.892227,-14.536661 -26.956878,-33.239179 -45.524381,-34.195336c2.135567,2.562784 2.477407,5.31751 3.299066,8.382662c-8.949992,-0.266586 -20.265516,1.629139 -29.452931,4.303297c1.832262,1.816342 2.605442,5.143341 4.415329,6.94191c-8.422937,5.776039 -17.003741,8.165838 -26.199857,11.862503c4.860343,6.73338 14.665556,8.591192 20.222009,14.5414c-3.13374,2.215629 -6.808209,4.171781 -9.656047,6.523666c11.315524,8.855408 25.780948,3.760646 38.569492,6.558026c-0.220021,4.683627 -2.298408,8.265364 -5.067933,12.225061c12.64062,2.129137 23.082277,-5.059218 34.43385,-9.60422c3.376136,4.872015 -0.765722,10.149241 -3.287879,14.12671c6.359466,-3.927707 13.334244,-5.794996 19.851579,-9.689528c8.038833,-4.805664 9.05938,-8.60541 14.029112,-15.627888c-3.720462,-5.761821 -10.727559,-8.4265 -14.548709,-14.740452"
                  fill="#47B649"/>
            <path stroke="null" id="svg_12"
                  d="m163.52741,182.94149c-9.012144,-6.850679 -41.948113,3.543822 -48.190733,13.158706c0.991957,0.027251 2.016234,-0.210899 2.863997,-0.150473c-6.820639,9.452562 -16.60845,15.829309 -18.366129,27.778305c9.19363,-4.201402 6.997153,8.866072 7.204743,14.095905c0.275958,6.937171 0.945964,15.749926 3.941725,21.875489c5.341405,-2.527239 8.624311,-7.389775 12.684127,-11.599471c2.312081,2.818707 3.547677,6.734565 3.04424,10.446633c16.863276,-4.255904 20.746578,-16.709637 29.205563,-29.320951c0.519597,2.381505 3.046726,4.685997 3.865899,6.311582c13.075689,-14.424102 15.089437,-35.431112 6.815667,-52.572026c-1.248027,0.607817 -1.33504,-0.082938 -2.139297,-0.383884"
                  fill="#149C48"/>
            <path stroke="null" id="svg_13"
                  d="m642.403992,188.841936c-20.048524,0.008294 -46.16026,-4.69666 -64.191455,-12.659893c-7.989468,-3.528419 -34.564054,-26.284236 -41.523025,-33.871878c0.299418,12.29615 27.888282,25.658646 25.813566,37.217833c-18.31689,0.571087 -62.64571,-1.197862 -82.079179,-1.197862c-20.455233,0 -40.702121,-2.414681 -60.59345,-5.896892c-24.791802,-4.338842 -53.229017,-1.747622 -78.934044,-1.747622l-83.851983,0c-17.847802,0 -35.921415,0.965635 -53.307614,-1.939564c-18.874556,-3.152829 -28.232613,-8.876735 -42.27656,-20.247535c-11.687279,-9.463225 -24.043257,-18.267686 -38.214457,-24.395619c-6.72817,-2.909939 -40.199348,-17.177644 -37.067936,-2.293828c30.485733,-2.443116 63.81843,25.937081 78.000858,48.947636c-10.40602,2.078189 -22.068347,0.562794 -32.878581,0.883882c-12.418357,0.369666 -23.113814,4.28671 -34.909632,6.684803c18.988085,0.021327 39.324798,0.159952 56.719731,6.411107c0,7.43006 -3.116441,16.272435 -8.628226,23.018848c9.616305,0.213269 14.163714,-7.32698 17.781681,-15.093531c5.174939,-11.108952 6.040756,-13.225056 19.339901,-13.376714c17.081791,-0.194312 35.331312,-1.62203 52.318288,-0.049763c36.329372,3.363728 74.366673,1.960891 111.402172,1.960891c19.710431,0 41.312185,2.975104 60.388848,2.054493c-11.935546,11.757053 -20.73469,14.965569 -35.685623,19.729765c9.712368,0.676537 20.982957,-3.943109 30.102727,-6.73575c9.506518,-2.911124 15.05573,-3.600694 25.007633,-4.540263c17.248966,-1.627954 35.649444,0 52.998216,0c30.782655,0 131.81873,19.975024 141.874182,23.888513c9.556421,3.715622 19.176469,5.727461 28.420997,9.342373c7.710011,3.015389 13.75451,8.132663 20.925568,11.582884c-0.981841,-9.171758 2.270586,-20.142085 -0.777239,-29.525927c-2.25811,-6.966792 -12.974776,-13.589983 -26.174115,-18.139725"
                  fill="#605921"/>
        </g>
        <g id="svg_296"/>
        <g id="svg_414">
            <path stroke="#000000" id="svg_286"
                  d="m112.686556,42.216444c6.024657,-0.985724 12.232581,1.982123 15.89079,6.736371c3.067487,4.208008 3.667105,9.830547 2.341538,14.780517c1.992799,1.412752 3.649313,3.238298 5.111884,5.183056c2.478543,3.530101 4.515824,7.563739 4.524721,11.981702c0.078289,6.981913 -4.10303,13.127561 -8.821693,17.917395c-4.046093,3.813007 -8.727391,6.924975 -13.760987,9.273631c-0.862953,0.364753 -1.725906,0.718831 -2.592418,1.072909c-3.587038,1.428765 -7.359121,2.373566 -11.195258,2.814828c-0.434145,-0.754417 -0.927007,-1.489261 -1.238382,-2.304173c1.71523,-2.590638 3.919764,-4.914384 5.465962,-7.615338c-0.679687,-0.580047 -1.36827,-1.163652 -2.145817,-1.608473c-2.243678,2.941157 -4.469563,5.923238 -6.638511,8.921333c0.250879,0.991061 0.930566,1.818429 1.375387,2.732981c-2.053294,0.088964 -4.042534,-0.270451 -6.033554,-0.690362c-2.327304,-0.633425 -4.535396,-1.702775 -6.451686,-3.168906c-0.314933,-0.225969 -0.62097,-0.469731 -0.896759,-0.741962c-0.704597,-0.725948 -1.389621,-1.471468 -1.992799,-2.284601c8.738066,-7.926713 20.703755,-11.403435 28.833306,-20.113032c2.953612,-3.3326 3.684898,-8.400002 1.757933,-12.417627c-2.030164,-4.558527 -6.622497,-7.940947 -11.666769,-8.111758c-0.037365,-0.800678 -0.032027,-1.601356 -0.042703,-2.402034c0.035586,-2.361111 -0.064054,-4.727559 0.012455,-7.08689c1.633383,-0.540903 4.569203,-0.848719 4.905487,-3.327262c-0.046261,-2.012371 -1.359373,-4.206229 -3.293456,-4.891253c1.092481,-2.620886 3.857489,-4.159967 6.551326,-4.65105m1.661852,4.517603c-3.181361,0.222411 -5.035375,4.355689 -3.010549,6.830673c1.854014,2.697395 6.535312,1.944758 7.391148,-1.233044c1.085364,-2.788139 -1.501716,-5.857405 -4.380599,-5.597629z"
                  fill="#fcea9d"/>
            <path id="svg_287"
                  d="m114.348408,46.734047c2.878882,-0.259776 5.465962,2.80949 4.380599,5.597629c-0.855836,3.177802 -5.537133,3.93044 -7.391148,1.233044c-2.024826,-2.474985 -0.170811,-6.608263 3.010549,-6.830673m-0.103199,3.035459c-1.597798,0.316713 -0.779327,3.149334 0.848719,2.547935c1.708113,-0.338064 0.862953,-3.368186 -0.848719,-2.547935z"
                  fill="#020101"/>
            <path id="svg_288"
                  d="m92.635799,48.274908c4.466004,-0.64588 9.136626,-0.37365 13.499432,-1.407414c1.934082,0.685025 3.247194,2.878882 3.293456,4.891253c-0.336285,2.478543 -3.272104,2.78636 -4.905487,3.327262c-3.165347,-3.015887 -8.309259,-4.25249 -11.8874,-6.811101z"
                  fill="#7f3f00"/>
            <path id="svg_289"
                  d="m114.24521,49.769507c1.711672,-0.82025 2.556832,2.209871 0.848719,2.547935c-1.628045,0.601398 -2.446516,-2.231223 -0.848719,-2.547935z"
                  fill="#fdfdfd"/>
            <path stroke="#000000" id="svg_290"
                  d="m103.462745,64.662118c1.74192,0.441263 0.316713,-2.015929 1.047999,-2.489219c0.010676,0.800678 0.005338,1.601356 0.042703,2.402034c5.044272,0.170811 9.636605,3.553231 11.666769,8.111758c1.926965,4.017624 1.195679,9.085027 -1.757933,12.417627c-8.129551,8.709598 -20.09524,12.18632 -28.833306,20.113032c-0.633425,0.512434 -1.158314,1.305995 -1.926965,1.574667c0.035586,-1.546198 0.252658,-3.079942 0.364753,-4.620802c0.601398,-7.821735 1.79174,-15.71642 4.663505,-23.05419c2.544377,-6.464141 7.118917,-13.782338 14.732476,-14.454908z"
                  fill="#fcd900"/>
            <path stroke="#000000" id="svg_291"
                  d="m136.030769,68.916388c6.729254,1.426986 11.629404,8.946243 9.380388,15.638132c-2.186741,6.476596 -7.876893,11.072488 -13.67736,14.260966c4.718663,-4.789834 8.899981,-10.935483 8.821693,-17.917395c-0.008896,-4.417964 -2.046177,-8.451602 -4.524721,-11.981702z"
                  fill="#fcd900"/>
            <path id="svg_292"
                  d="m99.628387,109.370201c2.168948,-2.998094 4.394833,-5.980175 6.638511,-8.921333c0.777547,0.444821 1.46613,1.028426 2.145817,1.608473c-1.546198,2.700954 -3.750732,5.0247 -5.465962,7.615338c0.311375,0.814912 0.804237,1.549757 1.238382,2.304173c2.083542,4.012287 4.142174,8.063718 6.384073,11.974585c2.66003,0.416353 5.649228,-0.428808 8.072614,1.120949c0.999958,0.37365 0.580047,2.371786 -0.656556,1.76683c-1.188562,-0.4982 -2.832621,-1.204576 -4.022962,-0.692142c1.09426,0.887863 3.638637,2.551494 1.656514,3.946453c-1.750816,0.056937 -1.857573,-2.875324 -3.816565,-2.795256c0.565812,1.222368 1.843339,2.071087 1.759712,3.576362c0.599619,1.389621 -1.985682,2.037281 -1.912731,0.466173c-0.384325,-2.240119 -2.31307,-3.663547 -3.998052,-4.957087c-1.832663,-1.163652 -4.085237,0.834484 -5.905445,-0.306037c-0.727727,-3.001653 4.357468,-1.158314 5.526458,-2.117349c-1.980344,-4.006949 -4.288076,-7.846645 -6.268419,-11.857152c-0.444821,-0.914552 -1.124508,-1.74192 -1.375387,-2.732981z"
                  fill="#782921"/>
            <path stroke="#000000" id="svg_293"
                  d="m61.733185,123.801978c7.03885,-7.400044 14.922859,-14.429998 22.33358,-21.630762c-0.112095,1.54086 -0.329168,3.074604 -0.364753,4.620802c0.768651,-0.268672 1.29354,-1.062233 1.926965,-1.574667c0.603177,0.813133 1.288202,1.558653 1.992799,2.284601c-4.960645,5.974837 -9.971111,11.926544 -14.82144,17.985008c-3.711588,-0.439483 -7.33599,-1.549757 -11.06715,-1.684982z"
                  fill="#fcd900"/>
            <path id="svg_294"
                  d="m115.380393,109.162025c0.866512,-0.354078 1.729465,-0.708155 2.592418,-1.072909c2.085321,3.684898 3.827241,7.572635 6.063802,11.170348c2.772125,0.252658 6.368059,-0.692142 8.563696,1.535523c-0.062275,3.037239 -3.683119,-0.464393 -5.202628,0.485745c0.345181,0.797119 3.490956,2.220547 1.877145,3.747173c-1.725906,0.980386 -2.044398,-2.327304 -3.921543,-2.3878c0.67257,1.329126 1.823767,2.558611 1.524847,4.181319c-0.133446,0.983944 -2.083542,0.839822 -1.887821,-0.281127c-0.366533,-2.43762 -2.647575,-3.887737 -4.453549,-5.250669c-1.768609,-0.229528 -6.284433,1.688541 -5.32184,-1.455455c1.761492,-0.405677 3.60661,-0.407456 5.409025,-0.489303c-1.462572,-3.521204 -3.713367,-6.699006 -5.243552,-10.182845z"
                  fill="#782921"/>
            <path stroke="#000000" id="svg_295"
                  d="m88.518534,108.243914c1.916289,1.46613 4.124382,2.53548 6.451686,3.168906c-2.754332,4.82542 -5.830715,9.496042 -8.736287,14.234276c-3.743615,0.22419 -7.480112,-0.270451 -11.221948,-0.12455c4.403729,-5.82004 9.029869,-11.501295 13.506549,-17.278632z"
                  fill="#fcd900"/>
        </g>
        <g id="svg_425">
            <path stroke="#000000" id="svg_415"
                  d="m160.769729,75.832114c6.024658,-0.985724 12.232582,1.982123 15.890791,6.736371c3.067486,4.208008 3.667105,9.830547 2.341538,14.780517c1.992799,1.412751 3.649313,3.238297 5.111885,5.183055c2.478543,3.530101 4.515824,7.563739 4.52472,11.981702c0.078289,6.981913 -4.10303,13.127562 -8.821693,17.917396c-4.046093,3.813007 -8.72739,6.924975 -13.760986,9.273631c-0.862953,0.364753 -1.725906,0.718831 -2.592418,1.072908c-3.587037,1.428766 -7.359121,2.373566 -11.195258,2.814829c-0.434146,-0.754417 -0.927007,-1.489262 -1.238382,-2.304174c1.71523,-2.590638 3.919764,-4.914384 5.465962,-7.615338c-0.679687,-0.580047 -1.36827,-1.163652 -2.145817,-1.608473c-2.243678,2.941157 -4.469563,5.923238 -6.638511,8.921333c0.250879,0.991061 0.930566,1.818429 1.375387,2.732981c-2.053294,0.088964 -4.042534,-0.270451 -6.033554,-0.690363c-2.327304,-0.633425 -4.535396,-1.702775 -6.451685,-3.168905c-0.314934,-0.22597 -0.620971,-0.469732 -0.89676,-0.741962c-0.704597,-0.725948 -1.389621,-1.471468 -1.992799,-2.284601c8.738067,-7.926713 20.703755,-11.403435 28.833306,-20.113033c2.953613,-3.3326 3.684899,-8.400002 1.757934,-12.417627c-2.030164,-4.558527 -6.622498,-7.940947 -11.666769,-8.111758c-0.037365,-0.800678 -0.032027,-1.601356 -0.042703,-2.402034c0.035586,-2.361111 -0.064054,-4.727559 0.012455,-7.08689c1.633383,-0.540903 4.569203,-0.848719 4.905487,-3.327262c-0.046261,-2.012371 -1.359373,-4.206229 -3.293455,-4.891254c1.09248,-2.620886 3.857489,-4.159967 6.551325,-4.651049m1.661852,4.517603c-3.181361,0.222411 -5.035375,4.355689 -3.010549,6.830673c1.854014,2.697396 6.535312,1.944758 7.391148,-1.233044c1.085363,-2.788139 -1.501716,-5.857405 -4.380599,-5.597629z"
                  fill="#fcea9d"/>
            <path id="svg_416"
                  d="m162.431581,80.349717c2.878883,-0.259776 5.465962,2.80949 4.380599,5.597629c-0.855836,3.177802 -5.537134,3.93044 -7.391148,1.233044c-2.024826,-2.474984 -0.170812,-6.608262 3.010549,-6.830673m-0.103198,3.035459c-1.597798,0.316713 -0.779327,3.149334 0.848718,2.547936c1.708114,-0.338064 0.862953,-3.368186 -0.848718,-2.547936z"
                  fill="#020101"/>
            <path id="svg_417"
                  d="m140.718972,81.890577c4.466004,-0.64588 9.136626,-0.373649 13.499432,-1.407414c1.934082,0.685025 3.247194,2.878883 3.293455,4.891254c-0.336284,2.478543 -3.272104,2.786359 -4.905487,3.327262c-3.165347,-3.015888 -8.309259,-4.25249 -11.8874,-6.811102z"
                  fill="#7f3f00"/>
            <path id="svg_418"
                  d="m162.328383,83.385176c1.711671,-0.82025 2.556832,2.209872 0.848718,2.547936c-1.628045,0.601398 -2.446516,-2.231223 -0.848718,-2.547936z"
                  fill="#fdfdfd"/>
            <path stroke="#000000" id="svg_419"
                  d="m151.545918,98.277788c1.74192,0.441263 0.316713,-2.015929 1.047999,-2.489219c0.010676,0.800678 0.005338,1.601356 0.042703,2.402034c5.044271,0.170811 9.636605,3.553231 11.666769,8.111758c1.926965,4.017625 1.195679,9.085027 -1.757934,12.417627c-8.129551,8.709598 -20.095239,12.18632 -28.833306,20.113033c-0.633425,0.512434 -1.158314,1.305994 -1.926965,1.574666c0.035586,-1.546198 0.252659,-3.079941 0.364754,-4.620802c0.601398,-7.821734 1.791739,-15.71642 4.663504,-23.054189c2.544377,-6.464141 7.118918,-13.782338 14.732476,-14.454908z"
                  fill="#fcd900"/>
            <path stroke="#000000" id="svg_420"
                  d="m184.113943,102.532057c6.729254,1.426987 11.629403,8.946243 9.380388,15.638132c-2.186741,6.476596 -7.876893,11.072488 -13.677361,14.260966c4.718663,-4.789834 8.899982,-10.935483 8.821693,-17.917396c-0.008896,-4.417963 -2.046177,-8.451601 -4.52472,-11.981702z"
                  fill="#fcd900"/>
            <path id="svg_421"
                  d="m147.71156,142.985871c2.168948,-2.998095 4.394833,-5.980176 6.638511,-8.921333c0.777547,0.444821 1.46613,1.028426 2.145817,1.608473c-1.546198,2.700954 -3.750732,5.0247 -5.465962,7.615338c0.311375,0.814912 0.804236,1.549757 1.238382,2.304174c2.083542,4.012286 4.142174,8.063717 6.384073,11.974585c2.66003,0.416352 5.649228,-0.428808 8.072614,1.120949c0.999958,0.37365 0.580047,2.371786 -0.656556,1.766829c-1.188562,-0.498199 -2.832621,-1.204575 -4.022963,-0.692141c1.09426,0.887863 3.638637,2.551494 1.656514,3.946453c-1.750816,0.056937 -1.857573,-2.875324 -3.816565,-2.795256c0.565813,1.222368 1.843339,2.071087 1.759712,3.576362c0.599619,1.389621 -1.985681,2.03728 -1.91273,0.466172c-0.384326,-2.240119 -2.31307,-3.663547 -3.998053,-4.957087c-1.832663,-1.163652 -4.085237,0.834485 -5.905445,-0.306036c-0.727728,-3.001653 4.357468,-1.158315 5.526458,-2.117349c-1.980344,-4.006949 -4.288076,-7.846645 -6.26842,-11.857152c-0.444821,-0.914552 -1.124508,-1.74192 -1.375387,-2.732981z"
                  fill="#782921"/>
            <path stroke="#000000" id="svg_422"
                  d="m109.816358,157.417648c7.03885,-7.400045 14.92286,-14.429998 22.33358,-21.630763c-0.112095,1.540861 -0.329168,3.074604 -0.364754,4.620802c0.768651,-0.268672 1.29354,-1.062232 1.926965,-1.574666c0.603178,0.813133 1.288202,1.558653 1.992799,2.284601c-4.960645,5.974837 -9.97111,11.926544 -14.82144,17.985008c-3.711588,-0.439483 -7.33599,-1.549757 -11.06715,-1.684982z"
                  fill="#fcd900"/>
            <path id="svg_423"
                  d="m163.463566,142.777694c0.866512,-0.354077 1.729465,-0.708155 2.592418,-1.072908c2.085321,3.684898 3.827241,7.572635 6.063802,11.170348c2.772125,0.252659 6.368059,-0.692141 8.563696,1.535523c-0.062275,3.037238 -3.683119,-0.464394 -5.202628,0.485744c0.345181,0.79712 3.490956,2.220548 1.877145,3.747174c-1.725906,0.980385 -2.044398,-2.327305 -3.921543,-2.3878c0.67257,1.329125 1.823767,2.558611 1.524847,4.181318c-0.133446,0.983945 -2.083542,0.839823 -1.887821,-0.281126c-0.366533,-2.43762 -2.647575,-3.887737 -4.453549,-5.250669c-1.768609,-0.229528 -6.284433,1.688541 -5.32184,-1.455455c1.761491,-0.405677 3.60661,-0.407456 5.409025,-0.489303c-1.462572,-3.521204 -3.713367,-6.699006 -5.243552,-10.182846z"
                  fill="#782921"/>
            <path stroke="#000000" id="svg_424"
                  d="m136.601708,141.859584c1.916289,1.46613 4.124381,2.53548 6.451685,3.168905c-2.754332,4.82542 -5.830715,9.496042 -8.736287,14.234277c-3.743614,0.22419 -7.480112,-0.270452 -11.221947,-0.12455c4.403729,-5.82004 9.029869,-11.501295 13.506549,-17.278632z"
                  fill="#fcd900"/>
        </g>
        <g id="svg_436">
            <path stroke="#000000" id="svg_426"
                  d="m217.788714,91.150647c6.024658,-0.985724 12.232582,1.982123 15.890791,6.736371c3.067486,4.208008 3.667105,9.830547 2.341538,14.780517c1.992799,1.412751 3.649313,3.238297 5.111885,5.183055c2.478543,3.530101 4.515824,7.563739 4.52472,11.981702c0.078289,6.981913 -4.10303,13.127562 -8.821693,17.917396c-4.046093,3.813007 -8.72739,6.924975 -13.760986,9.273631c-0.862953,0.364753 -1.725906,0.718831 -2.592418,1.072908c-3.587037,1.428766 -7.359121,2.373566 -11.195258,2.814829c-0.434146,-0.754417 -0.927007,-1.489262 -1.238382,-2.304174c1.71523,-2.590638 3.919764,-4.914384 5.465962,-7.615338c-0.679687,-0.580047 -1.36827,-1.163652 -2.145817,-1.608473c-2.243678,2.941157 -4.469563,5.923238 -6.638511,8.921333c0.250879,0.991061 0.930566,1.818429 1.375387,2.732981c-2.053294,0.088964 -4.042534,-0.270451 -6.033554,-0.690363c-2.327304,-0.633425 -4.535396,-1.702775 -6.451685,-3.168905c-0.314934,-0.22597 -0.620971,-0.469732 -0.89676,-0.741962c-0.704597,-0.725948 -1.389621,-1.471468 -1.992799,-2.284601c8.738067,-7.926713 20.703755,-11.403435 28.833306,-20.113033c2.953613,-3.3326 3.684899,-8.400002 1.757934,-12.417627c-2.030164,-4.558527 -6.622498,-7.940947 -11.666769,-8.111758c-0.037365,-0.800678 -0.032027,-1.601356 -0.042703,-2.402034c0.035586,-2.361111 -0.064054,-4.727559 0.012455,-7.08689c1.633383,-0.540903 4.569203,-0.848719 4.905487,-3.327262c-0.046261,-2.012371 -1.359373,-4.206229 -3.293455,-4.891254c1.09248,-2.620886 3.857489,-4.159967 6.551325,-4.651049m1.661852,4.517603c-3.181361,0.222411 -5.035375,4.355689 -3.010549,6.830673c1.854014,2.697396 6.535312,1.944758 7.391148,-1.233044c1.085363,-2.788139 -1.501716,-5.857405 -4.380599,-5.597629z"
                  fill="#fcea9d"/>
            <path id="svg_427"
                  d="m219.450566,95.66825c2.878883,-0.259776 5.465962,2.80949 4.380599,5.597629c-0.855836,3.177802 -5.537134,3.93044 -7.391148,1.233044c-2.024826,-2.474984 -0.170812,-6.608262 3.010549,-6.830673m-0.103198,3.035459c-1.597798,0.316713 -0.779327,3.149334 0.848718,2.547936c1.708114,-0.338064 0.862953,-3.368186 -0.848718,-2.547936z"
                  fill="#020101"/>
            <path id="svg_428"
                  d="m197.737957,97.20911c4.466004,-0.64588 9.136626,-0.373649 13.499432,-1.407414c1.934082,0.685025 3.247194,2.878883 3.293455,4.891254c-0.336284,2.478543 -3.272104,2.786359 -4.905487,3.327262c-3.165347,-3.015888 -8.309259,-4.25249 -11.8874,-6.811102z"
                  fill="#7f3f00"/>
            <path id="svg_429"
                  d="m219.347368,98.703709c1.711671,-0.82025 2.556832,2.209872 0.848718,2.547936c-1.628045,0.601398 -2.446516,-2.231223 -0.848718,-2.547936z"
                  fill="#fdfdfd"/>
            <path stroke="#000000" id="svg_430"
                  d="m208.564903,113.596321c1.74192,0.441263 0.316713,-2.015929 1.047999,-2.489219c0.010676,0.800678 0.005338,1.601356 0.042703,2.402034c5.044271,0.170811 9.636605,3.553231 11.666769,8.111758c1.926965,4.017625 1.195679,9.085027 -1.757934,12.417627c-8.129551,8.709598 -20.095239,12.18632 -28.833306,20.113033c-0.633425,0.512434 -1.158314,1.305994 -1.926965,1.574666c0.035586,-1.546198 0.252659,-3.079941 0.364754,-4.620802c0.601398,-7.821734 1.791739,-15.71642 4.663504,-23.054189c2.544377,-6.464141 7.118918,-13.782338 14.732476,-14.454908z"
                  fill="#fcd900"/>
            <path stroke="#000000" id="svg_431"
                  d="m241.132928,117.85059c6.729254,1.426987 11.629403,8.946243 9.380388,15.638132c-2.186741,6.476596 -7.876893,11.072488 -13.677361,14.260966c4.718663,-4.789834 8.899982,-10.935483 8.821693,-17.917396c-0.008896,-4.417963 -2.046177,-8.451601 -4.52472,-11.981702z"
                  fill="#fcd900"/>
            <path id="svg_432"
                  d="m204.730545,158.304404c2.168948,-2.998095 4.394833,-5.980176 6.638511,-8.921333c0.777547,0.444821 1.46613,1.028426 2.145817,1.608473c-1.546198,2.700954 -3.750732,5.0247 -5.465962,7.615338c0.311375,0.814912 0.804236,1.549757 1.238382,2.304174c2.083542,4.012286 4.142174,8.063717 6.384073,11.974585c2.66003,0.416352 5.649228,-0.428808 8.072614,1.120949c0.999958,0.37365 0.580047,2.371786 -0.656556,1.766829c-1.188562,-0.498199 -2.832621,-1.204575 -4.022963,-0.692141c1.09426,0.887863 3.638637,2.551494 1.656514,3.946453c-1.750816,0.056937 -1.857573,-2.875324 -3.816565,-2.795256c0.565813,1.222368 1.843339,2.071087 1.759712,3.576362c0.599619,1.389621 -1.985681,2.03728 -1.91273,0.466172c-0.384326,-2.240119 -2.31307,-3.663547 -3.998053,-4.957087c-1.832663,-1.163652 -4.085237,0.834485 -5.905445,-0.306036c-0.727728,-3.001653 4.357468,-1.158315 5.526458,-2.117349c-1.980344,-4.006949 -4.288076,-7.846645 -6.26842,-11.857152c-0.444821,-0.914552 -1.124508,-1.74192 -1.375387,-2.732981z"
                  fill="#782921"/>
            <path stroke="#000000" id="svg_433"
                  d="m166.835343,172.736181c7.03885,-7.400045 14.92286,-14.429998 22.33358,-21.630763c-0.112095,1.540861 -0.329168,3.074604 -0.364754,4.620802c0.768651,-0.268672 1.29354,-1.062232 1.926965,-1.574666c0.603178,0.813133 1.288202,1.558653 1.992799,2.284601c-4.960645,5.974837 -9.97111,11.926544 -14.82144,17.985008c-3.711588,-0.439483 -7.33599,-1.549757 -11.06715,-1.684982z"
                  fill="#fcd900"/>
            <path id="svg_434"
                  d="m220.482551,158.096227c0.866512,-0.354077 1.729465,-0.708155 2.592418,-1.072908c2.085321,3.684898 3.827241,7.572635 6.063802,11.170348c2.772125,0.252659 6.368059,-0.692141 8.563696,1.535523c-0.062275,3.037238 -3.683119,-0.464394 -5.202628,0.485744c0.345181,0.79712 3.490956,2.220548 1.877145,3.747174c-1.725906,0.980385 -2.044398,-2.327305 -3.921543,-2.3878c0.67257,1.329125 1.823767,2.558611 1.524847,4.181318c-0.133446,0.983945 -2.083542,0.839823 -1.887821,-0.281126c-0.366533,-2.43762 -2.647575,-3.887737 -4.453549,-5.250669c-1.768609,-0.229528 -6.284433,1.688541 -5.32184,-1.455455c1.761491,-0.405677 3.60661,-0.407456 5.409025,-0.489303c-1.462572,-3.521204 -3.713367,-6.699006 -5.243552,-10.182846z"
                  fill="#782921"/>
            <path stroke="#000000" id="svg_435"
                  d="m193.620693,157.178117c1.916289,1.46613 4.124381,2.53548 6.451685,3.168905c-2.754332,4.82542 -5.830715,9.496042 -8.736287,14.234277c-3.743614,0.22419 -7.480112,-0.270452 -11.221947,-0.12455c4.403729,-5.82004 9.029869,-11.501295 13.506549,-17.278632z"
                  fill="#fcd900"/>
        </g>
        <g id="svg_447">
            <path stroke="#000000" id="svg_437"
                  d="m285.445567,92.427191c6.024658,-0.985724 12.232582,1.982123 15.890791,6.736371c3.067486,4.208008 3.667105,9.830547 2.341538,14.780517c1.992799,1.412751 3.649313,3.238297 5.111885,5.183055c2.478543,3.530101 4.515824,7.563739 4.52472,11.981702c0.078289,6.981913 -4.10303,13.127562 -8.821693,17.917396c-4.046093,3.813007 -8.72739,6.924975 -13.760986,9.273631c-0.862953,0.364753 -1.725906,0.718831 -2.592418,1.072908c-3.587037,1.428766 -7.359121,2.373566 -11.195258,2.814829c-0.434146,-0.754417 -0.927007,-1.489262 -1.238382,-2.304174c1.71523,-2.590638 3.919764,-4.914384 5.465962,-7.615338c-0.679687,-0.580047 -1.36827,-1.163652 -2.145817,-1.608473c-2.243678,2.941157 -4.469563,5.923238 -6.638511,8.921333c0.250879,0.991061 0.930566,1.818429 1.375387,2.732981c-2.053294,0.088964 -4.042534,-0.270451 -6.033554,-0.690363c-2.327304,-0.633425 -4.535396,-1.702775 -6.451685,-3.168905c-0.314934,-0.22597 -0.620971,-0.469732 -0.89676,-0.741962c-0.704597,-0.725948 -1.389621,-1.471468 -1.992799,-2.284601c8.738067,-7.926713 20.703755,-11.403435 28.833306,-20.113033c2.953613,-3.3326 3.684899,-8.400002 1.757934,-12.417627c-2.030164,-4.558527 -6.622498,-7.940947 -11.666769,-8.111758c-0.037365,-0.800678 -0.032027,-1.601356 -0.042703,-2.402034c0.035586,-2.361111 -0.064054,-4.727559 0.012455,-7.08689c1.633383,-0.540903 4.569203,-0.848719 4.905487,-3.327262c-0.046261,-2.012371 -1.359373,-4.206229 -3.293455,-4.891254c1.09248,-2.620886 3.857489,-4.159967 6.551325,-4.651049m1.661852,4.517603c-3.181361,0.222411 -5.035375,4.355689 -3.010549,6.830673c1.854014,2.697396 6.535312,1.944758 7.391148,-1.233044c1.085363,-2.788139 -1.501716,-5.857405 -4.380599,-5.597629z"
                  fill="#fcea9d"/>
            <path id="svg_438"
                  d="m287.107419,96.944794c2.878883,-0.259776 5.465962,2.80949 4.380599,5.597629c-0.855836,3.177802 -5.537134,3.93044 -7.391148,1.233044c-2.024826,-2.474984 -0.170812,-6.608262 3.010549,-6.830673m-0.103198,3.035459c-1.597798,0.316713 -0.779327,3.149334 0.848718,2.547936c1.708114,-0.338064 0.862953,-3.368186 -0.848718,-2.547936z"
                  fill="#020101"/>
            <path id="svg_439"
                  d="m265.39481,98.485654c4.466004,-0.64588 9.136626,-0.373649 13.499432,-1.407414c1.934082,0.685025 3.247194,2.878883 3.293455,4.891254c-0.336284,2.478543 -3.272104,2.786359 -4.905487,3.327262c-3.165347,-3.015888 -8.309259,-4.25249 -11.8874,-6.811102z"
                  fill="#7f3f00"/>
            <path id="svg_440"
                  d="m287.004221,99.980253c1.711671,-0.82025 2.556832,2.209872 0.848718,2.547936c-1.628045,0.601398 -2.446516,-2.231223 -0.848718,-2.547936z"
                  fill="#fdfdfd"/>
            <path stroke="#000000" id="svg_441"
                  d="m276.221756,114.872865c1.74192,0.441263 0.316713,-2.015929 1.047999,-2.489219c0.010676,0.800678 0.005338,1.601356 0.042703,2.402034c5.044271,0.170811 9.636605,3.553231 11.666769,8.111758c1.926965,4.017625 1.195679,9.085027 -1.757934,12.417627c-8.129551,8.709598 -20.095239,12.18632 -28.833306,20.113033c-0.633425,0.512434 -1.158314,1.305994 -1.926965,1.574666c0.035586,-1.546198 0.252659,-3.079941 0.364754,-4.620802c0.601398,-7.821734 1.791739,-15.71642 4.663504,-23.054189c2.544377,-6.464141 7.118918,-13.782338 14.732476,-14.454908z"
                  fill="#fcd900"/>
            <path stroke="#000000" id="svg_442"
                  d="m308.789781,119.127134c6.729254,1.426987 11.629403,8.946243 9.380388,15.638132c-2.186741,6.476596 -7.876893,11.072488 -13.677361,14.260966c4.718663,-4.789834 8.899982,-10.935483 8.821693,-17.917396c-0.008896,-4.417963 -2.046177,-8.451601 -4.52472,-11.981702z"
                  fill="#fcd900"/>
            <path id="svg_443"
                  d="m272.387398,159.580948c2.168948,-2.998095 4.394833,-5.980176 6.638511,-8.921333c0.777547,0.444821 1.46613,1.028426 2.145817,1.608473c-1.546198,2.700954 -3.750732,5.0247 -5.465962,7.615338c0.311375,0.814912 0.804236,1.549757 1.238382,2.304174c2.083542,4.012286 4.142174,8.063717 6.384073,11.974585c2.66003,0.416352 5.649228,-0.428808 8.072614,1.120949c0.999958,0.37365 0.580047,2.371786 -0.656556,1.766829c-1.188562,-0.498199 -2.832621,-1.204575 -4.022963,-0.692141c1.09426,0.887863 3.638637,2.551494 1.656514,3.946453c-1.750816,0.056937 -1.857573,-2.875324 -3.816565,-2.795256c0.565813,1.222368 1.843339,2.071087 1.759712,3.576362c0.599619,1.389621 -1.985681,2.03728 -1.91273,0.466172c-0.384326,-2.240119 -2.31307,-3.663547 -3.998053,-4.957087c-1.832663,-1.163652 -4.085237,0.834485 -5.905445,-0.306036c-0.727728,-3.001653 4.357468,-1.158315 5.526458,-2.117349c-1.980344,-4.006949 -4.288076,-7.846645 -6.26842,-11.857152c-0.444821,-0.914552 -1.124508,-1.74192 -1.375387,-2.732981z"
                  fill="#782921"/>
            <path stroke="#000000" id="svg_444"
                  d="m234.492196,174.012725c7.03885,-7.400045 14.92286,-14.429998 22.33358,-21.630763c-0.112095,1.540861 -0.329168,3.074604 -0.364754,4.620802c0.768651,-0.268672 1.29354,-1.062232 1.926965,-1.574666c0.603178,0.813133 1.288202,1.558653 1.992799,2.284601c-4.960645,5.974837 -9.97111,11.926544 -14.82144,17.985008c-3.711588,-0.439483 -7.33599,-1.549757 -11.06715,-1.684982z"
                  fill="#fcd900"/>
            <path id="svg_445"
                  d="m288.139404,159.372771c0.866512,-0.354077 1.729465,-0.708155 2.592418,-1.072908c2.085321,3.684898 3.827241,7.572635 6.063802,11.170348c2.772125,0.252659 6.368059,-0.692141 8.563696,1.535523c-0.062275,3.037238 -3.683119,-0.464394 -5.202628,0.485744c0.345181,0.79712 3.490956,2.220548 1.877145,3.747174c-1.725906,0.980385 -2.044398,-2.327305 -3.921543,-2.3878c0.67257,1.329125 1.823767,2.558611 1.524847,4.181318c-0.133446,0.983945 -2.083542,0.839823 -1.887821,-0.281126c-0.366533,-2.43762 -2.647575,-3.887737 -4.453549,-5.250669c-1.768609,-0.229528 -6.284433,1.688541 -5.32184,-1.455455c1.761491,-0.405677 3.60661,-0.407456 5.409025,-0.489303c-1.462572,-3.521204 -3.713367,-6.699006 -5.243552,-10.182846z"
                  fill="#782921"/>
            <path stroke="#000000" id="svg_446"
                  d="m261.277546,158.454661c1.916289,1.46613 4.124381,2.53548 6.451685,3.168905c-2.754332,4.82542 -5.830715,9.496042 -8.736287,14.234277c-3.743614,0.22419 -7.480112,-0.270452 -11.221947,-0.12455c4.403729,-5.82004 9.029869,-11.501295 13.506549,-17.278632z"
                  fill="#fcd900"/>
        </g>
        <g id="svg_458">
            <path stroke="#000000" id="svg_448"
                  d="m353.953449,94.554765c6.024658,-0.985724 12.232582,1.982123 15.890791,6.736371c3.067486,4.208008 3.667105,9.830547 2.341538,14.780517c1.992799,1.412751 3.649313,3.238297 5.111885,5.183055c2.478543,3.530101 4.515824,7.563739 4.52472,11.981702c0.078289,6.981913 -4.10303,13.127562 -8.821693,17.917396c-4.046093,3.813007 -8.72739,6.924975 -13.760986,9.273631c-0.862953,0.364753 -1.725906,0.718831 -2.592418,1.072908c-3.587037,1.428766 -7.359121,2.373566 -11.195258,2.814829c-0.434146,-0.754417 -0.927007,-1.489262 -1.238382,-2.304174c1.71523,-2.590638 3.919764,-4.914384 5.465962,-7.615338c-0.679687,-0.580047 -1.36827,-1.163652 -2.145817,-1.608473c-2.243678,2.941157 -4.469563,5.923238 -6.638511,8.921333c0.250879,0.991061 0.930566,1.818429 1.375387,2.732981c-2.053294,0.088964 -4.042534,-0.270451 -6.033554,-0.690363c-2.327304,-0.633425 -4.535396,-1.702775 -6.451685,-3.168905c-0.314934,-0.22597 -0.620971,-0.469732 -0.89676,-0.741962c-0.704597,-0.725948 -1.389621,-1.471468 -1.992799,-2.284601c8.738067,-7.926713 20.703755,-11.403435 28.833306,-20.113033c2.953613,-3.3326 3.684899,-8.400002 1.757934,-12.417627c-2.030164,-4.558527 -6.622498,-7.940947 -11.666769,-8.111758c-0.037365,-0.800678 -0.032027,-1.601356 -0.042703,-2.402034c0.035586,-2.361111 -0.064054,-4.727559 0.012455,-7.08689c1.633383,-0.540903 4.569203,-0.848719 4.905487,-3.327262c-0.046261,-2.012371 -1.359373,-4.206229 -3.293455,-4.891254c1.09248,-2.620886 3.857489,-4.159967 6.551325,-4.651049m1.661852,4.517603c-3.181361,0.222411 -5.035375,4.355689 -3.010549,6.830673c1.854014,2.697396 6.535312,1.944758 7.391148,-1.233044c1.085363,-2.788139 -1.501716,-5.857405 -4.380599,-5.597629z"
                  fill="#fcea9d"/>
            <path id="svg_449"
                  d="m355.615301,99.072368c2.878883,-0.259776 5.465962,2.80949 4.380599,5.597629c-0.855836,3.177802 -5.537134,3.93044 -7.391148,1.233044c-2.024826,-2.474984 -0.170812,-6.608262 3.010549,-6.830673m-0.103198,3.035459c-1.597798,0.316713 -0.779327,3.149334 0.848718,2.547936c1.708114,-0.338064 0.862953,-3.368186 -0.848718,-2.547936z"
                  fill="#020101"/>
            <path id="svg_450"
                  d="m333.902692,100.613228c4.466004,-0.64588 9.136626,-0.373649 13.499432,-1.407414c1.934082,0.685025 3.247194,2.878883 3.293455,4.891254c-0.336284,2.478543 -3.272104,2.786359 -4.905487,3.327262c-3.165347,-3.015888 -8.309259,-4.25249 -11.8874,-6.811102z"
                  fill="#7f3f00"/>
            <path id="svg_451"
                  d="m355.512103,102.107827c1.711671,-0.82025 2.556832,2.209872 0.848718,2.547936c-1.628045,0.601398 -2.446516,-2.231223 -0.848718,-2.547936z"
                  fill="#fdfdfd"/>
            <path stroke="#000000" id="svg_452"
                  d="m344.729638,117.000439c1.74192,0.441263 0.316713,-2.015929 1.047999,-2.489219c0.010676,0.800678 0.005338,1.601356 0.042703,2.402034c5.044271,0.170811 9.636605,3.553231 11.666769,8.111758c1.926965,4.017625 1.195679,9.085027 -1.757934,12.417627c-8.129551,8.709598 -20.095239,12.18632 -28.833306,20.113033c-0.633425,0.512434 -1.158314,1.305994 -1.926965,1.574666c0.035586,-1.546198 0.252659,-3.079941 0.364754,-4.620802c0.601398,-7.821734 1.791739,-15.71642 4.663504,-23.054189c2.544377,-6.464141 7.118918,-13.782338 14.732476,-14.454908z"
                  fill="#fcd900"/>
            <path stroke="#000000" id="svg_453"
                  d="m377.297663,121.254708c6.729254,1.426987 11.629403,8.946243 9.380388,15.638132c-2.186741,6.476596 -7.876893,11.072488 -13.677361,14.260966c4.718663,-4.789834 8.899982,-10.935483 8.821693,-17.917396c-0.008896,-4.417963 -2.046177,-8.451601 -4.52472,-11.981702z"
                  fill="#fcd900"/>
            <path id="svg_454"
                  d="m340.89528,161.708522c2.168948,-2.998095 4.394833,-5.980176 6.638511,-8.921333c0.777547,0.444821 1.46613,1.028426 2.145817,1.608473c-1.546198,2.700954 -3.750732,5.0247 -5.465962,7.615338c0.311375,0.814912 0.804236,1.549757 1.238382,2.304174c2.083542,4.012286 4.142174,8.063717 6.384073,11.974585c2.66003,0.416352 5.649228,-0.428808 8.072614,1.120949c0.999958,0.37365 0.580047,2.371786 -0.656556,1.766829c-1.188562,-0.498199 -2.832621,-1.204575 -4.022963,-0.692141c1.09426,0.887863 3.638637,2.551494 1.656514,3.946453c-1.750816,0.056937 -1.857573,-2.875324 -3.816565,-2.795256c0.565813,1.222368 1.843339,2.071087 1.759712,3.576362c0.599619,1.389621 -1.985681,2.03728 -1.91273,0.466172c-0.384326,-2.240119 -2.31307,-3.663547 -3.998053,-4.957087c-1.832663,-1.163652 -4.085237,0.834485 -5.905445,-0.306036c-0.727728,-3.001653 4.357468,-1.158315 5.526458,-2.117349c-1.980344,-4.006949 -4.288076,-7.846645 -6.26842,-11.857152c-0.444821,-0.914552 -1.124508,-1.74192 -1.375387,-2.732981z"
                  fill="#782921"/>
            <path stroke="#000000" id="svg_455"
                  d="m303.000078,176.140299c7.03885,-7.400045 14.92286,-14.429998 22.33358,-21.630763c-0.112095,1.540861 -0.329168,3.074604 -0.364754,4.620802c0.768651,-0.268672 1.29354,-1.062232 1.926965,-1.574666c0.603178,0.813133 1.288202,1.558653 1.992799,2.284601c-4.960645,5.974837 -9.97111,11.926544 -14.82144,17.985008c-3.711588,-0.439483 -7.33599,-1.549757 -11.06715,-1.684982z"
                  fill="#fcd900"/>
            <path id="svg_456"
                  d="m356.647286,161.500345c0.866512,-0.354077 1.729465,-0.708155 2.592418,-1.072908c2.085321,3.684898 3.827241,7.572635 6.063802,11.170348c2.772125,0.252659 6.368059,-0.692141 8.563696,1.535523c-0.062275,3.037238 -3.683119,-0.464394 -5.202628,0.485744c0.345181,0.79712 3.490956,2.220548 1.877145,3.747174c-1.725906,0.980385 -2.044398,-2.327305 -3.921543,-2.3878c0.67257,1.329125 1.823767,2.558611 1.524847,4.181318c-0.133446,0.983945 -2.083542,0.839823 -1.887821,-0.281126c-0.366533,-2.43762 -2.647575,-3.887737 -4.453549,-5.250669c-1.768609,-0.229528 -6.284433,1.688541 -5.32184,-1.455455c1.761491,-0.405677 3.60661,-0.407456 5.409025,-0.489303c-1.462572,-3.521204 -3.713367,-6.699006 -5.243552,-10.182846z"
                  fill="#782921"/>
            <path stroke="#000000" id="svg_457"
                  d="m329.785428,160.582235c1.916289,1.46613 4.124381,2.53548 6.451685,3.168905c-2.754332,4.82542 -5.830715,9.496042 -8.736287,14.234277c-3.743614,0.22419 -7.480112,-0.270452 -11.221947,-0.12455c4.403729,-5.82004 9.029869,-11.501295 13.506549,-17.278632z"
                  fill="#fcd900"/>
        </g>
        <g id="svg_469">
            <path stroke="#000000" id="svg_459"
                  d="m422.461337,98.384398c6.024658,-0.985724 12.232582,1.982123 15.890791,6.736371c3.067486,4.208008 3.667105,9.830547 2.341538,14.780517c1.992799,1.412751 3.649313,3.238297 5.111885,5.183055c2.478543,3.530101 4.515824,7.563739 4.52472,11.981702c0.078289,6.981913 -4.10303,13.127562 -8.821693,17.917396c-4.046093,3.813007 -8.72739,6.924975 -13.760986,9.273631c-0.862953,0.364753 -1.725906,0.718831 -2.592418,1.072908c-3.587037,1.428766 -7.359121,2.373566 -11.195258,2.814829c-0.434146,-0.754417 -0.927007,-1.489262 -1.238382,-2.304174c1.71523,-2.590638 3.919764,-4.914384 5.465962,-7.615338c-0.679687,-0.580047 -1.36827,-1.163652 -2.145817,-1.608473c-2.243678,2.941157 -4.469563,5.923238 -6.638511,8.921333c0.250879,0.991061 0.930566,1.818429 1.375387,2.732981c-2.053294,0.088964 -4.042534,-0.270451 -6.033554,-0.690363c-2.327304,-0.633425 -4.535396,-1.702775 -6.451685,-3.168905c-0.314934,-0.22597 -0.620971,-0.469732 -0.89676,-0.741962c-0.704597,-0.725948 -1.389621,-1.471468 -1.992799,-2.284601c8.738067,-7.926713 20.703755,-11.403435 28.833306,-20.113033c2.953613,-3.3326 3.684899,-8.400002 1.757934,-12.417627c-2.030164,-4.558527 -6.622498,-7.940947 -11.666769,-8.111758c-0.037365,-0.800678 -0.032027,-1.601356 -0.042703,-2.402034c0.035586,-2.361111 -0.064054,-4.727559 0.012455,-7.08689c1.633383,-0.540903 4.569203,-0.848719 4.905487,-3.327262c-0.046261,-2.012371 -1.359373,-4.206229 -3.293455,-4.891254c1.09248,-2.620886 3.857489,-4.159967 6.551325,-4.651049m1.661852,4.517603c-3.181361,0.222411 -5.035375,4.355689 -3.010549,6.830673c1.854014,2.697396 6.535312,1.944758 7.391148,-1.233044c1.085363,-2.788139 -1.501716,-5.857405 -4.380599,-5.597629z"
                  fill="#fcea9d"/>
            <path id="svg_460"
                  d="m424.123189,102.902001c2.878883,-0.259776 5.465962,2.80949 4.380599,5.597629c-0.855836,3.177802 -5.537134,3.93044 -7.391148,1.233044c-2.024826,-2.474984 -0.170812,-6.608262 3.010549,-6.830673m-0.103198,3.035459c-1.597798,0.316713 -0.779327,3.149334 0.848718,2.547936c1.708114,-0.338064 0.862953,-3.368186 -0.848718,-2.547936z"
                  fill="#020101"/>
            <path id="svg_461"
                  d="m402.41058,104.442861c4.466004,-0.64588 9.136626,-0.373649 13.499432,-1.407414c1.934082,0.685025 3.247194,2.878883 3.293455,4.891254c-0.336284,2.478543 -3.272104,2.786359 -4.905487,3.327262c-3.165347,-3.015888 -8.309259,-4.25249 -11.8874,-6.811102z"
                  fill="#7f3f00"/>
            <path id="svg_462"
                  d="m424.019991,105.93746c1.711671,-0.82025 2.556832,2.209872 0.848718,2.547936c-1.628045,0.601398 -2.446516,-2.231223 -0.848718,-2.547936z"
                  fill="#fdfdfd"/>
            <path stroke="#000000" id="svg_463"
                  d="m413.237526,120.830072c1.74192,0.441263 0.316713,-2.015929 1.047999,-2.489219c0.010676,0.800678 0.005338,1.601356 0.042703,2.402034c5.044271,0.170811 9.636605,3.553231 11.666769,8.111758c1.926965,4.017625 1.195679,9.085027 -1.757934,12.417627c-8.129551,8.709598 -20.095239,12.18632 -28.833306,20.113033c-0.633425,0.512434 -1.158314,1.305994 -1.926965,1.574666c0.035586,-1.546198 0.252659,-3.079941 0.364754,-4.620802c0.601398,-7.821734 1.791739,-15.71642 4.663504,-23.054189c2.544377,-6.464141 7.118918,-13.782338 14.732476,-14.454908z"
                  fill="#fcd900"/>
            <path stroke="#000000" id="svg_464"
                  d="m445.805551,125.084341c6.729254,1.426987 11.629403,8.946243 9.380388,15.638132c-2.186741,6.476596 -7.876893,11.072488 -13.677361,14.260966c4.718663,-4.789834 8.899982,-10.935483 8.821693,-17.917396c-0.008896,-4.417963 -2.046177,-8.451601 -4.52472,-11.981702z"
                  fill="#fcd900"/>
            <path id="svg_465"
                  d="m409.403168,165.538155c2.168948,-2.998095 4.394833,-5.980176 6.638511,-8.921333c0.777547,0.444821 1.46613,1.028426 2.145817,1.608473c-1.546198,2.700954 -3.750732,5.0247 -5.465962,7.615338c0.311375,0.814912 0.804236,1.549757 1.238382,2.304174c2.083542,4.012286 4.142174,8.063717 6.384073,11.974585c2.66003,0.416352 5.649228,-0.428808 8.072614,1.120949c0.999958,0.37365 0.580047,2.371786 -0.656556,1.766829c-1.188562,-0.498199 -2.832621,-1.204575 -4.022963,-0.692141c1.09426,0.887863 3.638637,2.551494 1.656514,3.946453c-1.750816,0.056937 -1.857573,-2.875324 -3.816565,-2.795256c0.565813,1.222368 1.843339,2.071087 1.759712,3.576362c0.599619,1.389621 -1.985681,2.03728 -1.91273,0.466172c-0.384326,-2.240119 -2.31307,-3.663547 -3.998053,-4.957087c-1.832663,-1.163652 -4.085237,0.834485 -5.905445,-0.306036c-0.727728,-3.001653 4.357468,-1.158315 5.526458,-2.117349c-1.980344,-4.006949 -4.288076,-7.846645 -6.26842,-11.857152c-0.444821,-0.914552 -1.124508,-1.74192 -1.375387,-2.732981z"
                  fill="#782921"/>
            <path stroke="#000000" id="svg_466"
                  d="m371.507966,179.969932c7.03885,-7.400045 14.92286,-14.429998 22.33358,-21.630763c-0.112095,1.540861 -0.329168,3.074604 -0.364754,4.620802c0.768651,-0.268672 1.29354,-1.062232 1.926965,-1.574666c0.603178,0.813133 1.288202,1.558653 1.992799,2.284601c-4.960645,5.974837 -9.97111,11.926544 -14.82144,17.985008c-3.711588,-0.439483 -7.33599,-1.549757 -11.06715,-1.684982z"
                  fill="#fcd900"/>
            <path id="svg_467"
                  d="m425.155174,165.329978c0.866512,-0.354077 1.729465,-0.708155 2.592418,-1.072908c2.085321,3.684898 3.827241,7.572635 6.063802,11.170348c2.772125,0.252659 6.368059,-0.692141 8.563696,1.535523c-0.062275,3.037238 -3.683119,-0.464394 -5.202628,0.485744c0.345181,0.79712 3.490956,2.220548 1.877145,3.747174c-1.725906,0.980385 -2.044398,-2.327305 -3.921543,-2.3878c0.67257,1.329125 1.823767,2.558611 1.524847,4.181318c-0.133446,0.983945 -2.083542,0.839823 -1.887821,-0.281126c-0.366533,-2.43762 -2.647575,-3.887737 -4.453549,-5.250669c-1.768609,-0.229528 -6.284433,1.688541 -5.32184,-1.455455c1.761491,-0.405677 3.60661,-0.407456 5.409025,-0.489303c-1.462572,-3.521204 -3.713367,-6.699006 -5.243552,-10.182846z"
                  fill="#782921"/>
            <path stroke="#000000" id="svg_468"
                  d="m398.293316,164.411868c1.916289,1.46613 4.124381,2.53548 6.451685,3.168905c-2.754332,4.82542 -5.830715,9.496042 -8.736287,14.234277c-3.743614,0.22419 -7.480112,-0.270452 -11.221947,-0.12455c4.403729,-5.82004 9.029869,-11.501295 13.506549,-17.278632z"
                  fill="#fcd900"/>
        </g>
        <g id="svg_480">
            <path stroke="#000000" id="svg_470"
                  d="m493.947821,101.788517c6.024658,-0.985724 12.232582,1.982123 15.890791,6.736371c3.067486,4.208008 3.667105,9.830547 2.341538,14.780517c1.992799,1.412751 3.649313,3.238297 5.111885,5.183055c2.478543,3.530101 4.515824,7.563739 4.52472,11.981702c0.078289,6.981913 -4.10303,13.127562 -8.821693,17.917396c-4.046093,3.813007 -8.72739,6.924975 -13.760986,9.273631c-0.862953,0.364753 -1.725906,0.718831 -2.592418,1.072908c-3.587037,1.428766 -7.359121,2.373566 -11.195258,2.814829c-0.434146,-0.754417 -0.927007,-1.489262 -1.238382,-2.304174c1.71523,-2.590638 3.919764,-4.914384 5.465962,-7.615338c-0.679687,-0.580047 -1.36827,-1.163652 -2.145817,-1.608473c-2.243678,2.941157 -4.469563,5.923238 -6.638511,8.921333c0.250879,0.991061 0.930566,1.818429 1.375387,2.732981c-2.053294,0.088964 -4.042534,-0.270451 -6.033554,-0.690363c-2.327304,-0.633425 -4.535396,-1.702775 -6.451685,-3.168905c-0.314934,-0.22597 -0.620971,-0.469732 -0.89676,-0.741962c-0.704597,-0.725948 -1.389621,-1.471468 -1.992799,-2.284601c8.738067,-7.926713 20.703755,-11.403435 28.833306,-20.113033c2.953613,-3.3326 3.684899,-8.400002 1.757934,-12.417627c-2.030164,-4.558527 -6.622498,-7.940947 -11.666769,-8.111758c-0.037365,-0.800678 -0.032027,-1.601356 -0.042703,-2.402034c0.035586,-2.361111 -0.064054,-4.727559 0.012455,-7.08689c1.633383,-0.540903 4.569203,-0.848719 4.905487,-3.327262c-0.046261,-2.012371 -1.359373,-4.206229 -3.293455,-4.891254c1.09248,-2.620886 3.857489,-4.159967 6.551325,-4.651049m1.661852,4.517603c-3.181361,0.222411 -5.035375,4.355689 -3.010549,6.830673c1.854014,2.697396 6.535312,1.944758 7.391148,-1.233044c1.085363,-2.788139 -1.501716,-5.857405 -4.380599,-5.597629z"
                  fill="#fcea9d"/>
            <path id="svg_471"
                  d="m495.609673,106.30612c2.878883,-0.259776 5.465962,2.80949 4.380599,5.597629c-0.855836,3.177802 -5.537134,3.93044 -7.391148,1.233044c-2.024826,-2.474984 -0.170812,-6.608262 3.010549,-6.830673m-0.103198,3.035459c-1.597798,0.316713 -0.779327,3.149334 0.848718,2.547936c1.708114,-0.338064 0.862953,-3.368186 -0.848718,-2.547936z"
                  fill="#020101"/>
            <path id="svg_472"
                  d="m473.897064,107.84698c4.466004,-0.64588 9.136626,-0.373649 13.499432,-1.407414c1.934082,0.685025 3.247194,2.878883 3.293455,4.891254c-0.336284,2.478543 -3.272104,2.786359 -4.905487,3.327262c-3.165347,-3.015888 -8.309259,-4.25249 -11.8874,-6.811102z"
                  fill="#7f3f00"/>
            <path id="svg_473"
                  d="m495.506475,109.341579c1.711671,-0.82025 2.556832,2.209872 0.848718,2.547936c-1.628045,0.601398 -2.446516,-2.231223 -0.848718,-2.547936z"
                  fill="#fdfdfd"/>
            <path stroke="#000000" id="svg_474"
                  d="m484.72401,124.234191c1.74192,0.441263 0.316713,-2.015929 1.047999,-2.489219c0.010676,0.800678 0.005338,1.601356 0.042703,2.402034c5.044271,0.170811 9.636605,3.553231 11.666769,8.111758c1.926965,4.017625 1.195679,9.085027 -1.757934,12.417627c-8.129551,8.709598 -20.095239,12.18632 -28.833306,20.113033c-0.633425,0.512434 -1.158314,1.305994 -1.926965,1.574666c0.035586,-1.546198 0.252659,-3.079941 0.364754,-4.620802c0.601398,-7.821734 1.791739,-15.71642 4.663504,-23.054189c2.544377,-6.464141 7.118918,-13.782338 14.732476,-14.454908z"
                  fill="#fcd900"/>
            <path stroke="#000000" id="svg_475"
                  d="m517.292035,128.48846c6.729254,1.426987 11.629403,8.946243 9.380388,15.638132c-2.186741,6.476596 -7.876893,11.072488 -13.677361,14.260966c4.718663,-4.789834 8.899982,-10.935483 8.821693,-17.917396c-0.008896,-4.417963 -2.046177,-8.451601 -4.52472,-11.981702z"
                  fill="#fcd900"/>
            <path id="svg_476"
                  d="m480.889652,168.942274c2.168948,-2.998095 4.394833,-5.980176 6.638511,-8.921333c0.777547,0.444821 1.46613,1.028426 2.145817,1.608473c-1.546198,2.700954 -3.750732,5.0247 -5.465962,7.615338c0.311375,0.814912 0.804236,1.549757 1.238382,2.304174c2.083542,4.012286 4.142174,8.063717 6.384073,11.974585c2.66003,0.416352 5.649228,-0.428808 8.072614,1.120949c0.999958,0.37365 0.580047,2.371786 -0.656556,1.766829c-1.188562,-0.498199 -2.832621,-1.204575 -4.022963,-0.692141c1.09426,0.887863 3.638637,2.551494 1.656514,3.946453c-1.750816,0.056937 -1.857573,-2.875324 -3.816565,-2.795256c0.565813,1.222368 1.843339,2.071087 1.759712,3.576362c0.599619,1.389621 -1.985681,2.03728 -1.91273,0.466172c-0.384326,-2.240119 -2.31307,-3.663547 -3.998053,-4.957087c-1.832663,-1.163652 -4.085237,0.834485 -5.905445,-0.306036c-0.727728,-3.001653 4.357468,-1.158315 5.526458,-2.117349c-1.980344,-4.006949 -4.288076,-7.846645 -6.26842,-11.857152c-0.444821,-0.914552 -1.124508,-1.74192 -1.375387,-2.732981z"
                  fill="#782921"/>
            <path stroke="#000000" id="svg_477"
                  d="m442.99445,183.374051c7.03885,-7.400045 14.92286,-14.429998 22.33358,-21.630763c-0.112095,1.540861 -0.329168,3.074604 -0.364754,4.620802c0.768651,-0.268672 1.29354,-1.062232 1.926965,-1.574666c0.603178,0.813133 1.288202,1.558653 1.992799,2.284601c-4.960645,5.974837 -9.97111,11.926544 -14.82144,17.985008c-3.711588,-0.439483 -7.33599,-1.549757 -11.06715,-1.684982z"
                  fill="#fcd900"/>
            <path id="svg_478"
                  d="m496.641658,168.734097c0.866512,-0.354077 1.729465,-0.708155 2.592418,-1.072908c2.085321,3.684898 3.827241,7.572635 6.063802,11.170348c2.772125,0.252659 6.368059,-0.692141 8.563696,1.535523c-0.062275,3.037238 -3.683119,-0.464394 -5.202628,0.485744c0.345181,0.79712 3.490956,2.220548 1.877145,3.747174c-1.725906,0.980385 -2.044398,-2.327305 -3.921543,-2.3878c0.67257,1.329125 1.823767,2.558611 1.524847,4.181318c-0.133446,0.983945 -2.083542,0.839823 -1.887821,-0.281126c-0.366533,-2.43762 -2.647575,-3.887737 -4.453549,-5.250669c-1.768609,-0.229528 -6.284433,1.688541 -5.32184,-1.455455c1.761491,-0.405677 3.60661,-0.407456 5.409025,-0.489303c-1.462572,-3.521204 -3.713367,-6.699006 -5.243552,-10.182846z"
                  fill="#782921"/>
            <path stroke="#000000" id="svg_479"
                  d="m469.7798,167.815987c1.916289,1.46613 4.124381,2.53548 6.451685,3.168905c-2.754332,4.82542 -5.830715,9.496042 -8.736287,14.234277c-3.743614,0.22419 -7.480112,-0.270452 -11.221947,-0.12455c4.403729,-5.82004 9.029869,-11.501295 13.506549,-17.278632z"
                  fill="#fcd900"/>
        </g>
        <g id="svg_491">
            <path stroke="#000000" id="svg_481"
                  d="m564.157763,105.61815c6.024658,-0.985724 12.232582,1.982123 15.890791,6.736371c3.067486,4.208008 3.667105,9.830547 2.341538,14.780517c1.992799,1.412751 3.649313,3.238297 5.111885,5.183055c2.478543,3.530101 4.515824,7.563739 4.52472,11.981702c0.078289,6.981913 -4.10303,13.127562 -8.821693,17.917396c-4.046093,3.813007 -8.72739,6.924975 -13.760986,9.273631c-0.862953,0.364753 -1.725906,0.718831 -2.592418,1.072908c-3.587037,1.428766 -7.359121,2.373566 -11.195258,2.814829c-0.434146,-0.754417 -0.927007,-1.489262 -1.238382,-2.304174c1.71523,-2.590638 3.919764,-4.914384 5.465962,-7.615338c-0.679687,-0.580047 -1.36827,-1.163652 -2.145817,-1.608473c-2.243678,2.941157 -4.469563,5.923238 -6.638511,8.921333c0.250879,0.991061 0.930566,1.818429 1.375387,2.732981c-2.053294,0.088964 -4.042534,-0.270451 -6.033554,-0.690363c-2.327304,-0.633425 -4.535396,-1.702775 -6.451685,-3.168905c-0.314934,-0.22597 -0.620971,-0.469732 -0.89676,-0.741962c-0.704597,-0.725948 -1.389621,-1.471468 -1.992799,-2.284601c8.738067,-7.926713 20.703755,-11.403435 28.833306,-20.113033c2.953613,-3.3326 3.684899,-8.400002 1.757934,-12.417627c-2.030164,-4.558527 -6.622498,-7.940947 -11.666769,-8.111758c-0.037365,-0.800678 -0.032027,-1.601356 -0.042703,-2.402034c0.035586,-2.361111 -0.064054,-4.727559 0.012455,-7.08689c1.633383,-0.540903 4.569203,-0.848719 4.905487,-3.327262c-0.046261,-2.012371 -1.359373,-4.206229 -3.293455,-4.891254c1.09248,-2.620886 3.857489,-4.159967 6.551325,-4.651049m1.661852,4.517603c-3.181361,0.222411 -5.035375,4.355689 -3.010549,6.830673c1.854014,2.697396 6.535312,1.944758 7.391148,-1.233044c1.085363,-2.788139 -1.501716,-5.857405 -4.380599,-5.597629z"
                  fill="#fcea9d"/>
            <path id="svg_482"
                  d="m565.819615,110.135753c2.878883,-0.259776 5.465962,2.80949 4.380599,5.597629c-0.855836,3.177802 -5.537134,3.93044 -7.391148,1.233044c-2.024826,-2.474984 -0.170812,-6.608262 3.010549,-6.830673m-0.103198,3.035459c-1.597798,0.316713 -0.779327,3.149334 0.848718,2.547936c1.708114,-0.338064 0.862953,-3.368186 -0.848718,-2.547936z"
                  fill="#020101"/>
            <path id="svg_483"
                  d="m544.107006,111.676613c4.466004,-0.64588 9.136626,-0.373649 13.499432,-1.407414c1.934082,0.685025 3.247194,2.878883 3.293455,4.891254c-0.336284,2.478543 -3.272104,2.786359 -4.905487,3.327262c-3.165347,-3.015888 -8.309259,-4.25249 -11.8874,-6.811102z"
                  fill="#7f3f00"/>
            <path id="svg_484"
                  d="m565.716417,113.171212c1.711671,-0.82025 2.556832,2.209872 0.848718,2.547936c-1.628045,0.601398 -2.446516,-2.231223 -0.848718,-2.547936z"
                  fill="#fdfdfd"/>
            <path stroke="#000000" id="svg_485"
                  d="m554.933952,128.063824c1.74192,0.441263 0.316713,-2.015929 1.047999,-2.489219c0.010676,0.800678 0.005338,1.601356 0.042703,2.402034c5.044271,0.170811 9.636605,3.553231 11.666769,8.111758c1.926965,4.017625 1.195679,9.085027 -1.757934,12.417627c-8.129551,8.709598 -20.095239,12.18632 -28.833306,20.113033c-0.633425,0.512434 -1.158314,1.305994 -1.926965,1.574666c0.035586,-1.546198 0.252659,-3.079941 0.364754,-4.620802c0.601398,-7.821734 1.791739,-15.71642 4.663504,-23.054189c2.544377,-6.464141 7.118918,-13.782338 14.732476,-14.454908z"
                  fill="#fcd900"/>
            <path stroke="#000000" id="svg_486"
                  d="m587.501977,132.318093c6.729254,1.426987 11.629403,8.946243 9.380388,15.638132c-2.186741,6.476596 -7.876893,11.072488 -13.677361,14.260966c4.718663,-4.789834 8.899982,-10.935483 8.821693,-17.917396c-0.008896,-4.417963 -2.046177,-8.451601 -4.52472,-11.981702z"
                  fill="#fcd900"/>
            <path id="svg_487"
                  d="m551.099594,172.771907c2.168948,-2.998095 4.394833,-5.980176 6.638511,-8.921333c0.777547,0.444821 1.46613,1.028426 2.145817,1.608473c-1.546198,2.700954 -3.750732,5.0247 -5.465962,7.615338c0.311375,0.814912 0.804236,1.549757 1.238382,2.304174c2.083542,4.012286 4.142174,8.063717 6.384073,11.974585c2.66003,0.416352 5.649228,-0.428808 8.072614,1.120949c0.999958,0.37365 0.580047,2.371786 -0.656556,1.766829c-1.188562,-0.498199 -2.832621,-1.204575 -4.022963,-0.692141c1.09426,0.887863 3.638637,2.551494 1.656514,3.946453c-1.750816,0.056937 -1.857573,-2.875324 -3.816565,-2.795256c0.565813,1.222368 1.843339,2.071087 1.759712,3.576362c0.599619,1.389621 -1.985681,2.03728 -1.91273,0.466172c-0.384326,-2.240119 -2.31307,-3.663547 -3.998053,-4.957087c-1.832663,-1.163652 -4.085237,0.834485 -5.905445,-0.306036c-0.727728,-3.001653 4.357468,-1.158315 5.526458,-2.117349c-1.980344,-4.006949 -4.288076,-7.846645 -6.26842,-11.857152c-0.444821,-0.914552 -1.124508,-1.74192 -1.375387,-2.732981z"
                  fill="#782921"/>
            <path stroke="#000000" id="svg_488"
                  d="m513.204392,187.203684c7.03885,-7.400045 14.92286,-14.429998 22.33358,-21.630763c-0.112095,1.540861 -0.329168,3.074604 -0.364754,4.620802c0.768651,-0.268672 1.29354,-1.062232 1.926965,-1.574666c0.603178,0.813133 1.288202,1.558653 1.992799,2.284601c-4.960645,5.974837 -9.97111,11.926544 -14.82144,17.985008c-3.711588,-0.439483 -7.33599,-1.549757 -11.06715,-1.684982z"
                  fill="#fcd900"/>
            <path id="svg_489"
                  d="m566.8516,172.56373c0.866512,-0.354077 1.729465,-0.708155 2.592418,-1.072908c2.085321,3.684898 3.827241,7.572635 6.063802,11.170348c2.772125,0.252659 6.368059,-0.692141 8.563696,1.535523c-0.062275,3.037238 -3.683119,-0.464394 -5.202628,0.485744c0.345181,0.79712 3.490956,2.220548 1.877145,3.747174c-1.725906,0.980385 -2.044398,-2.327305 -3.921543,-2.3878c0.67257,1.329125 1.823767,2.558611 1.524847,4.181318c-0.133446,0.983945 -2.083542,0.839823 -1.887821,-0.281126c-0.366533,-2.43762 -2.647575,-3.887737 -4.453549,-5.250669c-1.768609,-0.229528 -6.284433,1.688541 -5.32184,-1.455455c1.761491,-0.405677 3.60661,-0.407456 5.409025,-0.489303c-1.462572,-3.521204 -3.713367,-6.699006 -5.243552,-10.182846z"
                  fill="#782921"/>
            <path stroke="#000000" id="svg_490"
                  d="m539.989742,171.64562c1.916289,1.46613 4.124381,2.53548 6.451685,3.168905c-2.754332,4.82542 -5.830715,9.496042 -8.736287,14.234277c-3.743614,0.22419 -7.480112,-0.270452 -11.221947,-0.12455c4.403729,-5.82004 9.029869,-11.501295 13.506549,-17.278632z"
                  fill="#fcd900"/>
        </g>
    </g>
</svg>
