<svg id="Layer_1" data-name="Layer 1" xmlns="http://www.w3.org/2000/svg" width="50" height="50" viewBox="0 0 100 100">
    <title>Artboard 1 copy 35mouth</title>
    <g opacity="0.42">
        <rect x="-0.63" width="101.27" height="100" fill="#fff"/>
    </g>
    <path d="M45.46,50l-37,37a2.12,2.12,0,0,0,0,3l1.51,1.51a2.12,2.12,0,0,0,3,0l37-37,37,37a2.12,2.12,0,0,0,3,0l1.51-1.51a2.12,2.12,0,0,0,0-3l-37-37,37-37a2.12,2.12,0,0,0,0-3L90.06,8.43a2.12,2.12,0,0,0-3,0l-37,37-37-37a2.12,2.12,0,0,0-3,0L8.43,9.94a2.12,2.12,0,0,0,0,3Z"
          fill="#666e7a" fill-rule="evenodd"/>
</svg>