<?xml version="1.0" ?>
<svg data-name="Слой 1" id="Слой_1" viewBox="0 0 512 512" xmlns="http://www.w3.org/2000/svg">
    <defs>
        <style>
            .cls-1{fill:#2b398e;}.cls-2{fill:#e4e5e6;}.cls-3{fill:#cfd1d2;}.cls-4{fill:#919396;}.cls-5{fill:#eb1c24;}.cls-6{fill:#6d6e71;}.cls-7{fill:#8bc43f;}.cls-8{fill:#414042;}.cls-9{fill:#231f20;}.cls-10{fill:#babcbe;}.cls-11{fill:#f7eb32;}.cls-12{fill:#fff;}
        </style>
    </defs>
    <title/>
    <path class="cls-1"
          d="M374.47,191.83c-1.71,1.72-2.33,4.95-2.33,7.37V286s.11,6.59,5.87,7,125.54,0,125.54,0V254.63s-.46-4.22-6.9-6.5l-39.23-14L437.33,198c-1.18-2.12-4.12-5.59-6.21-6.82-2.47-1.45-7.08-1.65-9.94-1.65H383C380.28,189.51,376.39,189.91,374.47,191.83Z"/>
    <path class="cls-2"
          d="M472.23,259.93H447.37a4.85,4.85,0,0,1-3.67-2.33l-6-10.32c-.74-1.28-.29-2.33,1-2.33h24.85a4.85,4.85,0,0,1,3.67,2.33l6,10.32C474,258.88,473.51,259.93,472.23,259.93Z"/>
    <rect class="cls-3" height="142.26" width="10.85" x="356.28" y="150.74"/>
    <path class="cls-4" d="M347.94,125.44v11.37a15.73,15.73,0,0,1,8.42,13.93H367A26.35,26.35,0,0,0,347.94,125.44Z"/>
    <rect class="cls-5" height="13.57" rx="1.58" ry="1.58" width="7.36" x="5.12" y="303.08"/>
    <path class="cls-6"
          d="M503,298.82H20.82a4.66,4.66,0,0,0-4.66,4.65v32.24A4.66,4.66,0,0,0,19,340a33.28,33.28,0,0,1,66.55.37H244.14a33.27,33.27,0,0,1,66.44-2.49A33.27,33.27,0,0,1,377,340.36h3.39a6.83,6.83,0,0,1-.22-1.64V320.23a7,7,0,0,1,7-7h40.65a7,7,0,0,1,7,7v18.49a6.82,6.82,0,0,1-.21,1.64h3a33.28,33.28,0,0,1,66.56-.14,4.65,4.65,0,0,0,3.55-4.51V303.47A4.65,4.65,0,0,0,503,298.82Z"/>
    <rect class="cls-7" height="153.64" rx="2" ry="2" width="347.31" x="-0.31" y="141.69"/>
    <circle class="cls-8" cx="52.25" cy="340.36" r="26.36"/>
    <circle class="cls-8" cx="276.68" cy="340.36" r="26.36"/>
    <circle class="cls-8" cx="342.19" cy="340.36" r="26.36"/>
    <circle class="cls-8" cx="469.51" cy="340.36" r="26.36"/>
    <circle class="cls-2" cx="52.62" cy="339.98" r="15.75"/>
    <circle class="cls-2" cx="277.8" cy="339.98" r="15.75"/>
    <circle class="cls-2" cx="344.11" cy="339.98" r="15.75"/>
    <circle class="cls-2" cx="471.22" cy="339.98" r="15.75"/>
    <circle class="cls-4" cx="471.22" cy="339.91" r="7.37"/>
    <circle class="cls-4" cx="344.11" cy="339.91" r="7.37"/>
    <circle class="cls-4" cx="277.8" cy="339.91" r="7.37"/>
    <circle class="cls-4" cx="52.62" cy="339.91" r="7.37"/>
    <path class="cls-9"
          d="M346.3,293.91H9.37a4.55,4.55,0,0,1-4.55-4.55V147.79a4.55,4.55,0,0,1,4.55-4.55H346.3a4.56,4.56,0,0,1,4.56,4.55V289.36A4.56,4.56,0,0,1,346.3,293.91ZM9.37,145.06a2.74,2.74,0,0,0-2.73,2.73V289.36a2.73,2.73,0,0,0,2.73,2.73H346.3a2.73,2.73,0,0,0,2.73-2.73V147.79a2.73,2.73,0,0,0-2.73-2.73Z"/>
    <path class="cls-9"
          d="M55.35,367.63a27.27,27.27,0,1,1,27.27-27.27A27.3,27.3,0,0,1,55.35,367.63Zm0-52.71A25.45,25.45,0,1,0,80.8,340.36,25.47,25.47,0,0,0,55.35,314.92Z"/>
    <path class="cls-9"
          d="M474,367.63a27.27,27.27,0,1,1,27.27-27.27A27.29,27.29,0,0,1,474,367.63Zm0-52.71a25.45,25.45,0,1,0,25.45,25.44A25.47,25.47,0,0,0,474,314.92Z"/>
    <rect class="cls-10" height="32.45" rx="3" ry="3" width="54.6" x="379.23" y="314.01"/>
    <path class="cls-9"
          d="M346.84,367.63a27.27,27.27,0,1,1,27.27-27.27A27.3,27.3,0,0,1,346.84,367.63Zm0-52.71a25.45,25.45,0,1,0,25.45,25.44A25.47,25.47,0,0,0,346.84,314.92Z"/>
    <path class="cls-9"
          d="M280.53,367.63a27.27,27.27,0,1,1,27.27-27.27A27.3,27.3,0,0,1,280.53,367.63Zm0-52.71A25.45,25.45,0,1,0,306,340.36,25.47,25.47,0,0,0,280.53,314.92Z"/>
    <path class="cls-9"
          d="M55.35,357A16.66,16.66,0,1,1,72,340.36,16.67,16.67,0,0,1,55.35,357Zm0-31.49a14.84,14.84,0,1,0,14.84,14.83A14.85,14.85,0,0,0,55.35,325.53Z"/>
    <path class="cls-9"
          d="M280.53,357a16.66,16.66,0,1,1,16.66-16.66A16.67,16.67,0,0,1,280.53,357Zm0-31.49a14.84,14.84,0,1,0,14.84,14.83A14.85,14.85,0,0,0,280.53,325.53Z"/>
    <path class="cls-9"
          d="M346.84,357a16.66,16.66,0,1,1,16.66-16.66A16.67,16.67,0,0,1,346.84,357Zm0-31.49a14.84,14.84,0,1,0,14.84,14.83A14.84,14.84,0,0,0,346.84,325.53Z"/>
    <path class="cls-9"
          d="M474,357a16.66,16.66,0,1,1,16.66-16.66A16.67,16.67,0,0,1,474,357Zm0-31.49a14.84,14.84,0,1,0,14.84,14.83A14.84,14.84,0,0,0,474,325.53Z"/>
    <path class="cls-9"
          d="M506.33,341.38v-1.16a32.37,32.37,0,0,0-64.74.14v.91h-5.05l.27-1.12a5.93,5.93,0,0,0,.19-1.43V320.23a6.07,6.07,0,0,0-6.06-6.07H390.28a6.07,6.07,0,0,0-6.07,6.07v18.49a6,6,0,0,0,.19,1.43l.28,1.12h-5.46v-.91a32.36,32.36,0,0,0-64.63-2.42h-1.81a32.36,32.36,0,0,0-64.63,2.42v.91H87.72v-.91A32.37,32.37,0,0,0,23,340v1.36l-1.26-.54a5.56,5.56,0,0,1-3.37-5.11V303.47a5.57,5.57,0,0,1,5.57-5.56H506.13a5.57,5.57,0,0,1,5.56,5.56v32.24a5.54,5.54,0,0,1-4.24,5.39Zm-67.56-1.93h1a34.19,34.19,0,0,1,68.34-.58,3.71,3.71,0,0,0,1.76-3.16V303.47a3.75,3.75,0,0,0-3.74-3.74H23.92a3.75,3.75,0,0,0-3.75,3.74v32.24a3.77,3.77,0,0,0,1.06,2.61,34.19,34.19,0,0,1,68.3,1.13H246.34a34.18,34.18,0,0,1,67.35-7.32A34.18,34.18,0,0,1,381,339.45h1.4a6.06,6.06,0,0,1,0-.73V320.23a7.9,7.9,0,0,1,7.89-7.89h40.65a7.89,7.89,0,0,1,7.88,7.89v18.49A6.06,6.06,0,0,1,438.77,339.45Z"/>
    <path class="cls-9"
          d="M432.44,347.36H388.76a6.38,6.38,0,0,1-6.37-6.37V319.47a6.37,6.37,0,0,1,6.37-6.37h43.68a6.37,6.37,0,0,1,6.37,6.37V341A6.37,6.37,0,0,1,432.44,347.36Zm-43.68-32.44a4.55,4.55,0,0,0-4.55,4.55V341a4.55,4.55,0,0,0,4.55,4.55h43.68A4.55,4.55,0,0,0,437,341V319.47a4.55,4.55,0,0,0-4.55-4.55Z"/>
    <path class="cls-9"
          d="M13.28,317.56h-1.6a3.79,3.79,0,0,1-3.79-3.79V306a3.79,3.79,0,0,1,3.79-3.79h1.6A3.79,3.79,0,0,1,17.07,306v7.81A3.79,3.79,0,0,1,13.28,317.56ZM11.68,304a2,2,0,0,0-2,2v7.81a2,2,0,0,0,2,2h1.6a2,2,0,0,0,2-2V306a2,2,0,0,0-2-2Z"/>
    <path class="cls-11"
          d="M501.93,251s-5.42-.05-6,2.85,10.45,26.56,10.45,26.56V254.63a16.13,16.13,0,0,0-1.76-3.29C503.91,250.66,501.93,251,501.93,251Z"/>
    <path class="cls-9"
          d="M418.59,294.09c-18.7,0-33.39,0-35.35-.18-5.22-.35-6.68-5.3-6.72-7.87V199.2c0-2.62.68-6.1,2.6-8,2.14-2.14,6.17-2.59,9.17-2.59h38.18c4.89,0,8.39.6,10.4,1.78a23.21,23.21,0,0,1,6.54,7.16l19.93,35.8c3.64,1.3,36.84,13.2,38.91,13.93,6.89,2.45,7.48,7.07,7.5,7.26v39.38h-.9C505.62,293.92,454.66,294.09,418.59,294.09Zm-30.3-103.67c-3.7,0-6.58.75-7.89,2.06-1.52,1.52-2.06,4.57-2.06,6.72V286c0,.22.18,5.74,5,6.07,5.4.36,113.48,0,124.57,0V254.63s-.54-3.6-6.29-5.64l-39.23-14.05-.33-.11-.16-.3-20.1-36.11A21.53,21.53,0,0,0,436,192c-1.71-1-5-1.53-9.48-1.53Z"/>
    <path class="cls-9"
          d="M508.84,281.32a.9.9,0,0,1-.82-.53c-1.87-4-11.15-24.07-10.51-27.12.72-3.42,6.09-3.58,6.85-3.59s2.48-.28,3.37.61a15.29,15.29,0,0,1,1.95,3.59.84.84,0,0,1,.07.35v25.78a.9.9,0,0,1-.71.88A.69.69,0,0,1,508.84,281.32Zm-4.46-29.41c-1.25,0-4.72.38-5.09,2.13-.28,1.5,3.93,11.88,8.64,22.22V254.81a13.51,13.51,0,0,0-1.49-2.83,3.67,3.67,0,0,0-1.86-.09.36.36,0,0,1-.15,0Z"/>
    <path class="cls-9"
          d="M462.71,235a56.61,56.61,0,0,1-7.14-.4,7.24,7.24,0,0,1-4-2.47c-.77-1.28-17.36-29.25-19.11-33.13-2-4.52.15-5.85.4-6l.2-.11h6.43v1.82H433.6c-.19.3-.55,1.24.48,3.53,1.7,3.78,18.68,32.41,18.95,32.86h0a5.56,5.56,0,0,0,2.87,1.7,56.46,56.46,0,0,0,6.81.37Z"/>
    <path class="cls-12"
          d="M435.52,234.08H395.65a4.66,4.66,0,0,1-4.65-4.65v-31a4.67,4.67,0,0,1,4.65-4.65h21.27a8,8,0,0,1,7,4.65l16.28,31A4.66,4.66,0,0,1,435.52,234.08Z"/>
    <rect class="cls-2" height="46.52" rx="1.03" ry="1.03" width="4.79" x="381.75" y="225.7"/>
    <path class="cls-9"
          d="M438.24,235H398.37a5.56,5.56,0,0,1-5.56-5.56v-31a5.57,5.57,0,0,1,5.56-5.56h21.26a8.83,8.83,0,0,1,7.79,5.15l16.38,31.17v.22A5.56,5.56,0,0,1,438.24,235Zm-39.87-40.28a3.74,3.74,0,0,0-3.74,3.74v31a3.73,3.73,0,0,0,3.74,3.74h39.87a3.75,3.75,0,0,0,3.74-3.52l-16.17-30.77a7.09,7.09,0,0,0-6.18-4.17Z"/>
    <path class="cls-9"
          d="M386.22,273.13h-1a2.79,2.79,0,0,1-2.79-2.79V227.58a2.79,2.79,0,0,1,2.79-2.79h1a2.78,2.78,0,0,1,2.78,2.79v42.76A2.78,2.78,0,0,1,386.22,273.13Zm-1-46.52a1,1,0,0,0-1,1v42.76a1,1,0,0,0,1,1h1a1,1,0,0,0,1-1V227.58a1,1,0,0,0-1-1Z"/>
    <path class="cls-9"
          d="M475,260.84H450.16a5.76,5.76,0,0,1-4.46-2.79l-6-10.32a2.64,2.64,0,0,1-.2-2.66,2.18,2.18,0,0,1,2-1h24.86a5.75,5.75,0,0,1,4.46,2.78l6,10.32a2.65,2.65,0,0,1,.2,2.67A2.18,2.18,0,0,1,475,260.84Zm-33.51-15c-.23,0-.37.06-.4.12s-.05.4.21.84l6,10.32a3.94,3.94,0,0,0,2.88,1.88H475c.23,0,.37-.06.4-.12s.05-.4-.21-.85l-6-10.32a4,4,0,0,0-2.88-1.87Z"/>
    <path class="cls-9"
          d="M454.16,257.77H452.4c-.42,0-.71-.08-1.81-1.79l-3.94-6.09c-.89-1.38-1-1.81-.77-2.3l.26-.48h2.3c.43,0,.72.08,1.82,1.79L454.2,255c.89,1.38,1,1.81.77,2.3l-.26.47Z"/>
    <path class="cls-9"
          d="M462,257.77h-1.75c-.42,0-.72-.08-1.82-1.79l-3.94-6.09c-.89-1.39-1-1.82-.77-2.3l.26-.48h2.3c.43,0,.72.08,1.82,1.79L462,255c.9,1.4,1,1.81.77,2.3l-.26.47Z"/>
    <path class="cls-9"
          d="M469.5,257.77h-1.76c-.42,0-.71-.08-1.81-1.79L462,249.89c-.89-1.38-1-1.81-.77-2.3l.26-.48h2.3c.42,0,.71.08,1.82,1.79l3.94,6.09c.9,1.4,1,1.81.77,2.3l-.26.47Z"/>
    <path class="cls-9" d="M372,293.91H359.27V149.83H372Zm-10.86-1.82h9V151.65h-9Z"/>
    <path class="cls-9"
          d="M371.79,151.65H359.36v-.91a14.81,14.81,0,0,0-7.93-13.12l-.49-.26V124.23l1.16.33a27.4,27.4,0,0,1,19.69,26.18Zm-10.64-1.82H370a25.59,25.59,0,0,0-17.19-23.15v9.59A16.61,16.61,0,0,1,361.15,149.83Z"/>
    <rect class="cls-2" height="11.02" rx="1" ry="1" width="18.99" x="391" y="270.05"/>
    <path class="cls-9"
          d="M474,348.64a8.28,8.28,0,1,1,8.28-8.28A8.28,8.28,0,0,1,474,348.64Zm0-14.73a6.46,6.46,0,1,0,6.46,6.45A6.45,6.45,0,0,0,474,333.91Z"/>
    <path class="cls-9"
          d="M346.84,348.64a8.28,8.28,0,1,1,8.28-8.28A8.28,8.28,0,0,1,346.84,348.64Zm0-14.73a6.46,6.46,0,1,0,6.46,6.45A6.45,6.45,0,0,0,346.84,333.91Z"/>
    <path class="cls-9"
          d="M280.53,348.64a8.28,8.28,0,1,1,8.27-8.28A8.28,8.28,0,0,1,280.53,348.64Zm0-14.73a6.46,6.46,0,1,0,6.45,6.45A6.46,6.46,0,0,0,280.53,333.91Z"/>
    <path class="cls-9"
          d="M55.35,348.64a8.28,8.28,0,1,1,8.27-8.28A8.28,8.28,0,0,1,55.35,348.64Zm0-14.73a6.46,6.46,0,1,0,6.45,6.45A6.46,6.46,0,0,0,55.35,333.91Z"/>
    <rect class="cls-9" height="125.79" width="1.82" x="24.98" y="154.62"/>
    <rect class="cls-9" height="125.79" width="1.82" x="54.28" y="154.62"/>
    <rect class="cls-9" height="125.79" width="1.82" x="83.58" y="154.62"/>
    <rect class="cls-9" height="125.79" width="1.82" x="317.99" y="154.62"/>
    <rect class="cls-9" height="125.79" width="1.82" x="288.69" y="154.62"/>
    <rect class="cls-9" height="125.79" width="1.82" x="230.09" y="154.62"/>
    <rect class="cls-9" height="125.79" width="1.82" x="200.79" y="154.62"/>
    <rect class="cls-9" height="125.79" width="1.82" x="171.48" y="154.62"/>
    <rect class="cls-9" height="125.79" width="1.82" x="142.18" y="154.62"/>
    <rect class="cls-9" height="125.79" width="1.82" x="112.88" y="154.62"/>
    <rect class="cls-9" height="125.79" width="1.82" x="259.39" y="154.62"/>
    <path class="cls-9"
          d="M410.89,282H395.54a2.73,2.73,0,0,1-2.73-2.73v-7.38a2.73,2.73,0,0,1,2.73-2.73h15.35a2.73,2.73,0,0,1,2.73,2.73v7.38A2.73,2.73,0,0,1,410.89,282Zm-15.35-11a.91.91,0,0,0-.91.91v7.38a.91.91,0,0,0,.91.91h15.35a.91.91,0,0,0,.91-.91v-7.38a.91.91,0,0,0-.91-.91Z"/>
    <rect class="cls-9" height="22.25" width="1.82" x="390.09" y="319.1"/>
    <rect class="cls-9" height="22.25" width="1.82" x="409.08" y="319.1"/>
    <rect class="cls-9" height="22.25" width="1.82" x="427.88" y="319.1"/>
</svg>