<svg width="172" height="152" xmlns="http://www.w3.org/2000/svg">

    <g>
        <title>background</title>
        <rect fill="none" id="canvas_background" height="154" width="174" y="-1" x="-1"/>
    </g>
    <g>
        <title>Layer 1</title>
        <path stroke="null" id="svg_2" fill="#FF7979"
              d="m126.39447,6.086717c22.684812,0 41.054416,17.625685 41.054416,39.353126c0,39.353126 -41.054416,61.759999 -82.05639,101.113485c-41.00572,-39.353486 -82.01144,-61.760358 -82.01144,-101.113125c0,-21.727441 18.369604,-39.353126 41.00572,-39.353126c20.500987,0 30.753353,9.83918 41.00572,29.513946c10.248621,-19.674766 20.500987,-29.514305 41.001974,-29.514305z"/>
        <path stroke="null" id="svg_3" fill="#FF7979"
              d="m312.54211,9.82215c23.71778,0 42.92384,19.18809 42.92384,42.84153c0,42.84153 -42.92384,67.23463 -85.79285,110.07655c-42.87293,-42.84192 -85.74586,-67.23502 -85.74586,-110.07616c0,-23.65344 19.20607,-42.84153 42.87293,-42.84153c21.43451,0 32.15372,10.71136 42.87293,32.13017c10.7153,-21.41881 21.43451,-32.13056 42.86901,-32.13056z"/>
        <path stroke="null" id="svg_4" fill="#FF7979"
              d="m489.35286,9.82215c23.71778,0 42.92384,19.18809 42.92384,42.84153c0,42.84153 -42.92384,67.23463 -85.79285,110.07655c-42.87293,-42.84192 -85.74586,-67.23502 -85.74586,-110.07616c0,-23.65344 19.20607,-42.84153 42.87293,-42.84153c21.43451,0 32.15372,10.71136 42.87293,32.13017c10.7153,-21.41881 21.43451,-32.13056 42.86901,-32.13056z"/>
        <path stroke="null" id="svg_29" fill="#FF7979"
              d="m666.163616,9.82215c23.71778,0 42.92384,19.18809 42.92384,42.84153c0,42.84153 -42.92384,67.23463 -85.79285,110.07655c-42.87293,-42.84192 -85.74586,-67.23502 -85.74586,-110.07616c0,-23.65344 19.20607,-42.84153 42.87293,-42.84153c21.43451,0 32.15372,10.71136 42.87293,32.13017c10.7153,-21.41881 21.43451,-32.13056 42.86901,-32.13056z"/>
    </g>
</svg>
