<?xml version="1.0" ?>
<svg id="Layer_1" style="enable-background:new 0 0 30 30;" version="1.1" viewBox="0 0 30 30" xml:space="preserve"
     xmlns="http://www.w3.org/2000/svg"><style type="text/css">
	.st0{fill:#F0C419;}
	.st1{fill:#D07AE5;}
	.st2{fill:none;stroke:#000000;stroke-width:0.8;stroke-linecap:round;stroke-linejoin:round;stroke-miterlimit:10;}
	.st3{fill:#EF820C;}
</style>
    <g><g><circle class="st0" cx="14.954" cy="14.65" r="2.629"/></g>
        <g><path class="st1" d="M12.103,13.489c0,0-3.142-5.708-5.59-6.685c0,0-2.319-1.174-2.705,4.204c0,0-3.837,5.424,0.305,5.504    C4.157,16.539,10.219,16.155,12.103,13.489z"/></g>
        <g><g><path class="st1" d="M17.865,14.279c0,0,5.923,2.972,8.583,2.408c0,0,2.66-0.329-0.036-5.009c0,0,0.253-6.659-3.362-4.397     C22.997,7.281,17.987,11.007,17.865,14.279z"/></g></g>
        <g><path class="st1" d="M15.307,11.961c0,0,4.505-4.86,4.704-7.572c0,0,0.426-2.646-4.821-1.362c0,0-6.324-2.099-5.16,2.003    C10.017,5.082,12.199,10.932,15.307,11.961z"/></g>
        <g><path class="st1" d="M16.458,17.397c0,0-0.895,6.625,0.514,8.986c0,0,1.184,2.437,4.763-1.655c0,0,6.429-1.913,3.091-4.638    C24.806,20.04,19.616,16.455,16.458,17.397z"/></g>
        <g><path class="st1" d="M12.785,17.202c0,0-6.318,1.336-8,3.382c0,0-1.826,1.867,3.071,3.794c0,0,3.853,5.225,5.233,1.306    C13.128,25.65,14.68,19.768,12.785,17.202z"/></g>
        <g><path d="M14.954,12.467c-0.102,0-0.204-0.039-0.282-0.116C14.461,12.143,9.52,7.21,9.52,4.297c0-0.803,0.194-1.359,0.593-1.7    c0.654-0.559,1.675-0.398,2.859-0.209c0.668,0.106,1.424,0.226,2.185,0.226c0.778,0,1.507-0.124,2.15-0.233    c1.069-0.184,1.916-0.327,2.502,0.169c0.395,0.333,0.579,0.889,0.579,1.748c0,2.914-4.941,7.846-5.152,8.055    C15.157,12.428,15.056,12.467,14.954,12.467z M11.388,3.01c-0.327,0-0.589,0.052-0.756,0.194    c-0.208,0.177-0.313,0.544-0.313,1.092c0,2.009,3.117,5.638,4.634,7.201c1.517-1.563,4.634-5.193,4.634-7.201    c0-0.589-0.099-0.972-0.295-1.137c-0.302-0.256-1.021-0.134-1.852,0.008c-0.674,0.115-1.438,0.245-2.284,0.245    c-0.823,0-1.613-0.125-2.31-0.236C12.3,3.091,11.794,3.01,11.388,3.01z"/></g>
        <path d="M27.649,13.256c-0.303-0.577-0.646-1.232-0.886-1.972c-0.235-0.723-0.355-1.48-0.46-2.147   c-0.187-1.183-0.349-2.205-1.083-2.655c-0.447-0.273-1.035-0.286-1.8-0.038c-2.352,0.764-4.98,5.352-5.805,6.887   c-0.369-0.741-1.033-1.301-1.841-1.534c1.325-1.402,4.614-5.122,4.614-7.5c0-0.859-0.184-1.415-0.579-1.748   c-0.587-0.496-1.433-0.353-2.502-0.169c-0.643,0.109-1.372,0.233-2.15,0.233c-0.76,0-1.517-0.12-2.185-0.226   c-1.184-0.188-2.205-0.35-2.859,0.209C9.714,2.937,9.52,3.493,9.52,4.297c0,2.378,3.288,6.097,4.614,7.5   c-0.804,0.232-1.464,0.787-1.834,1.521c-0.875-1.616-3.449-6.05-5.758-6.8C5.724,6.251,5.139,6.255,4.7,6.527   C4.048,6.932,3.923,7.78,3.766,8.855C3.671,9.5,3.564,10.232,3.324,10.972c-0.235,0.723-0.583,1.406-0.89,2.008   C1.89,14.047,1.42,14.968,1.75,15.763c0.201,0.485,0.669,0.841,1.434,1.089c0.343,0.111,0.739,0.161,1.169,0.161   c2.55,0,6.317-1.711,7.62-2.342c0.006,0.906,0.425,1.708,1.071,2.251c-1.234,0.208-7.105,1.297-8.669,3.449v0   c-0.505,0.695-0.683,1.253-0.559,1.754c0.184,0.746,0.953,1.126,1.926,1.608c0.584,0.289,1.246,0.617,1.876,1.074   c0.615,0.447,1.157,0.989,1.635,1.467c0.81,0.811,1.515,1.515,2.326,1.515c0.036,0,0.073-0.001,0.11-0.004   c0.523-0.041,1.007-0.377,1.479-1.027c1.591-2.19,0.756-8.292,0.591-9.38c0.367,0.161,0.77,0.254,1.195,0.254   c0.485,0,0.936-0.127,1.341-0.333c-0.154,1.012-1.018,7.205,0.587,9.413c0.505,0.695,0.98,1.037,1.496,1.074   c0.032,0.002,0.064,0.003,0.096,0.003c0.721,0,1.301-0.594,2.028-1.338c0.456-0.466,0.973-0.995,1.602-1.452   c0.615-0.447,1.298-0.794,1.9-1.101c1.067-0.543,1.989-1.013,2.19-1.85c0.123-0.51-0.047-1.074-0.52-1.724   c-1.592-2.192-7.658-3.282-8.739-3.462c0.61-0.547,1.003-1.332,1.003-2.214c0-0.028-0.008-0.054-0.008-0.083   c1.243,0.605,5.089,2.372,7.68,2.372c0.431,0,0.827-0.049,1.169-0.161c0.817-0.266,1.289-0.612,1.484-1.09   C28.551,14.977,28.153,14.217,27.649,13.256z M12.519,26.289c-0.322,0.443-0.623,0.678-0.894,0.7   c-0.498,0.034-1.101-0.572-1.808-1.279c-0.499-0.499-1.064-1.065-1.73-1.549c-0.684-0.497-1.378-0.841-1.991-1.144   c-0.756-0.374-1.409-0.697-1.504-1.083c-0.062-0.249,0.083-0.616,0.43-1.093v0c1.18-1.625,5.835-2.729,7.981-3.102   C13.311,19.896,13.701,24.663,12.519,26.289z M25.026,20.796c0.322,0.443,0.453,0.802,0.389,1.066   c-0.115,0.479-0.884,0.871-1.775,1.324c-0.628,0.32-1.341,0.683-2.007,1.167c-0.684,0.498-1.226,1.052-1.704,1.541   c-0.59,0.604-1.113,1.134-1.494,1.096c-0.255-0.019-0.56-0.27-0.906-0.746v0c-1.181-1.624-0.792-6.393-0.484-8.549   C19.191,18.067,23.846,19.171,25.026,20.796z M10.632,3.205c0.167-0.143,0.429-0.194,0.756-0.194c0.406,0,0.912,0.08,1.458,0.167   c0.697,0.111,1.486,0.236,2.31,0.236c0.846,0,1.61-0.13,2.284-0.245c0.831-0.142,1.55-0.265,1.852-0.008   c0.196,0.165,0.295,0.547,0.295,1.137c0,2.008-3.117,5.638-4.634,7.201c-1.517-1.563-4.634-5.192-4.634-7.201   C10.32,3.749,10.425,3.382,10.632,3.205z M3.431,16.092c-0.521-0.169-0.837-0.383-0.942-0.635   c-0.188-0.455,0.204-1.224,0.658-2.114c0.32-0.628,0.683-1.341,0.937-2.124c0.262-0.805,0.374-1.571,0.473-2.248   C4.68,8.136,4.786,7.416,5.122,7.207C5.214,7.15,5.339,7.121,5.495,7.121c0.21,0,0.478,0.053,0.8,0.157   c1.91,0.621,4.398,4.707,5.417,6.632C9.756,14.87,5.341,16.715,3.431,16.092z M14.954,16.833c-1.204,0-2.183-0.979-2.183-2.183   s0.979-2.183,2.183-2.183s2.183,0.979,2.183,2.183S16.157,16.833,14.954,16.833z M27.52,15.386   c-0.096,0.237-0.429,0.449-0.99,0.631c-1.911,0.621-6.325-1.223-8.281-2.182c1.019-1.926,3.507-6.012,5.417-6.632   c0.52-0.17,0.902-0.184,1.135-0.041c0.419,0.257,0.555,1.11,0.711,2.098c0.11,0.697,0.235,1.487,0.49,2.27   c0.261,0.805,0.621,1.491,0.938,2.097C27.332,14.374,27.67,15.019,27.52,15.386z"/>
        <g><path class="st2" d="M14.954,6.063"/></g>
        <g><g><path d="M14.954,6.463c-0.109,0-0.219-0.045-0.298-0.133c-0.147-0.165-0.134-0.417,0.031-0.565l1.045-0.938     c0.164-0.147,0.416-0.135,0.565,0.031c0.147,0.165,0.134,0.417-0.031,0.565l-1.045,0.938C15.144,6.429,15.049,6.463,14.954,6.463     z"/></g></g>
        <g><g><path d="M13.725,5.994c-0.109,0-0.219-0.045-0.298-0.133c-0.147-0.165-0.134-0.417,0.031-0.565l1.045-0.938     c0.163-0.147,0.417-0.133,0.565,0.031c0.147,0.165,0.134,0.417-0.031,0.565l-1.045,0.938C13.915,5.961,13.82,5.994,13.725,5.994z     "/></g></g>
        <path class="st2" d="M24.062,13.075"/>
        <g><path d="M24.062,13.475c-0.109,0-0.219-0.045-0.298-0.133c-0.147-0.165-0.134-0.417,0.031-0.565l1.045-0.938    c0.163-0.147,0.417-0.134,0.565,0.031c0.147,0.165,0.134,0.417-0.031,0.565l-1.045,0.938    C24.253,13.441,24.157,13.475,24.062,13.475z"/></g>
        <g><path d="M22.833,13.006c-0.109,0-0.219-0.045-0.298-0.133c-0.147-0.165-0.134-0.417,0.031-0.565l1.045-0.938    c0.164-0.147,0.417-0.134,0.565,0.031c0.147,0.165,0.134,0.417-0.031,0.565L23.1,12.904    C23.024,12.972,22.928,13.006,22.833,13.006z"/></g>
        <path class="st2" d="M20.654,23.015"/>
        <g><path d="M20.654,23.415c-0.109,0-0.219-0.045-0.298-0.133c-0.147-0.165-0.134-0.417,0.031-0.565l1.045-0.938    c0.163-0.147,0.417-0.135,0.565,0.031c0.147,0.165,0.134,0.417-0.031,0.565l-1.045,0.938    C20.845,23.381,20.749,23.415,20.654,23.415z"/></g>
        <g><path d="M19.425,22.946c-0.109,0-0.219-0.045-0.298-0.133c-0.147-0.165-0.134-0.417,0.031-0.565l1.045-0.938    c0.163-0.147,0.417-0.133,0.565,0.031c0.147,0.165,0.134,0.417-0.031,0.565l-1.045,0.938    C19.616,22.912,19.52,22.946,19.425,22.946z"/></g>
        <g><path d="M10.012,23.649c-0.109,0-0.219-0.045-0.298-0.133c-0.147-0.165-0.134-0.417,0.031-0.565l1.045-0.938    c0.163-0.147,0.417-0.134,0.565,0.031c0.147,0.165,0.134,0.417-0.031,0.565l-1.045,0.938    C10.203,23.615,10.107,23.649,10.012,23.649z"/></g>
        <g><path d="M8.783,23.18c-0.109,0-0.219-0.045-0.298-0.133c-0.147-0.165-0.134-0.417,0.031-0.565l1.045-0.938    c0.163-0.147,0.417-0.134,0.565,0.031c0.147,0.165,0.134,0.417-0.031,0.565L9.05,23.078C8.974,23.147,8.878,23.18,8.783,23.18z"/></g>
        <g><path d="M6.101,13.006c-0.109,0-0.219-0.045-0.298-0.133c-0.147-0.165-0.134-0.417,0.031-0.565l1.045-0.938    c0.163-0.147,0.417-0.134,0.565,0.031c0.147,0.165,0.134,0.417-0.031,0.565l-1.045,0.938C6.292,12.972,6.196,13.006,6.101,13.006z    "/></g>
        <g><path d="M4.872,12.537c-0.109,0-0.219-0.045-0.298-0.133C4.427,12.24,4.44,11.987,4.605,11.84l1.045-0.938    c0.164-0.147,0.416-0.134,0.565,0.031c0.147,0.165,0.134,0.417-0.031,0.565l-1.045,0.938C5.063,12.504,4.967,12.537,4.872,12.537z    "/></g>
        <g><circle class="st3" cx="16.478" cy="13.844" r="0.212"/></g>
        <g><circle class="st3" cx="15.211" cy="13.287" r="0.212"/></g>
        <g><ellipse class="st3" cx="14.149" cy="13.287" rx="0.212" ry="0.212" transform="matrix(0.9221 -0.387 0.387 0.9221 -4.0394 6.5099)"/></g>
        <g><ellipse class="st3" cx="13.49" cy="13.563" rx="0.212" ry="0.212" transform="matrix(0.9221 -0.387 0.387 0.9221 -4.1975 6.2767)"/></g>
        <g><circle class="st3" cx="14.22" cy="15.568" r="0.212"/></g>
        <g><circle class="st3" cx="14.22" cy="16.043" r="0.212"/></g>
        <g><circle class="st3" cx="15.102" cy="15.552" r="0.212"/></g>
        <g><circle class="st3" cx="15.9" cy="15.93" r="0.212"/></g>
        <g><circle class="st3" cx="14.889" cy="16.043" r="0.212"/></g>
        <g><circle class="st3" cx="14.819" cy="16.513" r="0.212"/></g>
        <g><circle class="st3" cx="16.69" cy="14.562" r="0.212"/></g>
        <g><circle class="st3" cx="15.896" cy="14.774" r="0.212"/></g>
        <g><circle class="st3" cx="16.478" cy="15.718" r="0.212"/></g>
        <g><ellipse class="st3" cx="14.761" cy="13.978" rx="0.212" ry="0.212" transform="matrix(0.9221 -0.387 0.387 0.9221 -4.259 6.8008)"/></g>
        <g><ellipse class="st3" cx="14.761" cy="12.863" rx="0.212" ry="0.212" transform="matrix(0.9221 -0.387 0.387 0.9221 -3.8275 6.714)"/></g>
        <g><ellipse class="st3" cx="15.845" cy="13.632" rx="0.212" ry="0.212" transform="matrix(0.9221 -0.387 0.387 0.9221 -4.0408 7.1931)"/></g>
        <g><ellipse class="st3" cx="15.559" cy="12.863" rx="0.212" ry="0.212" transform="matrix(0.866 -0.5 0.5 0.866 -4.347 9.5029)"/></g>
        <g><ellipse class="st3" cx="13.842" cy="14.959" rx="0.212" ry="0.212" transform="matrix(0.866 -0.5 0.5 0.866 -5.625 8.9253)"/></g>
        <g><ellipse class="st3" cx="13.195" cy="15.038" rx="0.212" ry="0.212" transform="matrix(0.866 -0.5 0.5 0.866 -5.7513 8.6124)"/></g>
        <g><ellipse class="st3" cx="13.49" cy="15.682" rx="0.212" ry="0.212" transform="matrix(0.866 -0.5 0.5 0.866 -6.0335 8.8461)"/></g>
        <g><ellipse class="st3" cx="13.301" cy="14.35" rx="0.212" ry="0.212" transform="matrix(0.866 -0.5 0.5 0.866 -5.3928 8.5731)"/></g>
        <g><ellipse class="st3" cx="15.112" cy="14.814" rx="0.212" ry="0.212" transform="matrix(0.5565 -0.8309 0.8309 0.5565 -5.606 19.1263)"/></g>
        <g><ellipse class="st3" cx="14.055" cy="13.844" rx="0.212" ry="0.212" transform="matrix(0.5565 -0.8309 0.8309 0.5565 -5.2694 17.8175)"/></g>
        <g><ellipse class="st3" cx="14.472" cy="14.959" rx="0.212" ry="0.212" transform="matrix(0.5565 -0.8309 0.8309 0.5565 -6.0104 18.6587)"/></g>
        <g><ellipse class="st3" cx="15.423" cy="14.35" rx="0.212" ry="0.212" transform="matrix(0.5565 -0.8309 0.8309 0.5565 -5.0822 19.1787)"/></g>
        <g><ellipse class="st3" cx="15.983" cy="15.356" rx="0.212" ry="0.212" transform="matrix(0.5565 -0.8309 0.8309 0.5565 -5.6701 20.0906)"/></g>
        <g><ellipse class="st3" cx="15.559" cy="16.438" rx="0.212" ry="0.212" transform="matrix(0.5565 -0.8309 0.8309 0.5565 -6.7571 20.218)"/></g></g></svg>
