<svg id="q15" xmlns="http://www.w3.org/2000/svg" viewBox="0 0 290.1 263.9">
    <defs>
        <style>
            .cls-1 {
            fill: none;
            stroke: #000;
            stroke-miterlimit: 10;
            stroke-width: 3px;
            }

            .cls-2 {
            font-size: 16px;
            font-family: Verdana;
            }
        </style>
    </defs>
    <title>q15-perimeter</title>
    <g id="Layer_22" data-name="Layer 22">
        <path class="cls-1" d="M259.5,160.6,220.3,92.4l-39.4,68.3h78.6Z" transform="translate(-48 -71.2)"/>
    </g>
    <g id="Layer_23" data-name="Layer 23">
        <path class="cls-1" d="M152.6,275.8,305.4,311,260,162.2l-1-.9L152.4,275.6Z" transform="translate(-48 -71.2)"/>
    </g>
    <path class="cls-1" d="M150,274.2h.3l30.6-113.6-114,30.7,82.9,82.9C149.8,274.2,149.9,274.2,150,274.2Z"
          transform="translate(-48 -71.2)"/>
    <polyline class="cls-1" points="69.4 170.7 102.2 204.1 141.8 213.2"/>
    <g id="Layer_24" data-name="Layer 24">
        <text class="cls-2" transform="translate(166.4 13.8)">A</text>
        <text class="cls-2" transform="translate(116.6 84.4)">P</text>
        <text class="cls-2" transform="translate(216.5 90.1)">Q</text>
        <text class="cls-2" transform="translate(0 128.8)">C</text>
        <text class="cls-2" transform="translate(90.2 226.5)">R</text>
        <text class="cls-2" transform="translate(262.6 259.1)">B</text>
        <text class="cls-2" transform="translate(250.4 159.7)">4 cm</text>
        <text class="cls-2" transform="translate(46.1 90.1)">3 cm</text>
        <text class="cls-2" transform="translate(206.9 51.3)">2 cm</text>
    </g>
    <g id="Layer_25" data-name="Layer 25">
        <line class="cls-1" x1="143.5" y1="50.2" x2="158.3" y2="60.9"/>
        <line class="cls-1" x1="187" y1="62.9" x2="201" y2="51.3"/>
        <line class="cls-1" x1="172.2" y1="81" x2="172.2" y2="99.2"/>
        <g>
            <line class="cls-1" x1="110.6" y1="142.1" x2="128.7" y2="140.4"/>
            <line class="cls-1" x1="110.2" y1="137.6" x2="128.3" y2="135.9"/>
        </g>
        <g>
            <line class="cls-1" x1="65.4" y1="99" x2="68.9" y2="116.9"/>
            <line class="cls-1" x1="69.9" y1="98.1" x2="73.4" y2="116"/>
        </g>
        <g>
            <line class="cls-1" x1="56.7" y1="145.9" x2="43.5" y2="158.5"/>
            <line class="cls-1" x1="59.9" y1="149.2" x2="46.7" y2="161.8"/>
        </g>
        <g>
            <g>
                <line class="cls-1" x1="170.4" y1="209.9" x2="164.7" y2="227.3"/>
                <line class="cls-1" x1="174.7" y1="211.3" x2="169.1" y2="228.7"/>
            </g>
            <line class="cls-1" x1="179.6" y1="212.9" x2="174" y2="230.3"/>
        </g>
        <g>
            <g>
                <line class="cls-1" x1="159.6" y1="133.5" x2="172.2" y2="146.7"/>
                <line class="cls-1" x1="162.9" y1="130.4" x2="175.5" y2="143.5"/>
            </g>
            <line class="cls-1" x1="166.7" y1="126.8" x2="179.3" y2="139.9"/>
        </g>
        <g>
            <g>
                <line class="cls-1" x1="238" y1="147.6" x2="221.1" y2="154.4"/>
                <line class="cls-1" x1="239.7" y1="151.8" x2="222.8" y2="158.6"/>
            </g>
            <line class="cls-1" x1="241.7" y1="156.6" x2="224.7" y2="163.4"/>
        </g>
    </g>
</svg>
