<svg width="512" height="512" xmlns="http://www.w3.org/2000/svg">

    <g>
        <title>background</title>
        <rect fill="none" id="canvas_background" height="402" width="582" y="-1" x="-1"/>
    </g>
    <g>
        <title>Layer 1</title>
        <path id="svg_1" fill="#7f7f7f"
              d="m429.639,404.189c8.939,-4.113 15.15,-13.143 15.15,-23.627c0,-12.37 -8.642,-22.715 -20.215,-25.346c6.208,-4.752 10.215,-12.234 10.215,-20.654c0,-14.359 -11.641,-26 -26,-26c-0.235,0 -0.468,0.011 -0.701,0.018c6.483,-4.729 10.701,-12.379 10.701,-21.018c0,-14.359 -11.641,-26 -26,-26s-26,11.641 -26,26s11.641,26 26,26c0.234,0 0.467,-0.012 0.701,-0.018c-6.484,4.728 -10.701,12.378 -10.701,21.018c0,12.369 8.641,22.714 20.214,25.346c-6.207,4.751 -10.214,12.232 -10.214,20.654c0,10.616 6.366,19.74 15.487,23.779c-9.978,4.325 -17.229,14.427 -18.194,26.471c-0.119,1.48 0.979,2.75 2.355,2.75l53.41,0c1.378,0 2.475,-1.27 2.354,-2.75c-0.975,-12.191 -8.394,-22.389 -18.562,-26.623z"/>
        <path id="svg_2" fill="#7f7f7f"
              d="m119.212,261.563c-14.359,0 -26,11.641 -26,26c0,8.639 4.218,16.289 10.701,21.018c-0.233,-0.007 -0.466,-0.018 -0.701,-0.018c-14.359,0 -26,11.641 -26,26c0,8.42 4.007,15.902 10.215,20.654c-11.573,2.631 -20.215,12.976 -20.215,25.346c0,10.484 6.21,19.514 15.15,23.627c-10.168,4.233 -17.587,14.432 -18.565,26.623c-0.118,1.48 0.979,2.75 2.356,2.75l53.41,0c1.378,0 2.475,-1.27 2.355,-2.75c-0.966,-12.044 -8.217,-22.146 -18.194,-26.471c9.121,-4.039 15.487,-13.163 15.487,-23.779c0,-8.422 -4.007,-15.903 -10.214,-20.654c11.573,-2.632 20.214,-12.977 20.214,-25.346c0,-8.64 -4.217,-16.29 -10.701,-21.018c0.234,0.006 0.467,0.018 0.701,0.018c14.359,0 26,-11.641 26,-26s-11.639,-26 -25.999,-26z"/>
        <circle id="svg_3" r="36.537" fill="#cccccc" cy="235.501" cx="116.731"/>
        <path id="svg_4" fill="#b2b2b2"
              d="m116.732,257.858c-17.753,0 -32.542,-12.662 -35.844,-29.447c-0.451,2.294 -0.693,4.663 -0.693,7.09c0,20.178 16.358,36.536 36.537,36.536s36.536,-16.358 36.536,-36.536c0,-2.427 -0.242,-4.796 -0.693,-7.09c-3.301,16.785 -18.091,29.447 -35.843,29.447z"/>
        <circle id="svg_5" r="36.537" fill="#cccccc" cy="235.501" cx="395.27"/>
        <path id="svg_6" fill="#b2b2b2"
              d="m395.27,257.858c-17.752,0 -32.542,-12.662 -35.843,-29.447c-0.451,2.294 -0.693,4.663 -0.693,7.09c0,20.178 16.357,36.536 36.536,36.536s36.537,-16.358 36.537,-36.536c0,-2.427 -0.242,-4.796 -0.693,-7.09c-3.302,16.785 -18.093,29.447 -35.844,29.447z"/>
        <circle id="svg_7" r="150.5" fill="#7f7f7f" cy="164.063" cx="256.001"/>
        <path id="svg_8" fill="#7f7f7f"
              d="m368.882,451.68c0,62.344 -225.762,62.344 -225.762,0c0,-62.342 50.538,-112.881 112.881,-112.881c62.343,0 112.881,50.539 112.881,112.881z"/>
        <path id="svg_9" fill="#7f7f7f"
              d="m256,338.799c-55.722,0 -102.008,40.376 -111.212,93.467c19.419,50.416 203.005,50.416 222.424,0c-9.203,-53.091 -55.489,-93.467 -111.212,-93.467z"/>
        <circle id="svg_10" r="44.716" fill="#cccccc" cy="354.926" cx="256.001"/>
        <path id="svg_11" fill="#999999"
              d="m256,310.209c-19.94,0 -36.826,13.057 -42.592,31.084c5.766,18.027 22.651,31.083 42.592,31.083c19.941,0 36.827,-13.056 42.592,-31.083c-5.765,-18.027 -22.651,-31.084 -42.592,-31.084z"/>
        <path id="svg_12" fill="#cccccc"
              d="m383.997,180.969c-2.857,-68.226 -55.772,-122.666 -127.966,-122.696l0,-0.001c-0.01,0 -0.02,0 -0.03,0c-0.01,0 -0.02,0 -0.03,0l0,0.001c-72.193,0.03 -125.108,54.471 -127.966,122.696l-0.124,0l0,78.526l0.124,0c2.857,68.224 60.131,100.864 127.966,100.884l0,0c0.011,0 0.021,0 0.03,0c0.011,0 0.021,0 0.03,0l0,0c67.835,-0.02 125.109,-32.66 127.966,-100.884l0.124,0l0,-78.526l-0.124,0z"/>
        <path id="svg_13" fill="#7f7f7f"
              d="m143.12,451.68c0,17.054 16.9,29.436 41.444,37.159l0,-124.537c-25.292,20.7 -41.444,52.146 -41.444,87.378z"/>
        <path id="svg_14" fill="#7f7f7f"
              d="m368.882,451.68c0,-31.801 -13.157,-60.522 -34.318,-81.038l0,115.745c20.63,-7.79 34.318,-19.358 34.318,-34.707z"/>
        <path id="svg_15" fill="#999999"
              d="m144.789,432.266c4.819,12.511 19.754,21.914 39.775,28.215l0,-96.183c-20.538,16.81 -35.05,40.707 -39.775,67.968z"/>
        <path id="svg_16" fill="#999999"
              d="m367.213,432.266c-4.159,-23.99 -15.897,-45.376 -32.649,-61.62l0,87.376c16.404,-6.198 28.421,-14.78 32.649,-25.756z"/>
        <circle id="svg_17" r="30.538" fill="#b2b2b2" cy="269.855" cx="174.203"/>
        <circle id="svg_18" r="30.538" fill="#b2b2b2" cy="269.855" cx="337.799"/>
        <circle id="svg_19" r="17.45" fill="#493E2F" cy="216.414" cx="208.045"/>
        <circle id="svg_20" r="17.45" fill="#493E2F" cy="216.414" cx="304.145"/>
        <path id="svg_21" fill="#b2b2b2"
              d="m256.545,293.734c-9.077,0 -18.154,-3.455 -25.064,-10.365c-2.343,-2.344 -2.343,-6.143 0,-8.486c2.343,-2.342 6.143,-2.342 8.485,0c9.144,9.145 24.018,9.143 33.16,0c2.343,-2.342 6.143,-2.342 8.485,0c2.343,2.344 2.343,6.143 0,8.486c-6.911,6.91 -15.988,10.365 -25.066,10.365z"/>
        <path id="svg_22" fill="#4c4c4c"
              d="m128.307,183.563c-6.588,0 -11.832,-6.066 -11.264,-13.149c6.172,-76.974 66.029,-137.373 138.957,-137.373c72.929,0 132.786,60.399 138.958,137.372c0.568,7.083 -4.676,13.149 -11.265,13.149l-255.386,0l0,0.001z"/>
    </g>
</svg>
