<?xml version="1.0" encoding="utf-8"?>
<!-- Generator: Adobe Illustrator 23.0.5, SVG Export Plug-In . SVG Version: 6.00 Build 0)  -->
<svg version="1.1" xmlns="http://www.w3.org/2000/svg" x="0px" y="0px"
     viewBox="0 0 1117 772" style="enable-background:new 0 0 1117 772;" xml:space="preserve">
<style type="text/css">
	.st0{fill:none;stroke:#4FAEFF;stroke-width:3;stroke-miterlimit:10;}
	.st1{font-family:'Verdana';}
	.st2{font-size:50.9478px;}
	.st3{fill:none;}
	.st4{fill:#F15A24;}
</style>
    <g id="Layer_1">
	<circle class="st0" cx="351.5" cy="420.5" r="349"/>
        <circle class="st0" cx="764.5" cy="420.5" r="349"/>
</g>
    <g id="Layer_2">
	<text transform="matrix(1 0 0 1 190.959 39.5513)" class="st1 st2" style="font-size:45px">cold coffee</text>
        <text transform="matrix(1 0 0 1 641.959 39.5513)" class="st1 st2" style="font-size:45px">lemon cake</text>
        <rect x="429.2" y="80.5" class="st3" width="1.6" height="9"/>
</g>
    <g id="Layer_3">
	<polygon class="st4" points="402.6,176.5 398.1,172 376.8,193.3 355.5,172 351,176.5 372.3,197.8 351,219.1 355.5,223.6
		376.8,202.3 398.1,223.6 402.6,219.1 381.3,197.8 	"/>
        <polygon class="st4" points="233.6,173.5 229.1,169 207.8,190.3 186.5,169 182,173.5 203.3,194.8 182,216.1 186.5,220.6
		207.8,199.3 229.1,220.6 233.6,216.1 212.3,194.8 	"/>
        <polygon class="st4" points="363.6,345.5 359.1,341 337.8,362.3 316.5,341 312,345.5 333.3,366.8 312,388.1 316.5,392.6
		337.8,371.3 359.1,392.6 363.6,388.1 342.3,366.8 	"/>
        <polygon class="st4" points="177.6,319.5 173.1,315 151.8,336.3 130.5,315 126,319.5 147.3,340.8 126,362.1 130.5,366.6
		151.8,345.3 173.1,366.6 177.6,362.1 156.3,340.8 	"/>
        <polygon class="st4" points="339.6,477.5 335.1,473 313.8,494.3 292.5,473 288,477.5 309.3,498.8 288,520.1 292.5,524.6
		313.8,503.3 335.1,524.6 339.6,520.1 318.3,498.8 	"/>
        <polygon class="st4" points="138.6,451.5 134.1,447 112.8,468.3 91.5,447 87,451.5 108.3,472.8 87,494.1 91.5,498.6 112.8,477.3
		134.1,498.6 138.6,494.1 117.3,472.8 	"/>
        <polygon class="st4" points="402.6,645.5 398.1,641 376.8,662.3 355.5,641 351,645.5 372.3,666.8 351,688.1 355.5,692.6
		376.8,671.3 398.1,692.6 402.6,688.1 381.3,666.8 	"/>
        <polygon class="st4" points="190.6,593.5 186.1,589 164.8,610.3 143.5,589 139,593.5 160.3,614.8 139,636.1 143.5,640.6
		164.8,619.3 186.1,640.6 190.6,636.1 169.3,614.8 	"/>
        <polygon class="st4" points="790.6,215.5 786.1,211 764.8,232.3 743.5,211 739,215.5 760.3,236.8 739,258.1 743.5,262.6
		764.8,241.3 786.1,262.6 790.6,258.1 769.3,236.8 	"/>
        <polygon class="st4" points="961.6,251.5 957.1,247 935.8,268.3 914.5,247 910,251.5 931.3,272.8 910,294.1 914.5,298.6
		935.8,277.3 957.1,298.6 961.6,294.1 940.3,272.8 	"/>
        <polygon class="st4" points="831.6,371.5 827.1,367 805.8,388.3 784.5,367 780,371.5 801.3,392.8 780,414.1 784.5,418.6
		805.8,397.3 827.1,418.6 831.6,414.1 810.3,392.8 	"/>
        <polygon class="st4" points="1003.6,435.5 999.1,431 977.8,452.3 956.5,431 952,435.5 973.3,456.8 952,478.1 956.5,482.6
		977.8,461.3 999.1,482.6 1003.6,478.1 982.3,456.8 	"/>
        <polygon class="st4" points="883.6,593.5 879.1,589 857.8,610.3 836.5,589 832,593.5 853.3,614.8 832,636.1 836.5,640.6
		857.8,619.3 879.1,640.6 883.6,636.1 862.3,614.8 	"/>
        <polygon class="st4" points="583.6,541.5 579.1,537 557.8,558.3 536.5,537 532,541.5 553.3,562.8 532,584.1 536.5,588.6
		557.8,567.3 579.1,588.6 583.6,584.1 562.3,562.8 	"/>
        <polygon class="st4" points="583.6,409.5 579.1,405 557.8,426.3 536.5,405 532,409.5 553.3,430.8 532,452.1 536.5,456.6
		557.8,435.3 579.1,456.6 583.6,452.1 562.3,430.8 	"/>
        <polygon class="st4" points="583.6,277.5 579.1,273 557.8,294.3 536.5,273 532,277.5 553.3,298.8 532,320.1 536.5,324.6
		557.8,303.3 579.1,324.6 583.6,320.1 562.3,298.8 	"/>
</g>
</svg>
