<?xml version="1.0" ?><svg id="OBJECT" viewBox="0 0 512 512" xmlns="http://www.w3.org/2000/svg"><defs><style>.cls-1{fill:#fff;}.cls-2{fill:#3d9ae2;}.cls-3{fill:#bddbff;}</style></defs><title/><polygon class="cls-1" points="212.06 257.5 81 504.5 115.64 504.5 258.25 257.5 212.06 257.5"/><path class="cls-2" d="M115.64,512H81a7.49,7.49,0,0,1-6.62-11L205.43,254a7.5,7.5,0,0,1,6.63-4h46.19a7.5,7.5,0,0,1,6.49,11.25l-142.6,247A7.51,7.51,0,0,1,115.64,512ZM93.47,497h17.84l134-232H216.57Z"/><polygon class="cls-1" points="299.94 257.5 253.75 257.5 396.36 504.5 431 504.5 299.94 257.5"/><path class="cls-2" d="M431,512H396.36a7.51,7.51,0,0,1-6.5-3.75l-142.6-247A7.5,7.5,0,0,1,253.75,250h46.19a7.5,7.5,0,0,1,6.63,4L437.63,501A7.5,7.5,0,0,1,431,512Zm-30.31-15h17.84L295.43,265H266.74Z"/><polygon class="cls-1" points="271 504.5 241 504.5 236 210 276 210 271 504.5"/><path class="cls-2" d="M271,512H241a7.5,7.5,0,0,1-7.5-7.37l-5-294.5a7.5,7.5,0,0,1,7.5-7.63h40a7.5,7.5,0,0,1,7.5,7.63l-5,294.5A7.5,7.5,0,0,1,271,512Zm-22.63-15h15.26l4.74-279.5H243.63Z"/><rect class="cls-1" height="261" width="440" x="36" y="76"/><path class="cls-2" d="M476,344.5H36a7.5,7.5,0,0,1-7.5-7.5V76A7.5,7.5,0,0,1,36,68.5H476a7.5,7.5,0,0,1,7.5,7.5V337A7.5,7.5,0,0,1,476,344.5Zm-432.5-15h425V83.5H43.5Z"/><path class="cls-3" d="M236,7.5h40a20,20,0,0,1,20,20V46a0,0,0,0,1,0,0H216a0,0,0,0,1,0,0V27.5A20,20,0,0,1,236,7.5Z"/><path class="cls-2" d="M296,53.5H216a7.5,7.5,0,0,1-7.5-7.5V27.5A27.54,27.54,0,0,1,236,0h40a27.54,27.54,0,0,1,27.5,27.5V46A7.5,7.5,0,0,1,296,53.5Zm-72.5-15h65v-11A12.52,12.52,0,0,0,276,15H236a12.52,12.52,0,0,0-12.5,12.5Z"/><path class="cls-2" d="M476,424.5a7.5,7.5,0,0,1-7.5-7.5V367a7.5,7.5,0,0,1,15,0v50A7.5,7.5,0,0,1,476,424.5Z"/><path class="cls-2" d="M476,474.5A32.5,32.5,0,1,1,508.5,442,32.54,32.54,0,0,1,476,474.5Zm0-50A17.5,17.5,0,1,0,493.5,442,17.52,17.52,0,0,0,476,424.5Z"/><rect class="cls-3" height="40" width="497" x="7.5" y="327"/><path class="cls-2" d="M504.5,374.5H7.5A7.5,7.5,0,0,1,0,367V327a7.5,7.5,0,0,1,7.5-7.5h497A7.5,7.5,0,0,1,512,327v40A7.5,7.5,0,0,1,504.5,374.5ZM15,359.5H497v-25H15Z"/><rect class="cls-3" height="40" width="497" x="7.5" y="46"/><path class="cls-2" d="M504.5,93.5H7.5A7.5,7.5,0,0,1,0,86V46a7.5,7.5,0,0,1,7.5-7.5h497A7.5,7.5,0,0,1,512,46V86A7.5,7.5,0,0,1,504.5,93.5ZM15,78.5H497v-25H15Z"/></svg>