<svg width="44.99999999999999" height="25" xmlns="http://www.w3.org/2000/svg">

    <g>
        <title>background</title>
        <rect fill="none" id="canvas_background" height="27" width="47" y="-1" x="-1"/>
    </g>
    <g>
        <title>Layer 1</title>
        <path id="svg_1" d="m447.894,205.675991"/>
        <path fill="#2cc0fe" id="svg_2"
              d="m456.389,196.913991c0,0 -1.19,-1.19 -4.212,0c0,0 -5.861,-5.448 -11.538,1.282c0,0 -8.012,-0.183 -7.6,7.417c0,0 -9.478,5.54 0.504,10.027c0,0 4.395,6.685 10.256,1.557c0,0 7.509,5.586 10.256,-0.824c0,0 6.227,7.326 9.981,0.275c0,0 6.685,6.501 11.629,-0.641c0,0 12.091,4.53 11.355,-9.731c0,0 -2.198,-4.005 -5.036,-3.73c0,0 -1.74,-9.615 -8.791,-7.142c0,0 -8.516,-4.212 -12.362,1.19c-0.001,0 -3.449,-0.166 -4.442,0.32z"
              class="st0"/>
        <path fill="#b5e7fe" opacity="0.33" id="svg_3"
              d="m462.395,198.967991c0,0 4.891,-6.325 9.298,0c0,0 6.838,-2.806 8.459,4.196c0.101,0.435 0,1.786 0,1.786s3.022,-0.069 4.739,2.335c0,0 1.648,8.104 -8.104,7.211c0,0 0.036,-0.57 -2.974,2.383l1.852,-0.873c0,0 7.917,3.022 11.387,-4.327c0,0 1.959,-6.387 -4.359,-9.134c0,0 -2.083,-9.546 -10.382,-7.005c0,0 -6.444,-4.876 -11.046,0.893c0,0 -2.678,1.292 0.824,2.535"
              class="st1"/>
        <path fill="#b5e7fe" opacity="0.33" id="svg_4"
              d="m454.02,200.126991c0,0 -5.002,-7.52 -9.409,-0.939c0,0 -6.726,-1.981 -8.348,5.305c-0.101,0.453 0,1.858 0,1.858s-3.421,-0.391 -4.229,2.533c-0.807,2.918 -0.129,6.035 9.658,6.478c0.88,0.04 5.185,0.973 0.911,3.402c0,0 -0.538,-0.348 -0.739,-0.414c-3.054,-1.017 -7.005,-0.927 -11.69,-5.391c0,0 -0.932,-5.626 3.62,-7.978c0,0 -0.137,-7.337 10.31,-8.421c0,0 0.61,-4.583 13.693,0.98c0,0 0.031,1.293 -3.471,2.586"
              class="st1"/>
        <ellipse fill="#b5e7fe" opacity="0.33" id="svg_5" ry="6.288" rx="11.538" cy="201.110991" cx="468.287"
                 class="st1"/>
        <path fill="#b5e7fe" opacity="0.33" id="svg_6"
              d="m453.524,201.588991c-2.015,1.899 -4.165,5.453 -9.304,5.453s-9.304,-2.441 -9.304,-5.453c0,-1.815 2.792,-2.729 5.723,-4.033c1.934,-0.86 3.635,-2.503 5.677,-2.503c5.139,-0.001 9.763,4.128 7.208,6.536z"
              class="st1"/>
        <path id="svg_7"
              d="m486.513,204.404991c-0.927,-1.055 -1.867,-1.767 -2.96,-2.242c-0.2,-0.086 -0.401,-0.162 -0.607,-0.229c-0.564,-2.941 -1.856,-5.064 -3.85,-6.311c-1.912,-1.199 -3.968,-1.531 -6.076,-0.942c-0.725,-0.672 -1.567,-1.218 -2.462,-1.595c-2.402,-1.011 -5.142,-0.754 -7.522,0.696c-0.266,0.163 -0.522,0.34 -0.723,0.502c-0.76,0.533 -1.406,1.203 -1.893,1.959c-0.547,-0.068 -1.1,-0.083 -1.685,-0.047c-0.356,0.022 -0.711,0.091 -1.069,0.183c-1.679,-0.891 -3.461,-1.122 -5.28,-0.618c-0.694,-0.638 -1.496,-1.158 -2.346,-1.515c-2.303,-0.969 -4.936,-0.725 -7.224,0.669c-0.255,0.155 -0.499,0.325 -0.693,0.48c-0.724,0.508 -1.339,1.145 -1.805,1.864c-0.52,-0.064 -1.039,-0.077 -1.594,-0.043c-1.002,0.061 -1.988,0.403 -3.103,1.074c-1.453,0.876 -2.538,2.413 -3.138,4.448c-0.205,0.696 -0.296,1.459 -0.27,2.242c-1.261,0.403 -2.368,1.195 -3.112,2.244c-1.852,2.614 -1.579,6.073 0.635,8.046c1.068,0.952 2.462,1.451 3.98,1.372c0.954,1.484 2.315,2.565 3.803,3.004c1.287,0.378 2.42,0.45 3.469,0.221c1.19,-0.261 2.226,-0.786 3.152,-1.599c1.374,1.15 3.248,1.805 5.119,1.805c0.403,0 0.806,-0.03 1.204,-0.093c1.572,-0.247 3.051,-0.961 4.279,-2.065c0.812,0.786 1.741,1.383 2.74,1.676c1.34,0.395 2.522,0.471 3.61,0.231c1.251,-0.273 2.339,-0.827 3.307,-1.687c1.434,1.212 3.397,1.902 5.359,1.902c0.421,0 0.839,-0.031 1.253,-0.097c1.919,-0.3 3.696,-1.269 5.069,-2.754c2.938,1.219 6.466,0.786 8.812,-1.141c1.803,-1.479 2.994,-3.512 3.271,-5.579c0.309,-2.306 -0.292,-4.514 -1.65,-6.061zm-36.323,13.839c-1.926,0.297 -4,-0.348 -5.421,-1.802c-0.171,-0.181 -0.476,-0.215 -0.724,-0.206c-0.249,0.005 -0.548,0.187 -0.711,0.376c-0.798,0.818 -1.663,1.306 -2.721,1.539c-0.752,0.163 -1.602,0.1 -2.597,-0.191c-1.208,-0.356 -2.323,-1.327 -3.057,-2.666c-0.176,-0.321 -0.525,-0.509 -0.895,-0.447c-1.183,0.17 -2.334,-0.153 -3.157,-0.889c-1.76,-1.569 -1.504,-4.116 -0.371,-5.716c0.631,-0.89 1.642,-1.518 2.774,-1.727c0.46,-0.085 0.774,-0.516 0.713,-0.98c-0.106,-0.811 -0.056,-1.605 0.149,-2.3c0.329,-1.119 1.007,-2.625 2.359,-3.438c0.863,-0.52 1.595,-0.782 2.303,-0.825c0.621,-0.035 1.189,-0.003 1.775,0.113c0.39,0.078 0.775,-0.114 0.953,-0.464c0.355,-0.695 0.898,-1.313 1.611,-1.815c0.179,-0.141 0.365,-0.27 0.559,-0.388c1.801,-1.097 3.853,-1.298 5.628,-0.55c0.795,0.335 1.539,0.852 2.15,1.497c0.239,0.252 0.7,0.305 1.024,0.188c0.956,-0.34 1.914,-0.369 2.865,-0.152c-1.453,0.923 -2.548,2.484 -3.157,4.548c-0.216,0.734 -0.31,1.54 -0.28,2.364c-1.324,0.416 -2.487,1.245 -3.265,2.344c-1.926,2.717 -1.643,6.314 0.659,8.366c1.116,0.995 2.61,1.491 4.158,1.424c0.03,0.048 0.069,0.086 0.1,0.133c-0.009,0.008 -0.021,0.01 -0.03,0.018c-0.98,0.881 -2.153,1.451 -3.394,1.646zm36.23,-8.011c-0.219,1.631 -1.183,3.255 -2.644,4.454c-1.987,1.628 -5.084,1.896 -7.527,0.642c-0.365,-0.189 -0.826,-0.096 -1.088,0.233c-1.15,1.437 -2.721,2.375 -4.421,2.642c-2.045,0.313 -4.217,-0.367 -5.713,-1.899c-0.157,-0.167 -0.429,-0.204 -0.665,-0.204c-0.021,0 -0.043,0 -0.062,0.001c-0.251,0.006 -0.552,0.191 -0.715,0.381c-0.843,0.864 -1.756,1.379 -2.869,1.623c-0.792,0.174 -1.689,0.108 -2.737,-0.201c-1.275,-0.374 -2.451,-1.398 -3.225,-2.809c-0.175,-0.321 -0.524,-0.499 -0.895,-0.447c-1.257,0.175 -2.468,-0.164 -3.336,-0.938c-1.86,-1.659 -1.591,-4.349 -0.394,-6.038c0.665,-0.939 1.733,-1.604 2.928,-1.823c0.46,-0.085 0.775,-0.516 0.713,-0.981c-0.114,-0.853 -0.059,-1.691 0.157,-2.422c0.347,-1.178 1.06,-2.763 2.487,-3.624c0.906,-0.546 1.677,-0.822 2.428,-0.868c0.654,-0.044 1.251,-0.003 1.867,0.118c0.401,0.077 0.775,-0.114 0.953,-0.463c0.376,-0.734 0.949,-1.386 1.7,-1.914c0.187,-0.148 0.382,-0.284 0.588,-0.409c1.897,-1.155 4.056,-1.367 5.926,-0.578c0.841,0.354 1.625,0.898 2.262,1.575c0.238,0.251 0.702,0.3 1.03,0.188c1.661,-0.588 3.385,-0.367 4.996,0.643c1.663,1.043 2.721,2.946 3.142,5.654c0.056,0.354 0.32,0.64 0.67,0.721c0.298,0.07 0.592,0.164 0.878,0.288c0.856,0.372 1.577,0.924 2.337,1.79c1.023,1.162 1.472,2.863 1.229,4.665z"/>
        <g stroke="null" id="svg_27">
            <path stroke="null" fill="#b49f77" id="svg_9"
                  d="m11.861761,4.129783c0,0 -0.058118,-1.314819 0.329338,-1.109925c0,0 0.406357,0.225383 0.328865,1.37179l0.080799,1.925003l-0.052448,1.289832l0.052448,1.346803l-0.370919,1.048957l-0.445575,-1.396277c0,0 0.27122,-0.712631 0.232474,-0.897035c-0.038746,-0.184405 -0.253737,-0.445269 -0.281615,-0.683646s0.126632,-2.895501 0.126632,-2.895501z"
                  class="st2"/>
            <path stroke="null" fill="#fdf288" id="svg_10"
                  d="m8.047677,6.111257l3.736592,1.597173c0,0 -0.290592,1.494726 -3.562237,1.208374l-0.251847,-1.208374c0,0 -0.909578,-0.962002 0.077491,-1.597173z"
                  class="st3"/>
            <path stroke="null" fill="#ffca0a" id="svg_11"
                  d="m11.610387,4.227733c0,0 -4.269108,-4.346249 -6.156777,-1.827554l1.568254,2.011958l0.493771,1.289832l2.352144,1.074943l1.742609,0.829071l0.174355,0l0,-1.289832l-0.095447,-1.766585l-0.078909,-0.321833z"
                  class="st4"/>
            <path stroke="null" fill="#ffca0a" id="svg_12"
                  d="m12.442945,4.514084c0,0 3.427099,-4.218316 6.486115,-2.293312c0,0 0.154983,0.67565 -1.065033,1.67913c0,0 -0.832559,0.552714 -0.813186,1.453747c0,0 0.251847,0.737118 -1.529508,0.962502l-3.078389,1.392279l0.173883,-1.207875l-0.173883,-1.986471z"
                  class="st4"/>
            <path stroke="null" fill="#fdf288" id="svg_13"
                  d="m12.442945,7.647462l3.794711,-1.474237c0,0 0.791451,0.15542 0.183806,1.535705l-0.203178,0.982991c0,0 0.261297,0.337825 -1.113228,0.214889l-1.587626,-0.286851l-0.871304,-0.655161l-0.203178,-0.317336z"
                  class="st3"/>
            <path stroke="null" fill="#ffca0a" id="svg_14"
                  d="m11.687878,8.097729c0,0 -0.799011,0.893537 -3.245656,0.835567c0,0 -0.568427,0.454265 0.573625,1.805565c0,0 1.297034,1.310321 2.090847,-0.266362c0,0.0005 0.832559,-0.941512 0.581185,-2.37477z"
                  class="st4"/>
            <path stroke="null" fill="#ffca0a" id="svg_15"
                  d="m12.442945,8.03626c0,0 1.703863,1.37179 3.659101,0.737118l0,0.470756l-0.309965,0.839565c0,0 -1.393898,2.436738 -2.517049,0.573203l-0.696949,-2.04744l-0.135137,-0.573203z"
                  class="st4"/>
            <circle stroke="null" id="svg_16" r="0.503534" cy="2.78398" cx="17.070215"/>
            <circle stroke="null" id="svg_17" r="0.360837" cy="4.129783" cx="16.653935"/>
            <circle stroke="null" id="svg_18" r="0.184083" cy="5.152754" cx="16.257974"/>
            <ellipse stroke="null" id="svg_19"
                     transform="matrix(0.46901129360313426,-0.060668583614267024,0.057362453197078875,0.4960431309351026,-0.05571670298945319,1.9006272430173266) "
                     ry="1.168" rx="1.168" cy="3.758974" cx="15.159246"/>
            <ellipse stroke="null" id="svg_20"
                     transform="matrix(0.46901129360313426,-0.060668583614267024,0.057362453197078875,0.4960431309351026,-0.19874482970078577,1.9830345695246792) "
                     ry="0.837" rx="0.837" cy="6.324974" cx="16.361246"/>
            <ellipse stroke="null" id="svg_21"
                     transform="matrix(0.46901129360313426,-0.060668583614267024,0.057362453197078875,0.4960431309351026,-0.3057678581121397,2.0556969423213385) "
                     ry="0.427" rx="0.427" cy="8.255974" cx="17.440246"/>
            <ellipse stroke="null" fill="#ffca0a" id="svg_22"
                     transform="matrix(0.43149417017769714,-0.20359457137110695,0.19249969878492532,0.4563636783900218,-2.332448535648472,6.935819838271929) "
                     ry="0.459" rx="0.343" cy="18.119876" cx="33.500625" class="st4"/>
            <ellipse stroke="null" fill="#ffca0a" id="svg_23"
                     transform="matrix(0.43149417017769714,-0.20359457137110695,0.19249969878492532,0.4563636783900218,-1.8106581150098044,7.018527009508842) "
                     ry="0.564" rx="0.343" cy="15.609876" cx="34.441625" class="st4"/>
            <ellipse stroke="null" fill="#ffca0a" id="svg_24"
                     transform="matrix(0.43149417017769714,-0.20359457137110695,0.19249969878492532,0.4563636783900218,-2.4271863599154764,3.74662132055226) "
                     ry="0.611" rx="0.456" cy="15.399876" cx="18.416625" class="st4"/>
            <ellipse stroke="null" fill="#ffca0a" id="svg_25"
                     transform="matrix(0.43149417017769714,-0.20359457137110695,0.19249969878492532,0.4563636783900218,-2.8678944332014353,4.026926168569084) "
                     ry="0.524" rx="0.318" cy="17.870876" cx="19.267625" class="st4"/>
            <path stroke="null" id="svg_26"
                  d="m19.050023,2.152807c-0.050558,-0.147923 -0.177663,-0.34832 -0.499913,-0.465759c-0.762155,-0.277856 -1.527145,-0.177908 -2.106913,-0.060469c-1.34145,0.272359 -2.507127,0.980992 -3.564599,2.167378c-0.031658,0.035482 -0.068041,0.067965 -0.101589,0.101947c0.00189,-0.053972 0.002835,-0.109943 0.001418,-0.164915c0,-0.001999 0.000945,-0.003998 0.000473,-0.005997c0,-0.002499 -0.000945,-0.004498 -0.000945,-0.006996c-0.002835,-0.09745 -0.012285,-0.190401 -0.035911,-0.254368c-0.205541,-0.564708 0.528736,-1.207375 0.758375,-1.39078c0.135137,-0.107444 0.16207,-0.097949 0.216881,-0.059969c0.125687,0.086955 0.27122,0.041978 0.378006,0.007996l0.053393,-0.016491c0.099699,-0.026486 0.16018,-0.133431 0.134665,-0.238377c-0.025043,-0.105445 -0.126632,-0.169412 -0.225386,-0.142426l-0.068986,0.020489c-0.031186,0.009995 -0.084106,0.026486 -0.067569,0.039979c-0.294372,-0.204394 -0.531099,-0.016491 -0.644973,0.074461c-0.47865,0.381802 -0.783418,0.788092 -0.894457,1.176391c-0.070876,-0.040479 -0.144587,-0.062468 -0.214991,-0.062468c-0.000473,0 -0.001418,0 -0.002363,0c-0.060954,0.0005 -0.12427,0.014492 -0.185696,0.044977c-0.116709,-0.379803 -0.416279,-0.776598 -0.884062,-1.149405c-0.113874,-0.090453 -0.349656,-0.278856 -0.610008,-0.088454c-0.030713,0.005997 -0.070876,-0.015992 -0.102062,-0.025987l-0.069459,-0.020489c-0.097809,-0.025987 -0.200343,0.036981 -0.225386,0.142426c-0.025043,0.104946 0.034966,0.21189 0.134665,0.238377l0.053393,0.016491c0.106314,0.033483 0.251847,0.078959 0.378006,-0.007996c0.055756,-0.03948 0.082216,-0.047475 0.216409,0.059469c0.228221,0.181906 0.950213,0.815578 0.76121,1.377287c-0.004253,0.017991 -0.008978,0.034982 -0.012285,0.053972c-0.014175,0.054472 -0.022208,0.119438 -0.025043,0.190901c-0.000473,0.002998 -0.000945,0.005497 -0.001418,0.008995c0,0.001999 0.000945,0.003998 0.000473,0.005997c-0.002363,0.061968 -0.000945,0.124436 0.000945,0.185404c-0.039218,-0.041479 -0.078436,-0.083457 -0.114347,-0.121437l-0.149312,-0.157918c-1.192137,-1.252851 -2.481611,-1.932 -3.942133,-2.077424c-0.550472,-0.054972 -1.138271,-0.067965 -1.67693,0.1939c-0.180025,0.042978 -0.399269,0.177408 -0.414389,0.570205c-0.016065,0.416784 0.210266,0.692641 0.369974,0.851059l0.125687,0.15542c0.097337,0.120937 0.194201,0.241875 0.30146,0.352817c0.464475,0.480251 0.862799,0.92602 1.027232,1.519713c0.108677,0.394296 0.266022,0.781595 0.648753,1.008478c-0.32981,0.389298 -0.377534,0.924521 -0.116237,1.343304c0.181443,0.291849 0.273582,0.5792 0.288702,0.904032c0.00567,0.125435 0.019373,0.413786 0.237199,0.562709c-0.115764,0.363312 -0.052448,0.671652 0.198453,1.024469c0.064734,0.090953 0.13372,0.179407 0.203178,0.267861c0.148367,0.188902 0.287757,0.36781 0.378479,0.564708c0.17341,0.379304 0.596777,0.616681 1.105668,0.620679c0.00378,0 0.00756,0 0.01134,0c0.412027,0 0.767353,-0.161916 0.992739,-0.428278c0.008505,-0.007496 0.018428,-0.011994 0.025988,-0.021489c0.042998,-0.055971 0.078436,-0.11544 0.110567,-0.176409c0.00378,-0.007496 0.010868,-0.013493 0.014648,-0.020989c0.149312,-0.315836 0.347766,-0.838566 0.523066,-1.368291c0.02268,0.089454 0.040163,0.180906 0.074184,0.266362c0.008978,0.021989 0.019845,0.060469 0.033548,0.104946c0.077019,0.254368 0.137972,0.456264 0.315635,0.456264c0.005198,0 0.009923,0 0.01512,-0.0005c0.028823,-0.001999 0.054811,-0.011494 0.078436,-0.025487c0.132775,-0.041479 0.192783,-0.216388 0.260352,-0.439772c0.01323,-0.043977 0.02457,-0.082957 0.033548,-0.104446c0.049613,-0.124436 0.082689,-0.254868 0.108204,-0.388299c0.004253,0.015492 0.010395,0.034982 0.012758,0.046476c0.106314,0.471256 0.285867,0.923522 0.45975,1.360795l0.039691,0.100448c0.006615,0.016491 0.019373,0.028985 0.026933,0.044977c0.00189,0.004498 0.002835,0.009495 0.004725,0.013993c0.002363,0.005497 0.008033,0.007496 0.010868,0.012993c0.162543,0.319834 0.499441,0.533224 0.931313,0.567706c0.040163,0.003498 0.081271,0.004997 0.123325,0.004997c0.400214,0 0.854294,-0.148923 1.058418,-0.50274c0.117182,-0.203395 0.254682,-0.391297 0.400214,-0.590194c0.095919,-0.130932 0.191366,-0.262364 0.281142,-0.397794c0.160653,-0.241875 0.338316,-0.593693 0.181443,-1.000982c0.210739,-0.151422 0.225859,-0.426279 0.232946,-0.546717c0.0189,-0.338825 0.106314,-0.61868 0.273582,-0.880544c0.276417,-0.431776 0.233891,-0.966999 -0.105842,-1.376787c0.31091,-0.177408 0.478178,-0.392297 0.58591,-0.730122c0.019373,-0.061468 0.035438,-0.124436 0.051031,-0.187403c0.01701,-0.070963 0.034021,-0.141927 0.060008,-0.209392c0.216881,-0.568706 0.618513,-1.016474 0.977619,-1.39078c0.110094,-0.11494 0.209321,-0.241375 0.307603,-0.36781l0.129467,-0.164415c0.00378,-0.003998 0.006143,-0.007996 0.00945,-0.011994l0.055756,-0.066466c0.066151,-0.075961 0.131357,-0.152921 0.180971,-0.238876c0.16963,-0.297846 0.14695,-0.532724 0.097809,-0.677149zm-3.847159,1.913509c0.200343,0.284353 0.257044,0.526727 0.169158,0.740616c-0.256099,0.623677 -1.613614,0.957004 -2.38333,1.077442c0.250429,-0.706634 0.799011,-1.910011 1.446819,-2.092916c0.251374,-0.070963 0.502276,0.01999 0.767353,0.274858zm-6.030145,-0.032983c0.266967,-0.25137 0.520231,-0.340824 0.769243,-0.267362c0.646391,0.189402 1.183632,1.398776 1.427446,2.107908c-0.768298,-0.127934 -2.122505,-0.475754 -2.373407,-1.101929c-0.085524,-0.214389 -0.02646,-0.456763 0.176718,-0.738618zm-1.694886,1.046958c-0.189476,-0.684645 -0.639776,-1.190384 -1.124096,-1.690625c-0.098282,-0.101947 -0.187586,-0.213889 -0.27689,-0.325831l-0.142225,-0.17341c-0.196563,-0.196898 -0.273582,-0.359814 -0.265549,-0.562709c0.006143,-0.162916 0.053866,-0.186403 0.161125,-0.216388c0.495188,-0.236378 1.024397,-0.223384 1.52431,-0.17291c1.371218,0.136429 2.586508,0.779097 3.715329,1.964982l0.147422,0.156419c0.205068,0.218387 0.369974,0.391797 0.470618,0.485249l0.000945,0.004498c-0.01512,0.111442 -0.057173,0.447268 -0.087886,0.870549c-0.279252,-0.718628 -0.816966,-1.81556 -1.559276,-2.033447c-0.380841,-0.110943 -0.7631,0.011494 -1.132129,0.36631c-0.00378,0.003998 -0.00567,0.008995 -0.008978,0.012993c-0.00378,0.004498 -0.008978,0.006996 -0.012758,0.011494c-0.29768,0.40529 -0.376589,0.79159 -0.233891,1.147906c0.402577,1.006479 2.489644,1.320816 2.912066,1.374788c-0.000473,0.379803 0.021263,0.762105 0.084579,1.082439c-0.970531,-0.620179 -3.111937,-1.317818 -3.523491,-1.44875c-0.378479,-0.127934 -0.526374,-0.409788 -0.649226,-0.853558zm0.974784,3.624123c-0.080799,-0.012993 -0.127577,-0.032483 -0.138917,-0.276357c-0.018428,-0.392797 -0.132775,-0.75311 -0.349183,-1.10093c-0.170575,-0.273858 -0.12994,-0.629674 0.100644,-0.886041l0.078436,-0.090453c1.063143,0.343322 2.520829,0.887041 3.238096,1.315319l-1.262541,0c-0.102534,0 -0.185696,0.088454 -0.185696,0.196898s0.083161,0.196898 0.185696,0.196898l1.316879,0c-0.437542,0.372807 -1.359405,0.891538 -2.983415,0.644666c0.000473,0 0,0 0,0zm2.785906,1.082439c-0.068986,-0.155919 -0.167268,-0.299845 -0.30146,-0.415785c-0.193256,-0.166414 -0.436125,-0.243874 -0.684191,-0.217887c-0.248067,0.025987 -0.471563,0.152921 -0.62938,0.357315c-0.132775,0.171411 -0.194201,0.3868 -0.172938,0.607685c0.02079,0.220386 0.121907,0.418783 0.283977,0.55921c0.283032,0.244873 0.702619,0.199896 0.934621,-0.099948c0.085051,-0.109943 0.130885,-0.248371 0.12805,-0.390798c-0.00189,-0.108944 -0.089304,-0.189902 -0.189003,-0.1934c-0.102534,0.002499 -0.184278,0.091453 -0.182388,0.199896c0.000945,0.049474 -0.01512,0.09745 -0.044416,0.13543c-0.102062,0.132431 -0.286812,0.151422 -0.412027,0.043977c-0.085524,-0.073962 -0.138445,-0.178408 -0.149312,-0.294348c-0.01134,-0.11594 0.021263,-0.229381 0.091194,-0.319834c0.094974,-0.122936 0.229639,-0.199397 0.378951,-0.214889c0.14884,-0.01899 0.295317,0.030484 0.412027,0.130932c0.287757,0.248871 0.352491,0.678149 0.172465,1.007978c-0.155928,0.300844 -0.508891,0.411287 -0.798066,0.411287c-0.002835,0 -0.005198,0 -0.008033,-0.0005c-0.360523,-0.002499 -0.663874,-0.158418 -0.773495,-0.397794c-0.110094,-0.240875 -0.270747,-0.446269 -0.426675,-0.645166c-0.065679,-0.083457 -0.131357,-0.166914 -0.192783,-0.252869c-0.183333,-0.257866 -0.215936,-0.439273 -0.128995,-0.688144c0.255154,0.032983 0.498496,0.051973 0.722465,0.051973c1.236081,0 2.003906,-0.453265 2.414988,-0.806582c-0.103479,0.416284 -0.274055,0.953506 -0.445575,1.432258zm1.011639,-1.791073c0.01323,0.186903 0.026933,0.373806 0.055756,0.556712c0.015593,0.097949 0.025043,0.194399 0.027878,0.28985l0,0c0,0 0,0 0,0.0005c0.008978,0.264363 -0.031186,0.504239 -0.122852,0.73412c-0.00756,0.01849 -0.01701,0.047475 -0.026933,0.079959c-0.008978,-0.028485 -0.017483,-0.053972 -0.024098,-0.070464c-0.091194,-0.230381 -0.131357,-0.470256 -0.122852,-0.73462c0.002835,-0.095451 0.012758,-0.1924 0.02835,-0.29035c0.019845,-0.125435 0.027878,-0.253369 0.038273,-0.380803c0.005198,-0.025487 0.012758,-0.055471 0.01701,-0.079459c0.003308,-0.017991 -0.00189,-0.033982 -0.00378,-0.050974c0.000945,-0.013993 0.003308,-0.027486 0.004253,-0.041479l0.018428,-0.240875c0.000473,-0.005497 -0.001418,-0.009995 -0.001418,-0.015492c0,-0.012993 -0.001418,-0.025487 -0.00378,-0.03848c-0.002363,-0.013493 -0.005198,-0.025987 -0.009923,-0.03848c-0.00189,-0.004997 -0.001418,-0.009995 -0.00378,-0.014492c-0.31469,-0.657659 -0.14884,-2.454229 -0.058591,-3.091399c0.00189,-0.012993 -0.001418,-0.025487 -0.00189,-0.03798c-0.000473,-0.011494 0.00189,-0.022488 -0.000473,-0.033982c-0.000473,-0.001999 -0.000945,-0.002998 -0.001418,-0.004997c0,-0.0005 0,-0.000999 -0.000473,-0.001499c-0.00945,-0.044977 -0.019845,-0.086455 -0.029768,-0.125935c-0.016065,-0.065466 -0.031658,-0.125935 -0.041108,-0.202895c-0.017955,-0.144425 -0.025043,-0.310839 -0.021735,-0.426279c0.006615,-0.078459 0.01701,-0.147424 0.031658,-0.205394l0,0c0.044416,-0.180407 0.118599,-0.264363 0.170575,-0.264363c0,0 0,0 0,0c0.068041,0 0.206013,0.142926 0.239089,0.484249c0.001418,0.114441 -0.00567,0.267362 -0.022208,0.402791c-0.00945,0.07696 -0.025043,0.137929 -0.041581,0.203894l-0.029295,0.124436c-0.009923,0.029485 -0.015593,0.060968 -0.010868,0.094451c0.092139,0.632672 0.263187,2.418248 -0.051976,3.076407c-0.002363,0.004997 -0.00189,0.009995 -0.00378,0.014992c-0.004725,0.012494 -0.00756,0.024987 -0.009923,0.03798c-0.002363,0.012993 -0.004253,0.025487 -0.00378,0.03848c0,0.005497 -0.00189,0.009995 -0.001418,0.015492l0.018428,0.236378zm3.45734,1.780078c-0.086469,0.129933 -0.17908,0.256867 -0.27122,0.382802c-0.145532,0.198897 -0.29579,0.404291 -0.42384,0.626176c-0.118127,0.205893 -0.48054,0.342822 -0.836339,0.310339c-0.306185,-0.023988 -0.538659,-0.161416 -0.638831,-0.36631c-0.086941,-0.188902 -0.100172,-0.401792 -0.036383,-0.600689c0.063789,-0.200396 0.198453,-0.362312 0.377534,-0.456264c0.277835,-0.145425 0.615205,-0.023988 0.752705,0.26986c0.100172,0.215888 0.016538,0.478252 -0.187586,0.584697c-0.146005,0.075961 -0.319888,0.011994 -0.392182,-0.140927c-0.020318,-0.043977 -0.025988,-0.094451 -0.014648,-0.142426c0.02457,-0.105445 -0.036383,-0.21189 -0.136082,-0.237877c-0.101117,-0.026486 -0.200343,0.03898 -0.224914,0.143925c-0.031658,0.138428 -0.01701,0.284353 0.042526,0.410787c0.162543,0.34782 0.562284,0.491745 0.88926,0.319335c0.387929,-0.201895 0.547637,-0.700137 0.356271,-1.110425c-0.110094,-0.236378 -0.30146,-0.413786 -0.537241,-0.498242c-0.236726,-0.085456 -0.489991,-0.066466 -0.713014,0.049974c-0.233891,0.121937 -0.405412,0.321334 -0.509836,0.552714c-0.065679,-0.190901 -0.125215,-0.383302 -0.168685,-0.576701c-0.02457,-0.108944 -0.100644,-0.332328 -0.189003,-0.590694c-0.042053,-0.122437 -0.087886,-0.257367 -0.127577,-0.379304c0.449827,0.356815 1.253563,0.801085 2.484446,0.801085c0.191838,0 0.397852,-0.015492 0.610008,-0.03898c0.108677,0.208892 0.081744,0.40479 -0.105369,0.687144zm0.684191,-2.422745c-0.203651,0.318835 -0.314218,0.671152 -0.337371,1.077942c-0.008505,0.151422 -0.031658,0.21189 -0.074656,0.242874c-1.610307,0.236378 -2.580838,-0.292848 -3.054763,-0.67615l1.231828,0c0.102534,0 0.186168,-0.088454 0.186168,-0.196898c0,-0.108444 -0.083634,-0.196898 -0.186168,-0.196898l-1.206313,0c0.72341,-0.417784 2.199052,-0.935016 3.274007,-1.257349c0.021263,0.027486 0.042053,0.054972 0.065206,0.080458c0.253264,0.283353 0.291065,0.629674 0.102062,0.92602zm2.241577,-4.729051c-0.037328,0.064966 -0.087414,0.120937 -0.137027,0.178408c-0.02835,0.032483 -0.056228,0.064966 -0.083161,0.097949c-0.004253,0.005497 -0.008033,0.010495 -0.01134,0.015992c-0.038746,0.047975 -0.076074,0.09645 -0.113874,0.144925c-0.090249,0.11594 -0.180025,0.23238 -0.281142,0.337825c-0.385566,0.402292 -0.817911,0.885042 -1.061253,1.523711c-0.031658,0.083457 -0.053393,0.170412 -0.074656,0.257866c-0.013703,0.053972 -0.02646,0.108444 -0.042998,0.160917c-0.092612,0.290849 -0.231529,0.433276 -0.564647,0.585197c-0.364304,0.106945 -2.510907,0.75311 -3.527744,1.361295c0.050558,-0.297846 0.066151,-0.640168 0.065679,-0.980992c0.454553,-0.053972 2.505237,-0.351818 2.913011,-1.342805c0.145532,-0.354816 0.070876,-0.741616 -0.223024,-1.149905c-0.003308,-0.004997 -0.008505,-0.006996 -0.012758,-0.011494c-0.00378,-0.003998 -0.005198,-0.009495 -0.00945,-0.013493c-0.365721,-0.358314 -0.745145,-0.485748 -1.127876,-0.377305c-0.741837,0.209392 -1.288056,1.292831 -1.574869,2.00846c-0.030713,-0.406789 -0.071349,-0.73462 -0.087886,-0.855057l0.009923,-0.041479c0.056228,-0.05697 0.114347,-0.112942 0.172938,-0.168913c0.099227,-0.094451 0.198926,-0.189402 0.289175,-0.29035c1.001717,-1.124418 2.101715,-1.79507 3.363783,-2.050938c0.534406,-0.108444 1.236081,-0.201396 1.916492,0.045976c0.100644,0.036481 0.229639,0.105945 0.270747,0.226883c0.038273,0.11494 -0.016065,0.246872 -0.068041,0.337325z"/>
        </g>
        <g stroke="null" id="svg_46">
            <path stroke="null" fill="#b49f77" id="svg_28"
                  d="m32.435607,3.983867c0,0 -0.05811,-1.31482 0.32934,-1.10992c0,0 0.40636,0.22538 0.32887,1.37179l0.0808,1.925l-0.05245,1.28983l0.05245,1.3468l-0.37092,1.04896l-0.44558,-1.39628c0,0 0.27122,-0.71263 0.23248,-0.89703c-0.03875,-0.18441 -0.25374,-0.44527 -0.28162,-0.68365s0.12663,-2.8955 0.12663,-2.8955z"
                  class="st2"/>
            <path stroke="null" fill="#fdf288" id="svg_29"
                  d="m28.621527,5.965347l3.73659,1.59717c0,0 -0.29059,1.49473 -3.56223,1.20837l-0.25185,-1.20837c0,0 -0.90958,-0.962 0.07749,-1.59717z"
                  class="st3"/>
            <path stroke="null" fill="#ffca0a" id="svg_30"
                  d="m32.184237,4.081817c0,0 -4.26911,-4.34625 -6.15678,-1.82755l1.56826,2.01196l0.49377,1.28983l2.35214,1.07494l1.74261,0.82907l0.17436,0l0,-1.28983l-0.09545,-1.76658l-0.07891,-0.32184z"
                  class="st4"/>
            <path stroke="null" fill="#ffca0a" id="svg_31"
                  d="m33.016797,4.368167c0,0 3.4271,-4.21831 6.48611,-2.29331c0,0 0.15499,0.67565 -1.06503,1.67913c0,0 -0.83256,0.55272 -0.81318,1.45375c0,0 0.25184,0.73712 -1.52951,0.9625l-3.07839,1.39228l0.17388,-1.20788l-0.17388,-1.98647z"
                  class="st4"/>
            <path stroke="null" fill="#fdf288" id="svg_32"
                  d="m33.016797,7.501547l3.79471,-1.47424c0,0 0.79145,0.15542 0.18381,1.53571l-0.20318,0.98299c0,0 0.26129,0.33783 -1.11323,0.21489l-1.58763,-0.28685l-0.8713,-0.65516l-0.20318,-0.31734z"
                  class="st3"/>
            <path stroke="null" fill="#ffca0a" id="svg_33"
                  d="m32.261727,7.951817c0,0 -0.79901,0.89354 -3.24565,0.83557c0,0 -0.56843,0.45426 0.57362,1.80556c0,0 1.29703,1.31032 2.09085,-0.26636c0,0.0005 0.83256,-0.94151 0.58118,-2.37477z"
                  class="st4"/>
            <path stroke="null" fill="#ffca0a" id="svg_34"
                  d="m33.016797,7.890347c0,0 1.70386,1.37179 3.6591,0.73712l0,0.47075l-0.30996,0.83957c0,0 -1.3939,2.43674 -2.51705,0.5732l-0.69695,-2.04744l-0.13514,-0.5732z"
                  class="st4"/>
            <circle stroke="null" id="svg_35" r="0.503534" cy="2.638066" cx="37.644066"/>
            <circle stroke="null" id="svg_36" r="0.360837" cy="3.983869" cx="37.227786"/>
            <circle stroke="null" id="svg_37" r="0.184083" cy="5.00684" cx="36.831825"/>
            <ellipse stroke="null" id="svg_38"
                     transform="matrix(0.46901129360313426,-0.060668583614267024,0.057362453197078875,0.4960431309351026,-0.05571670298945319,1.9006272430173266) "
                     ry="1.168" rx="1.168" cy="8.755169" cx="58.414616"/>
            <ellipse stroke="null" id="svg_39"
                     transform="matrix(0.46901129360313426,-0.060668583614267024,0.057362453197078875,0.4960431309351026,-0.19874482970078577,1.9830345695246792) "
                     ry="0.837" rx="0.837" cy="11.321169" cx="59.616616"/>
            <ellipse stroke="null" id="svg_40"
                     transform="matrix(0.46901129360313426,-0.060668583614267024,0.057362453197078875,0.4960431309351026,-0.3057678581121397,2.0556969423213385) "
                     ry="0.427" rx="0.427" cy="13.252169" cx="60.695616"/>
            <ellipse stroke="null" fill="#ffca0a" id="svg_41"
                     transform="matrix(0.43149417017769714,-0.20359457137110695,0.19249969878492532,0.4563636783900218,-2.332448535648472,6.935819838271929) "
                     ry="0.459" rx="0.343" cy="35.593768" cx="73.385595" class="st4"/>
            <ellipse stroke="null" fill="#ffca0a" id="svg_42"
                     transform="matrix(0.43149417017769714,-0.20359457137110695,0.19249969878492532,0.4563636783900218,-1.8106581150098044,7.018527009508842) "
                     ry="0.564" rx="0.343" cy="33.083768" cx="74.326595" class="st4"/>
            <ellipse stroke="null" fill="#ffca0a" id="svg_43"
                     transform="matrix(0.43149417017769714,-0.20359457137110695,0.19249969878492532,0.4563636783900218,-2.4271863599154764,3.74662132055226) "
                     ry="0.611" rx="0.456" cy="32.873768" cx="58.301595" class="st4"/>
            <ellipse stroke="null" fill="#ffca0a" id="svg_44"
                     transform="matrix(0.43149417017769714,-0.20359457137110695,0.19249969878492532,0.4563636783900218,-2.8678944332014353,4.026926168569084) "
                     ry="0.524" rx="0.318" cy="35.344768" cx="59.152595" class="st4"/>
            <path stroke="null" id="svg_45"
                  d="m39.623877,2.006897c-0.05056,-0.14793 -0.17767,-0.34832 -0.49992,-0.46576c-0.76215,-0.27786 -1.52714,-0.17791 -2.10691,-0.06047c-1.34145,0.27236 -2.50713,0.98099 -3.5646,2.16738c-0.03166,0.03548 -0.06804,0.06796 -0.10159,0.10194c0.00189,-0.05397 0.00284,-0.10994 0.00142,-0.16491c0,-0.002 0.00095,-0.004 0.00047,-0.006c0,-0.0025 -0.00094,-0.0045 -0.00094,-0.00699c-0.00284,-0.09745 -0.01229,-0.19041 -0.03591,-0.25437c-0.20554,-0.56471 0.52873,-1.20738 0.75837,-1.39078c0.13514,-0.10745 0.16207,-0.09795 0.21688,-0.05997c0.12569,0.08695 0.27122,0.04198 0.37801,0.00799l0.05339,-0.01649c0.0997,-0.02648 0.16018,-0.13343 0.13467,-0.23837c-0.02505,-0.10545 -0.12663,-0.16942 -0.22539,-0.14243l-0.06898,0.02049c-0.03119,0.00999 -0.08411,0.02649 -0.06757,0.03998c-0.29438,-0.2044 -0.5311,-0.01649 -0.64498,0.07446c-0.47865,0.3818 -0.78341,0.78809 -0.89445,1.17639c-0.07088,-0.04048 -0.14459,-0.06247 -0.215,-0.06247c-0.00047,0 -0.00141,0 -0.00236,0c-0.06095,0.0005 -0.12427,0.0145 -0.18569,0.04498c-0.11671,-0.3798 -0.41628,-0.7766 -0.88407,-1.1494c-0.11387,-0.09046 -0.34965,-0.27886 -0.61,-0.08846c-0.03072,0.006 -0.07088,-0.01599 -0.10206,-0.02599l-0.06946,-0.02048c-0.09781,-0.02599 -0.20035,0.03698 -0.22539,0.14242c-0.02504,0.10495 0.03497,0.21189 0.13467,0.23838l0.05339,0.01649c0.10631,0.03348 0.25185,0.07896 0.378,-0.008c0.05576,-0.03948 0.08222,-0.04747 0.21641,0.05947c0.22822,0.18191 0.95022,0.81558 0.76121,1.37729c-0.00425,0.01799 -0.00897,0.03498 -0.01228,0.05397c-0.01418,0.05447 -0.02221,0.11944 -0.02504,0.1909c-0.00048,0.003 -0.00095,0.0055 -0.00142,0.009c0,0.002 0.00094,0.004 0.00047,0.006c-0.00236,0.06196 -0.00094,0.12443 0.00095,0.1854c-0.03922,-0.04148 -0.07844,-0.08346 -0.11435,-0.12144l-0.14931,-0.15792c-1.19214,-1.25285 -2.48162,-1.932 -3.94214,-2.07742c-0.55047,-0.05497 -1.13827,-0.06797 -1.67693,0.1939c-0.18002,0.04298 -0.39927,0.17741 -0.41439,0.5702c-0.01606,0.41679 0.21027,0.69265 0.36998,0.85106l0.12568,0.15542c0.09734,0.12094 0.1942,0.24188 0.30146,0.35282c0.46448,0.48025 0.8628,0.92602 1.02724,1.51971c0.10867,0.3943 0.26602,0.7816 0.64875,1.00848c-0.32981,0.3893 -0.37753,0.92452 -0.11624,1.34331c0.18145,0.29184 0.27358,0.5792 0.2887,0.90403c0.00567,0.12543 0.01938,0.41378 0.2372,0.56271c-0.11576,0.36331 -0.05244,0.67165 0.19846,1.02447c0.06473,0.09095 0.13372,0.1794 0.20318,0.26786c0.14836,0.1889 0.28775,0.36781 0.37847,0.5647c0.17341,0.37931 0.59678,0.61668 1.10567,0.62068c0.00378,0 0.00756,0 0.01134,0c0.41203,0 0.76736,-0.16191 0.99274,-0.42828c0.00851,-0.00749 0.01843,-0.01199 0.02599,-0.02148c0.043,-0.05598 0.07844,-0.11544 0.11057,-0.17641c0.00378,-0.0075 0.01086,-0.0135 0.01464,-0.02099c0.14932,-0.31584 0.34777,-0.83857 0.52307,-1.36829c0.02268,0.08945 0.04016,0.1809 0.07418,0.26636c0.00898,0.02199 0.01985,0.06047 0.03355,0.10494c0.07702,0.25437 0.13797,0.45627 0.31564,0.45627c0.00519,0 0.00992,0 0.01512,-0.0005c0.02882,-0.002 0.05481,-0.0115 0.07843,-0.02549c0.13278,-0.04148 0.19279,-0.21639 0.26036,-0.43977c0.01323,-0.04398 0.02457,-0.08296 0.03354,-0.10445c0.04962,-0.12443 0.08269,-0.25486 0.10821,-0.3883c0.00425,0.0155 0.01039,0.03499 0.01276,0.04648c0.10631,0.47126 0.28586,0.92352 0.45975,1.3608l0.03969,0.10044c0.00661,0.01649 0.01937,0.02899 0.02693,0.04498c0.00189,0.0045 0.00283,0.0095 0.00472,0.01399c0.00237,0.0055 0.00804,0.0075 0.01087,0.013c0.16255,0.31983 0.49944,0.53322 0.93132,0.5677c0.04016,0.0035 0.08127,0.005 0.12332,0.005c0.40021,0 0.85429,-0.14892 1.05842,-0.50274c0.11718,-0.20339 0.25468,-0.3913 0.40021,-0.59019c0.09592,-0.13094 0.19137,-0.26237 0.28114,-0.3978c0.16066,-0.24187 0.33832,-0.59369 0.18145,-1.00098c0.21074,-0.15142 0.22586,-0.42628 0.23294,-0.54672c0.0189,-0.33882 0.10632,-0.61868 0.27359,-0.88054c0.27641,-0.43178 0.23389,-0.967 -0.10585,-1.37679c0.31091,-0.17741 0.47818,-0.39229 0.58591,-0.73012c0.01938,-0.06147 0.03544,-0.12444 0.05103,-0.1874c0.01701,-0.07097 0.03402,-0.14193 0.06001,-0.20939c0.21688,-0.56871 0.61852,-1.01648 0.97762,-1.39078c0.1101,-0.11494 0.20932,-0.24138 0.3076,-0.36781l0.12947,-0.16442c0.00378,-0.004 0.00614,-0.00799 0.00945,-0.01199l0.05576,-0.06647c0.06615,-0.07596 0.13135,-0.15292 0.18097,-0.23887c0.16963,-0.29785 0.14695,-0.53273 0.09781,-0.67715zm-3.84716,1.91351c0.20034,0.28435 0.25704,0.52672 0.16916,0.74061c-0.2561,0.62368 -1.61362,0.95701 -2.38333,1.07744c0.25043,-0.70663 0.79901,-1.91001 1.44682,-2.09291c0.25137,-0.07097 0.50227,0.01999 0.76735,0.27486zm-6.03015,-0.03299c0.26697,-0.25137 0.52023,-0.34082 0.76925,-0.26736c0.64639,0.1894 1.18363,1.39878 1.42744,2.10791c-0.7683,-0.12793 -2.1225,-0.47575 -2.37341,-1.10193c-0.08552,-0.21439 -0.02646,-0.45676 0.17672,-0.73862zm-1.69488,1.04696c-0.18948,-0.68465 -0.63978,-1.19038 -1.1241,-1.69062c-0.09828,-0.10195 -0.18758,-0.21389 -0.27689,-0.32584l-0.14222,-0.17341c-0.19657,-0.19689 -0.27359,-0.35981 -0.26555,-0.5627c0.00614,-0.16292 0.05386,-0.18641 0.16112,-0.21639c0.49519,-0.23638 1.0244,-0.22339 1.52431,-0.17291c1.37122,0.13643 2.58651,0.77909 3.71533,1.96498l0.14742,0.15642c0.20507,0.21839 0.36998,0.3918 0.47062,0.48525l0.00095,0.0045c-0.01512,0.11144 -0.05718,0.44726 -0.08789,0.87054c-0.27925,-0.71862 -0.81697,-1.81556 -1.55928,-2.03344c-0.38084,-0.11095 -0.7631,0.01149 -1.13212,0.36631c-0.00378,0.004 -0.00567,0.00899 -0.00898,0.01299c-0.00378,0.0045 -0.00898,0.007 -0.01276,0.01149c-0.29768,0.4053 -0.37659,0.7916 -0.23389,1.14791c0.40258,1.00648 2.48964,1.32082 2.91206,1.37479c-0.00047,0.3798 0.02127,0.7621 0.08458,1.08244c-0.97053,-0.62018 -3.11193,-1.31782 -3.52349,-1.44875c-0.37848,-0.12794 -0.52637,-0.40979 -0.64922,-0.85356zm0.97478,3.62412c-0.0808,-0.01299 -0.12758,-0.03248 -0.13892,-0.27635c-0.01842,-0.3928 -0.13277,-0.75311 -0.34918,-1.10093c-0.17058,-0.27386 -0.12994,-0.62968 0.10064,-0.88604l0.07844,-0.09046c1.06314,0.34332 2.52083,0.88704 3.2381,1.31532l-1.26254,0c-0.10254,0 -0.1857,0.08846 -0.1857,0.1969s0.08316,0.1969 0.1857,0.1969l1.31688,0c-0.43755,0.3728 -1.35941,0.89154 -2.98342,0.64466c0.00047,0 0,0 0,0zm2.78591,1.08244c-0.06899,-0.15592 -0.16727,-0.29984 -0.30146,-0.41578c-0.19326,-0.16642 -0.43613,-0.24388 -0.68419,-0.21789c-0.24807,0.02599 -0.47157,0.15292 -0.62938,0.35732c-0.13278,0.17141 -0.19421,0.3868 -0.17294,0.60768c0.02079,0.22039 0.1219,0.41878 0.28397,0.55921c0.28304,0.24488 0.70262,0.1999 0.93462,-0.09995c0.08506,-0.10994 0.13089,-0.24837 0.12805,-0.39079c-0.00189,-0.10895 -0.0893,-0.18991 -0.189,-0.1934c-0.10253,0.00249 -0.18428,0.09145 -0.18239,0.19989c0.00095,0.04948 -0.01512,0.09745 -0.04441,0.13543c-0.10206,0.13243 -0.28681,0.15142 -0.41203,0.04398c-0.08552,-0.07396 -0.13844,-0.17841 -0.14931,-0.29435c-0.01134,-0.11594 0.02126,-0.22938 0.09119,-0.31983c0.09498,-0.12294 0.22964,-0.1994 0.37895,-0.21489c0.14884,-0.01899 0.29532,0.03048 0.41203,0.13093c0.28776,0.24887 0.35249,0.67815 0.17247,1.00798c-0.15593,0.30084 -0.5089,0.41129 -0.79807,0.41129c-0.00283,0 -0.0052,0 -0.00803,-0.0005c-0.36053,-0.0025 -0.66388,-0.15842 -0.7735,-0.3978c-0.11009,-0.24087 -0.27074,-0.44627 -0.42667,-0.64516c-0.06568,-0.08346 -0.13136,-0.16692 -0.19279,-0.25287c-0.18333,-0.25787 -0.21593,-0.43927 -0.12899,-0.68815c0.25515,0.03299 0.4985,0.05198 0.72246,0.05198c1.23608,0 2.00391,-0.45327 2.41499,-0.80659c-0.10348,0.41629 -0.27405,0.95351 -0.44557,1.43226zm1.01164,-1.79107c0.01323,0.1869 0.02693,0.37381 0.05575,0.55671c0.01559,0.09795 0.02505,0.1944 0.02788,0.28985l0,0c0,0 0,0 0,0.0005c0.00898,0.26436 -0.03119,0.50424 -0.12285,0.73412c-0.00756,0.01849 -0.01701,0.04748 -0.02693,0.07996c-0.00898,-0.02848 -0.01749,-0.05397 -0.0241,-0.07046c-0.0912,-0.23038 -0.13136,-0.47026 -0.12285,-0.73462c0.00283,-0.09545 0.01275,-0.1924 0.02835,-0.29035c0.01984,-0.12544 0.02787,-0.25337 0.03827,-0.38081c0.0052,-0.02548 0.01276,-0.05547 0.01701,-0.07945c0.00331,-0.01799 -0.00189,-0.03399 -0.00378,-0.05098c0.00094,-0.01399 0.00331,-0.02748 0.00425,-0.04148l0.01843,-0.24087c0.00047,-0.0055 -0.00142,-0.01 -0.00142,-0.01549c0,-0.013 -0.00142,-0.02549 -0.00378,-0.03848c-0.00236,-0.0135 -0.0052,-0.02599 -0.00992,-0.03848c-0.00189,-0.005 -0.00142,-0.01 -0.00378,-0.0145c-0.31469,-0.65766 -0.14884,-2.45423 -0.05859,-3.0914c0.00189,-0.01299 -0.00142,-0.02548 -0.00189,-0.03798c-0.00047,-0.01149 0.00189,-0.02248 -0.00047,-0.03398c-0.00048,-0.002 -0.00095,-0.003 -0.00142,-0.005c0,-0.0005 0,-0.00099 -0.00047,-0.00149c-0.00945,-0.04498 -0.01985,-0.08646 -0.02977,-0.12594c-0.01607,-0.06547 -0.03166,-0.12593 -0.04111,-0.20289c-0.01796,-0.14443 -0.02504,-0.31084 -0.02174,-0.42628c0.00662,-0.07846 0.01701,-0.14743 0.03166,-0.2054l0,0c0.04442,-0.1804 0.1186,-0.26436 0.17058,-0.26436c0,0 0,0 0,0c0.06804,0 0.20601,0.14293 0.23909,0.48425c0.00141,0.11444 -0.00567,0.26736 -0.02221,0.40279c-0.00945,0.07696 -0.02504,0.13793 -0.04158,0.20389l-0.0293,0.12444c-0.00992,0.02949 -0.01559,0.06097 -0.01087,0.09445c0.09214,0.63267 0.26319,2.41825 -0.05197,3.07641c-0.00236,0.005 -0.00189,0.00999 -0.00378,0.01499c-0.00473,0.01249 -0.00756,0.02499 -0.00992,0.03798c-0.00237,0.01299 -0.00426,0.02549 -0.00378,0.03848c0,0.0055 -0.00189,0.01 -0.00142,0.01549l0.01843,0.23638zm3.45734,1.78008c-0.08647,0.12993 -0.17908,0.25687 -0.27122,0.3828c-0.14554,0.1989 -0.29579,0.40429 -0.42384,0.62618c-0.11813,0.20589 -0.48054,0.34282 -0.83634,0.31034c-0.30619,-0.02399 -0.53866,-0.16142 -0.63883,-0.36631c-0.08694,-0.18891 -0.10017,-0.4018 -0.03639,-0.60069c0.06379,-0.2004 0.19846,-0.36232 0.37754,-0.45627c0.27783,-0.14542 0.6152,-0.02399 0.7527,0.26986c0.10017,0.21589 0.01654,0.47826 -0.18758,0.5847c-0.14601,0.07596 -0.31989,0.01199 -0.39218,-0.14093c-0.02032,-0.04397 -0.02599,-0.09445 -0.01465,-0.14242c0.02457,-0.10545 -0.03638,-0.21189 -0.13608,-0.23788c-0.10112,-0.02649 -0.20035,0.03898 -0.22492,0.14393c-0.03166,0.13842 -0.01701,0.28435 0.04253,0.41078c0.16254,0.34782 0.56228,0.49175 0.88926,0.31934c0.38793,-0.2019 0.54763,-0.70014 0.35627,-1.11043c-0.1101,-0.23638 -0.30146,-0.41378 -0.53724,-0.49824c-0.23673,-0.08546 -0.48999,-0.06647 -0.71302,0.04997c-0.23389,0.12194 -0.40541,0.32134 -0.50983,0.55272c-0.06568,-0.1909 -0.12522,-0.3833 -0.16869,-0.5767c-0.02457,-0.10895 -0.10064,-0.33233 -0.189,-0.5907c-0.04205,-0.12243 -0.08789,-0.25736 -0.12758,-0.3793c0.44983,0.35681 1.25356,0.80108 2.48445,0.80108c0.19184,0 0.39785,-0.01549 0.61001,-0.03898c0.10867,0.2089 0.08174,0.40479 -0.10537,0.68715zm0.68419,-2.42275c-0.20365,0.31884 -0.31422,0.67116 -0.33737,1.07795c-0.00851,0.15142 -0.03166,0.21189 -0.07466,0.24287c-1.61031,0.23638 -2.58084,-0.29285 -3.05476,-0.67615l1.23183,0c0.10253,0 0.18616,-0.08845 0.18616,-0.1969c0,-0.10844 -0.08363,-0.1969 -0.18616,-0.1969l-1.20632,0c0.72341,-0.41778 2.19905,-0.93501 3.27401,-1.25735c0.02126,0.02749 0.04205,0.05498 0.06521,0.08046c0.25326,0.28336 0.29106,0.62968 0.10206,0.92602zm2.24157,-4.72905c-0.03732,0.06497 -0.08741,0.12094 -0.13702,0.17841c-0.02835,0.03248 -0.05623,0.06497 -0.08316,0.09795c-0.00426,0.0055 -0.00804,0.01049 -0.01134,0.01599c-0.03875,0.04798 -0.07608,0.09645 -0.11388,0.14493c-0.09025,0.11594 -0.18002,0.23238 -0.28114,0.33782c-0.38557,0.40229 -0.81791,0.88504 -1.06125,1.52371c-0.03166,0.08346 -0.0534,0.17041 -0.07466,0.25787c-0.0137,0.05397 -0.02646,0.10844 -0.043,0.16091c-0.09261,0.29085 -0.23153,0.43328 -0.56464,0.5852c-0.36431,0.10695 -2.51091,0.75311 -3.52775,1.3613c0.05056,-0.29785 0.06615,-0.64017 0.06568,-0.981c0.45455,-0.05397 2.50524,-0.35181 2.91301,-1.3428c0.14553,-0.35482 0.07088,-0.74162 -0.22302,-1.1499c-0.00331,-0.005 -0.00851,-0.007 -0.01276,-0.0115c-0.00378,-0.004 -0.0052,-0.00949 -0.00945,-0.01349c-0.36572,-0.35832 -0.74515,-0.48575 -1.12788,-0.37731c-0.74183,0.2094 -1.28805,1.29283 -1.57487,2.00846c-0.03071,-0.40679 -0.07134,-0.73462 -0.08788,-0.85505l0.00992,-0.04148c0.05623,-0.05697 0.11435,-0.11294 0.17294,-0.16891c0.09923,-0.09446 0.19892,-0.18941 0.28917,-0.29035c1.00172,-1.12442 2.10172,-1.79507 3.36379,-2.05094c0.5344,-0.10845 1.23608,-0.2014 1.91649,0.04597c0.10064,0.03649 0.22964,0.10595 0.27075,0.22689c0.03827,0.11494 -0.01607,0.24687 -0.06805,0.33732z"/>
        </g>
        <g stroke="null" id="svg_65">
            <path stroke="null" fill="#b49f77" id="svg_47"
                  d="m11.861758,16.532462c0,0 -0.05811,-1.31482 0.32934,-1.10992c0,0 0.40636,0.22538 0.32887,1.37179l0.0808,1.925l-0.05245,1.28983l0.05245,1.3468l-0.37092,1.04896l-0.44558,-1.39628c0,0 0.27122,-0.71263 0.23248,-0.89703c-0.03875,-0.18441 -0.25374,-0.44527 -0.28162,-0.68365s0.12663,-2.8955 0.12663,-2.8955z"
                  class="st2"/>
            <path stroke="null" fill="#fdf288" id="svg_48"
                  d="m8.047678,18.513942l3.73659,1.59717c0,0 -0.29059,1.49473 -3.56223,1.20837l-0.25185,-1.20837c0,0 -0.90958,-0.962 0.07749,-1.59717z"
                  class="st3"/>
            <path stroke="null" fill="#ffca0a" id="svg_49"
                  d="m11.610388,16.630412c0,0 -4.26911,-4.34625 -6.15678,-1.82755l1.56826,2.01196l0.49377,1.28983l2.35214,1.07494l1.74261,0.82907l0.17436,0l0,-1.28983l-0.09545,-1.76658l-0.07891,-0.32184z"
                  class="st4"/>
            <path stroke="null" fill="#ffca0a" id="svg_50"
                  d="m12.442948,16.916762c0,0 3.4271,-4.21831 6.48611,-2.29331c0,0 0.15499,0.67565 -1.06503,1.67913c0,0 -0.83256,0.55272 -0.81318,1.45375c0,0 0.25184,0.73712 -1.52951,0.9625l-3.07839,1.39228l0.17388,-1.20788l-0.17388,-1.98647z"
                  class="st4"/>
            <path stroke="null" fill="#fdf288" id="svg_51"
                  d="m12.442948,20.050142l3.79471,-1.47424c0,0 0.79145,0.15542 0.18381,1.53571l-0.20318,0.98299c0,0 0.26129,0.33783 -1.11323,0.21489l-1.58763,-0.28685l-0.8713,-0.65516l-0.20318,-0.31734z"
                  class="st3"/>
            <path stroke="null" fill="#ffca0a" id="svg_52"
                  d="m11.687878,20.500412c0,0 -0.79901,0.89354 -3.24565,0.83557c0,0 -0.56843,0.45426 0.57362,1.80556c0,0 1.29703,1.31032 2.09085,-0.26636c0,0.0005 0.83256,-0.94151 0.58118,-2.37477z"
                  class="st4"/>
            <path stroke="null" fill="#ffca0a" id="svg_53"
                  d="m12.442948,20.438942c0,0 1.70386,1.37179 3.6591,0.73712l0,0.47075l-0.30996,0.83957c0,0 -1.3939,2.43674 -2.51705,0.5732l-0.69695,-2.04744l-0.13514,-0.5732z"
                  class="st4"/>
            <circle stroke="null" id="svg_54" r="0.503534" cy="15.186657" cx="17.070215"/>
            <circle stroke="null" id="svg_55" r="0.360837" cy="16.53246" cx="16.653935"/>
            <circle stroke="null" id="svg_56" r="0.184083" cy="17.55543" cx="16.257974"/>
            <ellipse stroke="null" id="svg_57"
                     transform="matrix(0.46901129360313426,-0.060668583614267024,0.057362453197078875,0.4960431309351026,-0.05571670298945319,1.9006272430173266) "
                     ry="1.168" rx="1.168" cy="28.393698" cx="12.146294"/>
            <ellipse stroke="null" id="svg_58"
                     transform="matrix(0.46901129360313426,-0.060668583614267024,0.057362453197078875,0.4960431309351026,-0.19874482970078577,1.9830345695246792) "
                     ry="0.837" rx="0.837" cy="30.959698" cx="13.348294"/>
            <ellipse stroke="null" id="svg_59"
                     transform="matrix(0.46901129360313426,-0.060668583614267024,0.057362453197078875,0.4960431309351026,-0.3057678581121397,2.0556969423213385) "
                     ry="0.427" rx="0.427" cy="32.890698" cx="14.427294"/>
            <ellipse stroke="null" fill="#ffca0a" id="svg_60"
                     transform="matrix(0.43149417017769714,-0.20359457137110695,0.19249969878492532,0.4563636783900218,-2.332448535648472,6.935819838271929) "
                     ry="0.459" rx="0.343" cy="40.785918" cx="23.388771" class="st4"/>
            <ellipse stroke="null" fill="#ffca0a" id="svg_61"
                     transform="matrix(0.43149417017769714,-0.20359457137110695,0.19249969878492532,0.4563636783900218,-1.8106581150098044,7.018527009508842) "
                     ry="0.564" rx="0.343" cy="38.275918" cx="24.329771" class="st4"/>
            <ellipse stroke="null" fill="#ffca0a" id="svg_62"
                     transform="matrix(0.43149417017769714,-0.20359457137110695,0.19249969878492532,0.4563636783900218,-2.4271863599154764,3.74662132055226) "
                     ry="0.611" rx="0.456" cy="38.065918" cx="8.304771" class="st4"/>
            <ellipse stroke="null" fill="#ffca0a" id="svg_63"
                     transform="matrix(0.43149417017769714,-0.20359457137110695,0.19249969878492532,0.4563636783900218,-2.8678944332014353,4.026926168569084) "
                     ry="0.524" rx="0.318" cy="40.536918" cx="9.155771" class="st4"/>
            <path stroke="null" id="svg_64"
                  d="m19.050028,14.555492c-0.05056,-0.14793 -0.17767,-0.34832 -0.49992,-0.46576c-0.76215,-0.27786 -1.52714,-0.17791 -2.10691,-0.06047c-1.34145,0.27236 -2.50713,0.98099 -3.5646,2.16738c-0.03166,0.03548 -0.06804,0.06796 -0.10159,0.10194c0.00189,-0.05397 0.00284,-0.10994 0.00142,-0.16491c0,-0.002 0.00095,-0.004 0.00047,-0.006c0,-0.0025 -0.00094,-0.0045 -0.00094,-0.00699c-0.00284,-0.09745 -0.01229,-0.19041 -0.03591,-0.25437c-0.20554,-0.56471 0.52873,-1.20738 0.75837,-1.39078c0.13514,-0.10745 0.16207,-0.09795 0.21688,-0.05997c0.12569,0.08695 0.27122,0.04198 0.37801,0.00799l0.05339,-0.01649c0.0997,-0.02648 0.16018,-0.13343 0.13467,-0.23837c-0.02505,-0.10545 -0.12663,-0.16942 -0.22539,-0.14243l-0.06898,0.02049c-0.03119,0.00999 -0.08411,0.02649 -0.06757,0.03998c-0.29438,-0.2044 -0.5311,-0.01649 -0.64498,0.07446c-0.47865,0.3818 -0.78341,0.78809 -0.89445,1.17639c-0.07088,-0.04048 -0.14459,-0.06247 -0.215,-0.06247c-0.00047,0 -0.00141,0 -0.00236,0c-0.06095,0.0005 -0.12427,0.0145 -0.18569,0.04498c-0.11671,-0.3798 -0.41628,-0.7766 -0.88407,-1.1494c-0.11387,-0.09046 -0.34965,-0.27886 -0.61,-0.08846c-0.03072,0.006 -0.07088,-0.01599 -0.10206,-0.02599l-0.06946,-0.02048c-0.09781,-0.02599 -0.20035,0.03698 -0.22539,0.14242c-0.02504,0.10495 0.03497,0.21189 0.13467,0.23838l0.05339,0.01649c0.10631,0.03348 0.25185,0.07896 0.378,-0.008c0.05576,-0.03948 0.08222,-0.04747 0.21641,0.05947c0.22822,0.18191 0.95022,0.81558 0.76121,1.37729c-0.00425,0.01799 -0.00897,0.03498 -0.01228,0.05397c-0.01418,0.05447 -0.02221,0.11944 -0.02504,0.1909c-0.00048,0.003 -0.00095,0.0055 -0.00142,0.009c0,0.002 0.00094,0.004 0.00047,0.006c-0.00236,0.06196 -0.00094,0.12443 0.00095,0.1854c-0.03922,-0.04148 -0.07844,-0.08346 -0.11435,-0.12144l-0.14931,-0.15792c-1.19214,-1.25285 -2.48162,-1.932 -3.94214,-2.07742c-0.55047,-0.05497 -1.13827,-0.06797 -1.67693,0.1939c-0.18002,0.04298 -0.39927,0.17741 -0.41439,0.5702c-0.01606,0.41679 0.21027,0.69265 0.36998,0.85106l0.12568,0.15542c0.09734,0.12094 0.1942,0.24188 0.30146,0.35282c0.46448,0.48025 0.8628,0.92602 1.02724,1.51971c0.10867,0.3943 0.26602,0.7816 0.64875,1.00848c-0.32981,0.3893 -0.37753,0.92452 -0.11624,1.34331c0.18145,0.29184 0.27358,0.5792 0.2887,0.90403c0.00567,0.12543 0.01938,0.41378 0.2372,0.56271c-0.11576,0.36331 -0.05244,0.67165 0.19846,1.02447c0.06473,0.09095 0.13372,0.1794 0.20318,0.26786c0.14836,0.1889 0.28775,0.36781 0.37847,0.5647c0.17341,0.37931 0.59678,0.61668 1.10567,0.62068c0.00378,0 0.00756,0 0.01134,0c0.41203,0 0.76736,-0.16191 0.99274,-0.42828c0.00851,-0.00749 0.01843,-0.01199 0.02599,-0.02148c0.043,-0.05598 0.07844,-0.11544 0.11057,-0.17641c0.00378,-0.0075 0.01086,-0.0135 0.01464,-0.02099c0.14932,-0.31584 0.34777,-0.83857 0.52307,-1.36829c0.02268,0.08945 0.04016,0.1809 0.07418,0.26636c0.00898,0.02199 0.01985,0.06047 0.03355,0.10494c0.07702,0.25437 0.13797,0.45627 0.31564,0.45627c0.00519,0 0.00992,0 0.01512,-0.0005c0.02882,-0.002 0.05481,-0.0115 0.07843,-0.02549c0.13278,-0.04148 0.19279,-0.21639 0.26036,-0.43977c0.01323,-0.04398 0.02457,-0.08296 0.03354,-0.10445c0.04962,-0.12443 0.08269,-0.25486 0.10821,-0.3883c0.00425,0.0155 0.01039,0.03499 0.01276,0.04648c0.10631,0.47126 0.28586,0.92352 0.45975,1.3608l0.03969,0.10044c0.00661,0.01649 0.01937,0.02899 0.02693,0.04498c0.00189,0.0045 0.00283,0.0095 0.00472,0.01399c0.00237,0.0055 0.00804,0.0075 0.01087,0.013c0.16255,0.31983 0.49944,0.53322 0.93132,0.5677c0.04016,0.0035 0.08127,0.005 0.12332,0.005c0.40021,0 0.85429,-0.14892 1.05842,-0.50274c0.11718,-0.20339 0.25468,-0.3913 0.40021,-0.59019c0.09592,-0.13094 0.19137,-0.26237 0.28114,-0.3978c0.16066,-0.24187 0.33832,-0.59369 0.18145,-1.00098c0.21074,-0.15142 0.22586,-0.42628 0.23294,-0.54672c0.0189,-0.33882 0.10632,-0.61868 0.27359,-0.88054c0.27641,-0.43178 0.23389,-0.967 -0.10585,-1.37679c0.31091,-0.17741 0.47818,-0.39229 0.58591,-0.73012c0.01938,-0.06147 0.03544,-0.12444 0.05103,-0.1874c0.01701,-0.07097 0.03402,-0.14193 0.06001,-0.20939c0.21688,-0.56871 0.61852,-1.01648 0.97762,-1.39078c0.1101,-0.11494 0.20932,-0.24138 0.3076,-0.36781l0.12947,-0.16442c0.00378,-0.004 0.00614,-0.00799 0.00945,-0.01199l0.05576,-0.06647c0.06615,-0.07596 0.13135,-0.15292 0.18097,-0.23887c0.16963,-0.29785 0.14695,-0.53273 0.09781,-0.67715zm-3.84716,1.91351c0.20034,0.28435 0.25704,0.52672 0.16916,0.74061c-0.2561,0.62368 -1.61362,0.95701 -2.38333,1.07744c0.25043,-0.70663 0.79901,-1.91001 1.44682,-2.09291c0.25137,-0.07097 0.50227,0.01999 0.76735,0.27486zm-6.03015,-0.03299c0.26697,-0.25137 0.52023,-0.34082 0.76925,-0.26736c0.64639,0.1894 1.18363,1.39878 1.42744,2.10791c-0.7683,-0.12793 -2.1225,-0.47575 -2.37341,-1.10193c-0.08552,-0.21439 -0.02646,-0.45676 0.17672,-0.73862zm-1.69488,1.04696c-0.18948,-0.68465 -0.63978,-1.19038 -1.1241,-1.69062c-0.09828,-0.10195 -0.18758,-0.21389 -0.27689,-0.32584l-0.14222,-0.17341c-0.19657,-0.19689 -0.27359,-0.35981 -0.26555,-0.5627c0.00614,-0.16292 0.05386,-0.18641 0.16112,-0.21639c0.49519,-0.23638 1.0244,-0.22339 1.52431,-0.17291c1.37122,0.13643 2.58651,0.77909 3.71533,1.96498l0.14742,0.15642c0.20507,0.21839 0.36998,0.3918 0.47062,0.48525l0.00095,0.0045c-0.01512,0.11144 -0.05718,0.44726 -0.08789,0.87054c-0.27925,-0.71862 -0.81697,-1.81556 -1.55928,-2.03344c-0.38084,-0.11095 -0.7631,0.01149 -1.13212,0.36631c-0.00378,0.004 -0.00567,0.00899 -0.00898,0.01299c-0.00378,0.0045 -0.00898,0.007 -0.01276,0.01149c-0.29768,0.4053 -0.37659,0.7916 -0.23389,1.14791c0.40258,1.00648 2.48964,1.32082 2.91206,1.37479c-0.00047,0.3798 0.02127,0.7621 0.08458,1.08244c-0.97053,-0.62018 -3.11193,-1.31782 -3.52349,-1.44875c-0.37848,-0.12794 -0.52637,-0.40979 -0.64922,-0.85356zm0.97478,3.62412c-0.0808,-0.01299 -0.12758,-0.03248 -0.13892,-0.27635c-0.01842,-0.3928 -0.13277,-0.75311 -0.34918,-1.10093c-0.17058,-0.27386 -0.12994,-0.62968 0.10064,-0.88604l0.07844,-0.09046c1.06314,0.34332 2.52083,0.88704 3.2381,1.31532l-1.26254,0c-0.10254,0 -0.1857,0.08846 -0.1857,0.1969s0.08316,0.1969 0.1857,0.1969l1.31688,0c-0.43755,0.3728 -1.35941,0.89154 -2.98342,0.64466c0.00047,0 0,0 0,0zm2.78591,1.08244c-0.06899,-0.15592 -0.16727,-0.29984 -0.30146,-0.41578c-0.19326,-0.16642 -0.43613,-0.24388 -0.68419,-0.21789c-0.24807,0.02599 -0.47157,0.15292 -0.62938,0.35732c-0.13278,0.17141 -0.19421,0.3868 -0.17294,0.60768c0.02079,0.22039 0.1219,0.41878 0.28397,0.55921c0.28304,0.24488 0.70262,0.1999 0.93462,-0.09995c0.08506,-0.10994 0.13089,-0.24837 0.12805,-0.39079c-0.00189,-0.10895 -0.0893,-0.18991 -0.189,-0.1934c-0.10253,0.00249 -0.18428,0.09145 -0.18239,0.19989c0.00095,0.04948 -0.01512,0.09745 -0.04441,0.13543c-0.10206,0.13243 -0.28681,0.15142 -0.41203,0.04398c-0.08552,-0.07396 -0.13844,-0.17841 -0.14931,-0.29435c-0.01134,-0.11594 0.02126,-0.22938 0.09119,-0.31983c0.09498,-0.12294 0.22964,-0.1994 0.37895,-0.21489c0.14884,-0.01899 0.29532,0.03048 0.41203,0.13093c0.28776,0.24887 0.35249,0.67815 0.17247,1.00798c-0.15593,0.30084 -0.5089,0.41129 -0.79807,0.41129c-0.00283,0 -0.0052,0 -0.00803,-0.0005c-0.36053,-0.0025 -0.66388,-0.15842 -0.7735,-0.3978c-0.11009,-0.24087 -0.27074,-0.44627 -0.42667,-0.64516c-0.06568,-0.08346 -0.13136,-0.16692 -0.19279,-0.25287c-0.18333,-0.25787 -0.21593,-0.43927 -0.12899,-0.68815c0.25515,0.03299 0.4985,0.05198 0.72246,0.05198c1.23608,0 2.00391,-0.45327 2.41499,-0.80659c-0.10348,0.41629 -0.27405,0.95351 -0.44557,1.43226zm1.01164,-1.79107c0.01323,0.1869 0.02693,0.37381 0.05575,0.55671c0.01559,0.09795 0.02505,0.1944 0.02788,0.28985l0,0c0,0 0,0 0,0.0005c0.00898,0.26436 -0.03119,0.50424 -0.12285,0.73412c-0.00756,0.01849 -0.01701,0.04748 -0.02693,0.07996c-0.00898,-0.02848 -0.01749,-0.05397 -0.0241,-0.07046c-0.0912,-0.23038 -0.13136,-0.47026 -0.12285,-0.73462c0.00283,-0.09545 0.01275,-0.1924 0.02835,-0.29035c0.01984,-0.12544 0.02787,-0.25337 0.03827,-0.38081c0.0052,-0.02548 0.01276,-0.05547 0.01701,-0.07945c0.00331,-0.01799 -0.00189,-0.03399 -0.00378,-0.05098c0.00094,-0.01399 0.00331,-0.02748 0.00425,-0.04148l0.01843,-0.24087c0.00047,-0.0055 -0.00142,-0.01 -0.00142,-0.01549c0,-0.013 -0.00142,-0.02549 -0.00378,-0.03848c-0.00236,-0.0135 -0.0052,-0.02599 -0.00992,-0.03848c-0.00189,-0.005 -0.00142,-0.01 -0.00378,-0.0145c-0.31469,-0.65766 -0.14884,-2.45423 -0.05859,-3.0914c0.00189,-0.01299 -0.00142,-0.02548 -0.00189,-0.03798c-0.00047,-0.01149 0.00189,-0.02248 -0.00047,-0.03398c-0.00048,-0.002 -0.00095,-0.003 -0.00142,-0.005c0,-0.0005 0,-0.00099 -0.00047,-0.00149c-0.00945,-0.04498 -0.01985,-0.08646 -0.02977,-0.12594c-0.01607,-0.06547 -0.03166,-0.12593 -0.04111,-0.20289c-0.01796,-0.14443 -0.02504,-0.31084 -0.02174,-0.42628c0.00662,-0.07846 0.01701,-0.14743 0.03166,-0.2054l0,0c0.04442,-0.1804 0.1186,-0.26436 0.17058,-0.26436c0,0 0,0 0,0c0.06804,0 0.20601,0.14293 0.23909,0.48425c0.00141,0.11444 -0.00567,0.26736 -0.02221,0.40279c-0.00945,0.07696 -0.02504,0.13793 -0.04158,0.20389l-0.0293,0.12444c-0.00992,0.02949 -0.01559,0.06097 -0.01087,0.09445c0.09214,0.63267 0.26319,2.41825 -0.05197,3.07641c-0.00236,0.005 -0.00189,0.00999 -0.00378,0.01499c-0.00473,0.01249 -0.00756,0.02499 -0.00992,0.03798c-0.00237,0.01299 -0.00426,0.02549 -0.00378,0.03848c0,0.0055 -0.00189,0.01 -0.00142,0.01549l0.01843,0.23638zm3.45734,1.78008c-0.08647,0.12993 -0.17908,0.25687 -0.27122,0.3828c-0.14554,0.1989 -0.29579,0.40429 -0.42384,0.62618c-0.11813,0.20589 -0.48054,0.34282 -0.83634,0.31034c-0.30619,-0.02399 -0.53866,-0.16142 -0.63883,-0.36631c-0.08694,-0.18891 -0.10017,-0.4018 -0.03639,-0.60069c0.06379,-0.2004 0.19846,-0.36232 0.37754,-0.45627c0.27783,-0.14542 0.6152,-0.02399 0.7527,0.26986c0.10017,0.21589 0.01654,0.47826 -0.18758,0.5847c-0.14601,0.07596 -0.31989,0.01199 -0.39218,-0.14093c-0.02032,-0.04397 -0.02599,-0.09445 -0.01465,-0.14242c0.02457,-0.10545 -0.03638,-0.21189 -0.13608,-0.23788c-0.10112,-0.02649 -0.20035,0.03898 -0.22492,0.14393c-0.03166,0.13842 -0.01701,0.28435 0.04253,0.41078c0.16254,0.34782 0.56228,0.49175 0.88926,0.31934c0.38793,-0.2019 0.54763,-0.70014 0.35627,-1.11043c-0.1101,-0.23638 -0.30146,-0.41378 -0.53724,-0.49824c-0.23673,-0.08546 -0.48999,-0.06647 -0.71302,0.04997c-0.23389,0.12194 -0.40541,0.32134 -0.50983,0.55272c-0.06568,-0.1909 -0.12522,-0.3833 -0.16869,-0.5767c-0.02457,-0.10895 -0.10064,-0.33233 -0.189,-0.5907c-0.04205,-0.12243 -0.08789,-0.25736 -0.12758,-0.3793c0.44983,0.35681 1.25356,0.80108 2.48445,0.80108c0.19184,0 0.39785,-0.01549 0.61001,-0.03898c0.10867,0.2089 0.08174,0.40479 -0.10537,0.68715zm0.68419,-2.42275c-0.20365,0.31884 -0.31422,0.67116 -0.33737,1.07795c-0.00851,0.15142 -0.03166,0.21189 -0.07466,0.24287c-1.61031,0.23638 -2.58084,-0.29285 -3.05476,-0.67615l1.23183,0c0.10253,0 0.18616,-0.08845 0.18616,-0.1969c0,-0.10844 -0.08363,-0.1969 -0.18616,-0.1969l-1.20632,0c0.72341,-0.41778 2.19905,-0.93501 3.27401,-1.25735c0.02126,0.02749 0.04205,0.05498 0.06521,0.08046c0.25326,0.28336 0.29106,0.62968 0.10206,0.92602zm2.24157,-4.72905c-0.03732,0.06497 -0.08741,0.12094 -0.13702,0.17841c-0.02835,0.03248 -0.05623,0.06497 -0.08316,0.09795c-0.00426,0.0055 -0.00804,0.01049 -0.01134,0.01599c-0.03875,0.04798 -0.07608,0.09645 -0.11388,0.14493c-0.09025,0.11594 -0.18002,0.23238 -0.28114,0.33782c-0.38557,0.40229 -0.81791,0.88504 -1.06125,1.52371c-0.03166,0.08346 -0.0534,0.17041 -0.07466,0.25787c-0.0137,0.05397 -0.02646,0.10844 -0.043,0.16091c-0.09261,0.29085 -0.23153,0.43328 -0.56464,0.5852c-0.36431,0.10695 -2.51091,0.75311 -3.52775,1.3613c0.05056,-0.29785 0.06615,-0.64017 0.06568,-0.981c0.45455,-0.05397 2.50524,-0.35181 2.91301,-1.3428c0.14553,-0.35482 0.07088,-0.74162 -0.22302,-1.1499c-0.00331,-0.005 -0.00851,-0.007 -0.01276,-0.0115c-0.00378,-0.004 -0.0052,-0.00949 -0.00945,-0.01349c-0.36572,-0.35832 -0.74515,-0.48575 -1.12788,-0.37731c-0.74183,0.2094 -1.28805,1.29283 -1.57487,2.00846c-0.03071,-0.40679 -0.07134,-0.73462 -0.08788,-0.85505l0.00992,-0.04148c0.05623,-0.05697 0.11435,-0.11294 0.17294,-0.16891c0.09923,-0.09446 0.19892,-0.18941 0.28917,-0.29035c1.00172,-1.12442 2.10172,-1.79507 3.36379,-2.05094c0.5344,-0.10845 1.23608,-0.2014 1.91649,0.04597c0.10064,0.03649 0.22964,0.10595 0.27075,0.22689c0.03827,0.11494 -0.01607,0.24687 -0.06805,0.33732z"/>
        </g>
        <g stroke="null" id="svg_84">
            <path stroke="null" fill="#b49f77" id="svg_66"
                  d="m32.362651,16.532461c0,0 -0.05811,-1.31482 0.32934,-1.10992c0,0 0.40636,0.22538 0.32887,1.37179l0.0808,1.925l-0.05245,1.28983l0.05245,1.3468l-0.37092,1.04896l-0.44558,-1.39628c0,0 0.27122,-0.71263 0.23248,-0.89703c-0.03875,-0.18441 -0.25374,-0.44527 -0.28162,-0.68365s0.12663,-2.8955 0.12663,-2.8955z"
                  class="st2"/>
            <path stroke="null" fill="#fdf288" id="svg_67"
                  d="m28.548571,18.513941l3.73659,1.59717c0,0 -0.29059,1.49473 -3.56223,1.20837l-0.25185,-1.20837c0,0 -0.90958,-0.962 0.07749,-1.59717z"
                  class="st3"/>
            <path stroke="null" fill="#ffca0a" id="svg_68"
                  d="m32.111281,16.630411c0,0 -4.26911,-4.34625 -6.15678,-1.82755l1.56826,2.01196l0.49377,1.28983l2.35214,1.07494l1.74261,0.82907l0.17436,0l0,-1.28983l-0.09545,-1.76658l-0.07891,-0.32184z"
                  class="st4"/>
            <path stroke="null" fill="#ffca0a" id="svg_69"
                  d="m32.943841,16.916761c0,0 3.4271,-4.21831 6.48611,-2.29331c0,0 0.15499,0.67565 -1.06503,1.67913c0,0 -0.83256,0.55272 -0.81318,1.45375c0,0 0.25184,0.73712 -1.52951,0.9625l-3.07839,1.39228l0.17388,-1.20788l-0.17388,-1.98647z"
                  class="st4"/>
            <path stroke="null" fill="#fdf288" id="svg_70"
                  d="m32.943841,20.050141l3.79471,-1.47424c0,0 0.79145,0.15542 0.18381,1.53571l-0.20318,0.98299c0,0 0.26129,0.33783 -1.11323,0.21489l-1.58763,-0.28685l-0.8713,-0.65516l-0.20318,-0.31734z"
                  class="st3"/>
            <path stroke="null" fill="#ffca0a" id="svg_71"
                  d="m32.188771,20.500411c0,0 -0.79901,0.89354 -3.24565,0.83557c0,0 -0.56843,0.45426 0.57362,1.80556c0,0 1.29703,1.31032 2.09085,-0.26636c0,0.0005 0.83256,-0.94151 0.58118,-2.37477z"
                  class="st4"/>
            <path stroke="null" fill="#ffca0a" id="svg_72"
                  d="m32.943841,20.438941c0,0 1.70386,1.37179 3.6591,0.73712l0,0.47075l-0.30996,0.83957c0,0 -1.3939,2.43674 -2.51705,0.5732l-0.69695,-2.04744l-0.13514,-0.5732z"
                  class="st4"/>
            <circle stroke="null" id="svg_73" r="0.503534" cy="15.186657" cx="37.57111"/>
            <circle stroke="null" id="svg_74" r="0.360837" cy="16.53246" cx="37.15483"/>
            <circle stroke="null" id="svg_75" r="0.184083" cy="17.55543" cx="36.758869"/>
            <ellipse stroke="null" id="svg_76"
                     transform="matrix(0.46901129360313426,-0.060668583614267024,0.057362453197078875,0.4960431309351026,-0.05571670298945319,1.9006272430173266) "
                     ry="1.168" rx="1.168" cy="33.660968" cx="55.212957"/>
            <ellipse stroke="null" id="svg_77"
                     transform="matrix(0.46901129360313426,-0.060668583614267024,0.057362453197078875,0.4960431309351026,-0.19874482970078577,1.9830345695246792) "
                     ry="0.837" rx="0.837" cy="36.226968" cx="56.414957"/>
            <ellipse stroke="null" id="svg_78"
                     transform="matrix(0.46901129360313426,-0.060668583614267024,0.057362453197078875,0.4960431309351026,-0.3057678581121397,2.0556969423213385) "
                     ry="0.427" rx="0.427" cy="38.157968" cx="57.493957"/>
            <ellipse stroke="null" fill="#ffca0a" id="svg_79"
                     transform="matrix(0.43149417017769714,-0.20359457137110695,0.19249969878492532,0.4563636783900218,-2.332448535648472,6.935819838271929) "
                     ry="0.459" rx="0.343" cy="58.46356" cx="63.013765" class="st4"/>
            <ellipse stroke="null" fill="#ffca0a" id="svg_80"
                     transform="matrix(0.43149417017769714,-0.20359457137110695,0.19249969878492532,0.4563636783900218,-1.8106581150098044,7.018527009508842) "
                     ry="0.564" rx="0.343" cy="55.95356" cx="63.954765" class="st4"/>
            <ellipse stroke="null" fill="#ffca0a" id="svg_81"
                     transform="matrix(0.43149417017769714,-0.20359457137110695,0.19249969878492532,0.4563636783900218,-2.4271863599154764,3.74662132055226) "
                     ry="0.611" rx="0.456" cy="55.74356" cx="47.929765" class="st4"/>
            <ellipse stroke="null" fill="#ffca0a" id="svg_82"
                     transform="matrix(0.43149417017769714,-0.20359457137110695,0.19249969878492532,0.4563636783900218,-2.8678944332014353,4.026926168569084) "
                     ry="0.524" rx="0.318" cy="58.21456" cx="48.780765" class="st4"/>
            <path stroke="null" id="svg_83"
                  d="m39.550921,14.555491c-0.05056,-0.14793 -0.17767,-0.34832 -0.49992,-0.46576c-0.76215,-0.27786 -1.52714,-0.17791 -2.10691,-0.06047c-1.34145,0.27236 -2.50713,0.98099 -3.5646,2.16738c-0.03166,0.03548 -0.06804,0.06796 -0.10159,0.10194c0.00189,-0.05397 0.00284,-0.10994 0.00142,-0.16491c0,-0.002 0.00095,-0.004 0.00047,-0.006c0,-0.0025 -0.00094,-0.0045 -0.00094,-0.00699c-0.00284,-0.09745 -0.01229,-0.19041 -0.03591,-0.25437c-0.20554,-0.56471 0.52873,-1.20738 0.75837,-1.39078c0.13514,-0.10745 0.16207,-0.09795 0.21688,-0.05997c0.12569,0.08695 0.27122,0.04198 0.37801,0.00799l0.05339,-0.01649c0.0997,-0.02648 0.16018,-0.13343 0.13467,-0.23837c-0.02505,-0.10545 -0.12663,-0.16942 -0.22539,-0.14243l-0.06898,0.02049c-0.03119,0.00999 -0.08411,0.02649 -0.06757,0.03998c-0.29438,-0.2044 -0.5311,-0.01649 -0.64498,0.07446c-0.47865,0.3818 -0.78341,0.78809 -0.89445,1.17639c-0.07088,-0.04048 -0.14459,-0.06247 -0.215,-0.06247c-0.00047,0 -0.00141,0 -0.00236,0c-0.06095,0.0005 -0.12427,0.0145 -0.18569,0.04498c-0.11671,-0.3798 -0.41628,-0.7766 -0.88407,-1.1494c-0.11387,-0.09046 -0.34965,-0.27886 -0.61,-0.08846c-0.03072,0.006 -0.07088,-0.01599 -0.10206,-0.02599l-0.06946,-0.02048c-0.09781,-0.02599 -0.20035,0.03698 -0.22539,0.14242c-0.02504,0.10495 0.03497,0.21189 0.13467,0.23838l0.05339,0.01649c0.10631,0.03348 0.25185,0.07896 0.378,-0.008c0.05576,-0.03948 0.08222,-0.04747 0.21641,0.05947c0.22822,0.18191 0.95022,0.81558 0.76121,1.37729c-0.00425,0.01799 -0.00897,0.03498 -0.01228,0.05397c-0.01418,0.05447 -0.02221,0.11944 -0.02504,0.1909c-0.00048,0.003 -0.00095,0.0055 -0.00142,0.009c0,0.002 0.00094,0.004 0.00047,0.006c-0.00236,0.06196 -0.00094,0.12443 0.00095,0.1854c-0.03922,-0.04148 -0.07844,-0.08346 -0.11435,-0.12144l-0.14931,-0.15792c-1.19214,-1.25285 -2.48162,-1.932 -3.94214,-2.07742c-0.55047,-0.05497 -1.13827,-0.06797 -1.67693,0.1939c-0.18002,0.04298 -0.39927,0.17741 -0.41439,0.5702c-0.01606,0.41679 0.21027,0.69265 0.36998,0.85106l0.12568,0.15542c0.09734,0.12094 0.1942,0.24188 0.30146,0.35282c0.46448,0.48025 0.8628,0.92602 1.02724,1.51971c0.10867,0.3943 0.26602,0.7816 0.64875,1.00848c-0.32981,0.3893 -0.37753,0.92452 -0.11624,1.34331c0.18145,0.29184 0.27358,0.5792 0.2887,0.90403c0.00567,0.12543 0.01938,0.41378 0.2372,0.56271c-0.11576,0.36331 -0.05244,0.67165 0.19846,1.02447c0.06473,0.09095 0.13372,0.1794 0.20318,0.26786c0.14836,0.1889 0.28775,0.36781 0.37847,0.5647c0.17341,0.37931 0.59678,0.61668 1.10567,0.62068c0.00378,0 0.00756,0 0.01134,0c0.41203,0 0.76736,-0.16191 0.99274,-0.42828c0.00851,-0.00749 0.01843,-0.01199 0.02599,-0.02148c0.043,-0.05598 0.07844,-0.11544 0.11057,-0.17641c0.00378,-0.0075 0.01086,-0.0135 0.01464,-0.02099c0.14932,-0.31584 0.34777,-0.83857 0.52307,-1.36829c0.02268,0.08945 0.04016,0.1809 0.07418,0.26636c0.00898,0.02199 0.01985,0.06047 0.03355,0.10494c0.07702,0.25437 0.13797,0.45627 0.31564,0.45627c0.00519,0 0.00992,0 0.01512,-0.0005c0.02882,-0.002 0.05481,-0.0115 0.07843,-0.02549c0.13278,-0.04148 0.19279,-0.21639 0.26036,-0.43977c0.01323,-0.04398 0.02457,-0.08296 0.03354,-0.10445c0.04962,-0.12443 0.08269,-0.25486 0.10821,-0.3883c0.00425,0.0155 0.01039,0.03499 0.01276,0.04648c0.10631,0.47126 0.28586,0.92352 0.45975,1.3608l0.03969,0.10044c0.00661,0.01649 0.01937,0.02899 0.02693,0.04498c0.00189,0.0045 0.00283,0.0095 0.00472,0.01399c0.00237,0.0055 0.00804,0.0075 0.01087,0.013c0.16255,0.31983 0.49944,0.53322 0.93132,0.5677c0.04016,0.0035 0.08127,0.005 0.12332,0.005c0.40021,0 0.85429,-0.14892 1.05842,-0.50274c0.11718,-0.20339 0.25468,-0.3913 0.40021,-0.59019c0.09592,-0.13094 0.19137,-0.26237 0.28114,-0.3978c0.16066,-0.24187 0.33832,-0.59369 0.18145,-1.00098c0.21074,-0.15142 0.22586,-0.42628 0.23294,-0.54672c0.0189,-0.33882 0.10632,-0.61868 0.27359,-0.88054c0.27641,-0.43178 0.23389,-0.967 -0.10585,-1.37679c0.31091,-0.17741 0.47818,-0.39229 0.58591,-0.73012c0.01938,-0.06147 0.03544,-0.12444 0.05103,-0.1874c0.01701,-0.07097 0.03402,-0.14193 0.06001,-0.20939c0.21688,-0.56871 0.61852,-1.01648 0.97762,-1.39078c0.1101,-0.11494 0.20932,-0.24138 0.3076,-0.36781l0.12947,-0.16442c0.00378,-0.004 0.00614,-0.00799 0.00945,-0.01199l0.05576,-0.06647c0.06615,-0.07596 0.13135,-0.15292 0.18097,-0.23887c0.16963,-0.29785 0.14695,-0.53273 0.09781,-0.67715zm-3.84716,1.91351c0.20034,0.28435 0.25704,0.52672 0.16916,0.74061c-0.2561,0.62368 -1.61362,0.95701 -2.38333,1.07744c0.25043,-0.70663 0.79901,-1.91001 1.44682,-2.09291c0.25137,-0.07097 0.50227,0.01999 0.76735,0.27486zm-6.03015,-0.03299c0.26697,-0.25137 0.52023,-0.34082 0.76925,-0.26736c0.64639,0.1894 1.18363,1.39878 1.42744,2.10791c-0.7683,-0.12793 -2.1225,-0.47575 -2.37341,-1.10193c-0.08552,-0.21439 -0.02646,-0.45676 0.17672,-0.73862zm-1.69488,1.04696c-0.18948,-0.68465 -0.63978,-1.19038 -1.1241,-1.69062c-0.09828,-0.10195 -0.18758,-0.21389 -0.27689,-0.32584l-0.14222,-0.17341c-0.19657,-0.19689 -0.27359,-0.35981 -0.26555,-0.5627c0.00614,-0.16292 0.05386,-0.18641 0.16112,-0.21639c0.49519,-0.23638 1.0244,-0.22339 1.52431,-0.17291c1.37122,0.13643 2.58651,0.77909 3.71533,1.96498l0.14742,0.15642c0.20507,0.21839 0.36998,0.3918 0.47062,0.48525l0.00095,0.0045c-0.01512,0.11144 -0.05718,0.44726 -0.08789,0.87054c-0.27925,-0.71862 -0.81697,-1.81556 -1.55928,-2.03344c-0.38084,-0.11095 -0.7631,0.01149 -1.13212,0.36631c-0.00378,0.004 -0.00567,0.00899 -0.00898,0.01299c-0.00378,0.0045 -0.00898,0.007 -0.01276,0.01149c-0.29768,0.4053 -0.37659,0.7916 -0.23389,1.14791c0.40258,1.00648 2.48964,1.32082 2.91206,1.37479c-0.00047,0.3798 0.02127,0.7621 0.08458,1.08244c-0.97053,-0.62018 -3.11193,-1.31782 -3.52349,-1.44875c-0.37848,-0.12794 -0.52637,-0.40979 -0.64922,-0.85356zm0.97478,3.62412c-0.0808,-0.01299 -0.12758,-0.03248 -0.13892,-0.27635c-0.01842,-0.3928 -0.13277,-0.75311 -0.34918,-1.10093c-0.17058,-0.27386 -0.12994,-0.62968 0.10064,-0.88604l0.07844,-0.09046c1.06314,0.34332 2.52083,0.88704 3.2381,1.31532l-1.26254,0c-0.10254,0 -0.1857,0.08846 -0.1857,0.1969s0.08316,0.1969 0.1857,0.1969l1.31688,0c-0.43755,0.3728 -1.35941,0.89154 -2.98342,0.64466c0.00047,0 0,0 0,0zm2.78591,1.08244c-0.06899,-0.15592 -0.16727,-0.29984 -0.30146,-0.41578c-0.19326,-0.16642 -0.43613,-0.24388 -0.68419,-0.21789c-0.24807,0.02599 -0.47157,0.15292 -0.62938,0.35732c-0.13278,0.17141 -0.19421,0.3868 -0.17294,0.60768c0.02079,0.22039 0.1219,0.41878 0.28397,0.55921c0.28304,0.24488 0.70262,0.1999 0.93462,-0.09995c0.08506,-0.10994 0.13089,-0.24837 0.12805,-0.39079c-0.00189,-0.10895 -0.0893,-0.18991 -0.189,-0.1934c-0.10253,0.00249 -0.18428,0.09145 -0.18239,0.19989c0.00095,0.04948 -0.01512,0.09745 -0.04441,0.13543c-0.10206,0.13243 -0.28681,0.15142 -0.41203,0.04398c-0.08552,-0.07396 -0.13844,-0.17841 -0.14931,-0.29435c-0.01134,-0.11594 0.02126,-0.22938 0.09119,-0.31983c0.09498,-0.12294 0.22964,-0.1994 0.37895,-0.21489c0.14884,-0.01899 0.29532,0.03048 0.41203,0.13093c0.28776,0.24887 0.35249,0.67815 0.17247,1.00798c-0.15593,0.30084 -0.5089,0.41129 -0.79807,0.41129c-0.00283,0 -0.0052,0 -0.00803,-0.0005c-0.36053,-0.0025 -0.66388,-0.15842 -0.7735,-0.3978c-0.11009,-0.24087 -0.27074,-0.44627 -0.42667,-0.64516c-0.06568,-0.08346 -0.13136,-0.16692 -0.19279,-0.25287c-0.18333,-0.25787 -0.21593,-0.43927 -0.12899,-0.68815c0.25515,0.03299 0.4985,0.05198 0.72246,0.05198c1.23608,0 2.00391,-0.45327 2.41499,-0.80659c-0.10348,0.41629 -0.27405,0.95351 -0.44557,1.43226zm1.01164,-1.79107c0.01323,0.1869 0.02693,0.37381 0.05575,0.55671c0.01559,0.09795 0.02505,0.1944 0.02788,0.28985l0,0c0,0 0,0 0,0.0005c0.00898,0.26436 -0.03119,0.50424 -0.12285,0.73412c-0.00756,0.01849 -0.01701,0.04748 -0.02693,0.07996c-0.00898,-0.02848 -0.01749,-0.05397 -0.0241,-0.07046c-0.0912,-0.23038 -0.13136,-0.47026 -0.12285,-0.73462c0.00283,-0.09545 0.01275,-0.1924 0.02835,-0.29035c0.01984,-0.12544 0.02787,-0.25337 0.03827,-0.38081c0.0052,-0.02548 0.01276,-0.05547 0.01701,-0.07945c0.00331,-0.01799 -0.00189,-0.03399 -0.00378,-0.05098c0.00094,-0.01399 0.00331,-0.02748 0.00425,-0.04148l0.01843,-0.24087c0.00047,-0.0055 -0.00142,-0.01 -0.00142,-0.01549c0,-0.013 -0.00142,-0.02549 -0.00378,-0.03848c-0.00236,-0.0135 -0.0052,-0.02599 -0.00992,-0.03848c-0.00189,-0.005 -0.00142,-0.01 -0.00378,-0.0145c-0.31469,-0.65766 -0.14884,-2.45423 -0.05859,-3.0914c0.00189,-0.01299 -0.00142,-0.02548 -0.00189,-0.03798c-0.00047,-0.01149 0.00189,-0.02248 -0.00047,-0.03398c-0.00048,-0.002 -0.00095,-0.003 -0.00142,-0.005c0,-0.0005 0,-0.00099 -0.00047,-0.00149c-0.00945,-0.04498 -0.01985,-0.08646 -0.02977,-0.12594c-0.01607,-0.06547 -0.03166,-0.12593 -0.04111,-0.20289c-0.01796,-0.14443 -0.02504,-0.31084 -0.02174,-0.42628c0.00662,-0.07846 0.01701,-0.14743 0.03166,-0.2054l0,0c0.04442,-0.1804 0.1186,-0.26436 0.17058,-0.26436c0,0 0,0 0,0c0.06804,0 0.20601,0.14293 0.23909,0.48425c0.00141,0.11444 -0.00567,0.26736 -0.02221,0.40279c-0.00945,0.07696 -0.02504,0.13793 -0.04158,0.20389l-0.0293,0.12444c-0.00992,0.02949 -0.01559,0.06097 -0.01087,0.09445c0.09214,0.63267 0.26319,2.41825 -0.05197,3.07641c-0.00236,0.005 -0.00189,0.00999 -0.00378,0.01499c-0.00473,0.01249 -0.00756,0.02499 -0.00992,0.03798c-0.00237,0.01299 -0.00426,0.02549 -0.00378,0.03848c0,0.0055 -0.00189,0.01 -0.00142,0.01549l0.01843,0.23638zm3.45734,1.78008c-0.08647,0.12993 -0.17908,0.25687 -0.27122,0.3828c-0.14554,0.1989 -0.29579,0.40429 -0.42384,0.62618c-0.11813,0.20589 -0.48054,0.34282 -0.83634,0.31034c-0.30619,-0.02399 -0.53866,-0.16142 -0.63883,-0.36631c-0.08694,-0.18891 -0.10017,-0.4018 -0.03639,-0.60069c0.06379,-0.2004 0.19846,-0.36232 0.37754,-0.45627c0.27783,-0.14542 0.6152,-0.02399 0.7527,0.26986c0.10017,0.21589 0.01654,0.47826 -0.18758,0.5847c-0.14601,0.07596 -0.31989,0.01199 -0.39218,-0.14093c-0.02032,-0.04397 -0.02599,-0.09445 -0.01465,-0.14242c0.02457,-0.10545 -0.03638,-0.21189 -0.13608,-0.23788c-0.10112,-0.02649 -0.20035,0.03898 -0.22492,0.14393c-0.03166,0.13842 -0.01701,0.28435 0.04253,0.41078c0.16254,0.34782 0.56228,0.49175 0.88926,0.31934c0.38793,-0.2019 0.54763,-0.70014 0.35627,-1.11043c-0.1101,-0.23638 -0.30146,-0.41378 -0.53724,-0.49824c-0.23673,-0.08546 -0.48999,-0.06647 -0.71302,0.04997c-0.23389,0.12194 -0.40541,0.32134 -0.50983,0.55272c-0.06568,-0.1909 -0.12522,-0.3833 -0.16869,-0.5767c-0.02457,-0.10895 -0.10064,-0.33233 -0.189,-0.5907c-0.04205,-0.12243 -0.08789,-0.25736 -0.12758,-0.3793c0.44983,0.35681 1.25356,0.80108 2.48445,0.80108c0.19184,0 0.39785,-0.01549 0.61001,-0.03898c0.10867,0.2089 0.08174,0.40479 -0.10537,0.68715zm0.68419,-2.42275c-0.20365,0.31884 -0.31422,0.67116 -0.33737,1.07795c-0.00851,0.15142 -0.03166,0.21189 -0.07466,0.24287c-1.61031,0.23638 -2.58084,-0.29285 -3.05476,-0.67615l1.23183,0c0.10253,0 0.18616,-0.08845 0.18616,-0.1969c0,-0.10844 -0.08363,-0.1969 -0.18616,-0.1969l-1.20632,0c0.72341,-0.41778 2.19905,-0.93501 3.27401,-1.25735c0.02126,0.02749 0.04205,0.05498 0.06521,0.08046c0.25326,0.28336 0.29106,0.62968 0.10206,0.92602zm2.24157,-4.72905c-0.03732,0.06497 -0.08741,0.12094 -0.13702,0.17841c-0.02835,0.03248 -0.05623,0.06497 -0.08316,0.09795c-0.00426,0.0055 -0.00804,0.01049 -0.01134,0.01599c-0.03875,0.04798 -0.07608,0.09645 -0.11388,0.14493c-0.09025,0.11594 -0.18002,0.23238 -0.28114,0.33782c-0.38557,0.40229 -0.81791,0.88504 -1.06125,1.52371c-0.03166,0.08346 -0.0534,0.17041 -0.07466,0.25787c-0.0137,0.05397 -0.02646,0.10844 -0.043,0.16091c-0.09261,0.29085 -0.23153,0.43328 -0.56464,0.5852c-0.36431,0.10695 -2.51091,0.75311 -3.52775,1.3613c0.05056,-0.29785 0.06615,-0.64017 0.06568,-0.981c0.45455,-0.05397 2.50524,-0.35181 2.91301,-1.3428c0.14553,-0.35482 0.07088,-0.74162 -0.22302,-1.1499c-0.00331,-0.005 -0.00851,-0.007 -0.01276,-0.0115c-0.00378,-0.004 -0.0052,-0.00949 -0.00945,-0.01349c-0.36572,-0.35832 -0.74515,-0.48575 -1.12788,-0.37731c-0.74183,0.2094 -1.28805,1.29283 -1.57487,2.00846c-0.03071,-0.40679 -0.07134,-0.73462 -0.08788,-0.85505l0.00992,-0.04148c0.05623,-0.05697 0.11435,-0.11294 0.17294,-0.16891c0.09923,-0.09446 0.19892,-0.18941 0.28917,-0.29035c1.00172,-1.12442 2.10172,-1.79507 3.36379,-2.05094c0.5344,-0.10845 1.23608,-0.2014 1.91649,0.04597c0.10064,0.03649 0.22964,0.10595 0.27075,0.22689c0.03827,0.11494 -0.01607,0.24687 -0.06805,0.33732z"/>
        </g>
    </g>
</svg>
