<svg width="503.33" height="80" xmlns="http://www.w3.org/2000/svg">

 <metadata>image/svg+xmlOpenclipart</metadata>
 <g>
  <title>background</title>
  <rect fill="none" id="canvas_background" height="82" width="505.33" y="-1" x="-1"/>
 </g>
 <g>
  <title>Layer 1</title>
  <g transform="rotate(-1.0968292951583862 46.96422958374056,34.672340393066484) " id="svg_2">
   <path transform="rotate(-123 82.32553863525392,34.67229461669922) " stroke="null" fill="#333333" d="m114.547627,-4.014818c-1.017281,-1.067963 -2.362455,-2.188811 -3.972654,-3.160761c-1.61074,-0.971949 -3.244244,-1.664072 -4.689683,-2.095365c-2.356494,-0.703418 -4.209495,-0.710606 -4.627898,-0.088312l-53.304559,79.255198l15.342681,9.261501l53.305101,-79.255198c0.38751,-0.577111 -0.395097,-2.175975 -2.052989,-3.91655l0,-0.000513z" id="path6239"/>
   <path transform="rotate(-123 -12.864163398742676,24.271600723266598) " stroke="null" fill="#e3851b" d="m-32.320501,40.575584c0.665541,-0.731144 1.46224,-1.561896 2.386844,-2.448614c2.674631,-3.531981 6.319934,-7.994321 10.584168,-12.301089c7.184921,-7.283715 16.171898,-14.046284 24.885722,-15.306276c0.73925,-0.109877 1.244367,-0.767085 1.128927,-1.466909s-0.807538,-1.178867 -1.548414,-1.069504c-9.827576,1.485393 -19.049769,8.646395 -26.442807,16.087224c-1.625374,1.642507 -3.159696,3.302471 -4.586708,4.925467c-2.434538,4.55168 -4.727079,8.52933 -6.497159,11.504224c0.030892,0.025159 0.060159,0.050318 0.089425,0.075476z" id="path6241"/>
   <path transform="rotate(-123 -16.254335403442383,37.436424255371094) " stroke="null" fill="#f3e400" d="m-20.110057,52.175502c0.487233,-0.910849 0.979885,-1.84275 1.475247,-2.795702c5.89557,-11.363027 12.182444,-25.451927 13.683706,-36.744098c0.092677,-0.704445 -0.434661,-1.345223 -1.176079,-1.433022c-0.743043,-0.088312 -1.419966,0.411269 -1.512643,1.114173c-1.400455,10.699144 -7.58056,24.699218 -13.426269,35.929263c-0.763638,1.46999 -1.521315,2.891716 -2.261649,4.255936c-0.787485,2.451181 -1.648678,4.681581 -2.46814,6.604942c-0.634107,1.487447 -1.243283,2.793135 -1.772248,3.868286c0.345236,0.226429 0.666083,0.46364 0.960374,0.704958c1.771164,-2.974894 4.063163,-6.952544 6.497701,-11.504737z" id="path6243"/>
   <path transform="rotate(-123 -9.688393592834473,43.757537841796875) " stroke="null" fill="#a57c52" d="m-10.351998,63.364193c0.819461,-1.923361 1.680655,-4.153761 2.46814,-6.604942c0.363121,-1.129577 0.710525,-2.30485 1.029747,-3.518118c2.596587,-9.87712 3.445857,-22.38564 -4.141749,-32.424495c-0.436287,-0.576597 -1.282847,-0.707526 -1.890398,-0.293176c-0.607008,0.413836 -0.746837,1.214808 -0.310008,1.791406l0.000542,-0.000513c6.886294,9.048422 6.235386,20.747754 3.712507,30.305512c-1.254665,4.7663 -2.96025,8.966271 -4.349866,11.964783c-0.03577,0.078043 -0.070998,0.151979 -0.106768,0.228483c-0.1485,0.450804 -0.294833,0.874908 -0.434661,1.26718c0.312176,0.119632 0.632481,0.257235 0.957664,0.416403c0.176683,0.086259 0.35445,0.179705 0.532216,0.277773c0.133325,0.073422 0.267192,0.149926 0.399975,0.230023c0.124112,0.074963 0.242803,0.151466 0.360953,0.228996c0.528423,-1.075665 1.137599,-2.381353 1.771706,-3.869313z" id="path6245"/>
   <path transform="rotate(-123 -2.474157094955442,21.719295501708988) " stroke="null" fill="#49a94c" d="m13.466541,14.86353c0.022763,-0.708553 -0.566903,-1.30004 -1.314282,-1.320578c-10.225383,-0.28034 -18.479073,4.081879 -24.133465,8.442558c-1.541368,1.189136 -2.892504,2.380326 -4.047446,3.487311c-0.924604,0.886718 -1.721845,1.71747 -2.386844,2.448614c0.12357,0.102689 0.240636,0.205378 0.353366,0.30858c0.651992,0.596622 1.134889,1.189649 1.414547,1.678448c4.105979,-4.607132 14.519426,-14.24242 28.720173,-13.798804c0.747921,0.019511 1.372815,-0.538089 1.393952,-1.246128z" id="path6247"/>
   <path transform="rotate(-123 -2.7230508327484144,47.15907287597656) " stroke="null" fill="#31a9dc" d="m-0.328153,64.22512c0.873117,-2.639615 1.85788,-6.217292 2.395516,-10.193401c0.549017,-4.098309 0.627061,-8.62329 -0.43141,-12.990644c-1.055219,-4.363246 -3.281098,-8.585809 -7.298735,-11.899062c-0.564735,-0.46672 -1.419966,-0.409728 -1.912619,0.124253c-0.490485,0.534495 -0.431952,1.345736 0.132783,1.810917c3.522275,2.912254 5.471206,6.575676 6.437542,10.538436c1.449233,5.936952 0.588581,12.514681 -0.675297,17.583399c-0.566361,2.281231 -1.208055,4.252342 -1.742982,5.731061c0.601589,-0.027726 1.503972,0.13709 2.515291,0.508309c0.048235,0.017971 0.097013,0.035428 0.14579,0.053912c0.139287,-0.392785 0.285619,-0.816376 0.434119,-1.26718z" id="path6249"/>
   <path transform="rotate(-123 22.620365142822266,33.668663024902344) " stroke="null" fill="#fcc400" d="m32.138151,27.31783c-0.280199,-0.488285 -0.762554,-1.081313 -1.414547,-1.678448c-0.11273,-0.103202 -0.230338,-0.205891 -0.353366,-0.30858c-0.029808,-0.025159 -0.058533,-0.050318 -0.089425,-0.075476c-0.294833,-0.240805 -0.61568,-0.478016 -0.960374,-0.704958c-0.11815,-0.07753 -0.237384,-0.154033 -0.360953,-0.228996c-0.132783,-0.080097 -0.26665,-0.1566 -0.399975,-0.230023c-0.177767,-0.098068 -0.355534,-0.191515 -0.532216,-0.277773c-0.325183,-0.158654 -0.644947,-0.296771 -0.957664,-0.416403c-0.048777,-0.018997 -0.097555,-0.036455 -0.14579,-0.053912c-1.010778,-0.37122 -1.913161,-0.536035 -2.515291,-0.508309c-0.360411,0.016944 -0.61568,0.100122 -0.717029,0.251588l-10.871414,16.1627c1.445439,0.431293 3.079484,1.123415 4.689683,2.095365c1.610198,0.972463 2.955373,2.093311 3.972654,3.160761l10.883879,-16.182211c0.122486,-0.182273 0.034144,-0.548358 -0.22817,-1.005323z" id="path6251"/>
  </g>
  <path transform="rotate(55.873291015625 171.32945251464844,33.57969665527344) " stroke="null" fill="#333333" d="m203.551547,-5.107376c-1.017281,-1.067963 -2.362455,-2.188811 -3.972653,-3.160761c-1.610741,-0.971949 -3.244244,-1.664071 -4.689683,-2.095364c-2.356493,-0.703418 -4.209495,-0.710606 -4.627898,-0.088312l-53.304558,79.255198l15.342681,9.261501l53.305101,-79.255199c0.38751,-0.57711 -0.395098,-2.175975 -2.05299,-3.916549l0,-0.000514z" id="svg_3"/>
  <path transform="rotate(55.567134857177734 265.49255371093744,32.98365020751953) " stroke="null" fill="#333333" d="m297.714652,-5.703345c-1.017281,-1.067963 -2.362455,-2.188811 -3.972653,-3.160761c-1.610741,-0.971949 -3.244244,-1.664071 -4.689683,-2.095364c-2.356493,-0.703418 -4.209495,-0.710606 -4.627898,-0.088312l-53.304558,79.255198l15.342681,9.261501l53.305101,-79.255199c0.38751,-0.57711 -0.395098,-2.175975 -2.05299,-3.916549l0,-0.000514z" id="svg_11"/>
  <path transform="rotate(55.873291015625 359.65624999999994,32.38777160644534) " stroke="null" fill="#333333" d="m391.877757,-6.299314c-1.017281,-1.067963 -2.362455,-2.188811 -3.972653,-3.160761c-1.610741,-0.971949 -3.244244,-1.664071 -4.689683,-2.095364c-2.356493,-0.703418 -4.209495,-0.710606 -4.627898,-0.088312l-53.304558,79.255198l15.342681,9.261501l53.305101,-79.255199c0.38751,-0.57711 -0.395098,-2.175975 -2.05299,-3.916549l0,-0.000514z" id="svg_12"/>
  <g transform="rotate(178.48902893066406 454.6067199707032,31.096355438232422) " id="svg_20">
   <path transform="rotate(-123 489.96798706054693,31.09637069702146) " stroke="null" fill="#333333" d="m522.190412,-7.590637c-1.017281,-1.067963 -2.362455,-2.188811 -3.972653,-3.160761c-1.610741,-0.971949 -3.244244,-1.664071 -4.689683,-2.095364c-2.356493,-0.703418 -4.209495,-0.710606 -4.627898,-0.088312l-53.304558,79.255198l15.342681,9.261501l53.305101,-79.255199c0.38751,-0.57711 -0.395098,-2.175975 -2.05299,-3.916549l0,-0.000514z" id="svg_13"/>
   <path transform="rotate(-123 394.7782897949219,20.695768356323256) " stroke="null" fill="#e3851b" d="m375.322285,36.999764c0.665542,-0.731144 1.46224,-1.561896 2.386844,-2.448614c2.674631,-3.53198 6.319934,-7.994321 10.584169,-12.301088c7.184921,-7.283715 16.171898,-14.046285 24.885722,-15.306276c0.739249,-0.109877 1.244367,-0.767085 1.128927,-1.466909s-0.807538,-1.178867 -1.548414,-1.069504c-9.827575,1.485393 -19.049769,8.646395 -26.442807,16.087224c-1.625373,1.642507 -3.159696,3.302471 -4.586708,4.925467c-2.434537,4.55168 -4.727078,8.52933 -6.497158,11.504224c0.030892,0.025159 0.060159,0.050318 0.089425,0.075476z" id="svg_14"/>
   <path transform="rotate(-123 391.38815307617193,33.86055755615237) " stroke="null" fill="#f3e400" d="m387.532729,48.599682c0.487233,-0.910849 0.979885,-1.84275 1.475247,-2.795702c5.89557,-11.363026 12.182444,-25.451927 13.683706,-36.744098c0.092677,-0.704445 -0.434661,-1.345223 -1.176079,-1.433022c-0.743043,-0.088312 -1.419966,0.411269 -1.512643,1.114173c-1.400456,10.699144 -7.580561,24.699219 -13.426269,35.929263c-0.763639,1.46999 -1.521315,2.891716 -2.261649,4.255937c-0.787485,2.451181 -1.648678,4.681581 -2.46814,6.604942c-0.634107,1.487447 -1.243283,2.793135 -1.772248,3.868286c0.345236,0.226429 0.666084,0.46364 0.960374,0.704959c1.771164,-2.974894 4.063163,-6.952544 6.497701,-11.504738z" id="svg_15"/>
   <path transform="rotate(-123 397.95407104492193,40.18167114257809) " stroke="null" fill="#a57c52" d="m397.290788,59.788373c0.819462,-1.923361 1.680655,-4.153761 2.46814,-6.604942c0.363121,-1.129577 0.710525,-2.30485 1.029747,-3.518118c2.596587,-9.87712 3.445857,-22.38564 -4.141749,-32.424494c-0.436288,-0.576598 -1.282848,-0.707526 -1.890398,-0.293177c-0.607009,0.413836 -0.746837,1.214808 -0.310008,1.791406l0.000542,-0.000514c6.886294,9.048422 6.235386,20.747754 3.712507,30.305512c-1.254665,4.7663 -2.96025,8.966271 -4.349866,11.964783c-0.03577,0.078044 -0.070998,0.15198 -0.106768,0.228483c-0.148501,0.450804 -0.294833,0.874908 -0.434662,1.267179c0.312176,0.119633 0.632481,0.257236 0.957664,0.416403c0.176683,0.086259 0.35445,0.179706 0.532217,0.277773c0.133325,0.073423 0.267192,0.149926 0.399975,0.230023c0.124112,0.074963 0.242803,0.151466 0.360953,0.228996c0.528423,-1.075665 1.137599,-2.381352 1.771706,-3.869313z" id="svg_16"/>
   <path transform="rotate(-123 405.1683044433594,18.143482208251957) " stroke="null" fill="#49a94c" d="m421.109327,11.287711c0.022762,-0.708553 -0.566903,-1.30004 -1.314282,-1.320578c-10.225383,-0.28034 -18.479073,4.081879 -24.133465,8.442558c-1.541368,1.189136 -2.892504,2.380326 -4.047446,3.487311c-0.924604,0.886717 -1.721845,1.71747 -2.386844,2.448614c0.123569,0.102689 0.240635,0.205377 0.353365,0.30858c0.651993,0.596621 1.13489,1.189649 1.414547,1.678448c4.105979,-4.607132 14.519426,-14.24242 28.720173,-13.798805c0.747921,0.019511 1.372815,-0.538089 1.393952,-1.246128z" id="svg_17"/>
   <path transform="rotate(-123 404.9194030761719,43.583236694335945) " stroke="null" fill="#31a9dc" d="m407.314633,60.649301c0.873116,-2.639615 1.857879,-6.217292 2.395515,-10.193402c0.549018,-4.098309 0.627062,-8.62329 -0.431409,-12.990644c-1.055219,-4.363246 -3.281098,-8.585808 -7.298735,-11.899062c-0.564735,-0.46672 -1.419967,-0.409728 -1.912619,0.124254c-0.490485,0.534495 -0.431952,1.345736 0.132783,1.810916c3.522275,2.912254 5.471206,6.575676 6.437542,10.538436c1.449233,5.936952 0.588581,12.514681 -0.675297,17.583399c-0.566361,2.281232 -1.208055,4.252343 -1.742982,5.731061c0.601589,-0.027726 1.503972,0.13709 2.515292,0.50831c0.048235,0.01797 0.097013,0.035427 0.14579,0.053911c0.139287,-0.392784 0.285619,-0.816376 0.43412,-1.267179z" id="svg_18"/>
   <path transform="rotate(-123 430.2628479003906,30.09278869628903) " stroke="null" fill="#fcc400" d="m439.780937,23.742011c-0.280199,-0.488285 -0.762554,-1.081313 -1.414546,-1.678448c-0.11273,-0.103203 -0.230338,-0.205891 -0.353366,-0.30858c-0.029808,-0.025159 -0.058533,-0.050318 -0.089425,-0.075476c-0.294833,-0.240806 -0.61568,-0.478017 -0.960374,-0.704959c-0.11815,-0.07753 -0.237384,-0.154033 -0.360954,-0.228996c-0.132783,-0.080097 -0.26665,-0.1566 -0.399975,-0.230023c-0.177767,-0.098067 -0.355533,-0.191514 -0.532216,-0.277773c-0.325183,-0.158654 -0.644947,-0.29677 -0.957665,-0.416403c-0.048777,-0.018997 -0.097554,-0.036454 -0.14579,-0.053911c-1.010777,-0.37122 -1.913161,-0.536036 -2.515291,-0.50831c-0.360412,0.016944 -0.61568,0.100122 -0.717029,0.251588l-10.871414,16.1627c1.445439,0.431293 3.079484,1.123415 4.689683,2.095364c1.610198,0.972463 2.955372,2.093311 3.972654,3.160761l10.883878,-16.182211c0.122486,-0.182273 0.034145,-0.548358 -0.22817,-1.005323z" id="svg_19"/>
  </g>
  <defs>
   <style>.cls-1{fill:none;stroke:#000;stroke-linecap:round;stroke-linejoin:round;stroke-width:2px;}</style>
  </defs>
  <g transform="matrix(27.80926879509593,0,0,27.80926879509593,0,0) " id="svg_24">
   <line id="svg_26" y2="16" y1="16" x2="29" x1="3" class="cls-1"/>
   <line id="svg_27" y2="11" y1="16" x2="7" x1="3" class="cls-1"/>
   <line id="svg_28" y2="21" y1="16" x2="7" x1="3" class="cls-1"/>
  </g>
  <g id="svg_29"/>
  <defs>
   <style>.cls-1{fill:none;stroke:#000;stroke-linecap:round;stroke-linejoin:round;stroke-width:2px;}</style>
  </defs>
  <g transform="matrix(27.80926879509593,0,0,27.80926879509593,0,0) " id="svg_33">
   <line id="svg_35" y2="16" y1="16" x2="29" x1="3" class="cls-1"/>
   <line id="svg_36" y2="11" y1="16" x2="7" x1="3" class="cls-1"/>
   <line id="svg_37" y2="21" y1="16" x2="7" x1="3" class="cls-1"/>
  </g>
  <g id="svg_38"/>
  <defs>
   <style>.cls-1{fill:none;stroke:#000;stroke-linecap:round;stroke-linejoin:round;stroke-width:2px;}</style>
  </defs>
  <g transform="matrix(27.80926879509593,0,0,27.80926879509593,0,0) " id="svg_42">
   <line id="svg_44" y2="16" y1="16" x2="29" x1="3" class="cls-1"/>
   <line id="svg_45" y2="11" y1="16" x2="7" x1="3" class="cls-1"/>
   <line id="svg_46" y2="21" y1="16" x2="7" x1="3" class="cls-1"/>
  </g>
  <g id="svg_47"/>
  <g id="svg_54"/>
  <g id="svg_61"/>
  <!-- Created with ImageBot - http://www.imagebot.com/ -->
  <g transform="rotate(-90.4242172241211 125.93711090087889,5.794691085815424) matrix(0.187319233227149,0,0,0.508350858973158,33.269228173341666,-77.97256708145142) " id="svg_77">
   <title stroke="#666666" fill="#666666">Layer 1</title>
   <line id="svg_85" fill="#666666" stroke="#666666" stroke-linecap="round" stroke-linejoin="round" stroke-width="10" x1="216.649573" y1="164.782385" x2="262.361753" y2="164.782385"/>
   <line id="svg_84" fill="#666666" stroke="#666666" stroke-linecap="round" stroke-linejoin="round" stroke-width="10" x1="289.449576" y1="164.782385" x2="335.161756" y2="164.782385"/>
   <line id="svg_83" fill="#666666" stroke="#666666" stroke-linecap="round" stroke-linejoin="round" stroke-width="10" x1="363.84957" y1="164.782385" x2="409.56175" y2="164.782385"/>
   <line id="svg_82" fill="#666666" stroke="#666666" stroke-linecap="round" stroke-linejoin="round" stroke-width="10" x1="436.649573" y1="164.782385" x2="482.361753" y2="164.782385"/>
   <line id="svg_81" fill="#666666" stroke="#666666" stroke-linecap="round" stroke-linejoin="round" stroke-width="10" x1="507.849585" y1="164.782385" x2="553.561765" y2="164.782385"/>
   <line id="svg_80" fill="#666666" stroke="#666666" stroke-linecap="round" stroke-linejoin="round" stroke-width="10" x1="579.049567" y1="164.782385" x2="624.761747" y2="164.782385"/>
   <line id="svg_79" fill="#666666" stroke="#666666" stroke-linecap="round" stroke-linejoin="round" stroke-width="10" x1="652.649573" y1="164.782385" x2="698.361753" y2="164.782385"/>
   <line id="svg_78" fill="#666666" stroke="#666666" stroke-linecap="round" stroke-linejoin="round" stroke-width="10" transform="translate(508.79998779296875,0) " x1="218.249573" y1="164.782385" x2="263.961753" y2="164.782385"/>
  </g>
  <g transform="rotate(47.50466537475586 0,0) " id="svg_87"/>
  <g transform="rotate(-90.4242172241211 252.28805541992188,5.794620990753167) matrix(0.187319233227149,0,0,0.508350858973158,33.269228173341666,-77.97256708145142) " id="svg_97">
   <title id="svg_88" stroke="#666666" fill="#666666">Layer 1</title>
   <line id="svg_89" fill="#666666" stroke="#666666" stroke-linecap="round" stroke-linejoin="round" stroke-width="10" x1="891.142171" y1="164.782385" x2="936.854351" y2="164.782385"/>
   <line id="svg_90" fill="#666666" stroke="#666666" stroke-linecap="round" stroke-linejoin="round" stroke-width="10" x1="963.942175" y1="164.782385" x2="1009.654355" y2="164.782385"/>
   <line id="svg_91" fill="#666666" stroke="#666666" stroke-linecap="round" stroke-linejoin="round" stroke-width="10" x1="1038.342168" y1="164.782385" x2="1084.054348" y2="164.782385"/>
   <line id="svg_92" fill="#666666" stroke="#666666" stroke-linecap="round" stroke-linejoin="round" stroke-width="10" x1="1111.142171" y1="164.782385" x2="1156.854351" y2="164.782385"/>
   <line id="svg_93" fill="#666666" stroke="#666666" stroke-linecap="round" stroke-linejoin="round" stroke-width="10" x1="1182.342184" y1="164.782385" x2="1228.054364" y2="164.782385"/>
   <line id="svg_94" fill="#666666" stroke="#666666" stroke-linecap="round" stroke-linejoin="round" stroke-width="10" x1="1253.542165" y1="164.782385" x2="1299.254345" y2="164.782385"/>
   <line id="svg_95" fill="#666666" stroke="#666666" stroke-linecap="round" stroke-linejoin="round" stroke-width="10" x1="1327.142171" y1="164.782385" x2="1372.854351" y2="164.782385"/>
   <line id="svg_96" fill="#666666" stroke="#666666" stroke-linecap="round" stroke-linejoin="round" stroke-width="10" transform="translate(508.79998779296875,0) " x1="892.742171" y1="164.782385" x2="938.454351" y2="164.782385"/>
  </g>
  <g transform="rotate(-90.4242172241211 378.0304870605469,6.389365673065181) matrix(0.187319233227149,0,0,0.508350858973158,33.269228173341666,-77.97256708145142) " id="svg_107">
   <title id="svg_98" stroke="#666666" fill="#666666">Layer 1</title>
   <line id="svg_99" fill="#666666" stroke="#666666" stroke-linecap="round" stroke-linejoin="round" stroke-width="10" x1="1562.453201" y1="165.954743" x2="1608.165381" y2="165.954743"/>
   <line id="svg_100" fill="#666666" stroke="#666666" stroke-linecap="round" stroke-linejoin="round" stroke-width="10" x1="1635.253204" y1="165.954743" x2="1680.965384" y2="165.954743"/>
   <line id="svg_101" fill="#666666" stroke="#666666" stroke-linecap="round" stroke-linejoin="round" stroke-width="10" x1="1709.653198" y1="165.954743" x2="1755.365378" y2="165.954743"/>
   <line id="svg_102" fill="#666666" stroke="#666666" stroke-linecap="round" stroke-linejoin="round" stroke-width="10" x1="1782.453201" y1="165.954743" x2="1828.165381" y2="165.954743"/>
   <line id="svg_103" fill="#666666" stroke="#666666" stroke-linecap="round" stroke-linejoin="round" stroke-width="10" x1="1853.653213" y1="165.954743" x2="1899.365393" y2="165.954743"/>
   <line id="svg_104" fill="#666666" stroke="#666666" stroke-linecap="round" stroke-linejoin="round" stroke-width="10" x1="1924.853195" y1="165.954743" x2="1970.565375" y2="165.954743"/>
   <line id="svg_105" fill="#666666" stroke="#666666" stroke-linecap="round" stroke-linejoin="round" stroke-width="10" x1="1998.453201" y1="165.954743" x2="2044.165381" y2="165.954743"/>
   <line id="svg_106" fill="#666666" stroke="#666666" stroke-linecap="round" stroke-linejoin="round" stroke-width="10" transform="translate(508.79998779296875,0) " x1="1564.053201" y1="165.954743" x2="1609.765381" y2="165.954743"/>
  </g>
  <text style="cursor: move;" font-weight="bold" stroke="#666666" transform="matrix(1.0398332778150954,0,0,0.8255794502529313,-76.00945197838512,17.66515791429906) " xml:space="preserve" text-anchor="start" font-family="'Trebuchet MS', Gadget, sans-serif" font-size="24" id="svg_108" y="69.285854" x="279.16608" stroke-width="0" fill="#000000">82cm</text>
 </g>
</svg>