<svg width="NaN" height="370.00000000000006" xmlns="http://www.w3.org/2000/svg">
    <defs>
        <radialGradient r="455.367" cy="-18.453" cx="-80.42" gradientUnits="userSpaceOnUse" id="Gradient_1">
            <stop stop-color="#D0E5E0" offset="0"/>
            <stop stop-color="#AAD4D7" offset="0.363"/>
            <stop stop-color="#48AECE" offset="1"/>
        </radialGradient>
        <radialGradient r="22.331" cy="310.274" cx="76.863" gradientUnits="userSpaceOnUse" id="Gradient_3">
            <stop stop-color="#C2C4C1" offset="0"/>
            <stop stop-color="#C2C4C1" offset="0.006"/>
            <stop stop-color="#BABCBA" offset="0.298"/>
            <stop stop-color="#A5A7A6" offset="0.657"/>
            <stop stop-color="#989B9A" offset="1"/>
        </radialGradient>
        <radialGradient r="22.331" cy="307.05" cx="136.837" gradientUnits="userSpaceOnUse" id="Gradient_4">
            <stop stop-color="#C2C4C1" offset="0"/>
            <stop stop-color="#C2C4C1" offset="0.006"/>
            <stop stop-color="#BABCBA" offset="0.298"/>
            <stop stop-color="#A5A7A6" offset="0.657"/>
            <stop stop-color="#989B9A" offset="1"/>
        </radialGradient>
        <radialGradient r="20.109" cy="316.595" cx="64.81" gradientUnits="userSpaceOnUse" id="Gradient_5">
            <stop stop-color="#C2C4C1" offset="0"/>
            <stop stop-color="#C2C4C1" offset="0.006"/>
            <stop stop-color="#BABCBA" offset="0.298"/>
            <stop stop-color="#A5A7A6" offset="0.657"/>
            <stop stop-color="#989B9A" offset="1"/>
        </radialGradient>
        <radialGradient r="18.91" cy="312.982" cx="120.402" gradientUnits="userSpaceOnUse" id="Gradient_6">
            <stop stop-color="#C2C4C1" offset="0"/>
            <stop stop-color="#C2C4C1" offset="0.006"/>
            <stop stop-color="#BABCBA" offset="0.298"/>
            <stop stop-color="#A5A7A6" offset="0.657"/>
            <stop stop-color="#989B9A" offset="1"/>
        </radialGradient>
        <radialGradient r="20.113" cy="311.169" cx="177.126" gradientUnits="userSpaceOnUse" id="Gradient_7">
            <stop stop-color="#C2C4C1" offset="0"/>
            <stop stop-color="#C2C4C1" offset="0.006"/>
            <stop stop-color="#BABCBA" offset="0.298"/>
            <stop stop-color="#A5A7A6" offset="0.657"/>
            <stop stop-color="#989B9A" offset="1"/>
        </radialGradient>
        <radialGradient r="22.327" cy="328.423" cx="196.33" gradientUnits="userSpaceOnUse" id="Gradient_8">
            <stop stop-color="#C2C4C1" offset="0"/>
            <stop stop-color="#C2C4C1" offset="0.006"/>
            <stop stop-color="#BABCBA" offset="0.298"/>
            <stop stop-color="#A5A7A6" offset="0.657"/>
            <stop stop-color="#989B9A" offset="1"/>
        </radialGradient>
        <radialGradient r="19.417" cy="313.907" cx="219.52" gradientUnits="userSpaceOnUse" id="Gradient_9">
            <stop stop-color="#C2C4C1" offset="0"/>
            <stop stop-color="#C2C4C1" offset="0.006"/>
            <stop stop-color="#BABCBA" offset="0.298"/>
            <stop stop-color="#A5A7A6" offset="0.657"/>
            <stop stop-color="#989B9A" offset="1"/>
        </radialGradient>
        <radialGradient r="18.91" cy="328.7" cx="138.354" gradientUnits="userSpaceOnUse" id="Gradient_10">
            <stop stop-color="#C2C4C1" offset="0"/>
            <stop stop-color="#C2C4C1" offset="0.006"/>
            <stop stop-color="#BABCBA" offset="0.298"/>
            <stop stop-color="#A5A7A6" offset="0.657"/>
            <stop stop-color="#989B9A" offset="1"/>
        </radialGradient>
        <radialGradient r="18.754" cy="325.413" cx="90.986" gradientUnits="userSpaceOnUse" id="Gradient_11">
            <stop stop-color="#C2C4C1" offset="0"/>
            <stop stop-color="#C2C4C1" offset="0.006"/>
            <stop stop-color="#BABCBA" offset="0.298"/>
            <stop stop-color="#A5A7A6" offset="0.657"/>
            <stop stop-color="#989B9A" offset="1"/>
        </radialGradient>
        <radialGradient r="12.472" cy="317.935" cx="271.574" gradientUnits="userSpaceOnUse" id="Gradient_12">
            <stop stop-color="#C2C4C1" offset="0"/>
            <stop stop-color="#C2C4C1" offset="0.006"/>
            <stop stop-color="#BABCBA" offset="0.298"/>
            <stop stop-color="#A5A7A6" offset="0.657"/>
            <stop stop-color="#989B9A" offset="1"/>
        </radialGradient>
        <radialGradient r="17.485" cy="326.34" cx="244.982" gradientUnits="userSpaceOnUse" id="Gradient_13">
            <stop stop-color="#C2C4C1" offset="0"/>
            <stop stop-color="#C2C4C1" offset="0.006"/>
            <stop stop-color="#BABCBA" offset="0.298"/>
            <stop stop-color="#A5A7A6" offset="0.657"/>
            <stop stop-color="#989B9A" offset="1"/>
        </radialGradient>
        <linearGradient y2="0.791973" x2="0.329131" y1="-0.279784" x1="1.107233" id="Gradient_14">
            <stop stop-color="#C7D79B" offset="0"/>
            <stop stop-color="#9FC372" offset="0.5"/>
            <stop stop-color="#73A943" offset="1"/>
        </linearGradient>
        <radialGradient r="20.114" cy="309.081" cx="253.927" gradientUnits="userSpaceOnUse" id="Gradient_17">
            <stop stop-color="#C2C4C1" offset="0"/>
            <stop stop-color="#C2C4C1" offset="0.006"/>
            <stop stop-color="#BABCBA" offset="0.298"/>
            <stop stop-color="#A5A7A6" offset="0.657"/>
            <stop stop-color="#989B9A" offset="1"/>
        </radialGradient>
        <radialGradient r="22.328" cy="320.904" cx="385.438" gradientUnits="userSpaceOnUse" id="Gradient_20">
            <stop stop-color="#C2C4C1" offset="0"/>
            <stop stop-color="#C2C4C1" offset="0.006"/>
            <stop stop-color="#BABCBA" offset="0.298"/>
            <stop stop-color="#A5A7A6" offset="0.657"/>
            <stop stop-color="#989B9A" offset="1"/>
        </radialGradient>
        <radialGradient r="19.411" cy="306.379" cx="408.634" gradientUnits="userSpaceOnUse" id="Gradient_21">
            <stop stop-color="#C2C4C1" offset="0"/>
            <stop stop-color="#C2C4C1" offset="0.006"/>
            <stop stop-color="#BABCBA" offset="0.298"/>
            <stop stop-color="#A5A7A6" offset="0.657"/>
            <stop stop-color="#989B9A" offset="1"/>
        </radialGradient>
        <radialGradient r="12.481" cy="310.416" cx="460.685" gradientUnits="userSpaceOnUse" id="Gradient_24">
            <stop stop-color="#C2C4C1" offset="0"/>
            <stop stop-color="#C2C4C1" offset="0.006"/>
            <stop stop-color="#BABCBA" offset="0.298"/>
            <stop stop-color="#A5A7A6" offset="0.657"/>
            <stop stop-color="#989B9A" offset="1"/>
        </radialGradient>
        <radialGradient r="17.483" cy="318.818" cx="434.098" gradientUnits="userSpaceOnUse" id="Gradient_25">
            <stop stop-color="#C2C4C1" offset="0"/>
            <stop stop-color="#C2C4C1" offset="0.006"/>
            <stop stop-color="#BABCBA" offset="0.298"/>
            <stop stop-color="#A5A7A6" offset="0.657"/>
            <stop stop-color="#989B9A" offset="1"/>
        </radialGradient>
        <linearGradient y2="0.79192" x2="0.668591" y1="-0.279721" x1="-0.099119" id="Gradient_26">
            <stop stop-color="#C7D79B" offset="0"/>
            <stop stop-color="#9FC372" offset="0.5"/>
            <stop stop-color="#73A943" offset="1"/>
        </linearGradient>
        <linearGradient y2="0.790977" x2="0.632462" y1="-0.278777" x1="0.027579" id="Gradient_27">
            <stop stop-color="#C7D79B" offset="0"/>
            <stop stop-color="#9FC372" offset="0.5"/>
            <stop stop-color="#73A943" offset="1"/>
        </linearGradient>
    </defs>
    <g>
        <title>background</title>
        <rect fill="none" id="canvas_background" height="402" width="582" y="-1" x="-1"/>
    </g>
    <g>
        <title>Layer 1</title>
        <path stroke="null" id="svg_1" fill="url(#Gradient_1)"
              d="m588.75928,10.151682l0,359.851l-673.51918,0l0,-359.851l673.51918,0z"/>
        <path id="svg_5" fill="url(#Gradient_3)"
              d="m88.721141,336.299696c-12.61,0 -10.391,-18.156 0,-20.281c10.375,-2.133 19.047,-4.289 29.422,0c10.39,4.25 17.32,17.054 10.39,18.148c-6.922,1.039 -32.89,2.133 -39.812,2.133z"/>
        <path id="svg_6" fill="#373634"
              d="m78.815141,327.627696c0.015,-5.469 3.46,-11.539 9.648,-12.836c5.969,-1.227 11.477,-2.516 17.18,-2.516c4.164,0 8.429,0.672 12.976,2.579c7.899,3.343 13.797,10.804 13.946,16.093c0.101,2.11 -1.422,4.164 -3.86,4.453c-7.109,1.063 -32.961,2.125 -39.992,2.125l0,-2.476c6.828,0 32.898,-1.11 39.602,-2.11c1.437,-0.351 1.64,-0.742 1.75,-1.992c0.14,-3.445 -5.336,-10.992 -12.407,-13.773c-4.242,-1.766 -8.117,-2.399 -12.015,-2.399c-5.313,0 -10.657,1.227 -16.688,2.461c-4.687,0.899 -7.64,5.883 -7.64,10.391c0.117,4.102 2.062,7.344 7.398,7.422l0,2.476c-6.664,0 -9.883,-4.898 -9.898,-9.898"/>
        <path id="svg_7" fill="url(#Gradient_4)"
              d="m148.690141,333.072696c-12.602,0 -10.391,-18.14 0,-20.281c10.39,-2.133 19.046,-4.273 29.437,0c10.383,4.289 17.313,17.086 10.383,18.156c-6.93,1.039 -32.899,2.125 -39.82,2.125z"/>
        <path id="svg_8" fill="#373634"
              d="m138.783141,324.408696c0.016,-5.492 3.461,-11.554 9.649,-12.844c5.992,-1.234 11.484,-2.5 17.179,-2.5c4.164,0 8.43,0.672 12.977,2.563c7.914,3.375 13.797,10.844 13.945,16.109c0.102,2.11 -1.422,4.164 -3.836,4.453c-7.132,1.063 -32.984,2.125 -40.015,2.125l0,-2.5c6.828,0.016 32.898,-1.085 39.625,-2.109c1.414,-0.328 1.617,-0.719 1.718,-1.969c0.149,-3.429 -5.304,-10.992 -12.375,-13.797c-4.242,-1.742 -8.14,-2.375 -12.039,-2.375c-5.304,0 -10.656,1.204 -16.687,2.438c-4.695,0.922 -7.641,5.883 -7.641,10.406c0.117,4.086 2.071,7.321 7.399,7.406l0,2.5c-6.664,0 -9.883,-4.898 -9.899,-9.906"/>
        <path id="svg_9" fill="url(#Gradient_5)"
              d="m76.502141,342.838696c-12.602,0 -10.383,-18.133 0,-20.258c10.391,-2.133 17.313,-5.359 29.438,0c12.117,5.32 17.312,17.055 10.39,18.133c-6.922,1.062 -32.898,2.125 -39.828,2.125z"/>
        <path id="svg_10" fill="#373634"
              d="m66.604141,334.189696c0,-5.492 3.445,-11.539 9.64,-12.851c6.086,-1.227 11.133,-2.953 16.953,-2.953c3.93,0 8.203,0.804 13.243,3.039c8.734,3.914 14.101,10.719 14.226,15.789c0.102,2.289 -1.555,4.398 -4.164,4.734c-7.109,1.086 -32.969,2.125 -40,2.125l0,-2.476c6.828,0 32.906,-1.086 39.641,-2.133c1.593,-0.352 1.922,-0.883 2.023,-2.25c0.125,-3.266 -4.633,-10.031 -12.726,-13.492c-4.805,-2.117 -8.633,-2.836 -12.243,-2.836c-5.289,0 -10.172,1.625 -16.468,2.914c-4.688,0.898 -7.625,5.859 -7.625,10.39c0.101,4.086 2.054,7.321 7.398,7.407l0,2.476c-6.68,0 -9.875,-4.898 -9.898,-9.883"/>
        <path id="svg_11" fill="url(#Gradient_6)"
              d="m125.400141,328.252696c0,0 2.618,-19.281 20.852,-9.633c18.258,9.633 33.914,16.07 23.469,19.258c-10.422,3.227 -44.321,1.609 -44.321,-9.625z"/>
        <path id="svg_12" fill="#373634"
              d="m135.971141,335.572696c5.765,1.742 13.344,2.516 20.07,2.516c5.516,0 10.5,-0.531 13.305,-1.414c2.234,-0.672 2.461,-1.375 2.461,-1.414c0.82,-1.656 -11.93,-8.383 -26.157,-15.539c-3.531,-1.867 -6.335,-2.563 -8.593,-2.563c-8.688,-0.226 -10.407,11.235 -10.407,11.25l-0.007,0c0.015,2.852 3.562,5.469 9.328,7.164zm-11.828,-7.32l1.25,0l-1.235,-0.172c0.047,0 1.61,-13.203 12.899,-13.422c2.773,0 5.984,0.836 9.781,2.852c14.187,7.828 26.648,12.195 27.469,17.75c-0.102,2.054 -1.844,3.054 -4.219,3.812c-3.258,1.008 -8.344,1.5 -14.047,1.516c-13.687,-0.242 -31.203,-2.5 -31.898,-12.336"/>
        <path id="svg_13" fill="url(#Gradient_7)"
              d="m188.822141,337.424696c-12.609,0 -10.39,-18.18 0,-20.281c10.391,-2.157 17.313,-5.344 29.43,0c12.125,5.304 17.32,17.062 10.391,18.125c-6.93,1.07 -32.899,2.156 -39.821,2.156z"/>
        <path id="svg_14" fill="#373634"
              d="m178.908141,328.760696c0.016,-5.492 3.461,-11.563 9.657,-12.836c6.085,-1.274 11.109,-2.969 16.929,-2.969c3.953,0 8.196,0.797 13.242,3.047c8.735,3.898 14.125,10.703 14.25,15.766c0.102,2.296 -1.562,4.414 -4.164,4.742c-7.132,1.078 -32.976,2.148 -40.015,2.148l0,-2.5c6.828,0.024 32.922,-1.086 39.625,-2.133c1.64,-0.351 1.953,-0.882 2.054,-2.257c0.125,-3.258 -4.656,-10.024 -12.75,-13.485c-4.781,-2.133 -8.632,-2.828 -12.242,-2.828c-5.289,-0.023 -10.164,1.594 -16.437,2.906c-4.696,0.907 -7.649,5.868 -7.649,10.399c0.125,4.078 2.071,7.32 7.399,7.398l0,2.5c-6.664,0 -9.883,-4.898 -9.899,-9.898"/>
        <path id="svg_15" fill="url(#Gradient_8)"
              d="m208.182141,354.439696c-12.602,0 -10.391,-18.125 0,-20.273c10.383,-2.133 19.039,-4.266 29.429,0c10.391,4.258 17.321,17.086 10.391,18.148c-6.937,1.063 -32.891,2.125 -39.82,2.125z"/>
        <path id="svg_16" fill="#373634"
              d="m198.275141,345.775696c0,-5.476 3.446,-11.523 9.665,-12.836c5.96,-1.226 11.453,-2.5 17.156,-2.5c4.164,0 8.429,0.68 12.984,2.563c7.914,3.359 13.797,10.828 13.938,16.094c0.125,2.109 -1.391,4.164 -3.828,4.453c-7.141,1.086 -32.977,2.133 -40.008,2.133l0,-2.508c6.828,0.031 32.89,-1.063 39.617,-2.11c1.43,-0.328 1.617,-0.718 1.742,-1.968c0.141,-3.422 -5.336,-10.985 -12.414,-13.774c-4.242,-1.765 -8.133,-2.383 -12.031,-2.383c-5.328,0 -10.656,1.211 -16.672,2.438c-4.688,0.922 -7.649,5.891 -7.649,10.398c0.125,4.102 2.071,7.321 7.407,7.399l0,2.508c-6.664,0 -9.883,-4.899 -9.907,-9.907"/>
        <path id="svg_17" fill="url(#Gradient_9)"
              d="m263.119141,338.447696c10.961,0 9.039,-15.781 0,-17.633c-9.023,-1.875 -16.554,-3.718 -25.586,0c-9.031,3.696 -15.054,14.844 -9.031,15.782c6.016,0.914 28.602,1.851 34.617,1.851z"/>
        <path id="svg_18" fill="#373634"
              d="m228.299141,337.830696c-2.195,-0.242 -3.586,-2.133 -3.484,-4.039c0.14,-4.719 5.312,-11.187 12.234,-14.125c3.961,-1.664 7.711,-2.273 11.359,-2.258c4.985,0 9.766,1.11 14.946,2.172c5.476,1.172 8.507,6.5 8.531,11.344c-0.024,4.39 -2.891,8.75 -8.774,8.773l0,-2.5c4.555,-0.086 6.149,-2.789 6.274,-6.273c0,-3.875 -2.539,-8.117 -6.524,-8.883c-5.226,-1.102 -9.859,-2.148 -14.453,-2.148c-3.383,0.023 -6.742,0.554 -10.414,2.07c-6.086,2.375 -10.82,8.961 -10.679,11.828c0.101,1.047 0.187,1.273 1.375,1.555c5.82,0.906 28.515,1.851 34.421,1.851l0,2.5c-6.109,-0.023 -28.578,-0.945 -34.812,-1.867"/>
        <path id="svg_19" fill="url(#Gradient_10)"
              d="m143.354141,343.994696c0,0 2.601,-19.305 20.851,-9.664c18.266,9.664 33.906,16.047 23.469,19.274c-10.422,3.21 -44.32,1.601 -44.32,-9.61z"/>
        <path id="svg_20" fill="#373634"
              d="m153.916141,351.299696c5.781,1.726 13.367,2.5 20.094,2.5c5.515,0 10.476,-0.531 13.289,-1.391c2.234,-0.695 2.461,-1.39 2.461,-1.437c0.82,-1.641 -11.938,-8.367 -26.149,-15.547c-3.523,-1.86 -6.351,-2.555 -8.586,-2.555c-8.21,-0.195 -10.21,9.985 -10.421,11.18c-0.079,2.89 3.476,5.547 9.312,7.25zm-11.828,-7.313l1.266,0l-1.25,-0.172c0.039,0 1.601,-13.226 12.921,-13.429c2.774,0 5.969,0.82 9.758,2.828c14.196,7.851 26.657,12.203 27.477,17.758c-0.102,2.054 -1.844,3.054 -4.219,3.82c-3.266,1 -8.344,1.492 -14.031,1.516c-13.695,-0.25 -31.203,-2.508 -31.922,-12.321"/>
        <path id="svg_21" fill="url(#Gradient_11)"
              d="m140.549141,340.596696c0,0 -2.274,-16.758 -18.149,-8.391c-15.867,8.391 -29.46,14 -20.398,16.789c9.055,2.781 38.547,1.383 38.547,-8.398z"/>
        <path id="svg_22" fill="#373634"
              d="m130.377141,331.096696c-1.93,0 -4.367,0.593 -7.406,2.218c-12.344,6.172 -23.289,12.11 -22.656,13.391c0.046,0 0.085,0.484 2.046,1.078c2.407,0.742 6.688,1.211 11.469,1.211c5.844,0 12.438,-0.68 17.445,-2.172c5.079,-1.484 8.086,-3.789 8.016,-6.164c-0.195,-1 -1.906,-9.562 -8.687,-9.562l-0.227,0zm-28.75,19.093c-2.086,-0.656 -3.711,-1.585 -3.797,-3.484c0.805,-5.094 11.649,-8.734 23.977,-15.609c3.297,-1.742 6.133,-2.477 8.57,-2.477c10.008,0.203 11.359,11.805 11.398,11.805l-1.234,0.164l1.25,0c-0.695,8.82 -16.031,10.664 -27.961,10.906c-4.937,-0.015 -9.351,-0.445 -12.203,-1.305"/>
        <path id="svg_23" fill="url(#Gradient_12)"
              d="m286.619141,333.213696c0,0 1.508,-19.289 12.063,-9.641c10.57,9.641 19.617,16.047 13.578,19.266c-6.031,3.211 -25.641,1.601 -25.641,-9.625z"/>
        <path id="svg_24" fill="#373634"
              d="m304.354141,343.057696c3.093,0 5.882,-0.555 7.296,-1.313c1.133,-0.664 1.274,-1.047 1.29,-1.539c0.375,-2.219 -6.805,-8.367 -15.11,-15.703c-2.008,-1.844 -3.484,-2.406 -4.469,-2.406c-1.82,-0.117 -3.421,2.281 -4.343,5.312c-0.852,2.68 -1.125,5.406 -1.149,5.828c0.039,6.625 8.766,9.797 16.485,9.821zm-18.985,-9.844l1.25,0l-1.25,-0.102c0.266,0 0.328,-12.797 7.992,-13.492c1.907,0 3.914,0.985 6.157,3.008c8.132,7.656 15.554,12.594 15.922,17.578c0.023,1.578 -1.047,2.93 -2.602,3.727c-2.086,1.093 -5.102,1.601 -8.484,1.601c-8.055,0 -18.782,-3.078 -18.985,-12.32"/>
        <path id="svg_25" fill="url(#Gradient_13)"
              d="m288.729141,351.072696c10.953,0 9.023,-15.758 0,-17.625c-9.039,-1.851 -15.063,-4.648 -25.594,0c-10.539,4.649 -15.063,14.821 -9.031,15.782c6.007,0.914 28.601,1.843 34.625,1.843z"/>
        <path id="svg_26" fill="#373634"
              d="m253.893141,350.455696c-2.336,-0.289 -3.86,-2.234 -3.75,-4.281c0.117,-4.531 4.859,-10.438 12.484,-13.867c4.367,-1.969 8.094,-2.664 11.547,-2.664c5.101,0 9.492,1.5 14.805,2.562c5.453,1.172 8.484,6.5 8.484,11.344c0,4.406 -2.852,8.75 -8.734,8.773l0,-2.5c4.531,-0.086 6.132,-2.789 6.257,-6.273c0,-3.86 -2.546,-8.125 -6.523,-8.883c-5.477,-1.125 -9.703,-2.523 -14.289,-2.523c-3.117,0 -6.422,0.617 -10.547,2.445c-6.992,2.992 -11.109,8.875 -10.984,11.586c0.101,1.125 0.265,1.469 1.64,1.805c5.821,0.898 28.524,1.843 34.446,1.843l0,2.5c-6.133,-0.023 -28.602,-0.922 -34.836,-1.867"/>
        <path id="svg_27" fill="url(#Gradient_14)"
              d="m483.25863,256.532952c8.625,2.742 22.055,22.437 26.203,33.875c0.234,-1.266 0.445,-2.547 0.633,-3.789c0.351,-2.367 0.594,-4.734 0.726,-7.039c0.227,-3.938 0.422,-7.719 0.618,-11.477l-0.172,-0.5c-10.906,-14.156 -22.227,-21.5 -13.094,-45.633c6.406,6.243 12.313,28.297 13.484,41.891c0.93,-17.266 1.868,-32.672 4.11,-47.937c1.047,-7.172 1.312,-11.969 1.398,-15.602c-9.351,-11.461 -17.851,-18.781 -10,-39.539c4.469,4.359 8.656,17.039 10.914,28.383l0.032,-0.039c2.414,-12.117 11.609,-34.571 18.835,-40.477c4.532,20.367 -4.429,27.586 -15.125,38.258c0.305,0.648 0.282,1.555 -0.117,2.281c-0.617,1.11 -0.851,1.891 -1.015,2.977c-0.539,3.258 0.468,9.375 -1.703,24.195c-0.188,1.227 -0.336,2.484 -0.5,3.727c4.296,-12.563 11.234,-27.024 17,-31.774c5.203,23.281 -5.946,30.727 -18.352,43.414c-1.211,12.703 -1.875,26.008 -2.664,40.938c6.937,-11.391 21.219,-27.477 29.414,-29.696c-2.117,25.188 -14.555,26.672 -29.625,33.149c-0.055,1.133 -0.109,2.242 -0.172,3.391c-0.141,2.476 -0.406,5 -0.773,7.546c-3.344,22.649 -14.727,45.414 -14.789,45.555c-0.383,0.75 -1.032,1.141 -1.657,1.07c-0.218,-0.039 -0.429,-0.132 -0.609,-0.257c-0.758,-0.563 -0.953,-1.844 -0.445,-2.868c0,-0.023 2.765,-5.546 5.953,-13.867c2.703,-7.047 5.687,-16.133 7.484,-25.265l-0.195,-0.235c-14.57,-7.484 -27.602,-8.656 -25.797,-34.656z"/>
        <path id="svg_28" fill="#373634"
              d="m484.32863,261.118952c0.117,19.734 10.063,21.516 23.336,28.07c-4.289,-10.57 -15.797,-27 -23.281,-30.859c-0.039,0.969 -0.055,1.89 -0.055,2.789zm23.961,31.094l0.203,0.078l-0.187,-0.094l-0.016,0.016zm-11.297,40.211c0.024,0 0.227,-0.039 0.391,-0.305c0.102,-0.227 11.375,-22.836 14.68,-45.234c0.367,-2.524 0.632,-5.008 0.773,-7.446c0.063,-1.148 0.125,-2.25 0.164,-3.383l0.758,-1.086c14.961,-6.539 26.031,-7.414 28.664,-30.156c-7.75,3.61 -20.68,18.149 -26.898,28.5c-0.282,0.485 -0.883,0.711 -1.438,0.531c-0.555,-0.164 -0.898,-0.679 -0.875,-1.25c0.797,-14.921 1.453,-28.25 2.68,-41l0.351,-0.757c10.391,-10.633 19.289,-17.157 19.289,-31.766c0,-2.5 -0.257,-5.242 -0.828,-8.305c-5.086,5.547 -11.234,18.477 -15.039,29.727c-0.203,0.586 -0.844,0.961 -1.476,0.812c-0.618,-0.164 -1.047,-0.757 -0.938,-1.39c0.164,-1.235 0.305,-2.5 0.492,-3.735c2.172,-14.773 1.125,-20.554 1.696,-24.203c0.187,-1.172 0.492,-2.195 1.148,-3.359c0.125,-0.25 0.188,-0.516 0.188,-0.742c0,-0.203 -0.039,-0.352 -0.086,-0.43l0.25,-1.414c8.812,-8.859 15.945,-14.859 15.945,-27.445c0,-2.266 -0.227,-4.735 -0.719,-7.485c-6.523,7.196 -14.742,27.367 -16.992,38.68l-0.039,0.039c-0.266,0.438 -0.781,0.656 -1.273,0.578c-0.508,-0.101 -0.922,-0.492 -1,-0.984c-1.954,-9.992 -5.625,-21.156 -9.25,-26.196c-1.625,4.719 -2.29,8.641 -2.29,12.047c-0.023,10.047 5.938,15.868 12.805,24.25l0.289,0.821c-0.086,3.672 -0.367,8.554 -1.414,15.765c-2.234,15.188 -3.18,30.563 -4.101,47.821c-0.039,0.656 -0.571,1.164 -1.227,1.187c-0.656,0.024 -1.211,-0.492 -1.273,-1.148c-0.985,-12.328 -6.313,-32.274 -11.782,-39.586c-1.797,5.195 -2.547,9.508 -2.547,13.25c-0.039,12.031 7.915,18.508 16.383,29.578l0.219,0.961c-0.18,3.75 -0.391,7.547 -0.609,11.476c-0.149,2.336 -0.375,4.758 -0.743,7.157c-0.179,1.25 -0.406,2.539 -0.632,3.836c-0.047,0.234 -0.157,0.445 -0.313,0.617l0.11,0.406c-1.829,9.242 -4.844,18.383 -7.563,25.477c-2.812,7.32 -5.273,12.5 -5.867,13.695c0,0 -0.039,0.015 -0.164,0.328c-0.078,0.141 -0.125,0.367 -0.125,0.594c0,0.367 0.172,0.633 0.187,0.633l-0.008,0.039l0.047,0zm0,2.5l0,-0.125l-0.343,0.109c-0.414,-0.086 -0.782,-0.25 -1.149,-0.492c-0.883,-0.68 -1.234,-1.68 -1.234,-2.664c0,-0.578 0.125,-1.211 0.328,-1.5c0.203,-0.555 2.766,-5.594 6.008,-14.016c2.609,-6.789 5.461,-15.508 7.258,-24.258c-13.094,-6.484 -26.157,-8.929 -26.032,-30.859c0,-1.477 0.063,-3.039 0.188,-4.703c0.015,-0.367 0.219,-0.711 0.547,-0.914c0.312,-0.235 0.703,-0.289 1.062,-0.164c8.531,2.906 19.852,18.851 25.305,30.609c0.297,-2.164 0.515,-4.328 0.633,-6.445c0.218,-3.938 0.429,-7.703 0.687,-10.985l0.031,-0.148c-7.953,-10.367 -16.687,-17.399 -16.711,-30.742c0,-4.571 1.024,-9.821 3.422,-16.117c0.149,-0.383 0.493,-0.672 0.907,-0.774c0.406,-0.086 0.836,0.039 1.148,0.328c5.117,5.117 9.563,18.492 12.039,30.719c0.774,-12.594 1.711,-24.359 3.438,-36.047c0.992,-6.828 1.281,-11.43 1.382,-14.976c-6.578,-8.024 -13.086,-14.43 -13.086,-25.493c0,-4.242 0.938,-9.117 3.172,-14.937c0.149,-0.391 0.493,-0.68 0.899,-0.781c0.414,-0.086 0.844,0.046 1.133,0.328c4.171,4.172 7.711,13.945 10.117,23.859c3.531,-12.68 11.242,-30.398 18,-36.055c0.336,-0.289 0.804,-0.367 1.211,-0.226c0.414,0.148 0.703,0.492 0.804,0.922c0.836,3.797 1.227,7.156 1.227,10.211c0,13.468 -7.727,20.297 -16.156,28.679c0.031,0.203 0.047,0.414 0.047,0.61c0,0.656 -0.164,1.289 -0.469,1.906c-0.578,1.023 -0.742,1.578 -0.883,2.586c-0.43,2.375 0.18,7.258 -0.859,17.445c4.039,-9.594 9,-18.609 13.625,-22.469c0.328,-0.265 0.797,-0.351 1.211,-0.203c0.414,0.125 0.695,0.469 0.804,0.899c0.922,4.101 1.328,7.726 1.328,11.031c0,15.719 -9.703,23.008 -19.703,33.219c-1.054,11.203 -1.687,22.898 -2.375,35.797c7.578,-10.993 19.578,-24.024 27.594,-26.344c0.391,-0.102 0.82,0 1.125,0.266c0.313,0.25 0.492,0.656 0.453,1.046c-1.984,25.352 -15.164,27.907 -29.664,33.907c-0.039,0.867 -0.078,1.726 -0.117,2.617c-0.149,2.523 -0.414,5.062 -0.805,7.648c-3.359,22.899 -14.836,45.813 -14.922,45.961c-0.507,0.992 -1.461,1.727 -2.601,1.735l-0.024,0"/>
        <path id="svg_33" fill="url(#Gradient_17)"
              d="m265.619141,335.338696c-12.601,0 -10.39,-18.149 0,-20.305c10.391,-2.109 17.321,-5.328 29.438,0c12.125,5.344 17.312,17.086 10.39,18.18c-6.922,1.062 -32.898,2.125 -39.828,2.125z"/>
        <path id="svg_34" fill="#373634"
              d="m255.713141,326.666696c0.023,-5.469 3.445,-11.539 9.656,-12.852c6.11,-1.226 11.133,-2.953 16.969,-2.953c3.937,0 8.187,0.805 13.227,3.032c8.718,3.921 14.109,10.726 14.21,15.804c0.102,2.297 -1.539,4.414 -4.14,4.742c-7.133,1.086 -32.985,2.133 -40.024,2.149l0,-2.5c6.829,0 32.922,-1.07 39.633,-2.109c1.617,-0.368 1.946,-0.907 2.047,-2.282c0.102,-3.281 -4.648,-10.039 -12.75,-13.523c-4.781,-2.11 -8.609,-2.813 -12.203,-2.813c-5.305,0 -10.18,1.602 -16.477,2.891c-4.695,0.922 -7.648,5.906 -7.648,10.414c0.125,4.102 2.07,7.344 7.398,7.422l0,2.5c-6.679,-0.016 -9.875,-4.922 -9.898,-9.922"/>
        <path id="svg_39" fill="url(#Gradient_20)"
              d="m459.71963,355.204952c-12.617,0 -10.391,-18.156 0,-20.258c10.383,-2.156 19.039,-4.305 29.43,0c10.382,4.242 17.304,17.039 10.382,18.109c-6.921,1.086 -32.89,2.149 -39.812,2.149z"/>
        <path id="svg_40" fill="#373634"
              d="m449.80563,346.532952c0.023,-5.477 3.469,-11.523 9.656,-12.813c5.969,-1.25 11.461,-2.523 17.164,-2.523c4.164,0 8.445,0.695 12.992,2.586c7.899,3.336 13.805,10.781 13.93,16.07c0.117,2.11 -1.398,4.141 -3.812,4.43c-7.141,1.109 -33,2.156 -40.032,2.156l0,-2.484c6.828,0 32.907,-1.086 39.617,-2.133c1.43,-0.352 1.633,-0.719 1.743,-1.969c0.14,-3.422 -5.328,-10.992 -12.407,-13.758c-4.242,-1.781 -8.14,-2.398 -12.031,-2.398c-5.312,0 -10.64,1.211 -16.672,2.484c-4.695,0.883 -7.648,5.844 -7.648,10.352c0.125,4.102 2.07,7.344 7.398,7.422l0,2.484c-6.664,0 -9.875,-4.906 -9.898,-9.906"/>
        <path id="svg_41" fill="url(#Gradient_21)"
              d="m514.66463,339.188952c10.946,0 9.031,-15.765 0,-17.609c-9.031,-1.875 -16.562,-3.719 -25.609,0c-9.024,3.711 -15.047,14.828 -9.024,15.781c6.032,0.906 28.61,1.828 34.633,1.828z"/>
        <path id="svg_42" fill="#373634"
              d="m479.82063,338.579952c-2.195,-0.25 -3.585,-2.133 -3.468,-4.016c0.125,-4.719 5.289,-11.195 12.218,-14.148c3.977,-1.656 7.727,-2.258 11.375,-2.258c4.985,0 9.782,1.109 14.969,2.195c5.469,1.149 8.485,6.477 8.508,11.297c-0.023,4.406 -2.891,8.774 -8.75,8.774l0,-2.485c4.531,-0.078 6.125,-2.781 6.25,-6.289c0,-3.851 -2.547,-8.101 -6.523,-8.851c-5.227,-1.094 -9.86,-2.141 -14.454,-2.141c-3.375,0 -6.742,0.539 -10.406,2.078c-6.109,2.399 -10.851,8.953 -10.703,11.828c0.117,1.024 0.18,1.25 1.375,1.555c5.836,0.883 28.531,1.82 34.461,1.82l0,2.485c-6.141,0 -28.602,-0.899 -34.852,-1.844"/>
        <path id="svg_47" fill="url(#Gradient_24)"
              d="m538.14963,333.962952c0,0 1.507,-19.297 12.07,-9.649c10.562,9.649 19.617,16.063 13.57,19.305c-6.023,3.211 -25.64,1.601 -25.64,-9.656z"/>
        <path id="svg_48" fill="#373634"
              d="m555.90663,343.829952c3.094,0 5.86,-0.539 7.274,-1.32c1.125,-0.649 1.273,-1.04 1.289,-1.54c0.367,-2.226 -6.805,-8.382 -15.102,-15.734c-1.992,-1.828 -3.492,-2.383 -4.453,-2.383c-1.844,-0.117 -3.445,2.274 -4.367,5.305c-0.852,2.687 -1.125,5.406 -1.148,5.828c0.046,6.649 8.765,9.82 16.507,9.844zm-19.007,-9.867l1.25,0l-1.25,-0.102c0.265,0 0.328,-12.789 8.015,-13.508c1.891,0 3.899,0.985 6.149,3.032c8.125,7.648 15.547,12.585 15.906,17.585c0.023,1.586 -1.039,2.938 -2.602,3.758c-2.07,1.086 -5.101,1.578 -8.461,1.578c-8.062,0 -18.804,-3.078 -19.007,-12.343"/>
        <path id="svg_49" fill="url(#Gradient_25)"
              d="m540.25863,351.829952c10.961,0 9.023,-15.781 0,-17.625c-9.031,-1.875 -15.047,-4.625 -25.586,0c-10.547,4.633 -15.055,14.844 -9.039,15.781c6.023,0.938 28.602,1.844 34.625,1.844z"/>
        <path id="svg_50" fill="#373634"
              d="m505.43863,351.219952c-2.344,-0.273 -3.86,-2.218 -3.758,-4.289c0.125,-4.531 4.836,-10.437 12.484,-13.875c4.391,-1.953 8.117,-2.648 11.586,-2.648c5.086,0 9.477,1.477 14.766,2.562c5.453,1.172 8.484,6.5 8.484,11.336c0,4.414 -2.844,8.758 -8.734,8.774l0,-2.5c4.531,-0.078 6.133,-2.781 6.234,-6.274c0.016,-3.851 -2.547,-8.117 -6.5,-8.875c-5.453,-1.148 -9.68,-2.523 -14.25,-2.523c-3.117,0 -6.461,0.617 -10.578,2.437c-7.016,3 -11.117,8.883 -10.984,11.586c0.101,1.149 0.257,1.5 1.632,1.829c5.805,0.898 28.524,1.82 34.446,1.82l0,2.5c-6.133,-0.016 -28.602,-0.899 -34.828,-1.86"/>
        <path id="svg_51" fill="url(#Gradient_26)"
              d="m132.502141,233.994696c-9.016,2.961 -23.141,24.086 -27.492,36.344c-0.25,-1.367 -0.469,-2.711 -0.656,-4.039c-0.36,-2.539 -0.61,-5.094 -0.735,-7.539c-0.219,-4.219 -0.414,-8.281 -0.609,-12.266l0.18,-0.539c11.445,-15.172 23.304,-23.117 13.851,-48.906c-6.719,6.711 -12.976,30.359 -14.242,44.883c-0.914,-18.485 -1.844,-34.953 -4.117,-51.282c-1.078,-7.664 -1.344,-12.804 -1.414,-16.679c9.812,-12.274 18.718,-20.196 10.593,-42.344c-4.687,4.68 -9.109,18.266 -11.515,30.414l-0.024,-0.062c-2.476,-12.961 -12.023,-36.93 -19.539,-43.243c-4.82,21.828 4.532,29.516 15.672,40.875c-0.336,0.711 -0.312,1.688 0.117,2.477c0.618,1.172 0.868,2 1.047,3.156c0.555,3.492 -0.523,10.024 1.688,25.875c0.187,1.328 0.336,2.656 0.515,3.985c-4.453,-13.407 -11.656,-28.875 -17.672,-33.915c-5.507,24.938 6.133,32.844 19.032,46.368c1.226,13.601 1.875,27.851 2.648,43.804c-7.211,-12.156 -22.078,-29.312 -30.64,-31.664c2.125,26.953 15.117,28.492 30.835,35.383c0.055,1.195 0.118,2.391 0.18,3.609c0.125,2.672 0.406,5.352 0.781,8.063c3.407,24.242 15.235,48.57 15.282,48.695c0.39,0.805 1.086,1.242 1.734,1.149c0.227,-0.047 0.438,-0.125 0.641,-0.258c0.797,-0.609 1,-2.008 0.476,-3.086c0,0 -2.883,-5.938 -6.172,-14.828c-2.82,-7.539 -5.89,-17.235 -7.734,-26.969l0.195,-0.266c15.258,-8.062 28.875,-9.39 27.094,-37.195z"/>
        <path id="svg_52" fill="#373634"
              d="m117.830141,315.354696l0.008,-0.008l-0.008,0.008zm13.43,-81.282l1.25,-0.086l-1.25,0.086zm-24.453,34.977c13.789,-6.985 24.476,-8.766 24.593,-30.391c0,-0.914 -0.023,-1.859 -0.062,-2.844c-7.867,4.125 -20.023,21.868 -24.531,33.235zm10.922,46.328l0.101,-0.023l0.008,-0.008l0.039,-0.008c0.078,-0.024 0.266,-0.352 0.266,-0.82c0,-0.25 -0.063,-0.532 -0.164,-0.743l-0.024,-0.062c-0.015,-0.039 -0.062,-0.102 -0.101,-0.203c-0.086,-0.188 -0.227,-0.453 -0.368,-0.805c-0.328,-0.719 -0.796,-1.734 -1.375,-3.047c-1.148,-2.601 -2.687,-6.336 -4.343,-10.804c-2.828,-7.579 -5.922,-17.336 -7.789,-27.18l0.109,-0.492c-0.156,-0.164 -0.266,-0.391 -0.32,-0.633c-0.243,-1.375 -0.469,-2.742 -0.649,-4.078c-0.375,-2.578 -0.633,-5.164 -0.758,-7.641c-0.203,-4.219 -0.414,-8.305 -0.531,-12.75l0.367,-0.883c8.672,-11.476 17.047,-18.484 17.032,-31.5c0,-4.008 -0.805,-8.648 -2.657,-14.195c-5.789,7.852 -11.445,29.297 -12.531,42.539c-0.062,0.641 -0.617,1.148 -1.273,1.125c-0.657,0 -1.188,-0.531 -1.227,-1.187c-0.906,-18.461 -1.844,-34.899 -4.101,-51.157c-1.086,-7.703 -1.352,-12.906 -1.438,-16.828l0.289,-0.797c7.219,-9.023 13.484,-15.328 13.484,-26.195c0,-3.656 -0.703,-7.875 -2.375,-12.906c-3.851,5.367 -7.742,17.429 -9.835,28.179c-0.102,0.532 -0.516,0.922 -1.047,1.008c-0.532,0.055 -1.047,-0.211 -1.289,-0.679l-0.141,-0.391c-2.172,-11.75 -10.742,-33.352 -17.547,-41.008c-0.57,3.063 -0.82,5.805 -0.82,8.297c0.015,13.469 7.437,19.859 16.625,29.227l0.242,1.414c-0.086,0.14 -0.125,0.328 -0.125,0.531c0,0.289 0.062,0.555 0.203,0.82c0.68,1.274 0.984,2.32 1.188,3.547c0.578,3.891 -0.508,10.102 1.687,25.906c0.18,1.352 0.344,2.68 0.508,4c0.078,0.633 -0.328,1.227 -0.945,1.367c-0.633,0.141 -1.266,-0.203 -1.477,-0.82c-3.961,-12.062 -10.375,-25.937 -15.711,-31.82c-0.633,3.375 -0.93,6.406 -0.93,9.14c0,15.633 9.289,22.563 20.086,33.875l0.352,0.758c1.234,13.633 1.867,27.891 2.641,43.86c0.046,0.57 -0.329,1.086 -0.875,1.25c-0.563,0.164 -1.149,-0.063 -1.438,-0.555c-6.492,-11.117 -20.031,-26.703 -28.133,-30.461c2.656,24.523 14.289,25.414 29.899,32.391l0.75,1.086c0.047,1.187 0.109,2.375 0.187,3.601c0.125,2.633 0.391,5.274 0.758,7.953c3.383,24 15.109,48.188 15.164,48.328c0.195,0.383 0.406,0.446 0.453,0.454l-0.101,0.023zm0.101,2.461c-1.203,0 -2.172,-0.805 -2.719,-1.914c0,-0.055 -11.929,-24.531 -15.375,-49c-0.367,-2.75 -0.656,-5.453 -0.781,-8.18c-0.047,-0.945 -0.094,-1.883 -0.14,-2.828c-15.157,-6.414 -28.907,-9.07 -30.891,-36.133c-0.016,-0.406 0.141,-0.797 0.453,-1.062c0.328,-0.25 0.734,-0.352 1.125,-0.227c8.43,2.445 20.984,16.461 28.859,28.235c-0.679,-13.915 -1.32,-26.547 -2.406,-38.649c-10.398,-10.851 -20.469,-18.594 -20.469,-35.266c0,-3.554 0.454,-7.468 1.438,-11.89c0.101,-0.43 0.414,-0.781 0.82,-0.922c0.414,-0.148 0.86,-0.063 1.211,0.219c4.867,4.148 10.078,13.953 14.297,24.336c-1.125,-11.196 -0.445,-16.508 -0.875,-19.133c-0.164,-1.063 -0.352,-1.672 -0.898,-2.719c-0.375,-0.656 -0.516,-1.375 -0.516,-2.031c0,-0.25 0.023,-0.492 0.07,-0.735c-8.797,-8.914 -16.836,-16.148 -16.812,-30.437c0,-3.297 0.429,-6.922 1.328,-11.047c0.101,-0.406 0.406,-0.758 0.82,-0.906c0.414,-0.141 0.867,-0.055 1.211,0.226c7.094,6.086 15.195,25.368 18.719,38.696c2.539,-10.68 6.297,-21.282 10.672,-25.742c0.304,-0.29 0.734,-0.407 1.164,-0.329c0.414,0.086 0.742,0.391 0.906,0.782c2.234,6.172 3.234,11.32 3.234,15.82c-0.015,11.836 -6.82,18.758 -13.757,27.406c0.093,3.781 0.359,8.742 1.398,16.071c1.758,12.632 2.719,25.335 3.477,38.96c2.617,-13.179 7.359,-27.765 12.765,-33.289c0.305,-0.304 0.735,-0.414 1.141,-0.328c0.414,0.086 0.758,0.391 0.898,0.782c2.446,6.679 3.508,12.234 3.508,17.093c-0.015,14.282 -9.156,21.867 -17.336,32.649l-0.125,0.086c0.203,3.968 0.391,8.047 0.617,12.25c0.118,2.304 0.344,4.695 0.672,7.078c5.703,-12.602 17.68,-29.836 26.586,-32.961c0.352,-0.125 0.758,-0.063 1.086,0.164c0.305,0.203 0.516,0.555 0.531,0.945c0.102,1.656 0.164,3.235 0.164,4.75c0.125,23.883 -13.82,26.297 -27.335,33.203c1.835,9.43 4.812,18.797 7.562,26.133c2.844,7.711 5.391,13.18 5.984,14.43l0.039,0.101l-0.101,0.071l0.203,0.14c0.242,0.547 0.391,1.164 0.391,1.782c0,1.023 -0.328,2.086 -1.313,2.859c-0.351,0.234 -0.719,0.375 -1.414,0.461l-0.086,0"/>
        <path id="svg_53" fill="url(#Gradient_27)"
              d="m220.885141,276.971696c-9.117,2.375 -24.195,16.523 -29.149,24.562c-0.179,-0.875 -0.336,-1.687 -0.453,-2.539c-0.218,-1.617 -0.336,-3.226 -0.336,-4.789c0,-2.641 0.008,-5.211 0.016,-7.75l0.203,-0.351c12.133,-10.266 24.32,-15.922 16.25,-31.852c-7.023,4.609 -14.43,19.977 -16.43,29.297c0.032,-11.703 -0.054,-22.141 -1.484,-32.445c-0.68,-4.829 -0.68,-8.071 -0.555,-10.547c10.36,-8.321 19.618,-13.789 12.68,-27.524c-4.898,3.242 -9.984,12.11 -12.984,19.985l-0.016,-0.024c-1.812,-8.148 -10.062,-22.906 -17.211,-26.562c-5.883,14.132 3,18.539 13.484,25.234c-0.359,0.461 -0.382,1.07 -0.015,1.563c0.57,0.726 0.773,1.226 0.89,1.96c0.375,2.204 -1.039,6.407 0.352,16.375c0.117,0.868 0.211,1.688 0.313,2.516c-3.735,-8.297 -10.102,-17.781 -15.821,-20.695c-6.734,16.172 4.399,20.609 16.539,28.57c0.532,8.578 0.446,17.625 0.407,27.75c-6.547,-7.359 -20.438,-17.539 -28.821,-18.625c0.735,17.078 13.571,17.414 28.828,20.977c-0.007,0.781 -0.007,1.492 -0.023,2.289c0,1.703 0.141,3.406 0.375,5.125c2.148,15.265 12.656,30.109 12.703,30.218c0.344,0.493 1,0.711 1.656,0.649c0.227,-0.047 0.446,-0.102 0.657,-0.227c0.812,-0.422 1.078,-1.312 0.625,-1.968c-0.016,0 -2.563,-3.633 -5.375,-9.133c-2.415,-4.68 -4.969,-10.672 -6.313,-16.805l0.211,-0.164c15.562,-5.898 29.148,-7.445 28.797,-25.07z"/>
        <path id="svg_54" fill="#373634"
              d="m192.252141,283.596696c8.867,-7.203 16.625,-12.219 16.508,-20.016c0,-2.133 -0.555,-4.57 -1.82,-7.422c-6.141,5.024 -12.868,18.93 -14.688,27.438zm-5.602,6.968l-0.023,-0.031c-5.906,-6.719 -18.609,-16.039 -26.531,-17.937c1.344,14.133 12.047,14.625 26.554,17.968zm7.719,9.297c14.063,-5.07 24.774,-7.086 25.235,-21.179c-7.789,2.945 -19.727,13.765 -25.235,21.179zm10,27.43l0.047,-0.062l-0.055,0.062l0.008,0zm-2.351,1.82c0.179,-0.039 0.281,-0.078 0.328,-0.101c0.148,-0.078 0.172,-0.149 0.179,-0.172l-0.015,-0.031l-0.102,-0.125c-0.078,-0.118 -0.187,-0.289 -0.328,-0.508c-0.312,-0.43 -0.719,-1.063 -1.211,-1.891c-1.023,-1.617 -2.375,-3.914 -3.789,-6.703c-2.445,-4.75 -5.047,-10.82 -6.437,-17.109l0.078,-0.219c-0.102,-0.133 -0.164,-0.289 -0.203,-0.461c-0.211,-0.898 -0.352,-1.742 -0.469,-2.641c-0.25,-1.664 -0.352,-3.32 -0.352,-4.945c0,-2.641 0,-5.226 0.024,-7.766l0.156,-0.617l0.477,-0.679c0.14,-0.118 0.289,-0.235 0.429,-0.352c-0.609,-0.109 -1.047,-0.625 -1.047,-1.242c-0.015,-1.125 -0.015,-2.258 -0.015,-3.367c0.015,-10.352 -0.188,-19.711 -1.453,-28.922c-0.5,-3.422 -0.641,-6.102 -0.641,-8.281c0,-0.899 0.023,-1.743 0.063,-2.524l0.468,-0.875c8.016,-6.375 14.703,-10.93 14.617,-17.898c0,-1.93 -0.492,-4.133 -1.632,-6.735c-4.141,3.516 -8.688,11.461 -11.344,18.5c-0.164,0.43 -0.531,0.742 -0.984,0.797c-0.446,0.063 -0.907,-0.117 -1.188,-0.484l-0.227,-0.492c-1.539,-7.282 -9.085,-20.797 -15.359,-25.032c-0.883,2.43 -1.266,4.5 -1.266,6.274c-0.078,7.156 6.461,10.804 14.782,16.109c0.304,0.188 0.508,0.492 0.57,0.836c0.063,0.352 -0.039,0.703 -0.266,0.992l0,0.016c0.657,0.805 1.024,1.641 1.157,2.523c0.054,0.391 0.054,0.758 0.054,1.125c0,1.641 -0.343,3.672 -0.343,6.993c0,2.171 0.14,4.859 0.632,8.281c0.125,0.883 0.227,1.726 0.305,2.547c0.086,0.609 -0.305,1.179 -0.898,1.351c-0.602,0.156 -1.235,-0.125 -1.477,-0.703c-3.328,-7.516 -9.094,-16.094 -14.039,-19.383c-0.992,2.688 -1.422,4.969 -1.422,6.922c-0.125,8.43 8.188,12.399 18,18.774l0.578,0.984c0.344,5.805 0.43,11.812 0.43,18.203c0,3.094 -0.023,6.297 -0.039,9.617c0,0.539 -0.313,0.985 -0.805,1.172l-0.031,0.008c0.516,0.164 0.852,0.641 0.852,1.195c0,0.766 -0.016,1.477 -0.016,2.274c0,1.64 0.117,3.281 0.359,4.945c2.117,14.961 12.321,29.391 12.492,29.68c0,0 0.118,0.125 0.407,0.125l0.023,-0.008l-0.062,0.023zm-2.547,1.094c0.125,-0.086 -10.617,-14.984 -12.789,-30.57c-0.242,-1.758 -0.383,-3.524 -0.383,-5.305c0.008,-0.453 0.008,-0.867 0.008,-1.281c-14.5,-3.227 -28.071,-4.235 -28.813,-21.922c-0.023,-0.375 0.149,-0.719 0.406,-0.961c0.274,-0.25 0.633,-0.375 1.008,-0.336c8.157,1.133 20.164,9.578 27.414,16.774c0,-2.227 0.016,-4.391 0.016,-6.524c0,-6.148 -0.078,-11.891 -0.398,-17.445c-9.235,-6.039 -18.508,-10.258 -18.61,-20.516c0,-2.711 0.68,-5.742 2.133,-9.226c0.125,-0.305 0.391,-0.571 0.719,-0.696c0.328,-0.101 0.695,-0.101 1.008,0.063c4.757,2.492 9.5,8.601 13.203,15.094c-0.125,-1.602 -0.164,-3.008 -0.164,-4.25c0,-3.469 0.343,-5.719 0.343,-6.993c0,-0.328 -0.023,-0.57 -0.039,-0.734c-0.101,-0.602 -0.164,-0.742 -0.656,-1.391c-0.352,-0.461 -0.531,-1.031 -0.516,-1.539c0,-0.093 0.008,-0.187 0.016,-0.273c-7.711,-4.914 -15.023,-8.945 -15.102,-17.664c0,-2.524 0.641,-5.336 1.969,-8.571c0.141,-0.304 0.406,-0.554 0.742,-0.679c0.329,-0.117 0.672,-0.102 1,0.062c6.938,3.68 14.079,15.696 16.813,24c3.101,-7.086 7.5,-14.211 12.133,-17.336c0.289,-0.203 0.648,-0.265 1.008,-0.164c0.343,0.102 0.632,0.328 0.796,0.633c1.719,3.445 2.516,6.477 2.516,9.227c-0.078,8.632 -7.539,13.406 -15.102,19.492c-0.031,0.547 -0.046,1.148 -0.046,1.805c0.023,2.054 0.164,4.609 0.64,7.929c1.086,7.93 1.383,15.906 1.453,24.438c3.289,-8.641 8.821,-18.289 14.532,-22.133c0.289,-0.211 0.664,-0.25 1.007,-0.164c0.344,0.078 0.633,0.32 0.774,0.633c1.867,3.687 2.734,6.945 2.75,9.898c-0.141,10.375 -10.102,15.602 -19.024,23.149l-0.039,0.07c0,2.43 -0.023,4.875 -0.023,7.406c0,1.328 0.101,2.703 0.266,4.094c6.296,-8.406 19.296,-20.133 28.125,-22.539c0.367,-0.102 0.781,-0.024 1.085,0.226c0.313,0.243 0.477,0.61 0.477,1c0,0.188 0,0.391 0,0.641c-0.023,17.828 -14.312,19.883 -28.812,25.219c1.359,5.672 3.718,11.218 5.976,15.593c2.422,4.735 4.649,8.071 5.164,8.813l-0.062,0.047l0.187,0.094c0.305,0.453 0.43,0.945 0.43,1.437c0.023,0.984 -0.57,1.906 -1.461,2.352c-0.383,0.234 -0.75,0.312 -1.352,0.39l-0.14,0.024c-0.86,0 -1.844,-0.328 -2.586,-1.391"/>
        <path id="svg_66" fill="#FFFFFE"
              d="m310.877141,198.627696c1.266,-0.734 4.469,5.109 2.734,5.875c-1.726,0.789 -4.89,-4.609 -2.734,-5.875"/>
        <path id="svg_82" fill="#FFFFFE"
              d="m195.432141,153.541696c0,1.047 -0.852,1.914 -1.907,1.898c-1.039,0.016 -1.89,-0.851 -1.89,-1.898c0,-1.039 0.851,-1.891 1.898,-1.891c1.047,0 1.899,0.852 1.899,1.891"/>
        <path id="svg_163" opacity="0.75" fill="#DEFFFF"
              d="m377.752141,212.686574c-3.984,0 -7.211,-3.226 -7.211,-7.195c0,-3.992 3.227,-7.203 7.211,-7.203c3.984,0 7.211,3.211 7.211,7.203c0,3.969 -3.227,7.195 -7.211,7.195z"/>
        <path id="svg_165" opacity="0.75" fill="#DEFFFF"
              d="m386.159141,175.906574c-3.531,0 -6.391,-2.875 -6.391,-6.399c0,-3.523 2.86,-6.39 6.391,-6.39c3.516,0 6.375,2.867 6.375,6.39c0,3.524 -2.859,6.399 -6.375,6.399z"/>
        <path id="svg_166" opacity="0.75" fill="#DEFFFF"
              d="m143.174141,167.119696c-5.055,0 -9.141,-4.07 -9.141,-9.133c0,-5.031 4.086,-9.132 9.141,-9.132c5.047,0 9.141,4.101 9.141,9.132c0,5.063 -4.094,9.133 -9.141,9.133z"/>
        <path id="svg_167" opacity="0.75" fill="#DEFFFF"
              d="m55.17414,123.868065c-3.789,0 -6.86,-3.078 -6.86,-6.859c0,-3.781 3.071,-6.852 6.86,-6.852c3.781,0 6.851,3.071 6.851,6.852c0,3.781 -3.07,6.859 -6.851,6.859z"/>
    </g>
</svg>
