<svg width="512" height="512" xmlns="http://www.w3.org/2000/svg">

    <g>
        <title>background</title>
        <rect fill="none" id="canvas_background" height="402" width="582" y="-1" x="-1"/>
    </g>
    <g>
        <title>Layer 1</title>
        <path fill="#4c4c4c" stroke-width="0" id="svg_3"
              d="m256,48c-114.9,0 -208,93.1 -208,208s93.1,208 208,208c114.9,0 208,-93.1 208,-208s-93.1,-208 -208,-208zm0,398.7c-105.1,0 -190.7,-85.5 -190.7,-190.7c0,-105.1 85.5,-190.7 190.7,-190.7c105.1,0 190.7,85.5 190.7,190.7c0,105.1 -85.6,190.7 -190.7,190.7z"/>
        <g transform="matrix(0.810555870547246,0,0,0.7671281635718232,-108.5920752021575,-67.26673198777462) "
           id="svg_16">
            <g id="svg_17">
                <path fill="#ffcc00"
                      d="m510.169508,399.887162l-60.010476,-31.564944l-60.024371,31.541752l11.475559,-66.82749l-48.546266,-47.339877l67.102907,-9.737089l30.021417,-60.79859l29.997093,60.811312l67.0987,9.763671l-48.563773,47.31912l11.44921,66.832136z"
                      id="svg_24"/>
                <path fill="#ffe680"
                      d="m480.388264,275.585087c-30.39,41.369 -30.72,41.819 -30.72,41.819l97.411,-31.899l-66.691,-9.92z"
                      id="svg_23"/>
                <path fill="#ffdd55" d="m450.168264,316.515087l0,51.942l-60.63,31.117l60.63,-83.059z" id="svg_22"/>
                <path fill="#ffdd55" d="m450.168264,316.515087l59.613,81.476l-11.189,-65.984l-48.424,-15.492z"
                      id="svg_21"/>
                <path fill="#ffe680" d="m353.458264,285.575087l96.715,30.942l-29.882,-40.842l-66.833,9.9z" id="svg_20"/>
                <path fill="#ffdd55" d="m450.168264,316.515087l0,-101.22l29.83,60.357l-29.83,40.863z" id="svg_19"/>
                <path fill="#ffd42a" d="m390.158264,398.735087l11.261,-66.541l48.757,-15.679l-60.018,82.22z"
                      id="svg_18"/>
            </g>
        </g>
        <metadata transform="matrix(0.49805317995046394,0,0,0.49805317995046394,0,0) ">
            image/svg+xmlOpenclipartStar2010-11-13T20:17:55A star with simple
            shadowinghttps://openclipart.org/detail/95431/star-by-artokemartokemstar
        </metadata>
        <g id="svg_26"/>
        <g transform="matrix(0.810555870547246,0,0,0.7671281635718232,-108.5920752021575,-67.26673198777462) "
           id="svg_35">
            <g id="svg_34">
                <path fill="#ffcc00"
                      d="m510.169511,610.891969l-60.01048,-31.56495l-60.02437,31.54175l11.47556,-66.82749l-48.54627,-47.33987l67.10291,-9.73709l30.02142,-60.79859l29.99709,60.81131l67.0987,9.76367l-48.56377,47.31912l11.44921,66.83214z"
                      id="svg_27"/>
                <path fill="#ffe680"
                      d="m480.388261,486.589889c-30.39,41.369 -30.72,41.819 -30.72,41.819l97.411,-31.899l-66.691,-9.92z"
                      id="svg_28"/>
                <path fill="#ffdd55" d="m450.168261,527.519889l0,51.942l-60.63,31.117l60.63,-83.059z" id="svg_29"/>
                <path fill="#ffdd55" d="m450.168261,527.519889l59.613,81.476l-11.189,-65.984l-48.424,-15.492z"
                      id="svg_30"/>
                <path fill="#ffe680" d="m353.458261,496.579889l96.715,30.942l-29.882,-40.842l-66.833,9.9z" id="svg_31"/>
                <path fill="#ffdd55" d="m450.168261,527.519889l0,-101.22l29.83,60.357l-29.83,40.863z" id="svg_32"/>
                <path fill="#ffd42a" d="m390.158261,609.739889l11.261,-66.541l48.757,-15.679l-60.018,82.22z"
                      id="svg_33"/>
            </g>
        </g>
    </g>
</svg>
