<svg width="362" height="362" xmlns="http://www.w3.org/2000/svg">

 <g>
  <title>background</title>
  <rect fill="none" id="canvas_background" height="364" width="364" y="-1" x="-1"/>
 </g>
 <g>
  <title>Layer 1</title>
  <path fill="#cc7728" id="XMLID_511_" d="m13.291449,270.781218c-3.521,3.52 -5.459,8.2 -5.459,13.18c0,4.979 1.938,9.659 5.459,13.179l46.129,46.131c3.521,3.521 8.201,5.459 13.18,5.459c4.979,0 9.66,-1.938 13.18,-5.459l184.518,-184.519l-72.489,-72.489l-184.518,184.518zm209.335,-105.44l-146.498,146.499c-0.874,0.874 -2.059,1.365 -3.295,1.365c-1.236,0 -2.421,-0.491 -3.295,-1.365l-26.359,-26.359c-1.82,-1.819 -1.82,-4.771 0,-6.59l146.499,-146.499c0.874,-0.874 2.059,-1.365 3.295,-1.365s2.421,0.491 3.295,1.365l26.359,26.359c1.819,1.82 1.819,4.771 -0.001,6.59z"/>
  <rect fill="#6b4b2e" y="204.735128" x="304.970261" width="27.958" transform="matrix(-0.7071,-0.7071,0.7071,-0.7071,143.7092,662.371) " id="XMLID_515_" height="197.861"/>
  <rect y="78.566872" x="230.956739" width="46.598" transform="matrix(0.7071,0.7071,-0.7071,0.7071,211.2007,-214.2097) " id="XMLID_516_" height="134.044"/>
 </g>
</svg>