<svg width="512" height="392" xmlns="http://www.w3.org/2000/svg">

 <title/>
 <g>
  <title>background</title>
  <rect fill="none" id="canvas_background" height="394" width="514" y="-1" x="-1"/>
 </g>
 <g>
  <title>Layer 1</title>
  <path fill="#f4bda2" id="svg_1" d="m436.4487,128.742638c-6.2785,0 -6.7711,-9.3319 -0.5044,-9.9746c10.3038,-1.0551 14.2359,-8.3646 14.3833,-8.6a17.3047,17.3047 0 0 1 -9.6694,-5.4307c-8.93,-10.346 -3.7556,-21.6264 5.5195,-22.269c8.2989,-0.5743 15.6807,7.8908 16.9307,15.5513c4.332,-3.1789 5.7059,-8.9537 4.5225,-14.3033c-1.4308,-6.4654 8.337,-8.612 9.7636,-2.16c2.72,12.2958 -3.2233,24.4825 -15.6626,28.1108c-6.5177,17.528 -23.5548,19.0755 -25.2832,19.0755zm10.42,-36.2978a0.7437,0.7437 0 0 0 -0.731,0.4887c-0.5847,1.4051 1.1037,6.9067 7.189,7.6114c-0.2484,-4.4343 -4.5246,-8.2423 -6.4585,-8.0998l0.0005,-0.0003z" class="cls-1"/>
  <path fill="#dda19b" id="svg_2" d="m129.6948,117.246338c-5.2043,-3.5725 -2.6564,-9.2639 -5.5987,-40.1639c-1.3017,-13.6706 -2.221,-16.9728 0,-18.5c5.7352,-3.943 24.9949,9.0489 32.618,27.0194c13.4111,31.6155 -18.5294,37.4724 -27.0193,31.6445z" class="cls-2"/>
  <path fill="#e8b896" id="svg_3" d="m436.452,113.353038c-67.6377,-47.6415 -166.5484,-5.9784 -208.0327,-8.9478c-12.2654,-0.8779 -76.3666,-11.0257 -111.1739,14.5058c-28.8032,21.1274 -31.5023,48.8044 -46.2823,64.357a69.1348,69.1348 0 0 1 -18.8963,13.9671c-3.4546,-2.0549 -12.1449,-6.6851 -17.14,-3.353c-7.3641,4.9118 -2.693,30.0525 9.72,46.6169a14.8279,14.8279 0 0 0 15.11,5.5122a107.4122,107.4122 0 0 1 32.2118,-2.3579c28.173,2.2713 24.5838,14.2276 92.98,17.8252c3.024,23.7615 -0.3752,45.29 -25.6205,71.5247l20.6708,0c19.0173,-16.6856 41.953,-42.6475 57.1041,-69.9558c97.0186,2.0771 140.267,-0.5552 161.5688,-3.2847c3.3281,21.301 4.4347,47.7548 -24.5366,73.2405l34.8034,0c12.3289,-18.3916 24.6577,-36.2486 36.9866,-54.64c-3.84,-2.3048 -9.3264,-6.4987 -11.2858,-13.1667c-5.1319,-17.4644 8.3818,-11.4624 26.1691,-31.84c29.1009,-30.4714 27.9997,-83.1258 -24.3565,-120.0035z" class="cls-3"/>
  <circle fill="#333232" id="svg_4" r="9.4437" cy="159.108738" cx="117.8831" class="cls-4"/>
  <path fill="#f4bda2" id="svg_5" d="m161.4091,135.639738c4.9067,2.4436 11.8637,3.1368 17.4595,0.3968c35.7684,-17.514 -4.1881,-105.4534 -24.602,-95.63c-4.4439,2.1383 0.3,11.5231 -2.7776,36.9031c-0.399,3.2866 -12.4845,47.1722 9.9201,58.3301z" class="cls-1"/>
 </g>
</svg>