<svg id="Layer_3" data-name="Layer 3" xmlns="http://www.w3.org/2000/svg" viewBox="0 0 325.2 248.5">
    <defs>
        <style>
            .cls-1 {
            fill: none;
            }

            .cls-1, .cls-2 {
            stroke: #000;
            stroke-miterlimit: 10;
            stroke-width: 3px;
            }

            .cls-2 {
            fill: #666;
            }

            .cls-3 {
            font-size: 17px;
            font-family: Verdana;
            }
        </style>
    </defs>
    <title>q9-perimeter</title>
    <g id="Layer_4" data-name="Layer 4">
        <path class="cls-1" d="M191.7,261.5V96.7L45,170l146.3,91.4Z" transform="translate(-41.9 -56.6)"/>
        <polygon class="cls-1" points="186.4 40 149.7 40 168.1 3.4 186.4 40"/>
        <path class="cls-1" d="M192.2,261.8,320,298.3,301.7,170,191.9,261.5Z" transform="translate(-41.9 -56.6)"/>
        <polygon class="cls-1" points="186.4 40 259.7 113.4 278.1 21.7 186.4 40"/>
        <path class="cls-2" d="M191.9,261.5,301.7,170,228.3,96.7H191.7V261.4Z" transform="translate(-41.9 -56.6)"/>
    </g>
    <g id="Layer_5" data-name="Layer 5">
        <line class="cls-1" x1="161.5" y1="26.2" x2="153.1" y2="23.4"/>
        <line class="cls-1" x1="183.1" y1="23.4" x2="175.3" y2="27.8"/>
        <line class="cls-1" x1="168.1" y1="42.3" x2="168.1" y2="33.4"/>
        <line class="cls-1" x1="238.1" y1="33.4" x2="237.1" y2="24.4"/>
        <line class="cls-1" x1="243.1" y1="33.4" x2="242.1" y2="24.4"/>
        <line class="cls-1" x1="273.1" y1="63.4" x2="264.1" y2="63.4"/>
        <line class="cls-1" x1="273.1" y1="68.4" x2="264.1" y2="68.4"/>
        <line class="cls-1" x1="225.8" y1="71.5" x2="218.4" y2="80.1"/>
        <line class="cls-1" x1="229.5" y1="74.9" x2="222.2" y2="83.4"/>
        <line class="cls-1" x1="270.8" y1="158.9" x2="263.1" y2="163.4"/>
        <line class="cls-1" x1="270.8" y1="163.9" x2="263.1" y2="168.4"/>
        <line class="cls-1" x1="270.8" y1="168.9" x2="263.1" y2="173.4"/>
        <line class="cls-1" x1="204.5" y1="214.3" x2="204.9" y2="223.3"/>
        <line class="cls-1" x1="209" y1="216.6" x2="209.4" y2="225.6"/>
        <line class="cls-1" x1="213.4" y1="218.9" x2="213.8" y2="227.9"/>
        <line class="cls-1" x1="213.1" y1="159.3" x2="207" y2="148.4"/>
        <line class="cls-1" x1="208.7" y1="163.9" x2="202.6" y2="153"/>
        <line class="cls-1" x1="204.4" y1="168.4" x2="198.1" y2="157.8"/>
        <line class="cls-1" x1="83.1" y1="168.4" x2="88.5" y2="161.2"/>
        <line class="cls-1" x1="76.4" y1="80.6" x2="71.2" y2="73.3"/>
        <line class="cls-1" x1="153.1" y1="118.4" x2="144.1" y2="118.4"/>
        <polyline class="cls-1" points="90.8 163.4 90.4 172.4 91.4 173.4 98.1 167.3"/>
        <polyline class="cls-1" points="75 71 80.2 78.3 81.6 78.4 83.1 69.5"/>
        <polyline class="cls-1" points="144.7 113.4 152.7 109.4 153.1 108 144.6 105.1"/>
    </g>
    <text class="cls-3" transform="translate(38.1 178.4)">9 cm</text>
    <text class="cls-3" transform="translate(183.1 243.4)">6 cm</text>
    <text class="cls-3" transform="translate(283.1 73.4)">4 cm</text>
    <text class="cls-3" transform="translate(103.1 23.4)">2 cm</text>
</svg>
