<svg width="200" height="190" xmlns="http://www.w3.org/2000/svg">
 <defs>
  <linearGradient id="SVGID_21_" x1="0.500004" y1="0.999998" x2="0.500004" y2="0">
   <stop offset="0" stop-color="#0FA02C"/>
   <stop offset="0.2308" stop-color="#146B2A"/>
   <stop offset="0.3081" stop-color="#165829"/>
  </linearGradient>
  <linearGradient id="SVGID_22_" x1="0.500004" y1="0.999997" x2="0.500004" y2="0.000003">
   <stop offset="0" stop-color="#0FA02C"/>
   <stop offset="0.2308" stop-color="#146B2A"/>
   <stop offset="0.3081" stop-color="#165829"/>
  </linearGradient>
  <linearGradient id="SVGID_23_" x1="0.500004" y1="1.000002" x2="0.500004" y2="0.000001">
   <stop offset="0" stop-color="#0FA02C"/>
   <stop offset="0.2308" stop-color="#146B2A"/>
   <stop offset="0.3081" stop-color="#165829"/>
  </linearGradient>
  <linearGradient id="SVGID_24_" x1="0.500006" y1="0.000007" x2="0.500006" y2="0.999996">
   <stop offset="0.0152" stop-color="#0FA02C"/>
   <stop offset="1" stop-color="#165829"/>
  </linearGradient>
  <linearGradient id="SVGID_25_" x1="0.499998" y1="1" x2="0.499998" y2="-0.000003">
   <stop offset="0" stop-color="#0FA02C"/>
   <stop offset="0.2308" stop-color="#146B2A"/>
   <stop offset="0.3081" stop-color="#165829"/>
  </linearGradient>
  <linearGradient id="SVGID_26_" x1="0.5" y1="0.999999" x2="0.5" y2="0.000001">
   <stop offset="0" stop-color="#0FA02C"/>
   <stop offset="0.2308" stop-color="#146B2A"/>
   <stop offset="0.3081" stop-color="#165829"/>
  </linearGradient>
  <linearGradient id="SVGID_27_" x1="0.499999" y1="0.999999" x2="0.499999" y2="0.000004">
   <stop offset="0" stop-color="#0FA02C"/>
   <stop offset="0.2308" stop-color="#146B2A"/>
   <stop offset="0.3081" stop-color="#165829"/>
  </linearGradient>
  <linearGradient id="SVGID_28_" x1="0.499998" y1="-0.000002" x2="0.499998" y2="0.999998">
   <stop offset="0.0152" stop-color="#0FA02C"/>
   <stop offset="1" stop-color="#165829"/>
  </linearGradient>
  <linearGradient id="SVGID_29_" x1="0.499999" y1="0.999999" x2="0.499999" y2="0.000002">
   <stop offset="0" stop-color="#0FA02C"/>
   <stop offset="0.2308" stop-color="#146B2A"/>
   <stop offset="0.3081" stop-color="#165829"/>
  </linearGradient>
  <linearGradient id="SVGID_30_" x1="0.5" y1="1.000001" x2="0.5" y2="0.000003">
   <stop offset="0" stop-color="#0FA02C"/>
   <stop offset="0.2308" stop-color="#146B2A"/>
   <stop offset="0.3081" stop-color="#165829"/>
  </linearGradient>
  <linearGradient id="SVGID_31_" x1="0.499998" y1="1.000002" x2="0.499998" y2="-0.000006">
   <stop offset="0" stop-color="#0FA02C"/>
   <stop offset="0.2308" stop-color="#146B2A"/>
   <stop offset="0.3081" stop-color="#165829"/>
  </linearGradient>
  <linearGradient id="SVGID_32_" x1="0.499997" y1="-0.000011" x2="0.499997" y2="0.999997">
   <stop offset="0.0152" stop-color="#0FA02C"/>
   <stop offset="1" stop-color="#165829"/>
  </linearGradient>
  <linearGradient id="SVGID_33_" x1="0.5" y1="0" x2="0.5" y2="1">
   <stop offset="0.1364" stop-color="#ABDA4D"/>
   <stop offset="1" stop-color="#33A02C"/>
  </linearGradient>
 </defs>
 <g>
  <title>background</title>
  <rect x="-1" y="-1" width="31.498257" height="30.023344" id="canvas_background" fill="none"/>
 </g>
 <g>
  <title>Layer 1</title>
  <path fill="url(#SVGID_33_)" d="m717.55427,164.731176l0,179l-725.2217,0l2.0146,-179c0,0 152.4302,-25.3652 241.7402,-20.0156c89.3101,5.3496 171.2334,46.6826 276.4346,45.5714c105.2022,-1.1115 205.0323,-25.5558 205.0323,-25.5558z" id="svg_44"/>
  <path fill="#339933" d="m482.9363,186.079778" id="svg_5"/>
  <path fill="url(#SVGID_21_)" d="m48.8581,162.166678c0.2505,0.3848 0.0845,0.7012 -0.3681,0.7012l-13.0821,0c-0.4526,0 -0.6186,-0.3164 -0.3681,-0.7012l6.4536,-9.9404c0.2505,-0.3847 0.6601,-0.3847 0.9106,0l6.4541,9.9404z" id="svg_30"/>
  <path fill="url(#SVGID_22_)" d="m48.2478,159.664778c0.228,0.3516 0.0766,0.6387 -0.3364,0.6387l-11.9248,0c-0.4131,0 -0.5645,-0.2871 -0.3365,-0.6387l5.8838,-9.0606c0.228,-0.3515 0.6016,-0.3515 0.8296,0l5.8843,9.0606z" id="svg_31"/>
  <path fill="url(#SVGID_23_)" d="m47.2663,156.781978c0.1924,0.2969 0.0645,0.539 -0.2841,0.539l-10.0669,0c-0.3487,0 -0.4766,-0.2421 -0.2832,-0.539l4.9668,-7.6485c0.1923,-0.2968 0.5078,-0.2968 0.7006,0l4.9668,7.6485z" id="svg_32"/>
  <path fill="url(#SVGID_24_)" d="m45.9485,153.654078c0.1445,0.2226 0.0488,0.4052 -0.2134,0.4052l-7.5723,0c-0.2622,0 -0.3579,-0.1826 -0.2134,-0.4052l3.7359,-5.754c0.145,-0.2226 0.3818,-0.2226 0.5268,0l3.7364,5.754z" id="svg_33"/>
  <path fill="url(#SVGID_25_)" d="m38.8899,161.537778c0.3862,0.5938 0.1299,1.0811 -0.5684,1.0811l-20.1772,0c-0.6988,0 -0.9546,-0.4873 -0.5684,-1.0811l9.9546,-15.332c0.3862,-0.5937 1.0181,-0.5937 1.4043,0l9.9551,15.332z" id="svg_35"/>
  <path fill="url(#SVGID_26_)" d="m37.948,157.678478c0.3515,0.542 0.1186,0.9853 -0.5186,0.9853l-18.3935,0c-0.6367,0 -0.8701,-0.4433 -0.5186,-0.9853l9.0757,-13.9756c0.3516,-0.542 0.9277,-0.542 1.2798,0l9.0752,13.9756z" id="svg_36"/>
  <path fill="url(#SVGID_27_)" d="m36.4343,153.232178c0.2969,0.458 0.0996,0.832 -0.438,0.832l-15.5273,0c-0.5376,0 -0.7344,-0.374 -0.437,-0.832l7.6606,-11.7979c0.2969,-0.457 0.7832,-0.457 1.0806,0l7.6611,11.7979z" id="svg_37"/>
  <path fill="url(#SVGID_28_)" d="m34.4016,148.407978c0.2231,0.3437 0.0752,0.625 -0.3291,0.625l-11.6792,0c-0.4048,0 -0.5523,-0.2813 -0.3291,-0.625l5.7622,-8.8741c0.2236,-0.3437 0.5889,-0.3437 0.8125,0l5.7627,8.8741z" id="svg_38"/>
  <path fill="url(#SVGID_29_)" d="m26.4026,163.705778c0.3857,0.5938 0.1299,1.0811 -0.5689,1.0811l-20.1767,0c-0.6988,0 -0.9546,-0.4873 -0.5684,-1.0811l9.9546,-15.332c0.3862,-0.5938 1.0181,-0.5938 1.4043,0l9.9551,15.332z" id="svg_40"/>
  <path fill="url(#SVGID_30_)" d="m25.4607,159.846378c0.3515,0.5421 0.1186,0.9854 -0.5186,0.9854l-18.3935,0c-0.6367,0 -0.8701,-0.4434 -0.5186,-0.9854l9.0757,-13.9756c0.3516,-0.5419 0.9277,-0.5419 1.2798,0l9.0752,13.9756z" id="svg_41"/>
  <path fill="url(#SVGID_31_)" d="m23.9465,155.400078c0.2974,0.4581 0.1001,0.8321 -0.4375,0.8321l-15.5273,0c-0.5376,0 -0.7344,-0.374 -0.437,-0.8321l7.6606,-11.7978c0.2969,-0.457 0.7832,-0.457 1.0801,0l7.6611,11.7978z" id="svg_42"/>
  <path fill="url(#SVGID_32_)" d="m21.9138,150.575878c0.2236,0.3438 0.0757,0.625 -0.3291,0.625l-11.6787,0c-0.4048,0 -0.5523,-0.2813 -0.3291,-0.625l5.7622,-8.875c0.2236,-0.3427 0.5889,-0.3427 0.8125,0l5.7622,8.875z" id="svg_43"/>
  <metadata id="svg_170">image/svg+xml</metadata>
  <metadata>image/svg+xmlOpenclipartalbert2012-08-18T07:40:09ready for schoolhttp://openclipart.org/detail/171795/albert-by-sammo241-171795sammo241boycartoonsclip artclipartkidsschool</metadata>
  <defs>
   <clipPath clipPathUnits="userSpaceOnUse" id="svg_313">
    <path d="m47.8209,751.737862l595.28,0l0,-841.89l-595.28,0l0,841.89z" id="svg_390"/>
   </clipPath>
   <clipPath clipPathUnits="userSpaceOnUse" id="svg_294">
    <path d="m47.8209,751.737862l595.28,0l0,-841.89l-595.28,0l0,841.89z" id="svg_385"/>
   </clipPath>
  </defs>
  <metadata>image/svg+xmlOpenclipartparty girl2012-08-16T08:45:00having funhttps://openclipart.org/detail/171761/party-girl-by-sammo241-171761sammo241cartoongirlparty</metadata>
  <path fill="#339933" d="m117.553843,153.644381" id="svg_6"/>
  <path fill="#339933" d="m117.553843,153.644381" id="svg_7"/>
  <path id="svg_500" d="m103.437565,156.210992c1.383793,-0.671254 2.785776,-1.305977 4.191074,-1.935768c0.532615,0.709496 0.899315,1.565219 1.614425,2.123457c-1.196273,0.775917 -2.571725,1.22124 -3.80116,1.940699l-0.114462,0.073164c0.014974,0.644686 0.267111,1.256161 0.316956,1.902457c-0.693504,-0.704464 -1.473333,-1.302655 -2.261502,-1.889172c-0.043212,-0.739386 0.087831,-1.477161 0.054668,-2.214836l0.000001,-0.000001z" stroke-width="0.5" stroke="#E6E7E6" fill="#E6E7E6"/>
  <path id="svg_501" d="m93.026054,155.336953l0.141093,0.019926c0.325196,0.058169 0.650393,0.122979 0.980614,0.184469c0.273744,0.049816 0.549196,0.103053 0.829572,0.1578c0.20571,0.054848 0.418153,0.103053 0.613914,0.206006c0.360068,1.219629 -0.021606,2.522285 0.177572,3.775125c0.013265,0.247569 0.041504,0.498459 0.073059,0.75267c-1.090051,0.005032 -2.0574,-0.654649 -3.137502,-0.624759c0.396547,-0.323953 0.272136,-0.874039 0.298666,-1.320972c0.018089,-1.050055 -0.142902,-2.106852 0.023013,-3.150265l-0.000001,0z" stroke-width="0.5" stroke="#E7E7E6" fill="#E7E7E6"/>
  <path id="svg_502" d="m95.858358,158.935861c0.265503,0.461927 0.227316,1.020165 0.315248,1.53533c-0.083007,-0.009963 -0.248922,-0.028279 -0.331829,-0.038242c-0.031555,-0.254211 -0.059794,-0.505101 -0.073059,-0.75267c0.014974,-0.254211 0.04482,-0.50178 0.08964,-0.744418z" stroke-width="0.5" stroke="#B64C45" fill="#B64C45"/>
  <path id="svg_504" d="m89.996381,160.678908c0.421469,-0.202684 0.842838,-0.443611 1.312443,-0.511743c0.962324,0.347301 1.919724,0.75106 2.716134,1.41064c-0.582359,-0.039853 -1.134871,0.151259 -1.53805,0.576554c-0.929161,-0.473501 -1.92304,-0.802486 -2.840544,-1.292692c0.087932,-0.046495 0.262087,-0.137874 0.350018,-0.182758l-0.000001,-0.000001z" stroke-width="0.5" stroke="#BEBDBC" fill="#BEBDBC"/>
  <path id="svg_505" d="m88.801817,161.456536c0.253846,-0.235996 0.529298,-0.448643 0.844546,-0.59487c0.917504,0.490106 1.911383,0.819192 2.840544,1.292692c-0.059693,0.209327 -0.117778,0.422075 -0.172547,0.639754c-0.258871,0.191111 -0.514325,0.387154 -0.798118,0.538312c-0.846154,-0.707786 -1.70899,-1.402388 -2.714425,-1.875888z" stroke-width="0.5" stroke="#E8E8E5" fill="#E8E8E5"/>
  <path id="svg_503" d="m91.308824,160.167164c0.449607,-0.169474 0.914188,-0.31238 1.39535,-0.358874c1.080102,-0.029889 2.047451,0.629691 3.137502,0.624759c0.083007,0.009963 0.248922,0.028279 0.331829,0.038242c0.25053,0.75267 0.441367,1.525367 0.740033,2.264753c0.376649,1.008592 0.998803,1.902557 1.39535,2.901085c-0.358359,0.463538 -1.033674,0.505101 -1.52981,0.770986c-1.4667,0.682928 -3.081125,1.03677 -4.700475,0.933818c-0.316956,-1.186419 -0.720135,-2.422553 -1.644272,-3.281597c-0.691897,-0.809228 -1.652512,-1.269445 -2.594939,-1.711446c0.167623,-0.164543 0.338462,-0.323953 0.506084,-0.485175c0.146017,-0.142906 0.300274,-0.277458 0.45624,-0.40708c1.005436,0.473501 1.868271,1.168103 2.714425,1.875888c0.283693,-0.151158 0.539247,-0.347301 0.798118,-0.538312c0.091248,0.491817 0.293642,1.041802 0.812991,1.22295c0.798118,0.337338 1.823451,-0.310769 1.747177,-1.206345c0.023214,-0.564981 -0.429709,-0.947102 -0.84947,-1.232913c-0.79641,-0.659681 -1.75381,-1.063439 -2.716134,-1.41074l0.000001,0.000001z" stroke-width="0.5" stroke="#EC6E3F" fill="#EC6E3F"/>
  <path id="svg_506" d="m92.486807,162.154358c0.403179,-0.425396 0.955692,-0.616406 1.53805,-0.576554c0.419761,0.285811 0.872785,0.667933 0.84947,1.232913c0.076375,0.895576 -0.949059,1.543582 -1.747177,1.206345c-0.51935,-0.181148 -0.721743,-0.731134 -0.812991,-1.22295c0.054869,-0.21768 0.112955,-0.430327 0.172648,-0.639754z" stroke-width="0.5" stroke="#FDFDFA" fill="#FDFDFA"/>
  <path id="svg_507" d="m90.434432,164.060236c-0.691897,-0.809228 -1.652512,-1.269445 -2.594939,-1.711446c-0.064718,0.049816 -0.197469,0.147837 -0.263795,0.196042c-0.208825,0.151661 -0.403481,0.544249 -0.554623,0.767162c-0.192646,0.2841 -0.374941,0.575447 -0.540855,0.876052c-0.172949,0.313487 -0.329719,0.637138 -0.448904,0.97518c-0.08753,0.248072 -0.309017,0.743512 -0.169834,0.999434c0.008743,-0.059276 0.017486,-0.118451 0.026229,-0.177726c2.005646,0.651529 4.050384,1.413156 6.191092,1.356899c-0.317056,-1.186318 -0.720236,-2.422553 -1.644372,-3.281597l0.000001,0z" stroke-width="0.5" stroke="#D2D3D4" fill="#D2D3D4"/>
  <path id="svg_508" d="m102.355654,167.7942c0.45021,-0.341061 0.914288,-0.628181 1.315156,-1.034255c0.400868,-0.405973 0.735511,-0.880883 1.022118,-1.373303c0.143002,-0.245657 0.49704,-0.716742 0.387201,-0.995811c-0.743349,-0.694501 -1.547999,-1.362535 -2.535246,-1.666562c-1.023726,-0.400438 -2.145332,-0.380511 -3.215485,-0.237606c-0.164307,0.09309 -0.409812,0.119658 -0.484478,0.315701c0.525982,1.161461 1.360479,2.151736 2.153673,3.142012c0.461264,0.604833 1.133263,1.025197 1.524785,1.686488c-0.049242,0.060986 -0.105418,0.116136 -0.167723,0.163335l-0.000001,0.000001z" stroke-width="0.5" stroke="#D1D2D2" fill="#D1D2D2"/>
  <path id="svg_496" d="m102.002319,150.038173c1.161401,-0.481854 2.273059,-1.083366 3.457774,-1.515303c0.431418,2.012152 1.151453,3.961204 2.168546,5.752355c-1.405299,0.629691 -2.807382,1.264413 -4.191074,1.935768c-1.183007,-1.718088 -1.918016,-3.778446 -1.999315,-5.867082c0.185812,-0.104663 0.373232,-0.207716 0.564069,-0.305738z" stroke-width="0.5" stroke="#FAB418" fill="#FAB418"/>
  <path id="svg_498" d="m100.998492,165.944478c-0.793093,-0.990276 -1.62769,-1.980652 -2.153673,-3.142012c0.074667,-0.196042 0.320172,-0.222611 0.484478,-0.315701c-0.238873,0 -0.565777,0.116337 -0.678631,-0.174506c-1.050256,-1.885851 -0.942426,-4.107431 -1.114973,-6.189324c-0.222291,-1.402388 -0.394939,-2.854591 -1.018701,-4.145673c-0.585675,0.295774 -1.533126,0.535091 -1.486598,1.359214c-0.068034,0.812549 0.30359,1.560188 0.462872,2.339527c-0.129435,0.005032 -0.386598,0.016605 -0.516033,0.023247c0.20571,0.054848 0.418153,0.103053 0.613914,0.206006c0.360068,1.219629 -0.021606,2.522285 0.177572,3.775125c0.014974,-0.254211 0.04482,-0.50178 0.08964,-0.744418c0.265503,0.461927 0.227316,1.020165 0.315248,1.53533c0.25053,0.75267 0.441367,1.525367 0.740033,2.264753c0.376649,1.008592 0.998803,1.902557 1.39535,2.901085c-0.358359,0.463538 -1.033674,0.505101 -1.52981,0.770986c-1.4667,0.682928 -3.081125,1.03677 -4.700475,0.933818c-1.082715,0.02848 -2.15729,-0.155989 -3.201818,-0.428818c-0.516033,-0.134754 -1.026238,-0.291246 -1.53393,-0.45448c-0.437246,-0.140591 -1.003828,-0.447637 -1.45645,-0.460217c0.008039,0.443913 0.077581,0.895878 0.11818,1.338684c0.006432,0.069943 0.013265,0.141698 0.044519,0.204697c0.100795,0.203188 0.464581,0.332809 0.6519,0.453373c0.297561,0.191514 0.699735,0.512951 1.040608,0.606242c2.239896,0.613186 4.589329,0.663002 6.880678,0.342269c0.658734,-0.199363 1.3241,-0.373869 1.995998,-0.526738c0.922529,-0.40547 1.861639,-0.842439 2.875416,-0.947102c0.686872,-0.079806 1.166426,0.573233 1.823451,0.654649c0.264096,0.003019 0.540453,-0.048407 0.781939,-0.165247c0.004221,-0.00312 0.00814,-0.006642 0.01226,-0.009661c0.066527,-0.048608 0.133656,-0.087555 0.20159,-0.120262c0.076978,-0.057364 0.14873,-0.121973 0.210333,-0.198256c-0.391623,-0.661392 -1.063621,-1.081756 -1.524886,-1.686589l-0.000001,-0.000001z" stroke-width="0.5" stroke="#BDBEBD" fill="#BDBEBD"/>
  <path id="svg_499" d="m99.392407,152.759821c0.949059,-0.319022 1.999315,0.754381 1.546391,1.689809c-0.305299,0.968739 -1.805162,1.080045 -2.259793,0.182758c-0.433126,-0.689469 -0.026631,-1.615035 0.713402,-1.872567z" stroke-width="0.5" stroke="#FEFCFA" fill="#FEFCFA"/>
  <path id="svg_467" d="m87.351699,8.117864c2.74598,1.779578 5.774045,3.082233 8.885017,4.072509c3.643587,1.176355 7.411584,1.935768 11.204504,2.429195c3.188955,0.483565 6.455892,0.367227 9.596811,1.178066c3.099315,0.757702 6.130696,2.2564 8.201361,4.747084c2.002631,2.344458 2.973296,5.431723 3.087758,8.483966c2.034186,1.203024 3.678458,3.024065 4.680577,5.167549c1.561264,3.153686 1.791897,6.809152 1.229435,10.240297c-0.3667,2.3511 -1.046939,4.6391 -1.80687,6.888958c-0.381573,1.03516 -0.683556,2.10021 -1.11829,3.115444c-5.931619,-6.131256 -10.929152,-13.16302 -14.941047,-20.693342c-0.469605,-0.785981 -0.779828,-1.658309 -1.282596,-2.419232c-2.614937,1.040091 -5.269569,2.000579 -8.0056,2.676764c-3.839348,1.010202 -7.794866,1.513693 -11.7537,1.728051c-4.41015,0.121269 -8.85507,0.051527 -13.203818,-0.769275c-0.730084,-0.113016 -1.438562,-0.367227 -2.176886,-0.402149c-0.93911,0.737776 -1.594528,1.769615 -2.231655,2.764822c-2.034186,3.379618 -2.694528,7.339212 -3.343313,11.169083c-0.486187,-0.634723 -0.746665,-1.399066 -1.036991,-2.13181c-1.272648,-3.519203 -1.025434,-7.433912 0.150941,-10.943151c0.275452,-0.97035 0.784853,-1.865925 1.065229,-2.826312c-2.61152,-1.272766 -5.007382,-3.025776 -6.867413,-5.270501c-2.150356,-2.595348 -3.691723,-5.853697 -3.719861,-9.271558c3.248748,2.032078 6.835858,3.618935 10.647067,4.185525c-0.798018,-0.755991 -1.677435,-1.437309 -2.354358,-2.314568c-1.272648,-1.56683 -2.294665,-3.401255 -2.709501,-5.39016c0.975589,0.540022 1.849982,1.247808 2.830596,1.78622c3.706596,2.199942 7.794866,3.766772 12.029152,4.567647c-0.763247,-0.782559 -1.647588,-1.448882 -2.324511,-2.316279c-2.090563,-2.520574 -3.464407,-5.692576 -3.645195,-8.979205c0.756614,0.496849 1.382085,1.171424 2.130358,1.684878c3.583894,2.681796 7.738489,4.675631 12.140298,5.531355c-2.160305,-2.628458 -4.262525,-5.429912 -5.3575,-8.689871l0.000001,0z" stroke-width="0.5" stroke="#7F4E13" fill="#7F4E13"/>
  <path id="svg_468" d="m107.08276,34.005223c2.736031,-0.676286 5.390764,-1.636672 8.0056,-2.676764c0.502768,0.761023 0.812991,1.633351 1.282596,2.419232c4.011895,7.530222 9.009428,14.562086 14.941047,20.693342c0.434734,-1.015234 0.736717,-2.080284 1.11829,-3.115444c0.512717,0.106273 1.038699,0.099732 1.559656,0.159511c0.788069,0.181148 1.567997,0.633012 1.934597,1.385782c0.743349,1.217918 0.378257,2.819669 -0.479554,3.879788c-0.798018,0.935428 -2.06564,1.369177 -3.275279,1.266124c-0.728376,0.021637 -1.372136,-0.363906 -2.073981,-0.476822c-1.148136,2.367705 -2.530221,4.620884 -4.00697,6.797478c-2.234972,3.085554 -4.748611,6.023171 -7.843002,8.27303c-1.815111,1.370787 -3.809501,2.510611 -5.916645,3.366334c-2.28964,0.903929 -4.717056,1.433988 -7.16437,1.664851c-0.16089,0.506812 -0.192445,1.045123 -0.177572,1.575183c0.874392,0.191111 1.795213,-0.088058 2.654732,0.162832c-0.892682,0.00161 -1.790289,-0.103053 -2.677946,0.014894c-0.232341,0.692891 0.117778,1.628319 -0.554221,2.120136c-1.816819,1.533619 -4.790115,1.251129 -6.328165,-0.541633c-0.394939,-0.446932 -0.175863,-1.060118 -0.17918,-1.586857c-0.808067,-0.088058 -1.621058,-0.006642 -2.429024,-0.009963c0.801434,-0.252601 1.667486,0.043174 2.483793,-0.167864c0.112854,-0.540022 0.222291,-1.081655 0.283693,-1.628319c-0.097881,-0.309059 -0.486187,-0.28249 -0.735008,-0.357264c-5.598081,-1.021876 -10.776402,-3.939567 -14.741969,-8.000503c-4.118116,-4.247015 -7.030011,-9.647138 -8.337429,-15.419419c-0.117778,-0.415433 -0.230632,-1.005271 -0.761538,-1.03516c-1.428613,-0.164543 -2.89863,-0.53338 -4.023552,-1.475451c-0.836205,-0.706175 -1.418664,-1.839357 -1.14482,-2.94597c0.202394,-0.648007 0.54588,-1.289371 1.113265,-1.686488c0.814699,-0.623049 1.942938,-0.664612 2.895313,-0.37548c0.278768,0.091379 0.56417,0.109695 0.831281,0.079705c0.290325,0.732744 0.550804,1.497088 1.036991,2.13181c0.648684,-3.829972 1.309127,-7.789465 3.343313,-11.169083c0.637128,-0.995308 1.292545,-2.027147 2.231655,-2.764822c0.738324,0.034921 1.446802,0.289132 2.176886,0.402149c4.348748,0.820802 8.793669,0.890644 13.203818,0.769275c3.958834,-0.214459 7.914352,-0.71795 11.7537,-1.728152m-4.237603,9.858175c-1.415248,0.737776 -2.349434,2.231442 -2.500375,3.811656c0.594016,-0.322343 1.061913,-0.839118 1.689092,-1.109934c1.992682,-1.03516 4.501398,-0.910571 6.40444,0.270816c0.562461,0.315701 0.980614,0.822513 1.508204,1.184708c-0.008341,-1.309298 -0.587384,-2.593738 -1.547999,-3.47935c-1.460068,-1.370787 -3.807893,-1.666562 -5.553362,-0.677896m-16.981765,4.276905c1.760442,-1.742946 4.514663,-2.352811 6.839174,-1.490446c1.036991,0.332306 1.869879,1.046734 2.691211,1.731372c0.083007,-2.568779 -2.33446,-4.845105 -4.878047,-4.70059c-2.384305,-0.011674 -4.612543,2.046973 -4.652339,4.459663m18.838479,-1.217918c-1.232752,0.209327 -1.723863,1.953983 -0.766563,2.764822c0.84123,0.882291 2.516956,0.342269 2.687895,-0.863975c0.275352,-1.09665 -0.84123,-2.185048 -1.921332,-1.900846m-14.786789,0.481753c-1.02865,0.365516 -1.358871,1.839357 -0.575726,2.605412c0.794802,0.962097 2.55846,0.475212 2.76427,-0.755991c0.313539,-1.206345 -1.04704,-2.369416 -2.188544,-1.849421m6.464233,4.971507c0.403179,0.644686 1.003828,1.136502 1.49323,1.716377c0.419761,0.398828 0.726768,0.965418 1.262598,1.22124c0.290325,-1.608393 0.56417,-3.221818 0.786461,-4.838564c-1.212753,0.571723 -2.349333,1.291082 -3.542289,1.900947m11.448401,6.137798c-4.010287,0.559949 -8.017257,1.204634 -12.055682,1.53533c-2.531929,0.31238 -5.083757,0.294064 -7.625635,0.451964c-0.648785,-0.279169 -1.418664,-0.116337 -2.113777,-0.171185c0.282085,0.659681 0.761538,1.206345 1.179691,1.784509c1.159794,1.483803 2.498767,2.849559 4.061739,3.911388c2.614937,1.827683 5.843687,2.779817 9.030933,2.615274c2.699552,-0.141195 5.23309,-1.493767 7.064882,-3.44775c1.944546,-1.965657 3.082733,-4.587573 3.680066,-7.256085c-1.078494,0.136264 -2.181811,0.269206 -3.222218,0.576554l0.000001,0.000001z" stroke-width="0.5" stroke="#FCCFAE" fill="#FCCFAE"/>
  <path id="svg_469" d="m102.845157,43.863398c1.745469,-0.988666 4.093194,-0.692891 5.553261,0.677896c0.960716,0.885612 1.539759,2.170053 1.547999,3.47935c-0.52759,-0.362195 -0.945743,-0.869007 -1.508204,-1.184708c-1.903042,-1.181387 -4.411758,-1.305977 -6.40444,-0.270816c-0.627179,0.270816 -1.095076,0.787591 -1.689092,1.109934c0.151142,-1.580214 1.085227,-3.073981 2.500475,-3.811656l0.000001,0z" stroke-width="0.5" stroke="#7F4E13" fill="#7F4E13"/>
  <path id="svg_470" d="m85.863392,48.140303c0.039795,-2.41259 2.268134,-4.471337 4.652339,-4.459663c2.543587,-0.144516 4.960954,2.13181 4.878047,4.70059c-0.821332,-0.684538 -1.654221,-1.399066 -2.691211,-1.731372c-2.324511,-0.862365 -5.078832,-0.252601 -6.839174,1.490446l-0.000001,-0.000001z" stroke-width="0.5" stroke="#7E4E12" fill="#7E4E12"/>
  <path id="svg_471" d="m104.701872,46.922385c1.080102,-0.2841 2.196784,0.804197 1.921332,1.900846c-0.170939,1.206345 -1.846665,1.746367 -2.687895,0.863975c-0.9574,-0.810839 -0.466289,-2.555495 0.766563,-2.764822l0,0.000001z" stroke-width="0.5" stroke="#7F4E13" fill="#7F4E13"/>
  <path id="svg_472" d="m89.915082,47.404138c1.141504,-0.520096 2.502083,0.643075 2.188443,1.84932c-0.20571,1.231203 -1.969468,1.718088 -2.76427,0.755991c-0.783044,-0.765854 -0.452823,-2.239694 0.575827,-2.605311z" stroke-width="0.5" stroke="#7F4E13" fill="#7F4E13"/>
  <path id="svg_473" d="m96.379316,52.375644c1.192956,-0.609764 2.329536,-1.329224 3.54239,-1.900846c-0.222291,1.616746 -0.496136,3.23007 -0.786461,4.838564c-0.535931,-0.255922 -0.842838,-0.822513 -1.262598,-1.22124c-0.489503,-0.579976 -1.090152,-1.071792 -1.493331,-1.716478z" stroke-width="0.5" stroke="#7E4E13" fill="#7E4E13"/>
  <path id="svg_475" d="m107.827717,58.513442c1.040307,-0.307348 2.143623,-0.44029 3.222118,-0.576554c-0.597332,2.668511 -1.73552,5.290428 -3.680066,7.256085c-1.831792,1.953983 -4.36533,3.306555 -7.064882,3.44775c-3.187347,0.164543 -6.416097,-0.787591 -9.030933,-2.615274c-1.562973,-1.061729 -2.901946,-2.427585 -4.061739,-3.911388c-0.418153,-0.578265 -0.897606,-1.124929 -1.179691,-1.784509c0.695213,0.054848 1.465092,-0.107984 2.113777,0.171185c1.050256,1.178066 2.505399,1.934057 4.030184,2.291321c3.56068,0.815871 7.360131,0.588228 10.788059,-0.682928c1.881637,-0.740996 3.907482,-1.696451 4.863174,-3.595687l-0.000001,-0.000001z" stroke-width="0.5" stroke="#E73A58" fill="#E73A58"/>
  <path id="svg_476" d="m95.772035,60.048772c4.038425,-0.330696 8.045395,-0.975381 12.055682,-1.53533c-0.955692,1.899236 -2.981537,2.854591 -4.863073,3.595687c-3.427928,1.271156 -7.22748,1.498698 -10.788059,0.682928c-1.524785,-0.357264 -2.979929,-1.113255 -4.030184,-2.291321c2.541878,-0.1578 5.093705,-0.139585 7.625635,-0.451964l-0.000001,0z" stroke-width="0.5" stroke="#FEFEFE" fill="#FEFEFE"/>
  <path transform="rotate(83.22615814208984 76.74182891845702,100.8810043334961) " id="svg_478" d="m65.58546,86.822716c0.275452,-0.119658 0.552512,-0.300706 0.866152,-0.275848c2.400886,5.022932 5.773945,9.662032 10.200676,13.081604c5.327654,4.153925 12.128741,6.427031 18.884907,6.167788c-1.151453,2.997496 -1.114973,6.260878 -1.068546,9.421206c-6.874045,-0.058169 -13.769596,-1.872567 -19.673076,-5.435044c-7.449771,-4.403205 -13.19387,-11.350231 -16.849113,-19.139696c0.063009,-0.169474 0.17918,-0.323953 0.330221,-0.418754c0.735008,-0.081416 1.343998,-0.566591 2.015896,-0.842439c1.755518,-0.872228 3.540782,-1.678135 5.292883,-2.558816l0,-0.000001z" stroke-width="0.5" stroke="#EC6E3E" fill="#EC6E3E"/>
  <path id="svg_479" d="m84.252283,81.109342c3.627005,-1.139824 7.436506,-1.56683 11.221085,-1.733083c0.808067,0.003321 1.621058,-0.078095 2.429024,0.009963c0.003316,0.526738 -0.215659,1.139824 0.17918,1.586857c1.53805,1.792862 4.511347,2.075352 6.328165,0.541633c0.671999,-0.491817 0.32188,-1.427245 0.554221,-2.120136c0.887658,-0.117947 1.785264,-0.013284 2.677946,-0.014894c3.784579,0.151259 7.59408,0.59487 11.221085,1.729662c-0.315248,0.554917 -0.779828,1.00356 -1.191348,1.487125c-3.144135,-1.161461 -6.361328,-2.213226 -9.692984,-2.653516c0.031555,1.545293 0.396547,3.063917 0.486187,4.6076c0.267111,2.317889 0.361675,4.650774 0.491111,6.980337c0.170939,2.264753 0.068034,4.539469 0.094564,6.810763c0.054769,2.276326 -0.215659,4.54279 -0.287009,6.815795c-0.398255,5.164127 -1.033674,10.341639 -2.437365,15.339714c-0.298666,1.106613 -0.743349,2.165021 -1.053572,3.270024c-2.590015,-0.009963 -5.180029,0 -7.768335,-0.003321c-1.259282,-3.22846 -2.054084,-6.616431 -2.578357,-10.035902c-1.325708,-8.410903 -1.498255,-16.969744 -1.008853,-25.458743c0.182496,-1.759551 0.237265,-3.532487 0.50106,-5.283786c0.106221,-0.953744 0.273744,-1.904168 0.275452,-2.864554c-3.125945,0.496849 -6.158935,1.478772 -9.089019,2.658548c-0.467897,-0.543545 -0.967349,-1.066962 -1.352238,-1.670084m16.452567,2.676764c-1.52981,0.466859 -2.28964,2.442479 -1.463384,3.818298c0.635419,1.236235 2.304614,1.699772 3.520784,1.070082c1.249333,-0.581586 1.80687,-2.243116 1.20793,-3.474318c-0.516033,-1.22134 -2.022629,-1.867737 -3.26533,-1.414062m0.167522,7.497012c-1.066837,0.295774 -1.916408,1.272766 -1.956203,2.397695c-0.142701,1.390714 1.000512,2.72668 2.385913,2.828022c1.49323,0.186079 2.984853,-1.133181 2.900237,-2.656837c0.091348,-1.69152 -1.732103,-3.035739 -3.329947,-2.56888m-0.013265,8.271319c-0.968957,0.252601 -1.750493,1.114966 -1.911383,2.105242c-0.27706,1.369177 0.700137,2.801454 2.0574,3.078912c1.567897,0.368837 3.260305,-0.950423 3.198904,-2.580453c0.10793,-1.703093 -1.728787,-3.108802 -3.34492,-2.603701m0.180888,7.512007c-1.191348,0.215969 -2.150356,1.34754 -2.130358,2.568779c-0.068034,1.405709 1.156477,2.688438 2.55846,2.705043c1.531418,0.113016 2.915211,-1.34754 2.726083,-2.871196c-0.053161,-1.541972 -1.659245,-2.744896 -3.154184,-2.402626l-0.000001,0z" stroke-width="0.5" stroke="#EC6E3E" fill="#EC6E3E"/>
  <path id="svg_481" d="m85.604522,82.779224c2.930184,-1.179676 5.963174,-2.1617 9.089019,-2.658548c-0.001708,0.960386 -0.169231,1.91081 -0.275452,2.864554c-0.263795,1.751299 -0.318564,3.524235 -0.50106,5.283786c-0.489403,8.488998 -0.316855,17.047739 1.008853,25.458743c0.524274,3.419471 1.319075,6.807442 2.578357,10.035902c-3.492545,0.069742 -6.986899,0 -10.477736,0.036532c-0.491111,0.008353 -0.982222,0.041563 -1.468409,-0.021637c-0.282085,-0.001711 -0.298666,-0.319022 -0.3667,-0.511743c-1.013777,-3.550803 -1.893194,-7.138137 -2.687895,-10.743788c-1.139896,-5.395091 -2.087246,-10.84674 -2.37104,-16.36159c-0.046428,-3.160328 -0.083007,-6.42371 1.068546,-9.421206c0.444683,-1.214597 1.222803,-2.367705 2.37928,-2.999107c0.658734,-0.352132 1.347314,-0.644585 2.024237,-0.961896l0,-0.000002z" stroke-width="0.5" stroke="#FAB421" fill="#FAB421"/>
  <path id="svg_482" d="m100.70485,83.786105c1.242701,-0.453675 2.749296,0.192721 3.26533,1.413961c0.59894,1.231203 0.041504,2.892833 -1.20793,3.474318c-1.21617,0.629791 -2.885364,0.166153 -3.520784,-1.070082c-0.826256,-1.375719 -0.066426,-3.351339 1.463384,-3.818198m0.937402,0.800875c-0.157574,0.290743 -0.092956,0.633112 -0.106221,0.952134c0.023214,0.817481 -0.014974,1.636672 0.013265,2.455864c1.07347,0.039853 1.976101,-1.146466 1.62769,-2.171663c-0.190736,-0.698024 -0.852786,-1.129961 -1.534734,-1.236335z" stroke-width="0.5" stroke="#FDFCFA" fill="#FDFCFA"/>
  <path id="svg_483" d="m101.642252,84.586981c0.681948,0.106374 1.343897,0.538312 1.534734,1.236235c0.34841,1.025197 -0.55412,2.211515 -1.62769,2.171663c-0.028239,-0.819192 0.009949,-1.638282 -0.013265,-2.455864c0.013366,-0.319022 -0.051352,-0.661291 0.106221,-0.952033l0,-0.000001z" stroke-width="0.5" stroke="#EC6D41" fill="#EC6D41"/>
  <path stroke="#EC6E3E" transform="rotate(-24.824615478515625 130.06486511230463,98.16202545166013) " id="svg_484" d="m123.111174,75.313489c1.98647,1.023301 3.930418,2.301181 5.809099,3.793167c1.965769,1.576255 3.876029,3.465409 5.453167,6.021057c1.124361,1.849017 2.050681,4.128132 2.434896,6.72037c0.395092,2.548329 0.220983,5.308881 -0.419023,7.703422c-1.868924,6.945564 -3.84445,13.812405 -5.950641,20.565706c-0.116491,0.285624 -0.156705,0.721267 -0.342879,0.893352c-0.207863,-0.082383 -0.398388,-0.250808 -0.580145,-0.426552c-1.524925,-1.481009 -3.099953,-2.810115 -4.641227,-4.243446c-0.206809,-0.221536 -0.486531,-0.313011 -0.633479,-0.646202c0.174175,-0.946462 0.520284,-1.779384 0.778252,-2.667303c1.709978,-5.55969 3.327462,-11.199988 4.876318,-16.891512c0.118666,-0.525455 0.375512,-1.039822 0.332001,-1.620162c-0.411442,-1.285086 -1.161411,-2.136415 -1.855805,-2.954701c-1.380152,-1.471806 -2.85504,-2.722187 -4.395193,-3.644811c0.086033,-4.221603 0.202457,-8.664631 -0.865339,-12.602384l-0.000001,-0.000001z" stroke-width="0.5" fill="#EC6E3E"/>
  <path id="svg_485" d="m100.872372,91.283117c1.597844,-0.466959 3.421295,0.87726 3.329947,2.568779c0.084615,1.523656 -1.407007,2.842917 -2.900237,2.656837c-1.385401,-0.101342 -2.528613,-1.437309 -2.385913,-2.828022c0.039896,-1.124829 0.889366,-2.10182 1.956203,-2.397595m0.668683,0.938749c0.001708,1.086687 0,2.174984 0,3.263381c0.899315,0.131232 1.752101,-0.739386 1.674118,-1.634961c0.068034,-0.895576 -0.77812,-1.736404 -1.674118,-1.62842z" stroke-width="0.5" stroke="#FDFCFA" fill="#FDFCFA"/>
  <path id="svg_486" d="m101.541055,92.221866c0.895999,-0.107984 1.742152,0.732744 1.674118,1.628319c0.077983,0.895576 -0.774904,1.766294 -1.674118,1.634961c0,-1.088196 0.001708,-2.176594 0,-3.263281l0,0.000001z" stroke-width="0.5" stroke="#EC6D3F" fill="#EC6D3F"/>
  <path id="svg_487" d="m100.859107,99.554436c1.616033,-0.505101 3.45275,0.900608 3.34492,2.603701c0.061401,1.63003 -1.631007,2.949291 -3.198904,2.580453c-1.357263,-0.277458 -2.33446,-1.709735 -2.0574,-3.078912c0.16099,-0.990276 0.942426,-1.852641 1.911383,-2.105242m0.681948,0.978702c-0.003316,1.084976 0.003316,2.170053 0.003316,3.256739c1.098392,0.053137 1.981025,-1.139824 1.625982,-2.176695c-0.222291,-0.638044 -0.922428,-1.281119 -1.629298,-1.080045l0,0.000001z" stroke-width="0.5" stroke="#FDFCFA" fill="#FDFCFA"/>
  <path id="svg_488" d="m101.541055,100.533138c0.70687,-0.201074 1.407007,0.442001 1.629298,1.080045c0.355043,1.036871 -0.52759,2.229831 -1.625982,2.176695c0,-1.086687 -0.006633,-2.171763 -0.003316,-3.256739l0,-0.000001z" stroke-width="0.5" stroke="#EC6D3F" fill="#EC6D3F"/>
  <path id="svg_489" d="m101.039995,107.066443c1.494939,-0.342269 3.101023,0.860654 3.154084,2.402626c0.189128,1.523656 -1.194665,2.984212 -2.726083,2.871196c-1.401982,-0.016605 -2.626494,-1.299334 -2.55846,-2.705043c-0.019797,-1.22124 0.93911,-2.352811 2.130459,-2.568779m0.506084,0.945492c0.004924,1.076724 -0.02653,2.158379 0.011557,3.236712l0.092956,0.116337c0.922529,-0.036532 1.710597,-0.932107 1.58287,-1.854352c-0.079691,-0.834086 -0.849571,-1.525367 -1.687383,-1.498698l0,0.000001z" stroke-width="0.5" stroke="#FDFCFA" fill="#FDFCFA"/>
  <path id="svg_490" d="m101.54608,108.011935c0.837913,-0.026568 1.607793,0.664612 1.687383,1.498698c0.127727,0.922144 -0.660342,1.81782 -1.58287,1.854352l-0.092956,-0.116337c-0.038087,-1.078334 -0.006633,-2.160089 -0.011557,-3.236712l0,-0.000001z" stroke-width="0.5" stroke="#EB6E3F" fill="#EB6E3F"/>
  <path id="svg_492" d="m87.026502,123.800192c3.490937,-0.036532 6.985191,0.03321 10.477736,-0.036532c2.588407,0.003321 5.178321,-0.006642 7.768335,0.003321c3.454458,0.083026 6.910524,-0.039853 10.363274,0.0631c-0.584067,1.011913 -1.567897,1.69313 -2.535246,2.299573l-0.064718,0.12459c1.567897,5.235681 3.212169,10.449624 4.796748,15.681983c0.137676,0.490106 0.3667,0.948712 0.592308,1.407319c0.970665,2.050394 0.899315,4.5444 -0.151041,6.553231c-1.111657,2.145094 -3.122629,3.655466 -5.244747,4.707232c-1.266015,0.589838 -2.535246,1.176355 -3.786287,1.794472c-0.715111,-0.558338 -1.081811,-1.413961 -1.614425,-2.123457c-1.017093,-1.791151 -1.737128,-3.740203 -2.168546,-5.752355c1.299178,-0.569912 2.573433,-1.196382 3.860954,-1.792862c0.308615,-0.184469 0.890974,-0.382222 0.637128,-0.844049c-1.894802,-6.200998 -3.822766,-12.395355 -5.702695,-18.601385c-0.076274,-0.259243 -0.409812,-0.211037 -0.612205,-0.247569c-0.540855,-0.029889 -1.088443,-0.021637 -1.617742,0.089769l-0.023214,0.146227c-0.109538,1.649956 -0.019898,3.308165 -0.048136,4.961443c0,5.150843 0,10.301787 0,15.45263c-0.008341,0.78427 -0.006633,1.568541 0.048136,2.3511c-0.190837,0.098021 -0.378257,0.201074 -0.56417,0.305738c-0.516033,-0.089769 -1.070153,-0.182758 -1.547999,0.088058c-1.116682,0.53338 -2.226631,1.080045 -3.373159,1.545293c-0.585675,0.295774 -1.533126,0.535091 -1.486598,1.359214c-0.068034,0.812549 0.30359,1.560188 0.462872,2.339527c-0.129435,0.005032 -0.386598,0.016605 -0.516033,0.023247c-0.280376,-0.054848 -0.555829,-0.107984 -0.829572,-0.1578c0.086324,-0.019926 0.258871,-0.059779 0.346802,-0.081416c-0.343486,-0.182758 -0.736717,-0.227643 -1.095076,-0.362195c-0.132752,-0.69118 -0.058085,-1.397356 -0.061401,-2.093568c-0.001708,-7.920697 -0.003316,-15.841494 0,-23.760581c-0.019898,-0.684538 0.099589,-1.394035 -0.13436,-2.050394c-0.476238,-0.264174 -1.045332,-0.245858 -1.557948,-0.393796c-1.831591,-0.393695 -3.598666,-1.385682 -4.618975,-2.999107l0,-0.000001z" stroke-width="0.5" stroke="#E63C1B" fill="#E63C1B"/>
  <path id="svg_494" d="m102.025533,127.126673c0.529298,-0.111305 1.076887,-0.119658 1.617742,-0.089769c0.202394,0.036532 0.535931,-0.011573 0.612205,0.247569c-0.75159,-0.013284 -1.50328,-0.004931 -2.253161,-0.011573l0.023214,-0.146227z" stroke-width="0.5" stroke="#B43923" fill="#B43923"/>
  <path id="svg_495" d="m93.203626,127.193194c0.233948,0.656259 0.114462,1.365856 0.13436,2.050394c-0.003316,7.919087 -0.001708,15.839783 0,23.760581c0.003316,0.696212 -0.07135,1.402388 0.061401,2.093568c0.358359,0.134653 0.75159,0.179437 1.095076,0.362195c-0.087932,0.021637 -0.260479,0.06149 -0.346802,0.081416c-0.330221,-0.06149 -0.655417,-0.1263 -0.980614,-0.184469c-0.073059,-8.979205 -0.005025,-17.96163 -0.033163,-26.942446c-0.004924,-0.410401 -0.003216,-0.820902 0.069742,-1.22124l0,0.000001z" stroke-width="0.5" stroke="#C63C20" fill="#C63C20"/>
  <path id="svg_497" d="m99.890151,150.431968c0.477846,-0.270816 1.032066,-0.177827 1.547999,-0.088058c0.081299,2.088637 0.816307,4.148994 1.999315,5.867082c0.033163,0.737675 -0.097881,1.475451 -0.054769,2.214836c0.788069,0.586517 1.567897,1.184708 2.261502,1.889172l0.021606,0.141195c0.013265,0.554917 -0.001708,1.113255 -0.059693,1.669883c-0.854495,-0.71946 -1.534734,-1.718088 -2.599963,-2.140163c-0.180888,0.461927 -0.320172,0.947102 -0.34841,1.445561c0.940819,0.442001 1.893194,0.880681 2.694528,1.563509c0.011557,0.478533 -0.122803,0.943781 -0.272136,1.395745c-0.743349,-0.694501 -1.547999,-1.362535 -2.535246,-1.666562c-1.023726,-0.400438 -2.145332,-0.380511 -3.215485,-0.237606c-0.238873,0 -0.565777,0.116337 -0.678631,-0.174506c-1.050256,-1.885851 -0.942426,-4.107431 -1.114973,-6.189324c-0.222291,-1.402388 -0.394939,-2.854591 -1.018701,-4.145673c1.146428,-0.465047 2.256477,-1.011712 3.373059,-1.545092m-0.497743,2.327853c-0.740033,0.257532 -1.146528,1.182997 -0.713402,1.872567c0.454632,0.897286 1.954495,0.78588 2.259793,-0.182758c0.452923,-0.935428 -0.597332,-2.008831 -1.546391,-1.689809z" stroke-width="0.5" stroke="#EC6E3E" fill="#EC6E3E"/>
  <path id="svg_480" d="m107.978758,79.942849c3.331655,0.44029 6.548849,1.492056 9.692984,2.653516c1.259282,0.639754 2.755929,1.005271 3.670117,2.1617c0.300375,0.362195 0.597332,0.737776 0.816307,1.15975c1.62769,3.57405 1.450119,7.606707 1.319075,11.438289c-0.215659,3.780056 -0.829572,7.520259 -1.491622,11.245568c-1.015385,5.07939 -2.133674,10.148918 -3.635246,15.108751c-0.892682,0.171185 -1.811794,0.074774 -2.714425,0.119658c-3.45275,-0.103053 -6.908916,0.019926 -10.363274,-0.0631c0.310223,-1.105003 0.754906,-2.16341 1.053572,-3.270024c1.403691,-4.997974 2.03911,-10.175486 2.437365,-15.339714c0.07135,-2.273005 0.341778,-4.539469 0.287009,-6.815795c-0.02653,-2.271395 0.076274,-4.546111 -0.094564,-6.810763c-0.129435,-2.329563 -0.224,-4.662347 -0.491111,-6.980337c-0.08964,-1.543582 -0.454632,-3.062206 -0.486187,-4.6075l0,0.000001z" stroke-width="0.5" stroke="#FAB421" fill="#FAB421"/>
  <g transform="rotate(-29.38397216796875 135.79388427734384,122.58489990234379) " id="svg_1">
   <path id="svg_491" d="m135.317841,115.191053c2.349434,1.301045 4.75032,2.50729 7.074831,3.851509c-0.13436,0.212648 -0.194153,0.521706 -0.447999,0.629691c-0.076375,-0.038242 -0.23224,-0.114626 -0.308615,-0.152869c-2.125434,-1.193061 -4.267449,-2.356132 -6.416097,-3.504308c-0.391522,-0.167663 -0.001608,-0.581485 0.097881,-0.824022l-0.000001,-0.000001z" stroke-width="0.5" stroke="#AE3316" fill="#AE3316"/>
   <path id="svg_493" d="m135.21996,116.015176c2.148648,1.148176 4.290663,2.311247 6.416097,3.504308c0.05306,1.546903 -0.066326,3.175323 -0.859419,4.541079c-0.275452,0.531669 -0.799726,0.869007 -1.101708,1.38075c-0.668683,1.173034 -1.282596,2.376058 -1.942938,3.552413c-0.406496,0.601512 -1.581162,0.227643 -1.383793,-0.546664c0.315248,-0.893965 0.84947,-1.69152 1.290837,-2.525606c0.112854,-0.225932 0.263795,-0.491817 0.091248,-0.726102c-0.167623,-0.074774 -0.335145,-0.091379 -0.506084,-0.053137c-0.469505,0.515064 -0.701845,1.18974 -1.058597,1.779578c-0.522666,0.872328 -0.962324,1.789541 -1.476649,2.66519c-0.252138,0.569912 -1.249333,0.503491 -1.407007,-0.104663c-0.129435,-0.274137 0.058085,-0.545054 0.16099,-0.787591c0.670291,-1.359214 1.455043,-2.656837 2.15528,-3.997735c0.195761,-0.332306 -0.190837,-0.755991 -0.531007,-0.704464c-0.345094,0.455285 -0.567385,0.988666 -0.829572,1.493767c-0.532615,1.103292 -1.184615,2.143384 -1.757025,3.226749c-0.189128,0.302417 -0.363384,0.75267 -0.791485,0.731134c-0.529298,0.119658 -1.027042,-0.476922 -0.801334,-0.97206c0.260479,-0.65636 0.670291,-1.239556 0.963932,-1.879209c0.56417,-1.166392 1.348922,-2.234863 1.778631,-3.459424c-0.272136,-0.121269 -0.698529,-0.342269 -0.859419,0.046495c-0.588991,1.080045 -1.18964,2.153447 -1.743861,3.253418c-0.222291,0.37548 -0.449607,0.938749 -0.988854,0.825834c-0.555829,0.016605 -0.89429,-0.641365 -0.620546,-1.104902c0.725059,-1.560188 1.6907,-2.992465 2.429024,-4.5444c0.202394,-0.436969 0.165914,-0.942171 0.074667,-1.397356c-0.744957,-0.31238 -1.567997,-0.1578 -2.341093,-0.305738c-0.57241,-0.453574 -0.491111,-1.50534 0.139384,-1.857673c0.917504,-0.018316 1.8334,0.109695 2.749296,0.15619c0.378257,-0.269206 0.671999,-0.638044 1.036991,-0.925465c0.534323,-0.473803 1.20793,-0.757903 1.714014,-1.264715l0,-0.000001z" stroke-width="0.5" stroke="#FDDBC2" fill="#FDDBC2"/>
  </g>
  <g transform="rotate(-30.563873291015625 69.42344665527344,125.97716522216797) " id="svg_4">
   <path id="svg_2" d="m68.947403,118.58332c2.349434,1.301045 4.75032,2.50729 7.074831,3.851509c-0.13436,0.212648 -0.194153,0.521706 -0.447999,0.629691c-0.076375,-0.038242 -0.23224,-0.114626 -0.308615,-0.152869c-2.125434,-1.193061 -4.267449,-2.356132 -6.416097,-3.504308c-0.391522,-0.167663 -0.001608,-0.581485 0.097881,-0.824022l-0.000001,-0.000001z" stroke-width="0.5" stroke="#AE3316" fill="#AE3316"/>
   <path id="svg_3" d="m68.849522,119.407443c2.148648,1.148176 4.290663,2.311247 6.416097,3.504308c0.05306,1.546903 -0.066326,3.175323 -0.859419,4.541079c-0.275452,0.531669 -0.799726,0.869007 -1.101708,1.38075c-0.668683,1.173034 -1.282596,2.376058 -1.942938,3.552413c-0.406496,0.601512 -1.581162,0.227643 -1.383793,-0.546664c0.315248,-0.893965 0.84947,-1.69152 1.290837,-2.525606c0.112854,-0.225932 0.263795,-0.491817 0.091248,-0.726102c-0.167623,-0.074774 -0.335145,-0.091379 -0.506084,-0.053137c-0.469505,0.515064 -0.701845,1.18974 -1.058597,1.779578c-0.522666,0.872328 -0.962324,1.789541 -1.476649,2.66519c-0.252138,0.569912 -1.249333,0.503491 -1.407007,-0.104663c-0.129435,-0.274137 0.058085,-0.545054 0.16099,-0.787591c0.670291,-1.359214 1.455043,-2.656837 2.15528,-3.997735c0.195761,-0.332306 -0.190837,-0.755991 -0.531007,-0.704464c-0.345094,0.455285 -0.567385,0.988666 -0.829572,1.493767c-0.532615,1.103292 -1.184615,2.143384 -1.757025,3.226749c-0.189128,0.302417 -0.363384,0.75267 -0.791485,0.731134c-0.529298,0.119658 -1.027042,-0.476922 -0.801334,-0.97206c0.260479,-0.65636 0.670291,-1.239556 0.963932,-1.879209c0.56417,-1.166392 1.348922,-2.234863 1.778631,-3.459424c-0.272136,-0.121269 -0.698529,-0.342269 -0.859419,0.046495c-0.588991,1.080045 -1.18964,2.153447 -1.743861,3.253418c-0.222291,0.37548 -0.449607,0.938749 -0.988854,0.825834c-0.555829,0.016605 -0.89429,-0.641365 -0.620546,-1.104902c0.725059,-1.560188 1.6907,-2.992465 2.429024,-4.5444c0.202394,-0.436969 0.165914,-0.942171 0.074667,-1.397356c-0.744957,-0.31238 -1.567997,-0.1578 -2.341093,-0.305738c-0.57241,-0.453574 -0.491111,-1.50534 0.139384,-1.857673c0.917504,-0.018316 1.8334,0.109695 2.749296,0.15619c0.378257,-0.269206 0.671999,-0.638044 1.036991,-0.925465c0.534323,-0.473803 1.20793,-0.757903 1.714014,-1.264715l0,-0.000001z" stroke-width="0.5" stroke="#FDDBC2" fill="#FDDBC2"/>
  </g>
 </g>
</svg>