<svg width="200" height="190" xmlns="http://www.w3.org/2000/svg">
 <defs>
  <linearGradient id="SVGID_21_" x1="0.500004" y1="0.999998" x2="0.500004" y2="0">
   <stop offset="0" stop-color="#0FA02C"/>
   <stop offset="0.2308" stop-color="#146B2A"/>
   <stop offset="0.3081" stop-color="#165829"/>
  </linearGradient>
  <linearGradient id="SVGID_22_" x1="0.500004" y1="0.999997" x2="0.500004" y2="0.000003">
   <stop offset="0" stop-color="#0FA02C"/>
   <stop offset="0.2308" stop-color="#146B2A"/>
   <stop offset="0.3081" stop-color="#165829"/>
  </linearGradient>
  <linearGradient id="SVGID_23_" x1="0.500004" y1="1.000002" x2="0.500004" y2="0.000001">
   <stop offset="0" stop-color="#0FA02C"/>
   <stop offset="0.2308" stop-color="#146B2A"/>
   <stop offset="0.3081" stop-color="#165829"/>
  </linearGradient>
  <linearGradient id="SVGID_24_" x1="0.500006" y1="0.000007" x2="0.500006" y2="0.999996">
   <stop offset="0.0152" stop-color="#0FA02C"/>
   <stop offset="1" stop-color="#165829"/>
  </linearGradient>
  <linearGradient id="SVGID_25_" x1="0.499998" y1="1" x2="0.499998" y2="-0.000003">
   <stop offset="0" stop-color="#0FA02C"/>
   <stop offset="0.2308" stop-color="#146B2A"/>
   <stop offset="0.3081" stop-color="#165829"/>
  </linearGradient>
  <linearGradient id="SVGID_26_" x1="0.5" y1="0.999999" x2="0.5" y2="0.000001">
   <stop offset="0" stop-color="#0FA02C"/>
   <stop offset="0.2308" stop-color="#146B2A"/>
   <stop offset="0.3081" stop-color="#165829"/>
  </linearGradient>
  <linearGradient id="SVGID_27_" x1="0.499999" y1="0.999999" x2="0.499999" y2="0.000004">
   <stop offset="0" stop-color="#0FA02C"/>
   <stop offset="0.2308" stop-color="#146B2A"/>
   <stop offset="0.3081" stop-color="#165829"/>
  </linearGradient>
  <linearGradient id="SVGID_28_" x1="0.499998" y1="-0.000002" x2="0.499998" y2="0.999998">
   <stop offset="0.0152" stop-color="#0FA02C"/>
   <stop offset="1" stop-color="#165829"/>
  </linearGradient>
  <linearGradient id="SVGID_29_" x1="0.499999" y1="0.999999" x2="0.499999" y2="0.000002">
   <stop offset="0" stop-color="#0FA02C"/>
   <stop offset="0.2308" stop-color="#146B2A"/>
   <stop offset="0.3081" stop-color="#165829"/>
  </linearGradient>
  <linearGradient id="SVGID_30_" x1="0.5" y1="1.000001" x2="0.5" y2="0.000003">
   <stop offset="0" stop-color="#0FA02C"/>
   <stop offset="0.2308" stop-color="#146B2A"/>
   <stop offset="0.3081" stop-color="#165829"/>
  </linearGradient>
  <linearGradient id="SVGID_31_" x1="0.499998" y1="1.000002" x2="0.499998" y2="-0.000006">
   <stop offset="0" stop-color="#0FA02C"/>
   <stop offset="0.2308" stop-color="#146B2A"/>
   <stop offset="0.3081" stop-color="#165829"/>
  </linearGradient>
  <linearGradient id="SVGID_32_" x1="0.499997" y1="-0.000011" x2="0.499997" y2="0.999997">
   <stop offset="0.0152" stop-color="#0FA02C"/>
   <stop offset="1" stop-color="#165829"/>
  </linearGradient>
  <linearGradient id="SVGID_33_" x1="0.5" y1="0" x2="0.5" y2="1">
   <stop offset="0.1364" stop-color="#ABDA4D"/>
   <stop offset="1" stop-color="#33A02C"/>
  </linearGradient>
 </defs>
 <g>
  <title>background</title>
  <rect x="-1" y="-1" width="202" height="192" id="canvas_background" fill="none"/>
 </g>
 <g>
  <title>Layer 1</title>
  <path fill="url(#SVGID_33_)" d="m717.55427,167.23789l0,179l-725.2217,0l2.0146,-179c0,0 152.4302,-25.3652 241.7402,-20.0156c89.3101,5.3496 171.2334,46.6826 276.4346,45.5714c105.2022,-1.1115 205.0323,-25.5558 205.0323,-25.5558z" id="svg_44"/>
  <path fill="#339933" d="m482.9363,188.58649" id="svg_5"/>
  <path fill="url(#SVGID_21_)" d="m48.8581,164.67339c0.2505,0.3848 0.0845,0.7012 -0.3681,0.7012l-13.0821,0c-0.4526,0 -0.6186,-0.3164 -0.3681,-0.7012l6.4536,-9.9404c0.2505,-0.3847 0.6601,-0.3847 0.9106,0l6.4541,9.9404z" id="svg_30"/>
  <path fill="url(#SVGID_22_)" d="m48.2478,162.17149c0.228,0.3516 0.0766,0.6387 -0.3364,0.6387l-11.9248,0c-0.4131,0 -0.5645,-0.2871 -0.3365,-0.6387l5.8838,-9.0606c0.228,-0.3515 0.6016,-0.3515 0.8296,0l5.8843,9.0606z" id="svg_31"/>
  <path fill="url(#SVGID_23_)" d="m47.2663,159.28869c0.1924,0.2969 0.0645,0.539 -0.2841,0.539l-10.0669,0c-0.3487,0 -0.4766,-0.2421 -0.2832,-0.539l4.9668,-7.6485c0.1923,-0.2968 0.5078,-0.2968 0.7006,0l4.9668,7.6485z" id="svg_32"/>
  <path fill="url(#SVGID_24_)" d="m45.9485,156.16079c0.1445,0.2226 0.0488,0.4052 -0.2134,0.4052l-7.5723,0c-0.2622,0 -0.3579,-0.1826 -0.2134,-0.4052l3.7359,-5.754c0.145,-0.2226 0.3818,-0.2226 0.5268,0l3.7364,5.754z" id="svg_33"/>
  <path fill="url(#SVGID_25_)" d="m38.8899,164.04449c0.3862,0.5938 0.1299,1.0811 -0.5684,1.0811l-20.1772,0c-0.6988,0 -0.9546,-0.4873 -0.5684,-1.0811l9.9546,-15.332c0.3862,-0.5937 1.0181,-0.5937 1.4043,0l9.9551,15.332z" id="svg_35"/>
  <path fill="url(#SVGID_26_)" d="m37.948,160.18519c0.3515,0.542 0.1186,0.9853 -0.5186,0.9853l-18.3935,0c-0.6367,0 -0.8701,-0.4433 -0.5186,-0.9853l9.0757,-13.9756c0.3516,-0.542 0.9277,-0.542 1.2798,0l9.0752,13.9756z" id="svg_36"/>
  <path fill="url(#SVGID_27_)" d="m36.4343,155.73889c0.2969,0.458 0.0996,0.832 -0.438,0.832l-15.5273,0c-0.5376,0 -0.7344,-0.374 -0.437,-0.832l7.6606,-11.7979c0.2969,-0.457 0.7832,-0.457 1.0806,0l7.6611,11.7979z" id="svg_37"/>
  <path fill="url(#SVGID_28_)" d="m34.4016,150.91469c0.2231,0.3437 0.0752,0.625 -0.3291,0.625l-11.6792,0c-0.4048,0 -0.5523,-0.2813 -0.3291,-0.625l5.7622,-8.8741c0.2236,-0.3437 0.5889,-0.3437 0.8125,0l5.7627,8.8741z" id="svg_38"/>
  <path fill="url(#SVGID_29_)" d="m26.4026,166.21249c0.3857,0.5938 0.1299,1.0811 -0.5689,1.0811l-20.1767,0c-0.6988,0 -0.9546,-0.4873 -0.5684,-1.0811l9.9546,-15.332c0.3862,-0.5938 1.0181,-0.5938 1.4043,0l9.9551,15.332z" id="svg_40"/>
  <path fill="url(#SVGID_30_)" d="m25.4607,162.35309c0.3515,0.5421 0.1186,0.9854 -0.5186,0.9854l-18.3935,0c-0.6367,0 -0.8701,-0.4434 -0.5186,-0.9854l9.0757,-13.9756c0.3516,-0.5419 0.9277,-0.5419 1.2798,0l9.0752,13.9756z" id="svg_41"/>
  <path fill="url(#SVGID_31_)" d="m23.9465,157.90679c0.2974,0.4581 0.1001,0.8321 -0.4375,0.8321l-15.5273,0c-0.5376,0 -0.7344,-0.374 -0.437,-0.8321l7.6606,-11.7978c0.2969,-0.457 0.7832,-0.457 1.0801,0l7.6611,11.7978z" id="svg_42"/>
  <path fill="url(#SVGID_32_)" d="m21.9138,153.08259c0.2236,0.3438 0.0757,0.625 -0.3291,0.625l-11.6787,0c-0.4048,0 -0.5523,-0.2813 -0.3291,-0.625l5.7622,-8.875c0.2236,-0.3427 0.5889,-0.3427 0.8125,0l5.7622,8.875z" id="svg_43"/>
  <metadata id="svg_170">image/svg+xml</metadata>
  <metadata>image/svg+xmlOpenclipartalbert2012-08-18T07:40:09ready for schoolhttp://openclipart.org/detail/171795/albert-by-sammo241-171795sammo241boycartoonsclip artclipartkidsschool</metadata>
  <defs>
   <clipPath clipPathUnits="userSpaceOnUse" id="svg_313">
    <path d="m47.8209,751.73786l595.28,0l0,-841.89l-595.28,0l0,841.89z" id="svg_390"/>
   </clipPath>
   <clipPath clipPathUnits="userSpaceOnUse" id="svg_294">
    <path d="m47.8209,751.73786l595.28,0l0,-841.89l-595.28,0l0,841.89z" id="svg_385"/>
   </clipPath>
  </defs>
  <metadata>image/svg+xmlOpenclipartparty girl2012-08-16T08:45:00having funhttps://openclipart.org/detail/171761/party-girl-by-sammo241-171761sammo241cartoongirlparty</metadata>
  <path fill="#339933" d="m123.92439,154.95643" id="svg_6"/>
  <path fill="#339933" d="m123.92439,154.95643" id="svg_7"/>
  <path id="svg_500" d="m109.80811,157.52304c1.3838,-0.67125 2.78578,-1.30598 4.19108,-1.93577c0.53261,0.7095 0.89931,1.56522 1.61442,2.12346c-1.19627,0.77592 -2.57172,1.22124 -3.80116,1.9407l-0.11446,0.07316c0.01497,0.64469 0.26711,1.25616 0.31696,1.90246c-0.69351,-0.70447 -1.47334,-1.30266 -2.26151,-1.88917c-0.04321,-0.73939 0.08783,-1.47716 0.05467,-2.21484l0,0z" stroke-width="0.5" stroke="#E6E7E6" fill="#E6E7E6"/>
  <path id="svg_501" d="m99.3966,156.649l0.14109,0.01993c0.3252,0.05816 0.6504,0.12297 0.98062,0.18446c0.27374,0.04982 0.54919,0.10306 0.82957,0.1578c0.20571,0.05485 0.41815,0.10306 0.61391,0.20601c0.36007,1.21963 -0.0216,2.52229 0.17758,3.77513c0.01326,0.24756 0.0415,0.49845 0.07306,0.75267c-1.09006,0.00503 -2.0574,-0.65465 -3.13751,-0.62476c0.39655,-0.32396 0.27214,-0.87404 0.29867,-1.32098c0.01809,-1.05005 -0.1429,-2.10685 0.02301,-3.15026l0,0z" stroke-width="0.5" stroke="#E7E7E6" fill="#E7E7E6"/>
  <path id="svg_502" d="m102.22891,160.24791c0.2655,0.46192 0.22731,1.02016 0.31524,1.53533c-0.083,-0.00997 -0.24892,-0.02828 -0.33183,-0.03825c-0.03155,-0.25421 -0.05979,-0.5051 -0.07305,-0.75267c0.01497,-0.25421 0.04482,-0.50178 0.08964,-0.74441z" stroke-width="0.5" stroke="#B64C45" fill="#B64C45"/>
  <path id="svg_504" d="m96.36693,161.99095c0.42147,-0.20268 0.84284,-0.44361 1.31244,-0.51174c0.96233,0.3473 1.91973,0.75106 2.71614,1.41064c-0.58236,-0.03985 -1.13488,0.15126 -1.53805,0.57655c-0.92916,-0.4735 -1.92304,-0.80248 -2.84055,-1.29269c0.08793,-0.04649 0.26209,-0.13787 0.35002,-0.18276l0,0z" stroke-width="0.5" stroke="#BEBDBC" fill="#BEBDBC"/>
  <path id="svg_505" d="m95.17236,162.76858c0.25385,-0.23599 0.5293,-0.44864 0.84455,-0.59487c0.9175,0.49011 1.91138,0.81919 2.84054,1.29269c-0.05969,0.20933 -0.11777,0.42208 -0.17254,0.63976c-0.25887,0.19111 -0.51433,0.38715 -0.79812,0.53831c-0.84615,-0.70779 -1.70899,-1.40239 -2.71443,-1.87589z" stroke-width="0.5" stroke="#E8E8E5" fill="#E8E8E5"/>
  <path id="svg_503" d="m97.67937,161.47921c0.44961,-0.16947 0.91419,-0.31238 1.39535,-0.35887c1.0801,-0.02989 2.04745,0.62969 3.1375,0.62476c0.08301,0.00996 0.24893,0.02827 0.33183,0.03824c0.25053,0.75267 0.44137,1.52536 0.74004,2.26475c0.37664,1.00859 0.9988,1.90256 1.39535,2.90109c-0.35836,0.46353 -1.03368,0.5051 -1.52981,0.77098c-1.4667,0.68293 -3.08113,1.03677 -4.70048,0.93382c-0.31696,-1.18642 -0.72013,-2.42255 -1.64427,-3.2816c-0.6919,-0.80923 -1.65251,-1.26944 -2.59494,-1.71144c0.16762,-0.16455 0.33846,-0.32396 0.50608,-0.48518c0.14602,-0.1429 0.30028,-0.27746 0.45624,-0.40708c1.00544,0.4735 1.86827,1.1681 2.71443,1.87589c0.28369,-0.15116 0.53925,-0.3473 0.79812,-0.53831c0.09124,0.49181 0.29364,1.0418 0.81299,1.22295c0.79812,0.33734 1.82345,-0.31077 1.74717,-1.20635c0.02322,-0.56498 -0.4297,-0.9471 -0.84947,-1.23291c-0.79641,-0.65968 -1.75381,-1.06344 -2.71613,-1.41074l0,0z" stroke-width="0.5" stroke="#EC6E3F" fill="#EC6E3F"/>
  <path id="svg_506" d="m98.85735,163.4664c0.40318,-0.42539 0.9557,-0.6164 1.53805,-0.57655c0.41977,0.28581 0.87279,0.66793 0.84947,1.23291c0.07638,0.89558 -0.94905,1.54359 -1.74717,1.20635c-0.51935,-0.18115 -0.72175,-0.73114 -0.81299,-1.22295c0.05487,-0.21768 0.11295,-0.43033 0.17264,-0.63976z" stroke-width="0.5" stroke="#FDFDFA" fill="#FDFDFA"/>
  <path id="svg_507" d="m96.80498,165.37228c-0.6919,-0.80922 -1.65251,-1.26944 -2.59494,-1.71144c-0.06472,0.04981 -0.19747,0.14783 -0.26379,0.19604c-0.20883,0.15166 -0.40348,0.54425 -0.55463,0.76716c-0.19264,0.2841 -0.37494,0.57545 -0.54085,0.87605c-0.17295,0.31349 -0.32972,0.63714 -0.44891,0.97518c-0.08753,0.24808 -0.30901,0.74352 -0.16983,0.99944c0.00874,-0.05928 0.01749,-0.11845 0.02623,-0.17773c2.00565,0.65153 4.05038,1.41316 6.19109,1.3569c-0.31705,-1.18632 -0.72023,-2.42255 -1.64437,-3.2816l0,0z" stroke-width="0.5" stroke="#D2D3D4" fill="#D2D3D4"/>
  <path id="svg_508" d="m108.7262,169.10625c0.45021,-0.34106 0.91429,-0.62819 1.31516,-1.03426c0.40087,-0.40597 0.73551,-0.88088 1.02212,-1.3733c0.143,-0.24566 0.49704,-0.71674 0.3872,-0.99581c-0.74335,-0.6945 -1.548,-1.36254 -2.53525,-1.66656c-1.02372,-0.40044 -2.14533,-0.38052 -3.21548,-0.23761c-0.16431,0.09309 -0.40982,0.11966 -0.48448,0.3157c0.52598,1.16146 1.36048,2.15174 2.15367,3.14201c0.46127,0.60483 1.13326,1.0252 1.52479,1.68649c-0.04925,0.06099 -0.10542,0.11614 -0.16773,0.16333l0,0.00001z" stroke-width="0.5" stroke="#D1D2D2" fill="#D1D2D2"/>
  <path id="svg_496" d="m108.37287,151.35022c1.1614,-0.48185 2.27306,-1.08337 3.45777,-1.5153c0.43142,2.01215 1.15145,3.9612 2.16855,5.75235c-1.4053,0.62969 -2.80738,1.26441 -4.19108,1.93577c-1.183,-1.71809 -1.91801,-3.77845 -1.99931,-5.86708c0.18581,-0.10467 0.37323,-0.20772 0.56407,-0.30574z" stroke-width="0.5" stroke="#FAB418" fill="#FAB418"/>
  <path id="svg_498" d="m107.36904,167.25652c-0.79309,-0.99027 -1.62769,-1.98065 -2.15367,-3.14201c0.07466,-0.19604 0.32017,-0.22261 0.48447,-0.3157c-0.23887,0 -0.56577,0.11634 -0.67863,-0.1745c-1.05025,-1.88586 -0.94242,-4.10744 -1.11497,-6.18933c-0.22229,-1.40239 -0.39494,-2.85459 -1.0187,-4.14567c-0.58568,0.29577 -1.53313,0.53509 -1.4866,1.35921c-0.06803,0.81255 0.30359,1.56019 0.46287,2.33953c-0.12943,0.00503 -0.38659,0.0166 -0.51603,0.02325c0.20571,0.05484 0.41815,0.10305 0.61391,0.206c0.36007,1.21963 -0.0216,2.52229 0.17758,3.77513c0.01497,-0.25421 0.04482,-0.50178 0.08964,-0.74442c0.2655,0.46193 0.22731,1.02016 0.31524,1.53533c0.25053,0.75267 0.44137,1.52537 0.74004,2.26475c0.37665,1.00859 0.9988,1.90256 1.39535,2.90109c-0.35836,0.46354 -1.03368,0.5051 -1.52981,0.77098c-1.4667,0.68293 -3.08113,1.03677 -4.70048,0.93382c-1.08271,0.02848 -2.15729,-0.15599 -3.20182,-0.42882c-0.51603,-0.13475 -1.02623,-0.29124 -1.53393,-0.45448c-0.43724,-0.14059 -1.00382,-0.44763 -1.45645,-0.46021c0.00804,0.44391 0.07758,0.89587 0.11818,1.33868c0.00644,0.06994 0.01327,0.1417 0.04452,0.2047c0.1008,0.20319 0.46458,0.33281 0.6519,0.45337c0.29756,0.19151 0.69974,0.51295 1.04061,0.60624c2.2399,0.61319 4.58933,0.663 6.88068,0.34227c0.65873,-0.19936 1.3241,-0.37387 1.996,-0.52674c0.92253,-0.40547 1.86164,-0.84244 2.87541,-0.9471c0.68687,-0.0798 1.16643,0.57323 1.82345,0.65465c0.2641,0.00302 0.54046,-0.04841 0.78194,-0.16525c0.00422,-0.00312 0.00814,-0.00664 0.01226,-0.00966c0.06653,-0.04861 0.13366,-0.08755 0.20159,-0.12026c0.07698,-0.05736 0.14873,-0.12197 0.21034,-0.19826c-0.39163,-0.66139 -1.06363,-1.08175 -1.52489,-1.68658l0,-0.00001z" stroke-width="0.5" stroke="#BDBEBD" fill="#BDBEBD"/>
  <path id="svg_499" d="m105.76296,154.07187c0.94905,-0.31902 1.99931,0.75438 1.54639,1.68981c-0.3053,0.96873 -1.80517,1.08004 -2.2598,0.18275c-0.43312,-0.68947 -0.02663,-1.61503 0.71341,-1.87256z" stroke-width="0.5" stroke="#FEFCFA" fill="#FEFCFA"/>
  <path id="svg_467" d="m93.72225,9.42991c2.74598,1.77958 5.77404,3.08223 8.88501,4.07251c3.64359,1.17635 7.41159,1.93577 11.20451,2.42919c3.18895,0.48357 6.45589,0.36723 9.59681,1.17807c3.09931,0.7577 6.13069,2.2564 8.20136,4.74708c2.00263,2.34446 2.9733,5.43173 3.08776,8.48397c2.03418,1.20302 3.67846,3.02407 4.68057,5.16755c1.56127,3.15369 1.7919,6.80915 1.22944,10.2403c-0.3667,2.3511 -1.04694,4.6391 -1.80687,6.88895c-0.38157,1.03516 -0.68356,2.10021 -1.11829,3.11545c-5.93162,-6.13126 -10.92915,-13.16302 -14.94105,-20.69334c-0.4696,-0.78599 -0.77983,-1.65831 -1.28259,-2.41924c-2.61494,1.04009 -5.26957,2.00058 -8.0056,2.67677c-3.83935,1.0102 -7.79487,1.51369 -11.7537,1.72805c-4.41015,0.12127 -8.85507,0.05153 -13.20382,-0.76928c-0.73009,-0.11301 -1.43856,-0.36722 -2.17689,-0.40215c-0.93911,0.73778 -1.59453,1.76962 -2.23165,2.76483c-2.03419,3.37961 -2.69453,7.33921 -3.34332,11.16908c-0.48618,-0.63472 -0.74666,-1.39907 -1.03699,-2.13181c-1.27264,-3.5192 -1.02543,-7.43391 0.15094,-10.94315c0.27546,-0.97035 0.78486,-1.86593 1.06523,-2.82631c-2.61152,-1.27277 -5.00738,-3.02578 -6.86741,-5.2705c-2.15036,-2.59535 -3.69172,-5.8537 -3.71986,-9.27156c3.24875,2.03208 6.83586,3.61893 10.64707,4.18552c-0.79802,-0.75599 -1.67744,-1.43731 -2.35436,-2.31457c-1.27265,-1.56683 -2.29467,-3.40125 -2.7095,-5.39016c0.97559,0.54003 1.84998,1.24781 2.83059,1.78622c3.7066,2.19995 7.79487,3.76678 12.02916,4.56765c-0.76325,-0.78256 -1.64759,-1.44888 -2.32452,-2.31628c-2.09056,-2.52057 -3.4644,-5.69257 -3.64519,-8.9792c0.75661,0.49685 1.38208,1.17142 2.13036,1.68488c3.58389,2.68179 7.73849,4.67563 12.1403,5.53135c-2.16031,-2.62846 -4.26253,-5.42991 -5.3575,-8.68987l0,0z" stroke-width="0.5" stroke="#7F4E13" fill="#7F4E13"/>
  <path id="svg_468" d="m113.45331,35.31727c2.73603,-0.67629 5.39076,-1.63667 8.0056,-2.67676c0.50276,0.76102 0.81299,1.63335 1.28259,2.41923c4.0119,7.53022 9.00943,14.56208 14.94105,20.69334c0.43473,-1.01523 0.73672,-2.08028 1.11829,-3.11544c0.51272,0.10627 1.0387,0.09973 1.55966,0.15951c0.78806,0.18114 1.56799,0.63301 1.93459,1.38578c0.74335,1.21792 0.37826,2.81967 -0.47955,3.87979c-0.79802,0.93542 -2.06564,1.36917 -3.27528,1.26612c-0.72838,0.02164 -1.37214,-0.36391 -2.07398,-0.47682c-1.14814,2.3677 -2.53022,4.62088 -4.00697,6.79748c-2.23497,3.08555 -4.74861,6.02317 -7.843,8.27303c-1.81511,1.37078 -3.8095,2.51061 -5.91665,3.36633c-2.28964,0.90393 -4.71705,1.43399 -7.16437,1.66485c-0.16089,0.50681 -0.19244,1.04512 -0.17757,1.57518c0.87439,0.19112 1.79521,-0.08805 2.65473,0.16284c-0.89268,0.00161 -1.79029,-0.10306 -2.67794,0.01489c-0.23235,0.69289 0.11777,1.62832 -0.55423,2.12014c-1.81681,1.53361 -4.79011,1.25112 -6.32816,-0.54164c-0.39494,-0.44693 -0.17586,-1.06012 -0.17918,-1.58685c-0.80807,-0.08806 -1.62106,-0.00665 -2.42902,-0.00997c0.80143,-0.2526 1.66748,0.04318 2.48379,-0.16786c0.11285,-0.54002 0.22229,-1.08166 0.28369,-1.62832c-0.09788,-0.30906 -0.48619,-0.28249 -0.73501,-0.35726c-5.59808,-1.02188 -10.7764,-3.93957 -14.74197,-8.00051c-4.11811,-4.24701 -7.03001,-9.64714 -8.33742,-15.41942c-0.11778,-0.41543 -0.23064,-1.00527 -0.76154,-1.03516c-1.42862,-0.16454 -2.89863,-0.53338 -4.02355,-1.47545c-0.83621,-0.70617 -1.41867,-1.83935 -1.14482,-2.94597c0.20239,-0.648 0.54588,-1.28937 1.11326,-1.68648c0.8147,-0.62305 1.94294,-0.66462 2.89531,-0.37549c0.27877,0.09138 0.56417,0.1097 0.83128,0.07971c0.29033,0.73274 0.55081,1.49709 1.037,2.13181c0.64868,-3.82997 1.30912,-7.78947 3.34331,-11.16908c0.63713,-0.99531 1.29254,-2.02715 2.23165,-2.76483c0.73833,0.03493 1.44681,0.28914 2.17689,0.40215c4.34875,0.82081 8.79367,0.89065 13.20382,0.76928c3.95883,-0.21446 7.91435,-0.71795 11.7537,-1.72815m-4.23761,9.85817c-1.41524,0.73778 -2.34943,2.23144 -2.50037,3.81166c0.59402,-0.32235 1.06191,-0.83912 1.68909,-1.10994c1.99268,-1.03516 4.5014,-0.91057 6.40444,0.27082c0.56246,0.3157 0.98062,0.82251 1.50821,1.18471c-0.00835,-1.3093 -0.58739,-2.59374 -1.548,-3.47935c-1.46007,-1.37079 -3.8079,-1.66656 -5.55337,-0.6779m-16.98176,4.27691c1.76044,-1.74295 4.51466,-2.35281 6.83917,-1.49045c1.03699,0.33231 1.86988,1.04673 2.69121,1.73137c0.08301,-2.56878 -2.33446,-4.8451 -4.87804,-4.70059c-2.38431,-0.01167 -4.61255,2.04698 -4.65234,4.45967m18.83848,-1.21792c-1.23275,0.20933 -1.72387,1.95398 -0.76657,2.76482c0.84123,0.88229 2.51696,0.34227 2.6879,-0.86397c0.27535,-1.09665 -0.84123,-2.18505 -1.92133,-1.90085m-14.78679,0.48175c-1.02865,0.36552 -1.35887,1.83936 -0.57573,2.60541c0.7948,0.9621 2.55846,0.47522 2.76427,-0.75599c0.31354,-1.20634 -1.04704,-2.36941 -2.18854,-1.84942m6.46423,4.97151c0.40318,0.64468 1.00383,1.1365 1.49323,1.71638c0.41976,0.39882 0.72677,0.96541 1.2626,1.22124c0.29032,-1.6084 0.56417,-3.22182 0.78646,-4.83857c-1.21275,0.57173 -2.34933,1.29108 -3.54229,1.90095m11.4484,6.1378c-4.01028,0.55995 -8.01725,1.20463 -12.05568,1.53533c-2.53193,0.31238 -5.08376,0.29406 -7.62563,0.45196c-0.64879,-0.27917 -1.41867,-0.11634 -2.11378,-0.17118c0.28208,0.65968 0.76154,1.20634 1.17969,1.78451c1.15979,1.4838 2.49877,2.84955 4.06174,3.91138c2.61494,1.82769 5.84369,2.77982 9.03093,2.61528c2.69955,-0.1412 5.23309,-1.49377 7.06488,-3.44775c1.94455,-1.96566 3.08274,-4.58758 3.68007,-7.25609c-1.07849,0.13627 -2.18181,0.26921 -3.22222,0.57656l0,0z" stroke-width="0.5" stroke="#FCCFAE" fill="#FCCFAE"/>
  <path id="svg_469" d="m109.2157,45.17545c1.74547,-0.98867 4.0932,-0.6929 5.55327,0.67789c0.96071,0.88561 1.53976,2.17005 1.548,3.47935c-0.52759,-0.36219 -0.94575,-0.86901 -1.50821,-1.18471c-1.90304,-1.18138 -4.41176,-1.30597 -6.40444,-0.27081c-0.62718,0.27081 -1.09507,0.78759 -1.68909,1.10993c0.15114,-1.58021 1.08523,-3.07398 2.50047,-3.81166l0,0l0,0.00001z" stroke-width="0.5" stroke="#7F4E13" fill="#7F4E13"/>
  <path id="svg_470" d="m92.23394,49.45235c0.0398,-2.41259 2.26813,-4.47134 4.65234,-4.45966c2.54359,-0.14452 4.96095,2.13181 4.87805,4.70059c-0.82134,-0.68454 -1.65423,-1.39907 -2.69121,-1.73138c-2.32452,-0.86236 -5.07884,-0.2526 -6.83918,1.49045l0,0z" stroke-width="0.5" stroke="#7E4E12" fill="#7E4E12"/>
  <path id="svg_471" d="m111.07242,48.23443c1.0801,-0.2841 2.19678,0.8042 1.92133,1.90085c-0.17094,1.20634 -1.84666,1.74636 -2.68789,0.86397c-0.9574,-0.81084 -0.46629,-2.55549 0.76656,-2.76482l0,0z" stroke-width="0.5" stroke="#7F4E13" fill="#7F4E13"/>
  <path id="svg_472" d="m96.28563,48.71618c1.1415,-0.52009 2.50208,0.64308 2.18844,1.84932c-0.20571,1.23121 -1.96947,1.71809 -2.76427,0.75599c-0.78304,-0.76585 -0.45282,-2.23969 0.57583,-2.60531z" stroke-width="0.5" stroke="#7F4E13" fill="#7F4E13"/>
  <path id="svg_473" d="m102.74986,53.68769c1.19296,-0.60976 2.32954,-1.32922 3.54239,-1.90085c-0.22229,1.61675 -0.49613,3.23007 -0.78646,4.83857c-0.53593,-0.25592 -0.84284,-0.82252 -1.2626,-1.22124c-0.4895,-0.57998 -1.09015,-1.07179 -1.49333,-1.71648z" stroke-width="0.5" stroke="#7E4E13" fill="#7E4E13"/>
  <path id="svg_475" d="m114.19826,59.82549c1.04031,-0.30735 2.14363,-0.44029 3.22212,-0.57656c-0.59733,2.66852 -1.73552,5.29043 -3.68006,7.25609c-1.8318,1.95398 -4.36533,3.30655 -7.06489,3.44775c-3.18734,0.16454 -6.41609,-0.78759 -9.03093,-2.61527c-1.56297,-1.06173 -2.90195,-2.42759 -4.06174,-3.91139c-0.41815,-0.57827 -0.8976,-1.12493 -1.17969,-1.78451c0.69521,0.05485 1.46509,-0.10799 2.11378,0.17118c1.05025,1.17807 2.5054,1.93406 4.03018,2.29132c3.56068,0.81588 7.36013,0.58823 10.78806,-0.68292c1.88164,-0.741 3.90748,-1.69645 4.86317,-3.59569l0,0z" stroke-width="0.5" stroke="#E73A58" fill="#E73A58"/>
  <path id="svg_476" d="m102.14258,61.36082c4.03843,-0.3307 8.0454,-0.97538 12.05568,-1.53533c-0.95569,1.89923 -2.98153,2.85459 -4.86307,3.59568c-3.42793,1.27116 -7.22748,1.4987 -10.78806,0.68293c-1.52478,-0.35726 -2.97993,-1.11325 -4.03018,-2.29132c2.54188,-0.1578 5.0937,-0.13958 7.62563,-0.45196l0,0z" stroke-width="0.5" stroke="#FEFEFE" fill="#FEFEFE"/>
  <path stroke="#EC6E3E" transform="rotate(102.0286636352539 82.9120178222656,96.27210235595705) " id="svg_478" d="m73.699208,88.719431c0.227467,-0.064282 0.456259,-0.161551 0.715257,-0.148195c1.982629,2.698515 4.768069,5.190824 8.423618,7.027951c4.399519,2.231654 10.015786,3.452857 15.594962,3.313579c-0.950859,1.610373 -0.920733,3.363592 -0.882391,5.061445c-5.676519,-0.03125 -11.370793,-1.006019 -16.245826,-2.919921c-6.151945,-2.365575 -10.895368,-6.097792 -13.913828,-10.282597c0.052029,-0.091051 0.14796,-0.174042 0.272693,-0.224973c0.606962,-0.043738 1.109859,-0.304397 1.664703,-0.452592c1.449688,-0.468593 2.923941,-0.901558 4.370812,-1.374698l0,0z" stroke-width="0.5" fill="#EC6E3E"/>
  <path stroke="#EC6E3E" id="svg_479" d="m90.62283,82.42139c3.62701,-1.13983 7.43651,-1.56683 11.22109,-1.73309c0.80806,0.00333 1.62105,-0.07809 2.42902,0.00997c0.00332,0.52674 -0.21566,1.13982 0.17918,1.58685c1.53805,1.79287 4.51135,2.07536 6.32817,0.54164c0.67199,-0.49182 0.32187,-1.42725 0.55422,-2.12014c0.88765,-0.11795 1.78526,-0.01328 2.67794,-0.01489c3.78458,0.15126 7.59408,0.59487 11.22109,1.72966c-0.31525,0.55492 -0.77983,1.00356 -1.19135,1.48713c-3.14414,-1.16147 -6.36133,-2.21323 -9.69298,-2.65352c0.03155,1.54529 0.39654,3.06392 0.48618,4.6076c0.26711,2.31789 0.36168,4.65077 0.49111,6.98034c0.17094,2.26475 0.06804,4.53947 0.09457,6.81076c0.05477,2.27633 -0.21566,4.54279 -0.28701,6.81579c-0.39826,5.16413 -1.03368,10.34164 -2.43737,15.33972c-0.29866,1.10661 -0.74335,2.16502 -1.05357,3.27002c-2.59001,-0.00996 -5.18003,0 -7.76833,-0.00332c-1.25929,-3.22846 -2.05409,-6.61643 -2.57836,-10.0359c-1.32571,-8.4109 -1.49826,-16.96974 -1.00885,-25.45874c0.18249,-1.75955 0.23726,-3.53249 0.50106,-5.28379c0.10622,-0.95374 0.27374,-1.90417 0.27545,-2.86455c-3.12595,0.49685 -6.15894,1.47877 -9.08902,2.65854c-0.4679,-0.54354 -0.96735,-1.06696 -1.35224,-1.67008m16.45257,2.67676c-1.52981,0.46686 -2.28964,2.44248 -1.46339,3.8183c0.63542,1.23624 2.30462,1.69977 3.52079,1.07008c1.24933,-0.58158 1.80687,-2.24311 1.20793,-3.47431c-0.51603,-1.22134 -2.02263,-1.86774 -3.26533,-1.41407m0.16752,7.49702c-1.06684,0.29577 -1.91641,1.27276 -1.9562,2.39769c-0.1427,1.39072 1.00051,2.72668 2.38591,2.82802c1.49323,0.18608 2.98485,-1.13318 2.90024,-2.65683c0.09135,-1.69152 -1.73211,-3.03574 -3.32995,-2.56888m-0.01326,8.27132c-0.96896,0.2526 -1.7505,1.11496 -1.91139,2.10524c-0.27706,1.36917 0.70014,2.80145 2.0574,3.07891c1.5679,0.36884 3.26031,-0.95042 3.19891,-2.58045c0.10793,-1.7031 -1.72879,-3.10881 -3.34492,-2.6037m0.18088,7.512c-1.19134,0.21597 -2.15035,1.34754 -2.13035,2.56878c-0.06804,1.40571 1.15647,2.68844 2.55846,2.70504c1.53141,0.11302 2.91521,-1.34754 2.72608,-2.87119c-0.05316,-1.54197 -1.65925,-2.7449 -3.15418,-2.40263l-0.00001,0z" stroke-width="0.5" fill="#EC6E3E"/>
  <path id="svg_481" d="m91.97507,84.09127c2.93018,-1.17967 5.96317,-2.1617 9.08902,-2.65855c-0.00171,0.96039 -0.16923,1.91081 -0.27545,2.86456c-0.2638,1.7513 -0.31857,3.52423 -0.50106,5.28378c-0.48941,8.489 -0.31686,17.04774 1.00885,25.45875c0.52427,3.41947 1.31907,6.80744 2.57836,10.0359c-3.49255,0.06974 -6.9869,0 -10.47774,0.03653c-0.49111,0.00835 -0.98222,0.04156 -1.46841,-0.02164c-0.28208,-0.00171 -0.29866,-0.31902 -0.3667,-0.51174c-1.01378,-3.5508 -1.89319,-7.13814 -2.68789,-10.74379c-1.1399,-5.39509 -2.08725,-10.84674 -2.37104,-16.36159c-0.04643,-3.16033 -0.08301,-6.42371 1.06854,-9.4212c0.44469,-1.2146 1.22281,-2.36771 2.37928,-2.99911c0.65874,-0.35213 1.34732,-0.64459 2.02424,-0.9619l0,0z" stroke-width="0.5" stroke="#FAB421" fill="#FAB421"/>
  <path id="svg_482" d="m107.0754,85.09815c1.2427,-0.45367 2.74929,0.19272 3.26533,1.41396c0.59894,1.23121 0.0415,2.89284 -1.20793,3.47432c-1.21617,0.62979 -2.88537,0.16615 -3.52079,-1.07008c-0.82625,-1.37572 -0.06642,-3.35134 1.46339,-3.8182m0.9374,0.80088c-0.15757,0.29074 -0.09296,0.63311 -0.10622,0.95213c0.02321,0.81748 -0.01497,1.63667 0.01326,2.45586c1.07347,0.03986 1.97611,-1.14646 1.62769,-2.17166c-0.19073,-0.69802 -0.85278,-1.12996 -1.53473,-1.23633z" stroke-width="0.5" stroke="#FDFCFA" fill="#FDFCFA"/>
  <path id="svg_483" d="m108.0128,85.89903c0.68195,0.10637 1.3439,0.53831 1.53473,1.23623c0.34841,1.0252 -0.55412,2.21152 -1.62769,2.17166c-0.02824,-0.81919 0.00995,-1.63828 -0.01326,-2.45586c0.01336,-0.31902 -0.05135,-0.66129 0.10622,-0.95203l0,0z" stroke-width="0.5" stroke="#EC6D41" fill="#EC6D41"/>
  <path stroke="#EC6E3E" transform="rotate(15.47520637512207 135.80996704101554,95.65261840820315) " id="svg_484" d="m119.834649,85.538076c4.563701,0.452995 9.029709,1.018683 13.345758,1.679151c4.516136,0.697774 8.904753,1.534058 12.528048,2.665391c2.583103,0.818516 4.711219,1.827429 5.593901,2.974955c0.907685,1.12809 0.507692,2.350125 -0.96265,3.410133c-4.293653,3.074646 -8.832199,6.114444 -13.670937,9.103982c-0.267621,0.126438 -0.360024,0.319289 -0.787733,0.395467c-0.477535,-0.036472 -0.915251,-0.111031 -1.332817,-0.188828c-3.503343,-0.65561 -7.121801,-1.243973 -10.662701,-1.87848c-0.475123,-0.098067 -1.117749,-0.138563 -1.455347,-0.286056c0.400144,-0.418981 1.195291,-0.787696 1.787941,-1.180759c3.92849,-2.461151 7.644474,-4.957983 11.202797,-7.477495c0.272625,-0.232606 0.862697,-0.460306 0.762744,-0.71721c-0.945243,-0.568878 -2.668211,-0.945744 -4.26351,-1.307977c-3.170749,-0.651538 -6.559128,-1.205053 -10.097467,-1.613479c0.197645,-1.868808 0.465131,-3.835639 -1.988012,-5.578794l-0.000015,0z" stroke-width="0.5" fill="#EC6E3E"/>
  <path id="svg_485" d="m107.24292,92.59516c1.59784,-0.46696 3.42129,0.87726 3.32995,2.56878c0.08461,1.52366 -1.40701,2.84292 -2.90024,2.65684c-1.3854,-0.10134 -2.52861,-1.43731 -2.38591,-2.82802c0.03989,-1.12483 0.88936,-2.10182 1.9562,-2.3976m0.66868,0.93875c0.00171,1.08669 0,2.17498 0,3.26338c0.89932,0.13123 1.7521,-0.73938 1.67412,-1.63496c0.06804,-0.89558 -0.77812,-1.7364 -1.67412,-1.62842z" stroke-width="0.5" stroke="#FDFCFA" fill="#FDFCFA"/>
  <path id="svg_486" d="m107.9116,93.53391c0.896,-0.10798 1.74216,0.73275 1.67412,1.62832c0.07798,0.89558 -0.7749,1.7663 -1.67412,1.63496c0,-1.08819 0.00171,-2.17659 0,-3.26328l0,0z" stroke-width="0.5" stroke="#EC6D3F" fill="#EC6D3F"/>
  <path id="svg_487" d="m107.22965,100.86648c1.61604,-0.5051 3.45275,0.90061 3.34492,2.6037c0.06141,1.63003 -1.631,2.94929 -3.1989,2.58046c-1.35726,-0.27746 -2.33446,-1.70974 -2.0574,-3.07892c0.16099,-0.99027 0.94243,-1.85264 1.91138,-2.10524m0.68195,0.9787c-0.00331,1.08498 0.00332,2.17006 0.00332,3.25674c1.09839,0.05314 1.98102,-1.13982 1.62598,-2.17669c-0.22229,-0.63805 -0.92243,-1.28112 -1.6293,-1.08005l0,0z" stroke-width="0.5" stroke="#FDFCFA" fill="#FDFCFA"/>
  <path id="svg_488" d="m107.9116,101.84519c0.70687,-0.20108 1.40701,0.442 1.6293,1.08004c0.35504,1.03687 -0.52759,2.22983 -1.62598,2.17669c0,-1.08668 -0.00663,-2.17176 -0.00332,-3.25673l0,0z" stroke-width="0.5" stroke="#EC6D3F" fill="#EC6D3F"/>
  <path id="svg_489" d="m107.41054,108.37849c1.49494,-0.34227 3.10103,0.86065 3.15409,2.40262c0.18912,1.52366 -1.19467,2.98422 -2.72609,2.8712c-1.40198,-0.0166 -2.62649,-1.29933 -2.55846,-2.70504c-0.01979,-1.22124 0.93911,-2.35281 2.13046,-2.56878m0.50609,0.94549c0.00492,1.07672 -0.02653,2.15838 0.01155,3.23671l0.09296,0.11634c0.92253,-0.03653 1.7106,-0.93211 1.58287,-1.85435c-0.07969,-0.83409 -0.84957,-1.52537 -1.68738,-1.4987l0,0z" stroke-width="0.5" stroke="#FDFCFA" fill="#FDFCFA"/>
  <path id="svg_490" d="m107.91663,109.32398c0.83791,-0.02657 1.60779,0.66461 1.68738,1.4987c0.12773,0.92214 -0.66034,1.81782 -1.58287,1.85435l-0.09296,-0.11634c-0.03808,-1.07833 -0.00663,-2.16008 -0.01155,-3.23671l0,0z" stroke-width="0.5" stroke="#EB6E3F" fill="#EB6E3F"/>
  <path id="svg_492" d="m93.39705,125.11224c3.49094,-0.03653 6.98519,0.03321 10.47774,-0.03653c2.5884,0.00332 5.17832,-0.00665 7.76833,0.00332c3.45446,0.08302 6.91053,-0.03986 10.36328,0.0631c-0.58407,1.01191 -1.5679,1.69313 -2.53525,2.29957l-0.06472,0.12459c1.5679,5.23568 3.21217,10.44962 4.79675,15.68198c0.13768,0.49011 0.3667,0.94872 0.59231,1.40732c0.97066,2.0504 0.89931,4.5444 -0.15104,6.55323c-1.11166,2.1451 -3.12263,3.65547 -5.24475,4.70724c-1.26602,0.58983 -2.53525,1.17635 -3.78629,1.79447c-0.71511,-0.55834 -1.08181,-1.41396 -1.61442,-2.12346c-1.0171,-1.79115 -1.73713,-3.7402 -2.16855,-5.75235c1.29918,-0.56992 2.57343,-1.19639 3.86095,-1.79287c0.30862,-0.18447 0.89098,-0.38222 0.63713,-0.84405c-1.8948,-6.20099 -3.82276,-12.39535 -5.70269,-18.60138c-0.07628,-0.25924 -0.40981,-0.21104 -0.61221,-0.24757c-0.54085,-0.02989 -1.08844,-0.02164 -1.61774,0.08977l-0.02321,0.14623c-0.10954,1.64995 -0.0199,3.30816 -0.04814,4.96144c0,5.15084 0,10.30179 0,15.45263c-0.00834,0.78427 -0.00663,1.56854 0.04814,2.3511c-0.19084,0.09802 -0.37826,0.20107 -0.56417,0.30574c-0.51604,-0.08977 -1.07016,-0.18276 -1.548,0.08806c-1.11668,0.53338 -2.22663,1.08004 -3.37316,1.54529c-0.58568,0.29577 -1.53313,0.53509 -1.4866,1.35921c-0.06803,0.81255 0.30359,1.56019 0.46287,2.33953c-0.12943,0.00503 -0.3866,0.0166 -0.51603,0.02325c-0.28038,-0.05485 -0.55583,-0.10799 -0.82957,-0.1578c0.08632,-0.01993 0.25887,-0.05978 0.3468,-0.08142c-0.34349,-0.18276 -0.73672,-0.22764 -1.09508,-0.3622c-0.13275,-0.69118 -0.05808,-1.39735 -0.0614,-2.09356c-0.00171,-7.9207 -0.00331,-15.8415 0,-23.76058c-0.0199,-0.68454 0.09959,-1.39404 -0.13436,-2.0504c-0.47624,-0.26417 -1.04533,-0.24586 -1.55795,-0.39379c-1.83159,-0.3937 -3.59866,-1.38569 -4.61897,-2.99911l0,0z" stroke-width="0.5" stroke="#E63C1B" fill="#E63C1B"/>
  <path id="svg_494" d="m108.39608,128.43872c0.5293,-0.11131 1.07689,-0.11966 1.61774,-0.08977c0.2024,0.03653 0.53593,-0.01157 0.61221,0.24757c-0.75159,-0.01328 -1.50328,-0.00493 -2.25316,-0.01157l0.02321,-0.14623z" stroke-width="0.5" stroke="#B43923" fill="#B43923"/>
  <path id="svg_495" d="m99.57417,128.50524c0.23395,0.65626 0.11447,1.36586 0.13436,2.0504c-0.00331,7.91908 -0.0017,15.83978 0,23.76058c0.00332,0.69621 -0.07135,1.40238 0.06141,2.09356c0.35835,0.13466 0.75158,0.17944 1.09507,0.3622c-0.08793,0.02164 -0.26048,0.06149 -0.3468,0.08142c-0.33022,-0.06149 -0.65542,-0.1263 -0.98061,-0.18447c-0.07306,-8.97921 -0.00503,-17.96163 -0.03317,-26.94245c-0.00492,-0.4104 -0.00321,-0.8209 0.06974,-1.22124l0,0z" stroke-width="0.5" stroke="#C63C20" fill="#C63C20"/>
  <path id="svg_497" d="m106.2607,151.74401c0.47784,-0.27081 1.03206,-0.17782 1.548,-0.08805c0.0813,2.08863 0.8163,4.14899 1.99931,5.86708c0.03317,0.73767 -0.09788,1.47545 -0.05477,2.21483c0.78807,0.58652 1.5679,1.18471 2.26151,1.88918l0.0216,0.14119c0.01327,0.55492 -0.00171,1.11326 -0.05969,1.66988c-0.8545,-0.71946 -1.53474,-1.71808 -2.59996,-2.14016c-0.18089,0.46193 -0.32018,0.9471 -0.34841,1.44556c0.94081,0.442 1.89319,0.88068 2.69452,1.56351c0.01156,0.47853 -0.1228,0.94378 -0.27213,1.39575c-0.74335,-0.6945 -1.548,-1.36254 -2.53525,-1.66657c-1.02372,-0.40043 -2.14533,-0.38051 -3.21548,-0.2376c-0.23888,0 -0.56578,0.11634 -0.67863,-0.17451c-1.05026,-1.88585 -0.94243,-4.10743 -1.11498,-6.18932c-0.22229,-1.40239 -0.39494,-2.85459 -1.0187,-4.14567c1.14643,-0.46505 2.25648,-1.01172 3.37306,-1.5451m-0.49774,2.32786c-0.74004,0.25753 -1.14653,1.18299 -0.71341,1.87256c0.45464,0.89729 1.9545,0.78588 2.2598,-0.18275c0.45292,-0.93543 -0.59733,-2.00884 -1.54639,-1.68981z" stroke-width="0.5" stroke="#EC6E3E" fill="#EC6E3E"/>
  <path id="svg_480" d="m114.34931,80.959917c3.33165,0.44029 6.54885,1.49205 9.69298,2.65351c1.25928,0.63975 2.75593,1.00527 3.67012,2.1617c0.30037,0.3622 0.59733,0.73778 0.8163,1.15975c1.62769,3.57405 1.45012,7.60671 1.31908,11.43829c-0.21566,3.78006 -0.82957,7.52026 -1.49162,11.24557c-1.01539,5.07939 -2.13368,10.14892 -3.63525,15.10875c-0.89268,0.17118 -1.81179,0.07477 -2.71442,0.11966c-3.45275,-0.10306 -6.90892,0.01992 -10.36328,-0.0631c0.31022,-1.10501 0.75491,-2.16341 1.05357,-3.27003c1.40369,-4.99797 2.03911,-10.17548 2.43737,-15.33971c0.07135,-2.27301 0.34178,-4.53947 0.28701,-6.8158c-0.02653,-2.27139 0.07627,-4.54611 -0.09457,-6.81076c-0.12943,-2.32956 -0.224,-4.66235 -0.49111,-6.98034c-0.08964,-1.54358 -0.45463,-3.0622 -0.48618,-4.6075l0,0l0,0.00001z" stroke-width="0.5" stroke="#FAB421" fill="#FAB421"/>
  <g transform="rotate(34.62786865234375 123.95083618164054,102.87739562988284) " id="svg_1">
   <path id="svg_491" d="m125.906922,94.526819c2.34943,1.30105 4.75032,2.50729 7.07483,3.85151c-0.13436,0.21265 -0.19415,0.52171 -0.448,0.62969c-0.07637,-0.03824 -0.23224,-0.11462 -0.30861,-0.15287c-2.12544,-1.19306 -4.26745,-2.35613 -6.4161,-3.5043c-0.39152,-0.16767 -0.00161,-0.58149 0.09788,-0.82403l0,0z" stroke-width="0.5" stroke="#AE3316" fill="#AE3316"/>
   <path stroke="#FDDBC2" transform="rotate(-128.82028198242188 123.95085144042969,102.87740325927736) " id="svg_474" d="m122.232502,93.819339c0.53422,-0.27584 1.18964,0.08474 1.37213,0.62979c0.88103,1.95067 1.70899,3.92629 2.59002,5.87705c0.35012,0.4254 0.83791,0.85069 1.36721,0.99531c0.79309,-0.59487 1.21617,-1.57851 2.06574,-2.10192c0.59402,-0.1728 1.09005,0.2692 1.44017,0.69289c0.25385,0.25924 0.31856,0.73445 0.07135,1.02187c-0.63884,0.79091 -1.36219,1.51037 -1.99107,2.30793c-0.25224,0.25089 -0.17758,0.6148 -0.13939,0.93211c0.21737,1.41728 0.12612,2.89112 -0.31856,4.25697c-0.11286,0.22926 0.00502,0.45529 0.0813,0.6779c-2.24653,0.9621 -4.46653,1.98719 -6.72301,2.92111c-0.87439,-0.47028 -1.76707,-0.91218 -2.55182,-1.52536c-1.01871,-0.88069 -1.95952,-1.89421 -2.49706,-3.15037c-0.43474,-0.92718 -0.5907,-2.10353 -0.03648,-3.01239c0.54588,-0.73939 1.31405,-1.28937 2.12704,-1.70148c1.56629,-0.80752 3.1989,-1.4821 4.82328,-2.15506c0.09125,-0.30242 -0.06301,-0.60151 -0.15928,-0.87897c-0.64216,-1.51541 -1.34561,-3.00414 -1.96776,-4.5278c-0.2225,-0.45045 -0.05156,-1.08678 0.44619,-1.25958l0,0z" stroke-width="0.5" fill="#FDDBC2"/>
  </g>
  <g stroke="null" transform="rotate(-134.6089324951172 73.37952423095703,113.12733459472656) " id="svg_2">
   <path stroke="#FDDBC2" id="svg_493" d="m77.390474,115.45004c-1.317798,1.119879 -2.642406,2.229656 -3.979766,3.316776c-0.928546,-0.519869 -1.853803,-1.19223 -2.423302,-2.250838c-0.231619,-0.388334 -0.274424,-0.884227 -0.486374,-1.284321c-0.49286,-0.900298 -1.019743,-1.772313 -1.517046,-2.667855c-0.233779,-0.507072 0.336887,-1.210836 0.734942,-0.790755c0.43353,0.547376 0.744912,1.216305 1.105524,1.832124c0.099674,0.162029 0.211572,0.365646 0.401235,0.326942c0.09407,-0.092701 0.153797,-0.206307 0.182173,-0.342117c-0.163992,-0.520883 -0.492834,-0.930002 -0.734547,-1.397348c-0.358947,-0.687645 -0.769114,-1.332214 -1.132508,-2.015096c-0.261129,-0.385481 0.075237,-1.073401 0.481061,-0.966691c0.200325,0.006447 0.30429,0.237991 0.416733,0.398898c0.602239,0.968579 1.134022,1.996658 1.716526,2.980013c0.137731,0.259561 0.502937,0.136342 0.573908,-0.125075c-0.165792,-0.410505 -0.414268,-0.76151 -0.634162,-1.130798c-0.492261,-0.778016 -0.911651,-1.618474 -1.380298,-2.417719c-0.122071,-0.244051 -0.335811,-0.530795 -0.195522,-0.828638c0.087134,-0.420997 0.587473,-0.561219 0.812361,-0.221564c0.309652,0.422605 0.531635,0.925435 0.821546,1.365688c0.520087,0.823297 0.916662,1.768754 1.511142,2.517037c0.152652,-0.150542 0.410124,-0.375254 0.228687,-0.630279c-0.461746,-0.809885 -0.916094,-1.625695 -1.399956,-2.417941c-0.155303,-0.294069 -0.419911,-0.659438 -0.192583,-1.003673c0.155844,-0.402781 0.644938,-0.407162 0.836868,-0.044614c0.704498,1.080139 1.261821,2.2859 1.957496,3.372538c0.197515,0.302034 0.506475,0.458145 0.802249,0.557127c0.406322,-0.419169 0.56039,-1.06245 0.878068,-1.561008c0.438216,-0.245086 1.034568,0.192172 1.054569,0.7693c-0.262626,0.661588 -0.611105,1.269262 -0.911486,1.906336c0.046112,0.367092 0.176205,0.709773 0.237022,1.073961c0.120327,0.552269 0.087213,1.135576 0.235438,1.67959l0,0z" stroke-width="0.5" fill="#FDDBC2"/>
   <path stroke="#AF3317" id="svg_477" d="m77.209399,115.459267c0.051216,-0.024917 0.154784,-0.074869 0.207064,-0.099815c0.120228,0.208915 0.211128,0.445063 0.274873,0.692285c-1.148483,0.727234 -2.319701,1.395017 -3.470462,2.115609c-0.44116,0.229401 -0.838339,0.625357 -1.323254,0.700108c-0.100349,-0.281113 -0.203912,-0.559427 -0.268224,-0.853254c0.042344,-0.032723 0.1259,-0.098211 0.168244,-0.130927c1.481134,-0.776254 2.937303,-1.625185 4.411758,-2.424006l0,0z" stroke-width="0.5" fill="#AF3317"/>
  </g>
 </g>
</svg>