<svg width="440" height="230" xmlns="http://www.w3.org/2000/svg">

    <metadata id="metadata9">image/svg+xmlOpenclipart</metadata>
    <g>
        <title>background</title>
        <rect fill="none" id="canvas_background" height="232" width="442" y="-1" x="-1"/>
    </g>
    <g>
        <title>Layer 1</title>
        <g stroke="null" id="svg_1">
            <path stroke="null" fill="#808080"
                  d="m6.840135,107.658495c0,-55.228 45.39,-100 100,-100l0,51c-27.279,0 -49,21.412 -49,49l-51,0z"
                  id="path3009-0-7-9-5"/>
            <path stroke="#ffffff" stroke-linecap="round" stroke-width="5" fill="#808080"
                  d="m32.839935,97.658495c0,-13 5.6565,-25.071 12.145,-34.908m20.088,-19.867c10.233,-6.52 22.22,-9.26 34.767,-9.22"
                  id="path3009-0-27-23"/>
        </g>
        <g transform="rotate(-89.68460083007812 56.56661987304686,157.49240112304688) " id="svg_4">
            <path fill="#808080"
                  d="m6.566621,207.49242c0,-55.228 45.39,-100 100,-100l0,51c-27.279,0 -49,21.412 -49,49l-51,0z"
                  id="svg_2"/>
            <path stroke="#ffffff" stroke-linecap="round" stroke-width="5" fill="#808080"
                  d="m32.566421,197.49242c0,-13 5.6565,-25.071 12.145,-34.908m20.088,-19.867c10.233,-6.52 22.22,-9.26 34.767,-9.22"
                  id="svg_3"/>
        </g>
        <metadata transform="matrix(8.554790681676026,0,0,8.554790681676026,0,0) " id="svg_13">
            image/svg+xmlOpenclipart
        </metadata>
        <g id="svg_19"/>
        <metadata transform="matrix(8.554790681676026,0,0,8.554790681676026,0,0) " id="svg_28">
            image/svg+xmlOpenclipart
        </metadata>
        <g id="svg_34"/>
        <metadata transform="matrix(8.554790681676026,0,0,8.554790681676026,0,0) " id="svg_43">
            image/svg+xmlOpenclipart
        </metadata>
        <g id="svg_49"/>
        <metadata transform="matrix(2.1386976704190066,0,0,2.1386976704190066,0,0) " id="svg_59">
            image/svg+xmlOpenclipart
        </metadata>
        <g transform="matrix(0.5823447597900154,0,0,1.0027430496940029,74.75493419678034,0.07861836802849398) "
           id="svg_62">
            <title>Layer 1</title>
            <rect id="svg_57" height="51" width="100" y="7.497576" fill="#808080" fill-rule="evenodd" x="54.312536"/>
            <path id="svg_56" d="m66.812535,32.997375l75,0" fill="#ffffff" stroke-width="5.0001" stroke-linecap="round"
                  stroke="#ffffff"/>
        </g>
        <g id="svg_63"/>
        <g transform="matrix(0.5823447597900154,0,0,1.0027430496940029,74.75493419678034,0.07861836802849398) "
           id="svg_67">
            <title id="svg_64">Layer 1</title>
            <rect id="svg_65" height="51" width="100" y="7.497576" fill="#808080" fill-rule="evenodd" x="152.946032"/>
            <path id="svg_66" d="m165.446029,32.997376l75,0" fill="#ffffff" stroke-width="5.0001" stroke-linecap="round"
                  stroke="#ffffff"/>
        </g>
        <g transform="matrix(0.5823447597900154,0,0,1.0027430496940029,74.75493419678034,0.07861836802849398) "
           id="svg_71">
            <title id="svg_68">Layer 1</title>
            <rect id="svg_69" height="51" width="100" y="7.497576" fill="#808080" fill-rule="evenodd" x="251.579528"/>
            <path id="svg_70" d="m264.079529,32.997376l75,0" fill="#ffffff" stroke-width="5.0001" stroke-linecap="round"
                  stroke="#ffffff"/>
        </g>
        <g transform="matrix(0.6040225481382836,0,0,1.0027430496940029,67.17327165143965,0.07861836802849398) "
           id="svg_75">
            <title id="svg_72">Layer 1</title>
            <rect id="svg_73" height="51" width="100" y="7.497576" fill="#808080" fill-rule="evenodd" x="350.213023"/>
            <path id="svg_74" d="m362.713029,32.997376l75,0" fill="#ffffff" stroke-width="5.0001" stroke-linecap="round"
                  stroke="#ffffff"/>
        </g>
        <g transform="matrix(0.5931836539641495,0,0,1.0027430496940029,73.08235674299775,0.07861836802849398) "
           id="svg_79">
            <title id="svg_76">Layer 1</title>
            <rect id="svg_77" height="51" width="100" y="156.156888" fill="#808080" fill-rule="evenodd" x="53.842853"/>
            <path id="svg_78" d="m66.342849,181.656688l75,0" fill="#ffffff" stroke-width="5.0001" stroke-linecap="round"
                  stroke="#ffffff"/>
        </g>
        <g transform="matrix(0.5823447597900154,0,0,1.0027430496940029,74.75493419678034,0.07861836802849398) "
           id="svg_83">
            <title id="svg_80">Layer 1</title>
            <rect id="svg_81" height="51" width="100" y="156.156888" fill="#808080" fill-rule="evenodd" x="152.946032"/>
            <path id="svg_82" d="m165.446033,181.656688l75,0" fill="#ffffff" stroke-width="5.0001"
                  stroke-linecap="round" stroke="#ffffff"/>
        </g>
        <g transform="matrix(0.5823447597900154,0,0,1.0027430496940029,74.75493419678034,0.07861836802849398) "
           id="svg_87">
            <title id="svg_84">Layer 1</title>
            <rect id="svg_85" height="51" width="100" y="156.156888" fill="#808080" fill-rule="evenodd" x="251.579528"/>
            <path id="svg_86" d="m264.079533,181.656688l75,0" fill="#ffffff" stroke-width="5.0001"
                  stroke-linecap="round" stroke="#ffffff"/>
        </g>
        <g transform="matrix(0.5823447597900154,0,0,1.0027430496940029,74.75493419678034,0.07861836802849398) "
           id="svg_91">
            <title id="svg_88">Layer 1</title>
            <rect id="svg_89" height="51" width="100" y="156.156888" fill="#808080" fill-rule="evenodd" x="350.213023"/>
            <path id="svg_90" d="m362.713033,181.656688l75,0" fill="#ffffff" stroke-width="5.0001"
                  stroke-linecap="round" stroke="#ffffff"/>
        </g>
        <g transform="rotate(89.99224090576172 386.70251464843756,57.65849304199216) " stroke="null" id="svg_94">
            <path stroke="null" fill="#808080"
                  d="m336.702371,107.658493c0,-55.228 45.39,-100 100,-100l0,51c-27.279,0 -49,21.412 -49,49l-51,0z"
                  id="svg_92"/>
            <path stroke="#ffffff" stroke-linecap="round" stroke-width="5" fill="#808080"
                  d="m362.702171,97.658493c0,-13 5.6565,-25.071 12.145,-34.908m20.088,-19.867c10.233,-6.52 22.22,-9.26 34.767,-9.22"
                  id="svg_93"/>
        </g>
        <g stroke="null" transform="rotate(-179.60946655273438 386.2949523925781,157.76597595214844) " id="svg_97">
            <path stroke="null" fill="#808080"
                  d="m336.158981,208.313972c0,-55.833244 45.513303,-101.0959 100.271652,-101.0959l0,51.558909c-27.353104,0 -49.13311,21.646654 -49.13311,49.536991l-51.138543,0z"
                  id="svg_95"/>
            <path stroke="#ffffff" stroke-linecap="round" stroke-width="5" fill="#808080"
                  d="m362.22941,198.204382c0,-13.142467 5.671866,-25.345753 12.177992,-35.290557m20.142569,-20.084722c10.260798,-6.591453 22.280361,-9.36148 34.861445,-9.321042"
                  id="svg_96"/>
        </g>

        <g transform="matrix(-0.24985357283498286,0,0,0.24985357283498286,125.60127363296664,0.000001652041043181744) "
           id="svg_118"/>
        <g id="svg_120"/>
        <text style="cursor: move;" stroke="null"
              transform="matrix(0.6158757947924585,0,0,0.5993009090445511,75.1561906595582,92.0274585523006) "
              xml:space="preserve" text-anchor="start" font-family="Helvetica, Arial, sans-serif" font-size="24"
              id="svg_121" y="220.225638" x="98.635194" fill-opacity="null" stroke-opacity="null" stroke-width="0"
              fill="#000000">total track distance : 400m</text>
    </g>
</svg>
