<svg width="912" height="112" xmlns="http://www.w3.org/2000/svg">
    <g>
        <title>background</title>
        <rect fill="none" id="canvas_background" height="114" width="914" y="-1" x="-1"/>
    </g>
    <g>
        <title>Layer 1</title>
        <rect stroke="#000" id="svg_1" height="103.779628" width="902.336571" y="3.988974" x="3.823412"
              stroke-width="1.5" fill="#fff"/>
        <metadata>image/svg+xmlOpenclipartOpen Box2010-11-28T11:37:30An open cardboard
            boxhttps://openclipart.org/detail/98491/open-box-by-piercolonepiercoloneapertaboxopenscatola
        </metadata>
        <metadata>image/svg+xmlOpenclipartOpen Box2010-11-28T11:37:30An open cardboard
            boxhttps://openclipart.org/detail/98491/open-box-by-piercolonepiercoloneapertaboxopenscatola
        </metadata>
        <metadata>
            image/svg+xmlOpenclipartbox2013-02-23T07:27:02https://openclipart.org/detail/175284/box-by-andinuryadin-175284andinuryadinbox
        </metadata>
        <metadata>image/svg+xmlOpenclipartOpen Box2010-11-28T11:37:30An open cardboard
            boxhttps://openclipart.org/detail/98491/open-box-by-piercolonepiercoloneapertaboxopenscatola
        </metadata>

        <metadata id="svg_413">image/svg+xml</metadata>
        <path stroke="null" fill="#3b4652" id="svg_451"
              d="m178.807095,80.807368c-7.14572,1.81523 -14.29147,2.38249 -20.98803,1.62614l0,0c-0.1225,0 -0.245,-0.03781 -0.32666,-0.03781c-0.04083,0 -0.1225,0 -0.16333,-0.03782c-0.16333,-0.03782 -0.32666,-0.03782 -0.48999,-0.07564c-0.1225,-0.03781 -0.20417,-0.03781 -0.32667,-0.07563c-0.16333,-0.03782 -0.32666,-0.07563 -0.53082,-0.15127c-0.08167,0 -0.16333,-0.03782 -0.20417,-0.07563c-0.08166,0 -0.12249,-0.03782 -0.20416,-0.07564c-0.1225,-0.03782 -0.20416,-0.07563 -0.32666,-0.11345c-0.1225,-0.03782 -0.20417,-0.07564 -0.32666,-0.11345c-6.12492,-2.72286 -7.06407,-11.38304 -12.53566,-16.41276c-5.47159,-5.02972 -14.78146,-5.89952 -17.72142,-11.60995c-0.04083,-0.07563 -0.08167,-0.18908 -0.1225,-0.30253c-0.04083,-0.11346 -0.08166,-0.18909 -0.1225,-0.30254c-0.04083,-0.07564 -0.04083,-0.11346 -0.08166,-0.18909c-0.04083,-0.07564 -0.04083,-0.15127 -0.08167,-0.18909c-0.04083,-0.15127 -0.1225,-0.30254 -0.16333,-0.49162c-0.04083,-0.11346 -0.04083,-0.18909 -0.08166,-0.30254c-0.04084,-0.15127 -0.08167,-0.30254 -0.08167,-0.45381c0,-0.03782 -0.04083,-0.11345 -0.04083,-0.15127c0,-0.11345 -0.04083,-0.22691 -0.04083,-0.30254l0,0c-0.97999,-7.29876 0.04083,-15.2026 2.93995,-22.99299c8.32989,5.06754 14.2098,9.94598 18.66058,15.50514c2.08247,2.68504 4.00161,5.55916 5.83908,8.35765c3.06246,4.61372 6.28824,9.37872 10.33069,13.61427c4.08327,4.61372 9.84069,10.62669 17.19059,15.35387l-0.00001,0z"
              class="st0" transform="rotate(221.00299072265625 151.1456298828125,55.36791992187499) "/>
        <path stroke="null" fill="#3b4652" id="svg_452"
              d="m168.420525,78.159758c-7.06406,6.0886 -14.94479,10.66451 -22.98884,13.65208c-8.53405,-4.5759 -15.18979,-11.49649 -19.68139,-16.56402c-0.04083,-0.03782 -0.04083,-0.07564 -0.08167,-0.07564c-3.75661,-3.89519 -6.69657,-8.28201 -9.79986,-12.89573c-1.91914,-2.87413 -3.87911,-5.78607 -6.08408,-8.66019c0,0 0,-0.03782 -0.04083,-0.03782c-5.02243,-6.31551 -11.63734,-11.79903 -21.11054,-17.43383l0,0c3.22579,-6.69368 7.79906,-13.19827 13.76064,-19.13561l66.02657,61.15076z"
              class="st0" transform="rotate(221.00299072265625 128.52685546875,54.41039657592774) "/>
        <path stroke="null" fill="#3b4652" id="svg_453"
              d="m143.977025,70.845948c-3.22578,7.45003 -8.16656,14.74879 -14.74063,21.29121l-66.02657,-61.11294c6.36991,-5.52134 13.43398,-9.75689 20.66138,-12.74447c6.08407,8.77364 12.00482,14.90006 18.82389,19.55161c0,0 0.04084,0.03781 0.04084,0.03781c3.06246,2.04214 6.24741,3.85738 9.3507,5.6348c5.02243,2.87412 9.7182,5.59697 13.92398,9.07618c0.04083,0.03781 0.04083,0.03781 0.08167,0.07563c5.47158,4.1221 12.94398,10.32415 17.88474,18.19017z"
              class="st0" transform="rotate(221.00299072265625 103.59344482421875,55.208431243896484) "/>
        <path stroke="null" fill="#3b4652" id="svg_454"
              d="m108.853075,83.120208c-5.14493,-6.76931 -11.5965,-12.10157 -16.5781,-15.84549c-4.57327,-3.78174 -9.7182,-6.7315 -14.69979,-9.56781c-2.98079,-1.70178 -6.08408,-3.4792 -9.02404,-5.40789c-6.00242,-4.12209 -11.31068,-9.52998 -16.74143,-17.24473c8.41154,-2.68504 16.94559,-3.63048 24.82631,-2.72286c0.245,0.03782 0.44916,0.03782 0.69416,0.07564c0.20416,0.03781 0.40833,0.03781 0.57166,0.07563c0,0 0.04083,0 0.04083,0c0.20417,0.03782 0.3675,0.07564 0.57166,0.11345c0.16333,0.03782 0.28583,0.07564 0.44916,0.11346c0.08167,0.03781 0.16333,0.03781 0.20416,0.07563c0.1225,0.03782 0.28583,0.07563 0.40833,0.11345c0.245,0.07564 0.44916,0.15127 0.65333,0.26472c0.12249,0.03782 0.20416,0.11346 0.32666,0.15127c0.20416,0.11346 0.40833,0.18909 0.61249,0.30254c0.36749,0.18909 0.69416,0.37818 1.02082,0.60508c0.16333,0.11345 0.28583,0.18909 0.40833,0.30254c0.40832,0.30254 0.81665,0.6429 1.18415,0.98325c0.12249,0.11346 0.24499,0.22691 0.36749,0.34036c0.1225,0.11345 0.20416,0.2269 0.32666,0.34036c3.22579,3.36575 5.30826,8.24419 9.14654,11.83685c3.83828,3.55483 9.14654,5.48352 12.78066,8.4711c0.12249,0.11345 0.24499,0.18908 0.32666,0.30254c0.1225,0.11345 0.24499,0.2269 0.36749,0.34035c0.3675,0.34036 0.73499,0.71853 1.06165,1.09671c0.1225,0.11345 0.20417,0.26472 0.32667,0.41599c0.24499,0.30254 0.44916,0.60508 0.65332,0.94543c0.1225,0.18909 0.245,0.37818 0.32666,0.56727c0.04084,0.11345 0.1225,0.18908 0.16333,0.30253c0.08167,0.18909 0.20417,0.416 0.28583,0.60508c0.04084,0.11346 0.08167,0.22691 0.1225,0.37818c0.04083,0.07563 0.04083,0.15127 0.08167,0.2269c0.04083,0.15127 0.08166,0.26472 0.1225,0.41599c0.04083,0.15127 0.08166,0.34036 0.12249,0.52945c0,0 0,0.03781 0,0.03781c0.04084,0.18909 0.08167,0.34036 0.08167,0.52945c0.04083,0.2269 0.04083,0.41599 0.08166,0.64289c0.89833,6.08861 0.28583,12.66884 -1.67414,19.28688z"
              class="st0" transform="rotate(221.00299072265625 81.3709716796875,57.55826568603516) "/>
        <path stroke="null" fill="#ff7f00" id="svg_455"
              d="m53.763315,80.756028c-5.75741,5.33225 -11.96399,9.26527 -17.31309,11.34522c-0.04083,-0.2269 -0.08166,-0.49162 -0.12249,-0.71853l-0.16333,-0.83198l-0.04084,-0.07563c-0.04083,-0.18909 -0.08166,-0.34036 -0.16333,-0.52945c-0.04083,-0.11345 -0.08166,-0.18909 -0.08166,-0.30254c-0.08167,-0.18908 -0.16333,-0.41599 -0.20417,-0.60508c-0.1225,-0.30254 -0.24499,-0.64289 -0.40832,-0.94543c-0.04084,-0.11345 -0.08167,-0.18909 -0.16334,-0.30254l-0.04083,-0.11345c-0.16333,-0.30254 -0.32666,-0.6429 -0.53083,-0.94544c-0.32666,-0.49162 -0.65332,-0.98325 -0.97998,-1.39924c-0.1225,-0.15127 -0.28583,-0.37818 -0.48999,-0.60508c-0.44917,-0.52944 -0.93916,-1.02107 -1.51082,-1.55052l-0.04083,-0.03781c-0.16333,-0.11346 -0.28583,-0.26473 -0.44916,-0.41599c-0.1225,-0.11346 -0.28583,-0.22691 -0.44916,-0.37818c-2.00081,-1.62615 -4.24661,-2.91194 -6.41074,-4.15991c-2.28664,-1.32361 -4.49161,-2.57159 -6.12492,-4.08428c-1.63331,-1.5127 -2.98079,-3.55484 -4.40994,-5.67262c-1.34748,-2.00432 -2.73579,-4.08428 -4.4916,-5.89951l-0.04083,-0.03782c-0.1225,-0.11345 -0.245,-0.26472 -0.3675,-0.37817c-0.16333,-0.15127 -0.28583,-0.26473 -0.44916,-0.45381c-0.53082,-0.52945 -1.10248,-0.98326 -1.67414,-1.39925c-0.245,-0.18908 -0.48999,-0.34035 -0.65332,-0.45381c-0.49,-0.34035 -0.97999,-0.64289 -1.51082,-0.90761c-0.36749,-0.18909 -0.69415,-0.37818 -1.06165,-0.52945l-0.1225,-0.03781c-0.12249,-0.03782 -0.20416,-0.11346 -0.32666,-0.15127c-0.36749,-0.15127 -0.69416,-0.26473 -1.02082,-0.37818c-0.20416,-0.07563 -0.44916,-0.15127 -0.65332,-0.18909c-0.1225,-0.03781 -0.20417,-0.07563 -0.32666,-0.07563c-0.20417,-0.07564 -0.40833,-0.11345 -0.65333,-0.15127l-0.08166,-0.03782l-0.81666,-0.15127c-0.245,-0.03781 -0.48999,-0.07563 -0.77582,-0.11345c2.20497,-4.95408 6.49241,-10.70233 12.24983,-16.03458c11.55567,-10.70233 18.74223,-21.40466 23.51967,-16.9422c2.53163,2.34468 8.28905,12.47974 5.71658,17.812c5.75742,-2.3825 10.61652,-2.68504 13.14815,-0.34036c2.53163,2.34468 2.20497,6.88277 -0.36749,12.17721c5.75742,-2.3825 16.7006,2.94976 19.23223,5.29444c4.7366,4.349 -6.81907,11.00486 -18.37475,21.70719z"
              class="st1" transform="rotate(221.00299072265625 35.933204650878906,57.58367919921875) "/>
        <path stroke="null" fill="#ff7f00" id="svg_456"
              d="m233.545465,53.185998c-2.20497,4.95408 -6.45157,10.70233 -12.24982,16.03458c-11.55567,10.70233 -18.74224,21.40466 -23.51967,16.9422c-2.53163,-2.34467 -8.28905,-12.47974 -5.71659,-17.812c-5.75742,2.3825 -10.61652,2.68504 -13.14815,0.34036c-2.53163,-2.34468 -2.20497,-6.88277 0.3675,-12.17721c-5.75742,2.3825 -16.7006,-2.94975 -19.23223,-5.29443c-4.81827,-4.46246 6.7374,-11.11832 18.29307,-21.82065c5.75742,-5.33225 11.964,-9.30308 17.31309,-11.34522c0.04084,0.2269 0.08167,0.41599 0.1225,0.64289l0.1225,0.416c0.08166,0.26472 0.16333,0.52944 0.245,0.75634c0.04083,0.15127 0.08166,0.26473 0.12249,0.37818c0.04084,0.15127 0.1225,0.26472 0.16333,0.37817c0.04084,0.15127 0.1225,0.30254 0.20417,0.41599c0.08166,0.18909 0.16333,0.34036 0.245,0.52945c2.53163,4.84063 7.51322,7.10967 11.88233,9.07618c2.69496,1.21015 5.22659,2.38249 6.94157,3.93301c1.67414,1.58833 2.93996,3.93301 4.2466,6.42896c2.16414,4.08428 4.57327,8.66018 9.79987,11.00486c0.16333,0.07564 0.36749,0.15127 0.53082,0.22691c0.16333,0.07563 0.32667,0.11345 0.49,0.18908c0.12249,0.03782 0.24499,0.07564 0.40832,0.15127c0.1225,0.03782 0.28583,0.07564 0.40833,0.11346c0.245,0.07563 0.53083,0.15127 0.81666,0.2269l0.44916,0.11345c0.24499,0.07564 0.44916,0.11346 0.69415,0.15127z"
              class="st1" transform="rotate(221.00299072265625 196.2347412109375,52.627918243408196) "/>
        <path stroke="null" fill="#3b4652" id="svg_2"
              d="m406.029857,80.807365c-7.14572,1.81523 -14.29147,2.38249 -20.98803,1.62614l0,0c-0.1225,0 -0.245,-0.03781 -0.32666,-0.03781c-0.04083,0 -0.1225,0 -0.16333,-0.03782c-0.16333,-0.03782 -0.32666,-0.03782 -0.48999,-0.07564c-0.1225,-0.03781 -0.20417,-0.03781 -0.32667,-0.07563c-0.16333,-0.03782 -0.32666,-0.07563 -0.53082,-0.15127c-0.08167,0 -0.16333,-0.03782 -0.20417,-0.07563c-0.08166,0 -0.12249,-0.03782 -0.20416,-0.07564c-0.1225,-0.03782 -0.20416,-0.07563 -0.32666,-0.11345c-0.1225,-0.03782 -0.20417,-0.07564 -0.32666,-0.11345c-6.12492,-2.72286 -7.06407,-11.38304 -12.53566,-16.41276c-5.47159,-5.02972 -14.78146,-5.89952 -17.72142,-11.60995c-0.04083,-0.07563 -0.08167,-0.18908 -0.1225,-0.30253c-0.04083,-0.11346 -0.08166,-0.18909 -0.1225,-0.30254c-0.04083,-0.07564 -0.04083,-0.11346 -0.08166,-0.18909c-0.04083,-0.07564 -0.04083,-0.15127 -0.08167,-0.18909c-0.04083,-0.15127 -0.1225,-0.30254 -0.16333,-0.49162c-0.04083,-0.11346 -0.04083,-0.18909 -0.08166,-0.30254c-0.04084,-0.15127 -0.08167,-0.30254 -0.08167,-0.45381c0,-0.03782 -0.04083,-0.11345 -0.04083,-0.15127c0,-0.11345 -0.04083,-0.22691 -0.04083,-0.30254l0,0c-0.97999,-7.29876 0.04083,-15.2026 2.93995,-22.99299c8.32989,5.06754 14.2098,9.94598 18.66058,15.50514c2.08247,2.68504 4.00161,5.55916 5.83908,8.35765c3.06246,4.61372 6.28824,9.37872 10.33069,13.61427c4.08327,4.61372 9.84069,10.62669 17.19059,15.35387l-0.00001,0z"
              class="st0" transform="rotate(221.00299072265625 378.3677978515625,55.367919921874986) "/>
        <path stroke="null" fill="#3b4652" id="svg_3"
              d="m395.643287,78.159755c-7.06406,6.0886 -14.94479,10.66451 -22.98884,13.65208c-8.53405,-4.5759 -15.18979,-11.49649 -19.68139,-16.56402c-0.04083,-0.03782 -0.04083,-0.07564 -0.08167,-0.07564c-3.75661,-3.89519 -6.69657,-8.28201 -9.79986,-12.89573c-1.91914,-2.87413 -3.87911,-5.78607 -6.08408,-8.66019c0,0 0,-0.03782 -0.04083,-0.03782c-5.02243,-6.31551 -11.63734,-11.79903 -21.11054,-17.43383l0,0c3.22579,-6.69368 7.79906,-13.19827 13.76064,-19.13561l66.02657,61.15076z"
              class="st0" transform="rotate(221.00299072265625 355.74932861328125,54.410396575927706) "/>
        <path stroke="null" fill="#3b4652" id="svg_4"
              d="m371.199787,70.845945c-3.22578,7.45003 -8.16656,14.74879 -14.74063,21.29121l-66.02657,-61.11294c6.36991,-5.52134 13.43398,-9.75689 20.66138,-12.74447c6.08407,8.77364 12.00482,14.90006 18.82389,19.55161c0,0 0.04084,0.03781 0.04084,0.03781c3.06246,2.04214 6.24741,3.85738 9.3507,5.6348c5.02243,2.87412 9.7182,5.59697 13.92398,9.07618c0.04083,0.03781 0.04083,0.03781 0.08167,0.07563c5.47158,4.1221 12.94398,10.32415 17.88474,18.19017z"
              class="st0" transform="rotate(221.00299072265625 330.81610107421875,55.208431243896484) "/>
        <path stroke="null" fill="#3b4652" id="svg_5"
              d="m336.075837,83.120205c-5.14493,-6.76931 -11.5965,-12.10157 -16.5781,-15.84549c-4.57327,-3.78174 -9.7182,-6.7315 -14.69979,-9.56781c-2.98079,-1.70178 -6.08408,-3.4792 -9.02404,-5.40789c-6.00242,-4.12209 -11.31068,-9.52998 -16.74143,-17.24473c8.41154,-2.68504 16.94559,-3.63048 24.82631,-2.72286c0.245,0.03782 0.44916,0.03782 0.69416,0.07564c0.20416,0.03781 0.40833,0.03781 0.57166,0.07563c0,0 0.04083,0 0.04083,0c0.20417,0.03782 0.3675,0.07564 0.57166,0.11345c0.16333,0.03782 0.28583,0.07564 0.44916,0.11346c0.08167,0.03781 0.16333,0.03781 0.20416,0.07563c0.1225,0.03782 0.28583,0.07563 0.40833,0.11345c0.245,0.07564 0.44916,0.15127 0.65333,0.26472c0.12249,0.03782 0.20416,0.11346 0.32666,0.15127c0.20416,0.11346 0.40833,0.18909 0.61249,0.30254c0.36749,0.18909 0.69416,0.37818 1.02082,0.60508c0.16333,0.11345 0.28583,0.18909 0.40833,0.30254c0.40832,0.30254 0.81665,0.6429 1.18415,0.98325c0.12249,0.11346 0.24499,0.22691 0.36749,0.34036c0.1225,0.11345 0.20416,0.2269 0.32666,0.34036c3.22579,3.36575 5.30826,8.24419 9.14654,11.83685c3.83828,3.55483 9.14654,5.48352 12.78066,8.4711c0.12249,0.11345 0.24499,0.18908 0.32666,0.30254c0.1225,0.11345 0.24499,0.2269 0.36749,0.34035c0.3675,0.34036 0.73499,0.71853 1.06165,1.09671c0.1225,0.11345 0.20417,0.26472 0.32667,0.41599c0.24499,0.30254 0.44916,0.60508 0.65332,0.94543c0.1225,0.18909 0.245,0.37818 0.32666,0.56727c0.04084,0.11345 0.1225,0.18908 0.16333,0.30253c0.08167,0.18909 0.20417,0.416 0.28583,0.60508c0.04084,0.11346 0.08167,0.22691 0.1225,0.37818c0.04083,0.07563 0.04083,0.15127 0.08167,0.2269c0.04083,0.15127 0.08166,0.26472 0.1225,0.41599c0.04083,0.15127 0.08166,0.34036 0.12249,0.52945c0,0 0,0.03781 0,0.03781c0.04084,0.18909 0.08167,0.34036 0.08167,0.52945c0.04083,0.2269 0.04083,0.41599 0.08166,0.64289c0.89833,6.08861 0.28583,12.66884 -1.67414,19.28688z"
              class="st0" transform="rotate(221.00299072265625 308.5937805175781,57.55826568603516) "/>
        <path stroke="null" fill="#ff7f00" id="svg_6"
              d="m280.986077,80.756025c-5.75741,5.33225 -11.96399,9.26527 -17.31309,11.34522c-0.04083,-0.2269 -0.08166,-0.49162 -0.12249,-0.71853l-0.16333,-0.83198l-0.04084,-0.07563c-0.04083,-0.18909 -0.08166,-0.34036 -0.16333,-0.52945c-0.04083,-0.11345 -0.08166,-0.18909 -0.08166,-0.30254c-0.08167,-0.18908 -0.16333,-0.41599 -0.20417,-0.60508c-0.1225,-0.30254 -0.24499,-0.64289 -0.40832,-0.94543c-0.04084,-0.11345 -0.08167,-0.18909 -0.16334,-0.30254l-0.04083,-0.11345c-0.16333,-0.30254 -0.32666,-0.6429 -0.53083,-0.94544c-0.32666,-0.49162 -0.65332,-0.98325 -0.97998,-1.39924c-0.1225,-0.15127 -0.28583,-0.37818 -0.48999,-0.60508c-0.44917,-0.52944 -0.93916,-1.02107 -1.51082,-1.55052l-0.04083,-0.03781c-0.16333,-0.11346 -0.28583,-0.26473 -0.44916,-0.41599c-0.1225,-0.11346 -0.28583,-0.22691 -0.44916,-0.37818c-2.00081,-1.62615 -4.24661,-2.91194 -6.41074,-4.15991c-2.28664,-1.32361 -4.49161,-2.57159 -6.12492,-4.08428c-1.63331,-1.5127 -2.98079,-3.55484 -4.40994,-5.67262c-1.34748,-2.00432 -2.73579,-4.08428 -4.4916,-5.89951l-0.04083,-0.03782c-0.1225,-0.11345 -0.245,-0.26472 -0.3675,-0.37817c-0.16333,-0.15127 -0.28583,-0.26473 -0.44916,-0.45381c-0.53082,-0.52945 -1.10248,-0.98326 -1.67414,-1.39925c-0.245,-0.18908 -0.48999,-0.34035 -0.65332,-0.45381c-0.49,-0.34035 -0.97999,-0.64289 -1.51082,-0.90761c-0.36749,-0.18909 -0.69415,-0.37818 -1.06165,-0.52945l-0.1225,-0.03781c-0.12249,-0.03782 -0.20416,-0.11346 -0.32666,-0.15127c-0.36749,-0.15127 -0.69416,-0.26473 -1.02082,-0.37818c-0.20416,-0.07563 -0.44916,-0.15127 -0.65332,-0.18909c-0.1225,-0.03781 -0.20417,-0.07563 -0.32666,-0.07563c-0.20417,-0.07564 -0.40833,-0.11345 -0.65333,-0.15127l-0.08166,-0.03782l-0.81666,-0.15127c-0.245,-0.03781 -0.48999,-0.07563 -0.77582,-0.11345c2.20497,-4.95408 6.49241,-10.70233 12.24983,-16.03458c11.55567,-10.70233 18.74223,-21.40466 23.51967,-16.9422c2.53163,2.34468 8.28905,12.47974 5.71658,17.812c5.75742,-2.3825 10.61652,-2.68504 13.14815,-0.34036c2.53163,2.34468 2.20497,6.88277 -0.36749,12.17721c5.75742,-2.3825 16.7006,2.94976 19.23223,5.29444c4.7366,4.349 -6.81907,11.00486 -18.37475,21.70719z"
              class="st1" transform="rotate(221.00299072265625 263.1559753417969,57.583675384521484) "/>
        <path stroke="null" fill="#ff7f00" id="svg_7"
              d="m460.768227,53.185995c-2.20497,4.95408 -6.45157,10.70233 -12.24982,16.03458c-11.55567,10.70233 -18.74224,21.40466 -23.51967,16.9422c-2.53163,-2.34467 -8.28905,-12.47974 -5.71659,-17.812c-5.75742,2.3825 -10.61652,2.68504 -13.14815,0.34036c-2.53163,-2.34468 -2.20497,-6.88277 0.3675,-12.17721c-5.75742,2.3825 -16.7006,-2.94975 -19.23223,-5.29443c-4.81827,-4.46246 6.7374,-11.11832 18.29307,-21.82065c5.75742,-5.33225 11.964,-9.30308 17.31309,-11.34522c0.04084,0.2269 0.08167,0.41599 0.1225,0.64289l0.1225,0.416c0.08166,0.26472 0.16333,0.52944 0.245,0.75634c0.04083,0.15127 0.08166,0.26473 0.12249,0.37818c0.04084,0.15127 0.1225,0.26472 0.16333,0.37817c0.04084,0.15127 0.1225,0.30254 0.20417,0.41599c0.08166,0.18909 0.16333,0.34036 0.245,0.52945c2.53163,4.84063 7.51322,7.10967 11.88233,9.07618c2.69496,1.21015 5.22659,2.38249 6.94157,3.93301c1.67414,1.58833 2.93996,3.93301 4.2466,6.42896c2.16414,4.08428 4.57327,8.66018 9.79987,11.00486c0.16333,0.07564 0.36749,0.15127 0.53082,0.22691c0.16333,0.07563 0.32667,0.11345 0.49,0.18908c0.12249,0.03782 0.24499,0.07564 0.40832,0.15127c0.1225,0.03782 0.28583,0.07564 0.40833,0.11346c0.245,0.07563 0.53083,0.15127 0.81666,0.2269l0.44916,0.11345c0.24499,0.07564 0.44916,0.11346 0.69415,0.15127z"
              class="st1" transform="rotate(221.00299072265625 423.4575805664063,52.62791442871093) "/>
        <path stroke="null" fill="#3b4652" id="svg_8"
              d="m627.790536,80.807365c-7.14572,1.81523 -14.29147,2.38249 -20.98803,1.62614l0,0c-0.1225,0 -0.245,-0.03781 -0.32666,-0.03781c-0.04083,0 -0.1225,0 -0.16333,-0.03782c-0.16333,-0.03782 -0.32666,-0.03782 -0.48999,-0.07564c-0.1225,-0.03781 -0.20417,-0.03781 -0.32667,-0.07563c-0.16333,-0.03782 -0.32666,-0.07563 -0.53082,-0.15127c-0.08167,0 -0.16333,-0.03782 -0.20417,-0.07563c-0.08166,0 -0.12249,-0.03782 -0.20416,-0.07564c-0.1225,-0.03782 -0.20416,-0.07563 -0.32666,-0.11345c-0.1225,-0.03782 -0.20417,-0.07564 -0.32666,-0.11345c-6.12492,-2.72286 -7.06407,-11.38304 -12.53566,-16.41276c-5.47159,-5.02972 -14.78146,-5.89952 -17.72142,-11.60995c-0.04083,-0.07563 -0.08167,-0.18908 -0.1225,-0.30253c-0.04083,-0.11346 -0.08166,-0.18909 -0.1225,-0.30254c-0.04083,-0.07564 -0.04083,-0.11346 -0.08166,-0.18909c-0.04083,-0.07564 -0.04083,-0.15127 -0.08167,-0.18909c-0.04083,-0.15127 -0.1225,-0.30254 -0.16333,-0.49162c-0.04083,-0.11346 -0.04083,-0.18909 -0.08166,-0.30254c-0.04084,-0.15127 -0.08167,-0.30254 -0.08167,-0.45381c0,-0.03782 -0.04083,-0.11345 -0.04083,-0.15127c0,-0.11345 -0.04083,-0.22691 -0.04083,-0.30254l0,0c-0.97999,-7.29876 0.04083,-15.2026 2.93995,-22.99299c8.32989,5.06754 14.2098,9.94598 18.66058,15.50514c2.08247,2.68504 4.00161,5.55916 5.83908,8.35765c3.06246,4.61372 6.28824,9.37872 10.33069,13.61427c4.08327,4.61372 9.84069,10.62669 17.19059,15.35387l-0.00001,0z"
              class="st0" transform="rotate(221.00299072265625 600.12646484375,55.367919921875014) "/>
        <path stroke="null" fill="#3b4652" id="svg_9"
              d="m617.403966,78.159755c-7.06406,6.0886 -14.94479,10.66451 -22.98884,13.65208c-8.53405,-4.5759 -15.18979,-11.49649 -19.68139,-16.56402c-0.04083,-0.03782 -0.04083,-0.07564 -0.08167,-0.07564c-3.75661,-3.89519 -6.69657,-8.28201 -9.79986,-12.89573c-1.91914,-2.87413 -3.87911,-5.78607 -6.08408,-8.66019c0,0 0,-0.03782 -0.04083,-0.03782c-5.02243,-6.31551 -11.63734,-11.79903 -21.11054,-17.43383l0,0c3.22579,-6.69368 7.79906,-13.19827 13.76064,-19.13561l66.02657,61.15076z"
              class="st0" transform="rotate(221.00299072265625 577.5079956054688,54.410396575927706) "/>
        <path stroke="null" fill="#3b4652" id="svg_10"
              d="m592.960466,70.845945c-3.22578,7.45003 -8.16656,14.74879 -14.74063,21.29121l-66.02657,-61.11294c6.36991,-5.52134 13.43398,-9.75689 20.66138,-12.74447c6.08407,8.77364 12.00482,14.90006 18.82389,19.55161c0,0 0.04084,0.03781 0.04084,0.03781c3.06246,2.04214 6.24741,3.85738 9.3507,5.6348c5.02243,2.87412 9.7182,5.59697 13.92398,9.07618c0.04083,0.03781 0.04083,0.03781 0.08167,0.07563c5.47158,4.1221 12.94398,10.32415 17.88474,18.19017z"
              class="st0" transform="rotate(221.00299072265625 552.5747680664062,55.208431243896506) "/>
        <path stroke="null" fill="#3b4652" id="svg_11"
              d="m557.836516,83.120205c-5.14493,-6.76931 -11.5965,-12.10157 -16.5781,-15.84549c-4.57327,-3.78174 -9.7182,-6.7315 -14.69979,-9.56781c-2.98079,-1.70178 -6.08408,-3.4792 -9.02404,-5.40789c-6.00242,-4.12209 -11.31068,-9.52998 -16.74143,-17.24473c8.41154,-2.68504 16.94559,-3.63048 24.82631,-2.72286c0.245,0.03782 0.44916,0.03782 0.69416,0.07564c0.20416,0.03781 0.40833,0.03781 0.57166,0.07563c0,0 0.04083,0 0.04083,0c0.20417,0.03782 0.3675,0.07564 0.57166,0.11345c0.16333,0.03782 0.28583,0.07564 0.44916,0.11346c0.08167,0.03781 0.16333,0.03781 0.20416,0.07563c0.1225,0.03782 0.28583,0.07563 0.40833,0.11345c0.245,0.07564 0.44916,0.15127 0.65333,0.26472c0.12249,0.03782 0.20416,0.11346 0.32666,0.15127c0.20416,0.11346 0.40833,0.18909 0.61249,0.30254c0.36749,0.18909 0.69416,0.37818 1.02082,0.60508c0.16333,0.11345 0.28583,0.18909 0.40833,0.30254c0.40832,0.30254 0.81665,0.6429 1.18415,0.98325c0.12249,0.11346 0.24499,0.22691 0.36749,0.34036c0.1225,0.11345 0.20416,0.2269 0.32666,0.34036c3.22579,3.36575 5.30826,8.24419 9.14654,11.83685c3.83828,3.55483 9.14654,5.48352 12.78066,8.4711c0.12249,0.11345 0.24499,0.18908 0.32666,0.30254c0.1225,0.11345 0.24499,0.2269 0.36749,0.34035c0.3675,0.34036 0.73499,0.71853 1.06165,1.09671c0.1225,0.11345 0.20417,0.26472 0.32667,0.41599c0.24499,0.30254 0.44916,0.60508 0.65332,0.94543c0.1225,0.18909 0.245,0.37818 0.32666,0.56727c0.04084,0.11345 0.1225,0.18908 0.16333,0.30253c0.08167,0.18909 0.20417,0.416 0.28583,0.60508c0.04084,0.11346 0.08167,0.22691 0.1225,0.37818c0.04083,0.07563 0.04083,0.15127 0.08167,0.2269c0.04083,0.15127 0.08166,0.26472 0.1225,0.41599c0.04083,0.15127 0.08166,0.34036 0.12249,0.52945c0,0 0,0.03781 0,0.03781c0.04084,0.18909 0.08167,0.34036 0.08167,0.52945c0.04083,0.2269 0.04083,0.41599 0.08166,0.64289c0.89833,6.08861 0.28583,12.66884 -1.67414,19.28688z"
              class="st0" transform="rotate(221.00299072265625 530.3524780273438,57.558265686035135) "/>
        <path stroke="null" fill="#00ff00" id="svg_12"
              d="m502.746756,80.756025c-5.75741,5.33225 -11.96399,9.26527 -17.31309,11.34522c-0.04083,-0.2269 -0.08166,-0.49162 -0.12249,-0.71853l-0.16333,-0.83198l-0.04084,-0.07563c-0.04083,-0.18909 -0.08166,-0.34036 -0.16333,-0.52945c-0.04083,-0.11345 -0.08166,-0.18909 -0.08166,-0.30254c-0.08167,-0.18908 -0.16333,-0.41599 -0.20417,-0.60508c-0.1225,-0.30254 -0.24499,-0.64289 -0.40832,-0.94543c-0.04084,-0.11345 -0.08167,-0.18909 -0.16334,-0.30254l-0.04083,-0.11345c-0.16333,-0.30254 -0.32666,-0.6429 -0.53083,-0.94544c-0.32666,-0.49162 -0.65332,-0.98325 -0.97998,-1.39924c-0.1225,-0.15127 -0.28583,-0.37818 -0.48999,-0.60508c-0.44917,-0.52944 -0.93916,-1.02107 -1.51082,-1.55052l-0.04083,-0.03781c-0.16333,-0.11346 -0.28583,-0.26473 -0.44916,-0.41599c-0.1225,-0.11346 -0.28583,-0.22691 -0.44916,-0.37818c-2.00081,-1.62615 -4.24661,-2.91194 -6.41074,-4.15991c-2.28664,-1.32361 -4.49161,-2.57159 -6.12492,-4.08428c-1.63331,-1.5127 -2.98079,-3.55484 -4.40994,-5.67262c-1.34748,-2.00432 -2.73579,-4.08428 -4.4916,-5.89951l-0.04083,-0.03782c-0.1225,-0.11345 -0.245,-0.26472 -0.3675,-0.37817c-0.16333,-0.15127 -0.28583,-0.26473 -0.44916,-0.45381c-0.53082,-0.52945 -1.10248,-0.98326 -1.67414,-1.39925c-0.245,-0.18908 -0.48999,-0.34035 -0.65332,-0.45381c-0.49,-0.34035 -0.97999,-0.64289 -1.51082,-0.90761c-0.36749,-0.18909 -0.69415,-0.37818 -1.06165,-0.52945l-0.1225,-0.03781c-0.12249,-0.03782 -0.20416,-0.11346 -0.32666,-0.15127c-0.36749,-0.15127 -0.69416,-0.26473 -1.02082,-0.37818c-0.20416,-0.07563 -0.44916,-0.15127 -0.65332,-0.18909c-0.1225,-0.03781 -0.20417,-0.07563 -0.32666,-0.07563c-0.20417,-0.07564 -0.40833,-0.11345 -0.65333,-0.15127l-0.08166,-0.03782l-0.81666,-0.15127c-0.245,-0.03781 -0.48999,-0.07563 -0.77582,-0.11345c2.20497,-4.95408 6.49241,-10.70233 12.24983,-16.03458c11.55567,-10.70233 18.74223,-21.40466 23.51967,-16.9422c2.53163,2.34468 8.28905,12.47974 5.71658,17.812c5.75742,-2.3825 10.61652,-2.68504 13.14815,-0.34036c2.53163,2.34468 2.20497,6.88277 -0.36749,12.17721c5.75742,-2.3825 16.7006,2.94976 19.23223,5.29444c4.7366,4.349 -6.81907,11.00486 -18.37475,21.70719z"
              class="st1" transform="rotate(221.00299072265625 484.9166259765625,57.583675384521484) "/>
        <path stroke="null" fill="#00ff00" id="svg_13"
              d="m682.528906,53.185995c-2.20497,4.95408 -6.45157,10.70233 -12.24982,16.03458c-11.55567,10.70233 -18.74224,21.40466 -23.51967,16.9422c-2.53163,-2.34467 -8.28905,-12.47974 -5.71659,-17.812c-5.75742,2.3825 -10.61652,2.68504 -13.14815,0.34036c-2.53163,-2.34468 -2.20497,-6.88277 0.3675,-12.17721c-5.75742,2.3825 -16.7006,-2.94975 -19.23223,-5.29443c-4.81827,-4.46246 6.7374,-11.11832 18.29307,-21.82065c5.75742,-5.33225 11.964,-9.30308 17.31309,-11.34522c0.04084,0.2269 0.08167,0.41599 0.1225,0.64289l0.1225,0.416c0.08166,0.26472 0.16333,0.52944 0.245,0.75634c0.04083,0.15127 0.08166,0.26473 0.12249,0.37818c0.04084,0.15127 0.1225,0.26472 0.16333,0.37817c0.04084,0.15127 0.1225,0.30254 0.20417,0.41599c0.08166,0.18909 0.16333,0.34036 0.245,0.52945c2.53163,4.84063 7.51322,7.10967 11.88233,9.07618c2.69496,1.21015 5.22659,2.38249 6.94157,3.93301c1.67414,1.58833 2.93996,3.93301 4.2466,6.42896c2.16414,4.08428 4.57327,8.66018 9.79987,11.00486c0.16333,0.07564 0.36749,0.15127 0.53082,0.22691c0.16333,0.07563 0.32667,0.11345 0.49,0.18908c0.12249,0.03782 0.24499,0.07564 0.40832,0.15127c0.1225,0.03782 0.28583,0.07564 0.40833,0.11346c0.245,0.07563 0.53083,0.15127 0.81666,0.2269l0.44916,0.11345c0.24499,0.07564 0.44916,0.11346 0.69415,0.15127z"
              class="st1" transform="rotate(221.00299072265625 645.21826171875,52.62791442871093) "/>
        <path stroke="null" fill="#3b4652" id="svg_14"
              d="m852.828463,80.807365c-7.14572,1.81523 -14.29147,2.38249 -20.98803,1.62614l0,0c-0.1225,0 -0.245,-0.03781 -0.32666,-0.03781c-0.04083,0 -0.1225,0 -0.16333,-0.03782c-0.16333,-0.03782 -0.32666,-0.03782 -0.48999,-0.07564c-0.1225,-0.03781 -0.20417,-0.03781 -0.32667,-0.07563c-0.16333,-0.03782 -0.32666,-0.07563 -0.53082,-0.15127c-0.08167,0 -0.16333,-0.03782 -0.20417,-0.07563c-0.08166,0 -0.12249,-0.03782 -0.20416,-0.07564c-0.1225,-0.03782 -0.20416,-0.07563 -0.32666,-0.11345c-0.1225,-0.03782 -0.20417,-0.07564 -0.32666,-0.11345c-6.12492,-2.72286 -7.06407,-11.38304 -12.53566,-16.41276c-5.47159,-5.02972 -14.78146,-5.89952 -17.72142,-11.60995c-0.04083,-0.07563 -0.08167,-0.18908 -0.1225,-0.30253c-0.04083,-0.11346 -0.08166,-0.18909 -0.1225,-0.30254c-0.04083,-0.07564 -0.04083,-0.11346 -0.08166,-0.18909c-0.04083,-0.07564 -0.04083,-0.15127 -0.08167,-0.18909c-0.04083,-0.15127 -0.1225,-0.30254 -0.16333,-0.49162c-0.04083,-0.11346 -0.04083,-0.18909 -0.08166,-0.30254c-0.04084,-0.15127 -0.08167,-0.30254 -0.08167,-0.45381c0,-0.03782 -0.04083,-0.11345 -0.04083,-0.15127c0,-0.11345 -0.04083,-0.22691 -0.04083,-0.30254l0,0c-0.97999,-7.29876 0.04083,-15.2026 2.93995,-22.99299c8.32989,5.06754 14.2098,9.94598 18.66058,15.50514c2.08247,2.68504 4.00161,5.55916 5.83908,8.35765c3.06246,4.61372 6.28824,9.37872 10.33069,13.61427c4.08327,4.61372 9.84069,10.62669 17.19059,15.35387l-0.00001,0z"
              class="st0" transform="rotate(221.00299072265625 825.1623535156251,55.36791992187495) "/>
        <path stroke="null" fill="#3b4652" id="svg_15"
              d="m842.441893,78.159755c-7.06406,6.0886 -14.94479,10.66451 -22.98884,13.65208c-8.53405,-4.5759 -15.18979,-11.49649 -19.68139,-16.56402c-0.04083,-0.03782 -0.04083,-0.07564 -0.08167,-0.07564c-3.75661,-3.89519 -6.69657,-8.28201 -9.79986,-12.89573c-1.91914,-2.87413 -3.87911,-5.78607 -6.08408,-8.66019c0,0 0,-0.03782 -0.04083,-0.03782c-5.02243,-6.31551 -11.63734,-11.79903 -21.11054,-17.43383l0,0c3.22579,-6.69368 7.79906,-13.19827 13.76064,-19.13561l66.02657,61.15076z"
              class="st0" transform="rotate(221.00299072265625 802.5438842773439,54.410396575927706) "/>
        <path stroke="null" fill="#3b4652" id="svg_16"
              d="m817.998393,70.845945c-3.22578,7.45003 -8.16656,14.74879 -14.74063,21.29121l-66.02657,-61.11294c6.36991,-5.52134 13.43398,-9.75689 20.66138,-12.74447c6.08407,8.77364 12.00482,14.90006 18.82389,19.55161c0,0 0.04084,0.03781 0.04084,0.03781c3.06246,2.04214 6.24741,3.85738 9.3507,5.6348c5.02243,2.87412 9.7182,5.59697 13.92398,9.07618c0.04083,0.03781 0.04083,0.03781 0.08167,0.07563c5.47158,4.1221 12.94398,10.32415 17.88474,18.19017z"
              class="st0" transform="rotate(221.00299072265625 777.6106567382814,55.208431243896506) "/>
        <path stroke="null" fill="#3b4652" id="svg_17"
              d="m782.874443,83.120205c-5.14493,-6.76931 -11.5965,-12.10157 -16.5781,-15.84549c-4.57327,-3.78174 -9.7182,-6.7315 -14.69979,-9.56781c-2.98079,-1.70178 -6.08408,-3.4792 -9.02404,-5.40789c-6.00242,-4.12209 -11.31068,-9.52998 -16.74143,-17.24473c8.41154,-2.68504 16.94559,-3.63048 24.82631,-2.72286c0.245,0.03782 0.44916,0.03782 0.69416,0.07564c0.20416,0.03781 0.40833,0.03781 0.57166,0.07563c0,0 0.04083,0 0.04083,0c0.20417,0.03782 0.3675,0.07564 0.57166,0.11345c0.16333,0.03782 0.28583,0.07564 0.44916,0.11346c0.08167,0.03781 0.16333,0.03781 0.20416,0.07563c0.1225,0.03782 0.28583,0.07563 0.40833,0.11345c0.245,0.07564 0.44916,0.15127 0.65333,0.26472c0.12249,0.03782 0.20416,0.11346 0.32666,0.15127c0.20416,0.11346 0.40833,0.18909 0.61249,0.30254c0.36749,0.18909 0.69416,0.37818 1.02082,0.60508c0.16333,0.11345 0.28583,0.18909 0.40833,0.30254c0.40832,0.30254 0.81665,0.6429 1.18415,0.98325c0.12249,0.11346 0.24499,0.22691 0.36749,0.34036c0.1225,0.11345 0.20416,0.2269 0.32666,0.34036c3.22579,3.36575 5.30826,8.24419 9.14654,11.83685c3.83828,3.55483 9.14654,5.48352 12.78066,8.4711c0.12249,0.11345 0.24499,0.18908 0.32666,0.30254c0.1225,0.11345 0.24499,0.2269 0.36749,0.34035c0.3675,0.34036 0.73499,0.71853 1.06165,1.09671c0.1225,0.11345 0.20417,0.26472 0.32667,0.41599c0.24499,0.30254 0.44916,0.60508 0.65332,0.94543c0.1225,0.18909 0.245,0.37818 0.32666,0.56727c0.04084,0.11345 0.1225,0.18908 0.16333,0.30253c0.08167,0.18909 0.20417,0.416 0.28583,0.60508c0.04084,0.11346 0.08167,0.22691 0.1225,0.37818c0.04083,0.07563 0.04083,0.15127 0.08167,0.2269c0.04083,0.15127 0.08166,0.26472 0.1225,0.41599c0.04083,0.15127 0.08166,0.34036 0.12249,0.52945c0,0 0,0.03781 0,0.03781c0.04084,0.18909 0.08167,0.34036 0.08167,0.52945c0.04083,0.2269 0.04083,0.41599 0.08166,0.64289c0.89833,6.08861 0.28583,12.66884 -1.67414,19.28688z"
              class="st0" transform="rotate(221.00299072265625 755.3883666992188,57.5582656860351) "/>
        <path stroke="null" fill="#00ff00" id="svg_18"
              d="m727.784683,80.756025c-5.75741,5.33225 -11.96399,9.26527 -17.31309,11.34522c-0.04083,-0.2269 -0.08166,-0.49162 -0.12249,-0.71853l-0.16333,-0.83198l-0.04084,-0.07563c-0.04083,-0.18909 -0.08166,-0.34036 -0.16333,-0.52945c-0.04083,-0.11345 -0.08166,-0.18909 -0.08166,-0.30254c-0.08167,-0.18908 -0.16333,-0.41599 -0.20417,-0.60508c-0.1225,-0.30254 -0.24499,-0.64289 -0.40832,-0.94543c-0.04084,-0.11345 -0.08167,-0.18909 -0.16334,-0.30254l-0.04083,-0.11345c-0.16333,-0.30254 -0.32666,-0.6429 -0.53083,-0.94544c-0.32666,-0.49162 -0.65332,-0.98325 -0.97998,-1.39924c-0.1225,-0.15127 -0.28583,-0.37818 -0.48999,-0.60508c-0.44917,-0.52944 -0.93916,-1.02107 -1.51082,-1.55052l-0.04083,-0.03781c-0.16333,-0.11346 -0.28583,-0.26473 -0.44916,-0.41599c-0.1225,-0.11346 -0.28583,-0.22691 -0.44916,-0.37818c-2.00081,-1.62615 -4.24661,-2.91194 -6.41074,-4.15991c-2.28664,-1.32361 -4.49161,-2.57159 -6.12492,-4.08428c-1.63331,-1.5127 -2.98079,-3.55484 -4.40994,-5.67262c-1.34748,-2.00432 -2.73579,-4.08428 -4.4916,-5.89951l-0.04083,-0.03782c-0.1225,-0.11345 -0.245,-0.26472 -0.3675,-0.37817c-0.16333,-0.15127 -0.28583,-0.26473 -0.44916,-0.45381c-0.53082,-0.52945 -1.10248,-0.98326 -1.67414,-1.39925c-0.245,-0.18908 -0.48999,-0.34035 -0.65332,-0.45381c-0.49,-0.34035 -0.97999,-0.64289 -1.51082,-0.90761c-0.36749,-0.18909 -0.69415,-0.37818 -1.06165,-0.52945l-0.1225,-0.03781c-0.12249,-0.03782 -0.20416,-0.11346 -0.32666,-0.15127c-0.36749,-0.15127 -0.69416,-0.26473 -1.02082,-0.37818c-0.20416,-0.07563 -0.44916,-0.15127 -0.65332,-0.18909c-0.1225,-0.03781 -0.20417,-0.07563 -0.32666,-0.07563c-0.20417,-0.07564 -0.40833,-0.11345 -0.65333,-0.15127l-0.08166,-0.03782l-0.81666,-0.15127c-0.245,-0.03781 -0.48999,-0.07563 -0.77582,-0.11345c2.20497,-4.95408 6.49241,-10.70233 12.24983,-16.03458c11.55567,-10.70233 18.74223,-21.40466 23.51967,-16.9422c2.53163,2.34468 8.28905,12.47974 5.71658,17.812c5.75742,-2.3825 10.61652,-2.68504 13.14815,-0.34036c2.53163,2.34468 2.20497,6.88277 -0.36749,12.17721c5.75742,-2.3825 16.7006,2.94976 19.23223,5.29444c4.7366,4.349 -6.81907,11.00486 -18.37475,21.70719z"
              class="st1" transform="rotate(221.00299072265625 709.9545898437499,57.58367538452151) "/>
        <path stroke="null" fill="#00ff00" id="svg_19"
              d="m907.566833,53.185995c-2.20497,4.95408 -6.45157,10.70233 -12.24982,16.03458c-11.55567,10.70233 -18.74224,21.40466 -23.51967,16.9422c-2.53163,-2.34467 -8.28905,-12.47974 -5.71659,-17.812c-5.75742,2.3825 -10.61652,2.68504 -13.14815,0.34036c-2.53163,-2.34468 -2.20497,-6.88277 0.3675,-12.17721c-5.75742,2.3825 -16.7006,-2.94975 -19.23223,-5.29443c-4.81827,-4.46246 6.7374,-11.11832 18.29307,-21.82065c5.75742,-5.33225 11.964,-9.30308 17.31309,-11.34522c0.04084,0.2269 0.08167,0.41599 0.1225,0.64289l0.1225,0.416c0.08166,0.26472 0.16333,0.52944 0.245,0.75634c0.04083,0.15127 0.08166,0.26473 0.12249,0.37818c0.04084,0.15127 0.1225,0.26472 0.16333,0.37817c0.04084,0.15127 0.1225,0.30254 0.20417,0.41599c0.08166,0.18909 0.16333,0.34036 0.245,0.52945c2.53163,4.84063 7.51322,7.10967 11.88233,9.07618c2.69496,1.21015 5.22659,2.38249 6.94157,3.93301c1.67414,1.58833 2.93996,3.93301 4.2466,6.42896c2.16414,4.08428 4.57327,8.66018 9.79987,11.00486c0.16333,0.07564 0.36749,0.15127 0.53082,0.22691c0.16333,0.07563 0.32667,0.11345 0.49,0.18908c0.12249,0.03782 0.24499,0.07564 0.40832,0.15127c0.1225,0.03782 0.28583,0.07564 0.40833,0.11346c0.245,0.07563 0.53083,0.15127 0.81666,0.2269l0.44916,0.11345c0.24499,0.07564 0.44916,0.11346 0.69415,0.15127z"
              class="st1" transform="rotate(221.00299072265625 870.2562255859375,52.62791442871096) "/>
    </g>
</svg>
