<?xml version="1.0" encoding="utf-8"?>
<!-- Generator: Adobe Illustrator 23.0.5, SVG Export Plug-In . SVG Version: 6.00 Build 0)  -->
<svg version="1.1" id="Layer_1" xmlns="http://www.w3.org/2000/svg" x="0px"
     y="0px"
     viewBox="0 0 15.1 30" style="enable-background:new 0 0 15.1 30;" xml:space="preserve">
<style type="text/css">
	.st0{fill:#39B54A;}
	.st1{fill:#5B4531;}
	.st2{fill:#6B6256;}
	.st3{fill:#009245;}
</style>
    <g>
	<path class="st0" d="M7,1.2L5,4.1c0,0-1.4,1.2,0.2,1.4L3.4,8.1c0,0-0.5,1,1.3,0.6l-2.5,3.1c0,0-0.2,1.2,1.7,0.1L1.2,15
		c0,0-0.2,0.8,2.2,0l-2.8,3.4l2.4-0.2c0,0,3.8-1.5,10.6,0.2c0,0,1.9,0.1,0-1.2l-1.9-1.4c0,0-0.9-1.3,1.2-0.4c0,0,1.6,0.3-0.1-1.3
		s-2.2-1.8-2.2-1.8S9.5,11,12,12.2c0,0,1.9,0.2-1.4-2.6L9.7,8.4l1.1,0.4L9.2,5.8L9.1,5.6l0.6-0.3L7,1.2z"/>
        <path class="st1" d="M5.4,18.2c0,0.7,1.9,3.6,0,11h4.7c0,0-2.6-5.2-1.4-8.7l1.4-2.8H9l-1.1,2.5L6,17.4L5.4,18.2z"/>
        <path class="st2" d="M9.4,29.5c-0.9-1.3-2-3.9-2-6.1c0-2.3,1.1-4.7,2.1-6l-1.1,4.6L9.4,29.5z"/>
        <path class="st3" d="M7,3.1L8.3,5c0,0-1.4-0.4-0.7,0.7l1.6,2.2c0,0-2.2,0.4-1,1.8L9.5,11c0,0-1.1,0.2-0.4,1.1l1.5,1.7
		c0,0-1.9-0.1-0.9,1.2l2,2.3l0.9,1.1c0,0,2.6,0.8,0.9-1.3l-1.7-1.9c0,0-0.2-0.6,1.5,0.3s-1.1-1.8-1.1-1.8l-1.6-1.7
		c0,0-0.4-0.6,1.1,0.1c0,0,1.6,0.2-0.2-1.4L9.5,9c0,0-0.7-0.8,1.2-0.3s-2-3.1-2-3.1s1.5,0.5,0.4-1.1c0,0-1.9-1.9-2.2-3.1
		C6.9,1.4,6,1.6,7,3.1z"/>
        <path d="M14.7,18c-0.7-0.9-1.4-1.6-2.1-2.2c1.1,0.3,1.4,0.1,1.5-0.1c0.1-0.2,0.2-0.5-0.2-0.9c-0.2-0.2-1.3-1.3-2.2-2.2
		c0,0,0,0,0.1,0c0.8,0.1,1.1-0.3,1.1-0.4c0.1-0.3,0.1-0.6-0.2-0.8c-0.2-0.1-1.2-1.2-2.2-2.2c0.1,0,0.2,0,0.3,0
		c0.4-0.1,0.7-0.3,0.7-0.6c0.1-0.4-0.3-0.7-0.4-0.8C10.8,7.5,10.1,6.7,9.6,6C9.8,6,9.9,5.9,10,5.8c0.3-0.4,0-1,0-1.1
		c0,0,0-0.1-0.1-0.1C8,2.8,7.4,0.7,7.4,0.7C7.4,0.5,7.2,0.4,7,0.4c-0.2,0-0.3,0.1-0.4,0.3C6.4,2.5,4.9,3.6,4.9,3.6
		C4.4,4.1,3.8,4.8,4.1,5.4c0.1,0.2,0.3,0.4,0.5,0.4C4.1,6.6,3.3,7.5,3.3,7.5C3.1,7.7,2.7,8.2,3,8.7c0.1,0.3,0.4,0.4,0.7,0.4l-1.5,2
		c-0.4,0.5-0.7,1.1-0.4,1.5c0.1,0.1,0.2,0.3,0.8,0.2l-1.5,2c-0.1,0.1-0.4,0.6-0.2,1c0.1,0.3,0.4,0.3,0.7,0.3l0.9-0.2l-1.8,2.1
		c-0.2,0.2-0.6,0.7-0.4,1.1c0.1,0.1,0.2,0.3,0.7,0.3c0.3,0,0.7-0.1,1.3-0.3c0.9-0.4,1.8-0.6,2.7-0.8c0.7,1.5,1.1,3.4,1.1,5.3
		c0,2-0.4,3.8-1.2,5.4H3.3c-0.2,0-0.4,0.2-0.4,0.4s0.2,0.4,0.4,0.4h8.6c0.2,0,0.4-0.2,0.4-0.4s-0.2-0.4-0.4-0.4h-1.7
		c-0.8-1.6-1.3-3.6-1.3-5.6c0-2,0.7-3.7,1.4-5.1c1.7,0.3,2.8,0.7,2.8,0.7c1.1,0.2,1.6,0.2,1.8-0.2C14.9,18.5,15,18.3,14.7,18z
		 M8.1,23.2c0,2,0.4,4,1.2,5.6H5.8c0.7-1.6,1.1-3.5,1.1-5.4c0-1.9-0.4-3.8-1.1-5.4c0.1,0,0.1,0,0.2,0l1.2,2.2
		c0.1,0.1,0.2,0.2,0.3,0.2c0.1,0,0.3-0.1,0.3-0.2L9.2,18c0.1,0,0.1,0,0.2,0C8.7,19.5,8.1,21.2,8.1,23.2z M6.9,17.9
		c0.4,0,0.8,0,1.2,0c0.1,0,0.1,0,0.2,0l-0.7,1.3L6.9,17.9z M6.1,17.2c-1.4,0.1-2.8,0.4-4,0.9c-0.3,0.1-0.6,0.2-0.8,0.2c0,0,0,0,0,0
		l2.6-3c0.1-0.1,0.1-0.3,0-0.5c-0.1-0.1-0.2-0.2-0.3-0.2c0,0-0.1,0-0.1,0l-1.7,0.4L4.2,12c0.1-0.1,0.1-0.4,0-0.5
		c-0.1-0.1-0.3-0.2-0.5-0.1c-0.4,0.2-0.8,0.4-1.1,0.5c0.1-0.1,0.1-0.2,0.2-0.4l2-2.6C5,8.8,5,8.6,4.9,8.5C4.8,8.3,4.6,8.2,4.5,8.3
		c-0.3,0.1-0.6,0.1-0.8,0c0-0.1,0.1-0.1,0.2-0.3C3.9,8,5.2,6.4,5.7,5.8c0.1-0.1,0.1-0.3,0-0.4C5.6,5.2,5.5,5.1,5.3,5.1
		c-0.2,0-0.5,0-0.5,0c0,0,0-0.2,0.6-0.9c0.1,0,1.1-0.9,1.7-2.2c0.4,0.8,1.1,2,2.2,3.1c0,0.1,0.1,0.2,0.1,0.2c0,0-0.1,0-0.4,0
		c-0.2,0-0.3,0-0.4,0.2c-0.1,0.1-0.1,0.3,0,0.4c0.1,0.2,1.2,1.7,2,2.5c-0.2,0-0.6,0-0.9-0.1c-0.2,0-0.3,0.1-0.4,0.2
		c-0.1,0.1,0,0.3,0.1,0.4c0.2,0.3,2.3,2.4,2.8,2.9c0,0-0.1,0-0.2,0c-0.3,0-1.1-0.4-1.5-0.5c-0.2-0.1-0.4,0-0.5,0.1
		c-0.1,0.2-0.1,0.4,0,0.5c0,0,2.3,2.3,3.1,3.1c-0.4-0.1-1.1-0.3-2.3-0.7c-0.2-0.1-0.4,0-0.5,0.2c-0.1,0.2,0,0.4,0.2,0.5
		c0,0,1.8,1.1,3.4,3.1c-0.1,0-0.3,0-0.6-0.1c-0.1,0-1.8-0.7-4.2-0.9c0,0,0,0,0,0c-0.3,0-0.6,0-0.9-0.1c-0.6,0-1.3,0-1.9,0.1"/>
        <path d="M13.6,28.8h-0.5c-0.2,0-0.4,0.2-0.4,0.4s0.2,0.4,0.4,0.4h0.5c0.2,0,0.4-0.2,0.4-0.4S13.8,28.8,13.6,28.8z"/>
        <path d="M1.9,28.8H1c-0.2,0-0.4,0.2-0.4,0.4s0.2,0.4,0.4,0.4h0.9c0.2,0,0.4-0.2,0.4-0.4S2.1,28.8,1.9,28.8z"/>
</g>
</svg>
