<?xml version="1.0" encoding="UTF-8" standalone="no"?>
<svg xmlns:rdf="http://www.w3.org/1999/02/22-rdf-syntax-ns#" xmlns="http://www.w3.org/2000/svg" height="1773pt" width="1444pt" version="1.1" xmlns:cc="http://creativecommons.org/ns#" xmlns:dc="http://purl.org/dc/elements/1.1/" viewBox="0 0 1444 1773">
<path fill="#040101" d="m696.57 0h17.89c39 3.01 74.41 20.38 110.37 34.17 29.61 15.65 57.92 34.53 81.77 58.22 33.46 39.59 63.48 82.01 91.25 125.75 24.75 31.22 40.25 69.35 64.15 100.65 39.2-46.47 93.8-80.88 125.5-134.28 16.5-19.81 40.9-35.04 67.3-35.22 12.5-0.69 24.2-10.64 36.8-6.94-2.2 9.46-16.4 12.94-23.6 20.49 21.3-0.72 40.6-12.07 59.8-19.64 2.3 0.85 6.4 3.12 4.3 5.94-17 31.95-48.8 52.24-81.6 65.36-12.5 10.48-31.1 2.23-42.4 15.62-35.5 32.34-55.3 77.4-87.3 112.68-7.2 11.5-19.3 20.67-24.5 33.01 22.9 55.1 64.3 99.5 94.2 150.69 19.7 26.23 30.5 57.51 48.3 84.75 19.1 46.52 43.5 90.95 57.4 139.52 15.3 45.75 26.1 97.76 5.2 143.52-15.8 38.85-66.3 52.42-102.4 34.72-39.8-20.06-81.6-38.56-114.2-69.84-28.6-25.04-54.7-52.73-82.8-78.14-39.6-31.72-77.51-66.75-124.05-87.97-40.92-18.29-87.45-24.54-131.6-16.68-30.72 5.68-58.79 24.92-71.92 53.69-1.9 9.18 8.26 3.94 13.47 4.75 49.32 10.9 77.75 62.93 82.29 110.01 0.17 3.74 0.37 7.5 0.61 11.28 4.18 36.28-0.84 74.42 13.03 109.13 9.44 46.56 29.41 92.56 63.76 126.16 30.59 21.4 67.78 29.1 104.38 31.7 8.34 0.9 16.77 1 25.18 0.7 66.75 1 142.55-4.6 199.15 37.9 9.7 5.8 21.1 11.3 25.7 22.4 10.2 21.9 23.5 45.9 16.2 70.9-2.3 11.9-13.5 18.2-20 27.5 52.1 6.2 108.7 4.7 154.8 33.5 20 11.6 33.2 34.6 30.9 57.9 0 13.1-13.3 19.9-18 31 27.8 11.3 63.5 15.6 78.1 45.7v3.5c-3.8 22.9-22.4 40.9-43.8 48.1-31.2 16.3-64.6 28.5-98.8 36.4-72.9 8.1-144.6 25.3-218 27.6-100.48 14.8-202.48 20.3-302.08 41.1-92.69 17.1-182.18 49.8-265.5 93.6-29.62 11-57.83 25.2-86.35 38.6-37.17 9.1-73.19 28.5-112.53 22.5-9.95-2.1-20.07-0.1-29.41 3.5-15.34 5.2-31.84 3.8-47.46 7.5h-40.25c-30.89-2.5-59.42-16.3-90.4-18.5-20.59 0.4-33.46-18.2-50.94-25.9-32.42-31.1-50.01-74.6-58.48-118.2v-23.8c1.26-5 3.81-9.7 7.02-13.7 21.24-20.1 43.3-39.3 64.36-59.5 52.3-47.4 77.13-115.3 104.58-178.4 14.37-27.7 25.24-57.2 41.05-84 35.6-65.8 84.33-123 131.19-180.8 10.74-11.8 24.73-19.8 36.16-30.8 22.37-17.9 29.53-49.1 54.76-64.26 34.23-41.47 65.71-86.11 87.28-135.71 6.51-15.74 4.23-33.16 6.31-49.62 10.7-51.2 13.02-107.55 48.08-149.58 3.77-20.88 23.23-37.96 19.19-60.71 0.88-9.13-7.37-16.96-16.04-17.7-23.59-2.25-47.56-3.11-70.97 1.21-41.96 3.17-81.16 28.64-124.04 18.99-18.72-3.15-34.38-13.98-50.01-23.93-49.56-28.33-97.2-60.31-140.88-97.13-24.26-17.24-57.86-30.52-86.65-16.32-17.44-2.45-34.03-9.2-51.63-11.02-9.23-15.51-36.01 5.03-49.53-7.96 1.43-14.76 19.87-12.92 27.61-22.86 44.73-33.89 107.46-23.6 152.93 3.44 71.38 27.35 126.77 88.69 203.02 105.37 32.01-2 63.29-9.47 94.88-14.65 21.02-15.49 48-17.6 72.32-24.96 27.55-13.5 57.26-21.24 86.33-30.57 22.68-23.47 59.33-46.19 51.74-84.32-5.42-28.81-33.83-43.87-57.14-57.05-10.78-3.43-19.54-11.08-22.95-21.99-19.64-7.09-31.82-26.11-36.87-45.56-2.22-41.06 22.13-77.83 47.36-108 4.17-6.03 12.74-11.96 9.39-20.21-8.22-20.73-12.41-47.32 0.59-66.92 14.99-17.17 32.64-36.27 57.13-37.38m2.11 4.5c-23.82 0.96-38.92 19.65-54.1 35.09-13.74 20.22-5.65 46.58-0.58 68.38 24.84-21.89 59.33-39.15 92.79-28.4-0.28-14.11 17.87-20.22 29.21-14.9 74.54 22.81 124.05 90.44 156.72 157.6 28.16 51.4 51.87 105.06 77.48 157.76 25-10.97 40.1-35.95 57.3-54.9-33.1-60.22-66.87-120.72-110.4-174.23-31.35-49.28-76.06-91.14-129.09-116.05-42.22-0.93-75.86-36.74-119.33-30.35m54.86 64.93c-5.87-0.55-18.58 5.13-12.72 11.8 18.99 7.06 30.1 27.09 28.71 46.94 4.89 1.16 10.09 1.96 14.1 5.29 44.51 28.26 67.35 77.59 99.41 117.52 25.74 48.75 52.87 97.01 72.53 148.66 14.16-1.78 26.23-11.16 39.2-16.55-23.42-53.5-46.42-107.45-75.77-158.1-12.99-32.62-35.13-60.28-55.74-88.26-28.96-31.71-65.46-63.04-109.72-67.3m-42.74 13.23c-22.01 1.46-43.23 10.85-59.62 25.49-10.16 6.98-0.97 19.96 4 27.11 5.34-14.26 20.15-19.61 33.47-23.76 26.26-3.45 48.87 13.2 74.1 16.31 6.34-13.88-3.97-27.27-11.16-38.38-11.96-7.71-27.12-8.15-40.79-6.77m-15.59 29.78c-18.5 1.81-37.65 17.37-36.23 37.24-1.16 7.42 6.57 13.28 13.45 12.31 26.21 2.04 53.6-7.93 79.11 0.51 28.13 10.83 37.07 47.64 22.64 72.73-7.38 9.39 3.62 21.35 4.48 29.19 1.17-18.14 20.92-21.28 30.57-33.18 17.75-10.94 9.37-34.35 4.81-50.26-7.51-13.61-17.34-27.13-30.76-35.35-30.48-7.91-56.9-27.94-88.07-33.19m-56.09 7.81c-21.69 27.87-44.34 57.22-51.07 92.77-4.18 15.74 0.45 33.51 11.44 45.49 15.19 15.15 37.83 15.51 57.76 18.44-2.28-3.43-5.72-6.03-7.08-10.16-2.92-1.21-13.55 0.55-6.46-3.01 8.59-7.43-15.86 0.54-10.55-12.01-3.24-7.43 1.47-4.59 6.74-3.85-2.06-20.02-16.59-35.49-28.01-50.91-2.76-3.68-2.18-10.87 2.99-11.99 4.43 5.75 6.95 13.58 14.95 15.5 13.24 3.51 23.39-6.94 33.19-13.74-20.19-2.63-29.42-30.37-16.71-45.4 0.4-7.38-1.91-16.15-7.19-21.13m12.2 22.16c-5.68 8.2-3.31 18.48-2.3 27.69 0.21-5.8 3.84-9.14 8.95-11.03-3.35-5.06-4.79-10.97-6.65-16.66m624.28 7c-9.7 1.95-18.8 6.56-28.7 7.57-22.6-0.74-42.7 14.03-55 31.91-42.6 63-109.4 105.04-152.4 167.64-53.22 47.31-124.27 67.84-192.32 83.49 26.21 21.68 62.89 31.5 96.96 32.5 26.71-15.8 57.16-24.79 82.46-42.9 48.6-28.18 79.9-76.5 112.1-120.89 20.6-32.19 46.5-60.78 73.7-87.42 30.7-12.37 67-16.38 90.2-42.77 5.8-11.11 18.8-16.33 23.6-28.34-25.3 10.23-51 18.95-78 23.69-1.3-1.85-4.6-5.44 0.8-5.89 10.1-5.71 19-13.23 29-19.03-0.6 0.11-1.8 0.33-2.4 0.44m-472.82 4.79c13.42 16.4 23.98 35.69 23.48 57.47 11.94 23.69 17.18 49.84 17.41 76.29 20.58 43.95 31.51 92.38 36.5 139.81 23.26-6.48 49.74-10.31 69.66-25.03-18.71-51.34-39.82-102.28-71.24-147.34-24.75-33.92-44.78-72.32-75.81-101.2m-144.46 8.75c-4.18 4.08-7.68 15.22 0.81 16.07 5.23 4.93 12.32-4.92 14.65 3.81-12.39 11.35-24.83 24.49-42.41 26.62-4.16 10.06 10.67 15.48 11.1 25.16 2.41 4.23-0.52 12.03 5.4 13.39 7.91-10.24 22.53-3.11 31.92 0.19-1.3 12.11-15.17 13.73-22.83 18.65 17.89 20.19 31.47 46.02 55.52 59.65 14.68 9.03 33.3-2.08 40.17-15.9 6.01-17.4 14.48-34.65 14.52-53.44 0.75-10.89-0.39-22.64 5.69-32.31 12.49-24.43-6.63-55.62-32.43-60.6-27.32-3.72-55.49 8.51-82.11-1.29m167.25 58.52c-6.6 11.87-17.3 20.39-28.78 27.22-10.07 6.09-10.15 18.19-15.61 27.4 8.32 26.64 2.78 57.17 7.74 85.18 7.64-21.83 33.88-30.81 41.09-53.24 12.89-27.31 4.94-61.7-4.44-86.56m-171.4 32.36c-5.93 5.2 6.05 6.61 0 0m116.46 12.66c-5.9 17.96-4.64 39.75-19.51 53.64-6.87 8.68-17.56 12.6-27.91 15.28-1.51 16.59 1.09 33.26 0.16 49.81-8.28 24-27.06 42.89-50.22 52.94-33.5 13.68-71.14 17.46-102.56 36.2 20.89 4.21 42.66 2.18 63.89 4.2 67.92 6.62 137.87-11.5 198.23-40.62-16.26-6.21-36.44-10.04-52.55-19.3 4.52-49.85 4.06-106.18-9.53-152.15m-139.31 11.94c-11.93 0.03 4 15.09 8.56 17.74 34.49 12.84 75.16 42.71 63.84 84.57-2.41 25.97-29.81 37-42.61 56.35 23.7-11.79 51.34-24.59 59.64-52.14-5.49-17.25 6.58-36.83-4.88-52.89-18.41-6.94-34.38-21.67-43.63-39.28-11.4-9.08-26-15.69-40.92-14.35m210.79 15.44c-3.39 12.74-11.3 23.41-17.29 34.9-17.92 12.08-29.64 30.64-38.65 49.57 3.47 12.35-10.15 40.56 10.62 40.97 26.15 3.43 50.53 22.45 77.03 10.51-1.95-46.96-16.77-91.82-31.71-135.95m188.89 143.19c17.9 24.92 26.6 54.68 36.7 83.24 22.6 53.27 43.8 107.19 68.5 159.55 19.6 66.6 48.9 130.48 61.8 199.09 4.1 14.36 7.6 31.91 0.1 45.05 21.8 12.6 51.1 13.06 73.1-0.23 1.1 0.22 1.7-0.23 1.7-1.37 39-29.5 41.3-84.54 32.4-128.64-22.3-75.77-52.2-149.38-90.5-218.59-33.1-69.72-91-124.51-121.2-195.86-19.7 20.13-38.9 41.99-62.6 57.76m-937.39-49.54c-31.26 0.74-55.6 19.3-79.63 36.65 11.3 3.29 24.54 1.78 35.77-2.5 22.12-4.49 45.13-3.28 67.4-0.2 1.24 1.18 1.75 2.92 1.8 4.6-18.45 1.88-37.49-4.95-55.72 0.21 2.17 6.17 14.15 4.34 20.06 7.42 26.49 9.16 54.92-4.38 81.25 4.82 44.25 17.84 77.62 53.35 117.29 78.66 29.86 15.76 56.69 36.49 86.23 52.76 18.55 7.15 39.51 13.59 59.02 6.09 43.11-8.78 86.62-26.27 130.95-20.93-12.37-20.11-32.14-34.17-52.08-46-9.85-7.85-23.98-7.69-35.24-3.3-32.47 6.64-66.2 14.63-99.28 6.79-49.86-16.34-89.52-51.96-134.51-77.52-46.23-19.67-90.14-53.82-143.31-47.55m930.79 52.96c-15.3 7.71-30.93 14.66-46.34 22.02 4.11 24.57 11.1 49.04 21.84 71.64 23.3 92.47 51.4 185.52 46.1 282.01 40.3 44.93 90.6 82.79 146.9 105.58 5.4-3.38 3.5-12.03 3.3-17.84-1.4-67.55-36.9-127.41-52.3-191.8-22.1-51.77-42.9-104.22-65-155.96-23.9-35.8-22.6-86.5-54.5-115.65m-187.03 3.9c-57.81 32.28-113.82 68.5-163.87 112.11-39.63 41.69-93.01 74.79-111.59 132.44 37.05-41.15 83.17-76.03 136.18-93.77 11.86-6.04 24-12.76 37.65-13.08 19.75-17.64 45.05-26.46 67.57-39.75 43.33-20.5 83.33-49.75 130.03-62.5-20.61-2.89-40.2-10.97-60.48-15.61-11.71-6.56-22.81-16.02-35.49-19.84m-36.84 14.04c-43.02 14.73-87.86 25.86-133.54 26.97 14.67 10.8 31.25 21.13 39.23 38.25 28.57-25.52 63.3-44.91 95.8-65.59-0.37 0.09-1.12 0.28-1.49 0.37m171.84 4.99c-11.92 4.99-24.66 8.8-34.79 17.18-10.62 8.13-25.35 8.47-35.55 16.88 9.89 70.35 20.12 142.49 14.53 212.91 45.72 28.74 85.94 66.21 125.64 101.46 0.4-80.33-15.8-159.38-34.1-237.04-10.56-37.3-28.8-74.97-35.73-111.39m-407.89 16.16c-23.78-0.91-46.39 7.35-67.45 17.5 21.79 15.21 48.71 26.9 63.76 50.08 8.24 17.62 35.94 1.04 42.17 20.9 10.72 18.66-2.85 37.87-8.03 55.78 19.9-22.77 45.32-42.04 66.54-62.66-9.66-29.97-34.91-50.07-57.7-69.94-11.44-7.68-25.35-12.91-39.29-11.66m36.94 3.87c24.58 17.8 50.58 43.76 66.66 72.51 8.64-12.29 31.13-18.25 30.15-34.63-14.1-13.43-26.09-31.49-45.73-37.1-17-0.61-34.07 0.14-51.08-0.78m293.99 17.09c-10.99 4.4-23.62 10.01-30.76 19.23-6.01 53.55-20.46 106.62-50.78 151.65 35.19 4.94 68.74 17.41 99.33 35.42 4.02-68.89-9.01-139.96-17.79-206.3m-39.05 19.83c-12.68 3.92-22.38 13.43-34.49 18.52-5.82 3.88-16.39 4.5-16.79 13.2-1.9 15.06-9.11 28.11-15.26 41.68-19.03 27.41-32.32 59.79-59.66 80.57 23.97-3.15 51.66-8.37 76.96-3.94 20.7-29.58 38.03-65 42.21-102.01 3.71-16.1 5.43-32.57 9.33-48.62-0.58 0.15-1.73 0.45-2.3 0.6m-55.92 31.04c-27.9 10.64-55.27 25.46-76.18 46.87-43.14 32.5-65.7 87.25-73.57 139.35 31.89-0.69 30.64-46.32 59.38-54.56 40.6-34.2 73.73-80.86 91.89-132.05-0.38 0.1-1.14 0.3-1.52 0.39m-79.66 39.1c-63.26 19.82-123.12 58.02-161.02 113.23-10.05 24.79-12.17 52.28-18.96 78.13 22.19-51.5 69.21-89.75 121.54-108.46 13.22-30.39 32.74-58.28 58.18-79.72 1.93-0.95 8.52-6.66 0.26-3.18m-63.63 91.68c-46.1 15.4-86.59 51.05-106.27 95.62 17.64-17 39.97-27.06 63.17-33.81 4.38-0.6 8.79-1.35 12.98-2.81 5.43-0.74 10.88-1 16.32-1.69 3.85-19.15 9.42-38.9 13.8-57.31m8.87 56.3c-4.36 3.98-14.92-1.32-15.76 5.14 21.89 8.1 32.03 30.62 44.7 48.43 22.13 47.95 17.37 102.45 21.52 153.64 2.96 75.61 11.97 160.21 67.43 217.41 17.47 9.1 28.61 36.5 52.24 23.1 20.01-13.8 44.91-18.5 62.44-35.7 17.31-9.7 36.28-17.8 55.54-21.4-24.46-4.2-50.74-1.4-73.16-14.1-16.37-9.9-38.49-15.3-48.21-32.8-39.95-41.2-45.81-101.52-63.25-153.69-4.34-40.99 0.88-83.91-13.58-123.47-13.65-36.13-48.29-72.05-89.91-66.56m-133.98 93.51c-6.05 20.12-13.25 39.88-18.88 60.15-40.53 105.52-69.66 218.26-59.27 332.26 4.12-8.3 4.01-18.6 6.39-27.5-6.23 56.8-5.62 116.8 14.54 171.4 11.06 55.5 44.85 105.6 43.88 163.7-1.54 14.4-0.64 29.3-5.77 43 19.47-28.2 35.33-60.4 55.36-87.6-5.14-5.4 4.41-9.5 1.79-15.7 0.96-17.5-1.77-35-5.82-52-16.09-133.9 23.62-267.3 81.69-386.7 18.96-33.47 28.59-71.04 42.14-106.83 2.57-36.95 10.5-74.28 3.99-111.29-1.39-22.7-14.77-47.63-32.48-59.28 5.18 25.49 13.69 56.43-5.24 78.77-29.05 49.9-71.25 90.89-100.01 140.94-11.64 12-18.04 27.89-27.6 41.49-20.76 42.2-44.01 84.2-53.19 130.8-1.16 13.3-8.06 25.1-9.58 38.3-0.34-0.5-1.01-1.5-1.35-2.1 9.63-56.7 27.38-113.1 58.11-162.1 5.49-19.4 20.22-33.89 30.07-50.94 26.46-47.85 65.99-86.57 96.23-131.73 13.7-21.27 15.53-47.97 9.93-72.11-0.23-8.88-5.4-19.25-15.21-19.88-49.96-1.26-103.59 32.67-109.72 84.95m174.19 28.8c-9.69 51.35-16.75 104.02-38.37 152.11-13.85 39.6-25.11 80.5-27.03 122.7-7.02 57.2 6.74 121.5 46.02 164.4 31-44.9 73.06-82.2 121.13-108.1-31.65-28.5-59.43-62.9-72.91-104-24.48-73.1-21.94-151.4-28.84-227.11m-260.93 112.51c-42.41 37.8-65.88 90.9-87.77 142.2-45.61 100.4-48.15 215-34.56 322.8 0.78 37.9-0.92 75.8-4.17 113.6-8.32 77.7-35.03 153.1-79.61 217.4 47.91-6.1 95.7-20.3 136.48-46.6 56.03-42.4 108.99-93.6 135.02-160.1 18.33-96.1-55.35-176-56.52-269.8 0.47-20.4-3.17-40.3-5.78-60.3-5.65-112.7 14.96-226.1 54.69-331.35-19.75 22.88-37.74 48.96-57.78 72.15m223.09 22.04c-43.66 95.26-88.45 192.56-97.97 298.26-2.92 60.8 5.31 122 5.08 182.5 33.38-57.2 67.65-113.9 105.44-168.3-11.1-23.4-28.17-44.4-34.73-70-18.92-50.9-12.44-106.2-2.56-158.1 8.25-27.7 20.04-57.7 24.74-84.36m-368.26 172.76c-42.19 85.7-57.87 181.3-82.9 272.9-7.67 17.3-11.58 36-20.18 53-9.23 29.6-28.33 54.9-40.63 83.2-25.76 38.4-47.81 81.2-71.78 121.4-5.95 9.8-17.16 16-20.67 27.2 10.37 8 22.6 13.8 32.96 21.9 45.14 2.7 87.61 22.3 133.23 21.1 9.4-10.1 19.95-19.7 26.83-31.9 28.18-57.4 52.09-118.2 58.55-182.3 2.73-36.6 0.69-76.6 0.67-114.7-4.8-62.9-9.09-126.8 1.28-189.5 4.7-73.9 33.92-143.8 70.3-207.6-34.44 37.2-67.37 78.2-87.66 125.3m-95.41 111.6c-17.66 45.3-41.13 88.3-57.69 134-15.46 24.8-27.01 52.5-47.05 74.3-16.14 25.1-40.06 43.9-59.11 66.1-12.08 8.6-21.01 21.6-34.46 28.7-1.45 48.8 15.46 98.9 48.52 135.3 1.56 1.4 3.56 2.7 5.75 2.7 20.53-20.1 31.01-47.4 48.31-69.8 13.33-24.8 28.61-48.7 40.43-74.2 27.82-42.3 44.65-89.9 62.24-137 25.45-66.1 27.81-138.8 56.14-204 15.66-62.4 51.23-117.5 90.04-168-57.79 64.9-110.49 135.7-153.12 211.9m782.92-151.1c-26.86 4.8-55.52 9-78.59 24.5 46.73 45.1 107.85 71 168.25 92.6 37.7 12.9 73.6 32 113.4 38.1 4.2-6.7 9.1-12.8 16.1-17.1 18.5-25.6 4.2-57.3-8.8-81.7-55.6-52.1-137.4-60.2-210.36-56.4m-168.68 69.3c16.49 19.9 35.9 37.8 54.82 54.8 30.77 24.2 61 52.3 98.53 65.6 41.09-10.3 83.89-17.6 124.69-27.4 14.6-1.1 28.8-4.1 43.3-5.8 8.7-0.7 17.4-0.3 26-1.7-6.9-3.7-14.6-5.9-22.4-7.3-27.4-5.9-50.2-25.6-78-30-2.3-1.1-4.7-1.9-7-2.6-1.2-2.5-5.9-1.9-8.3-3.2-48.1-16.7-94.75-39.4-134.49-71.4-1.23-8.6-10.87-5.5-14.27-11.6-26.88 14.8-54.77 29.8-82.88 40.6m-7.54-0.2c-41.44 13.8-69.34 48.8-98.43 79.3-56.48 72-105.41 150.1-150.09 229.8 36.91-36 83.13-60.4 126.83-86.7 31.33-19.8 64.19-37.5 99.02-50.4 30.57-7 57.78-24.3 88.66-30.3 27.25-5.9 53.97-14.4 81.62-18.3-22.47-18.7-53.85-28.4-72.47-52.7-5.81-4.2-11.61-8.6-17.7-12.4-16.18-15-33.53-29.1-48.57-45.5-3.34-3.9-2.12-12.7-8.87-12.8m339.18 90.9c-13.3 1.8-30.3 0.8-41.2 7.2 28.5 22.5 63.4 38.8 95.6 55.3 20.2 3 37.8 14.5 57.5 19.3 26.1 13 54.6 19.4 81.8 29.4 21.9 8.8 40.1-20.4 35.8-39.7-4.8-13-8.2-28.7-21.8-35.4-40.1-29.6-92.5-28.9-139.8-36.3-22.6-0.8-45.3-0.7-67.9 0.2m-162.65 31.4c-33.24 9.5-68.84 12.6-101.83 24.3 3.69 14.9 17.6 25 27.56 36 15.64 18.1 33.52 35.1 51.19 50.4 34.89 34.5 71.63 67.5 109.03 99.3 12.1 13 29.8 18 42.9 30.2 52.4-2.8 104.4-15.7 156.9-21.4 25.4-6.6 53.3-7 77.6-18.5 22.7-13.6 50.7-17.2 70.9-35.1 9.7-11 25.6-26.5 14-41.4-34.6-32.3-84.8-32.2-126.3-50.7-72.1-25.8-147.5-48.6-208.5-97.1-37.8 8-76 14.4-113.45 24m-131.07 31c-33.66 11.3-66.17 25.7-99.73 37.3 6.85 29.4 18.45 59.3 35.82 83.5 25.13 38.1 43.55 80.5 70.71 117.2 75.9-6.8 151.12-18.9 226.62-28 3.3-0.6 20.1 2.6 12.4-3.9-10.1-5.5-17.8-14.8-28.3-19.5-8.6-7-17-14.8-26.5-20.5-30.5-28.6-59.58-59.5-91.87-86.2-20.72-27.3-57.93-47.5-74.04-81-5.56-10.8-16.84 2.5-25.11 1.1m-194.64 91.2c-25.05 10.7-45.93 28.6-67.9 44.2-17.78 17.4-42.14 29.2-53.36 52.6-14.2 21.3-23.29 45.6-39.08 65.9-26.38 40.9-63.75 72.5-99.75 104.3-9.05 3.4-16.89 9.6-22.57 17.4-19.19 11.3-38.58 22.7-59.46 30.8 37.94 4 76.78-9.5 111.94-24.4 32.84-16.2 65.8-32.8 100.29-44.7 99.32-53.9 212.12-83.1 322.44-98.3 0.38-7.7-7.09-12.5-9.77-19-17.2-33.6-37.97-65.2-58.28-97-14.22-25.6-28.7-51.9-35.08-81-33.1 8.8-59.78 32.9-89.42 49.2z"/>
<path fill="#feeafb" d="m698.68 4.5c43.47-6.39 77.11 29.42 119.33 30.35 53.03 24.91 97.74 66.77 129.09 116.05 43.53 53.51 77.3 114.01 110.4 174.23-17.2 18.95-32.3 43.93-57.3 54.9-25.61-52.7-49.32-106.36-77.48-157.76-32.67-67.16-82.18-134.79-156.72-157.6-11.34-5.32-29.49 0.79-29.21 14.9-33.46-10.75-67.95 6.51-92.79 28.4-5.07-21.8-13.16-48.16 0.58-68.38 15.18-15.44 30.28-34.13 54.1-35.09m143.53 67.81c-2.36 0.4-0.48 3.7 1.09 4.41 39.19 31.21 74.39 67.11 106.34 105.64 29.98 40.78 58.06 86.29 89.16 124.18-23.6-40.35-51.21-79.55-77.97-118.37-26.76-34.68-49.52-73.12-82.6-102.39-9.65-9.07-23.67-10.8-36.02-13.47z"/>
<path fill="#fed9f2" d="m753.54 69.43c44.26 4.26 80.76 35.59 109.72 67.3 20.61 27.98 42.75 55.64 55.74 88.26 29.35 50.65 52.35 104.6 75.77 158.1-12.97 5.39-25.04 14.77-39.2 16.55-19.66-51.65-46.79-99.91-72.53-148.66-32.06-39.93-54.9-89.26-99.41-117.52-4.01-3.33-9.21-4.13-14.1-5.29 1.39-19.85-9.72-39.88-28.71-46.94-5.86-6.67 6.85-12.35 12.72-11.8m91.65 70.9c-3.2 4.65 2.66 10.9 3.97 15.53 26.33 48.09 58.17 92.96 88.47 138.51 12.53 22.11 22.01 46.15 35.51 67.53-1.5-7.18-5.25-13.61-7.52-20.54-12.58-45.83-42.64-83.68-65.21-124.76-15.42-22.47-29.37-45.93-44.19-68.74-3.23-2.65-6.68-7.52-11.03-7.53z"/>
<path fill="#fefbfe" d="m842.21 72.31c12.35 2.67 26.37 4.4 36.02 13.47 33.08 29.27 55.84 67.71 82.6 102.39 26.76 38.82 54.37 78.02 77.97 118.37-31.1-37.89-59.18-83.4-89.16-124.18-31.95-38.53-67.15-74.43-106.34-105.64-1.57-0.71-3.45-4.01-1.09-4.41z"/>
<path fill="#fc4044" d="m710.8 82.66c13.67-1.38 28.83-0.94 40.79 6.77 7.19 11.11 17.5 24.5 11.16 38.38-25.23-3.11-47.84-19.76-74.1-16.31-13.32 4.15-28.13 9.5-33.47 23.76-4.97-7.15-14.16-20.13-4-27.11 16.39-14.64 37.61-24.03 59.62-25.49m12.86 4.89c-18.43 2.57-37.86 4.98-54.76 12.54 28.36-5.59 58.07-1.59 83.26 12.73-5.31-11.33-13.66-27.59-28.5-25.27z"/>
<path fill="#feb5dc" d="m723.66 87.55c14.84-2.32 23.19 13.94 28.5 25.27-25.19-14.32-54.9-18.32-83.26-12.73 16.9-7.56 36.33-9.97 54.76-12.54z"/>
<path fill="#fef7ff" d="m695.21 112.44c31.17 5.25 57.59 25.28 88.07 33.19 13.42 8.22 23.25 21.74 30.76 35.35 4.56 15.91 12.94 39.32-4.81 50.26-9.65 11.9-29.4 15.04-30.57 33.18-0.86-7.84-11.86-19.8-4.48-29.19 14.43-25.09 5.49-61.9-22.64-72.73-25.51-8.44-52.9 1.53-79.11-0.51-6.88 0.97-14.61-4.89-13.45-12.31-1.42-19.87 17.73-35.43 36.23-37.24z"/>
<path fill="#fef8fe" d="m639.12 120.25c5.28 4.98 7.59 13.75 7.19 21.13-12.71 15.03-3.48 42.77 16.71 45.4-9.8 6.8-19.95 17.25-33.19 13.74-8-1.92-10.52-9.75-14.95-15.5-5.17 1.12-5.75 8.31-2.99 11.99 11.42 15.42 25.95 30.89 28.01 50.91-5.27-0.74-9.98-3.58-6.74 3.85-5.31 12.55 19.14 4.58 10.55 12.01-7.09 3.56 3.54 1.8 6.46 3.01 1.36 4.13 4.8 6.73 7.08 10.16-19.93-2.93-42.57-3.29-57.76-18.44-10.99-11.98-15.62-29.75-11.44-45.49 6.73-35.55 29.38-64.9 51.07-92.77z"/>
<path fill="#fec8e5" d="m845.19 140.33c4.35 0.01 7.8 4.88 11.03 7.53 14.82 22.81 28.77 46.27 44.19 68.74 22.57 41.08 52.63 78.93 65.21 124.76 2.27 6.93 6.02 13.36 7.52 20.54-13.5-21.38-22.98-45.42-35.51-67.53-30.3-45.55-62.14-90.42-88.47-138.51-1.31-4.63-7.17-10.88-3.97-15.53z"/>
<path fill="#fdf9fe" d="m651.32 142.41c1.86 5.69 3.3 11.6 6.65 16.66-5.11 1.89-8.74 5.23-8.95 11.03-1.01-9.21-3.38-19.49 2.3-27.69z"/>
<path fill="#ffbfc0" d="m1275.6 149.41c0.6-0.11 1.8-0.33 2.4-0.44-10 5.8-18.9 13.32-29 19.03-5.4 0.45-2.1 4.04-0.8 5.89 27-4.74 52.7-13.46 78-23.69-4.8 12.01-17.8 17.23-23.6 28.34-23.2 26.39-59.5 30.4-90.2 42.77-27.2 26.64-53.1 55.23-73.7 87.42-32.2 44.39-63.5 92.71-112.1 120.89-25.3 18.11-55.75 27.1-82.46 42.9-34.07-1-70.75-10.82-96.96-32.5 68.05-15.65 139.1-36.18 192.32-83.49 43-62.6 109.8-104.64 152.4-167.64 12.3-17.88 32.4-32.65 55-31.91 9.9-1.01 19-5.62 28.7-7.57z"/>
<path fill="#fed2eb" d="m802.78 154.2c31.03 28.88 51.06 67.28 75.81 101.2 31.42 45.06 52.53 96 71.24 147.34-19.92 14.72-46.4 18.55-69.66 25.03-4.99-47.43-15.92-95.86-36.5-139.81-0.23-26.45-5.47-52.6-17.41-76.29 0.5-21.78-10.06-41.07-23.48-57.47m50.05 94.02c28.94 47.11 47.9 99.38 70.61 149.53-6.63-35.72-11.37-79.24-36.3-109.89-10.02-14.32-21.06-28.22-34.31-39.64z"/>
<path fill="#ffbfc0" d="m658.32 162.95c26.62 9.8 54.79-2.43 82.11 1.29 25.8 4.98 44.92 36.17 32.43 60.6-6.08 9.67-4.94 21.42-5.69 32.31-0.04 18.79-8.51 36.04-14.52 53.44-6.87 13.82-25.49 24.93-40.17 15.9-24.05-13.63-37.63-39.46-55.52-59.65 7.66-4.92 21.53-6.54 22.83-18.65-9.39-3.3-24.01-10.43-31.92-0.19-5.92-1.36-2.99-9.16-5.4-13.39-0.43-9.68-15.26-15.1-11.1-25.16 17.58-2.13 30.02-15.27 42.41-26.62-2.33-8.73-9.42 1.12-14.65-3.81-8.49-0.85-4.99-11.99-0.81-16.07m60.42 27.6c-16 4.57-27.43 19.54-31.53 35.23-0.76 18.04 8.76 34.3 18.11 48.96 2.45 3.52 4.51-2.82 2.67-4.72-8.42-14.3-20.09-29.12-15.18-46.98 5.08-12.4 12.51-27.21 27.39-28.71 3.94-0.59 14.18 3.29 13.61-3.27-4.97-0.95-10.07-1.35-15.07-0.51m21.39 9c-3.56 1.39-5.91 6.87-10.14 4.02-7.46 13.22-26.62 15.65-31.39 31.11-3.65 10.07 11.23 9.24 16.24 6.32 13.13-3.04 17.13-20.16 30.85-21.24 1.84-4.64-2.88-6.5 1.45-11.42-12.69 4.57 8.47-10.69-7.01-8.79m-86.35 24.92c-3.6 0.24-7.69 1.56-4.63 5.57 9.46-3.44 19.08-1.15 27.9 2.79-1.85-9.7-15.84-9.2-23.27-8.36m75.76 57.93c-8.57 7.69-23.91 5.91-29.5 17.62 5.01 6.52 17.95 11.19 25.37 5.17 1.03-6.64 5.15-20.56 4.13-22.79z"/>
<path fill="#070000" d="m718.74 190.55c5-0.84 10.1-0.44 15.07 0.51 0.57 6.56-9.67 2.68-13.61 3.27-14.88 1.5-22.31 16.31-27.39 28.71-4.91 17.86 6.76 32.68 15.18 46.98 1.84 1.9-0.22 8.24-2.67 4.72-9.35-14.66-18.87-30.92-18.11-48.96 4.1-15.69 15.53-30.66 31.53-35.23z"/>
<path fill="#020101" d="m740.13 199.55c15.48-1.9-5.68 13.36 7.01 8.79-4.33 4.92 0.39 6.78-1.45 11.42-13.72 1.08-17.72 18.2-30.85 21.24-5.01 2.92-19.89 3.75-16.24-6.32 4.77-15.46 23.93-17.89 31.39-31.11 4.23 2.85 6.58-2.63 10.14-4.02m-9.45 18.1c-2.91 2.51-9.3 1.42-7.1 6.76-1.23 14.62 10.37-7.84 7.1-6.76m-20.9 13.42c-12.65 13.1 15.08 5.49 0 0z"/>
<path fill="#fdfefe" d="m730.68 217.65c3.27-1.08-8.33 21.38-7.1 6.76-2.2-5.34 4.19-4.25 7.1-6.76z"/>
<path fill="#fed2f8" d="m825.57 221.47c9.38 24.86 17.33 59.25 4.44 86.56-7.21 22.43-33.45 31.41-41.09 53.24-4.96-28.01 0.58-58.54-7.74-85.18 5.46-9.21 5.54-21.31 15.61-27.4 11.48-6.83 22.18-15.35 28.78-27.22m-4.21 21.59c-8.96 13.03-2.96 32.09-11.22 45.96-8.14 11.96-12.85 28.37-12.24 41.88 7.03-7.72 10.27-20.52 18.44-28.55 13.69-15.8 16.19-44 5.02-59.29z"/>
<path fill="#070000" d="m653.78 224.47c7.43-0.84 21.42-1.34 23.27 8.36-8.82-3.94-18.44-6.23-27.9-2.79-3.06-4.01 1.03-5.33 4.63-5.57z"/>
<path fill="#fefdfe" d="m709.78 231.07c15.08 5.49-12.65 13.1 0 0z"/>
<path fill="#fef6fe" d="m821.36 243.06c11.17 15.29 8.67 43.49-5.02 59.29-8.17 8.03-11.41 20.83-18.44 28.55-0.61-13.51 4.1-29.92 12.24-41.88 8.26-13.87 2.26-32.93 11.22-45.96z"/>
<path fill="#feb3e6" d="m852.83 248.22c13.25 11.42 24.29 25.32 34.31 39.64 24.93 30.65 29.67 74.17 36.3 109.89-22.71-50.15-41.67-102.42-70.61-149.53z"/>
<path fill="#dcdcdc" d="m654.17 253.83c6.05 6.61-5.93 5.2 0 0z"/>
<path fill="#ffbfc0" d="m770.63 266.49c13.59 45.97 14.05 102.3 9.53 152.15 16.11 9.26 36.29 13.09 52.55 19.3-60.36 29.12-130.31 47.24-198.23 40.62-21.23-2.02-43 0.01-63.89-4.2 31.42-18.74 69.06-22.52 102.56-36.2 23.16-10.05 41.94-28.94 50.22-52.94 0.93-16.55-1.67-33.22-0.16-49.81 10.35-2.68 21.04-6.6 27.91-15.28 14.87-13.89 13.61-35.68 19.51-53.64z"/>
<path fill="#fed2f8" d="m631.32 278.43c14.92-1.34 29.52 5.27 40.92 14.35 9.25 17.61 25.22 32.34 43.63 39.28 11.46 16.06-0.61 35.64 4.88 52.89-8.3 27.55-35.94 40.35-59.64 52.14 12.8-19.35 40.2-30.38 42.61-56.35 11.32-41.86-29.35-71.73-63.84-84.57-4.56-2.65-20.49-17.71-8.56-17.74z"/>
<path fill="#0a0001" d="m729.54 282.4c1.02 2.23-3.1 16.15-4.13 22.79-7.42 6.02-20.36 1.35-25.37-5.17 5.59-11.71 20.93-9.93 29.5-17.62m-4.65 7.07c-5.36-0.43-6.54 8.62-11.61 5.27-5.4-2.1-5.39 7.52-0.91 8.95 8.13 6.94 12.98-7.8 12.52-14.22z"/>
<path fill="#ba0206" d="m724.89 289.47c0.46 6.42-4.39 21.16-12.52 14.22-4.48-1.43-4.49-11.05 0.91-8.95 5.07 3.35 6.25-5.7 11.61-5.27z"/>
<path fill="#ffc8e5" d="m842.11 293.87c14.94 44.13 29.76 88.99 31.71 135.95-26.5 11.94-50.88-7.08-77.03-10.51-20.77-0.41-7.15-28.62-10.62-40.97 9.01-18.93 20.73-37.49 38.65-49.57 5.99-11.49 13.9-22.16 17.29-34.9m-7.04 33.03c-9.81 9.86 4.06 21.22 6.29 31.72 5.66 19.29 14.02 37.71 17.77 57.56 3.92-7.01-1.12-15.41-0.35-22.88-3.13-23.11-2.61-51.6-23.71-66.4z"/>
<path fill="#eda1cb" d="m835.07 326.9c21.1 14.8 20.58 43.29 23.71 66.4-0.77 7.47 4.27 15.87 0.35 22.88-3.75-19.85-12.11-38.27-17.77-57.56-2.23-10.5-16.1-21.86-6.29-31.72z"/>
<path fill="#ffeafb" d="m1031 437.06c23.7-15.77 42.9-37.63 62.6-57.76 30.2 71.35 88.1 126.14 121.2 195.86 38.3 69.21 68.2 142.82 90.5 218.59 8.9 44.1 6.6 99.14-32.4 128.64 36.6-65.88 22.5-146.76-8-212.28-33.7-65.84-64-133.62-100.1-198.03 35.5 88.68 75 176 107.1 266.07 7.4 38.02 0.3 78.13-13.9 113.81-5.7 14.9-19.7 23.73-30.9 33.29 13.1 2.54 29.8 1.04 44.1-1.49-22 13.29-51.3 12.83-73.1 0.23 7.5-13.14 4-30.69-0.1-45.05-12.9-68.61-42.2-132.49-61.8-199.09-24.7-52.36-45.9-106.28-68.5-159.55-10.1-28.56-18.8-58.32-36.7-83.24m99.5 63.53c-0.4 6.98 3.2 13.27 5.1 19.82 26 70.3 50.9 141.07 73.4 212.58 5.9 26.65 18.8 51.86 18.3 79.7 0 12.87 4.4 28.45 17.8 33.12 7.8-0.84 12-9.68 11-16.87-11.8-106.31-65.9-200.36-108.6-296.4-6.5-9.87-10.9-24.67-17-31.95z"/>
<path fill="#ffbfc0" d="m93.61 387.52c53.17-6.27 97.08 27.88 143.31 47.55 44.99 25.56 84.65 61.18 134.51 77.52 33.08 7.84 66.81-0.15 99.28-6.79 11.26-4.39 25.39-4.55 35.24 3.3 19.94 11.83 39.71 25.89 52.08 46-44.33-5.34-87.84 12.15-130.95 20.93-19.51 7.5-40.47 1.06-59.02-6.09-29.54-16.27-56.37-37-86.23-52.76-39.67-25.31-73.04-60.82-117.29-78.66-26.33-9.2-54.76 4.34-81.25-4.82-5.91-3.08-17.89-1.25-20.06-7.42 18.23-5.16 37.27 1.67 55.72-0.21-0.05-1.68-0.56-3.42-1.8-4.6-22.27-3.08-45.28-4.29-67.4 0.2-11.23 4.28-24.47 5.79-35.77 2.5 24.03-17.35 48.37-35.91 79.63-36.65z"/>
<path fill="#ffd9f2" d="m1024.4 440.48c31.9 29.15 30.6 79.85 54.5 115.65 22.1 51.74 42.9 104.19 65 155.96 15.4 64.39 50.9 124.25 52.3 191.8 0.2 5.81 2.1 14.46-3.3 17.84-56.3-22.79-106.6-60.65-146.9-105.58 5.3-96.49-22.8-189.54-46.1-282.01-10.74-22.6-17.73-47.07-21.84-71.64 15.41-7.36 31.04-14.31 46.34-22.02m26.4 90.63c15.2 93.91 36.4 187.05 45.2 281.86-0.1 7.14 0.1 24.95 11.1 23.3 22.1-36.7 7.3-81.5-0.9-120.46-15.9-62.13-32.8-125.18-55.4-184.7m48.1 94.19c23.4 81.2 50.8 161.73 68.9 244.37-5 9.63-20 5.42-26 13.36 12.3 12.35 31.7 12.97 47.9 17.07-5.3-25.05-8.8-50.45-14.3-75.45-23.9-66.81-48.9-135.1-76.5-199.35z"/>
<path fill="#f76a8c" d="m837.37 444.38c12.68 3.82 23.78 13.28 35.49 19.84 20.28 4.64 39.87 12.72 60.48 15.61-46.7 12.75-86.7 42-130.03 62.5-22.52 13.29-47.82 22.11-67.57 39.75-13.65 0.32-25.79 7.04-37.65 13.08-53.01 17.74-99.13 52.62-136.18 93.77 18.58-57.65 71.96-90.75 111.59-132.44 50.05-43.61 106.06-79.83 163.87-112.11m-10.85 10.14c-17.61 8.38-32.12 22.55-46.71 35.29-13.63 15.36-32.68 25.6-44.79 42.14 39.37-22.8 81.72-40.02 125-53.94-9.22-9.23-21.16-20.12-33.5-23.49z"/>
<path fill="#f7abc7" d="m826.52 454.52c12.34 3.37 24.28 14.26 33.5 23.49-43.28 13.92-85.63 31.14-125 53.94 12.11-16.54 31.16-26.78 44.79-42.14 14.59-12.74 29.1-26.91 46.71-35.29z"/>
<path fill="#fe946d" d="m800.53 458.42c0.37-0.09 1.12-0.28 1.49-0.37-32.5 20.68-67.23 40.07-95.8 65.59-7.98-17.12-24.56-27.45-39.23-38.25 45.68-1.11 90.52-12.24 133.54-26.97z"/>
<path fill="#fed2eb" d="m972.37 463.41c6.93 36.42 25.17 74.09 35.73 111.39 18.3 77.66 34.5 156.71 34.1 237.04-39.7-35.25-79.92-72.72-125.64-101.46 5.59-70.42-4.64-142.56-14.53-212.91 10.2-8.41 24.93-8.75 35.55-16.88 10.13-8.38 22.87-12.19 34.79-17.18m-51.28 46.7c3.12 42.88 4.87 85.95 6.9 128.87 1.19 23.98-1.35 50.26 12.78 71.24 10.68 10.63 21.02 21.64 32.23 31.73-5.89-18.74-14.56-36.44-21.11-54.88-12.63-58.26-20.85-119.35-30.8-176.96m57.84 2.06c13.62 78.54 17.87 158.23 23.17 237.52 5.7 2.17 20.8 17.4 18.3 4-1.9-34.67-5.4-69.23-8.3-103.83-8.6-46.21-19.95-93.68-33.17-137.69m-10.91 9.07c0.2 44.76-4.2 89.37-8.73 133.86 0.63 9.42 1.19 27.16 13.79 26.21 12.89-14.18 10.21-35.25 9.78-52.92-4.78-35.44-6.23-73.94-14.84-107.15z"/>
<path fill="#ff6922" d="m564.48 479.57c13.94-1.25 27.85 3.98 39.29 11.66 22.79 19.87 48.04 39.97 57.7 69.94-21.22 20.62-46.64 39.89-66.54 62.66 5.18-17.91 18.75-37.12 8.03-55.78-6.23-19.86-33.93-3.28-42.17-20.9-15.05-23.18-41.97-34.87-63.76-50.08 21.06-10.15 43.67-18.41 67.45-17.5z"/>
<path fill="#fd8141" d="m601.42 483.44c17.01 0.92 34.08 0.17 51.08 0.78 19.64 5.61 31.63 23.67 45.73 37.1 0.98 16.38-21.51 22.34-30.15 34.63-16.08-28.75-42.08-54.71-66.66-72.51z"/>
<path fill="#ffc6e6" d="m895.41 500.53c8.78 66.34 21.81 137.41 17.79 206.3-30.59-18.01-64.14-30.48-99.33-35.42 30.32-45.03 44.77-98.1 50.78-151.65 7.14-9.22 19.77-14.83 30.76-19.23m-9.34 27.37c0.44 40.68-2.77 81.3-2.02 121.99 4.99 23.31-28.41 15.06-39.53 19.75 16.58 6.53 34.41 10.37 49.61 19.98 6.81-0.22 5.41-10.83 5.93-15.71-0.6-48.9-5.54-97.88-13.99-146.01z"/>
<path fill="#fffaff" d="m1130.5 500.59c6.1 7.28 10.5 22.08 17 31.95 42.7 96.04 96.8 190.09 108.6 296.4 1 7.19-3.2 16.03-11 16.87-13.4-4.67-17.8-20.25-17.8-33.12 0.5-27.84-12.4-53.05-18.3-79.7-22.5-71.51-47.4-142.28-73.4-212.58-1.9-6.55-5.5-12.84-5.1-19.82z"/>
<path fill="#f3abd1" d="m921.09 510.11c9.95 57.61 18.17 118.7 30.8 176.96 6.55 18.44 15.22 36.14 21.11 54.88-11.21-10.09-21.55-21.1-32.23-31.73-14.13-20.98-11.59-47.26-12.78-71.24-2.03-42.92-3.78-85.99-6.9-128.87z"/>
<path fill="#f3abd1" d="m978.93 512.17c13.22 44.01 24.57 91.48 33.17 137.69 2.9 34.6 6.4 69.16 8.3 103.83 2.5 13.4-12.6-1.83-18.3-4-5.3-79.29-9.55-158.98-23.17-237.52z"/>
<path fill="#fed2eb" d="m1164.8 512.08c36.1 64.41 66.4 132.19 100.1 198.03 30.5 65.52 44.6 146.4 8 212.28 0 1.14-0.6 1.59-1.7 1.37-14.3 2.53-31 4.03-44.1 1.49 11.2-9.56 25.2-18.39 30.9-33.29 14.2-35.68 21.3-75.79 13.9-113.81-32.1-90.07-71.6-177.39-107.1-266.07z"/>
<path fill="#ffc0e3" d="m856.36 520.36c0.57-0.15 1.72-0.45 2.3-0.6-3.9 16.05-5.62 32.52-9.33 48.62-4.18 37.01-21.51 72.43-42.21 102.01-25.3-4.43-52.99 0.79-76.96 3.94 27.34-20.78 40.63-53.16 59.66-80.57 6.15-13.57 13.36-26.62 15.26-41.68 0.4-8.7 10.97-9.32 16.79-13.2 12.11-5.09 21.81-14.6 34.49-18.52m-16.99 40.04c-14.2 38.19-33.1 82.06-73.03 99.83 10.63 2.15 27.31 4.53 38.95 0.12 18.03-29.89 31.52-66.81 34.08-99.95z"/>
<path fill="#ffeafb" d="m968.02 521.24c8.61 33.21 10.06 71.71 14.84 107.15 0.43 17.67 3.11 38.74-9.78 52.92-12.6 0.95-13.16-16.79-13.79-26.21 4.53-44.49 8.93-89.1 8.73-133.86z"/>
<path fill="#ed9cca" d="m886.07 527.9c8.45 48.13 13.39 97.11 13.99 146.01-0.52 4.88 0.88 15.49-5.93 15.71-15.2-9.61-33.03-13.45-49.61-19.98 11.12-4.69 44.52 3.56 39.53-19.75-0.75-40.69 2.46-81.31 2.02-121.99z"/>
<path fill="#fffaff" d="m1050.8 531.11c22.6 59.52 39.5 122.57 55.4 184.7 8.2 38.96 23 83.76 0.9 120.46-11 1.65-11.2-16.16-11.1-23.3-8.8-94.81-30-187.95-45.2-281.86z"/>
<path fill="#f3abd1" d="m800.44 551.4c0.38-0.09 1.14-0.29 1.52-0.39-18.16 51.19-51.29 97.85-91.89 132.05-28.74 8.24-27.49 53.87-59.38 54.56 7.87-52.1 30.43-106.85 73.57-139.35 20.91-21.41 48.28-36.23 76.18-46.87m-30.37 38.86c-15.46 10.7-29.91 22.74-45.43 33.38-30.85 16.11-52.8 47.13-60.13 80.85-0.06 1.47-1.46 4.63 1.17 4.2 13.86-23.82 35.92-41.79 56.81-59.22 21.71-14.1 34.97-37.36 47.58-59.21z"/>
<path fill="#f3abd1" d="m839.37 560.4c-2.56 33.14-16.05 70.06-34.08 99.95-11.64 4.41-28.32 2.03-38.95-0.12 39.93-17.77 58.83-61.64 73.03-99.83z"/>
<path fill="#f67798" d="m720.78 590.5c8.26-3.48 1.67 2.23-0.26 3.18-25.44 21.44-44.96 49.33-58.18 79.72-52.33 18.71-99.35 56.96-121.54 108.46 6.79-25.85 8.91-53.34 18.96-78.13 37.9-55.21 97.76-93.41 161.02-113.23m-52.28 25.97c-15.03 8.01-28.19 19.03-41.61 29.42-17.58 13.15-21 36.21-25.8 56.12 14.16-10.63 32.58-18.76 39.97-35.94 9.26-16.93 19.92-33.1 28.79-50.23-0.34 0.16-1.01 0.48-1.35 0.63z"/>
<path fill="#e791be" d="m770.07 590.26c-12.61 21.85-25.87 45.11-47.58 59.21-20.89 17.43-42.95 35.4-56.81 59.22-2.63 0.43-1.23-2.73-1.17-4.2 7.33-33.72 29.28-64.74 60.13-80.85 15.52-10.64 29.97-22.68 45.43-33.38z"/>
<path fill="#f7b7d1" d="m668.5 616.47c0.34-0.15 1.01-0.47 1.35-0.63-8.87 17.13-19.53 33.3-28.79 50.23-7.39 17.18-25.81 25.31-39.97 35.94 4.8-19.91 8.22-42.97 25.8-56.12 13.42-10.39 26.58-21.41 41.61-29.42z"/>
<path fill="#eeb2d8" d="m1098.9 625.3c27.6 64.25 52.6 132.54 76.5 199.35 5.5 25 9 50.4 14.3 75.45-16.2-4.1-35.6-4.72-47.9-17.07 6-7.94 21-3.73 26-13.36-18.1-82.64-45.5-163.17-68.9-244.37z"/>
<path fill="#f67798" d="m657.15 682.18c-4.38 18.41-9.95 38.16-13.8 57.31-5.44 0.69-10.89 0.95-16.32 1.69 4.58-1.86 1.13-5.6 0.56-8.92-0.79-11.67 3.64-22.78 5.5-34.15-9.67 3.96-18.34 10.36-27.22 15.78-5.92 10.66-10.28 22.31-14.03 33.94 7.29-1.82 14.7-3.21 22.21-3.84-23.2 6.75-45.53 16.81-63.17 33.81 19.68-44.57 60.17-80.22 106.27-95.62z"/>
<path fill="#f7b7d1" d="m605.87 713.89c8.88-5.42 17.55-11.82 27.22-15.78-1.86 11.37-6.29 22.48-5.5 34.15 0.57 3.32 4.02 7.06-0.56 8.92-4.19 1.46-8.6 2.21-12.98 2.81-7.51 0.63-14.92 2.02-22.21 3.84 3.75-11.63 8.11-23.28 14.03-33.94z"/>
<path fill="#75717e" d="m687.9 734.82c-5.21-0.81-15.37 4.43-13.47-4.75 0.29 6.62 9.27 3.08 13.47 4.75z"/>
<path fill="#da6285" d="m666.02 738.48c41.62-5.49 76.26 30.43 89.91 66.56 14.46 39.56 9.24 82.48 13.58 123.47 17.44 52.17 23.3 112.49 63.25 153.69 9.72 17.5 31.84 22.9 48.21 32.8 22.42 12.7 48.7 9.9 73.16 14.1-19.26 3.6-38.23 11.7-55.54 21.4-17.53 17.2-42.43 21.9-62.44 35.7-23.63 13.4-34.77-14-52.24-23.1-55.46-57.2-64.47-141.8-67.43-217.41-4.15-51.19 0.61-105.69-21.52-153.64-12.67-17.81-22.81-40.33-44.7-48.43 0.84-6.46 11.4-1.16 15.76-5.14m15.57 10.99c-12.3 0.17 2.47 12.95 4.26 17.67 52.37 38.72 38.61 111.05 52.21 166.06 2.17-34.58 5.04-69.22 5.8-103.81-0.01-25.01-13.2-46.96-28.63-65.6-8.47-8.91-20.98-15.99-33.64-14.32m71.3 289.53c11.19 40.6 19.22 86.6 50.15 117 8.5 10.2 16.05 22.8 29.02 27.8 28.93-17.3 58.26-35.9 89.95-48.5 4.34-0.8 11.22-0.8 13.87-3.3-34.52-0.4-69.37 0.8-103.67-1.1-36.88-19.3-55.67-59.9-79.32-91.9z"/>
<path fill="#fdadc8" d="m532.04 831.99c6.13-52.28 59.76-86.21 109.72-84.95 9.81 0.63 14.98 11 15.21 19.88 5.6 24.14 3.77 50.84-9.93 72.11-30.24 45.16-69.77 83.88-96.23 131.73-9.85 17.05-24.58 31.54-30.07 50.94-30.73 49-48.48 105.4-58.11 162.1-1.09 4.3-2.06 8.7-2.35 13.1-2.38 8.9-2.27 19.2-6.39 27.5-10.39-114 18.74-226.74 59.27-332.26 5.63-20.27 12.83-40.03 18.88-60.15m98.38-76.65c-12.94 5.57-26.48 9.76-39.32 15.58 15.09 19.06 8.37 46.43-2.15 66.09-11.22 32.28-19.21 66.72-23.26 100.09 6.17-15.17 15.52-28.71 23.39-43.01 11.13-16.7 28.84-28.51 36.51-47.56 9.48-22.81 4.05-48.01 8.41-71.75-2.23-4.87 4.98-20.97-3.58-19.44z"/>
<path fill="#fe94b2" d="m681.59 749.47c12.66-1.67 25.17 5.41 33.64 14.32 15.43 18.64 28.62 40.59 28.63 65.6-0.76 34.59-3.63 69.23-5.8 103.81-13.6-55.01 0.16-127.34-52.21-166.06-1.79-4.72-16.56-17.5-4.26-17.67z"/>
<path fill="#fee2f1" d="m630.42 755.34c8.56-1.53 1.35 14.57 3.58 19.44-4.36 23.74 1.07 48.94-8.41 71.75-7.67 19.05-25.38 30.86-36.51 47.56-7.87 14.3-17.22 27.84-23.39 43.01 4.05-33.37 12.04-67.81 23.26-100.09 10.52-19.66 17.24-47.03 2.15-66.09 12.84-5.82 26.38-10.01 39.32-15.58z"/>
<path fill="#ff94b2" d="m659.6 755.6c17.71 11.65 31.09 36.58 32.48 59.28 6.51 37.01-1.42 74.34-3.99 111.29-13.55 35.79-23.18 73.36-42.14 106.83-58.07 119.4-97.78 252.8-81.69 386.7 4.05 17 6.78 34.5 5.82 52 2.62 6.2-6.93 10.3-1.79 15.7-20.03 27.2-35.89 59.4-55.36 87.6 5.13-13.7 4.23-28.6 5.77-43 0.97-58.1-32.82-108.2-43.88-163.7-20.16-54.6-20.77-114.6-14.54-171.4 0.29-4.4 1.26-8.8 2.35-13.1 0.34 0.6 1.01 1.6 1.35 2.1 1.52-13.2 8.42-25 9.58-38.3 9.18-46.6 32.43-88.6 53.19-130.8 9.56-13.6 15.96-29.49 27.6-41.49 28.76-50.05 70.96-91.04 100.01-140.94 18.93-22.34 10.42-53.28 5.24-78.77m-36.16 142.73c-17.61 23.66-34.16 48.22-50.7 72.66-15.1 61.41-21.33 124.51-23 187.61-4.81 48.7-2.9 98.2 8.62 145.9 2.77-60.6 1.65-121.8 11.29-181.9 3.49-44 27.03-83.2 33.13-126.76 6.42-32.13 14.68-67.14 20.66-97.51z"/>
<path fill="#84808e" d="m770.19 844.83c0.19 3.74 0.39 7.5 0.61 11.28-0.24-3.78-0.44-7.54-0.61-11.28z"/>
<path fill="#f77798" d="m706.23 860.79c6.9 75.71 4.36 154.01 28.84 227.11 13.48 41.1 41.26 75.5 72.91 104-48.07 25.9-90.13 63.2-121.13 108.1-39.28-42.9-53.04-107.2-46.02-164.4 1.92-42.2 13.18-83.1 27.03-122.7 21.62-48.09 28.68-100.76 38.37-152.11m-41.03 208.01c-10.01 44.6-12.87 91.2-5.51 136.5 8.39 22.3 14.93 45.9 26.17 66.8 11.65-19.1 25.12-37.4 41.53-52.7 10.24-10 25.97-13.2 37.31-19.6-19.87 3-39.78 8.3-60.04 6.6-8.31-1.2-18.77-3.2-21.52-12.6-17.36-39.2-15.35-83.5-17.94-125z"/>
<path fill="#ffd4e8" d="m623.44 898.33c-5.98 30.37-14.24 65.38-20.66 97.51-6.1 43.56-29.64 82.76-33.13 126.76-9.64 60.1-8.52 121.3-11.29 181.9-11.52-47.7-13.43-97.2-8.62-145.9 1.67-63.1 7.9-126.2 23-187.61 16.54-24.44 33.09-49 50.7-72.66z"/>
<path fill="#ed7495" d="m445.3 973.3c20.04-23.19 38.03-49.27 57.78-72.15-39.73 105.25-60.34 218.65-54.69 331.35 2.61 20 6.25 39.9 5.78 60.3 1.17 93.8 74.85 173.7 56.52 269.8-26.03 66.5-78.99 117.7-135.02 160.1-40.78 26.3-88.57 40.5-136.48 46.6 44.58-64.3 71.29-139.7 79.61-217.4 21.76-12.7 45.34-24.7 59.27-46.8 27.36-41.3 32.71-92.1 36.87-140.3-25.44 30.3-55.7 56.9-91.97 73.5-13.59-107.8-11.05-222.4 34.56-322.8 21.89-51.3 45.36-104.4 87.77-142.2m-21.92 55.4c-14.43 20.4-26.46 42.9-39.18 64.5-7.82 19.2-22.38 35.9-24.11 57.2-5.88 14.9-6.87 37.6-11.47 55.2-9.25 38.9-8.98 79.5-1.99 118.8 3.25 17.3 1.3 35.6 7.57 52.3 1.7 4.6 5.6-0.1 6.97-2.6 15.18-27.2 27.48-56 39.09-84.9 8.68-30 5.6-61.4 4.63-92.2 3.13-71.8 11.7-146.1 47.18-209.97-9.13 13.97-23.35 25.27-28.69 41.67m3.91 361.4c-6.87 36-8.98 74.7-11.31 111.8-4.23 32 3.83 65.5-9 96.1-26.82 55.7-72.18 102.3-125.06 134 49.09-12.8 98.55-33.5 132.21-72.9 11.99-16.2 35.04-23.6 40.56-44.5 13.62-76-23.03-151.5-27.4-224.5z"/>
<path fill="#fdadc8" d="m423.38 1028.7c5.34-16.4 19.56-27.7 28.69-41.67-35.48 63.87-44.05 138.17-47.18 209.97 0.97 30.8 4.05 62.2-4.63 92.2-11.61 28.9-23.91 57.7-39.09 84.9-1.37 2.5-5.27 7.2-6.97 2.6-6.27-16.7-4.32-35-7.57-52.3-6.99-39.3-7.26-79.9 1.99-118.8 4.6-17.6 5.59-40.3 11.47-55.2 2.07 10.2-4.92 28.6 5.95 34.7 12.65-10.2 19.78-28 20.42-44.5 3.3-39.9 26.17-74.3 36.92-111.9z"/>
<path fill="#ed7495" d="m668.39 995.34c-4.7 26.66-16.49 56.66-24.74 84.36-9.88 51.9-16.36 107.2 2.56 158.1 6.56 25.6 23.63 46.6 34.73 70-37.79 54.4-72.06 111.1-105.44 168.3 0.23-60.5-8-121.7-5.08-182.5 9.52-105.7 54.31-203 97.97-298.26m-49.14 128.96c-10.9 53.9-24.82 107.6-32.93 162.3-0.86 39.7 0.08 79.5-0.47 119.2 4.52-14.6 6.86-34.4 18.94-47 17.42-14.4 38.38-26 53.89-42-13.07 6-31.29 1-33.64-14.9-12.61-57.8-8.77-121-5.79-177.6z"/>
<path fill="#ffd4e8" d="m384.2 1093.2c12.72-21.6 24.75-44.1 39.18-64.5-10.75 37.6-33.62 72-36.92 111.9-0.64 16.5-7.77 34.3-20.42 44.5-10.87-6.1-3.88-24.5-5.95-34.7 1.73-21.3 16.29-38 24.11-57.2z"/>
<path fill="#fe93b2" d="m752.89 1039c23.65 32 42.44 72.6 79.32 91.9 34.3 1.9 69.15 0.7 103.67 1.1-2.65 2.5-9.53 2.5-13.87 3.3-30.61-3.5-60.73 10.1-91.62 7.4-16.92-1.1-36.56-4-46.57-19.5 5.26 11.5 13.01 21.7 19.22 32.8-30.93-30.4-38.96-76.4-50.15-117z"/>
<path fill="#da6285" d="m300.13 1168.1c20.29-47.1 53.22-88.1 87.66-125.3-36.38 63.8-65.6 133.7-70.3 207.6-10.37 62.7-6.08 126.6-1.28 189.5-32.1 9.5-66.66 9.6-98.98 1.1 25.03-91.6 40.71-187.2 82.9-272.9m14.25-5.8c-5.8 12.8-10.37 26.1-16.09 39-17.19 51-42.07 102.6-37.44 157.8 2.08 15.6 7.58 35.6 24.41 40.8-2.03-67.7 5.67-135.2 19.22-201.4 0.66-12.4 10.15-25.4 9.9-36.2z"/>
<path fill="#d26084" d="m204.72 1279.7c42.63-76.2 95.33-147 153.12-211.9-38.81 50.5-74.38 105.6-90.04 168-28.33 65.2-30.69 137.9-56.14 204-22.9-4.8-43.66-16.2-64.63-26.1 16.56-45.7 40.03-88.7 57.69-134m46.75-61.2c-20.81 24.3-36.5 52.9-52.02 80.9-11.56 24-9.58 52-20.99 76.1-1.68 3.5-6.17 12.9 1.62 9.8 25.67-18.4 38.95-50.2 42.4-80.8 5.46-29.1 18.57-60.6 28.99-86z"/>
<path fill="#ff94b2" d="m665.2 1068.8c2.59 41.5 0.58 85.8 17.94 125 2.75 9.4 13.21 11.4 21.52 12.6 20.26 1.7 40.17-3.6 60.04-6.6-11.34 6.4-27.07 9.6-37.31 19.6-16.41 15.3-29.88 33.6-41.53 52.7-11.24-20.9-17.78-44.5-26.17-66.8-7.36-45.3-4.5-91.9 5.51-136.5z"/>
<path fill="#ffd4e8" d="m783.82 1123.2c10.01 15.5 29.65 18.4 46.57 19.5 30.89 2.7 61.01-10.9 91.62-7.4-31.69 12.6-61.02 31.2-89.95 48.5-12.97-5-20.52-17.6-29.02-27.8-6.21-11.1-13.96-21.3-19.22-32.8z"/>
<path fill="#8d8998" d="m951.97 1123.1c8.39 0 16.78 0 25.18 0.7-8.41 0.3-16.84 0.2-25.18-0.7z"/>
<path fill="#da6285" d="m619.25 1124.3c-2.98 56.6-6.82 119.8 5.79 177.6 2.35 15.9 20.57 20.9 33.64 14.9-15.51 16-36.47 27.6-53.89 42-12.08 12.6-14.42 32.4-18.94 47 0.55-39.7-0.39-79.5 0.47-119.2 8.11-54.7 22.03-108.4 32.93-162.3z"/>
<path fill="#c7144b" d="m987.64 1128.6c72.96-3.8 154.76 4.3 210.36 56.4 13 24.4 27.3 56.1 8.8 81.7-7 4.3-11.9 10.4-16.1 17.1-39.8-6.1-75.7-25.2-113.4-38.1-60.4-21.6-121.52-47.5-168.25-92.6 23.07-15.5 51.73-19.7 78.59-24.5z"/>
<path fill="#d94670" d="m818.96 1197.9c28.11-10.8 56-25.8 82.88-40.6 3.4 6.1 13.04 3 14.27 11.6 39.74 32 86.39 54.7 134.49 71.4 2.3 1.3 4.6 2.8 6.8 4.3-21.7-0.9-40.6-13.2-60.36-20.6-19.81-7.5-37.69-19-56.44-28.6 12.11 11 25.41 20.7 37.79 31.5-33.72 10.7-71.22 12.1-104.61 25.8-18.92-17-38.33-34.9-54.82-54.8z"/>
<path fill="#fe93b2" d="m314.38 1162.3c0.25 10.8-9.24 23.8-9.9 36.2-13.55 66.2-21.25 133.7-19.22 201.4-16.83-5.2-22.33-25.2-24.41-40.8-4.63-55.2 20.25-106.8 37.44-157.8 5.72-12.9 10.29-26.2 16.09-39z"/>
<path fill="#ff94b2" d="m940.6 1195.4c18.75 9.6 36.63 21.1 56.44 28.6 19.76 7.4 38.66 19.7 60.36 20.6-2.2-1.5-4.5-3-6.8-4.3 2.4 1.3 7.1 0.7 8.3 3.2 8.6 21.3-6.3 47-28.3 52.1-2.3 1.6-9.7 2.3-6.9 5.8-20.7-0.2-41.32 6.8-61.77 10.5 18.65-9.7 42.07-19.2 48.77-41.1-2.1-19-19.01-31.9-32.31-43.9-12.38-10.8-25.68-20.5-37.79-31.5z"/>
<path fill="#ed7495" d="m811.42 1197.7c6.75 0.1 5.53 8.9 8.87 12.8 15.04 16.4 32.39 30.5 48.57 45.5-20.7 3.7-35.56 19.3-52.01 30.8-28.69 25.7-57.3 51.4-81.86 81.2-16.1 16.4-33.64 32.2-45.26 52.1-43.7 26.3-89.92 50.7-126.83 86.7 44.68-79.7 93.61-157.8 150.09-229.8 29.09-30.5 56.99-65.5 98.43-79.3z"/>
<path fill="#ed7495" d="m251.47 1218.5c-10.42 25.4-23.53 56.9-28.99 86-3.45 30.6-16.73 62.4-42.4 80.8-7.79 3.1-3.3-6.3-1.62-9.8 11.41-24.1 9.43-52.1 20.99-76.1 15.52-28 31.21-56.6 52.02-80.9z"/>
<path fill="#da6285" d="m978.39 1226.9c13.3 12 30.21 24.9 32.31 43.9-6.7 21.9-30.12 31.4-48.77 41.1 20.45-3.7 41.07-10.7 61.77-10.5 24.4-3.8 48.9-7 73.3-10.5-40.8 9.8-83.6 17.1-124.69 27.4-37.53-13.3-67.76-41.4-98.53-65.6 33.39-13.7 70.89-15.1 104.61-25.8z"/>
<path fill="#ffd4e8" d="m1030.6 1295.6c22-5.1 36.9-30.8 28.3-52.1 2.3 0.7 4.7 1.5 7 2.6 26 13.6 54.1 23.5 79.6 37.9-1.3 0.3-3.9 0.8-5.2 1.1-14.5 1.7-28.7 4.7-43.3 5.8-24.4 3.5-48.9 6.7-73.3 10.5-2.8-3.5 4.6-4.2 6.9-5.8z"/>
<path fill="#d66586" d="m1065.9 1246.1c27.8 4.4 50.6 24.1 78 30 7.8 1.4 15.5 3.6 22.4 7.3-8.6 1.4-17.3 1-26 1.7 1.3-0.3 3.9-0.8 5.2-1.1-25.5-14.4-53.6-24.3-79.6-37.9z"/>
<path fill="#ff94b2" d="m816.85 1286.8c16.45-11.5 31.31-27.1 52.01-30.8 6.09 3.8 11.89 8.2 17.7 12.4 18.62 24.3 50 34 72.47 52.7-27.65 3.9-54.37 12.4-81.62 18.3-30.88 6-58.09 23.3-88.66 30.3-34.83 12.9-67.69 30.6-99.02 50.4 11.62-19.9 29.16-35.7 45.26-52.1 24.56-29.8 53.17-55.5 81.86-81.2m61.01-15.6c2.86 12.3 10.73 24.7 7.09 37.5-34.09 23.5-75.85 37-110.62 57.4 52.49-12.2 102.95-32.4 154.5-48.1-14.97-17.1-36.38-29-50.97-46.8z"/>
<path fill="#ffd3e8" d="m877.86 1271.2c14.59 17.8 36 29.7 50.97 46.8-51.55 15.7-102.01 35.9-154.5 48.1 34.77-20.4 76.53-33.9 110.62-57.4 3.64-12.8-4.23-25.2-7.09-37.5z"/>
<path fill="#c7144b" d="m1150.6 1288.6c22.6-0.9 45.3-1 67.9-0.2 47.3 7.4 99.7 6.7 139.8 36.3 13.6 6.7 17 22.4 21.8 35.4 4.3 19.3-13.9 48.5-35.8 39.7-27.2-10-55.7-16.4-81.8-29.4-19.7-4.8-37.3-16.3-57.5-19.3-32.2-16.5-67.1-32.8-95.6-55.3 10.9-6.4 27.9-5.4 41.2-7.2z"/>
<path fill="#da3766" d="m987.95 1320c37.45-9.6 75.65-16 113.45-24 61 48.5 136.4 71.3 208.5 97.1-8.7 0.2-17.3 1.7-25.9 3.1-51.5-17-101.7-37.5-153-55.3 21.3 24.1 47.9 42.6 73 62.4-79.6 9.2-160.8 8.4-239.13 27.4-17.67-15.3-35.55-32.3-51.19-50.4-9.96-11-23.87-21.1-27.56-36 32.99-11.7 68.59-14.8 101.83-24.3z"/>
<path fill="#ff94b2" d="m1131 1340.9c51.3 17.8 101.5 38.3 153 55.3 22.8 8 45.4 16.8 68.3 24.6-1.3 0.1-3.8 0.2-5.1 0.3 8.1 18 35.8 39.5 25.8 63.8-22.9 16.1-51.6 21-76 34-45.5 5.5-92.4 15.2-136.9 20.5 56.4-15.3 114.4-26.3 168-50.3 9.3-3.1 22.3-15.1 13.9-25-15-12.3-35-14.5-52.5-21.7-30.7-7.2-60.1-20-85.5-39.1-25.1-19.8-51.7-38.3-73-62.4z"/>
<path fill="#e43d68" d="m856.88 1351c8.27 1.4 19.55-11.9 25.11-1.1 16.11 33.5 53.32 53.7 74.04 81-6.95 1.6-13.91 3.1-20.92 4.3-12.47-11.3-23.56-24.2-37.14-34.2 6.43 13.8 19.69 22.9 25.77 36.9-43.74 10.6-88.32 18.7-130.77 33.9-17.37-24.2-28.97-54.1-35.82-83.5 33.56-11.6 66.07-26 99.73-37.3z"/>
<path fill="#da6285" d="m414.94 1364.8c-4.16 48.2-9.51 99-36.87 140.3-13.93 22.1-37.51 34.1-59.27 46.8 3.25-37.8 4.95-75.7 4.17-113.6 36.27-16.6 66.53-43.2 91.97-73.5z"/>
<path fill="#fdadc8" d="m427.29 1390.1c4.37 73 41.02 148.5 27.4 224.5-5.52 20.9-28.57 28.3-40.56 44.5-33.66 39.4-83.12 60.1-132.21 72.9 52.88-31.7 98.24-78.3 125.06-134 12.83-30.6 4.77-64.1 9-96.1 2.33-37.1 4.44-75.8 11.31-111.8z"/>
<path fill="#df164c" d="m662.24 1442.2c29.64-16.3 56.32-40.4 89.42-49.2 6.38 29.1 20.86 55.4 35.08 81-74.31 20.4-145 57.6-198.97 113-15.58-20.1-1.05-47.8 9.09-67.1 1.74-6.5 12.45-14 8.79-20.7-18.03 4.4-30.89 20.1-43.85 32.6-20.71 23.1-42.76 47.5-48.91 79-24.89 49.8-72.86 81.5-112.97 118.1 15.8-3.8 30.88-11.3 46.92-13.3-5.04 5.7-9.93 11.6-14.78 17.4-35.16 14.9-74 28.4-111.94 24.4 20.88-8.1 40.27-19.5 59.46-30.8 5.68-7.8 13.52-14 22.57-17.4 36-31.8 73.37-63.4 99.75-104.3 15.79-20.3 24.88-44.6 39.08-65.9 11.22-23.4 35.58-35.2 53.36-52.6 21.97-15.6 42.85-33.5 67.9-44.2z"/>
<path fill="#da6285" d="m1284 1396.2c8.6-1.4 17.2-2.9 25.9-3.1 41.5 18.5 91.7 18.4 126.3 50.7 11.6 14.9-4.3 30.4-14 41.4-20.2 17.9-48.2 21.5-70.9 35.1-24.3 11.5-52.2 11.9-77.6 18.5-52.5 5.7-104.5 18.6-156.9 21.4-13.1-12.2-30.8-17.2-42.9-30.2-37.4-31.8-74.14-64.8-109.03-99.3 78.33-19 159.53-18.2 239.13-27.4 25.4 19.1 54.8 31.9 85.5 39.1 17.5 7.2 37.5 9.4 52.5 21.7 8.4 9.9-4.6 21.9-13.9 25-53.6 24-111.6 35-168 50.3 44.5-5.3 91.4-15 136.9-20.5 34.1-2.1 69.9-6.2 99.8-24.1 18.2-7.8 35.5-29.7 26.6-50.1-15.2-22.9-46.9-21.1-71.1-23.9-22.9-7.8-45.5-16.6-68.3-24.6z"/>
<path fill="#ff94b2" d="m897.97 1401c13.58 10 24.67 22.9 37.14 34.2 23.56 19.8 45.77 42.1 72.19 58.2 3.7 16.3 11.9 31.6 12.4 48.6 3.2 19.1-20.55 18.3-33.01 23.4-25.82 0.9-51.23 6.5-76.4 11.8 16.68-14.1 33.84-28.2 46.86-46 6.45-11.2 3.04-24.8-1.18-36.2-8.71-20-18.22-40.1-32.23-57.1-6.08-14-19.34-23.1-25.77-36.9z"/>
<path fill="#c7144b" d="m99.98 1488c20.04-21.8 31.59-49.5 47.05-74.3 20.97 9.9 41.73 21.3 64.63 26.1-17.59 47.1-34.42 94.7-62.24 137-24.98-1.2-49.68-5.5-74.12-10.6 7.84-20.3 18.48-39.3 26.48-59.4-16.61 16-28.16 37.2-46.07 52.1-5.2-0.7-10.11-2.6-14.84-4.8 19.05-22.2 42.97-41 59.11-66.1z"/>
<path fill="#ffd4e8" d="m1347.2 1421.1c1.3-0.1 3.8-0.2 5.1-0.3 24.2 2.8 55.9 1 71.1 23.9 8.9 20.4-8.4 42.3-26.6 50.1-29.9 17.9-65.7 22-99.8 24.1 24.4-13 53.1-17.9 76-34 10-24.3-17.7-45.8-25.8-63.8z"/>
<path fill="#e86185" d="m935.11 1435.2c7.01-1.2 13.97-2.7 20.92-4.3 32.29 26.7 61.37 57.6 91.87 86.2-6.8-2.7-13.2-6.2-19.9-9-7-4.9-13.1-11-20.7-14.7-26.42-16.1-48.63-38.4-72.19-58.2z"/>
<path fill="#e96185" d="m792.97 1471.8c42.45-15.2 87.03-23.3 130.77-33.9 14.01 17 23.52 37.1 32.23 57.1 4.22 11.4 7.63 25 1.18 36.2-13.02 17.8-30.18 31.9-46.86 46 25.17-5.3 50.58-10.9 76.4-11.8-19 7.4-40.09 6.8-59.12 13.6 53.14-8 106.13-17.4 159.33-25-0.2-0.6-0.5-1.7-0.7-2.2-3.3-5.3-7.6-9.7-11.8-14.2 10.5 4.7 18.2 14 28.3 19.5 7.7 6.5-9.1 3.3-12.4 3.9-75.5 9.1-150.72 21.2-226.62 28-27.16-36.7-45.58-79.1-70.71-117.2z"/>
<path fill="#d43b6a" d="m217.23 1441c32.32 8.5 66.88 8.4 98.98-1.1 0.02 38.1 2.06 78.1-0.67 114.7-50.86 18-105.16 24.3-159.12 22.6 12.3-28.3 31.4-53.6 40.63-83.2 8.6-17 12.51-35.7 20.18-53z"/>
<path fill="#e05e82" d="m587.77 1587c53.97-55.4 124.66-92.6 198.97-113 20.31 31.8 41.08 63.4 58.28 97 2.68 6.5 10.15 11.3 9.77 19-110.32 15.2-223.12 44.4-322.44 98.3-34.49 11.9-67.45 28.5-100.29 44.7 4.85-5.8 9.74-11.7 14.78-17.4 25.45-12.2 52.39-21 77.33-34.4 36.08-25.2 78.15-40.3 119.96-53.1 47.13-7.5 89.1-34.7 126.24-62.7-49.54 12.3-99.53 24.8-150.73 27.6-10.63-0.3-23.35 2.1-31.87-6z"/>
<path fill="#ffd4e8" d="m1007.3 1493.4c7.6 3.7 13.7 9.8 20.7 14.7 19.2 14.7 37.6 30.8 58.2 43.7 0.2 0.5 0.5 1.6 0.7 2.2-53.2 7.6-106.19 17-159.33 25 19.03-6.8 40.12-6.2 59.12-13.6 12.46-5.1 36.21-4.3 33.01-23.4-0.5-17-8.7-32.3-12.4-48.6z"/>
<path fill="#c7144b" d="m561.8 1531.8c12.96-12.5 25.82-28.2 43.85-32.6 3.66 6.7-7.05 14.2-8.79 20.7-10.14 19.3-24.67 47-9.09 67.1 8.52 8.1 21.24 5.7 31.87 6 51.2-2.8 101.19-15.3 150.73-27.6-37.14 28-79.11 55.2-126.24 62.7-41.81 12.8-83.88 27.9-119.96 53.1-24.94 13.4-51.88 22.2-77.33 34.4-16.04 2-31.12 9.5-46.92 13.3 40.11-36.6 88.08-68.3 112.97-118.1 6.15-31.5 28.2-55.9 48.91-79z"/>
<path fill="#ec7395" d="m55.71 1558.9c17.91-14.9 29.46-36.1 46.07-52.1-8 20.1-18.64 39.1-26.48 59.4-8.65 18.6-17.42 37.2-23.73 56.8-2.91 17.7 3.88 35 4.88 52.5-1.74 8.6-12.48 0.7-15.98-1.8-19.93-22-20.67-54.1-21.2-81.9 14.29-8.4 25.98-20.1 36.44-32.9z"/>
<path fill="#fb94b1" d="m1028 1508.1c6.7 2.8 13.1 6.3 19.9 9 9.5 5.7 17.9 13.5 26.5 20.5 4.2 4.5 8.5 8.9 11.8 14.2-20.6-12.9-39-29-58.2-43.7z"/>
<path fill="#d25f84" d="m6.41 1582.8c13.45-7.1 22.38-20.1 34.46-28.7 4.73 2.2 9.64 4.1 14.84 4.8-10.46 12.8-22.15 24.5-36.44 32.9 0.53 27.8 1.27 59.9 21.2 81.9 3.5 2.5 14.24 10.4 15.98 1.8-1-17.5-7.79-34.8-4.88-52.5 6.31-19.6 15.08-38.2 23.73-56.8 24.44 5.1 49.14 9.4 74.12 10.6-11.82 25.5-27.1 49.4-40.43 74.2-17.3 22.4-27.78 49.7-48.31 69.8-2.19 0-4.19-1.3-5.75-2.7-33.06-36.4-49.97-86.5-48.52-135.3z"/>
<path fill="#da6285" d="m156.42 1577.2c53.96 1.7 108.26-4.6 159.12-22.6-6.46 64.1-30.37 124.9-58.55 182.3-6.88 12.2-17.43 21.8-26.83 31.9-45.62 1.2-88.09-18.4-133.23-21.1-10.36-8.1-22.59-13.9-32.96-21.9 3.51-11.2 14.72-17.4 20.67-27.2 23.97-40.2 46.02-83 71.78-121.4m124.72 9.3c-33.85 31-60.09 73.6-102.69 94.9-29.29 17.4-61.09 29.2-92.59 41.6 30.89 15.3 64.01 27.3 98.34 31.7 12.29 1.7 23.24-4.6 29.7-14.8 32.82-42.9 48.61-95.8 67.35-145.7 0.34-2 3.77-9.5-0.11-7.7z"/>
<path fill="#fe93b1" d="m281.14 1586.5c3.88-1.8 0.45 5.7 0.11 7.7-18.74 49.9-34.53 102.8-67.35 145.7-6.46 10.2-17.41 16.5-29.7 14.8-34.33-4.4-67.45-16.4-98.34-31.7 31.5-12.4 63.3-24.2 92.59-41.6 42.6-21.3 68.84-63.9 102.69-94.9z"/>
<path d="m696.57 0h17.89c39 3.01 74.41 20.38 110.37 34.17 29.61 15.65 57.92 34.53 81.77 58.22 33.46 39.59 63.48 82.01 91.25 125.75 24.75 31.22 40.25 69.35 64.15 100.65 39.2-46.47 93.8-80.88 125.5-134.28 16.5-19.81 40.9-35.04 67.3-35.22 12.5-0.69 24.2-10.64 36.8-6.94-2.2 9.46-16.4 12.94-23.6 20.49 21.3-0.72 40.6-12.07 59.8-19.64 2.3 0.85 6.4 3.12 4.3 5.94-17 31.95-48.8 52.24-81.6 65.36-12.5 10.48-31.1 2.23-42.4 15.62-35.5 32.34-55.3 77.4-87.3 112.68-7.2 11.5-19.3 20.67-24.5 33.01 22.9 55.1 64.3 99.5 94.2 150.69 19.7 26.23 30.5 57.51 48.3 84.75 19.1 46.52 43.5 90.95 57.4 139.52 15.3 45.75 26.1 97.76 5.2 143.52-15.8 38.85-66.3 52.42-102.4 34.72-39.8-20.06-81.6-38.56-114.2-69.84-28.6-25.04-54.7-52.73-82.8-78.14-39.6-31.72-77.51-66.75-124.05-87.97-40.92-18.29-87.45-24.54-131.6-16.68-30.72 5.68-58.79 24.92-71.92 53.69-1.9 9.18 8.26 3.94 13.47 4.75 49.32 10.9 77.75 62.93 82.29 110.01 0.17 3.74 0.37 7.5 0.61 11.28 4.18 36.28-0.84 74.42 13.03 109.13 9.44 46.56 29.41 92.56 63.76 126.16 30.59 21.4 67.78 29.1 104.38 31.7 8.34 0.9 16.77 1 25.18 0.7 66.75 1 142.55-4.6 199.15 37.9 9.7 5.8 21.1 11.3 25.7 22.4 10.2 21.9 23.5 45.9 16.2 70.9-2.3 11.9-13.5 18.2-20 27.5 52.1 6.2 108.7 4.7 154.8 33.5 20 11.6 33.2 34.6 30.9 57.9 0 13.1-13.3 19.9-18 31 27.8 11.3 63.5 15.6 78.1 45.7v3.5c-3.8 22.9-22.4 40.9-43.8 48.1-31.2 16.3-64.6 28.5-98.8 36.4-72.9 8.1-144.6 25.3-218 27.6-100.48 14.8-202.48 20.3-302.08 41.1-92.69 17.1-182.18 49.8-265.5 93.6-29.62 11-57.83 25.2-86.35 38.6-37.17 9.1-73.19 28.5-112.53 22.5-9.95-2.1-20.07-0.1-29.41 3.5-15.34 5.2-31.84 3.8-47.46 7.5h-40.25c-30.89-2.5-59.42-16.3-90.4-18.5-20.59 0.4-33.46-18.2-50.94-25.9-32.42-31.1-50.01-74.6-58.48-118.2v-23.8c1.26-5 3.81-9.7 7.02-13.7 21.24-20.1 43.3-39.3 64.36-59.5 52.3-47.4 77.13-115.3 104.58-178.4 14.37-27.7 25.24-57.2 41.05-84 35.6-65.8 84.33-123 131.19-180.8 10.74-11.8 24.73-19.8 36.16-30.8 22.37-17.9 29.53-49.1 54.76-64.26 34.23-41.47 65.71-86.11 87.28-135.71 6.51-15.74 4.23-33.16 6.31-49.62 10.7-51.2 13.02-107.55 48.08-149.58 3.77-20.88 23.23-37.96 19.19-60.71 0.88-9.13-7.37-16.96-16.04-17.7-23.59-2.25-47.56-3.11-70.97 1.21-41.96 3.17-81.16 28.64-124.04 18.99-18.72-3.15-34.38-13.98-50.01-23.93-49.56-28.33-97.2-60.31-140.88-97.13-24.26-17.24-57.86-30.52-86.65-16.32-17.44-2.45-34.03-9.2-51.63-11.02-9.23-15.51-36.01 5.03-49.53-7.96 1.43-14.76 19.87-12.92 27.61-22.86 44.73-33.89 107.46-23.6 152.93 3.44 71.38 27.35 126.77 88.69 203.02 105.37 32.01-2 63.29-9.47 94.88-14.65 21.02-15.49 48-17.6 72.32-24.96 27.55-13.5 57.26-21.24 86.33-30.57 22.68-23.47 59.33-46.19 51.74-84.32-5.42-28.81-33.83-43.87-57.14-57.05-10.78-3.43-19.54-11.08-22.95-21.99-19.64-7.09-31.82-26.11-36.87-45.56-2.22-41.06 22.13-77.83 47.36-108 4.17-6.03 12.74-11.96 9.39-20.21-8.22-20.73-12.41-47.32 0.59-66.92 14.99-17.17 32.64-36.27 57.13-37.38m2.11 4.5c-23.82 0.96-38.92 19.65-54.1 35.09-13.74 20.22-5.65 46.58-0.58 68.38 24.84-21.89 59.33-39.15 92.79-28.4-0.28-14.11 17.87-20.22 29.21-14.9 74.54 22.81 124.05 90.44 156.72 157.6 28.16 51.4 51.87 105.06 77.48 157.76 25-10.97 40.1-35.95 57.3-54.9-33.1-60.22-66.87-120.72-110.4-174.23-31.35-49.28-76.06-91.14-129.09-116.05-42.22-0.93-75.86-36.74-119.33-30.35m54.86 64.93c-5.87-0.55-18.58 5.13-12.72 11.8 18.99 7.06 30.1 27.09 28.71 46.94 4.89 1.16 10.09 1.96 14.1 5.29 44.51 28.26 67.35 77.59 99.41 117.52 25.74 48.75 52.87 97.01 72.53 148.66 14.16-1.78 26.23-11.16 39.2-16.55-23.42-53.5-46.42-107.45-75.77-158.1-12.99-32.62-35.13-60.28-55.74-88.26-28.96-31.71-65.46-63.04-109.72-67.3m-42.74 13.23c-22.01 1.46-43.23 10.85-59.62 25.49-10.16 6.98-0.97 19.96 4 27.11 5.34-14.26 20.15-19.61 33.47-23.76 26.26-3.45 48.87 13.2 74.1 16.31 6.34-13.88-3.97-27.27-11.16-38.38-11.96-7.71-27.12-8.15-40.79-6.77m-15.59 29.78c-18.5 1.81-37.65 17.37-36.23 37.24-1.16 7.42 6.57 13.28 13.45 12.31 26.21 2.04 53.6-7.93 79.11 0.51 28.13 10.83 37.07 47.64 22.64 72.73-7.38 9.39 3.62 21.35 4.48 29.19 1.17-18.14 20.92-21.28 30.57-33.18 17.75-10.94 9.37-34.35 4.81-50.26-7.51-13.61-17.34-27.13-30.76-35.35-30.48-7.91-56.9-27.94-88.07-33.19m-56.09 7.81c-21.69 27.87-44.34 57.22-51.07 92.77-4.18 15.74 0.45 33.51 11.44 45.49 15.19 15.15 37.83 15.51 57.76 18.44-2.28-3.43-5.72-6.03-7.08-10.16-2.92-1.21-13.55 0.55-6.46-3.01 8.59-7.43-15.86 0.54-10.55-12.01-3.24-7.43 1.47-4.59 6.74-3.85-2.06-20.02-16.59-35.49-28.01-50.91-2.76-3.68-2.18-10.87 2.99-11.99 4.43 5.75 6.95 13.58 14.95 15.5 13.24 3.51 23.39-6.94 33.19-13.74-20.19-2.63-29.42-30.37-16.71-45.4 0.4-7.38-1.91-16.15-7.19-21.13m12.2 22.16c-5.68 8.2-3.31 18.48-2.3 27.69 0.21-5.8 3.84-9.14 8.95-11.03-3.35-5.06-4.79-10.97-6.65-16.66m624.28 7c-9.7 1.95-18.8 6.56-28.7 7.57-22.6-0.74-42.7 14.03-55 31.91-42.6 63-109.4 105.04-152.4 167.64-53.22 47.31-124.27 67.84-192.32 83.49 26.21 21.68 62.89 31.5 96.96 32.5 26.71-15.8 57.16-24.79 82.46-42.9 48.6-28.18 79.9-76.5 112.1-120.89 20.6-32.19 46.5-60.78 73.7-87.42 30.7-12.37 67-16.38 90.2-42.77 5.8-11.11 18.8-16.33 23.6-28.34-25.3 10.23-51 18.95-78 23.69-1.3-1.85-4.6-5.44 0.8-5.89 10.1-5.71 19-13.23 29-19.03-0.6 0.11-1.8 0.33-2.4 0.44m-472.82 4.79c13.42 16.4 23.98 35.69 23.48 57.47 11.94 23.69 17.18 49.84 17.41 76.29 20.58 43.95 31.51 92.38 36.5 139.81 23.26-6.48 49.74-10.31 69.66-25.03-18.71-51.34-39.82-102.28-71.24-147.34-24.75-33.92-44.78-72.32-75.81-101.2m-144.46 8.75c-4.18 4.08-7.68 15.22 0.81 16.07 5.23 4.93 12.32-4.92 14.65 3.81-12.39 11.35-24.83 24.49-42.41 26.62-4.16 10.06 10.67 15.48 11.1 25.16 2.41 4.23-0.52 12.03 5.4 13.39 7.91-10.24 22.53-3.11 31.92 0.19-1.3 12.11-15.17 13.73-22.83 18.65 17.89 20.19 31.47 46.02 55.52 59.65 14.68 9.03 33.3-2.08 40.17-15.9 6.01-17.4 14.48-34.65 14.52-53.44 0.75-10.89-0.39-22.64 5.69-32.31 12.49-24.43-6.63-55.62-32.43-60.6-27.32-3.72-55.49 8.51-82.11-1.29m167.25 58.52c-6.6 11.87-17.3 20.39-28.78 27.22-10.07 6.09-10.15 18.19-15.61 27.4 8.32 26.64 2.78 57.17 7.74 85.18 7.64-21.83 33.88-30.81 41.09-53.24 12.89-27.31 4.94-61.7-4.44-86.56m-171.4 32.36c-5.93 5.2 6.05 6.61 0 0m116.46 12.66c-5.9 17.96-4.64 39.75-19.51 53.64-6.87 8.68-17.56 12.6-27.91 15.28-1.51 16.59 1.09 33.26 0.16 49.81-8.28 24-27.06 42.89-50.22 52.94-33.5 13.68-71.14 17.46-102.56 36.2 20.89 4.21 42.66 2.18 63.89 4.2 67.92 6.62 137.87-11.5 198.23-40.62-16.26-6.21-36.44-10.04-52.55-19.3 4.52-49.85 4.06-106.18-9.53-152.15m-139.31 11.94c-11.93 0.03 4 15.09 8.56 17.74 34.49 12.84 75.16 42.71 63.84 84.57-2.41 25.97-29.81 37-42.61 56.35 23.7-11.79 51.34-24.59 59.64-52.14-5.49-17.25 6.58-36.83-4.88-52.89-18.41-6.94-34.38-21.67-43.63-39.28-11.4-9.08-26-15.69-40.92-14.35m210.79 15.44c-3.39 12.74-11.3 23.41-17.29 34.9-17.92 12.08-29.64 30.64-38.65 49.57 3.47 12.35-10.15 40.56 10.62 40.97 26.15 3.43 50.53 22.45 77.03 10.51-1.95-46.96-16.77-91.82-31.71-135.95m188.89 143.19c17.9 24.92 26.6 54.68 36.7 83.24 22.6 53.27 43.8 107.19 68.5 159.55 19.6 66.6 48.9 130.48 61.8 199.09 4.1 14.36 7.6 31.91 0.1 45.05 21.8 12.6 51.1 13.06 73.1-0.23 1.1 0.22 1.7-0.23 1.7-1.37 39-29.5 41.3-84.54 32.4-128.64-22.3-75.77-52.2-149.38-90.5-218.59-33.1-69.72-91-124.51-121.2-195.86-19.7 20.13-38.9 41.99-62.6 57.76m-937.39-49.54c-31.26 0.74-55.6 19.3-79.63 36.65 11.3 3.29 24.54 1.78 35.77-2.5 22.12-4.49 45.13-3.28 67.4-0.2 1.24 1.18 1.75 2.92 1.8 4.6-18.45 1.88-37.49-4.95-55.72 0.21 2.17 6.17 14.15 4.34 20.06 7.42 26.49 9.16 54.92-4.38 81.25 4.82 44.25 17.84 77.62 53.35 117.29 78.66 29.86 15.76 56.69 36.49 86.23 52.76 18.55 7.15 39.51 13.59 59.02 6.09 43.11-8.78 86.62-26.27 130.95-20.93-12.37-20.11-32.14-34.17-52.08-46-9.85-7.85-23.98-7.69-35.24-3.3-32.47 6.64-66.2 14.63-99.28 6.79-49.86-16.34-89.52-51.96-134.51-77.52-46.23-19.67-90.14-53.82-143.31-47.55m930.79 52.96c-15.3 7.71-30.93 14.66-46.34 22.02 4.11 24.57 11.1 49.04 21.84 71.64 23.3 92.47 51.4 185.52 46.1 282.01 40.3 44.93 90.6 82.79 146.9 105.58 5.4-3.38 3.5-12.03 3.3-17.84-1.4-67.55-36.9-127.41-52.3-191.8-22.1-51.77-42.9-104.22-65-155.96-23.9-35.8-22.6-86.5-54.5-115.65m-187.03 3.9c-57.81 32.28-113.82 68.5-163.87 112.11-39.63 41.69-93.01 74.79-111.59 132.44 37.05-41.15 83.17-76.03 136.18-93.77 11.86-6.04 24-12.76 37.65-13.08 19.75-17.64 45.05-26.46 67.57-39.75 43.33-20.5 83.33-49.75 130.03-62.5-20.61-2.89-40.2-10.97-60.48-15.61-11.71-6.56-22.81-16.02-35.49-19.84m-36.84 14.04c-43.02 14.73-87.86 25.86-133.54 26.97 14.67 10.8 31.25 21.13 39.23 38.25 28.57-25.52 63.3-44.91 95.8-65.59-0.37 0.09-1.12 0.28-1.49 0.37m171.84 4.99c-11.92 4.99-24.66 8.8-34.79 17.18-10.62 8.13-25.35 8.47-35.55 16.88 9.89 70.35 20.12 142.49 14.53 212.91 45.72 28.74 85.94 66.21 125.64 101.46 0.4-80.33-15.8-159.38-34.1-237.04-10.56-37.3-28.8-74.97-35.73-111.39m-407.89 16.16c-23.78-0.91-46.39 7.35-67.45 17.5 21.79 15.21 48.71 26.9 63.76 50.08 8.24 17.62 35.94 1.04 42.17 20.9 10.72 18.66-2.85 37.87-8.03 55.78 19.9-22.77 45.32-42.04 66.54-62.66-9.66-29.97-34.91-50.07-57.7-69.94-11.44-7.68-25.35-12.91-39.29-11.66m36.94 3.87c24.58 17.8 50.58 43.76 66.66 72.51 8.64-12.29 31.13-18.25 30.15-34.63-14.1-13.43-26.09-31.49-45.73-37.1-17-0.61-34.07 0.14-51.08-0.78m293.99 17.09c-10.99 4.4-23.62 10.01-30.76 19.23-6.01 53.55-20.46 106.62-50.78 151.65 35.19 4.94 68.74 17.41 99.33 35.42 4.02-68.89-9.01-139.96-17.79-206.3m-39.05 19.83c-12.68 3.92-22.38 13.43-34.49 18.52-5.82 3.88-16.39 4.5-16.79 13.2-1.9 15.06-9.11 28.11-15.26 41.68-19.03 27.41-32.32 59.79-59.66 80.57 23.97-3.15 51.66-8.37 76.96-3.94 20.7-29.58 38.03-65 42.21-102.01 3.71-16.1 5.43-32.57 9.33-48.62-0.58 0.15-1.73 0.45-2.3 0.6m-55.92 31.04c-27.9 10.64-55.27 25.46-76.18 46.87-43.14 32.5-65.7 87.25-73.57 139.35 31.89-0.69 30.64-46.32 59.38-54.56 40.6-34.2 73.73-80.86 91.89-132.05-0.38 0.1-1.14 0.3-1.52 0.39m-79.66 39.1c-63.26 19.82-123.12 58.02-161.02 113.23-10.05 24.79-12.17 52.28-18.96 78.13 22.19-51.5 69.21-89.75 121.54-108.46 13.22-30.39 32.74-58.28 58.18-79.72 1.93-0.95 8.52-6.66 0.26-3.18m-63.63 91.68c-46.1 15.4-86.59 51.05-106.27 95.62 17.64-17 39.97-27.06 63.17-33.81 4.38-0.6 8.79-1.35 12.98-2.81 5.43-0.74 10.88-1 16.32-1.69 3.85-19.15 9.42-38.9 13.8-57.31m8.87 56.3c-4.36 3.98-14.92-1.32-15.76 5.14 21.89 8.1 32.03 30.62 44.7 48.43 22.13 47.95 17.37 102.45 21.52 153.64 2.96 75.61 11.97 160.21 67.43 217.41 17.47 9.1 28.61 36.5 52.24 23.1 20.01-13.8 44.91-18.5 62.44-35.7 17.31-9.7 36.28-17.8 55.54-21.4-24.46-4.2-50.74-1.4-73.16-14.1-16.37-9.9-38.49-15.3-48.21-32.8-39.95-41.2-45.81-101.52-63.25-153.69-4.34-40.99 0.88-83.91-13.58-123.47-13.65-36.13-48.29-72.05-89.91-66.56m-133.98 93.51c-6.05 20.12-13.25 39.88-18.88 60.15-40.53 105.52-69.66 218.26-59.27 332.26 4.12-8.3 4.01-18.6 6.39-27.5-6.23 56.8-5.62 116.8 14.54 171.4 11.06 55.5 44.85 105.6 43.88 163.7-1.54 14.4-0.64 29.3-5.77 43 19.47-28.2 35.33-60.4 55.36-87.6-5.14-5.4 4.41-9.5 1.79-15.7 0.96-17.5-1.77-35-5.82-52-16.09-133.9 23.62-267.3 81.69-386.7 18.96-33.47 28.59-71.04 42.14-106.83 2.57-36.95 10.5-74.28 3.99-111.29-1.39-22.7-14.77-47.63-32.48-59.28 5.18 25.49 13.69 56.43-5.24 78.77-29.05 49.9-71.25 90.89-100.01 140.94-11.64 12-18.04 27.89-27.6 41.49-20.76 42.2-44.01 84.2-53.19 130.8-1.16 13.3-8.06 25.1-9.58 38.3-0.34-0.5-1.01-1.5-1.35-2.1 9.63-56.7 27.38-113.1 58.11-162.1 5.49-19.4 20.22-33.89 30.07-50.94 26.46-47.85 65.99-86.57 96.23-131.73 13.7-21.27 15.53-47.97 9.93-72.11-0.23-8.88-5.4-19.25-15.21-19.88-49.96-1.26-103.59 32.67-109.72 84.95m174.19 28.8c-9.69 51.35-16.75 104.02-38.37 152.11-13.85 39.6-25.11 80.5-27.03 122.7-7.02 57.2 6.74 121.5 46.02 164.4 31-44.9 73.06-82.2 121.13-108.1-31.65-28.5-59.43-62.9-72.91-104-24.48-73.1-21.94-151.4-28.84-227.11m-260.93 112.51c-42.41 37.8-65.88 90.9-87.77 142.2-45.61 100.4-48.15 215-34.56 322.8 0.78 37.9-0.92 75.8-4.17 113.6-8.32 77.7-35.03 153.1-79.61 217.4 47.91-6.1 95.7-20.3 136.48-46.6 56.03-42.4 108.99-93.6 135.02-160.1 18.33-96.1-55.35-176-56.52-269.8 0.47-20.4-3.17-40.3-5.78-60.3-5.65-112.7 14.96-226.1 54.69-331.35-19.75 22.88-37.74 48.96-57.78 72.15m223.09 22.04c-43.66 95.26-88.45 192.56-97.97 298.26-2.92 60.8 5.31 122 5.08 182.5 33.38-57.2 67.65-113.9 105.44-168.3-11.1-23.4-28.17-44.4-34.73-70-18.92-50.9-12.44-106.2-2.56-158.1 8.25-27.7 20.04-57.7 24.74-84.36m-368.26 172.76c-42.19 85.7-57.87 181.3-82.9 272.9-7.67 17.3-11.58 36-20.18 53-9.23 29.6-28.33 54.9-40.63 83.2-25.76 38.4-47.81 81.2-71.78 121.4-5.95 9.8-17.16 16-20.67 27.2 10.37 8 22.6 13.8 32.96 21.9 45.14 2.7 87.61 22.3 133.23 21.1 9.4-10.1 19.95-19.7 26.83-31.9 28.18-57.4 52.09-118.2 58.55-182.3 2.73-36.6 0.69-76.6 0.67-114.7-4.8-62.9-9.09-126.8 1.28-189.5 4.7-73.9 33.92-143.8 70.3-207.6-34.44 37.2-67.37 78.2-87.66 125.3m-95.41 111.6c-17.66 45.3-41.13 88.3-57.69 134-15.46 24.8-27.01 52.5-47.05 74.3-16.14 25.1-40.06 43.9-59.11 66.1-12.08 8.6-21.01 21.6-34.46 28.7-1.45 48.8 15.46 98.9 48.52 135.3 1.56 1.4 3.56 2.7 5.75 2.7 20.53-20.1 31.01-47.4 48.31-69.8 13.33-24.8 28.61-48.7 40.43-74.2 27.82-42.3 44.65-89.9 62.24-137 25.45-66.1 27.81-138.8 56.14-204 15.66-62.4 51.23-117.5 90.04-168-57.79 64.9-110.49 135.7-153.12 211.9m782.92-151.1c-26.86 4.8-55.52 9-78.59 24.5 46.73 45.1 107.85 71 168.25 92.6 37.7 12.9 73.6 32 113.4 38.1 4.2-6.7 9.1-12.8 16.1-17.1 18.5-25.6 4.2-57.3-8.8-81.7-55.6-52.1-137.4-60.2-210.36-56.4m-168.68 69.3c16.49 19.9 35.9 37.8 54.82 54.8 30.77 24.2 61 52.3 98.53 65.6 41.09-10.3 83.89-17.6 124.69-27.4 14.6-1.1 28.8-4.1 43.3-5.8 8.7-0.7 17.4-0.3 26-1.7-6.9-3.7-14.6-5.9-22.4-7.3-27.4-5.9-50.2-25.6-78-30-2.3-1.1-4.7-1.9-7-2.6-1.2-2.5-5.9-1.9-8.3-3.2-48.1-16.7-94.75-39.4-134.49-71.4-1.23-8.6-10.87-5.5-14.27-11.6-26.88 14.8-54.77 29.8-82.88 40.6m-7.54-0.2c-41.44 13.8-69.34 48.8-98.43 79.3-56.48 72-105.41 150.1-150.09 229.8 36.91-36 83.13-60.4 126.83-86.7 31.33-19.8 64.19-37.5 99.02-50.4 30.57-7 57.78-24.3 88.66-30.3 27.25-5.9 53.97-14.4 81.62-18.3-22.47-18.7-53.85-28.4-72.47-52.7-5.81-4.2-11.61-8.6-17.7-12.4-16.18-15-33.53-29.1-48.57-45.5-3.34-3.9-2.12-12.7-8.87-12.8m339.18 90.9c-13.3 1.8-30.3 0.8-41.2 7.2 28.5 22.5 63.4 38.8 95.6 55.3 20.2 3 37.8 14.5 57.5 19.3 26.1 13 54.6 19.4 81.8 29.4 21.9 8.8 40.1-20.4 35.8-39.7-4.8-13-8.2-28.7-21.8-35.4-40.1-29.6-92.5-28.9-139.8-36.3-22.6-0.8-45.3-0.7-67.9 0.2m-162.65 31.4c-33.24 9.5-68.84 12.6-101.83 24.3 3.69 14.9 17.6 25 27.56 36 15.64 18.1 33.52 35.1 51.19 50.4 34.89 34.5 71.63 67.5 109.03 99.3 12.1 13 29.8 18 42.9 30.2 52.4-2.8 104.4-15.7 156.9-21.4 25.4-6.6 53.3-7 77.6-18.5 22.7-13.6 50.7-17.2 70.9-35.1 9.7-11 25.6-26.5 14-41.4-34.6-32.3-84.8-32.2-126.3-50.7-72.1-25.8-147.5-48.6-208.5-97.1-37.8 8-76 14.4-113.45 24m-131.07 31c-33.66 11.3-66.17 25.7-99.73 37.3 6.85 29.4 18.45 59.3 35.82 83.5 25.13 38.1 43.55 80.5 70.71 117.2 75.9-6.8 151.12-18.9 226.62-28 3.3-0.6 20.1 2.6 12.4-3.9-10.1-5.5-17.8-14.8-28.3-19.5-8.6-7-17-14.8-26.5-20.5-30.5-28.6-59.58-59.5-91.87-86.2-20.72-27.3-57.93-47.5-74.04-81-5.56-10.8-16.84 2.5-25.11 1.1m-194.64 91.2c-25.05 10.7-45.93 28.6-67.9 44.2-17.78 17.4-42.14 29.2-53.36 52.6-14.2 21.3-23.29 45.6-39.08 65.9-26.38 40.9-63.75 72.5-99.75 104.3-9.05 3.4-16.89 9.6-22.57 17.4-19.19 11.3-38.58 22.7-59.46 30.8 37.94 4 76.78-9.5 111.94-24.4 32.84-16.2 65.8-32.8 100.29-44.7 99.32-53.9 212.12-83.1 322.44-98.3 0.38-7.7-7.09-12.5-9.77-19-17.2-33.6-37.97-65.2-58.28-97-14.22-25.6-28.7-51.9-35.08-81-33.1 8.8-59.78 32.9-89.42 49.2z" fill="#040101"/>
<path d="m698.68 4.5c43.47-6.39 77.11 29.42 119.33 30.35 53.03 24.91 97.74 66.77 129.09 116.05 43.53 53.51 77.3 114.01 110.4 174.23-17.2 18.95-32.3 43.93-57.3 54.9-25.61-52.7-49.32-106.36-77.48-157.76-32.67-67.16-82.18-134.79-156.72-157.6-11.34-5.32-29.49 0.79-29.21 14.9-33.46-10.75-67.95 6.51-92.79 28.4-5.07-21.8-13.16-48.16 0.58-68.38 15.18-15.44 30.28-34.13 54.1-35.09m143.53 67.81c-2.36 0.4-0.48 3.7 1.09 4.41 39.19 31.21 74.39 67.11 106.34 105.64 29.98 40.78 58.06 86.29 89.16 124.18-23.6-40.35-51.21-79.55-77.97-118.37-26.76-34.68-49.52-73.12-82.6-102.39-9.65-9.07-23.67-10.8-36.02-13.47z" fill="#feeafb"/>
<path d="m753.54 69.43c44.26 4.26 80.76 35.59 109.72 67.3 20.61 27.98 42.75 55.64 55.74 88.26 29.35 50.65 52.35 104.6 75.77 158.1-12.97 5.39-25.04 14.77-39.2 16.55-19.66-51.65-46.79-99.91-72.53-148.66-32.06-39.93-54.9-89.26-99.41-117.52-4.01-3.33-9.21-4.13-14.1-5.29 1.39-19.85-9.72-39.88-28.71-46.94-5.86-6.67 6.85-12.35 12.72-11.8m91.65 70.9c-3.2 4.65 2.66 10.9 3.97 15.53 26.33 48.09 58.17 92.96 88.47 138.51 12.53 22.11 22.01 46.15 35.51 67.53-1.5-7.18-5.25-13.61-7.52-20.54-12.58-45.83-42.64-83.68-65.21-124.76-15.42-22.47-29.37-45.93-44.19-68.74-3.23-2.65-6.68-7.52-11.03-7.53z" fill="#fed9f2"/>
<path d="m842.21 72.31c12.35 2.67 26.37 4.4 36.02 13.47 33.08 29.27 55.84 67.71 82.6 102.39 26.76 38.82 54.37 78.02 77.97 118.37-31.1-37.89-59.18-83.4-89.16-124.18-31.95-38.53-67.15-74.43-106.34-105.64-1.57-0.71-3.45-4.01-1.09-4.41z" fill="#fefbfe"/>
<path d="m710.8 82.66c13.67-1.38 28.83-0.94 40.79 6.77 7.19 11.11 17.5 24.5 11.16 38.38-25.23-3.11-47.84-19.76-74.1-16.31-13.32 4.15-28.13 9.5-33.47 23.76-4.97-7.15-14.16-20.13-4-27.11 16.39-14.64 37.61-24.03 59.62-25.49m12.86 4.89c-18.43 2.57-37.86 4.98-54.76 12.54 28.36-5.59 58.07-1.59 83.26 12.73-5.31-11.33-13.66-27.59-28.5-25.27z" fill="#fc4044"/>
<path d="m723.66 87.55c14.84-2.32 23.19 13.94 28.5 25.27-25.19-14.32-54.9-18.32-83.26-12.73 16.9-7.56 36.33-9.97 54.76-12.54z" fill="#feb5dc"/>
<path d="m695.21 112.44c31.17 5.25 57.59 25.28 88.07 33.19 13.42 8.22 23.25 21.74 30.76 35.35 4.56 15.91 12.94 39.32-4.81 50.26-9.65 11.9-29.4 15.04-30.57 33.18-0.86-7.84-11.86-19.8-4.48-29.19 14.43-25.09 5.49-61.9-22.64-72.73-25.51-8.44-52.9 1.53-79.11-0.51-6.88 0.97-14.61-4.89-13.45-12.31-1.42-19.87 17.73-35.43 36.23-37.24z" fill="#fef7ff"/>
<path d="m639.12 120.25c5.28 4.98 7.59 13.75 7.19 21.13-12.71 15.03-3.48 42.77 16.71 45.4-9.8 6.8-19.95 17.25-33.19 13.74-8-1.92-10.52-9.75-14.95-15.5-5.17 1.12-5.75 8.31-2.99 11.99 11.42 15.42 25.95 30.89 28.01 50.91-5.27-0.74-9.98-3.58-6.74 3.85-5.31 12.55 19.14 4.58 10.55 12.01-7.09 3.56 3.54 1.8 6.46 3.01 1.36 4.13 4.8 6.73 7.08 10.16-19.93-2.93-42.57-3.29-57.76-18.44-10.99-11.98-15.62-29.75-11.44-45.49 6.73-35.55 29.38-64.9 51.07-92.77z" fill="#fef8fe"/>
<path d="m845.19 140.33c4.35 0.01 7.8 4.88 11.03 7.53 14.82 22.81 28.77 46.27 44.19 68.74 22.57 41.08 52.63 78.93 65.21 124.76 2.27 6.93 6.02 13.36 7.52 20.54-13.5-21.38-22.98-45.42-35.51-67.53-30.3-45.55-62.14-90.42-88.47-138.51-1.31-4.63-7.17-10.88-3.97-15.53z" fill="#fec8e5"/>
<path d="m651.32 142.41c1.86 5.69 3.3 11.6 6.65 16.66-5.11 1.89-8.74 5.23-8.95 11.03-1.01-9.21-3.38-19.49 2.3-27.69z" fill="#fdf9fe"/>
<path d="m1275.6 149.41c0.6-0.11 1.8-0.33 2.4-0.44-10 5.8-18.9 13.32-29 19.03-5.4 0.45-2.1 4.04-0.8 5.89 27-4.74 52.7-13.46 78-23.69-4.8 12.01-17.8 17.23-23.6 28.34-23.2 26.39-59.5 30.4-90.2 42.77-27.2 26.64-53.1 55.23-73.7 87.42-32.2 44.39-63.5 92.71-112.1 120.89-25.3 18.11-55.75 27.1-82.46 42.9-34.07-1-70.75-10.82-96.96-32.5 68.05-15.65 139.1-36.18 192.32-83.49 43-62.6 109.8-104.64 152.4-167.64 12.3-17.88 32.4-32.65 55-31.91 9.9-1.01 19-5.62 28.7-7.57z" fill="#ffbfc0"/>
<path d="m802.78 154.2c31.03 28.88 51.06 67.28 75.81 101.2 31.42 45.06 52.53 96 71.24 147.34-19.92 14.72-46.4 18.55-69.66 25.03-4.99-47.43-15.92-95.86-36.5-139.81-0.23-26.45-5.47-52.6-17.41-76.29 0.5-21.78-10.06-41.07-23.48-57.47m50.05 94.02c28.94 47.11 47.9 99.38 70.61 149.53-6.63-35.72-11.37-79.24-36.3-109.89-10.02-14.32-21.06-28.22-34.31-39.64z" fill="#fed2eb"/>
<path d="m658.32 162.95c26.62 9.8 54.79-2.43 82.11 1.29 25.8 4.98 44.92 36.17 32.43 60.6-6.08 9.67-4.94 21.42-5.69 32.31-0.04 18.79-8.51 36.04-14.52 53.44-6.87 13.82-25.49 24.93-40.17 15.9-24.05-13.63-37.63-39.46-55.52-59.65 7.66-4.92 21.53-6.54 22.83-18.65-9.39-3.3-24.01-10.43-31.92-0.19-5.92-1.36-2.99-9.16-5.4-13.39-0.43-9.68-15.26-15.1-11.1-25.16 17.58-2.13 30.02-15.27 42.41-26.62-2.33-8.73-9.42 1.12-14.65-3.81-8.49-0.85-4.99-11.99-0.81-16.07m60.42 27.6c-16 4.57-27.43 19.54-31.53 35.23-0.76 18.04 8.76 34.3 18.11 48.96 2.45 3.52 4.51-2.82 2.67-4.72-8.42-14.3-20.09-29.12-15.18-46.98 5.08-12.4 12.51-27.21 27.39-28.71 3.94-0.59 14.18 3.29 13.61-3.27-4.97-0.95-10.07-1.35-15.07-0.51m21.39 9c-3.56 1.39-5.91 6.87-10.14 4.02-7.46 13.22-26.62 15.65-31.39 31.11-3.65 10.07 11.23 9.24 16.24 6.32 13.13-3.04 17.13-20.16 30.85-21.24 1.84-4.64-2.88-6.5 1.45-11.42-12.69 4.57 8.47-10.69-7.01-8.79m-86.35 24.92c-3.6 0.24-7.69 1.56-4.63 5.57 9.46-3.44 19.08-1.15 27.9 2.79-1.85-9.7-15.84-9.2-23.27-8.36m75.76 57.93c-8.57 7.69-23.91 5.91-29.5 17.62 5.01 6.52 17.95 11.19 25.37 5.17 1.03-6.64 5.15-20.56 4.13-22.79z" fill="#ffbfc0"/>
<path d="m718.74 190.55c5-0.84 10.1-0.44 15.07 0.51 0.57 6.56-9.67 2.68-13.61 3.27-14.88 1.5-22.31 16.31-27.39 28.71-4.91 17.86 6.76 32.68 15.18 46.98 1.84 1.9-0.22 8.24-2.67 4.72-9.35-14.66-18.87-30.92-18.11-48.96 4.1-15.69 15.53-30.66 31.53-35.23z" fill="#070000"/>
<path d="m740.13 199.55c15.48-1.9-5.68 13.36 7.01 8.79-4.33 4.92 0.39 6.78-1.45 11.42-13.72 1.08-17.72 18.2-30.85 21.24-5.01 2.92-19.89 3.75-16.24-6.32 4.77-15.46 23.93-17.89 31.39-31.11 4.23 2.85 6.58-2.63 10.14-4.02m-9.45 18.1c-2.91 2.51-9.3 1.42-7.1 6.76-1.23 14.62 10.37-7.84 7.1-6.76m-20.9 13.42c-12.65 13.1 15.08 5.49 0 0z" fill="#020101"/>
<path d="m730.68 217.65c3.27-1.08-8.33 21.38-7.1 6.76-2.2-5.34 4.19-4.25 7.1-6.76z" fill="#fdfefe"/>
<path d="m825.57 221.47c9.38 24.86 17.33 59.25 4.44 86.56-7.21 22.43-33.45 31.41-41.09 53.24-4.96-28.01 0.58-58.54-7.74-85.18 5.46-9.21 5.54-21.31 15.61-27.4 11.48-6.83 22.18-15.35 28.78-27.22m-4.21 21.59c-8.96 13.03-2.96 32.09-11.22 45.96-8.14 11.96-12.85 28.37-12.24 41.88 7.03-7.72 10.27-20.52 18.44-28.55 13.69-15.8 16.19-44 5.02-59.29z" fill="#fed2f8"/>
<path d="m653.78 224.47c7.43-0.84 21.42-1.34 23.27 8.36-8.82-3.94-18.44-6.23-27.9-2.79-3.06-4.01 1.03-5.33 4.63-5.57z" fill="#070000"/>
<path d="m709.78 231.07c15.08 5.49-12.65 13.1 0 0z" fill="#fefdfe"/>
<path d="m821.36 243.06c11.17 15.29 8.67 43.49-5.02 59.29-8.17 8.03-11.41 20.83-18.44 28.55-0.61-13.51 4.1-29.92 12.24-41.88 8.26-13.87 2.26-32.93 11.22-45.96z" fill="#fef6fe"/>
<path d="m852.83 248.22c13.25 11.42 24.29 25.32 34.31 39.64 24.93 30.65 29.67 74.17 36.3 109.89-22.71-50.15-41.67-102.42-70.61-149.53z" fill="#feb3e6"/>
<path d="m654.17 253.83c6.05 6.61-5.93 5.2 0 0z" fill="#dcdcdc"/>
<path d="m770.63 266.49c13.59 45.97 14.05 102.3 9.53 152.15 16.11 9.26 36.29 13.09 52.55 19.3-60.36 29.12-130.31 47.24-198.23 40.62-21.23-2.02-43 0.01-63.89-4.2 31.42-18.74 69.06-22.52 102.56-36.2 23.16-10.05 41.94-28.94 50.22-52.94 0.93-16.55-1.67-33.22-0.16-49.81 10.35-2.68 21.04-6.6 27.91-15.28 14.87-13.89 13.61-35.68 19.51-53.64z" fill="#ffbfc0"/>
<path d="m631.32 278.43c14.92-1.34 29.52 5.27 40.92 14.35 9.25 17.61 25.22 32.34 43.63 39.28 11.46 16.06-0.61 35.64 4.88 52.89-8.3 27.55-35.94 40.35-59.64 52.14 12.8-19.35 40.2-30.38 42.61-56.35 11.32-41.86-29.35-71.73-63.84-84.57-4.56-2.65-20.49-17.71-8.56-17.74z" fill="#fed2f8"/>
<path d="m729.54 282.4c1.02 2.23-3.1 16.15-4.13 22.79-7.42 6.02-20.36 1.35-25.37-5.17 5.59-11.71 20.93-9.93 29.5-17.62m-4.65 7.07c-5.36-0.43-6.54 8.62-11.61 5.27-5.4-2.1-5.39 7.52-0.91 8.95 8.13 6.94 12.98-7.8 12.52-14.22z" fill="#0a0001"/>
<path d="m724.89 289.47c0.46 6.42-4.39 21.16-12.52 14.22-4.48-1.43-4.49-11.05 0.91-8.95 5.07 3.35 6.25-5.7 11.61-5.27z" fill="#ba0206"/>
<path d="m842.11 293.87c14.94 44.13 29.76 88.99 31.71 135.95-26.5 11.94-50.88-7.08-77.03-10.51-20.77-0.41-7.15-28.62-10.62-40.97 9.01-18.93 20.73-37.49 38.65-49.57 5.99-11.49 13.9-22.16 17.29-34.9m-7.04 33.03c-9.81 9.86 4.06 21.22 6.29 31.72 5.66 19.29 14.02 37.71 17.77 57.56 3.92-7.01-1.12-15.41-0.35-22.88-3.13-23.11-2.61-51.6-23.71-66.4z" fill="#ffc8e5"/>
<path d="m835.07 326.9c21.1 14.8 20.58 43.29 23.71 66.4-0.77 7.47 4.27 15.87 0.35 22.88-3.75-19.85-12.11-38.27-17.77-57.56-2.23-10.5-16.1-21.86-6.29-31.72z" fill="#eda1cb"/>
<path d="m1031 437.06c23.7-15.77 42.9-37.63 62.6-57.76 30.2 71.35 88.1 126.14 121.2 195.86 38.3 69.21 68.2 142.82 90.5 218.59 8.9 44.1 6.6 99.14-32.4 128.64 36.6-65.88 22.5-146.76-8-212.28-33.7-65.84-64-133.62-100.1-198.03 35.5 88.68 75 176 107.1 266.07 7.4 38.02 0.3 78.13-13.9 113.81-5.7 14.9-19.7 23.73-30.9 33.29 13.1 2.54 29.8 1.04 44.1-1.49-22 13.29-51.3 12.83-73.1 0.23 7.5-13.14 4-30.69-0.1-45.05-12.9-68.61-42.2-132.49-61.8-199.09-24.7-52.36-45.9-106.28-68.5-159.55-10.1-28.56-18.8-58.32-36.7-83.24m99.5 63.53c-0.4 6.98 3.2 13.27 5.1 19.82 26 70.3 50.9 141.07 73.4 212.58 5.9 26.65 18.8 51.86 18.3 79.7 0 12.87 4.4 28.45 17.8 33.12 7.8-0.84 12-9.68 11-16.87-11.8-106.31-65.9-200.36-108.6-296.4-6.5-9.87-10.9-24.67-17-31.95z" fill="#ffeafb"/>
<path d="m93.61 387.52c53.17-6.27 97.08 27.88 143.31 47.55 44.99 25.56 84.65 61.18 134.51 77.52 33.08 7.84 66.81-0.15 99.28-6.79 11.26-4.39 25.39-4.55 35.24 3.3 19.94 11.83 39.71 25.89 52.08 46-44.33-5.34-87.84 12.15-130.95 20.93-19.51 7.5-40.47 1.06-59.02-6.09-29.54-16.27-56.37-37-86.23-52.76-39.67-25.31-73.04-60.82-117.29-78.66-26.33-9.2-54.76 4.34-81.25-4.82-5.91-3.08-17.89-1.25-20.06-7.42 18.23-5.16 37.27 1.67 55.72-0.21-0.05-1.68-0.56-3.42-1.8-4.6-22.27-3.08-45.28-4.29-67.4 0.2-11.23 4.28-24.47 5.79-35.77 2.5 24.03-17.35 48.37-35.91 79.63-36.65z" fill="#ffbfc0"/>
<path d="m1024.4 440.48c31.9 29.15 30.6 79.85 54.5 115.65 22.1 51.74 42.9 104.19 65 155.96 15.4 64.39 50.9 124.25 52.3 191.8 0.2 5.81 2.1 14.46-3.3 17.84-56.3-22.79-106.6-60.65-146.9-105.58 5.3-96.49-22.8-189.54-46.1-282.01-10.74-22.6-17.73-47.07-21.84-71.64 15.41-7.36 31.04-14.31 46.34-22.02m26.4 90.63c15.2 93.91 36.4 187.05 45.2 281.86-0.1 7.14 0.1 24.95 11.1 23.3 22.1-36.7 7.3-81.5-0.9-120.46-15.9-62.13-32.8-125.18-55.4-184.7m48.1 94.19c23.4 81.2 50.8 161.73 68.9 244.37-5 9.63-20 5.42-26 13.36 12.3 12.35 31.7 12.97 47.9 17.07-5.3-25.05-8.8-50.45-14.3-75.45-23.9-66.81-48.9-135.1-76.5-199.35z" fill="#ffd9f2"/>
<path d="m837.37 444.38c12.68 3.82 23.78 13.28 35.49 19.84 20.28 4.64 39.87 12.72 60.48 15.61-46.7 12.75-86.7 42-130.03 62.5-22.52 13.29-47.82 22.11-67.57 39.75-13.65 0.32-25.79 7.04-37.65 13.08-53.01 17.74-99.13 52.62-136.18 93.77 18.58-57.65 71.96-90.75 111.59-132.44 50.05-43.61 106.06-79.83 163.87-112.11m-10.85 10.14c-17.61 8.38-32.12 22.55-46.71 35.29-13.63 15.36-32.68 25.6-44.79 42.14 39.37-22.8 81.72-40.02 125-53.94-9.22-9.23-21.16-20.12-33.5-23.49z" fill="#f76a8c"/>
<path d="m826.52 454.52c12.34 3.37 24.28 14.26 33.5 23.49-43.28 13.92-85.63 31.14-125 53.94 12.11-16.54 31.16-26.78 44.79-42.14 14.59-12.74 29.1-26.91 46.71-35.29z" fill="#f7abc7"/>
<path d="m800.53 458.42c0.37-0.09 1.12-0.28 1.49-0.37-32.5 20.68-67.23 40.07-95.8 65.59-7.98-17.12-24.56-27.45-39.23-38.25 45.68-1.11 90.52-12.24 133.54-26.97z" fill="#fe946d"/>
<path d="m972.37 463.41c6.93 36.42 25.17 74.09 35.73 111.39 18.3 77.66 34.5 156.71 34.1 237.04-39.7-35.25-79.92-72.72-125.64-101.46 5.59-70.42-4.64-142.56-14.53-212.91 10.2-8.41 24.93-8.75 35.55-16.88 10.13-8.38 22.87-12.19 34.79-17.18m-51.28 46.7c3.12 42.88 4.87 85.95 6.9 128.87 1.19 23.98-1.35 50.26 12.78 71.24 10.68 10.63 21.02 21.64 32.23 31.73-5.89-18.74-14.56-36.44-21.11-54.88-12.63-58.26-20.85-119.35-30.8-176.96m57.84 2.06c13.62 78.54 17.87 158.23 23.17 237.52 5.7 2.17 20.8 17.4 18.3 4-1.9-34.67-5.4-69.23-8.3-103.83-8.6-46.21-19.95-93.68-33.17-137.69m-10.91 9.07c0.2 44.76-4.2 89.37-8.73 133.86 0.63 9.42 1.19 27.16 13.79 26.21 12.89-14.18 10.21-35.25 9.78-52.92-4.78-35.44-6.23-73.94-14.84-107.15z" fill="#fed2eb"/>
<path d="m564.48 479.57c13.94-1.25 27.85 3.98 39.29 11.66 22.79 19.87 48.04 39.97 57.7 69.94-21.22 20.62-46.64 39.89-66.54 62.66 5.18-17.91 18.75-37.12 8.03-55.78-6.23-19.86-33.93-3.28-42.17-20.9-15.05-23.18-41.97-34.87-63.76-50.08 21.06-10.15 43.67-18.41 67.45-17.5z" fill="#ff6922"/>
<path d="m601.42 483.44c17.01 0.92 34.08 0.17 51.08 0.78 19.64 5.61 31.63 23.67 45.73 37.1 0.98 16.38-21.51 22.34-30.15 34.63-16.08-28.75-42.08-54.71-66.66-72.51z" fill="#fd8141"/>
<path d="m895.41 500.53c8.78 66.34 21.81 137.41 17.79 206.3-30.59-18.01-64.14-30.48-99.33-35.42 30.32-45.03 44.77-98.1 50.78-151.65 7.14-9.22 19.77-14.83 30.76-19.23m-9.34 27.37c0.44 40.68-2.77 81.3-2.02 121.99 4.99 23.31-28.41 15.06-39.53 19.75 16.58 6.53 34.41 10.37 49.61 19.98 6.81-0.22 5.41-10.83 5.93-15.71-0.6-48.9-5.54-97.88-13.99-146.01z" fill="#ffc6e6"/>
<path d="m1130.5 500.59c6.1 7.28 10.5 22.08 17 31.95 42.7 96.04 96.8 190.09 108.6 296.4 1 7.19-3.2 16.03-11 16.87-13.4-4.67-17.8-20.25-17.8-33.12 0.5-27.84-12.4-53.05-18.3-79.7-22.5-71.51-47.4-142.28-73.4-212.58-1.9-6.55-5.5-12.84-5.1-19.82z" fill="#fffaff"/>
<path d="m921.09 510.11c9.95 57.61 18.17 118.7 30.8 176.96 6.55 18.44 15.22 36.14 21.11 54.88-11.21-10.09-21.55-21.1-32.23-31.73-14.13-20.98-11.59-47.26-12.78-71.24-2.03-42.92-3.78-85.99-6.9-128.87z" fill="#f3abd1"/>
<path d="m978.93 512.17c13.22 44.01 24.57 91.48 33.17 137.69 2.9 34.6 6.4 69.16 8.3 103.83 2.5 13.4-12.6-1.83-18.3-4-5.3-79.29-9.55-158.98-23.17-237.52z" fill="#f3abd1"/>
<path d="m1164.8 512.08c36.1 64.41 66.4 132.19 100.1 198.03 30.5 65.52 44.6 146.4 8 212.28 0 1.14-0.6 1.59-1.7 1.37-14.3 2.53-31 4.03-44.1 1.49 11.2-9.56 25.2-18.39 30.9-33.29 14.2-35.68 21.3-75.79 13.9-113.81-32.1-90.07-71.6-177.39-107.1-266.07z" fill="#fed2eb"/>
<path d="m856.36 520.36c0.57-0.15 1.72-0.45 2.3-0.6-3.9 16.05-5.62 32.52-9.33 48.62-4.18 37.01-21.51 72.43-42.21 102.01-25.3-4.43-52.99 0.79-76.96 3.94 27.34-20.78 40.63-53.16 59.66-80.57 6.15-13.57 13.36-26.62 15.26-41.68 0.4-8.7 10.97-9.32 16.79-13.2 12.11-5.09 21.81-14.6 34.49-18.52m-16.99 40.04c-14.2 38.19-33.1 82.06-73.03 99.83 10.63 2.15 27.31 4.53 38.95 0.12 18.03-29.89 31.52-66.81 34.08-99.95z" fill="#ffc0e3"/>
<path d="m968.02 521.24c8.61 33.21 10.06 71.71 14.84 107.15 0.43 17.67 3.11 38.74-9.78 52.92-12.6 0.95-13.16-16.79-13.79-26.21 4.53-44.49 8.93-89.1 8.73-133.86z" fill="#ffeafb"/>
<path d="m886.07 527.9c8.45 48.13 13.39 97.11 13.99 146.01-0.52 4.88 0.88 15.49-5.93 15.71-15.2-9.61-33.03-13.45-49.61-19.98 11.12-4.69 44.52 3.56 39.53-19.75-0.75-40.69 2.46-81.31 2.02-121.99z" fill="#ed9cca"/>
<path d="m1050.8 531.11c22.6 59.52 39.5 122.57 55.4 184.7 8.2 38.96 23 83.76 0.9 120.46-11 1.65-11.2-16.16-11.1-23.3-8.8-94.81-30-187.95-45.2-281.86z" fill="#fffaff"/>
<path d="m800.44 551.4c0.38-0.09 1.14-0.29 1.52-0.39-18.16 51.19-51.29 97.85-91.89 132.05-28.74 8.24-27.49 53.87-59.38 54.56 7.87-52.1 30.43-106.85 73.57-139.35 20.91-21.41 48.28-36.23 76.18-46.87m-30.37 38.86c-15.46 10.7-29.91 22.74-45.43 33.38-30.85 16.11-52.8 47.13-60.13 80.85-0.06 1.47-1.46 4.63 1.17 4.2 13.86-23.82 35.92-41.79 56.81-59.22 21.71-14.1 34.97-37.36 47.58-59.21z" fill="#f3abd1"/>
<path d="m839.37 560.4c-2.56 33.14-16.05 70.06-34.08 99.95-11.64 4.41-28.32 2.03-38.95-0.12 39.93-17.77 58.83-61.64 73.03-99.83z" fill="#f3abd1"/>
<path d="m720.78 590.5c8.26-3.48 1.67 2.23-0.26 3.18-25.44 21.44-44.96 49.33-58.18 79.72-52.33 18.71-99.35 56.96-121.54 108.46 6.79-25.85 8.91-53.34 18.96-78.13 37.9-55.21 97.76-93.41 161.02-113.23m-52.28 25.97c-15.03 8.01-28.19 19.03-41.61 29.42-17.58 13.15-21 36.21-25.8 56.12 14.16-10.63 32.58-18.76 39.97-35.94 9.26-16.93 19.92-33.1 28.79-50.23-0.34 0.16-1.01 0.48-1.35 0.63z" fill="#f67798"/>
<path d="m770.07 590.26c-12.61 21.85-25.87 45.11-47.58 59.21-20.89 17.43-42.95 35.4-56.81 59.22-2.63 0.43-1.23-2.73-1.17-4.2 7.33-33.72 29.28-64.74 60.13-80.85 15.52-10.64 29.97-22.68 45.43-33.38z" fill="#e791be"/>
<path d="m668.5 616.47c0.34-0.15 1.01-0.47 1.35-0.63-8.87 17.13-19.53 33.3-28.79 50.23-7.39 17.18-25.81 25.31-39.97 35.94 4.8-19.91 8.22-42.97 25.8-56.12 13.42-10.39 26.58-21.41 41.61-29.42z" fill="#f7b7d1"/>
<path d="m1098.9 625.3c27.6 64.25 52.6 132.54 76.5 199.35 5.5 25 9 50.4 14.3 75.45-16.2-4.1-35.6-4.72-47.9-17.07 6-7.94 21-3.73 26-13.36-18.1-82.64-45.5-163.17-68.9-244.37z" fill="#eeb2d8"/>
<path d="m657.15 682.18c-4.38 18.41-9.95 38.16-13.8 57.31-5.44 0.69-10.89 0.95-16.32 1.69 4.58-1.86 1.13-5.6 0.56-8.92-0.79-11.67 3.64-22.78 5.5-34.15-9.67 3.96-18.34 10.36-27.22 15.78-5.92 10.66-10.28 22.31-14.03 33.94 7.29-1.82 14.7-3.21 22.21-3.84-23.2 6.75-45.53 16.81-63.17 33.81 19.68-44.57 60.17-80.22 106.27-95.62z" fill="#f67798"/>
<path d="m605.87 713.89c8.88-5.42 17.55-11.82 27.22-15.78-1.86 11.37-6.29 22.48-5.5 34.15 0.57 3.32 4.02 7.06-0.56 8.92-4.19 1.46-8.6 2.21-12.98 2.81-7.51 0.63-14.92 2.02-22.21 3.84 3.75-11.63 8.11-23.28 14.03-33.94z" fill="#f7b7d1"/>
<path d="m687.9 734.82c-5.21-0.81-15.37 4.43-13.47-4.75 0.29 6.62 9.27 3.08 13.47 4.75z" fill="#75717e"/>
<path d="m666.02 738.48c41.62-5.49 76.26 30.43 89.91 66.56 14.46 39.56 9.24 82.48 13.58 123.47 17.44 52.17 23.3 112.49 63.25 153.69 9.72 17.5 31.84 22.9 48.21 32.8 22.42 12.7 48.7 9.9 73.16 14.1-19.26 3.6-38.23 11.7-55.54 21.4-17.53 17.2-42.43 21.9-62.44 35.7-23.63 13.4-34.77-14-52.24-23.1-55.46-57.2-64.47-141.8-67.43-217.41-4.15-51.19 0.61-105.69-21.52-153.64-12.67-17.81-22.81-40.33-44.7-48.43 0.84-6.46 11.4-1.16 15.76-5.14m15.57 10.99c-12.3 0.17 2.47 12.95 4.26 17.67 52.37 38.72 38.61 111.05 52.21 166.06 2.17-34.58 5.04-69.22 5.8-103.81-0.01-25.01-13.2-46.96-28.63-65.6-8.47-8.91-20.98-15.99-33.64-14.32m71.3 289.53c11.19 40.6 19.22 86.6 50.15 117 8.5 10.2 16.05 22.8 29.02 27.8 28.93-17.3 58.26-35.9 89.95-48.5 4.34-0.8 11.22-0.8 13.87-3.3-34.52-0.4-69.37 0.8-103.67-1.1-36.88-19.3-55.67-59.9-79.32-91.9z" fill="#da6285"/>
<path d="m532.04 831.99c6.13-52.28 59.76-86.21 109.72-84.95 9.81 0.63 14.98 11 15.21 19.88 5.6 24.14 3.77 50.84-9.93 72.11-30.24 45.16-69.77 83.88-96.23 131.73-9.85 17.05-24.58 31.54-30.07 50.94-30.73 49-48.48 105.4-58.11 162.1-1.09 4.3-2.06 8.7-2.35 13.1-2.38 8.9-2.27 19.2-6.39 27.5-10.39-114 18.74-226.74 59.27-332.26 5.63-20.27 12.83-40.03 18.88-60.15m98.38-76.65c-12.94 5.57-26.48 9.76-39.32 15.58 15.09 19.06 8.37 46.43-2.15 66.09-11.22 32.28-19.21 66.72-23.26 100.09 6.17-15.17 15.52-28.71 23.39-43.01 11.13-16.7 28.84-28.51 36.51-47.56 9.48-22.81 4.05-48.01 8.41-71.75-2.23-4.87 4.98-20.97-3.58-19.44z" fill="#fdadc8"/>
<path d="m681.59 749.47c12.66-1.67 25.17 5.41 33.64 14.32 15.43 18.64 28.62 40.59 28.63 65.6-0.76 34.59-3.63 69.23-5.8 103.81-13.6-55.01 0.16-127.34-52.21-166.06-1.79-4.72-16.56-17.5-4.26-17.67z" fill="#fe94b2"/>
<path d="m630.42 755.34c8.56-1.53 1.35 14.57 3.58 19.44-4.36 23.74 1.07 48.94-8.41 71.75-7.67 19.05-25.38 30.86-36.51 47.56-7.87 14.3-17.22 27.84-23.39 43.01 4.05-33.37 12.04-67.81 23.26-100.09 10.52-19.66 17.24-47.03 2.15-66.09 12.84-5.82 26.38-10.01 39.32-15.58z" fill="#fee2f1"/>
<path d="m659.6 755.6c17.71 11.65 31.09 36.58 32.48 59.28 6.51 37.01-1.42 74.34-3.99 111.29-13.55 35.79-23.18 73.36-42.14 106.83-58.07 119.4-97.78 252.8-81.69 386.7 4.05 17 6.78 34.5 5.82 52 2.62 6.2-6.93 10.3-1.79 15.7-20.03 27.2-35.89 59.4-55.36 87.6 5.13-13.7 4.23-28.6 5.77-43 0.97-58.1-32.82-108.2-43.88-163.7-20.16-54.6-20.77-114.6-14.54-171.4 0.29-4.4 1.26-8.8 2.35-13.1 0.34 0.6 1.01 1.6 1.35 2.1 1.52-13.2 8.42-25 9.58-38.3 9.18-46.6 32.43-88.6 53.19-130.8 9.56-13.6 15.96-29.49 27.6-41.49 28.76-50.05 70.96-91.04 100.01-140.94 18.93-22.34 10.42-53.28 5.24-78.77m-36.16 142.73c-17.61 23.66-34.16 48.22-50.7 72.66-15.1 61.41-21.33 124.51-23 187.61-4.81 48.7-2.9 98.2 8.62 145.9 2.77-60.6 1.65-121.8 11.29-181.9 3.49-44 27.03-83.2 33.13-126.76 6.42-32.13 14.68-67.14 20.66-97.51z" fill="#ff94b2"/>
<path d="m770.19 844.83c0.19 3.74 0.39 7.5 0.61 11.28-0.24-3.78-0.44-7.54-0.61-11.28z" fill="#84808e"/>
<path d="m706.23 860.79c6.9 75.71 4.36 154.01 28.84 227.11 13.48 41.1 41.26 75.5 72.91 104-48.07 25.9-90.13 63.2-121.13 108.1-39.28-42.9-53.04-107.2-46.02-164.4 1.92-42.2 13.18-83.1 27.03-122.7 21.62-48.09 28.68-100.76 38.37-152.11m-41.03 208.01c-10.01 44.6-12.87 91.2-5.51 136.5 8.39 22.3 14.93 45.9 26.17 66.8 11.65-19.1 25.12-37.4 41.53-52.7 10.24-10 25.97-13.2 37.31-19.6-19.87 3-39.78 8.3-60.04 6.6-8.31-1.2-18.77-3.2-21.52-12.6-17.36-39.2-15.35-83.5-17.94-125z" fill="#f77798"/>
<path d="m623.44 898.33c-5.98 30.37-14.24 65.38-20.66 97.51-6.1 43.56-29.64 82.76-33.13 126.76-9.64 60.1-8.52 121.3-11.29 181.9-11.52-47.7-13.43-97.2-8.62-145.9 1.67-63.1 7.9-126.2 23-187.61 16.54-24.44 33.09-49 50.7-72.66z" fill="#ffd4e8"/>
<path d="m445.3 973.3c20.04-23.19 38.03-49.27 57.78-72.15-39.73 105.25-60.34 218.65-54.69 331.35 2.61 20 6.25 39.9 5.78 60.3 1.17 93.8 74.85 173.7 56.52 269.8-26.03 66.5-78.99 117.7-135.02 160.1-40.78 26.3-88.57 40.5-136.48 46.6 44.58-64.3 71.29-139.7 79.61-217.4 21.76-12.7 45.34-24.7 59.27-46.8 27.36-41.3 32.71-92.1 36.87-140.3-25.44 30.3-55.7 56.9-91.97 73.5-13.59-107.8-11.05-222.4 34.56-322.8 21.89-51.3 45.36-104.4 87.77-142.2m-21.92 55.4c-14.43 20.4-26.46 42.9-39.18 64.5-7.82 19.2-22.38 35.9-24.11 57.2-5.88 14.9-6.87 37.6-11.47 55.2-9.25 38.9-8.98 79.5-1.99 118.8 3.25 17.3 1.3 35.6 7.57 52.3 1.7 4.6 5.6-0.1 6.97-2.6 15.18-27.2 27.48-56 39.09-84.9 8.68-30 5.6-61.4 4.63-92.2 3.13-71.8 11.7-146.1 47.18-209.97-9.13 13.97-23.35 25.27-28.69 41.67m3.91 361.4c-6.87 36-8.98 74.7-11.31 111.8-4.23 32 3.83 65.5-9 96.1-26.82 55.7-72.18 102.3-125.06 134 49.09-12.8 98.55-33.5 132.21-72.9 11.99-16.2 35.04-23.6 40.56-44.5 13.62-76-23.03-151.5-27.4-224.5z" fill="#ed7495"/>
<path d="m423.38 1028.7c5.34-16.4 19.56-27.7 28.69-41.67-35.48 63.87-44.05 138.17-47.18 209.97 0.97 30.8 4.05 62.2-4.63 92.2-11.61 28.9-23.91 57.7-39.09 84.9-1.37 2.5-5.27 7.2-6.97 2.6-6.27-16.7-4.32-35-7.57-52.3-6.99-39.3-7.26-79.9 1.99-118.8 4.6-17.6 5.59-40.3 11.47-55.2 2.07 10.2-4.92 28.6 5.95 34.7 12.65-10.2 19.78-28 20.42-44.5 3.3-39.9 26.17-74.3 36.92-111.9z" fill="#fdadc8"/>
<path d="m668.39 995.34c-4.7 26.66-16.49 56.66-24.74 84.36-9.88 51.9-16.36 107.2 2.56 158.1 6.56 25.6 23.63 46.6 34.73 70-37.79 54.4-72.06 111.1-105.44 168.3 0.23-60.5-8-121.7-5.08-182.5 9.52-105.7 54.31-203 97.97-298.26m-49.14 128.96c-10.9 53.9-24.82 107.6-32.93 162.3-0.86 39.7 0.08 79.5-0.47 119.2 4.52-14.6 6.86-34.4 18.94-47 17.42-14.4 38.38-26 53.89-42-13.07 6-31.29 1-33.64-14.9-12.61-57.8-8.77-121-5.79-177.6z" fill="#ed7495"/>
<path d="m384.2 1093.2c12.72-21.6 24.75-44.1 39.18-64.5-10.75 37.6-33.62 72-36.92 111.9-0.64 16.5-7.77 34.3-20.42 44.5-10.87-6.1-3.88-24.5-5.95-34.7 1.73-21.3 16.29-38 24.11-57.2z" fill="#ffd4e8"/>
<path d="m752.89 1039c23.65 32 42.44 72.6 79.32 91.9 34.3 1.9 69.15 0.7 103.67 1.1-2.65 2.5-9.53 2.5-13.87 3.3-30.61-3.5-60.73 10.1-91.62 7.4-16.92-1.1-36.56-4-46.57-19.5 5.26 11.5 13.01 21.7 19.22 32.8-30.93-30.4-38.96-76.4-50.15-117z" fill="#fe93b2"/>
<path d="m300.13 1168.1c20.29-47.1 53.22-88.1 87.66-125.3-36.38 63.8-65.6 133.7-70.3 207.6-10.37 62.7-6.08 126.6-1.28 189.5-32.1 9.5-66.66 9.6-98.98 1.1 25.03-91.6 40.71-187.2 82.9-272.9m14.25-5.8c-5.8 12.8-10.37 26.1-16.09 39-17.19 51-42.07 102.6-37.44 157.8 2.08 15.6 7.58 35.6 24.41 40.8-2.03-67.7 5.67-135.2 19.22-201.4 0.66-12.4 10.15-25.4 9.9-36.2z" fill="#da6285"/>
<path d="m204.72 1279.7c42.63-76.2 95.33-147 153.12-211.9-38.81 50.5-74.38 105.6-90.04 168-28.33 65.2-30.69 137.9-56.14 204-22.9-4.8-43.66-16.2-64.63-26.1 16.56-45.7 40.03-88.7 57.69-134m46.75-61.2c-20.81 24.3-36.5 52.9-52.02 80.9-11.56 24-9.58 52-20.99 76.1-1.68 3.5-6.17 12.9 1.62 9.8 25.67-18.4 38.95-50.2 42.4-80.8 5.46-29.1 18.57-60.6 28.99-86z" fill="#d26084"/>
<path d="m665.2 1068.8c2.59 41.5 0.58 85.8 17.94 125 2.75 9.4 13.21 11.4 21.52 12.6 20.26 1.7 40.17-3.6 60.04-6.6-11.34 6.4-27.07 9.6-37.31 19.6-16.41 15.3-29.88 33.6-41.53 52.7-11.24-20.9-17.78-44.5-26.17-66.8-7.36-45.3-4.5-91.9 5.51-136.5z" fill="#ff94b2"/>
<path d="m783.82 1123.2c10.01 15.5 29.65 18.4 46.57 19.5 30.89 2.7 61.01-10.9 91.62-7.4-31.69 12.6-61.02 31.2-89.95 48.5-12.97-5-20.52-17.6-29.02-27.8-6.21-11.1-13.96-21.3-19.22-32.8z" fill="#ffd4e8"/>
<path d="m951.97 1123.1c8.39 0 16.78 0 25.18 0.7-8.41 0.3-16.84 0.2-25.18-0.7z" fill="#8d8998"/>
<path d="m619.25 1124.3c-2.98 56.6-6.82 119.8 5.79 177.6 2.35 15.9 20.57 20.9 33.64 14.9-15.51 16-36.47 27.6-53.89 42-12.08 12.6-14.42 32.4-18.94 47 0.55-39.7-0.39-79.5 0.47-119.2 8.11-54.7 22.03-108.4 32.93-162.3z" fill="#da6285"/>
<path d="m987.64 1128.6c72.96-3.8 154.76 4.3 210.36 56.4 13 24.4 27.3 56.1 8.8 81.7-7 4.3-11.9 10.4-16.1 17.1-39.8-6.1-75.7-25.2-113.4-38.1-60.4-21.6-121.52-47.5-168.25-92.6 23.07-15.5 51.73-19.7 78.59-24.5z" fill="#c7144b"/>
<path d="m818.96 1197.9c28.11-10.8 56-25.8 82.88-40.6 3.4 6.1 13.04 3 14.27 11.6 39.74 32 86.39 54.7 134.49 71.4 2.3 1.3 4.6 2.8 6.8 4.3-21.7-0.9-40.6-13.2-60.36-20.6-19.81-7.5-37.69-19-56.44-28.6 12.11 11 25.41 20.7 37.79 31.5-33.72 10.7-71.22 12.1-104.61 25.8-18.92-17-38.33-34.9-54.82-54.8z" fill="#d94670"/>
<path d="m314.38 1162.3c0.25 10.8-9.24 23.8-9.9 36.2-13.55 66.2-21.25 133.7-19.22 201.4-16.83-5.2-22.33-25.2-24.41-40.8-4.63-55.2 20.25-106.8 37.44-157.8 5.72-12.9 10.29-26.2 16.09-39z" fill="#fe93b2"/>
<path d="m940.6 1195.4c18.75 9.6 36.63 21.1 56.44 28.6 19.76 7.4 38.66 19.7 60.36 20.6-2.2-1.5-4.5-3-6.8-4.3 2.4 1.3 7.1 0.7 8.3 3.2 8.6 21.3-6.3 47-28.3 52.1-2.3 1.6-9.7 2.3-6.9 5.8-20.7-0.2-41.32 6.8-61.77 10.5 18.65-9.7 42.07-19.2 48.77-41.1-2.1-19-19.01-31.9-32.31-43.9-12.38-10.8-25.68-20.5-37.79-31.5z" fill="#ff94b2"/>
<path d="m811.42 1197.7c6.75 0.1 5.53 8.9 8.87 12.8 15.04 16.4 32.39 30.5 48.57 45.5-20.7 3.7-35.56 19.3-52.01 30.8-28.69 25.7-57.3 51.4-81.86 81.2-16.1 16.4-33.64 32.2-45.26 52.1-43.7 26.3-89.92 50.7-126.83 86.7 44.68-79.7 93.61-157.8 150.09-229.8 29.09-30.5 56.99-65.5 98.43-79.3z" fill="#ed7495"/>
<path d="m251.47 1218.5c-10.42 25.4-23.53 56.9-28.99 86-3.45 30.6-16.73 62.4-42.4 80.8-7.79 3.1-3.3-6.3-1.62-9.8 11.41-24.1 9.43-52.1 20.99-76.1 15.52-28 31.21-56.6 52.02-80.9z" fill="#ed7495"/>
<path d="m978.39 1226.9c13.3 12 30.21 24.9 32.31 43.9-6.7 21.9-30.12 31.4-48.77 41.1 20.45-3.7 41.07-10.7 61.77-10.5 24.4-3.8 48.9-7 73.3-10.5-40.8 9.8-83.6 17.1-124.69 27.4-37.53-13.3-67.76-41.4-98.53-65.6 33.39-13.7 70.89-15.1 104.61-25.8z" fill="#da6285"/>
<path d="m1030.6 1295.6c22-5.1 36.9-30.8 28.3-52.1 2.3 0.7 4.7 1.5 7 2.6 26 13.6 54.1 23.5 79.6 37.9-1.3 0.3-3.9 0.8-5.2 1.1-14.5 1.7-28.7 4.7-43.3 5.8-24.4 3.5-48.9 6.7-73.3 10.5-2.8-3.5 4.6-4.2 6.9-5.8z" fill="#ffd4e8"/>
<path d="m1065.9 1246.1c27.8 4.4 50.6 24.1 78 30 7.8 1.4 15.5 3.6 22.4 7.3-8.6 1.4-17.3 1-26 1.7 1.3-0.3 3.9-0.8 5.2-1.1-25.5-14.4-53.6-24.3-79.6-37.9z" fill="#d66586"/>
<path d="m816.85 1286.8c16.45-11.5 31.31-27.1 52.01-30.8 6.09 3.8 11.89 8.2 17.7 12.4 18.62 24.3 50 34 72.47 52.7-27.65 3.9-54.37 12.4-81.62 18.3-30.88 6-58.09 23.3-88.66 30.3-34.83 12.9-67.69 30.6-99.02 50.4 11.62-19.9 29.16-35.7 45.26-52.1 24.56-29.8 53.17-55.5 81.86-81.2m61.01-15.6c2.86 12.3 10.73 24.7 7.09 37.5-34.09 23.5-75.85 37-110.62 57.4 52.49-12.2 102.95-32.4 154.5-48.1-14.97-17.1-36.38-29-50.97-46.8z" fill="#ff94b2"/>
<path d="m877.86 1271.2c14.59 17.8 36 29.7 50.97 46.8-51.55 15.7-102.01 35.9-154.5 48.1 34.77-20.4 76.53-33.9 110.62-57.4 3.64-12.8-4.23-25.2-7.09-37.5z" fill="#ffd3e8"/>
<path d="m1150.6 1288.6c22.6-0.9 45.3-1 67.9-0.2 47.3 7.4 99.7 6.7 139.8 36.3 13.6 6.7 17 22.4 21.8 35.4 4.3 19.3-13.9 48.5-35.8 39.7-27.2-10-55.7-16.4-81.8-29.4-19.7-4.8-37.3-16.3-57.5-19.3-32.2-16.5-67.1-32.8-95.6-55.3 10.9-6.4 27.9-5.4 41.2-7.2z" fill="#c7144b"/>
<path d="m987.95 1320c37.45-9.6 75.65-16 113.45-24 61 48.5 136.4 71.3 208.5 97.1-8.7 0.2-17.3 1.7-25.9 3.1-51.5-17-101.7-37.5-153-55.3 21.3 24.1 47.9 42.6 73 62.4-79.6 9.2-160.8 8.4-239.13 27.4-17.67-15.3-35.55-32.3-51.19-50.4-9.96-11-23.87-21.1-27.56-36 32.99-11.7 68.59-14.8 101.83-24.3z" fill="#da3766"/>
<path d="m1131 1340.9c51.3 17.8 101.5 38.3 153 55.3 22.8 8 45.4 16.8 68.3 24.6-1.3 0.1-3.8 0.2-5.1 0.3 8.1 18 35.8 39.5 25.8 63.8-22.9 16.1-51.6 21-76 34-45.5 5.5-92.4 15.2-136.9 20.5 56.4-15.3 114.4-26.3 168-50.3 9.3-3.1 22.3-15.1 13.9-25-15-12.3-35-14.5-52.5-21.7-30.7-7.2-60.1-20-85.5-39.1-25.1-19.8-51.7-38.3-73-62.4z" fill="#ff94b2"/>
<path d="m856.88 1351c8.27 1.4 19.55-11.9 25.11-1.1 16.11 33.5 53.32 53.7 74.04 81-6.95 1.6-13.91 3.1-20.92 4.3-12.47-11.3-23.56-24.2-37.14-34.2 6.43 13.8 19.69 22.9 25.77 36.9-43.74 10.6-88.32 18.7-130.77 33.9-17.37-24.2-28.97-54.1-35.82-83.5 33.56-11.6 66.07-26 99.73-37.3z" fill="#e43d68"/>
<path d="m414.94 1364.8c-4.16 48.2-9.51 99-36.87 140.3-13.93 22.1-37.51 34.1-59.27 46.8 3.25-37.8 4.95-75.7 4.17-113.6 36.27-16.6 66.53-43.2 91.97-73.5z" fill="#da6285"/>
<path d="m427.29 1390.1c4.37 73 41.02 148.5 27.4 224.5-5.52 20.9-28.57 28.3-40.56 44.5-33.66 39.4-83.12 60.1-132.21 72.9 52.88-31.7 98.24-78.3 125.06-134 12.83-30.6 4.77-64.1 9-96.1 2.33-37.1 4.44-75.8 11.31-111.8z" fill="#fdadc8"/>
<path d="m662.24 1442.2c29.64-16.3 56.32-40.4 89.42-49.2 6.38 29.1 20.86 55.4 35.08 81-74.31 20.4-145 57.6-198.97 113-15.58-20.1-1.05-47.8 9.09-67.1 1.74-6.5 12.45-14 8.79-20.7-18.03 4.4-30.89 20.1-43.85 32.6-20.71 23.1-42.76 47.5-48.91 79-24.89 49.8-72.86 81.5-112.97 118.1 15.8-3.8 30.88-11.3 46.92-13.3-5.04 5.7-9.93 11.6-14.78 17.4-35.16 14.9-74 28.4-111.94 24.4 20.88-8.1 40.27-19.5 59.46-30.8 5.68-7.8 13.52-14 22.57-17.4 36-31.8 73.37-63.4 99.75-104.3 15.79-20.3 24.88-44.6 39.08-65.9 11.22-23.4 35.58-35.2 53.36-52.6 21.97-15.6 42.85-33.5 67.9-44.2z" fill="#df164c"/>
<path d="m1284 1396.2c8.6-1.4 17.2-2.9 25.9-3.1 41.5 18.5 91.7 18.4 126.3 50.7 11.6 14.9-4.3 30.4-14 41.4-20.2 17.9-48.2 21.5-70.9 35.1-24.3 11.5-52.2 11.9-77.6 18.5-52.5 5.7-104.5 18.6-156.9 21.4-13.1-12.2-30.8-17.2-42.9-30.2-37.4-31.8-74.14-64.8-109.03-99.3 78.33-19 159.53-18.2 239.13-27.4 25.4 19.1 54.8 31.9 85.5 39.1 17.5 7.2 37.5 9.4 52.5 21.7 8.4 9.9-4.6 21.9-13.9 25-53.6 24-111.6 35-168 50.3 44.5-5.3 91.4-15 136.9-20.5 34.1-2.1 69.9-6.2 99.8-24.1 18.2-7.8 35.5-29.7 26.6-50.1-15.2-22.9-46.9-21.1-71.1-23.9-22.9-7.8-45.5-16.6-68.3-24.6z" fill="#da6285"/>
<path d="m897.97 1401c13.58 10 24.67 22.9 37.14 34.2 23.56 19.8 45.77 42.1 72.19 58.2 3.7 16.3 11.9 31.6 12.4 48.6 3.2 19.1-20.55 18.3-33.01 23.4-25.82 0.9-51.23 6.5-76.4 11.8 16.68-14.1 33.84-28.2 46.86-46 6.45-11.2 3.04-24.8-1.18-36.2-8.71-20-18.22-40.1-32.23-57.1-6.08-14-19.34-23.1-25.77-36.9z" fill="#ff94b2"/>
<path d="m99.98 1488c20.04-21.8 31.59-49.5 47.05-74.3 20.97 9.9 41.73 21.3 64.63 26.1-17.59 47.1-34.42 94.7-62.24 137-24.98-1.2-49.68-5.5-74.12-10.6 7.84-20.3 18.48-39.3 26.48-59.4-16.61 16-28.16 37.2-46.07 52.1-5.2-0.7-10.11-2.6-14.84-4.8 19.05-22.2 42.97-41 59.11-66.1z" fill="#c7144b"/>
<path d="m1347.2 1421.1c1.3-0.1 3.8-0.2 5.1-0.3 24.2 2.8 55.9 1 71.1 23.9 8.9 20.4-8.4 42.3-26.6 50.1-29.9 17.9-65.7 22-99.8 24.1 24.4-13 53.1-17.9 76-34 10-24.3-17.7-45.8-25.8-63.8z" fill="#ffd4e8"/>
<path d="m935.11 1435.2c7.01-1.2 13.97-2.7 20.92-4.3 32.29 26.7 61.37 57.6 91.87 86.2-6.8-2.7-13.2-6.2-19.9-9-7-4.9-13.1-11-20.7-14.7-26.42-16.1-48.63-38.4-72.19-58.2z" fill="#e86185"/>
<path d="m792.97 1471.8c42.45-15.2 87.03-23.3 130.77-33.9 14.01 17 23.52 37.1 32.23 57.1 4.22 11.4 7.63 25 1.18 36.2-13.02 17.8-30.18 31.9-46.86 46 25.17-5.3 50.58-10.9 76.4-11.8-19 7.4-40.09 6.8-59.12 13.6 53.14-8 106.13-17.4 159.33-25-0.2-0.6-0.5-1.7-0.7-2.2-3.3-5.3-7.6-9.7-11.8-14.2 10.5 4.7 18.2 14 28.3 19.5 7.7 6.5-9.1 3.3-12.4 3.9-75.5 9.1-150.72 21.2-226.62 28-27.16-36.7-45.58-79.1-70.71-117.2z" fill="#e96185"/>
<path d="m217.23 1441c32.32 8.5 66.88 8.4 98.98-1.1 0.02 38.1 2.06 78.1-0.67 114.7-50.86 18-105.16 24.3-159.12 22.6 12.3-28.3 31.4-53.6 40.63-83.2 8.6-17 12.51-35.7 20.18-53z" fill="#d43b6a"/>
<path d="m587.77 1587c53.97-55.4 124.66-92.6 198.97-113 20.31 31.8 41.08 63.4 58.28 97 2.68 6.5 10.15 11.3 9.77 19-110.32 15.2-223.12 44.4-322.44 98.3-34.49 11.9-67.45 28.5-100.29 44.7 4.85-5.8 9.74-11.7 14.78-17.4 25.45-12.2 52.39-21 77.33-34.4 36.08-25.2 78.15-40.3 119.96-53.1 47.13-7.5 89.1-34.7 126.24-62.7-49.54 12.3-99.53 24.8-150.73 27.6-10.63-0.3-23.35 2.1-31.87-6z" fill="#e05e82"/>
<path d="m1007.3 1493.4c7.6 3.7 13.7 9.8 20.7 14.7 19.2 14.7 37.6 30.8 58.2 43.7 0.2 0.5 0.5 1.6 0.7 2.2-53.2 7.6-106.19 17-159.33 25 19.03-6.8 40.12-6.2 59.12-13.6 12.46-5.1 36.21-4.3 33.01-23.4-0.5-17-8.7-32.3-12.4-48.6z" fill="#ffd4e8"/>
<path d="m561.8 1531.8c12.96-12.5 25.82-28.2 43.85-32.6 3.66 6.7-7.05 14.2-8.79 20.7-10.14 19.3-24.67 47-9.09 67.1 8.52 8.1 21.24 5.7 31.87 6 51.2-2.8 101.19-15.3 150.73-27.6-37.14 28-79.11 55.2-126.24 62.7-41.81 12.8-83.88 27.9-119.96 53.1-24.94 13.4-51.88 22.2-77.33 34.4-16.04 2-31.12 9.5-46.92 13.3 40.11-36.6 88.08-68.3 112.97-118.1 6.15-31.5 28.2-55.9 48.91-79z" fill="#c7144b"/>
<path d="m55.71 1558.9c17.91-14.9 29.46-36.1 46.07-52.1-8 20.1-18.64 39.1-26.48 59.4-8.65 18.6-17.42 37.2-23.73 56.8-2.91 17.7 3.88 35 4.88 52.5-1.74 8.6-12.48 0.7-15.98-1.8-19.93-22-20.67-54.1-21.2-81.9 14.29-8.4 25.98-20.1 36.44-32.9z" fill="#ec7395"/>
<path d="m1028 1508.1c6.7 2.8 13.1 6.3 19.9 9 9.5 5.7 17.9 13.5 26.5 20.5 4.2 4.5 8.5 8.9 11.8 14.2-20.6-12.9-39-29-58.2-43.7z" fill="#fb94b1"/>
<path d="m6.41 1582.8c13.45-7.1 22.38-20.1 34.46-28.7 4.73 2.2 9.64 4.1 14.84 4.8-10.46 12.8-22.15 24.5-36.44 32.9 0.53 27.8 1.27 59.9 21.2 81.9 3.5 2.5 14.24 10.4 15.98 1.8-1-17.5-7.79-34.8-4.88-52.5 6.31-19.6 15.08-38.2 23.73-56.8 24.44 5.1 49.14 9.4 74.12 10.6-11.82 25.5-27.1 49.4-40.43 74.2-17.3 22.4-27.78 49.7-48.31 69.8-2.19 0-4.19-1.3-5.75-2.7-33.06-36.4-49.97-86.5-48.52-135.3z" fill="#d25f84"/>
<path d="m156.42 1577.2c53.96 1.7 108.26-4.6 159.12-22.6-6.46 64.1-30.37 124.9-58.55 182.3-6.88 12.2-17.43 21.8-26.83 31.9-45.62 1.2-88.09-18.4-133.23-21.1-10.36-8.1-22.59-13.9-32.96-21.9 3.51-11.2 14.72-17.4 20.67-27.2 23.97-40.2 46.02-83 71.78-121.4m124.72 9.3c-33.85 31-60.09 73.6-102.69 94.9-29.29 17.4-61.09 29.2-92.59 41.6 30.89 15.3 64.01 27.3 98.34 31.7 12.29 1.7 23.24-4.6 29.7-14.8 32.82-42.9 48.61-95.8 67.35-145.7 0.34-2 3.77-9.5-0.11-7.7z" fill="#da6285"/>
<path d="m281.14 1586.5c3.88-1.8 0.45 5.7 0.11 7.7-18.74 49.9-34.53 102.8-67.35 145.7-6.46 10.2-17.41 16.5-29.7 14.8-34.33-4.4-67.45-16.4-98.34-31.7 31.5-12.4 63.3-24.2 92.59-41.6 42.6-21.3 68.84-63.9 102.69-94.9z" fill="#fe93b1"/>
</svg>
