<?xml version="1.0" encoding="UTF-8"?>
<!DOCTYPE svg PUBLIC "-//W3C//DTD SVG 1.1//EN" "http://www.w3.org/Graphics/SVG/1.1/DTD/svg11.dtd">
<svg version="1.1" xmlns="http://www.w3.org/2000/svg" xmlns:xlink="http://www.w3.org/1999/xlink" x="0" y="0" width="682.71" height="825.49" viewBox="0, 0, 682.71, 825.49">
  <defs>
    <clipPath id="Clip_1">
      <path d="M133.036,22.495 L538,22.495 L538,90.97 L133.036,90.97 z"/>
    </clipPath>
    <clipPath id="Clip_2">
      <path d="M-0,-0 L682.71,-0 L682.71,825.49 L-0,825.49 z"/>
    </clipPath>
  </defs>
  <g id="Layer_1">
    <g clip-path="url(#Clip_2)">
      <path d="M352.219,0.615 C156.384,-11.055 -5.826,145.245 0.159,322.22 C9.064,585.695 121.004,635.14 159.019,673.36 C197.029,711.585 147.224,776.62 147.224,776.62 C147.224,776.62 207.644,779.23 232.849,710.255 C237.869,696.495 218.259,773.93 218.259,773.93 L313.754,719.545 C341.009,719.545 435.784,791.175 435.784,791.175 C435.784,791.175 425.424,708.04 446.398,706.28 C460.989,779.23 528.633,777.905 528.633,777.905 C494.154,726.175 541.909,687.705 584.328,636.485 C640.443,568.745 711.974,416.505 670.179,308.335 C628.379,200.165 617.739,0.615 352.219,0.615" fill="#7C4C0A"/>
      <path d="M426.457,780.501 C426.457,780.501 416.562,644.026 412.182,630.121 L232.232,646.241 C243.042,659.76 234.007,762.741 232.367,777.931 C251.417,842.901 405.277,838.921 426.457,780.501" fill="#F7D1B7"/>
      <path d="M417.599,693.313 C416.379,681.483 419.579,648.133 416.104,634.243 L232.769,650.313 C238.019,658.293 232.724,696.008 237.739,718.643 C269.569,744.573 397.404,737.198 417.599,693.313" fill="#F7C6A3"/>
      <path d="M562.736,460.466 C558.136,488.676 557.796,514.586 580.716,518.321 C603.656,522.071 632.011,499.341 636.621,471.126 C641.221,442.911 620.316,419.886 597.386,416.156 C574.476,412.411 567.346,432.256 562.736,460.466" fill="#F7D1B7"/>
      <path d="M112.27,460.466 C116.87,488.676 117.205,514.586 94.29,518.321 C71.35,522.071 42.99,499.341 38.38,471.126 C33.78,442.911 54.69,419.886 77.615,416.156 C100.53,412.411 107.66,432.256 112.27,460.466" fill="#F7D1B7"/>
      <path d="M557.287,201.338 C579.797,237.558 596.292,316.758 596.292,361.408 C596.292,500.548 561.797,614.758 445.072,658.528 C407.327,672.683 400.587,692.253 334.662,694.028 C272.527,695.698 246.417,669.198 211.187,653.488 C97.547,602.813 77.652,474.583 77.652,333.553 C77.652,281.648 66.332,242.348 90.187,198.883 C148.402,92.823 259.642,99.793 321.277,98.083 C409.777,95.623 500.742,110.378 557.287,201.338" fill="#F7D1B7"/>
      <path d="M329.934,479.323 C321.868,480.298 315.988,487.363 314.944,497.319 C314.738,499.314 315.844,501.143 317.398,501.414 C318.958,501.678 320.388,500.279 320.599,498.284 C321.423,490.434 326.238,487.089 330.469,486.573 C335.569,485.958 341.719,489.154 343.939,497.684 C344.444,499.594 346.059,500.629 347.559,499.988 C349.053,499.358 349.863,497.289 349.358,495.384 C346.143,483.059 337.289,478.434 329.934,479.323" fill="#9A5B1A"/>
      <path d="M153.334,373.284 C147.234,336.979 208.684,308.074 237.094,326.928 C186.904,324.333 161.119,350.488 153.334,373.284" fill="#000000"/>
      <path d="M494.025,379.992 C505.755,345.098 449.61,306.902 418.595,321.062 C468.565,326.383 489.93,356.263 494.025,379.992" fill="#000000"/>
      <path d="M219.232,506.79 C273.397,563.995 394.862,558.275 462.163,502.975 C401.432,708.919 261.908,678.409 219.232,506.79" fill="#F49D9B"/>
      <path d="M240.895,437.581 C241.025,436.331 241.09,435.051 241.09,433.755 C241.09,415.296 227.7,400.34 211.195,400.34 C194.68,400.34 181.3,415.296 181.3,433.755" fill-opacity="0" stroke="#000000" stroke-width="16.24" stroke-linecap="round" stroke-linejoin="round"/>
      <path d="M183.857,411.125 C170.172,411.125 161.956,396.075 161.956,396.075 C166.062,408.39 172.907,415.23 179.751,416.595" fill="#000000"/>
      <path d="M191.508,404.572 C178.458,400.527 175.068,383.722 175.068,383.722 C175.338,396.702 179.848,405.257 185.983,408.587" fill="#000000"/>
      <path d="M490.041,433.757 C490.041,415.297 476.651,400.337 460.146,400.337 C443.631,400.337 430.251,415.297 430.251,433.757" fill-opacity="0" stroke="#000000" stroke-width="16.24" stroke-linecap="round" stroke-linejoin="round"/>
      <path d="M428.85,411.125 C415.16,411.125 406.945,396.075 406.945,396.075 C411.055,408.39 417.895,415.23 424.74,416.595" fill="#000000"/>
      <path d="M436.496,404.572 C423.451,400.527 420.061,383.722 420.061,383.722 C420.326,396.702 424.836,405.257 430.971,408.587" fill="#000000"/>
      <path d="M458.947,112.834 C355.697,341.474 72.047,251.819 47.922,393.754 C-3.238,193.964 208.187,-42.051 458.947,112.834" fill="#7C4C0A"/>
      <path d="M424.533,115.29 C466.328,262.801 540.078,417.676 618.753,412.766 C618.753,196.421 530.238,80.87 424.533,115.29" fill="#7C4C0A"/>
      <path d="M428.898,21.926 C408.068,139.961 20.983,218.076 78.268,339.581" fill-opacity="0" stroke="#5F3403" stroke-width="5"/>
      <path d="M408.117,24.097 C300.302,112.997 160.332,99.762 90.347,164.072 C20.362,228.377 26.032,315.392 63.862,343.762" fill-opacity="0" stroke="#5F3403" stroke-width="5"/>
      <path d="M139.525,623.704 C205.726,695.579 215.186,727.739 158.441,769.349" fill-opacity="0" stroke="#5F3403" stroke-width="5"/>
      <path d="M599.162,555.608 C553.762,629.378 461.087,697.473 510.257,767.458" fill-opacity="0" stroke="#5F3403" stroke-width="5"/>
      <path d="M478.107,52.471 C498.907,175.416 563.222,339.975 640.772,381.596" fill-opacity="0" stroke="#5F3403" stroke-width="5"/>
      <g clip-path="url(#Clip_1)" opacity="0.3">
        <path d="M538,52.282 C522.395,40.702 504.525,30.607 483.86,22.497 C448.115,36.057 400.43,50.292 360.11,54.072 C290.83,60.572 224.235,34.592 205.895,32.422 C202.475,32.022 198.545,30.827 194.29,29.027 C172.505,38.662 151.995,50.492 133.035,64.152 C141.81,64.442 151.145,65.442 161.07,67.062 C187.565,71.392 279.115,92.532 342.405,90.877 C425.05,88.712 503.37,60.567 529.855,54.072 C533.01,53.302 535.685,52.722 538,52.282" fill="#FFFFFF"/>
      </g>
    </g>
  </g>
</svg>
