<?xml version="1.0" encoding="utf-8"?>
<!-- Generator: Adobe Illustrator 16.0.0, SVG Export Plug-In . SVG Version: 6.00 Build 0)  -->
<!DOCTYPE svg PUBLIC "-//W3C//DTD SVG 1.1//EN" "http://www.w3.org/Graphics/SVG/1.1/DTD/svg11.dtd">
<svg version="1.1" id="Layer_1" xmlns="http://www.w3.org/2000/svg" xmlns:xlink="http://www.w3.org/1999/xlink" x="0px" y="0px"
	 width="510.87px" height="611.956px" viewBox="0 0 510.87 611.956" enable-background="new 0 0 510.87 611.956"
	 xml:space="preserve">
<g>
	<path d="M261.757,12.719c2.254,1.262,4.956,3.965,3.244,7.031c-12.033,9.779-25.553,13.16-40.02,17.847
		c0.271,2.974,5.904,5.453,8.112,8.652c3.875,6.04,6.128,13.701,5.948,22.173c3.335,3.021,8.519,5.724,8.654,11.357
		c3.245,0.902,7.075-5.182,10.274-2.163c2.209-0.54,5.59-1.441,8.652-2.163c-1.712,0.722,0.317,1.623,0.542,2.163
		c-2.705,0.812-5.407,1.713-7.57,3.786c5.543-0.721,13.43-2.974,17.847-4.326c-7.121,3.154-15.459,4.281-21.634,8.112
		c4.597,1.351,9.104-2.93,11.898-0.542c-4.373,0.991-8.879,2.118-12.98,3.245c6.581-0.45,14.241-1.577,21.091-3.245
		c-1.666,1.668-5.724,0.766-7.031,2.705l3.246,0.54c-8.021,0.226-15.008,1.127-22.714,3.245c-1.307,3.065-4.011,6.445-5.948,9.735
		c8.021-0.135,16.135,1.217,21.632,7.03c3.289,7.708,9.599,14.917,6.489,24.877c-2.435,2.954-3.864,2.915-5.948,4.867
		c-0.409,0.186,4.08,11.588,3.785,15.684c2.4,17.487,4.823,37.767-6.49,52.458c0.946,6.039-3.333,15.053,6.49,14.603
		c8.428,1.127,14.964-3.38,21.092-8.654c8.519-0.359,11.672,11.809,21.632,9.734c3.561-3.109,5.813-10.319,11.898-9.734
		c4.282,3.921,12.169,5.949,19.468,4.327l7.572-2.704c-7.211,2.298-15.098,7.932-22.714,3.785c-1.849-1.938-5.229-3.514-7.572-2.704
		c-4.417,3.696-5.316,8.653-10.815,9.194c-8.021-1.217-12.755-8.653-20.01-9.194c-6.714,4.823-17.306,11.583-26.499,5.949
		l-1.083,11.897c6.221,2.974,15.008,3.65,21.093-0.541c1.802-2.794,6.084,1.712,9.193,2.704c6.129,3.064,11.989-3.245,17.847,0
		l6.489,1.082v0.542c-10.771-3.29-21.587,5.724-30.825-2.705c-3.38,0.766-6.309,2.344-9.194,3.786
		c3.561,2.613,9.87,4.642,11.357,10.815c1.893,5.093,1.893,14.331,9.735,14.061c3.424,2.524-0.858,9.284,4.865,10.276
		c7.797,2.388,16.811,3.966,24.877,4.867c4.554,4.732,5.68,14.421,14.604,14.062c9.104-0.767,11.808,8.923,19.468,11.357
		c8.113,2.974,16.225,6.128,23.256,12.978c2.658,1.263,6.714,1.036,8.111,4.867c9.869,0,20.688-1.351,28.123,5.409
		c17.575,21.181,45.518,36.278,74.631,36.773c5.137,5.813-0.722,12.801-1.624,18.388c-13.52,7.258-24.56-3.785-35.151-9.193
		l-12.438-6.49c-1.984,4.688-5.138,6.717-9.735,8.653c-9.149-5.544-21.543-0.586-29.744-4.327c-2.839-3.694-7.346-4.37-9.735-6.489
		c-3.695-8.696-4.821-19.738-12.438-24.877c-15.594-8.382-33.169,7.616-48.674-5.406c-11.763,4.009-18.522-7.031-28.662-9.194
		l-15.684,1.08l-11.357,12.44c-0.225,19.963-8.338,38.217-11.356,57.865c-5.316,10.996-9.148,24.065-18.928,31.908
		c-4.417,7.255,8.427,19.424-2.163,23.794c-2.253-2.792-6.083-5.724-9.194-7.569c-1.396,1.171-1.171,2.973-1.082,4.867
		c17.487,4.19,6.22,28.302,21.093,33.53c-0.902,11.672,7.436,21.136,7.569,33.529c7.077,10.365,15.188,22.534,17.308,36.234
		c4.189,2.524,2.614,7.031,5.406,10.815c-3.694,2.298,1.715,3.651,1.083,6.49c8.743-5.544,21.812,2.231,24.877,3.245
		c9.556,4.956,17.442,3.381,26.499,5.407c13.926,2.704,25.87,6.535,38.939,12.439c5.406-0.497,50.137-15.48,50.835-9.193
		c-3.178,8.359-25.824,26.95-60.029,26.499c-20.326,0.675-38.802-15.323-58.407-7.031c-7.211-1.08-4.282,1.961-12.98,2.163
		c-4.482,0.249-3.808,0.586-8.652,0.541c-7.772,0.607-12.394-3.336-15.684-8.113c-2.344-6.263-0.766-13.925,2.704-17.846
		c1.712-1.713,1.037-2.839,0-4.327c-4.597,1.264-9.328,5.095-14.062,2.164c-12.167-22.308-33.799-38.081-49.213-56.783
		c-10.5-3.156-24.246,0.676-35.151,3.785c-11.177,1.848-15.008,12.664-25.959,15.683c-11.583-0.09-25.103-1.217-33.531,6.489
		c-5.318,3.561-12.078,7.843-15.684,13.521c-8.788-1.397-3.154,6.94-5.408,11.357c-1.802,12.259-4.732,18.117-11.897,19.468
		c-16.495,17.578-27.537,11.267-42.724,14.062c-10.727-0.427-36.64-6.287-39.479-12.438c-2.794-9.623,18.163-2.636,29.204-7.572
		c14.196-9.147,27.266-5.543,34.071-19.468c6.715-2.751,8.292-15.369,16.765-13.521c-1.036-11.313,12.258-14.466,16.765-21.092
		c10.366-15.232,13.294-34.612,16.765-52.998c2.163-9.555,17.036-9.104,15.684-20.551c0.675-11.087,9.239-17.622,18.388-22.176
		l6.489-1.08c0.811-36.956-11.357-71.656-30.826-98.426c-1.938-1.849-5.318,0.855-7.03,1.621c-2.795,1.712-5.499,5.093-9.194,5.409
		c0.54,13.43,8.201,25.823,15.142,37.314c0.045,1.578-0.631,3.38,0.541,4.868c2.884,0.314,2.884,4.821,4.326,7.569
		c-0.991,10.772-8.878,16.405-16.225,24.339c-0.991,3.56-6.625,5.587-9.194,8.11c-5.092,0.405-11.176-1.396-15.142,1.622
		c-4.371,1.036-6.85-1.893-9.734-3.785c-1.623-4.191,0.405-7.345,2.163-10.274c-1.533-2.931-1.082-7.887-1.082-11.356
		c1.127-3.517,1.351-9.825,5.948-10.818c7.572,1.217,6.67,9.104,11.357,13.521c2.524-4.865,1.623-10.95,6.489-14.601
		C90.5,374.519,73.15,358.972,68.689,338.284c-0.722-11.311,10.545-15.142,15.683-22.173c13.565-11.897,24.832-23.614,25.417-41.641
		c3.47-13.972,14.062-25.013,27.041-30.827c4.822,1.082,8.428,5.588,12.438,9.194c15.143-9.239,0.496-26.59,2.163-40.02
		c-2.118-21.046,0.811-41.101,4.326-62.192c-1.712-15.414-17.036-26.455-9.734-43.807c-10.005-22.983-27.356-43.715-24.877-70.846
		l1.082-1.622c-4.461-0.767-9.194,1.036-13.52,1.622v-1.082c4.777-1.532,9.959-2.208,15.143-3.245
		c0.225-0.766,1.127-0.991,1.082-1.623c-7.842-2.073-16.405-3.199-24.877-1.08c7.796-1.894,15.683-3.696,23.795-0.542
		c0.901-0.676,0.225-2.028,0.54-2.705c-7.525-5.182-16.313-4.507-24.877-2.703v-1.082c9.464-3.65,18.704-0.946,28.122,1.622
		c21.677-10.455,46.916-12.033,72.468-12.979c13.656-1.082,20.641-5.138,35.153-2.705C245.533,8.798,251.842,9.925,261.757,12.719
		L261.757,12.719z"/>
	<path fill="#999999" d="M259.053,17.587c-9.69,10.14-27.266,9.238-39.479,7.571c4.552,1.442,9.059,3.47,14.602,3.245h1.082
		c-21.271,10.14-47.862,12.168-72.469,8.652c-3.109-0.991-6.94-2.568-9.194-1.082c2.479,0.09,5.408,2.795,9.194,2.705
		c-1.757,0.766-2.884-2.163-3.786,0.54c6.76,2.029,14.197,2.479,21.632,3.786c-10.59,2.974-22.083-1.082-32.448-2.705l-1.082,1.082
		c2.208,3.02,6.94,0.315,9.734,2.704l12.439,2.163c-7.12,3.786-14.557,1.082-22.173,0.542c-5.228-0.361-9.51-4.192-14.062-3.786
		c9.735,6.354,22.129,6.58,34.612,7.031c1.262,4.732,1.712,10.59,1.622,15.684c-3.516-2.163-8.472-7.121-12.439-8.112l9.735,8.652
		c-3.741-1.351-10.275-6.76-15.683-9.194v1.623c-3.156-1.893-6.986-5.724-10.275-5.949v1.623
		c9.148,4.236,14.557,10.546,23.795,15.144l-7.031-2.705c0.271,3.29,7.481,3.965,8.653,8.112c-4.778-1.668-9.284-5.048-14.061-4.328
		c5.002,1.984,9.734,4.688,15.142,6.491c-5.859,3.83-14.196,3.605-21.633,4.326c7.211,3.561,15.324-0.045,22.714-1.082
		c-0.856,0.585-3.109,2.839-4.868,3.245c-2.749,1.848-6.804,1.848-9.734,1.082l-1.082,1.082c3.109,4.642,9.419,1.488,13.521-0.54
		l1.082-1.083c-0.45,4.011-1.577,10.32-3.245,15.143c-2.838-3.696-7.796-2.344-11.357-3.245l-3.245,4.326
		c-10.321-21.678-26.995-40.606-22.173-66.52c3.516-9.915,16.133-9.915,24.877-13.52c-4.462,4.281-11.898,6.985-16.765,12.438
		c2.163,2.208,3.064-2.073,5.408-1.622c7.796-5.409,16.584-12.394,27.581-14.062c5.003-0.136,10.185-3.29,15.143-0.542
		c5.182-0.946,11.041-3.2,15.683-2.163c-9.824,2.794-17.937,9.555-27.582,12.438v1.082c8.292-0.134,14.377-6.894,22.174-9.193
		c6.173-2.885,12.483-5.814,20.01-5.949c-9.555,2.839-17.216,6.67-26.5,10.276c12.664-1.353,22.579-8.788,35.694-10.817
		c10.32-1.127,25.643-1.351,36.234,4.326V17.587L259.053,17.587z"/>
	<polygon points="151.432,34.892 151.432,34.352 153.055,34.892 153.055,35.434 151.432,34.892 	"/>
	<polygon fill="#999999" points="186.043,40.841 171.982,39.76 182.258,40.841 186.043,40.841 	"/>
	<path fill="#D9D9D9" d="M234.716,65.177c-1.352,3.335-1.352,7.392-2.703,10.817c0.45,0.856,1.351,1.082,2.703,1.082
		c0.451-1.803,0.901-3.38,1.623-4.868c4.236,1.938,6.94,4.642,8.111,9.734c-5.453,3.47-11.537,6.4-16.765,9.194
		c-1.306-4.822,0.045-10.455-2.163-14.602c-4.552,2.344,0.181,8.203-0.54,12.98c-1.533,3.109-3.109,6.039-5.408,8.111
		c-19.56-8.156-41.417-27.536-48.673-47.05c7.255-2.344,14.241-2.118,21.091-4.327c5.769,0.856,10.05-2.073,15.684-1.622
		c3.38-3.156,8.112-2.93,12.438-4.328C228.181,44.627,235.393,54.091,234.716,65.177L234.716,65.177z"/>
	<path d="M221.196,70.045l-1.082,1.082c-6.805-6.896-16.72-18.162-28.122-18.928c5.093-3.741,10.501,1.442,15.143,4.326
		L221.196,70.045L221.196,70.045z"/>
	<polygon points="154.136,54.902 154.136,54.361 156.839,55.984 156.839,56.524 154.136,54.902 	"/>
	<path fill="#D9D9D9" d="M189.289,79.779c-6.626-7.436-22.399-8.336-17.307-20.55C177.932,65.357,182.889,73.921,189.289,79.779
		L189.289,79.779z"/>
	<polygon points="148.187,61.933 148.729,61.392 156.839,66.8 148.187,61.933 	"/>
	<polygon points="149.269,68.963 149.269,68.422 151.432,69.505 151.432,70.045 149.269,68.963 	"/>
	<polygon fill="#FFFFFF" points="259.594,78.697 259.594,79.239 256.349,81.402 256.349,80.86 259.594,78.697 	"/>
	<path fill="#D9D9D9" d="M178.472,87.351c5.543,1.667,5.994,9.779,11.897,12.979c-1.847,4.913-2.748,12.348,1.623,16.225h0.542
		c-1.307-3.651-1.758-9.284-0.542-13.521c2.84-0.722,5.769,1.757,8.653,3.245c-1.532,4.822,1.623,8.202,5.409,10.815
		c4.101,1.894,7.481-3.515,9.193-4.866c-1.037,5.857-6.444,8.336-10.816,11.357c-4.642,1.938-9.148-1.668-11.357-3.786
		c-1.172,0.316-0.495,1.217-0.54,2.163c2.523,3.109,4.776,3.786,8.111,5.408c7.256-1.172,13.791-5.453,16.765-12.438l2.164-11.357
		c4.101-1.037,6.354-9.374,10.816-3.786c-7.842,2.75-10.546,11.763-11.897,18.929c0.225,0.495,0.901,0.495,1.622,0.54
		c1.307-7.255,4.687-14.241,12.438-16.224l1.082,1.622c8.519-1.217,20.01-1.217,27.04,4.326c5.814,5.499,6.039,13.61,6.49,21.633
		c-7.437,8.202-14.196-4.642-22.173,0.541c-3.741,1.127-7.121,4.056-7.571,8.112c3.154-0.226,4.507-4.507,8.652-4.327
		c-0.991,6.805-1.217,14.917,2.164,21.092c0.451-6.625-1.577-15.638,1.623-21.633c2.884-1.217,7.165,1.262,9.735,3.245
		c-0.768,3.2-0.768,7.031-2.164,10.276c-0.856-3.696-3.109-6.625-4.327-9.735c-0.811,5.364,1.667,10.997,2.704,16.766
		c0.992,15.413,4.372,29.834,3.246,46.508h-0.542l-1.081,11.357c-6.264-3.02-8.293,4.417-12.439,8.112
		c0.316,1.938,2.118,0.361,3.245,1.082c2.028-2.749,3.831-8.382,8.653-5.408c1.937,3.786,2.615,9.194,1.622,14.061
		c-4.642,1.217-11.176,0.993-12.438,6.491c3.064,1.938,3.29-2.795,6.49-2.705l4.868-0.54v5.948c-0.856-0.09-1.757,0.812-1.623,1.623
		c-0.36,19.018-5.092,35.017-12.438,51.376c-0.09-2.389,2.388-4.866,0-6.489h-1.083c-3.064,10.636-5.768,24.381-17.305,28.664
		c-6.94-0.227-11.898,0.448-17.306-2.705c-5.634-7.211-3.606-17.125-7.031-24.877c-2.659,7.302-0.405,16.765,2.164,24.336
		c1.261,4.597,6.895,5.499,10.816,8.111c-0.09,3.021-2.344,7.302-4.868,9.193c-6.264-3.919-13.475,5.995-14.602-5.406l3.245-5.95
		c-15.638-22.082-16.539-51.601-22.172-77.334c-1.353,12.889,1.578,26.86,3.786,40.019c-12.348-28.257-26.771-58.902-22.174-91.396
		c-0.54-21.812,1.488-43.219,8.654-63.273c1.172-0.226,2.523,0.225,3.245-1.083c-2.75-5.678-7.031-14.467-14.602-14.061
		c0.811,2.524,4.867,3.876,6.489,7.031c-2.298,1.577-4.326,4.281-3.786,7.571c0.136,0.542,0.812,0.316,1.623,0.542
		c-0.811-3.38,2.793-4.282,4.326-5.409c-0.856,4.958-2.884,11.718-4.868,17.306c-5.678-9.194-11.762-21.813-8.112-32.448
		c1.758-2.66,4.012-8.519,9.735-5.409c5.543,4.328,9.824,9.735,13.521,14.603h1.622c0.993-5.319-5.993-8.022-8.111-12.98
		l4.867-20.551C171.847,85.188,177.706,82.032,178.472,87.351L178.472,87.351z"/>
	<polygon points="274.736,87.351 274.736,86.81 277.98,86.81 277.98,87.351 274.736,87.351 	"/>
	<path fill="#CCCCCC" d="M213.625,101.953c-6.625,2.839-15.639,0.136-22.173-4.327c-2.479-2.749-5.184-4.776-5.949-7.571
		C195.057,93.299,205.422,96.004,213.625,101.953L213.625,101.953z"/>
	<path fill="#CCCCCC" d="M243.37,93.299c-0.09,2.479-2.569,3.831-3.786,5.949c-1.713,0.135-4.191-0.766-4.326,1.623
		c-1.668-1.938-2.344-3.966-4.328-5.409C235.167,93.75,238.321,93.976,243.37,93.299L243.37,93.299z"/>
	<path fill="#FFFFFF" d="M207.676,112.769c-2.704-0.766-4.732-3.47-4.327-5.949C207.676,105.468,205.648,110.876,207.676,112.769
		L207.676,112.769z"/>
	<path d="M234.176,111.146c-1.713,0.857-3.967,2.66-4.326,4.328c-3.471,0.811-2.795,6.895-4.328,8.112
		c-1.172-6.175,2.434-11.357,7.031-14.062L234.176,111.146L234.176,111.146z"/>
	<path d="M237.96,115.473c-5.047,3.064-7.3,9.373-9.734,14.602c0.406,3.335,0.856,7.616,3.786,9.194h3.785
		c0.497,1.127-0.856,1.802-1.622,2.163c-3.29,0.766-5.319-1.262-7.031-3.246c-0.766-3.424-1.217-6.58-1.623-9.734
		c-17.396,5.859-19.199,24.337-22.173,40.021c-4.687,29.834-2.884,65.662-1.623,96.804c-3.064-36.55-4.417-76.434,2.163-110.866
		h-0.541l-12.98,18.388c-1.622,7.932-2.974,15.255-4.326,25.959l-0.54,15.142c-1.037-11.762-0.811-25.733,0.54-35.693
		c-1.577,2.75-4.056,5.228-5.948,8.112c10.455-16.405,22.848-30.375,28.662-47.591l-8.653,4.326
		c10.05-9.644,26.725-15.277,37.316-28.122L237.96,115.473L237.96,115.473z"/>
	<path d="M194.155,128.452c-9.463,0.451-23.66,2.028-27.581,13.521c-5.994,17.801-2.389,41.237-3.246,60.03
		c-0.044-20.145-6.354-50.565,5.409-68.142c6.039-7.21,17.081-6.083,25.417-7.571V128.452L194.155,128.452z"/>
	<path d="M168.197,155.492c-0.631-2.703,2.75-7.661,3.245-10.815c-0.721-0.226-1.396-0.226-1.622,0.54
		c0.45,1.262-1.126,1.037-1.623,1.623l7.572-9.734l-1.083,2.704l7.031-5.408C176.354,140.396,170.045,146.479,168.197,155.492
		L168.197,155.492z"/>
	<path d="M184.961,135.482c-7.48,8.067-13.34,17.307-17.846,27.581c3.605-11.401,9.013-19.288,16.225-27.581H184.961
		L184.961,135.482z"/>
	<path d="M170.36,160.9c3.966-9.238,10.952-15.322,16.225-23.254C182.663,146.029,173.425,152.112,170.36,160.9L170.36,160.9z"/>
	<path fill="#D9D9D9" d="M260.133,154.411c-1.756-0.271-1.531-2.974-2.163-4.326c2.209-2.479,2.209-6.535,3.246-9.735
		C261.531,144,260.404,149.633,260.133,154.411L260.133,154.411z"/>
	<path d="M189.289,141.432c-5.724,8.202-13.386,15.413-17.307,24.336h-1.082C175.679,157.52,182.213,147.605,189.289,141.432
		L189.289,141.432z"/>
	<path d="M223.9,142.513c-0.226,2.613-3.155,4.417-3.786,7.03c18.433,9.104,27.446,31.863,27.04,52.459l-0.54,0.54
		c-1.984-4.912-0.631-10.996-3.245-15.142c-2.569,25.327-7.527,49.664-12.44,74.09c-1.396,6.444-8.607,8.022-13.52,10.275
		l-6.489-1.082l-0.541,6.489c-8.788-23.435-5.859-52.277-4.868-76.795c1.262-21.452,3.967-43.76,17.847-58.407L223.9,142.513
		L223.9,142.513z"/>
	<path d="M188.206,147.38c-1.486,5.859-5.768,8.112-9.734,12.438C181.536,155.492,184.917,150.536,188.206,147.38L188.206,147.38z"
		/>
	<path fill="#D9D9D9" d="M261.757,159.278c-2.253-0.181-0.451,2.298-1.624,3.245c-1.531-4.101,2.073-9.959,3.246-14.602
		L261.757,159.278L261.757,159.278z"/>
	<path d="M189.289,151.166c-0.542,3.425-3.696,7.031-7.031,8.652C185.142,157.07,186.269,152.789,189.289,151.166L189.289,151.166z"
		/>
	<path fill="#FFFFFF" d="M220.655,153.329c-0.586,4.642-3.29,10.05-5.949,14.061l-1.623-0.541l4.868-13.52H220.655L220.655,153.329z
		"/>
	<path fill="#FFFFFF" d="M233.094,166.309l-3.786,9.193c-2.028-4.686-13.294-3.109-9.734-10.275
		c0.495-3.65,3.425-6.354,3.245-10.274C227.506,156.619,231.336,161.577,233.094,166.309L233.094,166.309z"/>
	<path fill="#FFFFFF" d="M239.583,185.237c-2.84-3.155-8.698-4.732-7.031-9.735l2.163-7.571
		C237.871,172.844,244.406,179.152,239.583,185.237L239.583,185.237z"/>
	<path d="M385.602,197.134v1.082c-11.628-2.163-22.67,1.668-32.99-2.703c-4.1,0.766-2.974,8.427-9.194,6.489
		c-5.046-1.217-10.679-2.118-14.06-5.408c-6.311,1.262-6.76,9.599-14.062,7.571c-6.219-1.352-10.05-4.281-15.144-7.571
		c-5.272,1.938-10.906,6.444-16.223,4.866v-1.082c6.67-0.045,11.628-6.128,18.388-4.866c4.956,3.019,10.815,8.878,17.847,5.948
		l7.569-7.571c5.68,3.29,13.566,8.698,20.01,4.326c-0.585-7.345,6.401-4.191,10.276-3.245
		C366.763,196.278,376.228,196.278,385.602,197.134L385.602,197.134z"/>
	<path fill="#FFFFFF" d="M274.195,237.155c-5.229,0.36-9.058,4.642-12.979,8.112l1.08-10.817
		C265.362,236.839,272.346,236.163,274.195,237.155L274.195,237.155z"/>
	<path fill="#FFFFFF" d="M275.278,243.103c-0.227,2.074,2.253,0.045,3.243,1.623c3.29,5.408,7.121,12.619,6.489,21.091
		c2.435,2.794,11.447-2.389,8.114,5.949c1.307,2.705,7.164,2.929,8.11,5.949c7.392,1.036,14.604,4.417,22.715,3.245
		c4.507,6.805,8.789,17.846,21.092,15.142c11.582,11.719,28.706,14.196,40.02,24.335c-2.073,3.156-3.651,6.761-4.326,10.816
		c-16.9-7.437-31.097,7.887-45.429-4.866c-11.808,6.895-18.117-7.977-27.581-7.571c-4.731,0.271-8.787,1.396-13.521,1.08
		c1.127-2.839,4.056-5.543,3.787-8.111c-5.813,9.104-18.207,13.159-22.714,23.795c-2.48-2.974,0.225-9.733-4.326-10.816
		c-1.083,5.139,1.621,11.674,0,16.767c1.621,20.144-2.661,40.65-7.572,59.487c-3.651,6.626-5.904,15.188-12.439,19.471
		c-2.479-3.607-5.859-6.31-9.735-8.113c0.045-0.449,0.496-0.676,0.541-1.081c-1.172-2.748-2.974,0.405-2.163-2.163
		c0.766-4.644,5.272-8.698,5.408-14.062c-6.895-7.255-20.19-5.229-20.009-18.388c0.045-3.515,2.073-6.895,3.785-10.815
		c-4.866-6.67-14.331-8.248-13.52-17.847c-6.419-4.579-1.436-8.67-1.622-14.603c1.938-2.388,3.515-5.093,3.785-8.111
		c1.758,5.048,0.406,11.356,3.246,16.225c8.878-4.868,10.906-15.232,11.357-24.878c15.097-17.395,30.42-40.831,29.204-67.059
		C264.911,246.528,269.417,242.923,275.278,243.103L275.278,243.103z"/>
	<path fill="#FFFFFF" d="M137.371,247.43c0.45,2.253,1.351-0.451,2.704,1.622c9.464,8.968,16.9,16.63,21.632,29.745
		c5.859,26.77,17.126,51.33,23.254,78.416c1.307,0.405,1.758-1.173,2.705-1.621c-0.271-8.789,1.982-18.254,3.786-24.338
		c9.013,2.479-0.451,11.042,6.489,15.144c4.101,3.334-1.533,10.996,2.704,15.684c2.75,5.453,10.411,3.875,10.816,11.357
		c-1.307,4.009-3.786,7.615-2.704,12.979c1.848,6.355,9.959,6.804,6.489,15.142c-4.191,5.634-3.514,14.196-2.704,21.634
		c2.569,3.829,3.696,8.336,9.194,9.733c-1.443,9.869-3.471,17.307-8.654,24.877c-18.703-1.487-32.448-10.274-45.968-21.09
		l-2.704-4.868l-0.542-28.123c-3.29-3.74-0.811-7.796-2.163-11.898c-5.633-24.289-18.027-47.05-30.826-66.518l4.327-5.948
		c4.417,3.785,7.12,8.292,11.897,12.438l0.54-0.541c-2.163-8.111-16.584-13.97-7.029-21.091c-0.09-1.216-0.316-2.118-1.082-2.703
		c-4.417,1.712-4.868,8.697-8.112,11.897c-6.67,8.292-16.81,16.854-26.5,19.468c-0.224,0.542-0.224,1.217,0.542,1.622
		c3.515,0.946,1.487,6.355,3.785,9.194c1.532,8.203,4.687,15.863,9.735,23.797c-2.343,6.038-10.906,4.46-15.143,4.865
		c-11.987-12.799-28.437-24.966-31.907-43.805c-0.135-3.694,4.597-4.146,6.489-5.948c10.501-12.394,24.922-18.704,30.826-35.694
		c5.589-2.613,0.406-8.697,2.704-12.979c4.012-12.845,11.447-24.787,23.255-32.448H137.371L137.371,247.43z"/>
	<path fill="#FFFFFF" d="M162.249,250.675c10.5,21.091,18.161,44.751,30.285,65.437c-3.786,9.509-6.491,19.648-7.572,30.286
		c-3.875-20.551-15.593-42.633-17.846-63.274c-5.183-7.977-7.662-17.216-12.439-24.336
		C154.947,255.767,158.102,250.81,162.249,250.675L162.249,250.675z"/>
	<path fill="#CCCCCC" d="M216.87,255.001c1.847,3.245,3.65,6.851,3.786,11.357c0.992,0.45,1.893-0.901,2.164-1.623
		c-0.946-3.561-0.271-7.616-2.705-10.275c2.659-0.721,6.04,2.434,7.031,5.949c-0.316,4.822-5.498,5.724-9.194,7.571
		c-5.543,1.984-7.797-3.875-9.734-6.489c-0.315-2.569-0.767-5.047-0.541-7.571C210.154,250.359,214.21,253.063,216.87,255.001
		L216.87,255.001z"/>
	<path d="M228.767,299.888c-1.261,2.974-2.163,7.258-5.408,8.652c2.344-4.776,6.4-11.536,3.786-16.765
		C230.886,292.498,228.857,297.454,228.767,299.888L228.767,299.888z"/>
	<path fill="#FFFFFF" d="M228.767,319.357c-0.585,5.362-1.486,11.896-6.489,16.223c-0.856-4.775-1.307-9.733-3.245-14.06
		C221.421,321.564,225.477,320.213,228.767,319.357L228.767,319.357z"/>
	<path fill="#FFFFFF" d="M393.713,325.847c-1.261,2.478-5.092,3.831-4.867,7.031c-6.534-0.271-3.154-5.68-1.622-8.655
		C388.846,320.889,391.55,324.493,393.713,325.847L393.713,325.847z"/>
	<path d="M255.807,334.499c1.442,1.261,3.02-0.541,4.867-0.541c0.405,12.62,7.165,29.969-5.949,39.48
		c-7.842,0.855-14.602-2.073-21.091-1.624c-0.271-9.914,2.66-21.632-0.54-31.367c3.2-1.08,11.762-0.405,16.765-2.704
		c-0.045-4.686-0.722-12.348,3.785-14.06C256.574,326.298,254.321,331.029,255.807,334.499L255.807,334.499z"/>
	<path fill="#D9D9D9" d="M427.785,338.284c2.297,6.265,9.735,9.646,15.684,12.979c13.205,7.031,26.048,11.989,40.019,16.225
		l8.652,0.542c1.264,3.336-0.314,6.716-1.621,9.735c-17.847,5.543-23.256-13.838-39.479-14.604
		c-10.366-4.641-20.056-11.4-31.366-10.815c-0.632,2.119,2.521,1.668,3.243,2.704c4.236,2.795,7.392,4.822,11.357,8.653
		c0.314,1.351-1.938,2.253-2.163,3.245c-10.364-0.316-25.463,1.712-31.367-8.113c-1.307-8.428-3.56-16.314-8.652-22.714
		c-0.992-6.443,4.642-8.923,9.733-11.357C412.506,323.594,420.168,331.932,427.785,338.284L427.785,338.284z"/>
	<path fill="#FFFFFF" d="M253.104,336.121v-7.031C252.968,331.254,255.447,334.409,253.104,336.121L253.104,336.121z"/>
	<polygon points="150.35,335.58 147.646,331.795 150.35,335.041 150.35,335.58 	"/>
	<path fill="#FFFFFF" d="M259.053,336.662c0.451,10.816,6.533,24.111-3.246,32.988c-5.993,3.968-13.205-0.99-20.01,0
		c1.397-8.877,1.849-19.919-0.54-28.12c5.993,0.541,12.753-1.037,18.387-3.246c1.352,2.885-1.127,6.94,1.082,9.735
		c2.974-3.02,0.496-7.978,2.164-11.357H259.053L259.053,336.662z"/>
	<path d="M507.284,359.918c0.766,4.911-1.263,9.193-3.787,12.438c-1.307-2.795,1.849-5.724,2.163-8.652
		c-0.539-2.029-0.99-6.085-4.326-4.326h-1.622C500.387,356.268,505.796,358.069,507.284,359.918L507.284,359.918z"/>
	<path fill="#D9D9D9" d="M441.846,363.161c-0.271,3.471-3.878,4.146-6.489,5.409c1.261-2.163,1.712-4.644,1.08-7.03L441.846,363.161
		L441.846,363.161z"/>
	<path fill="#FFFFFF" d="M122.228,383.171c-2.659,1.487-6.039,1.715-9.194,1.624c0.451-3.517-3.83-0.36-3.786-2.704
		c4.237-0.586,8.969-0.813,11.357-4.868C123.4,378.35,121.598,381.054,122.228,383.171L122.228,383.171z"/>
	<path fill="#D9D9D9" d="M128.177,389.66c-1.397,10.772-14.242,15.506-17.846,24.339c-7.437,1.756-17.126-4.554-21.092-10.277
		c0.812-3.74-2.118-6.894,0.541-9.732c5.679,0.358,4.777,16.132,14.602,10.815l6.489-17.847
		C117.315,393.447,125.202,379.252,128.177,389.66L128.177,389.66z"/>
	<path fill="#D9D9D9" d="M97.351,415.62c-4.146-0.992-7.977,3.966-11.357,0c0.901-2.344,2.253-4.821,4.868-5.948L97.351,415.62
		L97.351,415.62z"/>
	<path fill="#FFFFFF" d="M235.797,441.039c-3.335,7.39-10.32,13.022-17.305,16.764c1.802-7.57,4.731-15.008,5.948-23.795
		C228.181,435.811,236.068,436.035,235.797,441.039L235.797,441.039z"/>
	<path fill="#B3B3B3" d="M207.135,332.878c-2.84,1.307-5.994,1.531-8.112,4.326c-1.037-0.542,1.893-3.922,3.786-5.409h4.326V332.878
		L207.135,332.878z"/>
	<path fill="#B3B3B3" d="M200.645,343.151l-2.164-1.08c4.012-1.578,7.842-4.282,10.817-7.572
		C211.507,338.465,202.719,339.818,200.645,343.151L200.645,343.151z"/>
	<path fill="#FFFFFF" d="M209.298,352.346c1.307-1.487-1.397-2.388-1.082-3.785l2.704-2.163l3.245,9.194L209.298,352.346
		L209.298,352.346z"/>
	<path fill="#B3B3B3" d="M207.135,353.968l-4.326,3.245c-0.09-2.523-0.767-7.933,2.163-9.734
		C204.747,350.407,207,350.858,207.135,353.968L207.135,353.968z"/>
	<path fill="#B3B3B3" d="M212.002,365.324c-2.974-0.719-5.228-2.748-7.571-3.784l4.868-5.409l7.571,4.326L212.002,365.324
		L212.002,365.324z"/>
	<path fill="#B3B3B3" d="M224.982,365.324c-4.462,0.181-6.49,5.363-10.275,8.114c-0.946-6.131,1.982-7.031,5.949-10.818
		C223.449,361.225,223.224,364.829,224.982,365.324L224.982,365.324z"/>
	<path fill="#B3B3B3" d="M213.083,386.417c-2.704-2.21,0.226-4.912-0.541-7.572l9.194-5.406
		C223.224,378.801,215.337,381.729,213.083,386.417L213.083,386.417z"/>
	<path fill="#B3B3B3" d="M227.145,388.58l-7.571,8.111c-0.18-2.344-1.758-5.497-3.245-7.031c-0.767-3.199,4.867-5.002,6.49-7.569
		C222.548,384.207,225.252,386.912,227.145,388.58L227.145,388.58z"/>
	<path fill="#B3B3B3" d="M238.502,393.989l-22.173,23.253c-2.569-2.388-0.09-6.219,0-9.194c4.191-6.489,10.951-11.896,15.684-16.764
		C234.49,391.194,236.068,393.221,238.502,393.989L238.502,393.989z"/>
	<path fill="#B3B3B3" d="M236.339,413.457c-5.229,4.551-9.51,9.96-12.98,16.225c-3.29-1.082-5.993-3.561-7.03-6.489
		c7.346-9.24,16.359-16.451,24.876-27.582C241.702,402.461,233.139,405.39,236.339,413.457L236.339,413.457z"/>
	<path fill="#B3B3B3" d="M243.91,418.864c-8.292,1.849-7.616,19.65-17.846,11.356c5.724-3.648,9.329-9.508,12.979-15.142
		C241.026,416.206,244.181,416.433,243.91,418.864L243.91,418.864z"/>
	<path fill="#B3B3B3" d="M248.236,424.814c-4.056,3.334-4.281,9.418-8.653,11.898c-1.487-1.578-4.868-1.578-4.326-3.787
		l11.357-13.521C247.786,420.713,248.461,422.515,248.236,424.814L248.236,424.814z"/>
	<path fill="#B3B3B3" d="M245.533,441.578c-4.958-1.937-3.605-5.316-0.542-7.028L245.533,441.578L245.533,441.578z"/>
	<path fill="#D9D9D9" d="M264.459,154.411c0,0,4.001,16.517,2.163,28.663c-1.542,12.078-3.243,16.765-3.243,16.765
		s0.292-10.039-0.542-17.847c-0.855-7.402-1.419-17.542-1.621-17.306c0.202,0.327,1.61-2.771,2.163-4.326
		C263.39,158.535,264.459,154.411,264.459,154.411L264.459,154.411z"/>
</g>
</svg>
