<svg width="432" height="362" xmlns="http://www.w3.org/2000/svg">

    <g>
        <title>background</title>
        <rect fill="none" id="canvas_background" height="364" width="434" y="-1" x="-1"/>
    </g>
    <g>
        <title>Layer 1</title>
        <path fill="#b3aa48" id="svg_15" d="m64.1,514.1l0.1,-1.2l0,0c-0.2,-0.1 -0.6,-0.3 -0.8,-0.4l0.7,1.6z"
              class="st2"/>
        <g id="svg_18">
            <path fill="#e7e23a" id="svg_11"
                  d="m186.38589,319.031667c89.3,-17.9 215.5,-102.7 173.8,-242c-0.7,-0.1 -24,-10 -29.1,0.3c0,0 -2,5 -2.3,7.8c-1.1,9 -0.6,5 -0.6,5c-56.1,194.5 -266.4,166.4 -285.2,171.4c-17.5,4.6 -34.1,4.7 -36.5,4.7l12.8,29.7c18.3,8.7 88.5,38.9 167.1,23.1z"
                  class="st0"/>
            <path fill="#d0ca3d" id="svg_12"
                  d="m402.48589,92.231667c-5.1,-8.9 -9.6,-17.2 -13.8,-25.1l0,0l-28.3,9.8c0,0 -0.1,0 -0.1,0c41.7,139.3 -84.5,224.1 -173.8,242c-78.6,15.8 -148.8,-14.4 -167,-23.2l0,0l-0.1,1.2l-1.8,14.7c2.2,2.8 4.5,6.1 6.7,9.8c8.6,14.1 138.4,90.5 312.3,-34.2c-0.1,0.2 124.6,-92.4 65.9,-195z"
                  class="st1"/>
            <path fill="#b3aa48" id="svg_13"
                  d="m18.58589,295.431667l-12,-29.3c-0.2,0 -0.5,0 -0.5,0l2.9,30.5c0,0 2.4,7.2 8.5,15.1l1.8,-14.7l-0.7,-1.6z"
                  class="st2"/>
            <path fill="#b3aa48" id="svg_14" d="m19.38589,295.831667l-12.8,-29.7l12,29.3c0.2,0.1 0.6,0.3 0.8,0.4z"
                  class="st2"/>
            <path fill="#d0c66a" id="svg_16"
                  d="m360.28589,77.031667c-1,-3.4 -2,-6.7 -3.2,-10.2c-8.5,-24 -14.5,-43.8 -18.8,-60.4c-6.1,1.3 -12.2,2.7 -18.3,4.1c14.3,61.5 9.2,72.8 9.2,72.8c5.1,-10.2 30.4,-6.5 31.1,-6.3z"
                  class="st3"/>
            <path fill="#b3aa48" id="svg_17"
                  d="m338.18589,6.431667c4.3,16.6 10.4,36.4 18.8,60.4c1.2,3.4 2.2,6.8 3.2,10.2c0,0 0.1,0 0.1,0l28.3,-9.8l0,0c-13.7,-26 -23.1,-47.4 -29.4,-64.9c-7,1.2 -14,2.6 -21,4.1z"
                  class="st2"/>
        </g>
    </g>
</svg>
