<svg width="65" height="50" xmlns="http://www.w3.org/2000/svg">

    <g>
        <title>background</title>
        <rect fill="none" id="canvas_background" height="52" width="67" y="-1" x="-1"/>
    </g>
    <g>
        <title>Layer 1</title>
        <g id="svg_29">
            <path fill="#defbff" id="svg_2"
                  d="m19.370164,8.471553l8.25,-2.126c0,0 4.75,-0.82 2.542,1.903l-5.103,3.844c0,0 -1.647,0.952 -4.23,-1.355l-1.999,-2.095l0.54,-0.171z"
                  class="st0"/>
            <path fill="#d2f9f8" id="svg_3"
                  d="m19.120164,9.127553l3.711,2.898c0,0 1.914,1.201 4.623,-1.288l2.083,-1.849l0.958,-0.958c0,0 0.625,-2.135 -0.292,-0.792c-0.917,1.344 -5.15,4.438 -6.25,4.313c-1.314,-0.15 -4.833,-2.324 -4.833,-2.324z"
                  class="st1"/>
            <path fill="#c8dbe0" id="svg_5"
                  d="m29.693164,8.017553c0,0 -1.989,-0.86 -4.955,1.141c-0.81,0.546 -1.658,1.203 -4.058,1.909c0,0 2.082,-0.879 2.865,-1.388c1.591,-1.034 4.316,-2.625 6.148,-1.662z"
                  class="st2"/>
            <path fill="#c8dbe0" id="svg_6"
                  d="m30.141164,7.638553c0,0 -2.521,-1.042 -5.488,0.959c-0.81,0.546 -1.658,1.203 -4.058,1.909c0,0 2.082,-0.879 2.865,-1.388c1.591,-1.035 4.848,-2.444 6.681,-1.48z"
                  class="st2"/>
            <path fill="#c8dbe0" id="svg_7"
                  d="m29.473164,7.356553c0,0 -2.521,-1.042 -5.488,0.959c-0.81,0.546 -0.669,0.499 -3.107,1.491c0,0 1.131,-0.461 1.913,-0.97c1.592,-1.035 4.85,-2.444 6.682,-1.48z"
                  class="st2"/>
            <path fill="#c8dbe0" id="svg_8"
                  d="m29.788164,8.620553c0,0 -1.844,-1.131 -4.811,0.87c-0.81,0.546 -0.814,0.833 -3.214,1.539c0,0 1.238,-0.51 2.021,-1.019c1.591,-1.034 4.171,-2.354 6.004,-1.39z"
                  class="st2"/>
            <polygon fill="#fed718" id="svg_9"
                     points="15.100165970623493,4.471556186676025 17.620166428387165,4.471556186676025 17.787166245281696,6.03355598449707 14.745167382061481,6.03355598449707 "
                     class="st3"/>
            <path fill="#fed718" id="svg_10"
                  d="m14.281164,7.158553c0,0 2.777,-2.25 4.361,0.604c0,0 0.917,2.458 -1.292,2.417l-3.313,-0.083c0,0 -0.471,-2.792 0.244,-2.938z"
                  class="st3"/>
            <path fill="#fed718" id="svg_11"
                  d="m13.885164,10.721553c0,0 -3.681,4.875 1.111,13.958c0,0 2.083,3.042 4.333,-3.583c0,0 2.75,-9.667 -2.458,-10.708l-2.986,0.333z"
                  class="st3"/>
            <path fill="#da8f00" id="svg_12"
                  d="m16.294164,4.781553c0,0 0.212,0.815 -0.945,1.346l-0.604,-0.094l0.354,-1.563l1.258,0l-0.063,0.311z"
                  class="st4"/>
            <path fill="#da8f00" id="svg_13"
                  d="m14.537164,10.387553c-0.257,2.302 0.195,2.766 -2.156,3.454c0,0 0.568,-2.625 1.75,-3.104c0,0 -0.018,-0.887 0.261,0c0.027,0.086 0.155,-0.44 0.145,-0.35z"
                  class="st4"/>
            <path fill="#da8f00" id="svg_14"
                  d="m13.410164,13.939553c0.561,0.895 -0.74,2.802 -0.74,2.802l-0.092,-3.104c0,0 0.43,-0.34 0.832,0.302z"
                  class="st4"/>
            <path fill="#da8f00" id="svg_15"
                  d="m13.464164,16.187553c0,0 0.872,1.503 0.268,3.809l-1.735,-2.546l1.467,-1.263z" class="st4"/>
            <path fill="#da8f00" id="svg_16"
                  d="m13.151164,18.981553c0,0 3.115,1.901 0.308,3.802l-0.472,-3.5l0.164,-0.302z" class="st4"/>
            <path fill="#da8f00" id="svg_17"
                  d="m17.545164,6.679553c0,0 -2.106,0.667 -2.474,2.833c-0.369,2.167 -1.186,0.798 -1.186,0.798l0.292,-3.048c-0.001,0 1.526,-1.083 3.368,-0.583z"
                  class="st4"/>
            <path fill="#defbff" id="svg_18"
                  d="m13.459164,8.642553c0,0 -9.339,-3.588 -11.714,-1.796c0,0 1.292,3.792 6.917,5.417c0,-0.001 3.761,-1.117 4.797,-3.621z"
                  class="st0"/>
            <path fill="#d2f9f8" id="svg_19"
                  d="m11.300164,10.724553c0,0 -3.934,2.448 -9.183,-4.328c0,0 -0.806,-0.735 -0.042,0.874c0,0 3.607,4.208 5.773,4.563c0,0 1.792,0.87 3.634,-1.101"
                  class="st1"/>
            <path fill="#c8dbe0" id="svg_20"
                  d="m1.902164,6.344553c0,0 1.977,2.693 6.206,2.18c1.155,-0.14 2.414,-0.383 5.296,0.243c0,0 -2.659,-0.239 -3.763,-0.126c-2.246,0.232 -6.425,-0.104 -7.739,-2.297z"
                  class="st2"/>
            <path fill="#c8dbe0" id="svg_21"
                  d="m1.658164,7.036553c0,0 1.977,2.693 6.206,2.18c1.155,-0.14 2.414,-0.383 5.296,0.243c0,0 -2.659,-0.239 -3.763,-0.126c-2.245,0.231 -6.424,-0.104 -7.739,-2.297z"
                  class="st2"/>
            <path fill="#c8dbe0" id="svg_22"
                  d="m2.178164,7.756553c0,0 1.977,2.693 6.206,2.18c1.155,-0.14 0.981,-0.17 4.072,0.152c0,0 -1.434,-0.148 -2.539,-0.035c-2.246,0.232 -6.425,-0.104 -7.739,-2.297z"
                  class="st2"/>
            <path fill="#c8dbe0" id="svg_23"
                  d="m2.600164,6.127553c0,0 1.229,2.39 5.458,1.877c1.155,-0.14 1.329,-0.465 4.211,0.161c0,0 -1.573,-0.157 -2.678,-0.044c-2.246,0.232 -5.677,0.198 -6.991,-1.994z"
                  class="st2"/>
            <circle id="svg_24" r="0.056" cy="5.192553" cx="18.191164"/>
            <circle id="svg_25" r="0.056" cy="5.192553" cx="14.336164"/>
            <path fill="#da8f00" id="svg_26"
                  d="m14.599164,22.527553c2.432,0.955 0.856,2.796 0.856,2.796l-1.509,-2.837c-0.001,0 0.089,-0.181 0.653,0.041z"
                  class="st4"/>
            <path id="svg_28"
                  d="m30.964164,6.470553c-0.859,-1.29 -5.561,-0.143 -5.606,-0.13c-1.381,0.364 -4.87,1.496 -6.178,1.924l0,-0.183c-0.006,-0.277 -0.059,-0.527 -0.144,-0.758l0.88,-0.688c0.056,-0.043 0.097,-0.103 0.118,-0.17c0.089,-0.283 0.205,-0.746 0.259,-0.965l0.964,-0.737c0.153,-0.117 0.183,-0.337 0.065,-0.49s-0.337,-0.184 -0.491,-0.065l-1.063,0.813c-0.063,0.049 -0.109,0.119 -0.128,0.197c0,0.002 -0.133,0.563 -0.243,0.936l-0.727,0.568c-0.046,-0.052 -0.086,-0.108 -0.139,-0.156c-0.02,-0.018 -0.043,-0.03 -0.064,-0.047c0.425,-0.228 0.719,-0.671 0.719,-1.186c0,-0.745 -0.606,-1.35 -1.351,-1.35l-0.345,0c0.095,-0.77 0.745,-1.37 1.54,-1.37c0.221,0 0.4,-0.179 0.4,-0.4s-0.18,-0.4 -0.4,-0.4c-1.236,0 -2.242,0.959 -2.34,2.17l-0.562,0c-0.099,-1.211 -1.104,-2.17 -2.341,-2.17c-0.221,0 -0.4,0.179 -0.4,0.4s0.179,0.4 0.4,0.4c0.795,0 1.446,0.6 1.541,1.37l-0.591,0c-0.745,0 -1.35,0.605 -1.35,1.35c0,0.516 0.301,0.951 0.728,1.178c-0.024,0.02 -0.05,0.034 -0.073,0.054c-0.045,0.041 -0.079,0.09 -0.119,0.134l-0.68,-0.532c-0.11,-0.373 -0.243,-0.933 -0.243,-0.935c-0.019,-0.079 -0.064,-0.148 -0.128,-0.197l-1.063,-0.813c-0.155,-0.119 -0.374,-0.089 -0.49,0.065c-0.118,0.153 -0.088,0.373 0.065,0.49l0.964,0.737c0.053,0.219 0.169,0.683 0.259,0.965c0.021,0.067 0.063,0.127 0.118,0.17l0.823,0.643c-0.093,0.239 -0.147,0.503 -0.153,0.795l0.001,0.176c-1.306,-0.427 -4.798,-1.56 -6.179,-1.925c-0.047,-0.012 -4.746,-1.16 -5.607,0.13c-0.259,0.391 -0.167,0.883 0.277,1.464c0.972,1.274 1.78,2.183 4.799,4.058c0.576,0.357 1.191,0.669 1.942,0.669c0.861,0 1.9,-0.41 3.26,-1.632c0.322,-0.289 1.001,-0.929 1.51,-1.412c0.019,0.155 0.077,0.35 0.229,0.533c0.051,0.061 0.115,0.111 0.179,0.161l-2.264,1.228c-0.097,0.053 -0.164,0.148 -0.18,0.258l-0.226,1.584l-1.627,0.968c-0.167,0.099 -0.221,0.313 -0.122,0.479c0.065,0.11 0.182,0.171 0.301,0.171c0.061,0 0.123,-0.016 0.178,-0.049l1.771,-1.054c0.091,-0.054 0.153,-0.146 0.168,-0.251l0.225,-1.576l1.07,-0.581c-0.459,0.72 -0.814,1.527 -1.011,2.381c-0.207,0.895 -0.246,1.835 -0.137,2.796c-0.247,0.525 -0.994,1.983 -2.385,3.632c-0.125,0.147 -0.106,0.368 0.042,0.493c0.065,0.056 0.146,0.082 0.226,0.082c0.1,0 0.198,-0.042 0.268,-0.124c0.954,-1.131 1.608,-2.163 2.025,-2.904c0.71,4.083 1.776,8.026 4.066,8.026c2.199,0 3.269,-3.779 4.06,-8.041c0.417,0.743 1.073,1.78 2.034,2.919c0.069,0.082 0.168,0.124 0.268,0.124c0.08,0 0.16,-0.026 0.226,-0.082c0.147,-0.125 0.167,-0.346 0.042,-0.493c-1.392,-1.65 -2.138,-3.108 -2.385,-3.633c0.251,-1.964 -0.136,-3.741 -1.151,-5.235l1.084,0.567l0.25,1.572c0.017,0.105 0.08,0.196 0.172,0.249l1.788,1.027c0.055,0.031 0.114,0.046 0.174,0.046c0.121,0 0.239,-0.063 0.304,-0.176c0.096,-0.167 0.038,-0.381 -0.13,-0.478l-1.643,-0.94l-0.251,-1.58c-0.018,-0.109 -0.086,-0.204 -0.184,-0.255l-2.126,-1.111c0.083,-0.058 0.158,-0.123 0.221,-0.199c0.156,-0.189 0.212,-0.386 0.23,-0.533c0.509,0.482 1.188,1.123 1.509,1.411c1.36,1.222 2.399,1.632 3.26,1.632c0.751,0 1.366,-0.312 1.941,-0.669c3.02,-1.874 3.827,-2.783 4.8,-4.058c0.444,-0.581 0.537,-1.073 0.277,-1.462zm-11.368,10.517c-0.095,0.536 -0.22,1.236 -0.376,1.994l-6.069,0c-0.16,-0.802 -0.277,-1.513 -0.356,-1.989c-0.001,-0.004 -0.001,-0.008 -0.001,-0.013l6.803,0c-0.001,0.003 -0.001,0.006 -0.001,0.008zm-1.077,4.796l-4.677,0c-0.203,-0.654 -0.377,-1.342 -0.523,-2.001l5.728,0c-0.151,0.667 -0.326,1.351 -0.528,2.001zm1.078,-7.606c0.125,0.631 0.157,1.299 0.098,2.001l-6.991,0c-0.044,-0.687 0.005,-1.356 0.141,-2.001l6.752,0zm-6.535,-0.799c0.491,-1.447 1.326,-2.338 1.789,-2.747c0.05,0.002 0.094,0.01 0.147,0.01c0.016,0 0.033,0 0.049,0c0.019,0 0.036,-0.009 0.054,-0.012c0.02,0.003 0.037,0.012 0.058,0.012l2.37,0c0.007,0 0.013,0 0.019,0c0.877,0.802 1.488,1.717 1.837,2.737l-6.323,0zm4.471,-3.538l-2.375,0c-0.02,0 -0.037,0.009 -0.057,0.011c-0.023,-0.003 -0.041,-0.012 -0.066,-0.011c-0.081,0.001 -0.155,-0.003 -0.226,-0.008c-0.035,-0.008 -0.068,-0.012 -0.104,-0.011c-0.217,-0.028 -0.378,-0.087 -0.457,-0.176c-0.071,-0.08 -0.061,-0.172 -0.054,-0.25l0,-1.298c0.008,-0.403 0.134,-0.71 0.384,-0.939c0.59,-0.541 1.67,-0.475 1.68,-0.473c0.007,0 0.014,-0.003 0.021,-0.003l0.01,0c0.009,0 0.017,0.004 0.025,0.003c0.009,-0.001 1.089,-0.068 1.68,0.473c0.25,0.229 0.376,0.536 0.384,0.931l0.009,1.385c0,0.001 0.006,0.09 -0.057,0.164c-0.108,0.133 -0.404,0.213 -0.797,0.202zm-3.345,-4.509c0,-0.189 0.102,-0.349 0.249,-0.448c0.076,0.087 0.145,0.203 0.145,0.35c0,0.165 -0.093,0.326 -0.254,0.456c-0.084,-0.097 -0.14,-0.22 -0.14,-0.358zm3.155,-0.55c-0.044,0.125 -0.074,0.254 -0.074,0.389c0,0.258 0.09,0.5 0.242,0.712l-1.409,0c-0.019,0 -0.032,0 -0.054,0l-0.964,0c0.126,-0.197 0.197,-0.418 0.197,-0.648c0,-0.158 -0.039,-0.308 -0.099,-0.452l2.161,0l0,-0.001zm0.923,0.877c-0.186,-0.132 -0.298,-0.306 -0.298,-0.489c0,-0.13 0.055,-0.236 0.12,-0.319c0.174,0.092 0.297,0.27 0.297,0.481c0.001,0.125 -0.048,0.235 -0.119,0.327zm-6.846,4.848c-2.369,2.128 -3.43,1.469 -4.365,0.889c-2.917,-1.811 -3.688,-2.677 -4.612,-3.888c-0.228,-0.299 -0.322,-0.542 -0.251,-0.648c0.144,-0.215 0.674,-0.299 1.356,-0.299c1.094,0 2.58,0.216 3.49,0.457c1.324,0.35 4.738,1.456 6.084,1.895c-0.509,0.482 -1.338,1.268 -1.702,1.594zm4.775,14.564c-0.874,0 -1.556,-1.086 -2.078,-2.486l4.132,0c-0.523,1.412 -1.197,2.486 -2.054,2.486zm13.936,-17.563c-0.924,1.211 -1.695,2.077 -4.612,3.888c-0.935,0.581 -1.995,1.239 -4.364,-0.889c-0.363,-0.327 -1.193,-1.112 -1.702,-1.595c1.346,-0.439 4.76,-1.545 6.084,-1.895c1.478,-0.391 4.472,-0.719 4.846,-0.158c0.07,0.107 -0.024,0.35 -0.252,0.649z"/>
        </g>
        <g id="svg_55">
            <path fill="#defbff" id="svg_30"
                  d="m51.377636,8.471548l8.25,-2.126c0,0 4.75,-0.82 2.542,1.903l-5.103,3.844c0,0 -1.647,0.952 -4.23,-1.355l-1.999,-2.095l0.54,-0.171z"
                  class="st0"/>
            <path fill="#d2f9f8" id="svg_31"
                  d="m51.127636,9.127548l3.711,2.898c0,0 1.914,1.201 4.623,-1.288l2.083,-1.849l0.958,-0.958c0,0 0.625,-2.135 -0.292,-0.792c-0.917,1.344 -5.15,4.438 -6.25,4.313c-1.314,-0.15 -4.833,-2.324 -4.833,-2.324z"
                  class="st1"/>
            <path fill="#c8dbe0" id="svg_32"
                  d="m61.700636,8.017548c0,0 -1.989,-0.86 -4.955,1.141c-0.81,0.546 -1.658,1.203 -4.058,1.909c0,0 2.082,-0.879 2.865,-1.388c1.591,-1.034 4.316,-2.625 6.148,-1.662z"
                  class="st2"/>
            <path fill="#c8dbe0" id="svg_33"
                  d="m62.148636,7.638548c0,0 -2.521,-1.042 -5.488,0.959c-0.81,0.546 -1.658,1.203 -4.058,1.909c0,0 2.082,-0.879 2.865,-1.388c1.591,-1.035 4.848,-2.444 6.681,-1.48z"
                  class="st2"/>
            <path fill="#c8dbe0" id="svg_34"
                  d="m61.480636,7.356548c0,0 -2.521,-1.042 -5.488,0.959c-0.81,0.546 -0.669,0.499 -3.107,1.491c0,0 1.131,-0.461 1.913,-0.97c1.592,-1.035 4.85,-2.444 6.682,-1.48z"
                  class="st2"/>
            <path fill="#c8dbe0" id="svg_35"
                  d="m61.795636,8.620548c0,0 -1.844,-1.131 -4.811,0.87c-0.81,0.546 -0.814,0.833 -3.214,1.539c0,0 1.238,-0.51 2.021,-1.019c1.591,-1.034 4.171,-2.354 6.004,-1.39z"
                  class="st2"/>
            <polygon fill="#fed718" id="svg_36"
                     points="47.1075553894043,4.4715565368533134 49.62755584716797,4.4715565368533134 49.7945556640625,6.033556334674358 46.75255584716797,6.033556334674358 "
                     class="st3"/>
            <path fill="#fed718" id="svg_37"
                  d="m46.288636,7.158548c0,0 2.777,-2.25 4.361,0.604c0,0 0.917,2.458 -1.292,2.417l-3.313,-0.083c0,0 -0.471,-2.792 0.244,-2.938z"
                  class="st3"/>
            <path fill="#fed718" id="svg_38"
                  d="m45.892636,10.721548c0,0 -3.681,4.875 1.111,13.958c0,0 2.083,3.042 4.333,-3.583c0,0 2.75,-9.667 -2.458,-10.708l-2.986,0.333z"
                  class="st3"/>
            <path fill="#da8f00" id="svg_39"
                  d="m48.301636,4.781548c0,0 0.212,0.815 -0.945,1.346l-0.604,-0.094l0.354,-1.563l1.258,0l-0.063,0.311z"
                  class="st4"/>
            <path fill="#da8f00" id="svg_40"
                  d="m46.544636,10.387548c-0.257,2.302 0.195,2.766 -2.156,3.454c0,0 0.568,-2.625 1.75,-3.104c0,0 -0.018,-0.887 0.261,0c0.027,0.086 0.155,-0.44 0.145,-0.35z"
                  class="st4"/>
            <path fill="#da8f00" id="svg_41"
                  d="m45.417636,13.939548c0.561,0.895 -0.74,2.802 -0.74,2.802l-0.092,-3.104c0,0 0.43,-0.34 0.832,0.302z"
                  class="st4"/>
            <path fill="#da8f00" id="svg_42"
                  d="m45.471636,16.187548c0,0 0.872,1.503 0.268,3.809l-1.735,-2.546l1.467,-1.263z" class="st4"/>
            <path fill="#da8f00" id="svg_43"
                  d="m45.158636,18.981548c0,0 3.115,1.901 0.308,3.802l-0.472,-3.5l0.164,-0.302z" class="st4"/>
            <path fill="#da8f00" id="svg_44"
                  d="m49.552636,6.679548c0,0 -2.106,0.667 -2.474,2.833c-0.369,2.167 -1.186,0.798 -1.186,0.798l0.292,-3.048c-0.001,0 1.526,-1.083 3.368,-0.583z"
                  class="st4"/>
            <path fill="#defbff" id="svg_45"
                  d="m45.466636,8.642548c0,0 -9.339,-3.588 -11.714,-1.796c0,0 1.292,3.792 6.917,5.417c0,-0.001 3.761,-1.117 4.797,-3.621z"
                  class="st0"/>
            <path fill="#d2f9f8" id="svg_46"
                  d="m43.307636,10.724548c0,0 -3.934,2.448 -9.183,-4.328c0,0 -0.806,-0.735 -0.042,0.874c0,0 3.607,4.208 5.773,4.563c0,0 1.792,0.87 3.634,-1.101"
                  class="st1"/>
            <path fill="#c8dbe0" id="svg_47"
                  d="m33.909636,6.344548c0,0 1.977,2.693 6.206,2.18c1.155,-0.14 2.414,-0.383 5.296,0.243c0,0 -2.659,-0.239 -3.763,-0.126c-2.246,0.232 -6.425,-0.104 -7.739,-2.297z"
                  class="st2"/>
            <path fill="#c8dbe0" id="svg_48"
                  d="m33.665636,7.036548c0,0 1.977,2.693 6.206,2.18c1.155,-0.14 2.414,-0.383 5.296,0.243c0,0 -2.659,-0.239 -3.763,-0.126c-2.245,0.231 -6.424,-0.104 -7.739,-2.297z"
                  class="st2"/>
            <path fill="#c8dbe0" id="svg_49"
                  d="m34.185636,7.756548c0,0 1.977,2.693 6.206,2.18c1.155,-0.14 0.981,-0.17 4.072,0.152c0,0 -1.434,-0.148 -2.539,-0.035c-2.246,0.232 -6.425,-0.104 -7.739,-2.297z"
                  class="st2"/>
            <path fill="#c8dbe0" id="svg_50"
                  d="m34.607636,6.127548c0,0 1.229,2.39 5.458,1.877c1.155,-0.14 1.329,-0.465 4.211,0.161c0,0 -1.573,-0.157 -2.678,-0.044c-2.246,0.232 -5.677,0.198 -6.991,-1.994z"
                  class="st2"/>
            <circle id="svg_51" r="0.056" cy="5.192553" cx="50.198635"/>
            <circle id="svg_52" r="0.056" cy="5.192553" cx="46.343635"/>
            <path fill="#da8f00" id="svg_53"
                  d="m46.606636,22.527548c2.432,0.955 0.856,2.796 0.856,2.796l-1.509,-2.837c-0.001,0 0.089,-0.181 0.653,0.041z"
                  class="st4"/>
            <path id="svg_54"
                  d="m62.971636,6.470548c-0.859,-1.29 -5.561,-0.143 -5.606,-0.13c-1.381,0.364 -4.87,1.496 -6.178,1.924l0,-0.183c-0.006,-0.277 -0.059,-0.527 -0.144,-0.758l0.88,-0.688c0.056,-0.043 0.097,-0.103 0.118,-0.17c0.089,-0.283 0.205,-0.746 0.259,-0.965l0.964,-0.737c0.153,-0.117 0.183,-0.337 0.065,-0.49s-0.337,-0.184 -0.491,-0.065l-1.063,0.813c-0.063,0.049 -0.109,0.119 -0.128,0.197c0,0.002 -0.133,0.563 -0.243,0.936l-0.727,0.568c-0.046,-0.052 -0.086,-0.108 -0.139,-0.156c-0.02,-0.018 -0.043,-0.03 -0.064,-0.047c0.425,-0.228 0.719,-0.671 0.719,-1.186c0,-0.745 -0.606,-1.35 -1.351,-1.35l-0.345,0c0.095,-0.77 0.745,-1.37 1.54,-1.37c0.221,0 0.4,-0.179 0.4,-0.4s-0.18,-0.4 -0.4,-0.4c-1.236,0 -2.242,0.959 -2.34,2.17l-0.562,0c-0.099,-1.211 -1.104,-2.17 -2.341,-2.17c-0.221,0 -0.4,0.179 -0.4,0.4s0.179,0.4 0.4,0.4c0.795,0 1.446,0.6 1.541,1.37l-0.591,0c-0.745,0 -1.35,0.605 -1.35,1.35c0,0.516 0.301,0.951 0.728,1.178c-0.024,0.02 -0.05,0.034 -0.073,0.054c-0.045,0.041 -0.079,0.09 -0.119,0.134l-0.68,-0.532c-0.11,-0.373 -0.243,-0.933 -0.243,-0.935c-0.019,-0.079 -0.064,-0.148 -0.128,-0.197l-1.063,-0.813c-0.155,-0.119 -0.374,-0.089 -0.49,0.065c-0.118,0.153 -0.088,0.373 0.065,0.49l0.964,0.737c0.053,0.219 0.169,0.683 0.259,0.965c0.021,0.067 0.063,0.127 0.118,0.17l0.823,0.643c-0.093,0.239 -0.147,0.503 -0.153,0.795l0.001,0.176c-1.306,-0.427 -4.798,-1.56 -6.179,-1.925c-0.047,-0.012 -4.746,-1.16 -5.607,0.13c-0.259,0.391 -0.167,0.883 0.277,1.464c0.972,1.274 1.78,2.183 4.799,4.058c0.576,0.357 1.191,0.669 1.942,0.669c0.861,0 1.9,-0.41 3.26,-1.632c0.322,-0.289 1.001,-0.929 1.51,-1.412c0.019,0.155 0.077,0.35 0.229,0.533c0.051,0.061 0.115,0.111 0.179,0.161l-2.264,1.228c-0.097,0.053 -0.164,0.148 -0.18,0.258l-0.226,1.584l-1.627,0.968c-0.167,0.099 -0.221,0.313 -0.122,0.479c0.065,0.11 0.182,0.171 0.301,0.171c0.061,0 0.123,-0.016 0.178,-0.049l1.771,-1.054c0.091,-0.054 0.153,-0.146 0.168,-0.251l0.225,-1.576l1.07,-0.581c-0.459,0.72 -0.814,1.527 -1.011,2.381c-0.207,0.895 -0.246,1.835 -0.137,2.796c-0.247,0.525 -0.994,1.983 -2.385,3.632c-0.125,0.147 -0.106,0.368 0.042,0.493c0.065,0.056 0.146,0.082 0.226,0.082c0.1,0 0.198,-0.042 0.268,-0.124c0.954,-1.131 1.608,-2.163 2.025,-2.904c0.71,4.083 1.776,8.026 4.066,8.026c2.199,0 3.269,-3.779 4.06,-8.041c0.417,0.743 1.073,1.78 2.034,2.919c0.069,0.082 0.168,0.124 0.268,0.124c0.08,0 0.16,-0.026 0.226,-0.082c0.147,-0.125 0.167,-0.346 0.042,-0.493c-1.392,-1.65 -2.138,-3.108 -2.385,-3.633c0.251,-1.964 -0.136,-3.741 -1.151,-5.235l1.084,0.567l0.25,1.572c0.017,0.105 0.08,0.196 0.172,0.249l1.788,1.027c0.055,0.031 0.114,0.046 0.174,0.046c0.121,0 0.239,-0.063 0.304,-0.176c0.096,-0.167 0.038,-0.381 -0.13,-0.478l-1.643,-0.94l-0.251,-1.58c-0.018,-0.109 -0.086,-0.204 -0.184,-0.255l-2.126,-1.111c0.083,-0.058 0.158,-0.123 0.221,-0.199c0.156,-0.189 0.212,-0.386 0.23,-0.533c0.509,0.482 1.188,1.123 1.509,1.411c1.36,1.222 2.399,1.632 3.26,1.632c0.751,0 1.366,-0.312 1.941,-0.669c3.02,-1.874 3.827,-2.783 4.8,-4.058c0.444,-0.581 0.537,-1.073 0.277,-1.462zm-11.368,10.517c-0.095,0.536 -0.22,1.236 -0.376,1.994l-6.069,0c-0.16,-0.802 -0.277,-1.513 -0.356,-1.989c-0.001,-0.004 -0.001,-0.008 -0.001,-0.013l6.803,0c-0.001,0.003 -0.001,0.006 -0.001,0.008zm-1.077,4.796l-4.677,0c-0.203,-0.654 -0.377,-1.342 -0.523,-2.001l5.728,0c-0.151,0.667 -0.326,1.351 -0.528,2.001zm1.078,-7.606c0.125,0.631 0.157,1.299 0.098,2.001l-6.991,0c-0.044,-0.687 0.005,-1.356 0.141,-2.001l6.752,0zm-6.535,-0.799c0.491,-1.447 1.326,-2.338 1.789,-2.747c0.05,0.002 0.094,0.01 0.147,0.01c0.016,0 0.033,0 0.049,0c0.019,0 0.036,-0.009 0.054,-0.012c0.02,0.003 0.037,0.012 0.058,0.012l2.37,0c0.007,0 0.013,0 0.019,0c0.877,0.802 1.488,1.717 1.837,2.737l-6.323,0zm4.471,-3.538l-2.375,0c-0.02,0 -0.037,0.009 -0.057,0.011c-0.023,-0.003 -0.041,-0.012 -0.066,-0.011c-0.081,0.001 -0.155,-0.003 -0.226,-0.008c-0.035,-0.008 -0.068,-0.012 -0.104,-0.011c-0.217,-0.028 -0.378,-0.087 -0.457,-0.176c-0.071,-0.08 -0.061,-0.172 -0.054,-0.25l0,-1.298c0.008,-0.403 0.134,-0.71 0.384,-0.939c0.59,-0.541 1.67,-0.475 1.68,-0.473c0.007,0 0.014,-0.003 0.021,-0.003l0.01,0c0.009,0 0.017,0.004 0.025,0.003c0.009,-0.001 1.089,-0.068 1.68,0.473c0.25,0.229 0.376,0.536 0.384,0.931l0.009,1.385c0,0.001 0.006,0.09 -0.057,0.164c-0.108,0.133 -0.404,0.213 -0.797,0.202zm-3.345,-4.509c0,-0.189 0.102,-0.349 0.249,-0.448c0.076,0.087 0.145,0.203 0.145,0.35c0,0.165 -0.093,0.326 -0.254,0.456c-0.084,-0.097 -0.14,-0.22 -0.14,-0.358zm3.155,-0.55c-0.044,0.125 -0.074,0.254 -0.074,0.389c0,0.258 0.09,0.5 0.242,0.712l-1.409,0c-0.019,0 -0.032,0 -0.054,0l-0.964,0c0.126,-0.197 0.197,-0.418 0.197,-0.648c0,-0.158 -0.039,-0.308 -0.099,-0.452l2.161,0l0,-0.001zm0.923,0.877c-0.186,-0.132 -0.298,-0.306 -0.298,-0.489c0,-0.13 0.055,-0.236 0.12,-0.319c0.174,0.092 0.297,0.27 0.297,0.481c0.001,0.125 -0.048,0.235 -0.119,0.327zm-6.846,4.848c-2.369,2.128 -3.43,1.469 -4.365,0.889c-2.917,-1.811 -3.688,-2.677 -4.612,-3.888c-0.228,-0.299 -0.322,-0.542 -0.251,-0.648c0.144,-0.215 0.674,-0.299 1.356,-0.299c1.094,0 2.58,0.216 3.49,0.457c1.324,0.35 4.738,1.456 6.084,1.895c-0.509,0.482 -1.338,1.268 -1.702,1.594zm4.775,14.564c-0.874,0 -1.556,-1.086 -2.078,-2.486l4.132,0c-0.523,1.412 -1.197,2.486 -2.054,2.486zm13.936,-17.563c-0.924,1.211 -1.695,2.077 -4.612,3.888c-0.935,0.581 -1.995,1.239 -4.364,-0.889c-0.363,-0.327 -1.193,-1.112 -1.702,-1.595c1.346,-0.439 4.76,-1.545 6.084,-1.895c1.478,-0.391 4.472,-0.719 4.846,-0.158c0.07,0.107 -0.024,0.35 -0.252,0.649z"/>
        </g>
        <g id="svg_107">
            <path fill="#defbff" id="svg_82"
                  d="m34.816134,31.34016l8.25,-2.126c0,0 4.75,-0.82 2.542,1.903l-5.103,3.844c0,0 -1.647,0.952 -4.23,-1.355l-1.999,-2.095l0.54,-0.171z"
                  class="st0"/>
            <path fill="#d2f9f8" id="svg_83"
                  d="m34.566134,31.99616l3.711,2.898c0,0 1.914,1.201 4.623,-1.288l2.083,-1.849l0.958,-0.958c0,0 0.625,-2.135 -0.292,-0.792c-0.917,1.344 -5.15,4.438 -6.25,4.313c-1.314,-0.15 -4.833,-2.324 -4.833,-2.324z"
                  class="st1"/>
            <path fill="#c8dbe0" id="svg_84"
                  d="m45.139134,30.88616c0,0 -1.989,-0.86 -4.955,1.141c-0.81,0.546 -1.658,1.203 -4.058,1.909c0,0 2.082,-0.879 2.865,-1.388c1.591,-1.034 4.316,-2.625 6.148,-1.662z"
                  class="st2"/>
            <path fill="#c8dbe0" id="svg_85"
                  d="m45.587134,30.50716c0,0 -2.521,-1.042 -5.488,0.959c-0.81,0.546 -1.658,1.203 -4.058,1.909c0,0 2.082,-0.879 2.865,-1.388c1.591,-1.035 4.848,-2.444 6.681,-1.48z"
                  class="st2"/>
            <path fill="#c8dbe0" id="svg_86"
                  d="m44.919134,30.22516c0,0 -2.521,-1.042 -5.488,0.959c-0.81,0.546 -0.669,0.499 -3.107,1.491c0,0 1.131,-0.461 1.913,-0.97c1.592,-1.035 4.85,-2.444 6.682,-1.48z"
                  class="st2"/>
            <path fill="#c8dbe0" id="svg_87"
                  d="m45.234134,31.48916c0,0 -1.844,-1.131 -4.811,0.87c-0.81,0.546 -0.814,0.833 -3.214,1.539c0,0 1.238,-0.51 2.021,-1.019c1.591,-1.034 4.171,-2.354 6.004,-1.39z"
                  class="st2"/>
            <polygon fill="#fed718" id="svg_88"
                     points="30.546049118041992,27.340162627398968 33.06604766845703,27.340162627398968 33.23304748535156,28.90216290205717 30.191049575805664,28.90216290205717 "
                     class="st3"/>
            <path fill="#fed718" id="svg_89"
                  d="m29.727134,30.02716c0,0 2.777,-2.25 4.361,0.604c0,0 0.917,2.458 -1.292,2.417l-3.313,-0.083c0,0 -0.471,-2.792 0.244,-2.938z"
                  class="st3"/>
            <path fill="#fed718" id="svg_90"
                  d="m29.331134,33.59016c0,0 -3.681,4.875 1.111,13.958c0,0 2.083,3.042 4.333,-3.583c0,0 2.75,-9.667 -2.458,-10.708l-2.986,0.333z"
                  class="st3"/>
            <path fill="#da8f00" id="svg_91"
                  d="m31.740134,27.65016c0,0 0.212,0.815 -0.945,1.346l-0.604,-0.094l0.354,-1.563l1.258,0l-0.063,0.311z"
                  class="st4"/>
            <path fill="#da8f00" id="svg_92"
                  d="m29.983134,33.25616c-0.257,2.302 0.195,2.766 -2.156,3.454c0,0 0.568,-2.625 1.75,-3.104c0,0 -0.018,-0.887 0.261,0c0.027,0.086 0.155,-0.44 0.145,-0.35z"
                  class="st4"/>
            <path fill="#da8f00" id="svg_93"
                  d="m28.856134,36.80816c0.561,0.895 -0.74,2.802 -0.74,2.802l-0.092,-3.104c0,0 0.43,-0.34 0.832,0.302z"
                  class="st4"/>
            <path fill="#da8f00" id="svg_94"
                  d="m28.910134,39.05616c0,0 0.872,1.503 0.268,3.809l-1.735,-2.546l1.467,-1.263z" class="st4"/>
            <path fill="#da8f00" id="svg_95"
                  d="m28.597134,41.85016c0,0 3.115,1.901 0.308,3.802l-0.472,-3.5l0.164,-0.302z" class="st4"/>
            <path fill="#da8f00" id="svg_96"
                  d="m32.991134,29.54816c0,0 -2.106,0.667 -2.474,2.833c-0.369,2.167 -1.186,0.798 -1.186,0.798l0.292,-3.048c-0.001,0 1.526,-1.083 3.368,-0.583z"
                  class="st4"/>
            <path fill="#defbff" id="svg_97"
                  d="m28.905134,31.51116c0,0 -9.339,-3.588 -11.714,-1.796c0,0 1.292,3.792 6.917,5.417c0,-0.001 3.761,-1.117 4.797,-3.621z"
                  class="st0"/>
            <path fill="#d2f9f8" id="svg_98"
                  d="m26.746134,33.59316c0,0 -3.934,2.448 -9.183,-4.328c0,0 -0.806,-0.735 -0.042,0.874c0,0 3.607,4.208 5.773,4.563c0,0 1.792,0.87 3.634,-1.101"
                  class="st1"/>
            <path fill="#c8dbe0" id="svg_99"
                  d="m17.348134,29.21316c0,0 1.977,2.693 6.206,2.18c1.155,-0.14 2.414,-0.383 5.296,0.243c0,0 -2.659,-0.239 -3.763,-0.126c-2.246,0.232 -6.425,-0.104 -7.739,-2.297z"
                  class="st2"/>
            <path fill="#c8dbe0" id="svg_100"
                  d="m17.104134,29.90516c0,0 1.977,2.693 6.206,2.18c1.155,-0.14 2.414,-0.383 5.296,0.243c0,0 -2.659,-0.239 -3.763,-0.126c-2.245,0.231 -6.424,-0.104 -7.739,-2.297z"
                  class="st2"/>
            <path fill="#c8dbe0" id="svg_101"
                  d="m17.624134,30.62516c0,0 1.977,2.693 6.206,2.18c1.155,-0.14 0.981,-0.17 4.072,0.152c0,0 -1.434,-0.148 -2.539,-0.035c-2.246,0.232 -6.425,-0.104 -7.739,-2.297z"
                  class="st2"/>
            <path fill="#c8dbe0" id="svg_102"
                  d="m18.046134,28.99616c0,0 1.229,2.39 5.458,1.877c1.155,-0.14 1.329,-0.465 4.211,0.161c0,0 -1.573,-0.157 -2.678,-0.044c-2.246,0.232 -5.677,0.198 -6.991,-1.994z"
                  class="st2"/>
            <circle id="svg_103" r="0.056" cy="28.061161" cx="33.637129"/>
            <circle id="svg_104" r="0.056" cy="28.061161" cx="29.782129"/>
            <path fill="#da8f00" id="svg_105"
                  d="m30.045134,45.39616c2.432,0.955 0.856,2.796 0.856,2.796l-1.509,-2.837c-0.001,0 0.089,-0.181 0.653,0.041z"
                  class="st4"/>
            <path id="svg_106"
                  d="m46.410134,29.33916c-0.859,-1.29 -5.561,-0.143 -5.606,-0.13c-1.381,0.364 -4.87,1.496 -6.178,1.924l0,-0.183c-0.006,-0.277 -0.059,-0.527 -0.144,-0.758l0.88,-0.688c0.056,-0.043 0.097,-0.103 0.118,-0.17c0.089,-0.283 0.205,-0.746 0.259,-0.965l0.964,-0.737c0.153,-0.117 0.183,-0.337 0.065,-0.49s-0.337,-0.184 -0.491,-0.065l-1.063,0.813c-0.063,0.049 -0.109,0.119 -0.128,0.197c0,0.002 -0.133,0.563 -0.243,0.936l-0.727,0.568c-0.046,-0.052 -0.086,-0.108 -0.139,-0.156c-0.02,-0.018 -0.043,-0.03 -0.064,-0.047c0.425,-0.228 0.719,-0.671 0.719,-1.186c0,-0.745 -0.606,-1.35 -1.351,-1.35l-0.345,0c0.095,-0.77 0.745,-1.37 1.54,-1.37c0.221,0 0.4,-0.179 0.4,-0.4s-0.18,-0.4 -0.4,-0.4c-1.236,0 -2.242,0.959 -2.34,2.17l-0.562,0c-0.099,-1.211 -1.104,-2.17 -2.341,-2.17c-0.221,0 -0.4,0.179 -0.4,0.4s0.179,0.4 0.4,0.4c0.795,0 1.446,0.6 1.541,1.37l-0.591,0c-0.745,0 -1.35,0.605 -1.35,1.35c0,0.516 0.301,0.951 0.728,1.178c-0.024,0.02 -0.05,0.034 -0.073,0.054c-0.045,0.041 -0.079,0.09 -0.119,0.134l-0.68,-0.532c-0.11,-0.373 -0.243,-0.933 -0.243,-0.935c-0.019,-0.079 -0.064,-0.148 -0.128,-0.197l-1.063,-0.813c-0.155,-0.119 -0.374,-0.089 -0.49,0.065c-0.118,0.153 -0.088,0.373 0.065,0.49l0.964,0.737c0.053,0.219 0.169,0.683 0.259,0.965c0.021,0.067 0.063,0.127 0.118,0.17l0.823,0.643c-0.093,0.239 -0.147,0.503 -0.153,0.795l0.001,0.176c-1.306,-0.427 -4.798,-1.56 -6.179,-1.925c-0.047,-0.012 -4.746,-1.16 -5.607,0.13c-0.259,0.391 -0.167,0.883 0.277,1.464c0.972,1.274 1.78,2.183 4.799,4.058c0.576,0.357 1.191,0.669 1.942,0.669c0.861,0 1.9,-0.41 3.26,-1.632c0.322,-0.289 1.001,-0.929 1.51,-1.412c0.019,0.155 0.077,0.35 0.229,0.533c0.051,0.061 0.115,0.111 0.179,0.161l-2.264,1.228c-0.097,0.053 -0.164,0.148 -0.18,0.258l-0.226,1.584l-1.627,0.968c-0.167,0.099 -0.221,0.313 -0.122,0.479c0.065,0.11 0.182,0.171 0.301,0.171c0.061,0 0.123,-0.016 0.178,-0.049l1.771,-1.054c0.091,-0.054 0.153,-0.146 0.168,-0.251l0.225,-1.576l1.07,-0.581c-0.459,0.72 -0.814,1.527 -1.011,2.381c-0.207,0.895 -0.246,1.835 -0.137,2.796c-0.247,0.525 -0.994,1.983 -2.385,3.632c-0.125,0.147 -0.106,0.368 0.042,0.493c0.065,0.056 0.146,0.082 0.226,0.082c0.1,0 0.198,-0.042 0.268,-0.124c0.954,-1.131 1.608,-2.163 2.025,-2.904c0.71,4.083 1.776,8.026 4.066,8.026c2.199,0 3.269,-3.779 4.06,-8.041c0.417,0.743 1.073,1.78 2.034,2.919c0.069,0.082 0.168,0.124 0.268,0.124c0.08,0 0.16,-0.026 0.226,-0.082c0.147,-0.125 0.167,-0.346 0.042,-0.493c-1.392,-1.65 -2.138,-3.108 -2.385,-3.633c0.251,-1.964 -0.136,-3.741 -1.151,-5.235l1.084,0.567l0.25,1.572c0.017,0.105 0.08,0.196 0.172,0.249l1.788,1.027c0.055,0.031 0.114,0.046 0.174,0.046c0.121,0 0.239,-0.063 0.304,-0.176c0.096,-0.167 0.038,-0.381 -0.13,-0.478l-1.643,-0.94l-0.251,-1.58c-0.018,-0.109 -0.086,-0.204 -0.184,-0.255l-2.126,-1.111c0.083,-0.058 0.158,-0.123 0.221,-0.199c0.156,-0.189 0.212,-0.386 0.23,-0.533c0.509,0.482 1.188,1.123 1.509,1.411c1.36,1.222 2.399,1.632 3.26,1.632c0.751,0 1.366,-0.312 1.941,-0.669c3.02,-1.874 3.827,-2.783 4.8,-4.058c0.444,-0.581 0.537,-1.073 0.277,-1.462zm-11.368,10.517c-0.095,0.536 -0.22,1.236 -0.376,1.994l-6.069,0c-0.16,-0.802 -0.277,-1.513 -0.356,-1.989c-0.001,-0.004 -0.001,-0.008 -0.001,-0.013l6.803,0c-0.001,0.003 -0.001,0.006 -0.001,0.008zm-1.077,4.796l-4.677,0c-0.203,-0.654 -0.377,-1.342 -0.523,-2.001l5.728,0c-0.151,0.667 -0.326,1.351 -0.528,2.001zm1.078,-7.606c0.125,0.631 0.157,1.299 0.098,2.001l-6.991,0c-0.044,-0.687 0.005,-1.356 0.141,-2.001l6.752,0zm-6.535,-0.799c0.491,-1.447 1.326,-2.338 1.789,-2.747c0.05,0.002 0.094,0.01 0.147,0.01c0.016,0 0.033,0 0.049,0c0.019,0 0.036,-0.009 0.054,-0.012c0.02,0.003 0.037,0.012 0.058,0.012l2.37,0c0.007,0 0.013,0 0.019,0c0.877,0.802 1.488,1.717 1.837,2.737l-6.323,0zm4.471,-3.538l-2.375,0c-0.02,0 -0.037,0.009 -0.057,0.011c-0.023,-0.003 -0.041,-0.012 -0.066,-0.011c-0.081,0.001 -0.155,-0.003 -0.226,-0.008c-0.035,-0.008 -0.068,-0.012 -0.104,-0.011c-0.217,-0.028 -0.378,-0.087 -0.457,-0.176c-0.071,-0.08 -0.061,-0.172 -0.054,-0.25l0,-1.298c0.008,-0.403 0.134,-0.71 0.384,-0.939c0.59,-0.541 1.67,-0.475 1.68,-0.473c0.007,0 0.014,-0.003 0.021,-0.003l0.01,0c0.009,0 0.017,0.004 0.025,0.003c0.009,-0.001 1.089,-0.068 1.68,0.473c0.25,0.229 0.376,0.536 0.384,0.931l0.009,1.385c0,0.001 0.006,0.09 -0.057,0.164c-0.108,0.133 -0.404,0.213 -0.797,0.202zm-3.345,-4.509c0,-0.189 0.102,-0.349 0.249,-0.448c0.076,0.087 0.145,0.203 0.145,0.35c0,0.165 -0.093,0.326 -0.254,0.456c-0.084,-0.097 -0.14,-0.22 -0.14,-0.358zm3.155,-0.55c-0.044,0.125 -0.074,0.254 -0.074,0.389c0,0.258 0.09,0.5 0.242,0.712l-1.409,0c-0.019,0 -0.032,0 -0.054,0l-0.964,0c0.126,-0.197 0.197,-0.418 0.197,-0.648c0,-0.158 -0.039,-0.308 -0.099,-0.452l2.161,0l0,-0.001zm0.923,0.877c-0.186,-0.132 -0.298,-0.306 -0.298,-0.489c0,-0.13 0.055,-0.236 0.12,-0.319c0.174,0.092 0.297,0.27 0.297,0.481c0.001,0.125 -0.048,0.235 -0.119,0.327zm-6.846,4.848c-2.369,2.128 -3.43,1.469 -4.365,0.889c-2.917,-1.811 -3.688,-2.677 -4.612,-3.888c-0.228,-0.299 -0.322,-0.542 -0.251,-0.648c0.144,-0.215 0.674,-0.299 1.356,-0.299c1.094,0 2.58,0.216 3.49,0.457c1.324,0.35 4.738,1.456 6.084,1.895c-0.509,0.482 -1.338,1.268 -1.702,1.594zm4.775,14.564c-0.874,0 -1.556,-1.086 -2.078,-2.486l4.132,0c-0.523,1.412 -1.197,2.486 -2.054,2.486zm13.936,-17.563c-0.924,1.211 -1.695,2.077 -4.612,3.888c-0.935,0.581 -1.995,1.239 -4.364,-0.889c-0.363,-0.327 -1.193,-1.112 -1.702,-1.595c1.346,-0.439 4.76,-1.545 6.084,-1.895c1.478,-0.391 4.472,-0.719 4.846,-0.158c0.07,0.107 -0.024,0.35 -0.252,0.649z"/>
        </g>
    </g>
</svg>
