<svg width="78" height="108" xmlns="http://www.w3.org/2000/svg">

    <g>
        <title>background</title>
        <rect fill="none" id="canvas_background" height="110" width="80" y="-1" x="-1"/>
    </g>
    <g>
        <title>Layer 1</title>
        <path fill="#286f0d" id="XMLID_98_"
              d="m40.898066,9.655801c-2.974,4.649 -3.34,10.082 -1.508,14.811c5.305,-0.701 10.24,-3.556 13.214,-8.205s3.34,-10.083 1.508,-14.811c-5.304,0.701 -10.24,3.556 -13.214,8.205z"
              class="st13"/>
        <path fill="#63271d" id="svg_1"
              d="m39.789066,33.808801c-1.104,0 -2,-0.896 -2,-2l0,-3.895c0,-4.253 -2.103,-8.178 -5.625,-10.499c-0.922,-0.607 -1.177,-1.848 -0.569,-2.771c0.607,-0.921 1.848,-1.177 2.771,-0.569c4.648,3.063 7.423,8.236 7.423,13.839l0,3.895c0,1.105 -0.895,2 -2,2z"
              class="st14"/>
        <ellipse fill="#f87302" ry="37.223" rx="37.057" id="XMLID_99_" cy="69.031801" cx="39.240066" class="st161"/>
        <path fill="#ff7b22" id="XMLID_287_"
              d="m20.783066,69.031801c0,-17.331 11.792,-31.895 27.757,-36.04c-2.972,-0.772 -6.088,-1.183 -9.3,-1.183c-20.466,0 -37.057,16.665 -37.057,37.223s16.591,37.223 37.057,37.223c3.212,0 6.328,-0.411 9.3,-1.183c-15.965,-4.145 -27.757,-18.709 -27.757,-36.04z"
              class="st162"/>
        <path fill="#fc7f10" id="XMLID_285_"
              d="m12.516066,69.031801c0,-18.795 13.871,-34.328 31.89,-36.855c-1.689,-0.237 -3.412,-0.368 -5.167,-0.368c-20.465,0 -37.056,16.665 -37.056,37.223s16.591,37.223 37.057,37.223c1.754,0 3.477,-0.131 5.167,-0.368c-18.019,-2.527 -31.891,-18.06 -31.891,-36.855z"
              class="st163"/>
        <path fill="#f9dcc7" id="svg_2"
              d="m14.982066,78.927801c-0.922,0 -1.751,-0.642 -1.953,-1.58c-0.584,-2.715 -0.88,-5.513 -0.88,-8.315c0,-7.328 2.026,-14.476 5.858,-20.671c0.581,-0.938 1.813,-1.23 2.753,-0.648c0.939,0.581 1.229,1.813 0.648,2.753c-3.441,5.563 -5.26,11.982 -5.26,18.566c0,2.521 0.266,5.035 0.791,7.475c0.232,1.08 -0.455,2.144 -1.535,2.375c-0.141,0.03 -0.283,0.045 -0.422,0.045z"
              class="st25"/>
        <path fill="#f9dcc7" id="svg_3"
              d="m17.343066,84.790801c-0.52,0 -1.04,-0.21 -1.41,-0.59c-0.37,-0.37 -0.59,-0.88 -0.59,-1.41c0,-0.13 0.02,-0.26 0.04,-0.39c0.03,-0.13 0.07,-0.25 0.12,-0.37c0.05,-0.12 0.11,-0.24 0.18,-0.35c0.07,-0.11 0.16,-0.21 0.25,-0.3c0.09,-0.1 0.19,-0.18 0.3,-0.25c0.11,-0.07 0.23,-0.14 0.35,-0.19c0.12,-0.05 0.25,-0.08 0.37,-0.11c0.65,-0.13 1.34,0.08 1.81,0.55c0.09,0.09 0.17,0.19 0.25,0.3c0.07,0.11 0.13,0.23 0.18,0.35c0.05,0.12 0.09,0.24 0.11,0.37c0.03,0.13 0.04,0.26 0.04,0.39c0,0.53 -0.21,1.04 -0.58,1.41c-0.37,0.38 -0.89,0.59 -1.42,0.59z"
              class="st25"/>
        <path fill="#ffffff" id="svg_5"
              d="m69.628066,79.515801c-0.333,0 -0.671,-0.083 -0.982,-0.259l-3.786,-2.139c-0.961,-0.543 -1.301,-1.763 -0.757,-2.725c0.543,-0.962 1.763,-1.301 2.725,-0.757l3.786,2.139c0.961,0.543 1.301,1.763 0.757,2.725c-0.368,0.65 -1.045,1.016 -1.743,1.016z"
              class="st166"/>
        <path fill="#ffffff" id="svg_6"
              d="m64.814066,102.815801c-0.698,0 -1.376,-0.366 -1.744,-1.017c-0.543,-0.962 -0.204,-2.182 0.758,-2.725l3.786,-2.138c0.963,-0.542 2.182,-0.204 2.725,0.758s0.204,2.182 -0.758,2.725l-3.786,2.138c-0.31,0.176 -0.648,0.259 -0.981,0.259z"
              class="st166"/>
    </g>
</svg>
