<?xml version="1.0" ?>
<svg style="enable-background:new 0 0 447.75 265.34;" version="1.1" viewBox="0 0 447.75 265.34" xml:space="preserve"
     xmlns="http://www.w3.org/2000/svg"><g id="coffee_cup"><path d="M68.664,23.042c0,0-11.132,198.275,266.939,139.492l-3.802,40.84   c-1.804,19.377-17.676,34.424-37.122,35.191l-213.763,8.43c-28.489,1.318-61.489-34.651-60.869-63.164L20.037,23.042H68.664z" style="fill:#C9711A;"/><path
        d="M14.057,0C6.294,0,0,6.291,0,14.057v167.389c0,46.259,37.635,83.894,83.894,83.894h179.988   c46.259,0,83.894-37.635,83.894-83.894v-48.116h37.151c34.642,0,62.825-28.183,62.825-62.825V14.057   C447.75,6.291,441.456,0,433.693,0H14.057z M319.66,181.446c0,30.757-25.022,55.779-55.779,55.779H83.894   c-30.757,0-55.779-25.022-55.779-55.779V28.114H319.66V181.446z M419.636,70.506c0,19.14-15.571,34.711-34.711,34.711h-37.151   V28.114h71.861V70.506z"
        style="fill:#352517;"/><path
        d="M173.875,199.158c0,0,0,0,0.003,0c36.68,0,66.528-29.824,66.538-66.483   c0.003-17.764-6.915-34.463-19.48-47.024c-12.564-12.557-29.268-19.473-47.038-19.473h-0.003   c-36.677,0-66.525,29.823-66.538,66.483l0,0c-0.003,17.764,6.915,34.463,19.48,47.024   C139.402,192.243,156.105,199.158,173.875,199.158z M173.899,94.292c10.261,0,19.909,3.995,27.164,11.243   c7.248,7.248,11.243,16.885,11.24,27.133c-0.003,21.161-17.242,38.379-38.427,38.376c-10.261,0-19.909-3.995-27.164-11.243   c-7.248-7.248-11.243-16.882-11.24-27.129C135.479,111.507,152.718,94.292,173.899,94.292z"
        style="fill:#352517;"/></g>
    <g id="Layer_1"/></svg>
