<svg width="100" height="25" xmlns="http://www.w3.org/2000/svg" style="vector-effect: non-scaling-stroke;" stroke="null">

 <g stroke="null">
  <title stroke="null">background</title>
  <rect stroke="null" fill="none" id="canvas_background" height="27" width="102" y="-1" x="-1"/>
 </g>
 <g stroke="null">
  <title stroke="null">Layer 1</title>
  <g style="vector-effect: non-scaling-stroke;" stroke="null" id="svg_13">
   <rect style="vector-effect: non-scaling-stroke;" stroke="null" id="svg_2" y="3.196912" x="17.853391" width="3" height="5.9999" fill="#c0392b"/>
   <path style="vector-effect: non-scaling-stroke;" stroke="null" id="svg_3" fill="#bdc3c7" d="m12.853391,3.228136l-9,8.9688l0,1.812l0,5.376l0,1.812l1,0l8,0l8,0l1,0l0,-1.812l0,-5.376l0,-1.812l-9,-8.9688z"/>
   <path style="vector-effect: non-scaling-stroke;" stroke="null" id="svg_4" fill="#95a5a6" d="m12.853391,3.796912l-9,8.9l0,1.9l0,0.1l9,-9l9,9l0,-0.1l0,-1.9l-9,-8.9z"/>
   <path style="vector-effect: non-scaling-stroke;" stroke="null" id="svg_6" fill="#e74c3c" d="m12.853391,1.196912l-11.314,11.3l1.4145,1.4l9.8995,-9.9l9.899,9.9l1.415,-1.4l-11.314,-11.3z"/>
   <path style="vector-effect: non-scaling-stroke;" stroke="null" id="svg_7" fill="#3498db" d="m14.853391,10.196936a2,2 0 1 1 -4,0a2,2 0 1 1 4,0z"/>
   <rect style="vector-effect: non-scaling-stroke;" stroke="null" id="svg_8" y="15.196912" x="10.853391" width="4" height="6" fill="#e67e22"/>
   <path style="vector-effect: non-scaling-stroke;" stroke="null" id="svg_9" fill="#d35400" d="m14.353391,18.696936a0.5,0.5 0 1 1 -1,0a0.5,0.5 0 1 1 1,0z"/>
   <path style="vector-effect: non-scaling-stroke;" stroke="null" id="svg_10" fill="#2980b9" d="m12.853391,8.196912c-1.105,0 -2,0.9 -2,2c0,0.1 0.021,0.3 0.062,0.5c0.222,-0.9 1.006,-1.5 1.938,-1.5s1.716,0.6 1.938,1.5c0.041,-0.2 0.062,-0.4 0.062,-0.5c0,-1.1 -0.895,-2 -2,-2z"/>
   <path style="vector-effect: non-scaling-stroke;" stroke="null" id="svg_11" fill="#f1c40f" d="m14.353391,18.196936a0.5,0.5 0 1 1 -1,0a0.5,0.5 0 1 1 1,0z"/>
   <rect style="vector-effect: non-scaling-stroke;" stroke="null" id="svg_12" y="14.196912" x="10.853391" width="4" height="1" fill="#d35400"/>
  </g>
  <g style="vector-effect: non-scaling-stroke;" stroke="null" id="svg_35">
   <rect style="vector-effect: non-scaling-stroke;" stroke="null" id="svg_25" y="3.196912" x="52.776787" width="3" height="5.9999" fill="#c0392b"/>
   <path style="vector-effect: non-scaling-stroke;" stroke="null" id="svg_26" fill="#bdc3c7" d="m47.776788,3.228136l-9,8.9688l0,1.812l0,5.376l0,1.812l1,0l8,0l8,0l1,0l0,-1.812l0,-5.376l0,-1.812l-9,-8.9688z"/>
   <path style="vector-effect: non-scaling-stroke;" stroke="null" id="svg_27" fill="#95a5a6" d="m47.776788,3.796912l-9,8.9l0,1.9l0,0.1l9,-9l9,9l0,-0.1l0,-1.9l-9,-8.9z"/>
   <path style="vector-effect: non-scaling-stroke;" stroke="null" id="svg_28" fill="#e74c3c" d="m47.776788,1.196912l-11.314,11.3l1.4145,1.4l9.8995,-9.9l9.899,9.9l1.415,-1.4l-11.314,-11.3z"/>
   <path style="vector-effect: non-scaling-stroke;" stroke="null" id="svg_29" fill="#3498db" d="m49.776788,10.196936a2,2 0 1 1 -4,0a2,2 0 1 1 4,0z"/>
   <rect style="vector-effect: non-scaling-stroke;" stroke="null" id="svg_30" y="15.196912" x="45.776787" width="4" height="6" fill="#e67e22"/>
   <path style="vector-effect: non-scaling-stroke;" stroke="null" id="svg_31" fill="#d35400" d="m49.276788,18.696936a0.5,0.5 0 1 1 -1,0a0.5,0.5 0 1 1 1,0z"/>
   <path style="vector-effect: non-scaling-stroke;" stroke="null" id="svg_32" fill="#2980b9" d="m47.776788,8.196912c-1.105,0 -2,0.9 -2,2c0,0.1 0.021,0.3 0.062,0.5c0.222,-0.9 1.006,-1.5 1.938,-1.5s1.716,0.6 1.938,1.5c0.041,-0.2 0.062,-0.4 0.062,-0.5c0,-1.1 -0.895,-2 -2,-2z"/>
   <path style="vector-effect: non-scaling-stroke;" stroke="null" id="svg_33" fill="#f1c40f" d="m49.276788,18.196936a0.5,0.5 0 1 1 -1,0a0.5,0.5 0 1 1 1,0z"/>
   <rect style="vector-effect: non-scaling-stroke;" stroke="null" id="svg_34" y="14.196912" x="45.776787" width="4" height="1" fill="#d35400"/>
  </g>
  <g style="vector-effect: non-scaling-stroke;" stroke="null" id="svg_46">
   <rect style="vector-effect: non-scaling-stroke;" stroke="null" id="svg_36" y="3.196912" x="93.476985" width="3" height="5.9999" fill="#c0392b"/>
   <path style="vector-effect: non-scaling-stroke;" stroke="null" id="svg_37" fill="#bdc3c7" d="m88.476986,3.228136l-9,8.9688l0,1.812l0,5.376l0,1.812l1,0l8,0l8,0l1,0l0,-1.812l0,-5.376l0,-1.812l-9,-8.9688z"/>
   <path style="vector-effect: non-scaling-stroke;" stroke="null" id="svg_38" fill="#95a5a6" d="m88.476986,3.796912l-9,8.9l0,1.9l0,0.1l9,-9l9,9l0,-0.1l0,-1.9l-9,-8.9z"/>
   <path style="vector-effect: non-scaling-stroke;" stroke="null" id="svg_39" fill="#e74c3c" d="m88.476986,1.196912l-11.314,11.3l1.4145,1.4l9.8995,-9.9l9.899,9.9l1.415,-1.4l-11.314,-11.3z"/>
   <path style="vector-effect: non-scaling-stroke;" stroke="null" id="svg_40" fill="#3498db" d="m90.476986,10.196936a2,2 0 1 1 -4,0a2,2 0 1 1 4,0z"/>
   <rect style="vector-effect: non-scaling-stroke;" stroke="null" id="svg_41" y="15.196912" x="86.476985" width="4" height="6" fill="#e67e22"/>
   <path style="vector-effect: non-scaling-stroke;" stroke="null" id="svg_42" fill="#d35400" d="m89.976986,18.696936a0.5,0.5 0 1 1 -1,0a0.5,0.5 0 1 1 1,0z"/>
   <path style="vector-effect: non-scaling-stroke;" stroke="null" id="svg_43" fill="#2980b9" d="m88.476986,8.196912c-1.105,0 -2,0.9 -2,2c0,0.1 0.021,0.3 0.062,0.5c0.222,-0.9 1.006,-1.5 1.938,-1.5s1.716,0.6 1.938,1.5c0.041,-0.2 0.062,-0.4 0.062,-0.5c0,-1.1 -0.895,-2 -2,-2z"/>
   <path style="vector-effect: non-scaling-stroke;" stroke="null" id="svg_44" fill="#f1c40f" d="m89.976986,18.196936a0.5,0.5 0 1 1 -1,0a0.5,0.5 0 1 1 1,0z"/>
   <rect style="vector-effect: non-scaling-stroke;" stroke="null" id="svg_45" y="14.196912" x="86.476985" width="4" height="1" fill="#d35400"/>
  </g>
  <rect stroke="null" style="vector-effect: non-scaling-stroke;" id="svg_48" height="0.131291" width="14.704588" y="20.672041" x="22.975918" stroke-opacity="null" stroke-width="null" fill="#000000"/>
  <rect stroke="null" style="vector-effect: non-scaling-stroke;" id="svg_49" height="0.131298" width="20.61268" y="20.672045" x="57.571088" stroke-opacity="null" stroke-width="null" fill="#000000"/>
  <text stroke="null" style="vector-effect: non-scaling-stroke;" transform="matrix(1,0,0,0.31447142362594604,0,-1.4139026887714863) " xml:space="preserve" text-anchor="start" font-family="Helvetica, Arial, sans-serif" font-size="24" id="svg_50" y="17.995488" x="27.702393" stroke-opacity="null" stroke-width="0" fill="#000000"/>
  <text stroke="null" style="vector-effect: non-scaling-stroke;" transform="matrix(2.6098480224609375,0,0,1,-40.573200941085815,0) " xml:space="preserve" text-anchor="start" font-family="Helvetica, Arial, sans-serif" font-size="9" id="svg_51" y="19.271604" x="25.207865" fill-opacity="null" stroke-opacity="null" stroke-width="0" fill="#000000"/>
  <text stroke="null" style="vector-effect: non-scaling-stroke;" transform="matrix(1,0,0,0.619850218296051,0,-2.1502222027629614) " xml:space="preserve" text-anchor="start" font-family="Helvetica, Arial, sans-serif" font-size="9" id="svg_52" y="1.619118" x="4.201311" fill-opacity="null" stroke-opacity="null" stroke-width="0" fill="#000000"/>
  <text stroke="null" style="vector-effect: non-scaling-stroke;" font-weight="bold" transform="matrix(0.387216717004776,0,0,0.47843682186497083,19.823500868538986,17.64422900068412) " xml:space="preserve" text-anchor="start" font-family="Helvetica, Arial, sans-serif" font-size="9" id="svg_53" y="5.421822" x="16.115589" fill-opacity="null" stroke-opacity="null" stroke-width="0" fill="#000000">440m</text>
  <text stroke="null" style="cursor: move; vector-effect: non-scaling-stroke;" font-weight="bold" transform="matrix(0.387216717004776,0,0,0.47843682186497083,19.823500868538986,17.64422900068412) " xml:space="preserve" text-anchor="start" font-family="Helvetica, Arial, sans-serif" font-size="9" id="svg_54" y="5.421822" x="114.443933" fill-opacity="null" stroke-opacity="null" stroke-width="0" fill="#000000">550m</text>
  <text stroke="null" font-weight="bold" transform="matrix(0.6687242218417194,0,0,0.6319053217790583,30.60792748797034,13.437551631769175) " xml:space="preserve" text-anchor="start" font-family="Helvetica, Arial, sans-serif" font-size="4" id="svg_55" y="16.253444" x="-39.535352" fill-opacity="null" stroke-opacity="null" stroke-width="0" fill="#000000">Nisal's house</text>
  <text stroke="null" font-weight="bold" transform="matrix(0.6312963068285714,0,0,0.6319053217790583,32.03400676209755,13.437551631769175) " xml:space="preserve" text-anchor="start" font-family="Helvetica, Arial, sans-serif" font-size="4" id="svg_56" y="16.253444" x="10.956114" fill-opacity="null" stroke-opacity="null" stroke-width="0" fill="#000000">Kamal's house</text>
  <text stroke="null" font-weight="bold" transform="matrix(0.6312963068285714,0,0,0.6319053217790583,32.03400676209755,13.437551631769175) " xml:space="preserve" text-anchor="start" font-family="Helvetica, Arial, sans-serif" font-size="4" id="svg_57" y="16.253444" x="76.050857" fill-opacity="null" stroke-opacity="null" stroke-width="0" fill="#000000">Vimal's house</text>
 </g>
</svg>