<svg width="372.5" height="83.73" xmlns="http://www.w3.org/2000/svg" class="displayed_equation">
    <g>
        <title>background</title>
        <rect fill="none" id="canvas_background" height="85.73" width="374.5" y="-1" x="-1"/>
    </g>

    <g>
        <title>Layer 1</title>
        <rect fill="none" stroke-width="2" fill-opacity="null" x="307.677729" y="44.32949" width="10.137341"
              height="10.578096" id="svg_28" stroke="#ff7f00"/>
        <rect fill="none" stroke-width="2" fill-opacity="null" x="149.447043" y="44.32949" width="10.137341"
              height="10.578096" id="svg_27" stroke="#ff7f00"/>
        <text stroke="#55a4e0"
              transform="matrix(1.6844683670304788,0,0,1.4856088208917906,-132.03747268149158,-10.27561367135438) "
              xml:space="preserve" text-anchor="start" font-family="Helvetica, Arial, sans-serif" font-size="8"
              id="svg_37" y="20.73471" x="173.980653" stroke-width="0" fill="#55a4e0">+1</text>
        <path id="svg_1" stroke-miterlimit="10" stroke-width="2" fill="none"
              d="m12.39844,49.606451l347.70703,0m-331.90235,4.05507l0,-8.11015" stroke="#000"/>
        <path id="svg_2"
              d="m30.62109,62.359341c0,-2.29688 -1.0039,-3.625 -2.4414,-3.625c-1.61719,0 -2.47656,1.47266 -2.47656,3.58984c0,1.97657 0.65625,3.69532 2.45312,3.69532c1.75,0 2.46484,-1.75 2.46484,-3.66016zm-1.08203,0.06641c0,2.14062 -0.5,3.1914 -1.38281,3.1914c-0.89453,0 -1.38281,-1.07031 -1.38281,-3.23437c0,-2.21094 0.48828,-3.26953 1.37109,-3.26953c0.91406,0 1.39453,1.04687 1.39453,3.3125"
              stroke="null"/>
        <path id="svg_3" stroke-miterlimit="10" stroke-width="2" fill="none" d="m59.8125,44.609341l0,9.96094"
              stroke="#000"/>
        <path id="svg_4"
              d="m61.75391,65.894501l0,-0.3125c-1.02735,0 -1.44141,-0.19922 -1.44141,-0.7461l0,-6.0664l-0.32031,0l-2.16797,0.60937l0,0.37109c0.34766,-0.11328 0.91797,-0.17968 1.14062,-0.17968c0.27735,0 0.36719,0.15625 0.36719,0.54687l0,4.71875c0,0.5586 -0.39062,0.7461 -1.4414,0.7461l0,0.3125l3.86328,0"
              stroke="null"/>
        <path id="svg_5" stroke-miterlimit="10" stroke-width="2" fill="none" d="m91.42188,44.609341l0,9.96094"
              stroke="#000"/>
        <path id="svg_6"
              d="m93.77734,64.113251l-0.32421,0c-0.25782,0.66796 -0.40235,0.90234 -0.99219,0.90234l-1.55078,0l-0.78125,0.03125l0,-0.05469l1.47265,-1.39453c1.1836,-1.19531 1.81641,-1.96094 1.81641,-2.95703c0,-1.17188 -0.87891,-1.92969 -2.14063,-1.92969c-1.08203,0 -1.83984,0.625 -2.1875,1.70703l0.26954,0.11328c0.41406,-0.83984 0.90234,-1.09375 1.6289,-1.09375c0.85938,0 1.39453,0.53516 1.39453,1.3711c0,1.17187 -0.55859,1.875 -1.66406,3.01172l-1.69531,1.69531l0,0.37891l4.39453,0l0.35937,-1.78125"
              stroke="null"/>
        <path id="svg_7" stroke-miterlimit="10" stroke-width="2" fill="none" d="m123.03125,44.609341l0,9.96094"
              stroke="#000"/>
        <path id="svg_8"
              d="m121.25781,60.339811c0.38282,-0.58985 0.79297,-0.90235 1.46094,-0.90235c0.69531,0 1.14063,0.37891 1.14063,1.03516c0,0.90625 -0.79297,1.51953 -1.55079,1.51953l-0.21093,0l0,0.42188l0.22265,0c1.07032,0 2.01953,0.66015 2.01953,1.65234c0,1.09375 -0.68359,1.41797 -1.38671,1.41797c-0.26563,0 -0.42188,-0.04688 -0.90235,-0.29297c-0.39062,-0.19922 -0.48047,-0.25391 -0.65625,-0.25391c-0.29297,0 -0.4375,0.25391 -0.4375,0.48829c0,0.29296 0.2461,0.61718 1.25,0.61718c1.62891,0 3.04688,-0.78125 3.04688,-2.3125c0,-0.99218 -0.7461,-1.58203 -1.64063,-1.86328l0,-0.03125c0.70313,-0.44922 1.20703,-0.85937 1.20703,-1.6289c0,-0.84766 -0.66015,-1.4961 -1.79687,-1.4961c-0.91406,0 -1.60938,0.51172 -2.01953,1.48438l0.2539,0.14453"
              stroke="null"/>
        <path id="svg_9" stroke-miterlimit="10" stroke-width="2" fill="none" d="m154.64453,44.609341l0,9.96094"
              stroke="#000"/>
        <path id="svg_10"
              d="m157.26563,64.132781l0,-0.76953l-1.13672,0l0,-4.66407l-0.67969,0l-3.40234,4.73047l0,0.70313l3.08984,0l0,1.76172l0.99219,0l0,-1.76172l1.13672,0zm-2.12891,-0.76953l-2.47656,0l0,-0.04297l2.42968,-3.40235l0.04688,0l0,3.44532"
              stroke="null"/>
        <path id="svg_11" stroke-miterlimit="10" stroke-width="2" fill="none" d="m186.25391,44.609341l0,9.96094"
              stroke="#000"/>
        <path id="svg_12"
              d="m188.15234,59.671841l0.17969,-0.90234l-3.05859,0l-0.69141,2.91015l0.13281,0.16797c0.15625,0 0.21485,0 0.50391,0.02344c1.53906,0.07812 2.41016,0.53125 2.41016,1.92969c0,1.15625 -0.70313,1.58203 -1.4961,1.58203c-0.71484,0 -1.08203,-0.54688 -1.52734,-0.54688c-0.28125,0 -0.44922,0.22266 -0.44922,0.48047c0,0.41406 0.42578,0.625 1.28516,0.625c1.77343,0 3,-0.87109 3,-2.58984c0,-1.75 -1.3711,-2.27344 -2.6875,-2.375l-0.52344,-0.03516l0.30078,-1.26953l2.62109,0"
              stroke="null"/>
        <path id="svg_13" stroke-miterlimit="10" stroke-width="2" fill="none" d="m217.86328,44.609341l0,9.96094"
              stroke="#000"/>
        <path id="svg_14"
              d="m219.73047,58.691371c-2.39844,0.09766 -4.12891,1.64844 -4.12891,4.33594c0,1.64062 0.72657,3.0039 2.38672,3.0039c1.40625,0 2.21094,-0.88281 2.21094,-2.39843c0,-1.46485 -0.79297,-2.34375 -2.00781,-2.34375c-0.58203,0 -0.9961,0.24609 -1.44922,0.6914l-0.07813,-0.01172c0.27735,-1.6289 1.52735,-2.72265 3.08985,-2.95703l-0.02344,-0.32031zm-0.50391,5.03125c0,1.41406 -0.44531,1.91797 -1.1914,1.91797c-0.97266,0 -1.42969,-0.99609 -1.42969,-2.37891c0,-0.96875 0.60156,-1.32812 1.25,-1.32812c0.92578,0 1.37109,0.78125 1.37109,1.78906"
              stroke="null"/>
        <path id="svg_15" stroke-miterlimit="10" stroke-width="2" fill="none" d="m249.47266,44.609341l0,9.96094"
              stroke="#000"/>
        <path id="svg_16"
              d="m251.87891,59.113251l0,-0.34375l-4.26563,0l-0.44531,1.70312l0.34766,0.03516c0.30078,-0.72266 0.39062,-0.83594 1.01562,-0.83594l2.48438,0l-2.63282,6.21484l0.88282,0l2.61328,-6.77343"
              stroke="null"/>
        <path id="svg_17" stroke-miterlimit="10" stroke-width="2" fill="none" d="m281.08203,44.609341l0,9.96094"
              stroke="#000"/>
        <path id="svg_18"
              d="m283.29688,64.324181c0,-0.89453 -0.39844,-1.42968 -1.70704,-2.22265l0,-0.03125c1.03907,-0.57032 1.44141,-0.9375 1.44141,-1.75391c0,-0.87891 -0.84766,-1.53906 -1.95312,-1.53906c-1.22657,0 -2.1211,0.63672 -2.1211,1.65234c0,0.75781 0.2461,1.21485 1.38672,2.00781l0,0.03516c-1.03906,0.6875 -1.53125,1.04688 -1.53125,1.9375c0,1.14063 0.9375,1.71875 2.23047,1.71875c1.32812,0 2.25391,-0.63281 2.25391,-1.80469zm-1.09375,-4.03125c0,0.71485 -0.22266,1.15235 -0.95704,1.59766c-0.99218,-0.60156 -1.41796,-1.00391 -1.41796,-1.66016c0,-0.68359 0.46875,-1.08593 1.22656,-1.08593c0.71484,0 1.14844,0.41406 1.14844,1.14843zm-1.52735,2.35547c1.35156,0.8711 1.6836,1.28516 1.6836,1.9961c0,0.76171 -0.57813,1.14062 -1.26954,1.14062c-0.84765,0 -1.40625,-0.45703 -1.40625,-1.46094c0,-0.77343 0.35547,-1.16406 0.99219,-1.67578"
              stroke="null"/>
        <path id="svg_19" stroke-miterlimit="10" stroke-width="2" fill="none" d="m312.69141,44.609341l0,9.96094"
              stroke="#000"/>
        <path id="svg_20"
              d="m310.84766,66.042931c2.46484,-0.02343 4.07422,-1.4414 4.07422,-4.32031c0,-1.64844 -0.6836,-3.03125 -2.34375,-3.03125c-1.40625,0 -2.24219,0.87891 -2.24219,2.38672c0,1.47266 0.79297,2.33984 2.00781,2.33984c0.55859,0 0.96094,-0.23437 1.46094,-0.6914l0.0664,0.01172c-0.24218,1.80859 -1.5039,2.80078 -3.04296,2.98046l0.01953,0.32422zm0.45703,-5.03125c0,-1.42968 0.5039,-1.94531 1.22656,-1.94531c0.98438,0 1.38281,0.99609 1.38281,2.39063c0,0.95703 -0.58984,1.30468 -1.23437,1.30468c-0.92578,0 -1.375,-0.71484 -1.375,-1.75"
              stroke="null"/>
        <path id="svg_21" stroke-miterlimit="10" stroke-width="2" fill="none" d="m344.30078,44.609341l0,9.96094"
              stroke="#000"/>
        <path id="svg_22"
              d="m343.55469,65.894501l0,-0.3125c-1.02735,0 -1.44141,-0.19922 -1.44141,-0.7461l0,-6.0664l-0.32422,0l-2.16406,0.60937l0,0.37109c0.34766,-0.11328 0.91406,-0.17968 1.14063,-0.17968c0.27734,0 0.36718,0.15625 0.36718,0.54687l0,4.71875c0,0.5586 -0.39062,0.7461 -1.4414,0.7461l0,0.3125l3.86328,0m5.96875,-3.53516c0,-2.29688 -1.00781,-3.625 -2.44531,-3.625c-1.61719,0 -2.47657,1.47266 -2.47657,3.58984c0,1.97657 0.65625,3.69532 2.45313,3.69532c1.7539,0 2.46875,-1.75 2.46875,-3.66016zm-1.08594,0.06641c0,2.14062 -0.5,3.1914 -1.38281,3.1914c-0.89063,0 -1.38281,-1.07031 -1.38281,-3.23437c0,-2.21094 0.49218,-3.26953 1.37109,-3.26953c0.91797,0 1.39453,1.04687 1.39453,3.3125"
              stroke="null"/>

        <g transform="matrix(-0.03948329316365661,0,0,0.03948329316365661,19.8482329162224,2.610649913316156e-7) "
           id="svg_46"/>
        <g id="svg_48"/>

        <g id="svg_71"/>

        <g transform="matrix(-0.03948329316365661,0,0,0.03948329316365661,19.8482329162224,2.610649913316156e-7) "
           id="svg_84"/>
        <g id="svg_86"/>
        <style transform="matrix(1.2498862181428763,0,0,1.2498862181428763,0,0) " type="text/css">.st0{fill:#3B6A75;}
        </style>
        <g id="svg_93"/>
        <style transform="matrix(1.2498862181428763,0,0,1.2498862181428763,0,0) " type="text/css">.st0{fill:#3B6A75;}
        </style>
        <g id="svg_100"/>
        <g id="svg_114"/>
        <g transform="matrix(0.6294426179829526,0,0,0.6782947309586392,194.04250918719828,46.18917961698523) "
           id="svg_123">
            <title>Layer 1</title>
            <path d="m-26.694469,-20.443446l9.471122,0l0,-9.163002l-1.894224,0l0,5.612339c-4.290418,-4.703369 -10.480744,-7.444939 -17.04802,-7.444939c-12.533136,0 -22.730693,9.865804 -22.730693,21.991204c0,2.631614 0.47545,5.204585 1.413091,7.649274l1.775835,-0.637745c-0.859031,-2.239438 -1.294702,-4.598911 -1.294702,-7.011529c0,-11.115637 9.34705,-20.158604 20.836468,-20.158604c6.249046,0 12.118301,2.714081 16.061129,7.330401l-6.590007,0l0,1.8326l0.000001,0.000001z"
                  id="svg_119" transform="rotate(24.471302032470703 -38.059814453125,-16.618797302246087) "
                  stroke="null" fill="#ff7f00"/>
        </g>
        <g id="svg_124"/>
        <g transform="matrix(0.6294426179829526,0,0,0.6782947309586392,194.04250918719828,46.18917961698523) "
           id="svg_127">
            <title id="svg_125">Layer 1</title>
            <path d="m24.298805,-20.443447l9.471122,0l0,-9.163002l-1.894224,0l0,5.612339c-4.290418,-4.703369 -10.480744,-7.444939 -17.04802,-7.444939c-12.533136,0 -22.730693,9.865804 -22.730693,21.991204c0,2.631614 0.47545,5.204585 1.413091,7.649274l1.775835,-0.637745c-0.859031,-2.239438 -1.294702,-4.598911 -1.294702,-7.011529c0,-11.115637 9.34705,-20.158604 20.836468,-20.158604c6.249046,0 12.118301,2.714081 16.061129,7.330401l-6.590007,0l0,1.8326l0.000001,0.000001z"
                  id="svg_126" transform="rotate(24.471302032470703 12.933486938476557,-16.61879730224609) "
                  stroke="null" fill="#ff7f00"/>
        </g>
        <g transform="matrix(0.6294426179829526,0,0,0.6782947309586392,194.04250918719828,46.18917961698523) "
           id="svg_130">
            <title id="svg_128">Layer 1</title>
            <path d="m74.420399,-20.443447l9.471122,0l0,-9.163002l-1.894224,0l0,5.612339c-4.290418,-4.703369 -10.480744,-7.444939 -17.04802,-7.444939c-12.533136,0 -22.730693,9.865804 -22.730693,21.991204c0,2.631614 0.47545,5.204585 1.413091,7.649274l1.775835,-0.637745c-0.859031,-2.239438 -1.294702,-4.598911 -1.294702,-7.011529c0,-11.115637 9.34705,-20.158604 20.836468,-20.158604c6.249046,0 12.118301,2.714081 16.061129,7.330401l-6.590007,0l0,1.8326l0.000001,0.000001z"
                  id="svg_129" transform="rotate(24.471302032470703 63.05514907836913,-16.61879730224611) "
                  stroke="null" fill="#ff7f00"/>
        </g>
        <g transform="matrix(0.6294426179829526,0,0,0.6782947309586392,194.04250918719828,46.18917961698523) "
           id="svg_133">
            <title id="svg_131">Layer 1</title>
            <path d="m124.541993,-20.443447l9.471122,0l0,-9.163002l-1.894224,0l0,5.612339c-4.290418,-4.703369 -10.480744,-7.444939 -17.04802,-7.444939c-12.533136,0 -22.730693,9.865804 -22.730693,21.991204c0,2.631614 0.47545,5.204585 1.413091,7.649274l1.775835,-0.637745c-0.859031,-2.239438 -1.294702,-4.598911 -1.294702,-7.011529c0,-11.115637 9.34705,-20.158604 20.836468,-20.158604c6.249046,0 12.118301,2.714081 16.061129,7.330401l-6.590007,0l0,1.8326l0.000001,0.000001z"
                  id="svg_132" transform="rotate(24.471302032470703 113.1763916015625,-16.61879730224608) "
                  stroke="null" fill="#ff7f00"/>
        </g>
        <g transform="matrix(0.6294426179829526,0,0,0.6782947309586392,194.04250918719828,46.18917961698523) "
           id="svg_136">
            <title id="svg_134">Layer 1</title>
            <path d="m173.356068,-20.443447l9.471122,0l0,-9.163002l-1.894224,0l0,5.612339c-4.290418,-4.703369 -10.480744,-7.444939 -17.04802,-7.444939c-12.533136,0 -22.730693,9.865804 -22.730693,21.991204c0,2.631614 0.47545,5.204585 1.413091,7.649274l1.775835,-0.637745c-0.859031,-2.239438 -1.294702,-4.598911 -1.294702,-7.011529c0,-11.115637 9.34705,-20.158604 20.836468,-20.158604c6.249046,0 12.118301,2.714081 16.061129,7.330401l-6.590007,0l0,1.8326l0.000001,0.000001z"
                  id="svg_135" transform="rotate(24.471302032470703 161.9901123046875,-16.6187973022461) " stroke="null"
                  fill="#ff7f00"/>
        </g>
        <text stroke="#55a4e0"
              transform="matrix(1.6844683670304788,0,0,1.4856088208917906,-132.03747268149158,-10.27561367135438) "
              xml:space="preserve" text-anchor="start" font-family="Helvetica, Arial, sans-serif" font-size="8"
              id="svg_137" y="20.73471" x="193.198394" stroke-width="0" fill="#55a4e0">+1</text>
        <text stroke="#55a4e0"
              transform="matrix(1.6844683670304788,0,0,1.4856088208917906,-132.03747268149158,-10.27561367135438) "
              xml:space="preserve" text-anchor="start" font-family="Helvetica, Arial, sans-serif" font-size="8"
              id="svg_138" y="20.73471" x="211.927549" stroke-width="0" fill="#55a4e0">+1</text>
        <text stroke="#55a4e0"
              transform="matrix(1.6844683670304788,0,0,1.4856088208917906,-132.03747268149158,-10.27561367135438) "
              xml:space="preserve" text-anchor="start" font-family="Helvetica, Arial, sans-serif" font-size="8"
              id="svg_139" y="20.73471" x="230.005255" stroke-width="0" fill="#55a4e0">+1</text>
        <text stroke="#55a4e0"
              transform="matrix(1.6844683670304788,0,0,1.4856088208917906,-132.03747268149158,-10.27561367135438) "
              xml:space="preserve" text-anchor="start" font-family="Helvetica, Arial, sans-serif" font-size="8"
              id="svg_140" y="20.73471" x="248.571547" stroke-width="0" fill="#55a4e0">+1</text>
    </g>
</svg>
