<svg width="690" height="740" xmlns="http://www.w3.org/2000/svg">

    <metadata id="metadata7">image/svg+xml</metadata>
    <g>
        <title>background</title>
        <rect fill="none" id="canvas_background" height="742" width="692" y="-1" x="-1"/>
    </g>
    <g>
        <title>Layer 1</title>
        <g id="svg_1">
            <path fill="#000000"
                  d="m439.164711,34.672967c-0.269191,0.65196 -0.538381,1.303949 -0.807514,1.955909c-12.917874,31.978666 -15.919968,66.808926 -18.231229,100.953635c-3.931342,74.89584 5.083958,150.738757 28.872122,221.879079c23.221303,-15.486094 37.103565,-45.040839 32.317336,-72.924915c-0.275048,-3.704069 -0.37921,-7.418359 -0.6101,-11.125356c23.985808,33.87058 43.721128,72.191503 47.964669,114.0349c3.36092,32.043265 -2.211577,64.186357 -10.945972,94.942354c-12.758587,-17.279932 -26.9666,-35.257302 -47.946696,-42.707012c-1.875606,-0.625891 -3.818739,-1.045669 -5.77795,-1.309921c12.163302,55.160808 25.375631,110.268105 32.801857,166.30613c0.031007,4.169181 0.826291,9.128517 -1.848273,12.632662c-5.121856,5.315434 -13.242074,4.6877 -20.025641,5.329404c-29.931543,0.762479 -59.362546,-6.289607 -88.015894,-14.122025c-77.593832,-22.299773 -149.402767,-62.38394 -212.045728,-112.904421c-3.699705,-2.552257 -8.746798,-1.277334 -13.009518,-2.260959c-11.254898,-1.373343 -23.132702,-2.899081 -32.909464,-9.00795c-6.109845,-4.484997 1.070216,-11.5027 4.234813,-15.414001c20.118606,-23.55326 41.662463,-46.626629 58.802862,-72.548089c-7.380346,2.904904 -15.540299,4.048252 -23.93746,2.96078c-27.149774,-3.516037 -46.390237,-28.891502 -42.994118,-56.685484c3.396119,-27.793982 28.154013,-47.479138 55.303787,-43.963101c17.357738,2.247919 31.478528,13.421521 38.52606,28.459379c2.764371,-8.001701 6.544638,-15.6318 9.510328,-23.578577c26.823162,-64.23795 58.152107,-126.876174 98.872174,-183.514544c20.477661,-27.907389 43.835166,-54.430496 73.427351,-72.799306c11.798907,-7.128899 24.809803,-12.354945 38.472199,-14.588572z"
                  id="path5324"/>
            <path fill="#ffff00"
                  d="m433.548172,39.356383c-18.446558,45.0239 -33.520942,190.257658 13.58373,325.291058c10.467654,-5.233884 43.963216,-32.453683 37.682658,-77.464778c41.870787,64.899787 51.290849,115.151283 31.402158,189.471993c-32.449807,-43.964364 -56.523929,-39.78212 -56.523929,-39.78212c0,0 37.670829,163.291064 33.483676,178.992625c-4.187096,15.701561 -161.193577,4.190524 -314.022149,-119.328417c42.917633,3.140308 63.324838,-4.70136 63.324838,-4.70136c0,0 -89.498624,7.848042 -112.527565,-8.900285c-2.848091,-4.628068 40.027682,-43.407964 67.936392,-87.334046c10.794897,-6.011821 19.27928,-16.05055 23.309444,-28.423491c7.362373,26.11169 29.275851,46.563333 57.27764,50.189712c37.507581,4.857431 71.715223,-22.314743 76.406075,-60.704967c4.690852,-38.390225 -21.905439,-73.450721 -59.412962,-78.308152c-2.930318,-0.379485 -5.843353,-0.575917 -8.720901,-0.574212c-22.242558,0.013207 -42.523264,11.117265 -55.0884,28.728541c28.473102,-68.536684 110.630427,-246.909907 201.889297,-267.1521z"
                  id="path5326"/>
            <path fill="#ffd400"
                  d="m402.89961,186.641743c0,0 3.140078,86.867051 9.420693,102.568606c6.280558,15.701561 39.782034,126.671215 42.922342,207.272563c-23.029057,-40.824062 -39.788178,-102.591655 -38.74139,-132.948006c1.046788,-30.356351 -9.408577,-42.909956 -11.502154,-57.564746c-2.093577,-14.65479 -16.754298,-63.849564 -2.099491,-119.328417zm-74.521971,104.309186c0,0 28.849613,10.354609 32.550696,48.843902c3.700911,38.489288 -6.542226,64.530029 -49.57964,86.598337c-31.518378,16.161689 -65.137166,-6.65727 -65.137166,-6.65727c-8.993135,-2.40341 -30.955478,21.056064 -43.675995,48.108193c-2.220592,14.063398 34.044968,15.548551 54.029782,14.068192c19.9847,-1.480359 -33.304924,9.626921 -62.912152,5.185851c-29.607114,-4.441076 -36.260392,1.480026 -25.157603,-14.803901c11.102675,-16.283933 59.206418,-54.03514 54.765463,-94.744968c0.28814,-0.576359 0.627039,-1.169888 0.986898,-1.776468c9.348687,21.907747 29.383688,38.377116 54.227139,41.594477c37.507581,4.857431 71.715223,-22.314743 76.406075,-60.704967c3.18435,-26.061039 -8.051313,-50.587784 -27.32887,-65.173054c0.12024,-0.078914 0.825372,-0.538324 0.825372,-0.538324zm170.828049,48.502964c0.523509,16.748332 -9.940987,27.741614 -9.940987,27.741614c0,0 15.177455,-7.318015 25.121772,-14.122025c1.570125,13.084636 -16.762797,27.72959 -19.379653,29.823132c-2.616913,2.093537 17.80057,-3.660601 17.80057,-3.660601c0,0 -9.42655,5.754051 -11.520184,6.800823c-2.093462,1.046771 23.040254,0.538324 23.040254,0.538324l-27.221206,15.162784l25.642123,1.579083c0,0 -27.73547,2.099462 -31.922566,2.099462c-2.585791,0 10.193238,4.378601 20.348635,7.733917c-14.436779,-3.289884 -44.878222,-10.299926 -42.061024,-10.299926c3.663702,0 49.723193,-15.180728 49.723193,-15.180728l-53.383794,5.239684c0,0 38.726231,-18.31449 44.483509,-35.062816c-17.795115,13.608019 -50.243544,24.601392 -50.243544,24.601392c0,0 5.093891,-4.361042 11.286825,-11.7534c16.53116,-11.412054 27.426372,-28.041754 28.226076,-31.240718zm-29.051506,73.33763c26.754084,1.621442 41.020724,1.979521 46.206088,2.063574c3.716242,1.209417 6.388108,2.063574 6.388108,2.063574l-12.560886,0.52038l12.040535,4.719304c0,0 -0.005742,1.052777 -20.94082,-1.040759c10.467711,5.757238 14.654405,16.211743 15.701136,42.904398c-20.630114,-34.69609 -49.208871,-35.79009 -54.191251,-37.897987c15.787383,-0.575607 40.603559,4.133935 49.220758,28.549099c0,-25.645913 -17.787937,-37.17115 -41.863667,-41.881583zm-71.471412,54.31686c0.56468,3.872457 1.230766,7.518404 1.973796,10.981803c0.330459,3.49095 0.405968,7.197752 0.143553,11.05358c-0.588165,-7.117156 -1.206362,-14.519477 -2.117349,-22.035383zm-7.070042,1.363753c-5.676659,10.518948 -11.735399,12.560886 -11.735399,12.560886c0,0 10.987545,-3.134118 16.221487,-7.321202c-1.308457,6.542318 -8.89862,10.987723 -17.011028,13.081266c14.916418,-1.046771 16.741838,1.579083 16.741838,1.579083l-10.981803,0c0,0 8.103221,1.562505 10.981803,6.011281c-7.589072,-1.046771 -24.85528,-2.096545 -36.893117,0.52038c-3.663702,-7.589089 -1.309892,-9.941044 -1.309892,-9.941044c2.833506,-1.288021 27.475581,-5.622109 33.986111,-16.490649zm13.673479,26.359916c6.29922,18.524852 14.811912,31.521605 21.532947,47.031546c9.622299,22.205361 -5.934825,47.363607 -0.753711,51.804683c5.181229,4.44107 11.108359,6.662064 52.558364,20.725462c-142.854454,-8.882146 -239.074975,-85.849742 -279.784763,-111.755997c26.646419,6.661605 63.647775,-2.225071 63.647775,-2.225071c-17.024006,53.292862 87.35222,72.543747 96.234359,79.205358c8.88214,6.661611 32.559711,11.842989 39.96159,5.921561c7.401764,-5.921428 13.327861,-42.191427 8.146574,-56.254825c-2.230182,-6.05356 -3.489543,-13.895774 -4.450142,-22.80698c1.309663,-3.612896 2.283698,-7.524565 2.907005,-11.645736z"
                  id="path5328"/>
            <path fill="#ffff91"
                  d="m219.895502,358.0861c-3.183985,26.057878 -26.283799,44.524653 -51.59492,41.246731c-25.311121,-3.277922 -43.248764,-27.059263 -40.06478,-53.11714c3.183985,-26.057878 26.28389,-44.524726 51.595011,-41.246804c25.311121,3.277922 43.248673,27.059336 40.064688,53.117213z"
                  id="path5330"/>
            <path fill="#ffffff" id="path5332"
                  d="m203.09448,349.108923c-2.411775,19.738074 -19.909202,33.726112 -39.08163,31.243183c-19.172428,-2.48293 -32.759664,-20.496594 -30.347889,-40.234668c2.411775,-19.738074 19.909272,-33.726168 39.0817,-31.243238c19.172428,2.48293 32.759594,20.496649 30.34782,40.234724z"/>
            <path fill="#000000" id="path5336"
                  d="m189.111406,357.954121c-0.785834,6.431297 -6.487088,10.989074 -12.73408,10.180056c-6.246992,-0.809018 -10.674153,-6.678477 -9.88832,-13.109774c0.785834,-6.431297 6.487088,-10.989074 12.73408,-10.180056c6.246992,0.809018 10.674153,6.678477 9.88832,13.109774z"/>
            <path fill="#ffffff"
                  d="m179.341332,351.929673c-0.364292,2.981383 -3.007246,5.094251 -5.90319,4.719211c-2.895944,-0.37504 -4.948262,-3.095969 -4.583969,-6.077353c0.364292,-2.981383 3.007246,-5.094251 5.90319,-4.719211c2.895944,0.37504 4.948262,3.095969 4.583969,6.077353z"
                  id="path5338"/>
            <path fill="#ffff8b" id="path5340"
                  d="m223.493477,341.232751c-4.397855,35.992249 20.37827,68.840033 55.339069,73.367639c34.960799,4.527606 66.867358,-20.979475 71.265214,-56.971724c4.397855,-35.992249 -20.378368,-68.840163 -55.339167,-73.367769c-34.960799,-4.527606 -66.86726,20.979605 -71.265115,56.971854z"/>
            <path fill="#ffffff"
                  d="m230.464029,333.138719c-3.27815,26.828533 15.521671,51.356154 41.99061,54.78402c26.468939,3.427866 50.58377,-15.542084 53.86192,-42.370617c3.27815,-26.828533 -15.521745,-51.356251 -41.990685,-54.784117c-26.468939,-3.427866 -50.583695,15.542181 -53.861846,42.370714z"
                  id="path5342"/>
            <path fill="#000000"
                  d="m290.289271,356.780661c-0.785834,6.431297 -6.487088,10.989074 -12.73408,10.180056c-6.246992,-0.809018 -10.674153,-6.678477 -9.88832,-13.109774c0.785834,-6.431297 6.487088,-10.989074 12.73408,-10.180056c6.246992,0.809018 10.674153,6.678477 9.88832,13.109774z"
                  id="path5346"/>
            <path fill="#ffffff" id="path5348"
                  d="m280.519196,350.756213c-0.364292,2.981383 -3.007246,5.094251 -5.90319,4.719211c-2.895944,-0.37504 -4.948262,-3.095969 -4.583969,-6.077353c0.364292,-2.981383 3.007246,-5.094251 5.90319,-4.719211c2.895944,0.37504 4.948262,3.095969 4.583969,6.077353z"/>
            <path fill="#000000"
                  d="m104.678567,284.280463c4.44107,-2.960694 0,-28.866954 34.7884,-22.945566c-16.283961,-30.34733 -48.11161,-16.283904 -34.7884,22.945566z"
                  id="path5350"/>
            <path fill="#000000"
                  d="m331.173248,242.830458c0,0 18.504439,-23.685725 33.308024,-10.362516c14.803586,13.32321 -2.960694,39.969629 -2.960694,39.969629c0,0 2.960694,-28.866954 -30.34733,-29.607114z"
                  id="path5352"/>
            <path fill="#ffff91"
                  d="m379.285145,88.864218c-54.233685,64.427555 -100.684444,176.336895 -100.684444,176.336895c0,0 -11.519897,-1.041018 -20.94082,8.379905c57.572383,-123.518901 121.625264,-184.7168 121.625264,-184.7168zm109.710367,215.024424c0.740159,1.850444 -1.126661,41.090232 -31.473991,60.704967c-2.960694,-0.370085 -1.471418,-2.601898 -1.471418,-2.601898c0,0 32.945409,-28.125836 32.945409,-58.10307zm-380.82809,-128.103093c-14.131528,24.599124 -32.953678,52.345418 -56.506071,73.804177c-6.238296,5.683837 -11.526099,13.087122 -10.479368,18.320949c-14.65475,-3.140308 -9.42701,-10.47308 4.181009,-20.940791c13.607961,-10.467654 49.202727,-60.704967 49.202727,-60.704967l13.601703,-10.479368zm172.245606,66.447087c-6.288712,23.477367 -27.02827,21.939713 -29.356585,20.904903c23.734706,-6.941281 28.474653,-17.883676 29.356585,-20.904903z"
                  id="path5354"/>
            <path fill="#000000"
                  d="m322.563744,226.477696c0,0 41.384487,43.912656 53.258157,89.917999c11.129203,43.120847 -27.096429,86.979585 1.166397,142.458391c0.390694,0.766929 0.759625,1.542178 1.130451,2.314792c6.097499,-6.841557 11.928449,-15.492513 13.529926,-24.780834c15.543745,23.685714 17.773467,51.814082 10.371646,71.058726c-3.619487,-1.974324 -7.691282,-3.41613 -11.843121,-4.468087c5.739593,43.062719 -5.849727,82.542965 -5.849727,82.542965c0,0 9.80174,-35.802562 -4.809025,-72.081541c-1.794986,-4.456953 -3.476911,-8.710577 -5.114104,-12.88388c-8.116313,-0.580264 -14.211745,-0.143553 -14.211745,-0.143553c0,0 25.173738,-6.011155 38.86697,-0.089721c6.975928,-27.962605 -7.410894,-51.356079 -7.410894,-51.356079c0,0 -5.554409,16.660237 -25.875483,25.426822c-0.217799,0.123536 -0.42595,0.255507 -0.645988,0.376827c-0.009187,-0.028998 -0.009187,-0.060706 -0.017801,-0.089721c-1.103808,0.459588 -2.23713,0.900783 -3.427356,1.309921c0,0 1.210841,-0.864172 3.104362,-2.35068c-9.009443,-29.591047 -11.449384,-59.199039 -1.202228,-110.822902c12.254601,-61.737716 -41.020437,-136.339445 -41.020437,-136.339445zm170.092369,88.966961c2.616971,36.637018 -32.963325,67.003355 -32.963325,67.003355c0,0 32.448429,-10.993374 50.243544,-24.601392c-5.757278,16.748326 -44.483509,35.062816 -44.483509,35.062816l53.383794,-5.239684c0,0 -46.059491,15.180728 -49.723193,15.180728c-3.663702,0 49.723193,12.040506 49.723193,12.040506c0,0 -14.138993,-0.005972 -48.682434,-2.099462c24.07573,4.710433 41.863667,16.23567 41.863667,41.881583c-9.42098,-26.692701 -38.205593,-29.832176 -53.383794,-28.261993c1.570183,-24.599124 -9.941044,-49.202699 -9.941044,-52.343006c21.458817,-3.663702 40.822851,-34.547719 43.963101,-58.623449zm-256.439488,-52.325062c-10.467711,90.022248 34.530005,140.274319 49.184812,170.630664c14.654865,30.356368 1.058732,70.125632 1.058732,70.125632l-27.221206,-6.280443c0,0 20.929853,-33.505731 -14.660377,-101.545791c-35.590172,-68.040094 -8.361961,-132.930062 -8.361961,-132.930062z"
                  id="path5356"/>
            <path fill="#000000"
                  d="m383.273506,119.701906c0,0 -26.169249,62.80621 10.467711,158.062342c-7.327404,-69.086825 -10.467711,-158.062342 -10.467711,-158.062342z"
                  id="path5358"/>
            <path fill="#000000"
                  d="m387.583139,480.057689c0,0 -17.3942,6.29152 -28.496875,6.661611c-1.850455,3.330802 0.37008,5.921428 0.37008,5.921428l26.646477,-1.480359l-22.760555,-1.850444c0,0 18.874576,-5.736389 24.240873,-9.252237z"
                  id="path5360"/>
            <path fill="#ffffff" id="path5362"
                  d="m376.479512,276.140018c39.969629,75.498223 7.401879,163.583286 5.921503,171.725255c0,0 -11.107154,-28.128162 -2.225071,-62.176386c8.88214,-34.048218 5.185651,-74.760475 -3.696432,-109.54887zm-6.657298,231.67657c0,0 16.288612,28.86394 8.146632,65.872875c-11.842834,-25.906255 -13.327861,-49.588948 -8.146632,-65.872875z"/>
        </g>
    </g>
</svg>