<svg width="1032" height="732" xmlns="http://www.w3.org/2000/svg">

 <g>
  <title>background</title>
  <rect fill="none" id="canvas_background" height="734" width="1034" y="-1" x="-1"/>
 </g>
 <g>
  <title>Layer 1</title>
  <g id="svg_104">
   <polygon id="svg_101" fill="#79b8f7" points="987.62841796875,131.83038806915283 755.62841796875,227.82815265655518 523.62841796875,131.83038806915283 755.62841796875,35.83210277557373 "/>
   <polygon id="svg_102" fill="#007fff" points="755.62841796875,227.82815265655518 755.62841796875,507.83727741241455 523.62841796875,411.8326692581177 523.62841796875,131.83038806915283 "/>
   <polygon id="svg_103" fill="#164777" points="987.62841796875,131.83038806915283 987.62841796875,411.8326692581177 755.62841796875,507.83727741241455 755.62841796875,227.82815265655518 "/>
  </g>
  <polygon id="svg_80" fill="#79b8f7" points="988.0867919921875,414.2194490432739 756.0879516601562,510.22155475616455 524.0886840820312,414.2194490432739 756.0879516601562,318.2194490432739 "/>
  <g id="svg_88">
   <polygon id="svg_85" fill="#79b8f7" points="520.7803955078125,133.10840320587158 288.78057861328125,229.1067018508911 56.78057861328125,133.10840320587158 288.78057861328125,37.108431816101074 "/>
   <polygon id="svg_86" fill="#007fff" points="288.78057861328125,229.1067018508911 288.78057861328125,509.10925006866455 56.78057861328125,413.1047639846802 56.78057861328125,133.10840320587158 "/>
   <polygon id="svg_87" fill="#164777" points="520.7803955078125,133.10840320587158 520.7803955078125,413.1047639846802 288.78057861328125,509.10925006866455 288.78057861328125,229.1067018508911 "/>
  </g>
  <g id="svg_92">
   <polygon id="svg_89" fill="#79b8f7" points="754.2949829101562,229.39138507843018 522.2950439453125,325.38915729522705 290.2950439453125,229.39138507843018 522.2950439453125,133.3931016921997 "/>
   <polygon id="svg_90" fill="#007fff" points="522.2950439453125,325.38915729522705 522.2950439453125,605.3983125686646 290.2950439453125,509.39367389678955 290.2950439453125,229.39138507843018 "/>
   <polygon id="svg_91" fill="#164777" points="754.2949829101562,229.39138507843018 754.2949829101562,509.39367389678955 522.2950439453125,605.3983125686646 522.2950439453125,325.38915729522705 "/>
  </g>
  <g id="svg_96">
   <polygon id="svg_93" fill="#79b8f7" points="987.809814453125,327.0531892776489 755.808349609375,423.0539216995239 523.808349609375,327.0531892776489 755.808349609375,231.05538654327393 "/>
   <polygon id="svg_94" fill="#007fff" points="755.808349609375,423.0539216995239 755.808349609375,703.0640230178833 523.808349609375,607.0618257522583 523.808349609375,327.0531892776489 "/>
   <polygon id="svg_95" fill="#164777" points="987.809814453125,327.0531892776489 987.809814453125,607.0618257522583 755.808349609375,703.0640230178833 755.808349609375,423.0539216995239 "/>
  </g>
  <g id="svg_100">
   <polygon id="svg_97" fill="#79b8f7" points="521.885498046875,326.6327180862427 289.88525390625,422.6304597854614 57.878662109375,326.6327180862427 289.88525390625,230.63448810577393 "/>
   <polygon id="svg_98" fill="#007fff" points="289.88525390625,422.6304597854614 289.88525390625,702.6395235061646 57.878662109375,606.635006904602 57.878662109375,326.6327180862427 "/>
   <polygon id="svg_99" fill="#164777" points="521.885498046875,326.6327180862427 521.885498046875,606.635006904602 289.88525390625,702.6395235061646 289.88525390625,422.6304597854614 "/>
  </g>
 </g>
</svg>