<svg width="1412" height="1072" xmlns="http://www.w3.org/2000/svg">

 <g>
  <title>background</title>
  <rect fill="none" id="canvas_background" height="1074" width="1414" y="-1" x="-1"/>
 </g>
 <g>
  <title>Layer 1</title>
  <g id="svg_27">
   <polygon id="svg_24" fill="#79b8f7" points="955.5692749023438,504.35652804374695 723.5692749023438,600.3565585613251 491.56927490234375,504.35652804374695 723.5692749023438,408.3563449382782 "/>
   <polygon id="svg_25" fill="#007fff" points="723.5692749023438,600.3565585613251 723.5692749023438,880.3566806316376 491.56927490234375,784.3566195964813 491.56927490234375,504.35652804374695 "/>
   <polygon id="svg_26" fill="#164777" points="955.5692749023438,504.35652804374695 955.5692749023438,784.3566195964813 723.5692749023438,880.3566806316376 723.5692749023438,600.3565585613251 "/>
  </g>
  <g id="svg_19">
   <polygon id="svg_1" fill="#79b8f7" points="485.07169461250305,503.67364501953125 253.07178616523743,599.6737060546875 21.0717556476593,503.67364501953125 253.07178616523743,407.67352294921875 "/>
   <polygon id="svg_2" fill="#007fff" points="253.07178616523743,599.6737060546875 253.07178616523743,879.6737060546875 21.0717556476593,783.6737060546875 21.0717556476593,503.67364501953125 "/>
   <polygon id="svg_3" fill="#164777" points="485.07169461250305,503.67364501953125 485.07169461250305,783.6737060546875 253.07178616523743,879.6737060546875 253.07178616523743,599.6737060546875 "/>
  </g>
  <g id="svg_23">
   <polygon id="svg_20" fill="#79b8f7" points="719.97900390625,602.0069491863251 487.97906494140625,698.0069491863251 255.97906494140625,602.0069491863251 487.97906494140625,506.00691866874695 "/>
   <polygon id="svg_21" fill="#007fff" points="487.97906494140625,698.0069491863251 487.97906494140625,978.0069491863251 255.97906494140625,882.0069491863251 255.97906494140625,602.0069491863251 "/>
   <polygon id="svg_22" fill="#164777" points="719.97900390625,602.0069491863251 719.97900390625,882.0069491863251 487.97906494140625,978.0069491863251 487.97906494140625,698.0069491863251 "/>
  </g>
  <g id="svg_31">
   <polygon id="svg_28" fill="#79b8f7" points="719.296142578125,128.09491610527039 487.29620361328125,224.09491610527039 255.2962188720703,128.09491610527039 487.29620361328125,32.09490084648132 "/>
   <polygon id="svg_29" fill="#007fff" points="487.29620361328125,224.09491610527039 487.29620361328125,504.0951144695282 255.2962188720703,408.0949618816376 255.2962188720703,128.09491610527039 "/>
   <polygon id="svg_30" fill="#164777" points="719.296142578125,128.09491610527039 719.296142578125,408.0949618816376 487.29620361328125,504.0951144695282 487.29620361328125,224.09491610527039 "/>
  </g>
  <g id="svg_35">
   <polygon id="svg_32" fill="#79b8f7" points="1191.8428955078125,601.3235385417938 959.8414306640625,697.3235385417938 727.8414916992188,601.3235385417938 959.8414306640625,505.3236606121063 "/>
   <polygon id="svg_33" fill="#007fff" points="959.8414306640625,697.3235385417938 959.8414306640625,977.3236606121063 727.8414916992188,881.3235995769501 727.8414916992188,601.3235385417938 "/>
   <polygon id="svg_34" fill="#164777" points="1191.8428955078125,601.3235385417938 1191.8428955078125,881.3235995769501 959.8414306640625,977.3236606121063 959.8414306640625,697.3235385417938 "/>
  </g>
  <g id="svg_39">
   <polygon id="svg_36" fill="#79b8f7" points="956.2511596679688,698.9739291667938 724.2513427734375,794.9739291667938 492.2522888183594,698.9739291667938 724.2513427734375,602.9739291667938 "/>
   <polygon id="svg_37" fill="#007fff" points="724.2513427734375,794.9739291667938 724.2513427734375,1074.9743564128876 492.2522888183594,978.9739291667938 492.2522888183594,698.9739291667938 "/>
   <polygon id="svg_38" fill="#164777" points="956.2511596679688,698.9739291667938 956.2511596679688,978.9739291667938 724.2513427734375,1074.9743564128876 724.2513427734375,794.9739291667938 "/>
  </g>
  <g id="svg_43">
   <polygon id="svg_40" fill="#79b8f7" points="955.5692050457001,224.3795928955078 723.5692660808563,320.3796081542969 491.5692660808563,224.3795928955078 723.5692660808563,128.3795928955078 "/>
   <polygon id="svg_41" fill="#007fff" points="723.5692660808563,320.3796081542969 723.5692660808563,600.3798217773438 491.5692660808563,504.3796691894531 491.5692660808563,224.3795928955078 "/>
   <polygon id="svg_42" fill="#164777" points="955.5692050457001,224.3795928955078 955.5692050457001,504.3796691894531 723.5692660808563,600.3798217773438 723.5692660808563,320.3796081542969 "/>
  </g>
  <g id="svg_47">
   <polygon id="svg_44" fill="#79b8f7" points="1191.842660188675,320.664306640625 959.8411953449249,416.6643371582031 727.8411953449249,320.664306640625 959.8411953449249,224.66433715820312 "/>
   <polygon id="svg_45" fill="#007fff" points="959.8411953449249,416.6643371582031 959.8411953449249,696.6641235351562 727.8411953449249,600.6640014648438 727.8411953449249,320.664306640625 "/>
   <polygon id="svg_46" fill="#164777" points="1191.842660188675,320.664306640625 1191.842660188675,600.6640014648438 959.8411953449249,696.6641235351562 959.8411953449249,416.6643371582031 "/>
  </g>
 </g>
</svg>