<?xml version="1.0" ?>
<svg height="20" version="1.1" viewBox="0 0 20 20" width="20" xmlns="http://www.w3.org/2000/svg">
    <g id="layer1">
        <path d="M 11.964844 1.5 A 0.50083746 0.50083746 0 0 0 11.757812 1.5605469 L 1.7578125 7.0605469 A 0.50083746 0.50083746 0 0 0 1.5 7.5 L 1.5 14.5 A 0.50083746 0.50083746 0 0 0 1.7480469 14.931641 L 7.7480469 18.431641 A 0.50083746 0.50083746 0 0 0 8.2421875 18.439453 L 18.242188 12.939453 A 0.50083746 0.50083746 0 0 0 18.5 12.5 L 18.5 5.5 A 0.50083746 0.50083746 0 0 0 18.251953 5.0683594 L 12.251953 1.5683594 A 0.50083746 0.50083746 0 0 0 11.964844 1.5 z M 11.992188 2.5761719 L 16.986328 5.4882812 L 8.0078125 10.425781 L 3.015625 7.5136719 L 11.992188 2.5761719 z M 17.5 6.34375 L 17.5 12.203125 L 8.5 17.152344 L 8.5 11.294922 L 17.5 6.34375 z M 2.5 8.3710938 L 7.5 11.287109 L 7.5 17.128906 L 2.5 14.212891 L 2.5 8.3710938 z "
              style="fill:#222222; fill-opacity:1; stroke:none; stroke-width:0px;"/>
    </g>
</svg>
