<?xml version="1.0" ?><svg height="58px" version="1.1" viewBox="0 0 51 58" width="51px" xmlns="http://www.w3.org/2000/svg" xmlns:xlink="http://www.w3.org/1999/xlink"><title/><desc/><defs/><g fill="none" fill-rule="evenodd" id="Page-1" stroke="none" stroke-width="1"><g id="018---Candle"><rect fill="#935847" fill-rule="nonzero" height="6.41667" id="Rectangle-path" width="12" x="16" y="37.66667"/><path d="M40,51 C39.7347624,51.000069 39.4803684,50.8947343 39.292817,50.707183 C39.1052657,50.5196316 38.999931,50.2652376 39,50 L39,39 C39,35.6862915 41.6862915,33 45,33 C48.3137085,33 51,35.6862915 51,39 L51,46 C51,46.5522847 50.5522847,47 50,47 C49.4477153,47 49,46.5522847 49,46 L49,39 C49,36.790861 47.209139,35 45,35 C42.790861,35 41,36.790861 41,39 L41,50 C41.000069,50.2652376 40.8947343,50.5196316 40.707183,50.707183 C40.5196316,50.8947343 40.2652376,51.000069 40,51 Z" fill="#919D9E" fill-rule="nonzero" id="Shape"/><path d="M16.00182,43 L28.00182,43 C28.5541047,43 29.00182,43.4477153 29.00182,44 L29.00182,51 L15.00182,51 L15.00182,44 C15.00182,43.7347835 15.1071768,43.4804296 15.2947132,43.2928932 C15.4822496,43.1053568 15.7366035,43 16.00182,43 Z" fill="#C9CED1" fill-rule="nonzero" id="Shape"/><path d="M39.00182,58 L5.00182,58 C4.37230539,58 3.77952876,57.7036117 3.40182,57.2 L0.40182,53.2 C-0.0527064701,52.5939647 -0.12581841,51.7831409 0.212965618,51.1055728 C0.551749646,50.4280048 1.24427588,50 2.00182,50 L41.00182,50 L41.00182,56 C41.00182,57.1045695 40.1063895,58 39.00182,58 Z" fill="#A5B4B4" id="Shape"/><path d="M28,16 L28,39 L16,39 L16,16 C16.0016474,15.4483991 16.4483991,15.0016474 17,15 L27,15 C27.5516009,15.0016474 27.9983526,15.4483991 28,16 L28,16 Z" fill="#D78469" id="Shape"/><path d="M27.00182,9.5 C27.1331916,12.3970821 24.8982764,14.8554888 22.00182,15 C19.105361,14.8554942 16.8704428,12.3970841 17.00182,9.5 C17.00182,6.46243 22.00182,3.55271368e-15 22.00182,3.55271368e-15 C22.00182,3.55271368e-15 27.00182,6.46243 27.00182,9.5 Z" fill="#F6AB27" id="Shape"/><path d="M21.00182,18 L21.00182,22 C21.00182,23.1045695 21.8972505,24 23.00182,24 L23.00182,24 C24.1063895,24 25.00182,23.1045695 25.00182,22 L25.00182,18" fill="#935847" id="Shape"/><path d="M19,28 L19,34 C19.0001433,34.5304769 18.7894756,35.039268 18.4143718,35.4143718 C18.039268,35.7894756 17.5304769,36.0001433 17,36 L16,36 L16,28 L19,28 Z" fill="#935847" id="Shape"/><polygon fill="#919D9E" id="Shape" points="34 50 26 58 22 58 30 50"/><polygon fill="#919D9E" id="Shape" points="23 50 15 58 11 58 19 50"/></g></g></svg>