<svg xmlns="http://www.w3.org/2000/svg" viewBox="0 0 701 561">
    <defs>
        <style>
            .cls-1, .cls-2 {
            fill: none;
            stroke-miterlimit: 10;
            }

            .cls-1 {
            stroke: #3fa9f5;
            }

            .cls-2 {
            stroke: orange;
            stroke-width: 5px;
            }
        </style>
    </defs>
    <title>shape3</title>
    <g id="grid">
        <rect class="cls-1" x="0.5" y="0.5" width="140" height="140"/>
        <rect class="cls-1" x="140.5" y="0.5" width="140" height="140"/>
        <rect class="cls-1" x="280.5" y="0.5" width="140" height="140"/>
        <rect class="cls-1" x="420.5" y="0.5" width="140" height="140"/>
        <rect class="cls-1" x="560.5" y="0.5" width="140" height="140"/>
        <rect class="cls-1" x="0.5" y="140.5" width="140" height="140"/>
        <rect class="cls-1" x="140.5" y="140.5" width="140" height="140"/>
        <rect class="cls-1" x="280.5" y="140.5" width="140" height="140"/>
        <rect class="cls-1" x="420.5" y="140.5" width="140" height="140"/>
        <rect class="cls-1" x="560.5" y="140.5" width="140" height="140"/>
        <rect class="cls-1" x="0.5" y="280.5" width="140" height="140"/>
        <rect class="cls-1" x="140.5" y="280.5" width="140" height="140"/>
        <rect class="cls-1" x="280.5" y="280.5" width="140" height="140"/>
        <rect class="cls-1" x="420.5" y="280.5" width="140" height="140"/>
        <rect class="cls-1" x="560.5" y="280.5" width="140" height="140"/>
        <rect class="cls-1" x="0.5" y="420.5" width="140" height="140"/>
        <rect class="cls-1" x="140.5" y="420.5" width="140" height="140"/>
        <rect class="cls-1" x="280.5" y="420.5" width="140" height="140"/>
        <rect class="cls-1" x="420.5" y="420.5" width="140" height="140"/>
        <rect class="cls-1" x="560.5" y="420.5" width="140" height="140"/>
    </g>
    <g id="shape3">
        <line class="cls-2" x1="280" y1="141" x2="140" y2="281"/>
        <line class="cls-2" x1="140" y1="421" x2="140" y2="281"/>
        <line class="cls-2" x1="560" y1="421" x2="140" y2="421"/>
        <line class="cls-2" x1="280" y1="141" x2="280" y2="421"/>
        <line class="cls-2" x1="140" y1="281" x2="420" y2="281"/>
        <line class="cls-2" x1="560" y1="421" x2="420" y2="281"/>
        <line class="cls-2" x1="420" y1="421" x2="420" y2="281"/>
    </g>
</svg>
