<svg width="1440" height="1024" viewBox="0 0 1440 1024" fill="none" xmlns="http://www.w3.org/2000/svg">
    <g clip-path="url(#clip0)">
        <rect width="1440" height="1024" fill="#67BEE9"/>
        <g clip-path="url(#clip1)">
            <path d="M1175 215C1174.73 195.132 1158.68 178.755 1138.62 178.755C1137.55 178.755 1136.48 178.755 1135.41 179.023C1133.8 166.942 1123.37 157.545 1110.8 157.545C1104.65 157.545 1099.03 159.693 1094.75 163.451C1086.19 155.934 1075.22 151.638 1062.92 151.638C1060.24 151.638 1057.83 151.907 1055.43 152.175C1051.41 148.416 1046.06 146 1040.18 146C1028.68 146 1019.31 155.128 1018.78 166.405C1005.94 169.895 995.773 180.366 993.366 193.79C983.736 194.327 974.641 197.549 967.15 202.65C962.603 195.132 954.31 190.3 944.948 190.3C931.038 190.3 919.803 201.307 919 215H1175Z"
                  fill="#E5F4FB"/>
        </g>
        <path d="M307 270C306.39 260.2 298.25 252.2 288.076 252.2C288.076 251.6 288.076 251.2 288.076 250.6C287.873 230.4 271.187 214 250.635 214C240.665 214 231.508 218 224.793 224.2C219.91 219 212.991 215.6 205.055 215.6C192.847 215.6 182.672 223.8 179.417 234.8C177.789 234.6 176.161 234.4 174.33 234.4C164.766 234.4 156.016 239 150.929 246.2C149.505 246 147.877 245.8 146.249 245.8C132.412 245.8 121.017 256.4 120 270H307Z"
              fill="#7FD0ED"/>
        <path d="M636 214C635.39 204.2 627.25 196.2 617.076 196.2C617.076 195.6 617.076 195.2 617.076 194.6C616.873 174.4 600.187 158 579.635 158C569.665 158 560.508 162 553.793 168.2C548.91 163 541.991 159.6 534.055 159.6C521.847 159.6 511.672 167.8 508.417 178.8C506.789 178.6 505.161 178.4 503.33 178.4C493.766 178.4 485.016 183 479.929 190.2C478.505 190 476.877 189.8 475.249 189.8C461.412 189.8 450.017 200.4 449 214H636Z"
              fill="#7FD0ED"/>
        <path d="M793 1028C792.39 1018.2 784.25 1010.2 774.076 1010.2C774.076 1009.6 774.076 1009.2 774.076 1008.6C773.873 988.4 757.187 972 736.635 972C726.665 972 717.508 976 710.793 982.2C705.91 977 698.991 973.6 691.055 973.6C678.847 973.6 668.672 981.8 665.417 992.8C663.789 992.6 662.161 992.4 660.33 992.4C650.766 992.4 642.016 997 636.929 1004.2C635.505 1004 633.877 1003.8 632.249 1003.8C618.412 1003.8 607.017 1014.4 606 1028H793Z"
              fill="#7FD0ED"/>
        <path d="M1153 996C1152.39 986.2 1144.25 978.2 1134.08 978.2C1134.08 977.6 1134.08 977.2 1134.08 976.6C1133.87 956.4 1117.19 940 1096.64 940C1086.66 940 1077.51 944 1070.79 950.2C1065.91 945 1058.99 941.6 1051.06 941.6C1038.85 941.6 1028.67 949.8 1025.42 960.8C1023.79 960.6 1022.16 960.4 1020.33 960.4C1010.77 960.4 1002.02 965 996.929 972.2C995.505 972 993.877 971.8 992.249 971.8C978.412 971.8 967.017 982.4 966 996H1153Z"
              fill="#7FD0ED"/>
        <path d="M1412 316C1411.39 306.2 1403.25 298.2 1393.08 298.2C1393.08 297.6 1393.08 297.2 1393.08 296.6C1392.87 276.4 1376.19 260 1355.64 260C1345.66 260 1336.51 264 1329.79 270.2C1324.91 265 1317.99 261.6 1310.06 261.6C1297.85 261.6 1287.67 269.8 1284.42 280.8C1282.79 280.6 1281.16 280.4 1279.33 280.4C1269.77 280.4 1261.02 285 1255.93 292.2C1254.5 292 1252.88 291.8 1251.25 291.8C1237.41 291.8 1226.02 302.4 1225 316H1412Z"
              fill="#7FD0ED"/>
        <g clip-path="url(#clip2)">
            <path d="M1397.84 764C1397.84 763.524 1397.84 763.047 1397.84 762.571C1397.84 753.518 1390.5 746.213 1381.4 746.213C1376.29 746.213 1371.66 748.595 1368.63 752.248C1363.84 748.277 1358.1 745.419 1351.87 744.148C1346.13 718.897 1324.42 699.839 1297.93 697.775C1297.93 697.616 1297.93 697.298 1297.93 697.14C1297.93 683.799 1287.07 673 1273.66 673C1260.26 673 1249.4 683.799 1249.4 697.14C1249.4 702.539 1251.32 707.621 1254.35 711.592C1247.49 717.468 1241.9 724.773 1238.07 733.031C1233.76 731.602 1229.29 730.808 1224.5 730.808C1208.86 730.808 1195.3 738.908 1187.64 751.295C1184.12 749.23 1179.97 748.119 1175.66 748.119C1165.29 748.119 1156.35 754.789 1153 764H1397.84Z"
                  fill="#E5F4FB"/>
        </g>
        <path d="M245 844C244.39 834.2 236.25 826.2 226.076 826.2C226.076 825.6 226.076 825.2 226.076 824.6C225.873 804.4 209.187 788 188.635 788C178.665 788 169.508 792 162.793 798.2C157.91 793 150.991 789.6 143.055 789.6C130.847 789.6 120.672 797.8 117.417 808.8C115.789 808.6 114.161 808.4 112.33 808.4C102.766 808.4 94.0163 813 88.9293 820.2C87.5049 820 85.877 819.8 84.2492 819.8C70.4124 819.8 59.0174 830.4 58 844H245Z"
              fill="#7FD0ED"/>
        <path d="M420 1148C482.408 1148 533 1097.41 533 1035C533 972.592 482.408 922 420 922C357.592 922 307 972.592 307 1035C307 1097.41 357.592 1148 420 1148Z"
              fill="#FFC112"/>
        <path d="M420 1111.94C462.494 1111.94 496.942 1077.49 496.942 1035C496.942 992.507 462.494 958.059 420 958.059C377.507 958.059 343.059 992.507 343.059 1035C343.059 1077.49 377.507 1111.94 420 1111.94Z"
              fill="#FFA510"/>
        <path d="M1534 701C1533.39 691.2 1525.25 683.2 1515.08 683.2C1515.08 682.6 1515.08 682.2 1515.08 681.6C1514.87 661.4 1498.19 645 1477.64 645C1467.66 645 1458.51 649 1451.79 655.2C1446.91 650 1439.99 646.6 1432.06 646.6C1419.85 646.6 1409.67 654.8 1406.42 665.8C1404.79 665.6 1403.16 665.4 1401.33 665.4C1391.77 665.4 1383.02 670 1377.93 677.2C1376.5 677 1374.88 676.8 1373.25 676.8C1359.41 676.8 1348.02 687.4 1347 701H1534Z"
              fill="#7FD0ED"/>
        <g clip-path="url(#clip3)">
            <path d="M1341 1024C1340.73 1004.13 1324.68 987.755 1304.62 987.755C1303.55 987.755 1302.48 987.755 1301.41 988.023C1299.8 975.942 1289.37 966.545 1276.8 966.545C1270.65 966.545 1265.03 968.693 1260.75 972.451C1252.19 964.934 1241.22 960.638 1228.92 960.638C1226.24 960.638 1223.83 960.907 1221.43 961.175C1217.41 957.416 1212.06 955 1206.18 955C1194.68 955 1185.31 964.128 1184.78 975.405C1171.94 978.895 1161.77 989.366 1159.37 1002.79C1149.74 1003.33 1140.64 1006.55 1133.15 1011.65C1128.6 1004.13 1120.31 999.3 1110.95 999.3C1097.04 999.3 1085.8 1010.31 1085 1024H1341Z"
                  fill="#E5F4FB"/>
        </g>
        <g clip-path="url(#clip4)">
            <path d="M1559 361C1558.73 341.132 1542.68 324.755 1522.62 324.755C1521.55 324.755 1520.48 324.755 1519.41 325.023C1517.8 312.942 1507.37 303.545 1494.8 303.545C1488.65 303.545 1483.03 305.693 1478.75 309.451C1470.19 301.934 1459.22 297.638 1446.92 297.638C1444.24 297.638 1441.83 297.907 1439.43 298.175C1435.41 294.416 1430.06 292 1424.18 292C1412.68 292 1403.31 301.128 1402.78 312.405C1389.94 315.895 1379.77 326.366 1377.37 339.79C1367.74 340.327 1358.64 343.549 1351.15 348.65C1346.6 341.132 1338.31 336.3 1328.95 336.3C1315.04 336.3 1303.8 347.307 1303 361H1559Z"
                  fill="#E5F4FB"/>
        </g>
        <g clip-path="url(#clip5)">
            <path d="M89 662C88.7325 642.132 72.6823 625.755 52.6196 625.755C51.5496 625.755 50.4796 625.755 49.4096 626.023C47.8046 613.942 37.372 604.545 24.7994 604.545C18.6468 604.545 13.0293 606.693 8.74921 610.451C0.189133 602.934 -10.7785 598.638 -23.0836 598.638C-25.7586 598.638 -28.1661 598.907 -30.5737 599.175C-34.5862 595.416 -39.9363 593 -45.8213 593C-57.3239 593 -66.6865 602.128 -67.2215 613.405C-80.0617 616.895 -90.2268 627.366 -92.6343 640.79C-102.264 641.327 -111.359 644.549 -118.85 649.65C-123.397 642.132 -131.69 637.3 -141.052 637.3C-154.962 637.3 -166.197 648.307 -167 662H89Z"
                  fill="#E5F4FB"/>
        </g>
        <g clip-path="url(#clip6)">
            <path d="M1266.9 907.241C1268.56 897.489 1255.69 890.92 1251.28 896.658C1246.08 903.445 1258.3 901.782 1266.9 907.241Z"
                  fill="#2BA537"/>
            <path d="M1419.27 876.861C1414.45 867.962 1404.55 870.79 1404.28 875.737C1404.02 880.678 1417.29 874.204 1419.27 876.861Z"
                  fill="#2BA537"/>
            <path d="M1461 891.812C1453.7 891.812 1424.14 893.196 1422.17 892.501C1420.2 891.812 1421.85 885.584 1423.16 881.08C1424.46 876.575 1412.73 861.999 1410.64 856.97C1412.99 864.922 1420.65 876.575 1417.79 882.674C1414.92 888.766 1411.95 893.536 1408.04 895.124C1404.13 896.712 1292.99 891.485 1258.31 910.702C1280.72 903.165 1351.95 900.855 1380.85 908.733C1386.59 912.174 1366.74 931.112 1366.74 931.112C1378.47 921.571 1386.41 912.903 1393.72 911.575C1401.01 910.253 1461 918.525 1461 918.525"
                  fill="#BC532E"/>
            <path d="M1287.24 902.293C1278.52 903.908 1274.45 915.745 1273.41 922.812C1275.5 915.923 1285.35 905.701 1292.41 902.512"
                  fill="#BC532E"/>
            <path d="M1264.83 907.507C1250.85 900.774 1228.8 911.5 1235.1 923.473C1241.42 935.446 1260.87 908.508 1264.83 907.507Z"
                  fill="#2BA537"/>
            <path d="M1379.55 917.831C1378.06 922.846 1389.77 929.838 1382.76 939.446C1375.76 949.062 1370.04 927.65 1379.55 917.831Z"
                  fill="#2BA537"/>
            <path d="M1266.01 907.725C1256.69 913.864 1254.78 928.202 1264.48 926.655C1274.19 925.102 1261.67 915.575 1266.01 907.725Z"
                  fill="#2BA537"/>
            <path d="M1411.77 859.546C1410.89 857.236 1424.18 848.425 1419.06 844.193C1413.93 839.961 1407.48 847.518 1411.04 858.333C1408.34 853.249 1402.1 843.443 1395.85 848.07C1388.16 853.767 1408.43 856.97 1410.28 859.014C1401.26 857.406 1398.08 866.081 1402.95 866.612C1407.18 867.076 1407.72 859.341 1411.77 859.546Z"
                  fill="#2BA537"/>
            <path d="M1422.06 882.19C1423.61 876.194 1436.9 867.955 1440.31 874.517C1444.74 883.015 1423.88 879.792 1422.06 882.19Z"
                  fill="#2BA537"/>
            <path d="M1372.87 924.754C1360.52 927.337 1347.65 940.203 1357.4 947.481C1367.14 954.759 1366.98 933.988 1372.87 924.754Z"
                  fill="#2BA537"/>
            <path d="M1378.33 918.573C1372.52 920.604 1362.59 913.074 1360.26 918.88C1357.24 926.424 1372.8 926.499 1378.33 918.573Z"
                  fill="#2BA537"/>
            <path d="M1277.25 914.982C1277.54 913.469 1284.45 918.669 1282.03 923.527C1279.61 928.379 1275.95 921.756 1277.25 914.982Z"
                  fill="#2BA537"/>
            <path d="M1274.46 919.132C1273.18 924.979 1280.58 931.541 1274.79 936.209C1268.99 940.884 1267.45 927.18 1274.46 919.132Z"
                  fill="#2BA537"/>
            <path d="M1459.92 892.957C1461.5 893.686 1459.27 900.331 1459.27 900.331L1419.6 901.332C1419.6 901.332 1460.41 902.395 1460.74 906.348C1460.8 907.125 1448.13 909.966 1444.48 910.007C1429.54 910.178 1401.52 903.711 1393.77 904.556C1388.29 905.155 1377.09 921.374 1375.68 921.79C1374.26 922.205 1385.17 909.667 1383.67 904.331C1381.38 900.855 1293.31 898.613 1268.83 906.348C1290.51 896.201 1406.08 895.417 1408.68 894.593C1411.28 893.775 1418.55 885.461 1418.9 880.166C1419.24 874.865 1414.95 865.154 1414.95 865.154C1414.95 865.154 1422.21 876.337 1421.46 880.316C1420.71 884.296 1417.5 892.876 1418.14 893.543C1419.64 895.097 1456.83 891.54 1459.92 892.957Z"
                  fill="#DD713A"/>
            <path d="M1459.47 915.5C1459.47 915.5 1398.76 906.757 1393.8 906.975C1388.84 907.193 1385.02 914.151 1385.02 914.151C1385.02 914.151 1389.5 910.607 1394.55 910.116C1399.59 909.619 1459.47 915.5 1459.47 915.5Z"
                  fill="#A83F2D"/>
            <path d="M1284.81 904.242C1281.04 903.452 1276.32 910.907 1275 916.631C1277.95 910.914 1287.98 904.903 1284.81 904.242Z"
                  fill="#DD713A"/>
            <path d="M1389.44 896.474C1398.19 896.031 1408.78 899.118 1389.47 899.322C1348.65 899.765 1353.45 898.3 1389.44 896.474Z"
                  fill="#F98E5F"/>
            <path d="M1259.88 907.241C1249.29 901.619 1231.79 911.629 1235.7 920.141C1238.58 926.417 1250.56 919.153 1256.74 909.49C1252.73 909.49 1244.91 912.209 1241.67 914.709C1244.77 909.524 1255.35 907.241 1259.88 907.241Z"
                  fill="#3AC144"/>
            <path d="M1265.77 902.498C1267.48 899.683 1257.22 892.003 1252.26 895.683C1247.31 899.356 1258.77 904.072 1264.06 904.235C1262.27 900.596 1257.47 897.509 1257.47 897.509C1261.78 898.688 1265.77 902.498 1265.77 902.498Z"
                  fill="#3AC144"/>
            <path d="M1263.34 913.428C1266.17 915.227 1268.77 925.919 1262.02 925.824C1255.27 925.729 1258.37 915.527 1260.97 913.231C1261.53 913.496 1259.99 916.147 1261.7 921.892C1261.7 918.124 1263.34 913.428 1263.34 913.428Z"
                  fill="#3AC144"/>
            <path d="M1279.76 916.897C1282.86 917.714 1284.32 922.328 1280.74 924.004C1277.17 925.674 1276.85 919.52 1278.29 917.721C1279.68 918.219 1280.74 922.103 1280.74 922.103C1281.07 919.459 1279.76 916.897 1279.76 916.897Z"
                  fill="#3AC144"/>
            <path d="M1272.29 924.291C1268.47 926.614 1268.92 936.243 1273.41 935.828C1277.9 935.412 1277.81 926.642 1273.83 924.291C1272.45 925.906 1272.37 931.698 1272.37 931.698C1271.39 928.965 1272.29 924.291 1272.29 924.291Z"
                  fill="#3AC144"/>
            <path d="M1379.09 924.781C1382.75 924.42 1386.82 935.753 1380.06 939.719C1373.31 943.685 1373.71 928.809 1375.26 925.831C1376.57 925.17 1379 935.078 1379 935.078C1378.36 929.545 1378.03 925.224 1379.09 924.781Z"
                  fill="#3AC144"/>
            <path d="M1365.42 928.066C1358.27 929.456 1350.97 939.214 1356.16 944.673C1361.35 950.131 1370.27 938.022 1367.44 929.899C1362.9 932.352 1359.65 939.385 1359.65 939.385C1359.48 934.424 1365.42 928.066 1365.42 928.066Z"
                  fill="#3AC144"/>
            <path d="M1370.71 921.94C1365.42 926.567 1358.72 924.338 1359.35 919.957C1359.98 915.575 1367.89 916.604 1370.71 919.957C1366.56 921.442 1361.68 921.067 1361.68 921.067C1364.04 922.764 1370.71 921.94 1370.71 921.94Z"
                  fill="#3AC144"/>
            <path d="M1407.37 854.748C1408.75 850.319 1399.22 844.458 1395.85 848.07C1393.14 850.98 1399.81 855.3 1405.96 856.036C1405.38 854.053 1401.61 850.626 1399.41 849.815C1403.07 849.883 1407.37 854.748 1407.37 854.748Z"
                  fill="#3AC144"/>
            <path d="M1416.67 843.525C1412.15 842.836 1408.56 847.961 1410.91 854.408C1412.21 848.622 1415.45 846.06 1415.45 846.06C1413.2 849.201 1412.45 854.816 1412.45 854.816C1417.45 853.978 1422.47 844.411 1416.67 843.525Z"
                  fill="#3AC144"/>
            <path d="M1406.96 859.205C1404.38 858.578 1398.76 863.702 1401.48 865.754C1404.18 867.805 1408.12 861.726 1407.62 860.534C1407.12 859.341 1404 861.719 1403.29 863.45C1402.98 861.386 1406.96 859.205 1406.96 859.205Z"
                  fill="#3AC144"/>
            <path d="M1415.38 873.209C1411.25 869.515 1404.07 870.858 1404.86 875.062C1405.65 879.267 1413.23 876.309 1414.72 875.403C1413.94 874.374 1409.77 872.793 1407.66 873.924C1409.67 871.996 1415.38 873.209 1415.38 873.209Z"
                  fill="#3AC144"/>
            <path d="M1425.76 877.959C1426.32 873.243 1437.82 869.475 1440.31 874.511C1442.81 879.546 1430.41 881.686 1426.66 879.083C1430.13 876.364 1436.27 875.117 1436.61 875.117C1433.2 874.327 1425.76 877.959 1425.76 877.959Z"
                  fill="#3AC144"/>
            <path d="M1241.99 915.146C1245.84 913.04 1246.98 915.548 1243.62 918.212C1240.25 920.877 1236.35 918.233 1241.99 915.146Z"
                  fill="#5FE065"/>
            <path d="M1253.16 895.711C1256.96 893.98 1259.26 897.741 1255.76 898.777C1252.27 899.813 1248.28 897.932 1253.16 895.711Z"
                  fill="#5FE065"/>
            <path d="M1355.87 938.778C1356.76 932.877 1360 933.599 1359.14 937.163C1358.27 940.72 1355.3 942.519 1355.87 938.778Z"
                  fill="#5FE065"/>
        </g>
        <g clip-path="url(#clip7)">
            <path d="M170.104 367.241C168.441 357.489 181.314 350.92 185.717 356.658C190.921 363.445 178.705 361.782 170.104 367.241Z"
                  fill="#2BA537"/>
            <path d="M17.731 336.861C22.5487 327.962 32.4534 330.79 32.7157 335.737C32.9779 340.678 19.7119 334.204 17.731 336.861Z"
                  fill="#2BA537"/>
            <path d="M-24 351.812C-16.6975 351.812 12.8647 353.196 14.8319 352.501C16.799 351.812 15.1494 345.584 13.8448 341.08C12.5403 336.575 24.2741 321.999 26.3585 316.97C24.0118 324.922 16.3503 336.575 19.2148 342.674C22.0792 348.766 25.054 353.536 28.9607 355.124C32.8742 356.712 144.014 351.485 178.69 370.702C156.279 363.165 85.0481 360.855 56.1485 368.733C50.4128 372.174 70.2635 391.112 70.2635 391.112C58.5298 381.571 50.5853 372.903 43.2828 371.575C35.9871 370.253 -24 378.525 -24 378.525"
                  fill="#BC532E"/>
            <path d="M149.757 362.293C158.481 363.908 162.546 375.745 163.589 382.812C161.504 375.922 151.648 365.701 144.587 362.511"
                  fill="#BC532E"/>
            <path d="M172.168 367.506C186.152 360.774 208.204 371.5 201.896 383.473C195.58 395.446 176.13 368.508 172.168 367.506Z"
                  fill="#2BA537"/>
            <path d="M57.4462 377.83C58.9439 382.846 47.2309 389.838 54.2366 399.446C61.2355 409.061 66.9643 387.65 57.4462 377.83Z"
                  fill="#2BA537"/>
            <path d="M170.994 367.724C180.305 373.864 182.224 388.202 172.519 386.655C162.808 385.101 175.329 375.575 170.994 367.724Z"
                  fill="#2BA537"/>
            <path d="M25.2266 319.546C26.1101 317.236 12.8164 308.424 17.9447 304.193C23.0731 299.961 29.5198 307.518 25.9651 318.333C28.6639 313.249 34.9035 303.443 41.15 308.07C48.8391 313.767 28.5742 316.97 26.7244 319.014C35.7387 317.406 38.9206 326.081 34.0476 326.612C29.8235 327.076 29.2851 319.341 25.2266 319.546Z"
                  fill="#2BA537"/>
            <path d="M14.9422 342.19C13.3892 336.194 0.102449 327.955 -3.31415 334.517C-7.74537 343.015 13.12 339.792 14.9422 342.19Z"
                  fill="#2BA537"/>
            <path d="M64.1343 384.754C76.4754 387.337 89.348 400.202 79.6021 407.48C69.8562 414.758 70.015 393.988 64.1343 384.754Z"
                  fill="#2BA537"/>
            <path d="M58.668 378.573C64.4796 380.604 74.4119 373.074 76.7379 378.88C79.7611 386.423 64.2035 386.498 58.668 378.573Z"
                  fill="#2BA537"/>
            <path d="M159.751 374.982C159.461 373.469 152.545 378.668 154.968 383.527C157.391 388.379 161.049 381.755 159.751 374.982Z"
                  fill="#2BA537"/>
            <path d="M162.539 379.132C163.823 384.979 156.423 391.541 162.214 396.209C168.006 400.884 169.552 387.18 162.539 379.132Z"
                  fill="#2BA537"/>
            <path d="M-22.9231 352.957C-24.5037 353.686 -22.2674 360.331 -22.2674 360.331L17.3996 361.332C17.3996 361.332 -23.4132 362.395 -23.7376 366.348C-23.7997 367.125 -11.1341 369.966 -7.48285 370.007C7.46044 370.178 35.4834 363.711 43.2346 364.556C48.715 365.155 59.9104 381.374 61.3253 381.79C62.7403 382.205 51.8279 369.667 53.3257 364.331C55.6241 360.855 143.689 358.613 168.172 366.348C146.492 356.201 30.9211 355.417 28.3189 354.593C25.7168 353.775 18.4488 345.461 18.1037 340.166C17.7585 334.865 22.0517 325.154 22.0517 325.154C22.0517 325.154 14.7906 336.337 15.5429 340.316C16.2953 344.296 19.5048 352.876 18.8629 353.543C17.3651 355.097 -19.8309 351.54 -22.9231 352.957Z"
                  fill="#DD713A"/>
            <path d="M-22.4746 375.5C-22.4746 375.5 38.2373 366.757 43.2 366.975C48.1626 367.193 51.9796 374.151 51.9796 374.151C51.9796 374.151 47.5 370.607 42.4545 370.116C37.409 369.619 -22.4746 375.5 -22.4746 375.5Z"
                  fill="#A83F2D"/>
            <path d="M152.186 364.242C155.961 363.452 160.675 370.907 162.001 376.631C159.046 370.914 149.018 364.903 152.186 364.242Z"
                  fill="#DD713A"/>
            <path d="M47.5551 356.474C38.81 356.031 28.222 359.118 47.5344 359.322C88.3541 359.765 83.5502 358.3 47.5551 356.474Z"
                  fill="#F98E5F"/>
            <path d="M177.117 367.241C187.705 361.619 205.209 371.629 201.303 380.14C198.417 386.417 186.442 379.152 180.258 369.489C184.275 369.489 192.095 372.208 195.332 374.709C192.226 369.523 181.652 367.241 177.117 367.241Z"
                  fill="#3AC144"/>
            <path d="M171.229 362.498C169.524 359.683 179.781 352.003 184.737 355.683C189.692 359.356 178.228 364.072 172.941 364.235C174.728 360.596 179.532 357.509 179.532 357.509C175.219 358.688 171.229 362.498 171.229 362.498Z"
                  fill="#3AC144"/>
            <path d="M173.658 373.428C170.828 375.227 168.226 385.919 174.977 385.824C181.727 385.728 178.635 375.527 176.033 373.23C175.467 373.496 177.006 376.147 175.301 381.892C175.301 378.123 173.658 373.428 173.658 373.428Z"
                  fill="#3AC144"/>
            <path d="M157.238 376.897C154.139 377.714 152.676 382.328 156.258 384.004C159.833 385.674 160.151 379.52 158.708 377.721C157.321 378.219 156.258 382.103 156.258 382.103C155.927 379.459 157.238 376.897 157.238 376.897Z"
                  fill="#3AC144"/>
            <path d="M164.714 384.291C168.531 386.614 168.075 396.243 163.589 395.828C159.102 395.412 159.185 386.642 163.168 384.291C164.548 385.906 164.631 391.698 164.631 391.698C165.611 388.965 164.714 384.291 164.714 384.291Z"
                  fill="#3AC144"/>
            <path d="M57.9084 384.781C54.2502 384.42 50.1779 395.753 56.9352 399.719C63.6855 403.685 63.2852 388.809 61.7391 385.831C60.4346 385.17 57.9981 395.078 57.9981 395.078C58.64 389.545 58.9713 385.224 57.9084 384.781Z"
                  fill="#3AC144"/>
            <path d="M71.5752 388.066C78.7328 389.456 86.0284 399.214 80.838 404.673C75.6475 410.131 66.7298 398.022 69.5597 389.899C74.1014 392.352 77.3523 399.385 77.3523 399.385C77.518 394.424 71.5752 388.066 71.5752 388.066Z"
                  fill="#3AC144"/>
            <path d="M66.2881 381.939C71.5752 386.566 78.2772 384.338 77.6491 379.956C77.021 375.575 69.1111 376.604 66.2881 379.956C70.4363 381.442 75.3162 381.067 75.3162 381.067C72.9625 382.764 66.2881 381.939 66.2881 381.939Z"
                  fill="#3AC144"/>
            <path d="M29.6303 314.748C28.2498 310.319 37.7818 304.458 41.15 308.07C43.8557 310.98 37.1951 315.3 31.0383 316.036C31.6181 314.053 35.3936 310.626 37.5954 309.815C33.9303 309.883 29.6303 314.748 29.6303 314.748Z"
                  fill="#3AC144"/>
            <path d="M20.3329 303.525C24.847 302.836 28.443 307.961 26.0894 314.407C24.7918 308.622 21.5477 306.06 21.5477 306.06C23.7979 309.201 24.5502 314.816 24.5502 314.816C19.5461 313.978 14.5282 304.41 20.3329 303.525Z"
                  fill="#3AC144"/>
            <path d="M30.0443 319.205C32.6189 318.578 38.2373 323.702 35.5247 325.754C32.819 327.805 28.8848 321.726 29.3817 320.534C29.8787 319.341 32.9985 321.719 33.7094 323.45C34.02 321.386 30.0443 319.205 30.0443 319.205Z"
                  fill="#3AC144"/>
            <path d="M21.6167 333.209C25.7511 329.515 32.9294 330.858 32.1426 335.062C31.3488 339.267 23.7702 336.309 22.2793 335.403C23.0593 334.374 27.2282 332.793 29.3403 333.924C27.3248 331.996 21.6167 333.209 21.6167 333.209Z"
                  fill="#3AC144"/>
            <path d="M11.236 337.959C10.6769 333.243 -0.815272 329.474 -3.31387 334.51C-5.81247 339.546 6.5908 341.686 10.3387 339.083C6.87379 336.364 0.730822 335.117 0.392613 335.117C3.80231 334.326 11.236 337.959 11.236 337.959Z"
                  fill="#3AC144"/>
            <path d="M195.014 375.145C191.162 373.04 190.023 375.547 193.385 378.212C196.746 380.876 200.653 378.232 195.014 375.145Z"
                  fill="#5FE065"/>
            <path d="M183.839 355.71C180.043 353.98 177.744 357.741 181.237 358.777C184.729 359.813 188.719 357.932 183.839 355.71Z"
                  fill="#5FE065"/>
            <path d="M81.1344 398.778C80.2441 392.877 77 393.599 77.8628 397.163C78.7325 400.72 81.7004 402.519 81.1344 398.778Z"
                  fill="#5FE065"/>
        </g>
        <g clip-path="url(#clip8)">
            <path d="M198.197 940.651C185.146 949.736 165.371 959.215 138.873 925.247C135.314 920.902 135.314 914.977 140.851 919.717C135.314 911.422 141.642 902.338 145.992 911.027C141.642 900.363 146.783 888.118 151.529 899.178C149.947 882.983 158.252 879.429 161.021 887.723C168.535 872.319 182.377 867.184 178.422 888.513C170.908 935.516 183.959 942.626 198.197 940.651Z"
                  fill="#1C5391"/>
            <path d="M129.382 984.496C127.8 984.496 126.613 984.101 125.031 983.311C123.449 982.521 123.054 981.336 123.449 980.546C123.449 979.756 123.845 979.361 124.636 978.966C125.031 978.966 125.822 978.571 127.009 979.756C127.404 980.151 127.404 980.546 127.009 980.546C126.613 980.941 126.218 980.941 126.218 980.546C125.427 980.546 125.031 980.546 124.636 980.546L124.24 980.941C124.24 981.336 124.636 982.126 125.427 982.521C130.568 985.286 137.687 980.546 137.687 980.546C138.082 980.546 138.478 980.546 138.478 980.546C138.478 980.941 138.478 981.336 138.478 981.336C138.478 981.336 134.128 984.496 129.382 984.496Z"
                  fill="#433C32"/>
            <path d="M221.137 939.863C221.137 942.232 223.51 944.602 225.092 944.207C226.674 944.207 228.651 942.232 233.001 942.232C233.001 939.863 227.069 934.333 224.696 934.333C223.114 934.333 221.137 937.493 221.137 939.863Z"
                  fill="#FE7807"/>
            <path d="M225.09 944.601C226.672 944.601 228.65 942.627 233 942.627C231.813 941.442 227.859 941.047 225.486 941.047C223.904 941.047 223.508 944.601 225.09 944.601Z"
                  fill="#D85C00"/>
            <path d="M128.987 946.971C162.999 927.222 205.712 893.648 222.718 928.012C236.56 956.451 193.847 1001.87 151.925 989.629C117.913 979.36 117.517 963.165 66.1035 949.736C68.872 942.231 108.421 959.216 128.987 946.971Z"
                  fill="#F4F4F4"/>
            <path d="M135.709 978.571C166.557 990.026 206.898 973.436 222.322 954.477C212.83 977.781 181.982 998.715 151.924 990.026C127.404 982.916 120.285 972.251 99.3237 961.982C110.002 965.142 118.703 972.251 135.709 978.571Z"
                  fill="#D3D3D3"/>
            <path d="M73.6173 943.812C100.115 952.896 126.218 945.787 136.501 939.467C155.484 928.012 183.564 913.003 197.011 912.213C209.667 911.818 220.74 918.928 224.695 933.937C224.695 933.937 214.412 913.793 198.197 941.047C185.937 961.586 162.998 982.915 116.33 961.191C84.6911 946.577 47.5149 954.871 40.0005 935.122C38.0231 928.407 64.1255 940.652 73.6173 943.812Z"
                  fill="#1C5391"/>
            <path d="M217.972 935.122C217.972 933.147 216.39 931.567 214.413 931.567C212.435 931.567 210.854 933.147 210.854 935.122C210.854 937.097 212.435 938.677 214.413 938.677C216.39 939.072 217.972 937.492 217.972 935.122Z"
                  fill="#433C32"/>
            <path d="M217.972 935.122C217.972 933.147 216.39 931.962 214.808 931.962C212.831 931.962 211.645 933.542 211.645 935.122C211.645 937.097 213.226 938.282 214.808 938.282C216.39 938.282 217.972 936.702 217.972 935.122Z"
                  fill="#28231D"/>
            <path d="M213.623 933.147C213.623 933.542 214.414 934.332 214.81 934.332C215.6 934.332 215.996 933.937 215.996 933.147C215.996 932.752 215.205 931.962 214.81 931.962C214.414 932.357 213.623 932.752 213.623 933.147Z"
                  fill="white"/>
            <path d="M213.227 934.728C213.227 935.123 213.622 935.518 214.018 935.518C214.413 935.518 214.809 935.123 214.809 934.728C214.809 934.333 214.413 933.938 214.018 933.938C213.622 933.938 213.227 934.333 213.227 934.728Z"
                  fill="white"/>
            <path d="M228.255 936.702C229.441 937.492 229.837 938.282 229.441 938.677C229.046 939.072 228.255 938.677 227.068 937.887C225.882 937.097 225.486 936.307 225.882 935.912C226.277 935.517 227.464 935.912 228.255 936.702Z"
                  fill="white"/>
            <path d="M73.6173 943.812C100.115 952.896 126.218 945.787 136.501 939.467C155.484 928.012 183.564 913.003 197.011 912.213C209.667 911.818 220.74 918.928 224.695 933.937C219.554 921.298 206.898 916.163 195.429 929.987C179.214 949.342 167.349 958.426 138.082 959.611C138.082 959.611 176.445 971.856 198.197 941.047C185.937 961.586 162.998 982.915 116.33 961.191C84.6911 946.577 47.5149 954.871 40.0005 935.122C38.0231 928.407 64.1255 940.652 73.6173 943.812Z"
                  fill="#566DAB"/>
            <path d="M133.733 943.812C157.067 933.148 177.632 916.558 196.616 914.583C197.011 914.583 197.011 914.583 197.407 914.583C200.571 914.583 203.339 914.978 206.108 916.163C206.108 916.163 193.848 914.978 176.841 925.643C147.575 944.207 133.733 943.812 133.733 943.812ZM73.2226 946.182C64.9172 944.602 46.7246 942.232 46.7246 936.703C51.866 937.888 72.4316 945.787 73.2226 946.182Z"
                  fill="#6C97DD"/>
            <path d="M69.2664 946.972C88.6455 950.922 99.3238 952.107 116.33 961.586C84.6906 946.972 47.5143 955.267 40 935.517C44.7459 942.232 57.4016 944.602 69.2664 946.972Z"
                  fill="#1C5391"/>
            <path d="M128.196 991.21C127.01 991.21 126.219 991.21 125.032 990.815C123.055 990.025 122.264 988.84 122.264 987.655C122.264 986.865 122.659 986.075 123.45 985.681C123.846 985.286 125.032 984.891 126.614 986.075C127.01 986.47 127.01 986.865 126.614 987.26C126.219 987.655 125.823 987.655 125.428 987.26C124.637 986.865 124.241 986.865 124.241 986.865C124.241 986.865 123.846 987.26 124.241 987.26C124.241 987.655 124.637 988.445 126.219 988.84C133.337 991.21 141.247 983.311 141.247 982.916C141.643 982.521 142.038 982.521 142.434 982.916C142.829 983.311 142.829 983.706 142.434 984.101C141.247 984.891 135.315 991.21 128.196 991.21Z"
                  fill="#433C32"/>
            <path d="M198.198 941.442C185.937 961.981 165.767 987.26 108.026 958.031C100.511 954.081 96.5562 946.576 107.63 949.341C94.5788 941.442 97.3472 925.247 109.212 934.332C96.1607 922.482 95.7653 902.733 109.212 914.978C96.5562 893.648 105.653 883.774 114.749 893.253C115.54 867.579 130.569 851.78 139.269 883.379C157.857 951.711 180.005 953.291 198.198 941.442Z"
                  fill="#D3D3D3"/>
            <path d="M120.286 926.827C108.026 920.902 110.399 929.986 118.704 942.231C107.63 937.886 105.653 943.021 115.54 952.106C108.817 952.896 106.839 955.265 112.376 960.005C104.862 956.055 100.907 948.551 111.981 951.316C98.9294 943.416 102.884 929.986 114.749 939.071C101.698 927.222 102.884 910.237 116.331 922.087C103.675 900.758 109.608 890.488 118.704 899.968C119.1 883.773 124.241 874.689 130.173 878.244C121.077 877.059 121.077 902.338 123.45 911.027C119.89 905.102 109.608 906.287 120.286 926.827Z"
                  fill="#B7B7B7"/>
            <path d="M187.914 956.056C175.654 969.486 156.275 978.57 119.494 963.561C147.574 973.435 176.84 969.091 187.914 956.056Z"
                  fill="#B7B7B7"/>
            <path d="M161.812 943.812C170.513 952.107 189.496 952.502 198.197 941.442C180.004 952.897 157.857 951.712 138.873 883.38C133.732 864.42 125.822 862.445 120.681 869.95C136.105 852.571 131.754 914.188 161.812 943.812Z"
                  fill="#1C5391"/>
            <path d="M183.168 946.971C172.095 947.366 159.834 939.072 148.761 911.818C148.365 912.213 159.043 950.131 183.168 946.971Z"
                  fill="#6C97DD"/>
            <path d="M161.417 889.698C157.067 882.194 151.926 889.698 152.321 901.548C152.321 901.548 148.762 893.253 145.598 897.203C146.784 894.043 149.553 894.043 151.926 899.573C150.344 883.379 158.649 879.824 161.417 888.119C168.932 872.714 182.774 867.579 178.819 888.909C180.005 872.714 168.536 875.084 161.417 889.698Z"
                  fill="#6C97DD"/>
        </g>
        <path d="M183.621 132.903C172.539 125.98 160.418 136.711 139.64 165.442C136.869 169.25 136.869 173.75 141.371 169.942C136.869 176.865 142.41 184.134 145.873 176.865C142.41 185.865 147.259 195.557 150.722 186.211C150.375 199.711 157.302 202.48 159.379 195.557C166.306 208.019 176.695 211.826 173.578 194.173C169.769 172.711 174.271 141.211 183.621 132.903Z"
              fill="#D3D3D3"/>
        <path d="M152.801 174.442C152.801 177.557 152.801 180.672 152.801 184.134C160.073 182.057 167.692 177.557 172.887 171.672C172.887 169.249 173.233 168.211 173.233 165.788C167 169.249 160.073 172.019 152.801 174.442Z"
              fill="#B7B7B7"/>
        <path d="M196.435 123.557C192.28 113.172 183.622 108.672 173.925 109.018C162.151 109.365 137.562 122.865 120.94 132.903C111.935 138.442 89.0789 144.672 65.876 136.711C57.2182 133.595 34.3617 123.211 36.0932 129.095C39.21 137.057 47.8678 139.826 58.9498 141.903C103.97 153.672 104.317 168.211 134.099 176.865C170.462 187.595 207.517 148.826 196.435 123.557Z"
              fill="#FE7807"/>
        <path d="M194.704 133.249C194.704 135.326 196.782 137.403 198.167 137.057C199.552 137.057 201.284 135.326 205.093 135.326C205.093 133.249 199.899 128.403 197.821 128.403C196.436 128.403 194.704 131.173 194.704 133.249Z"
              fill="#FE7807"/>
        <path d="M198.166 137.058C199.551 137.058 201.283 135.327 205.092 135.327C204.053 134.288 200.59 133.942 198.512 133.942C197.127 133.942 196.781 137.058 198.166 137.058Z"
              fill="#D85C00"/>
        <path d="M119.9 166.826C146.913 176.865 182.236 162.326 195.742 145.711C187.431 166.134 160.419 184.48 134.099 176.865C112.628 170.634 106.394 161.288 88.0396 152.288C97.39 155.057 105.009 161.288 119.9 166.826Z"
              fill="#D85C00"/>
        <path d="M191.934 129.095C191.934 127.364 190.549 125.979 188.817 125.979C187.085 125.979 185.7 127.364 185.7 129.095C185.7 130.826 187.085 132.21 188.817 132.21C190.549 132.21 191.934 130.826 191.934 129.095Z"
              fill="#433C32"/>
        <path d="M191.935 128.749C191.935 127.018 190.549 125.979 189.164 125.979C187.432 125.979 186.394 127.364 186.394 128.749C186.394 130.479 187.779 131.518 189.164 131.518C190.549 131.518 191.935 130.133 191.935 128.749Z"
              fill="#28231D"/>
        <path d="M188.125 127.364C188.125 127.71 188.818 128.403 189.164 128.403C189.857 128.403 190.203 128.057 190.203 127.364C190.203 127.018 189.51 126.326 189.164 126.326C188.818 126.326 188.125 126.672 188.125 127.364Z"
              fill="white"/>
        <path d="M187.778 128.402C187.778 128.748 188.125 129.094 188.471 129.094C188.817 129.094 189.164 128.748 189.164 128.402C189.164 128.056 188.817 127.71 188.471 127.71C188.125 128.056 187.778 128.056 187.778 128.402Z"
              fill="white"/>
        <path d="M200.937 130.48C201.976 131.172 202.323 131.865 201.976 132.211C201.63 132.557 200.937 132.211 199.898 131.519C199.206 130.826 198.859 130.134 198.859 129.788C199.206 129.442 200.245 129.788 200.937 130.48Z"
              fill="white"/>
        <path d="M118.169 136.711C138.602 127.365 156.61 112.826 173.233 111.095C173.579 111.095 173.579 111.095 173.926 111.095C176.696 111.095 179.12 111.441 181.544 112.48C181.544 112.48 170.809 111.441 155.917 120.788C130.29 136.711 118.169 136.711 118.169 136.711ZM65.1838 138.441C57.9113 137.057 41.981 134.98 41.981 130.134C46.483 131.518 64.4912 138.095 65.1838 138.441Z"
              fill="#FFB757"/>
        <path d="M150.721 178.25C143.449 185.519 141.717 180.327 143.795 171.327C136.869 177.558 133.406 175.827 137.562 167.866C132.021 169.942 129.596 169.596 132.021 165.096C127.519 169.596 127.519 174.789 134.791 169.596C127.865 178.25 135.83 183.096 141.371 174.442C135.83 184.827 143.103 192.789 148.99 182.058C147.258 196.942 155.57 199.712 159.033 191.75C165.267 204.212 171.154 205.596 172.539 196.942C169.076 206.635 160.418 190.019 159.033 184.827C158.687 188.981 150.029 192.442 150.721 178.25Z"
              fill="#B7B7B7"/>
        <path d="M175.656 132.903C175.31 133.249 174.963 133.941 174.617 134.287C163.881 152.287 144.142 170.98 102.931 151.941C97.3895 154.364 98.7748 169.941 105.355 159.556C101.892 169.249 110.549 179.287 112.974 170.287C112.627 185.518 121.285 190.71 123.017 182.749C124.056 202.826 135.484 207.672 136.523 196.595C139.64 212.518 151.414 218.749 156.609 215.98C162.15 213.556 142.756 193.133 175.656 132.903Z"
              fill="#D85C00"/>
        <path d="M106.74 157.48C106.74 157.48 100.16 162.672 100.16 155.749C98.4282 160.595 100.506 167.518 105.354 159.903C101.891 169.595 110.549 179.634 112.973 170.634C112.627 185.865 121.285 191.057 123.016 183.095C124.055 203.172 135.484 208.018 136.522 196.942C139.639 212.865 151.414 219.095 156.609 216.326C160.764 214.249 150.721 202.48 159.033 171.326C159.033 171.326 154.184 182.403 153.838 203.518C153.838 210.095 140.332 205.942 137.215 189.672C135.484 200.057 125.787 194.865 123.016 179.634C119.553 187.942 113.32 178.942 113.32 167.865C110.203 174.095 106.047 163.711 106.74 157.48Z"
              fill="#FE7807"/>
        <path d="M160.072 157.826C160.072 157.826 155.57 168.557 152.453 185.865C151.068 193.48 152.453 199.711 145.873 196.595C143.449 195.211 138.947 190.365 137.908 184.826C133.752 197.634 125.095 182.057 123.709 176.865C121.631 179.634 117.476 181.018 115.744 171.326C118.515 178.942 121.285 177.211 124.056 175.134C124.056 177.211 131.674 187.942 138.254 179.98C139.986 185.172 145.527 193.48 149.336 182.057C154.877 165.442 160.072 157.826 160.072 157.826Z"
              fill="#FFB757"/>
        <path d="M205.305 558.487C192.524 567.407 173.16 576.715 147.211 543.362C143.725 539.096 143.725 533.278 149.147 537.932C143.725 529.788 149.922 520.868 154.182 529.4C149.922 518.929 154.957 506.906 159.604 517.765C158.055 501.865 166.188 498.374 168.899 506.519C176.258 491.393 189.813 486.352 185.94 507.294C178.194 553.445 191.362 560.426 205.305 558.487Z"
              fill="#D85C00"/>
        <path d="M137.528 601.535C135.979 601.535 134.817 601.147 133.268 600.372C131.719 599.596 131.331 598.432 131.719 597.657C131.719 596.881 132.106 596.493 132.881 596.106C133.268 596.106 134.043 595.718 135.204 596.881C135.592 597.269 135.592 597.657 135.204 597.657C134.817 598.045 134.43 598.045 134.43 597.657C134.043 597.269 133.655 596.881 133.655 597.269L133.268 597.657C133.268 598.045 133.655 598.82 134.43 599.208C139.465 601.923 146.436 597.269 146.436 597.269C146.823 597.269 147.211 597.269 147.211 597.269C147.598 597.657 147.211 598.045 147.211 598.045C146.823 598.432 142.176 601.535 137.528 601.535Z"
              fill="#433C32"/>
        <path d="M227.381 557.712C227.381 560.039 229.705 562.366 231.254 561.978C232.803 561.978 234.739 560.039 239 560.039C239 557.712 233.19 552.282 230.866 552.282C229.705 552.282 227.381 555.385 227.381 557.712Z"
              fill="#FE7807"/>
        <path d="M231.254 562.365C232.803 562.365 234.739 560.426 239 560.426C237.838 559.262 233.965 558.874 231.641 558.874C230.092 558.874 229.705 562.365 231.254 562.365Z"
              fill="#D85C00"/>
        <path d="M137.141 564.692C170.449 545.301 212.276 512.336 228.93 546.077C242.485 574 200.658 618.6 159.604 606.577C126.297 596.494 125.91 580.593 75.5615 567.407C78.6599 560.038 117.002 576.715 137.141 564.692Z"
              fill="#F4F4F4"/>
        <path d="M143.725 595.719C173.934 606.965 213.438 590.677 228.542 572.061C219.247 594.943 189.038 615.498 159.604 606.965C135.592 599.985 128.62 589.513 108.094 579.43C118.551 582.533 127.071 589.513 143.725 595.719Z"
              fill="#D3D3D3"/>
        <path d="M83.307 561.59C109.256 570.51 134.817 563.529 144.887 557.324C163.477 546.077 190.975 531.34 204.143 530.564C216.536 530.176 227.381 537.157 231.254 551.894C231.254 551.894 221.184 532.115 205.305 558.875C193.299 579.042 170.836 599.985 125.135 578.654C94.1513 564.305 57.7456 572.449 50.387 553.058C48.4505 546.465 74.012 558.487 83.307 561.59Z"
              fill="#D85C00"/>
        <path d="M224.671 553.057C224.671 551.118 223.121 549.567 221.185 549.567C219.248 549.567 217.699 551.118 217.699 553.057C217.699 554.996 219.248 556.548 221.185 556.548C223.121 556.936 224.671 555.384 224.671 553.057Z"
              fill="#433C32"/>
        <path d="M224.284 553.058C224.284 551.119 222.734 549.955 221.185 549.955C219.249 549.955 218.087 551.506 218.087 553.058C218.087 554.997 219.636 556.16 221.185 556.16C223.122 556.16 224.284 554.609 224.284 553.058Z"
              fill="#28231D"/>
        <path d="M220.41 551.119C220.41 551.506 221.185 552.282 221.572 552.282C222.347 552.282 222.734 551.894 222.734 551.119C222.734 550.731 221.959 549.955 221.572 549.955C220.797 550.343 220.41 550.731 220.41 551.119Z"
              fill="white"/>
        <path d="M219.636 552.67C219.636 553.058 220.023 553.446 220.41 553.446C220.798 553.446 221.185 553.058 221.185 552.67C221.185 552.282 220.798 551.894 220.41 551.894C220.023 551.894 219.636 552.282 219.636 552.67Z"
              fill="white"/>
        <path d="M234.739 554.61C235.901 555.385 236.289 556.161 235.901 556.549C235.514 556.937 234.739 556.549 233.578 555.773C232.416 554.998 232.028 554.222 232.416 553.834C232.803 553.446 233.578 553.834 234.739 554.61Z"
              fill="white"/>
        <path d="M83.307 561.59C109.256 570.51 134.817 563.529 144.887 557.324C163.477 546.077 190.975 531.34 204.143 530.564C216.536 530.176 227.381 537.157 231.254 551.894C226.219 539.484 213.825 534.442 202.594 548.016C186.715 567.02 175.096 575.94 146.436 577.103C146.436 577.103 184.004 589.126 205.305 558.875C193.299 579.042 170.836 599.985 125.135 578.654C94.1513 564.305 57.7456 572.449 50.387 553.058C48.4505 546.465 74.012 558.487 83.307 561.59Z"
              fill="#FE7807"/>
        <path d="M142.176 561.59C165.026 551.119 185.166 534.83 203.756 532.891C204.143 532.891 204.143 532.891 204.531 532.891C207.629 532.891 210.34 533.279 213.051 534.442C213.051 534.442 201.045 533.279 184.391 543.75C155.731 561.978 142.176 561.59 142.176 561.59ZM82.5327 563.917C74.3996 562.366 56.584 560.039 56.584 554.609C62.0061 555.773 81.7581 563.529 82.5327 563.917Z"
              fill="#FFB757"/>
        <path d="M78.6598 564.692C97.6372 568.57 108.094 569.734 124.748 579.041C93.7643 564.692 57.3586 572.836 50 553.445C54.6475 560.038 67.041 562.365 78.6598 564.692Z"
              fill="#D85C00"/>
        <path d="M230.867 552.283C216.924 523.971 208.791 534.443 201.433 525.135C210.728 524.359 225.058 527.462 230.867 552.283Z"
              fill="#FE7807"/>
        <path d="M223.121 539.096C213.826 527.461 207.242 532.503 201.433 524.746C205.693 529.013 214.601 526.686 223.121 539.096Z"
              fill="#D85C00"/>
        <path d="M136.367 608.129C135.205 608.129 134.431 608.129 133.269 607.741C131.332 606.966 130.558 605.802 130.558 604.639C130.558 603.863 130.945 603.088 131.719 602.7C132.107 602.312 133.269 601.924 134.818 603.088C135.205 603.475 135.205 603.863 134.818 604.251C134.431 604.639 134.043 604.639 133.656 604.251C132.881 603.863 132.494 603.863 132.494 603.863L132.107 604.251C132.107 604.639 132.494 605.414 134.043 605.802C141.015 608.129 148.76 600.373 148.76 599.985C149.148 599.597 149.535 599.597 149.922 599.985C150.31 600.373 150.31 600.761 149.922 601.148C149.535 601.924 143.338 608.129 136.367 608.129Z"
              fill="#433C32"/>
        <path d="M204.918 559.263C192.912 579.43 173.16 604.25 116.615 575.551C109.256 571.673 105.383 564.304 116.228 567.019C103.447 559.263 106.158 543.362 117.777 552.282C104.996 540.647 104.609 521.256 117.777 533.279C105.383 512.336 114.291 502.64 123.199 511.948C123.974 486.74 138.691 471.227 147.211 502.253C165.414 569.346 187.103 570.897 204.918 559.263Z"
              fill="#D3D3D3"/>
        <path d="M128.621 544.913C116.615 539.096 118.938 548.016 127.072 560.038C116.227 555.772 114.291 560.814 123.973 569.734C117.389 570.51 115.453 572.837 120.875 577.49C113.516 573.612 109.643 566.244 120.488 568.958C107.707 561.202 111.58 548.016 123.199 556.936C110.418 545.301 111.58 528.625 124.748 540.259C112.354 519.317 118.164 509.234 127.072 518.541C127.459 502.64 132.494 493.721 138.303 497.211C129.395 496.047 129.395 520.868 131.719 529.4C128.233 523.583 118.164 524.746 128.621 544.913Z"
              fill="#B7B7B7"/>
        <path d="M194.849 573.613C182.842 586.799 163.865 595.719 127.847 580.981C155.345 590.677 184.004 586.411 194.849 573.613Z"
              fill="#B7B7B7"/>
        <path d="M169.286 561.59C177.807 569.734 196.397 570.122 204.918 559.263C187.102 570.51 165.414 569.347 146.823 502.253C141.789 483.638 134.043 481.698 129.008 489.067C144.5 472.003 139.852 532.503 169.286 561.59Z"
              fill="#FE7807"/>
        <path d="M190.2 564.692C179.356 565.08 167.35 556.935 156.506 530.176C156.506 530.563 166.575 567.795 190.2 564.692Z"
              fill="#FFB757"/>
        <path d="M168.899 508.458C164.639 501.089 159.604 508.458 159.991 520.092C159.991 520.092 156.506 511.948 153.407 515.826C154.569 512.724 157.28 512.724 159.604 518.153C158.055 502.253 166.188 498.762 168.899 506.906C176.258 491.781 189.813 486.74 185.94 507.682C187.489 491.781 175.87 494.108 168.899 508.458Z"
              fill="#FFB757"/>
        <path d="M864.929 984.862C866.805 984.862 868.213 984.393 870.09 983.455C871.967 982.517 872.436 981.11 871.967 980.172C871.967 979.234 871.497 978.765 870.559 978.296C870.09 978.296 869.151 977.827 867.744 979.234C867.275 979.703 867.275 980.172 867.744 980.172C868.213 980.641 868.682 980.641 868.682 980.172C869.151 979.703 869.621 979.234 869.621 979.703L870.09 980.172C870.09 980.641 869.621 981.579 868.682 982.048C862.583 985.331 854.137 979.703 854.137 979.703C853.668 979.703 853.199 979.703 853.199 979.703C853.199 980.172 853.199 980.641 853.199 980.641C854.137 981.11 859.298 984.862 864.929 984.862Z"
              fill="#433C32"/>
        <path d="M756.075 931.866C756.075 934.68 753.26 937.494 751.383 937.025C749.506 937.025 747.16 934.68 741.999 934.68C741.999 931.866 749.037 925.3 751.852 925.3C753.729 925.3 756.075 929.052 756.075 931.866Z"
              fill="#FE7807"/>
        <path d="M751.383 937.025C749.507 937.025 747.161 934.68 741.999 934.68C743.407 933.273 748.099 932.804 750.914 932.804C752.791 932.804 753.26 937.025 751.383 937.025Z"
              fill="#D85C00"/>
        <path d="M865.398 940.307C825.047 916.857 774.374 876.992 754.199 917.795C737.777 951.563 788.45 1005.5 838.185 990.959C878.536 978.765 879.005 959.536 940 943.59C936.716 934.21 889.796 954.846 865.398 940.307Z"
              fill="#F4F4F4"/>
        <path d="M857.422 977.828C820.825 991.429 772.967 971.731 754.668 949.219C765.929 976.89 802.526 1001.75 838.185 991.429C867.275 982.987 875.721 970.324 900.588 958.13C887.92 961.882 877.597 970.324 857.422 977.828Z"
              fill="#D3D3D3"/>
        <path d="M931.085 936.555C899.649 947.342 868.682 938.9 856.483 931.396C833.962 917.795 800.649 899.973 784.696 899.035C769.682 898.566 756.545 907.008 751.853 924.83C751.853 924.83 764.052 900.911 783.289 933.272C797.834 957.66 825.047 982.987 880.412 957.191C917.947 939.838 962.052 949.687 970.966 926.237C973.312 918.264 942.346 932.334 931.085 936.555Z"
              fill="#91881C"/>
        <path d="M759.83 926.237C759.83 923.892 761.707 922.016 764.053 922.016C766.399 922.016 768.275 923.892 768.275 926.237C768.275 928.582 766.399 930.458 764.053 930.458C761.707 930.458 759.83 928.582 759.83 926.237Z"
              fill="#433C32"/>
        <path d="M759.83 925.768C759.83 923.423 761.707 922.016 763.583 922.016C765.929 922.016 767.337 923.892 767.337 925.768C767.337 928.113 765.46 929.52 763.583 929.52C761.707 929.989 759.83 928.113 759.83 925.768Z"
              fill="#28231D"/>
        <path d="M764.991 923.892C764.991 924.361 764.053 925.299 763.584 925.299C762.645 925.299 762.176 924.83 762.176 923.892C762.176 923.423 763.114 922.485 763.584 922.485C764.053 922.485 764.991 923.423 764.991 923.892Z"
              fill="white"/>
        <path d="M765.46 925.768C765.46 926.237 764.991 926.706 764.522 926.706C764.052 926.706 763.583 926.237 763.583 925.768C763.583 925.299 764.052 924.83 764.522 924.83C764.991 924.83 765.46 925.299 765.46 925.768Z"
              fill="white"/>
        <path d="M747.63 928.114C746.223 929.052 745.753 929.99 746.223 930.459C746.692 930.928 747.63 930.459 749.038 929.521C749.976 928.583 750.445 927.645 750.445 927.176C749.976 926.707 748.569 927.176 747.63 928.114Z"
              fill="white"/>
        <path d="M931.085 936.555C899.649 947.342 868.682 938.9 856.483 931.396C833.962 917.795 800.649 899.973 784.696 899.035C769.682 898.566 756.545 907.008 751.853 924.83C757.952 909.822 772.966 903.725 786.573 920.14C805.81 943.121 819.886 953.908 854.606 955.315C854.606 955.315 809.094 969.855 783.289 933.272C797.834 957.66 825.047 982.987 880.412 957.191C917.947 939.838 962.052 949.687 970.966 926.237C973.312 918.264 942.346 932.334 931.085 936.555Z"
              fill="#ABA956"/>
        <path d="M859.767 936.556C832.085 923.893 807.687 904.194 785.166 901.849C784.696 901.849 784.696 901.849 784.227 901.849C780.474 901.849 777.189 902.318 773.905 903.725C773.905 903.725 788.45 902.318 808.625 914.981C843.346 936.556 859.767 936.556 859.767 936.556ZM931.554 939.37C941.407 937.494 962.99 934.68 962.99 928.114C956.891 929.521 932.493 938.901 931.554 939.37Z"
              fill="#DDD76C"/>
        <path d="M936.246 940.307C913.256 944.997 900.588 946.404 880.412 957.66C917.948 940.307 962.052 950.156 970.967 926.706C965.336 934.21 950.322 937.493 936.246 940.307Z"
              fill="#91881C"/>
        <path d="M751.853 925.3C768.744 891.063 778.597 903.726 787.512 892.47C776.251 891.063 759.36 895.284 751.853 925.3Z"
              fill="#ABA956"/>
        <path d="M761.237 909.353C772.497 895.283 780.474 901.38 787.512 892C782.351 897.159 772.028 893.876 761.237 909.353Z"
              fill="#91881C"/>
        <path d="M866.336 992.836C867.744 992.836 868.682 992.836 870.09 992.367C872.436 991.429 873.374 990.022 873.374 988.615C873.374 987.677 872.905 986.739 871.966 986.27C871.497 985.801 870.09 985.332 868.213 986.739C867.744 987.208 867.744 987.677 868.213 988.146C868.682 988.615 869.151 988.615 869.62 988.146C870.559 987.677 871.028 987.677 871.028 987.677L871.497 988.146C871.497 988.615 871.028 989.553 869.151 990.022C860.706 992.836 851.322 983.456 851.322 982.987C850.853 982.518 850.384 982.518 849.914 982.987C849.445 983.456 849.445 983.925 849.914 984.394C850.853 985.332 857.891 992.836 866.336 992.836Z"
              fill="#433C32"/>
        <path d="M783.288 933.741C797.833 958.129 821.762 988.145 890.265 953.439C899.179 948.749 891.203 949.218 891.203 949.218C906.686 938.9 907.156 934.679 891.203 941.245C835.369 964.226 798.303 955.315 783.288 933.741Z"
              fill="#D3D3D3"/>
        <path d="M783.288 933.741C791.264 945.466 810.501 972.199 863.52 956.722C879.473 952.032 895.895 940.776 901.994 938.431C899.648 938.431 896.833 939.369 891.672 941.714C835.369 964.226 798.302 955.315 783.288 933.741Z"
              fill="#91881C"/>
        <path d="M795.488 951.095C810.033 967.041 833.023 977.828 876.658 960.006C843.345 971.731 808.625 966.572 795.488 951.095Z"
              fill="#B7B7B7"/>
        <path d="M783.288 933.741C791.264 945.466 813.786 966.102 862.113 953.439C878.065 949.218 894.487 939.369 901.994 938.431C899.648 938.431 896.833 939.369 891.672 941.714C835.369 964.226 796.895 953.439 783.288 933.741Z"
              fill="#DDD76C"/>
        <path d="M1377.46 569.862C1379.34 569.862 1380.74 569.393 1382.62 568.455C1384.5 567.517 1384.97 566.11 1384.5 565.172C1384.5 564.234 1384.03 563.765 1383.09 563.296C1382.62 563.296 1381.68 562.827 1380.28 564.234C1379.81 564.703 1379.81 565.172 1380.28 565.172C1380.74 565.641 1381.21 565.641 1381.21 565.172C1381.68 564.703 1382.15 564.234 1382.15 564.703L1382.62 565.172C1382.62 565.641 1382.15 566.579 1381.21 567.048C1375.11 570.331 1366.67 564.703 1366.67 564.703C1366.2 564.234 1365.73 564.703 1365.73 564.703C1365.73 565.172 1365.73 565.641 1365.73 565.641C1366.67 566.11 1372.3 569.862 1377.46 569.862Z"
              fill="#433C32"/>
        <path d="M1269.08 516.866C1269.08 519.68 1266.26 522.494 1264.38 522.025C1262.51 522.025 1260.16 519.68 1255 519.68C1255 516.866 1262.04 510.3 1264.85 510.3C1266.26 510.3 1269.08 514.052 1269.08 516.866Z"
              fill="#FE7807"/>
        <path d="M1264.38 522.025C1262.51 522.025 1260.16 519.68 1255 519.68C1256.41 518.273 1261.1 517.804 1263.91 517.804C1265.79 517.804 1265.79 522.025 1264.38 522.025Z"
              fill="#D85C00"/>
        <path d="M1378.4 525.307C1338.05 501.857 1287.37 461.992 1267.2 502.795C1250.78 536.563 1301.45 590.498 1351.18 575.959C1391.54 563.765 1392 544.536 1453 528.59C1449.25 519.21 1402.8 539.377 1378.4 525.307Z"
              fill="#F4F4F4"/>
        <path d="M1370.42 562.828C1333.82 576.429 1285.97 556.731 1267.67 534.219C1278.93 561.89 1315.53 586.747 1351.19 576.429C1380.28 567.987 1388.72 555.324 1413.59 543.13C1400.45 546.413 1390.6 555.324 1370.42 562.828Z"
              fill="#D3D3D3"/>
        <path d="M1443.62 521.555C1412.18 532.343 1381.21 523.9 1369.01 516.396C1346.49 502.795 1313.18 484.973 1297.23 484.035C1282.21 483.566 1269.08 492.008 1264.38 509.83C1264.38 509.83 1276.58 485.911 1295.82 518.272C1310.37 542.661 1337.58 568.456 1392.94 542.661C1430.48 525.307 1474.58 535.157 1483.5 511.706C1485.84 503.264 1454.88 517.334 1443.62 521.555Z"
              fill="#911C2E"/>
        <path d="M1272.36 511.237C1272.36 508.892 1274.24 507.016 1276.58 507.016C1278.93 507.016 1280.81 508.892 1280.81 511.237C1280.81 513.582 1278.93 515.458 1276.58 515.458C1274.24 515.458 1272.36 513.582 1272.36 511.237Z"
              fill="#433C32"/>
        <path d="M1272.83 510.768C1272.83 508.423 1274.71 507.016 1276.58 507.016C1278.93 507.016 1280.34 508.892 1280.34 510.768C1280.34 513.113 1278.46 514.52 1276.58 514.52C1274.24 514.52 1272.83 513.113 1272.83 510.768Z"
              fill="#28231D"/>
        <path d="M1277.52 508.892C1277.52 509.361 1276.58 510.299 1276.11 510.299C1275.18 510.299 1274.71 509.83 1274.71 508.892C1274.71 508.423 1275.65 507.485 1276.11 507.485C1277.05 507.485 1277.52 507.954 1277.52 508.892Z"
              fill="white"/>
        <path d="M1277.99 510.768C1277.99 511.237 1277.52 511.706 1277.05 511.706C1276.58 511.706 1276.11 511.237 1276.11 510.768C1276.11 510.299 1276.58 509.83 1277.05 509.83C1277.52 509.83 1277.99 510.299 1277.99 510.768Z"
              fill="white"/>
        <path d="M1260.16 513.114C1258.75 514.052 1258.28 514.99 1258.75 515.459C1259.22 515.928 1260.16 515.459 1261.57 514.521C1262.98 513.583 1263.45 512.645 1262.98 512.176C1262.51 511.707 1261.57 512.176 1260.16 513.114Z"
              fill="white"/>
        <path d="M1443.62 521.555C1412.18 532.343 1381.21 523.9 1369.01 516.396C1346.49 502.795 1313.18 484.973 1297.23 484.035C1282.21 483.566 1269.08 492.008 1264.38 509.83C1270.48 494.822 1285.5 488.725 1299.1 505.14C1318.34 528.121 1332.42 538.909 1367.14 540.316C1367.14 540.316 1321.63 554.855 1295.82 518.272C1310.37 542.661 1337.58 568.456 1392.94 542.661C1430.48 525.307 1474.58 535.157 1483.5 511.706C1485.84 503.264 1454.88 517.334 1443.62 521.555Z"
              fill="#A34E4E"/>
        <path d="M1372.3 521.556C1344.62 508.892 1320.22 489.194 1297.7 486.849C1297.23 486.849 1297.23 486.849 1296.76 486.849C1293 486.849 1289.72 487.318 1286.44 488.725C1286.44 488.725 1300.98 487.318 1321.16 499.981C1355.88 521.556 1372.3 521.556 1372.3 521.556ZM1444.55 523.901C1454.41 522.025 1475.99 519.211 1475.99 512.645C1469.42 514.521 1445.02 523.901 1444.55 523.901Z"
              fill="#DD6C6C"/>
        <path d="M1448.78 525.307C1425.79 529.997 1413.12 531.404 1392.94 542.66C1430.48 525.307 1474.58 535.156 1483.5 511.706C1477.87 519.21 1463.32 522.493 1448.78 525.307Z"
              fill="#911C2E"/>
        <path d="M1264.38 510.3C1281.28 476.062 1291.13 488.725 1300.04 477.469C1289.25 476.062 1271.89 480.283 1264.38 510.3Z"
              fill="#A34E4E"/>
        <path d="M1274.24 494.353C1285.5 480.283 1293.47 486.38 1300.51 477C1294.88 481.69 1284.56 478.876 1274.24 494.353Z"
              fill="#911C2E"/>
        <path d="M1378.87 577.367C1380.27 577.367 1381.21 577.367 1382.62 576.898C1384.97 575.96 1385.91 574.553 1385.91 573.146C1385.91 572.208 1385.44 571.27 1384.5 570.801C1384.03 570.332 1382.62 569.863 1380.74 571.27C1380.27 571.739 1380.27 572.208 1380.74 572.677C1381.21 573.146 1381.68 573.146 1382.15 572.677C1383.09 572.208 1383.56 572.208 1383.56 572.208C1383.56 572.208 1384.03 572.677 1383.56 572.677C1383.56 573.146 1383.09 574.084 1381.21 574.553C1372.77 577.367 1363.38 567.987 1363.38 567.518C1362.91 567.049 1362.45 567.049 1361.98 567.518C1361.51 567.987 1361.51 568.456 1361.98 568.925C1363.38 569.863 1370.89 577.367 1378.87 577.367Z"
              fill="#433C32"/>
        <path d="M1296.29 518.741C1310.83 543.129 1334.76 573.145 1403.27 538.439C1412.18 533.749 1404.2 534.218 1404.2 534.218C1404.2 534.218 1394.82 535.625 1385.91 537.97C1326.79 552.509 1342.74 523.9 1296.29 518.741Z"
              fill="#D3D3D3"/>
        <path d="M1344.62 537.032C1363.38 551.571 1366.67 552.509 1389.66 544.536C1346.02 562.827 1317.4 556.73 1296.29 518.741C1296.29 518.741 1323.03 520.617 1344.62 537.032ZM1318.81 543.129C1326.79 548.757 1334.76 551.102 1336.64 548.288C1338.52 545.474 1333.83 538.439 1325.85 532.811C1317.87 527.183 1309.9 524.838 1308.02 527.652C1306.14 530.935 1310.83 537.501 1318.81 543.129Z"
              fill="#B7B7B7"/>
        <path d="M1296.29 518.742C1296.29 518.742 1325.85 523.901 1338.52 541.254C1352.59 560.483 1346.02 567.049 1353.53 568.925C1359.63 570.332 1370.89 566.111 1374.18 556.731C1378.4 560.014 1387.78 554.855 1388.72 548.289C1393.88 549.696 1404.67 544.537 1399.98 541.254C1399.98 541.254 1407.49 540.316 1408.43 537.033C1411.71 526.246 1316.46 518.273 1296.29 518.742Z"
              fill="#A34E4E"/>
        <path d="M1339.92 539.377C1353.06 555.323 1352.12 558.606 1356.35 561.42C1361.04 564.234 1369.48 562.358 1372.3 554.385C1376.99 554.854 1385.91 551.102 1386.84 545.474C1388.72 545.943 1396.7 545.943 1397.17 540.315C1397.17 540.315 1408.9 538.908 1407.49 535.625C1407.96 536.094 1407.96 536.563 1407.49 537.032C1406.55 539.846 1399.04 541.253 1399.04 541.253C1403.27 544.536 1392.94 549.695 1387.78 548.288C1386.84 554.854 1377.46 560.013 1373.24 556.73C1369.95 566.11 1358.69 570.8 1352.59 568.924C1345.56 567.048 1351.65 560.951 1337.58 541.253C1324.91 523.9 1295.35 518.741 1295.35 518.741C1295.35 518.741 1324.91 521.086 1339.92 539.377Z"
              fill="#911C2E"/>
        <path d="M1309.9 522.493C1305.2 519.679 1296.29 518.741 1296.29 518.741C1314.59 518.272 1403.73 525.776 1407.96 535.625C1402.33 526.245 1326.79 522.493 1309.9 522.493Z"
              fill="#911C2E"/>
        <path d="M1320.22 523.431C1327.26 526.245 1341.8 534.687 1349.31 545.943C1356.35 557.199 1362.45 561.42 1370.42 551.571C1378.4 552.04 1383.56 549.695 1385.44 543.129C1389.66 544.067 1392.94 544.067 1394.35 539.377C1392.47 543.598 1387.31 542.66 1384.03 540.784C1384.03 543.598 1378.4 549.226 1368.08 546.412C1365.26 549.226 1359.16 552.04 1352.12 543.598C1337.11 526.714 1320.22 523.431 1320.22 523.431Z"
              fill="#DD6C6C"/>
        <g clip-path="url(#clip9)">
            <path d="M932.512 169C933.848 169 934.85 168.666 936.186 168C937.522 167.333 937.856 166.333 937.522 165.666C937.522 165 937.188 164.666 936.52 164.333C936.186 164.333 935.518 164 934.516 165C934.182 165.333 934.182 165.666 934.516 165.666C934.85 166 935.184 166 935.184 165.666C935.518 165.333 935.852 165 935.852 165.333L936.186 165.666C936.186 166 935.852 166.666 935.184 167C930.842 169.333 924.829 165.333 924.829 165.333C924.495 165 924.161 165.333 924.161 165.333C923.827 165.666 924.161 166 924.161 166C924.829 166.333 928.504 169 932.512 169Z"
                  fill="#433C32"/>
            <path d="M855.021 131.334C855.021 133.334 853.016 135.334 851.68 135C850.344 135 848.674 133.334 845 133.334C845 131.334 850.01 126.667 852.014 126.667C853.35 126.667 855.021 129.334 855.021 131.334Z"
                  fill="#FE7807"/>
            <path d="M851.681 135C850.345 135 848.675 133.334 845 133.334C846.002 132.334 849.343 132 851.347 132C852.683 132 853.017 135 851.681 135Z"
                  fill="#D85C00"/>
            <path d="M932.846 137.333C904.121 120.667 868.047 92.3332 853.685 121.333C841.994 145.333 878.068 183.667 913.474 173.333C942.199 164.667 942.533 151 985.955 139.667C983.617 133 950.215 147.333 932.846 137.333Z"
                  fill="#75CBDD"/>
            <path d="M927.168 164C901.115 173.667 867.045 159.667 854.018 143.667C862.035 163.334 888.088 181 913.473 173.667C934.182 167.667 940.195 158.667 957.897 150C948.879 152.334 941.531 158.667 927.168 164Z"
                  fill="#5FC1CE"/>
            <path d="M979.609 134.667C957.229 142.333 935.184 136.333 926.5 131C910.467 121.333 886.752 108.667 875.395 108C864.707 107.667 855.354 113.667 852.014 126.333C852.014 126.333 860.699 109.333 874.393 132.333C884.748 149.667 904.121 168 943.535 149.667C970.256 137.333 1001.65 144.333 1008 127.667C1009.67 121.667 987.625 131.667 979.609 134.667Z"
                  fill="#2C5491"/>
            <path d="M857.693 127.333C857.693 125.666 859.029 124.333 860.699 124.333C862.369 124.333 863.705 125.666 863.705 127.333C863.705 129 862.369 130.333 860.699 130.333C859.029 130.333 857.693 129 857.693 127.333Z"
                  fill="#433C32"/>
            <path d="M857.693 127C857.693 125.333 859.029 124.333 860.365 124.333C862.035 124.333 863.037 125.666 863.037 127C863.037 128.666 861.701 129.666 860.365 129.666C859.029 129.666 857.693 128.666 857.693 127Z"
                  fill="#28231D"/>
            <path d="M861.367 125.667C861.367 126 860.699 126.667 860.365 126.667C859.697 126.667 859.363 126.333 859.363 125.667C859.363 125.333 860.031 124.667 860.365 124.667C860.699 124.667 861.367 125 861.367 125.667Z"
                  fill="white"/>
            <path d="M861.701 127C861.701 127.333 861.367 127.667 861.033 127.667C860.699 127.667 860.365 127.333 860.365 127C860.365 126.667 860.699 126.333 861.033 126.333C861.367 126.333 861.701 126.667 861.701 127Z"
                  fill="white"/>
            <path d="M849.009 128.667C848.007 129.334 847.673 130 848.007 130.334C848.341 130.667 849.009 130.334 850.011 129.667C850.679 129 851.013 128.334 851.013 128C850.679 127.667 849.677 128 849.009 128.667Z"
                  fill="white"/>
            <path d="M979.609 134.667C957.229 142.333 935.184 136.333 926.5 131C910.467 121.333 886.752 108.667 875.395 108C864.707 107.667 855.354 113.667 852.014 126.333C856.356 115.667 867.045 111.333 876.731 123C890.426 139.333 900.447 147 925.164 148C925.164 148 892.764 158.333 874.393 132.333C884.748 149.667 904.121 168 943.535 149.667C970.256 137.333 1001.65 144.333 1008 127.667C1009.67 121.667 987.625 131.667 979.609 134.667Z"
                  fill="#3B77AB"/>
            <path d="M928.839 134.667C909.132 125.667 891.763 111.667 875.73 110C875.396 110 875.396 110 875.062 110C872.39 110 870.052 110.334 867.714 111.334C867.714 111.334 878.068 110.334 892.431 119.334C917.148 134.667 928.839 134.667 928.839 134.667ZM979.943 136.334C986.958 135 1002.32 133 1002.32 128.334C997.98 129.667 980.611 136.334 979.943 136.334Z"
                  fill="#75CBDD"/>
            <path d="M983.283 137.333C966.916 140.666 957.898 141.666 943.535 149.666C970.256 137.333 1001.65 144.333 1008 127.666C1003.99 133 993.303 135.333 983.283 137.333Z"
                  fill="#2C5491"/>
            <path d="M852.014 126.667C864.039 102.334 871.053 111.334 877.399 103.334C869.383 102.334 857.358 105.334 852.014 126.667Z"
                  fill="#3B77AB"/>
            <path d="M858.694 115.333C866.711 105.333 872.389 109.667 877.399 103C873.725 106.333 866.377 104.333 858.694 115.333Z"
                  fill="#2C5491"/>
            <path d="M933.514 174.333C934.516 174.333 935.184 174.333 936.186 174C937.856 173.333 938.524 172.333 938.524 171.333C938.524 170.667 938.19 170 937.522 169.667C937.188 169.333 936.186 169 934.85 170C934.516 170.333 934.516 170.667 934.85 171C935.184 171.333 935.518 171.333 935.852 171C936.52 170.667 936.854 170.667 936.854 170.667L937.188 171C937.188 171.333 936.854 172 935.518 172.333C929.506 174.333 922.826 167.667 922.826 167.333C922.492 167 922.158 167 921.824 167.333C921.49 167.667 921.49 168 921.824 168.333C922.492 169 927.502 174.333 933.514 174.333Z"
                  fill="#433C32"/>
            <path d="M874.393 132.666C884.748 150 901.782 171.333 950.549 146.666C956.895 143.333 951.217 143.666 951.217 143.666C951.217 143.666 944.537 144.666 938.19 146.333C896.438 156.666 907.795 136.333 874.393 132.666Z"
                  fill="#59D1D3"/>
            <path d="M908.797 145.666C922.157 156 924.495 156.666 940.862 151C910.133 164 889.424 159.666 874.393 132.666C874.393 132.666 893.432 134 908.797 145.666ZM890.426 150C896.104 154 901.782 155.666 903.118 153.666C904.455 151.666 901.114 146.666 895.436 142.666C889.758 138.666 884.08 137 882.743 139C881.407 141.333 885.082 146 890.426 150Z"
                  fill="#46B4BC"/>
            <path d="M874.393 132.667C874.393 132.667 895.436 136.334 904.455 148.667C914.475 162.334 909.799 167 915.143 168.334C919.486 169.334 927.502 166.334 929.84 159.667C932.846 162 939.527 158.334 940.195 153.667C943.869 154.667 951.551 151 948.211 148.667C948.211 148.667 953.555 148 954.223 145.667C956.895 138 888.756 132.334 874.393 132.667Z"
                  fill="#3B77AB"/>
            <path d="M905.791 147.333C915.143 158.666 914.475 161 917.481 163C920.822 165 926.834 163.666 928.838 158C932.178 158.333 938.524 155.666 939.192 151.666C940.528 152 946.207 152 946.541 148C946.541 148 954.891 147 953.889 144.666C954.223 145 954.223 145.333 953.889 145.666C953.221 147.666 947.877 148.666 947.877 148.666C950.883 151 943.535 154.666 939.86 153.666C939.192 158.333 932.512 162 929.506 159.666C927.168 166.333 919.151 169.666 914.809 168.333C909.799 167 914.141 162.666 904.121 148.666C895.102 136.333 874.059 132.666 874.059 132.666C874.059 132.666 895.102 134.333 905.791 147.333Z"
                  fill="#2C5491"/>
            <path d="M884.414 135.333C881.074 133.333 874.394 132.667 874.394 132.667C887.42 132.333 950.884 137.667 953.89 144.667C949.881 138 896.439 135.333 884.414 135.333Z"
                  fill="#2C5491"/>
            <path d="M891.429 136C896.439 138 906.793 144 912.138 152C917.148 160 921.49 163 927.168 156C932.847 156.333 936.521 154.666 937.857 149.666C940.863 150.333 943.201 150.333 944.203 147C942.867 150 939.193 149.333 936.855 148C936.855 150 932.847 154 925.498 152C923.494 154 919.152 156 914.142 150C903.453 138.333 891.429 136 891.429 136Z"
                  fill="#75CBDD"/>
        </g>
    </g>
    <defs>
        <clipPath id="clip0">
            <rect width="1440" height="1024" fill="white"/>
        </clipPath>
        <clipPath id="clip1">
            <rect width="256" height="69" fill="white" transform="translate(919 146)"/>
        </clipPath>
        <clipPath id="clip2">
            <rect width="245" height="91" fill="white" transform="translate(1153 673)"/>
        </clipPath>
        <clipPath id="clip3">
            <rect width="256" height="69" fill="white" transform="translate(1085 955)"/>
        </clipPath>
        <clipPath id="clip4">
            <rect width="256" height="69" fill="white" transform="translate(1303 292)"/>
        </clipPath>
        <clipPath id="clip5">
            <rect width="256" height="69" fill="white" transform="translate(-167 593)"/>
        </clipPath>
        <clipPath id="clip6">
            <rect width="227" height="106" fill="white" transform="matrix(-1 0 0 1 1461 843)"/>
        </clipPath>
        <clipPath id="clip7">
            <rect width="227" height="106" fill="white" transform="translate(-24 303)"/>
        </clipPath>
        <clipPath id="clip8">
            <rect width="193" height="126" fill="white" transform="translate(40 866)"/>
        </clipPath>
        <clipPath id="clip9">
            <rect width="163" height="72" fill="white" transform="matrix(-1 0 0 1 1008 103)"/>
        </clipPath>
    </defs>
</svg>
