<?xml version="1.0" ?><!DOCTYPE svg  PUBLIC '-//W3C//DTD SVG 1.1//EN'  'http://www.w3.org/Graphics/SVG/1.1/DTD/svg11.dtd'><svg enable-background="new 0 0 32 32" height="32px" id="Layer_1" version="1.1" viewBox="0 0 32 32" width="32px" xml:space="preserve" xmlns="http://www.w3.org/2000/svg" xmlns:xlink="http://www.w3.org/1999/xlink"><path d="M32.015,13.524c-0.598,0.81-1.528,1.085-2.506,0.989c-1.287-0.126-1.057-1.049-1.726-2.017  c-0.479-0.693-1.342-1.098-1.88-1.808c-0.459-0.606-2.045-2.724-2.805-2.846c-1.144-0.185-1.919,0.53-2.665-0.472  c-0.564-0.757-1.189-0.465-1.847-0.802c-0.531-0.272-1.877-1.798-2.588-1.318c-0.605,0.409,0.029,2.089,0.154,2.596  c-2.059-0.129-3.915,1.263-6.026,0.997c-6.195-0.782-9.234,3.128-9.573,5.395c-0.188,1.256-1.358,7.345,0.491,7.883  c-0.878-0.531-0.524-5.481,0.326-5.865c0.306,2.075,1.089,4.022,1.463,6.065c0.298,1.632-0.039,3.539-0.071,5.196  c1.041,0,2.082,0,3.122,0c0.114-0.742-1.485-0.86-1.285-1.984c0.255-1.433,0.447-2.469,1.593-3.443  c0.306,1.907,1.057,3.353,0.759,5.427c0.983,0,1.967,0,2.95,0c-1.04-0.929-1.106-2.176-1.153-3.473  c-0.043-1.188-0.107-2.375-0.272-3.553c0.957-0.249,1.899-0.558,2.837-0.868c1.146-0.379,1.758-0.941,1.963,0.558  c0.164,1.202,0.096,2.222-0.067,3.414c-0.183,1.339-0.48,2.596-0.702,3.922c1.041-0.006,2.083,0.022,3.125,0  c0.124-0.194-0.687-0.53-0.658-0.842c0.068-0.73,1.033-5.779,1.558-7.703c1.667,2.269,1.748,2.085,2.014,3.81  c0.26,1.684,0.178,2.981,0.22,4.583c1.016,0,3.395,0.225,2.881-0.308c-0.504-0.522-2.757-11.816-2.098-11.938  c0.835-0.154,2.081,2.025,2.922,1.379c0.63-0.483-0.456-1.922-0.076-2.216c-0.136,0.105,3.571,0.248,3.702,0.269  c1.169,0.185,0.949,1.92,0.867,2.808c-0.086,0.934-0.455,1.857-1.388,2.225c-0.679,0.268-1.454,0.221-2.158,0.1  c-1.17-0.201-1.259-1.177-1.869,0.303c-0.063,0.152,2.028,0.615,2.152,0.631c1.254,0.164,2.682,0.022,3.588-0.961  c0.907-0.984,1.43-3.036,1.58-4.353C30.106,15.513,31.79,14.869,32.015,13.524z" fill="#404041"/></svg>