<?xml version="1.0" encoding="utf-8"?>
<!-- Generator: Adobe Illustrator 23.0.5, SVG Export Plug-In . SVG Version: 6.00 Build 0)  -->
<svg version="1.1" id="Layer_1" xmlns="http://www.w3.org/2000/svg" x="0px"
     y="0px"
     viewBox="0 0 706.6 566.3" style="enable-background:new 0 0 706.6 566.3;" xml:space="preserve">
<style type="text/css">
	.st0{fill:none;stroke:#3FA9F5;stroke-miterlimit:10;}
	.st1{fill:none;stroke:orange;stroke-width:5;stroke-miterlimit:10;}
</style>
    <title>shape4</title>
    <g id="grid">
	<rect x="3" y="2.7" class="st0" width="140" height="140"/>
        <rect x="143" y="2.7" class="st0" width="140" height="140"/>
        <rect x="283" y="2.7" class="st0" width="140" height="140"/>
        <rect x="423" y="2.7" class="st0" width="140" height="140"/>
        <rect x="563" y="2.7" class="st0" width="140" height="140"/>
        <rect x="3" y="142.7" class="st0" width="140" height="140"/>
        <rect x="143" y="142.7" class="st0" width="140" height="140"/>
        <rect x="283" y="142.7" class="st0" width="140" height="140"/>
        <rect x="423" y="142.7" class="st0" width="140" height="140"/>
        <rect x="563" y="142.7" class="st0" width="140" height="140"/>
        <rect x="3" y="282.7" class="st0" width="140" height="140"/>
        <rect x="143" y="282.7" class="st0" width="140" height="140"/>
        <rect x="283" y="282.7" class="st0" width="140" height="140"/>
        <rect x="423" y="282.7" class="st0" width="140" height="140"/>
        <rect x="563" y="282.7" class="st0" width="140" height="140"/>
        <rect x="3" y="422.7" class="st0" width="140" height="140"/>
        <rect x="143" y="422.7" class="st0" width="140" height="140"/>
        <rect x="283" y="422.7" class="st0" width="140" height="140"/>
        <rect x="423" y="422.7" class="st0" width="140" height="140"/>
        <rect x="563" y="422.7" class="st0" width="140" height="140"/>
</g>
    <g id="shape4">
	<line class="st1" x1="282.5" y1="143.2" x2="282.5" y2="563.2"/>
        <line class="st1" x1="562.5" y1="283.2" x2="282.5" y2="563.2"/>
        <line class="st1" x1="282.5" y1="143.2" x2="562.5" y2="143.2"/>
        <line class="st1" x1="562.5" y1="283.2" x2="562.5" y2="143.2"/>
        <line class="st1" x1="422.5" y1="423.2" x2="422.5" y2="143.2"/>
        <line class="st1" x1="282.5" y1="283.2" x2="562.5" y2="283.2"/>
        <line class="st1" x1="282.5" y1="423.2" x2="422.5" y2="423.2"/>
</g>
</svg>
