<svg width="100" height="50" xmlns="http://www.w3.org/2000/svg">

 <g>
  <title>background</title>
  <rect fill="none" id="canvas_background" height="52" width="102" y="-1" x="-1"/>
 </g>
 <g>
  <title>Layer 1</title>
  <path fill="#1ab5ed" id="svg_12" d="m51.513259,38.596764c-4.53,0 -8.2,-3.68 -8.2,-8.2c0,-4.48 3.59,-8.13 8.06,-8.21c0.53,-8 7.19,-14.32 15.33,-14.32c6.57,0 12.17,4.12 14.37,9.92c0.61,-0.11 1.24,-0.17 1.88,-0.17c5.33,0 9.74,3.98 10.4,9.13c3.27,0 5.92,2.65 5.92,5.92c0,3.23 -2.57,5.85 -5.77,5.92c-14,0.2 -27.99,0.01 -41.99,0.01z" class="fil3"/>
  <path fill="#90dff9" id="svg_10" d="m42.486268,46.845564c-4.53,0 -8.2,-3.68 -8.2,-8.2c0,-4.48 3.59,-8.13 8.06,-8.21c0.53,-8 7.19,-14.32 15.33,-14.32c6.57,0 12.17,4.12 14.37,9.92c0.61,-0.11 1.24,-0.17 1.88,-0.17c5.33,0 9.74,3.98 10.4,9.13c3.27,0 5.92,2.65 5.92,5.92c0,3.23 -2.57,5.85 -5.77,5.92c-14,0.2 -27.99,0.01 -41.99,0.01z" class="fil3"/>
  <path fill="#ffc106" id="svg_1" d="m40.374159,8.946839c5.97,1.6 9.83,7.12 9.57,13.05c-1.75,-1.18 -3.85,-1.86 -6.1,-1.86c-0.49,0 -0.98,0.03 -1.45,0.09c-0.52,-3.82 -3.79,-6.76 -7.76,-6.76c-2.72,0 -5.12,1.39 -6.52,3.49c-0.97,-0.25 -1.98,-0.41 -3.01,-0.47c2.43,-5.91 8.93,-9.24 15.27,-7.54z" class="fil0"/>
  <path fill-rule="nonzero" fill="#ffc106" id="svg_2" d="m35.784159,1.826839c0,-0.69 0.56,-1.25 1.25,-1.25c0.69,0 1.25,0.56 1.25,1.25l0,1.99c0,0.69 -0.56,1.25 -1.25,1.25c-0.69,0 -1.25,-0.56 -1.25,-1.25l0,-1.99z" class="fil1"/>
  <path fill-rule="nonzero" fill="#ffc106" id="svg_3" d="m45.754159,3.826839c0.35,-0.6 1.11,-0.8 1.71,-0.46c0.59,0.35 0.79,1.11 0.45,1.71l-1,1.73c-0.35,0.59 -1.11,0.79 -1.7,0.45c-0.6,-0.35 -0.8,-1.11 -0.46,-1.7l1,-1.73z" class="fil1"/>
  <path fill-rule="nonzero" fill="#ffc106" id="svg_4" d="m53.384159,10.546839c0.6,-0.34 1.36,-0.14 1.7,0.46c0.34,0.59 0.14,1.35 -0.46,1.69l-1.73,1c-0.59,0.34 -1.35,0.14 -1.69,-0.46c-0.35,-0.59 -0.14,-1.35 0.45,-1.7l1.73,-0.99z" class="fil1"/>
  <path fill-rule="nonzero" fill="#ffc106" id="svg_5" d="m56.634159,20.166839c0.69,0 1.25,0.56 1.25,1.25c0,0.69 -0.56,1.25 -1.25,1.25l-2,0c-0.69,0 -1.25,-0.56 -1.25,-1.25c0,-0.69 0.56,-1.25 1.25,-1.25l2,0z" class="fil1"/>
  <path fill-rule="nonzero" fill="#ffc106" id="svg_6" d="m19.444159,12.696839c-0.6,-0.34 -0.8,-1.1 -0.46,-1.69c0.34,-0.6 1.1,-0.8 1.7,-0.46l1.73,0.99c0.59,0.35 0.8,1.11 0.46,1.7c-0.35,0.6 -1.11,0.8 -1.7,0.46l-1.73,-1z" class="fil1"/>
  <path fill-rule="nonzero" fill="#ffc106" id="svg_7" d="m26.154159,5.066839c-0.34,-0.59 -0.13,-1.35 0.46,-1.7c0.6,-0.34 1.36,-0.13 1.7,0.46l1,1.73c0.34,0.6 0.14,1.36 -0.46,1.7c-0.59,0.34 -1.36,0.14 -1.7,-0.46l-1,-1.73z" class="fil1"/>
  <path fill="#0e6096" id="svg_8" d="m7.174159,46.946839c-0.2,-0.05 -0.39,-0.1 -0.59,-0.16c0.2,0.06 0.39,0.11 0.59,0.16zm-0.97,-0.29c-0.37,-0.14 -0.74,-0.3 -1.09,-0.49c0.35,0.19 0.72,0.35 1.09,0.49zm-1.09,-0.49c-1.39,-0.76 -2.54,-1.91 -3.3,-3.3c0.76,1.39 1.91,2.54 3.3,3.3zm-3.3,-3.31c-0.19,-0.34 -0.35,-0.71 -0.49,-1.08c0.14,0.37 0.3,0.74 0.49,1.08zm-0.62,-1.47c-0.06,-0.19 -0.11,-0.38 -0.16,-0.58c0.05,0.2 0.1,0.39 0.16,0.58zm7.68,-10.64c0.1,-1.49 0.42,-2.93 0.91,-4.27c-0.49,1.34 -0.8,2.78 -0.9,4.27l-0.01,0zm19.25,-13.82c1.41,-2.09 3.8,-3.47 6.51,-3.47c3.96,0 7.24,2.94 7.75,6.76c0.48,-0.06 0.96,-0.09 1.45,-0.09c6.05,0 10.95,4.9 10.95,10.95c0,1.77 -0.42,3.43 -1.16,4.91c-0.82,-0.43 -1.76,-0.68 -2.76,-0.68c-0.66,-5.15 -5.06,-9.13 -10.4,-9.13c-0.64,0 -1.27,0.06 -1.88,0.17c-1.75,-4.61 -5.64,-8.15 -10.46,-9.42z" class="fil2"/>
  <path fill="#1ab5ed" id="svg_9" d="m9.024159,47.156839c-4.53,0 -8.2,-3.68 -8.2,-8.2c0,-4.48 3.59,-8.13 8.06,-8.21c0.53,-8 7.19,-14.32 15.33,-14.32c6.57,0 12.17,4.12 14.37,9.92c0.61,-0.11 1.24,-0.17 1.88,-0.17c5.33,0 9.74,3.98 10.4,9.13c3.27,0 5.92,2.65 5.92,5.92c0,3.23 -2.57,5.85 -5.77,5.92c-14,0.2 -27.99,0.01 -41.99,0.01z" class="fil3"/>
  <path fill="#0e6096" id="svg_11" d="m7.174159,46.946839c-0.2,-0.05 -0.39,-0.1 -0.59,-0.16c0.2,0.06 0.39,0.11 0.59,0.16zm-0.97,-0.29c-0.37,-0.14 -0.74,-0.3 -1.09,-0.49c0.35,0.19 0.72,0.35 1.09,0.49zm-1.09,-0.49c-1.39,-0.76 -2.54,-1.91 -3.3,-3.3c0.76,1.39 1.91,2.54 3.3,3.3zm-3.3,-3.31c-0.19,-0.34 -0.35,-0.71 -0.49,-1.08c0.14,0.37 0.3,0.74 0.49,1.08zm-0.62,-1.47c-0.06,-0.19 -0.11,-0.38 -0.16,-0.58c0.05,0.2 0.1,0.39 0.16,0.58zm7.68,-10.64c0.1,-1.49 0.42,-2.93 0.91,-4.27c-0.49,1.34 -0.8,2.78 -0.9,4.27l-0.01,0zm19.25,-13.82c1.41,-2.09 3.8,-3.47 6.51,-3.47c3.96,0 7.24,2.94 7.75,6.76c0.48,-0.06 0.96,-0.09 1.45,-0.09c6.05,0 10.95,4.9 10.95,10.95c0,1.77 -0.42,3.43 -1.16,4.91c-0.82,-0.43 -1.76,-0.68 -2.76,-0.68c-0.66,-5.15 -5.06,-9.13 -10.4,-9.13c-0.64,0 -1.27,0.06 -1.88,0.17c-1.75,-4.61 -5.64,-8.15 -10.46,-9.42z" class="fil2"/>
 </g>
</svg>