<svg width="150" height="100" xmlns="http://www.w3.org/2000/svg">

 <g>
  <title>background</title>
  <rect fill="#b2ffff" id="canvas_background" height="102" width="152" y="-1" x="-1"/>
 </g>
 <g>
  <title>Layer 1</title>
  <path stroke="#191919" fill="#ffff00" clip-rule="evenodd" fill-rule="evenodd" id="svg_8" d="m73.475065,29.722998c-0.619096,0 -1.582134,-0.280148 -1.582134,-2.101107c0,-5.18273 -4.127306,-9.384944 -9.21765,-9.384944c-0.275154,0 -0.412731,0 -0.550307,0c-1.031826,-0.140074 -1.513346,-0.91048 -1.513346,-1.610849c0,-0.490258 0.206365,-1.610849 2.063653,-1.610849c5.090344,0 9.21765,-4.202214 9.21765,-9.384944c0,-1.890996 1.100615,-2.101107 1.582134,-2.101107c0.481519,0 1.582134,0.210111 1.582134,2.101107c0,5.18273 4.127306,9.384944 9.21765,9.384944c1.857288,0 2.063653,1.12059 2.063653,1.610849c0,0.700369 -0.481519,1.470775 -1.513346,1.610849c-0.137577,0 -0.343942,0 -0.550307,0c-5.090344,0 -9.21765,4.202214 -9.21765,9.384944c0,0.280148 0,0.490258 0,0.560295c-0.137577,1.050553 -0.89425,1.540812 -1.582134,1.540812c0,0 0,0 0,0z" class="st1"/>
  <path stroke="#191919" fill="#ffff00" clip-rule="evenodd" fill-rule="evenodd" id="svg_11" d="m94.73411,50.752196c-0.4,0 -2.3,-0.1 -2.3,-2.8c0,-4.7 -3.8,-8.5 -8.5,-8.5c-0.3,0 -0.5,0 -0.6,0c-1.5,-0.2 -2.1,-1.3 -2.1,-2.3c0,-0.4 0.1,-2.3 2.8,-2.3c4.7,0 8.5,-3.8 8.5,-8.5c0,-2.6 1.9,-2.8 2.3,-2.8c0.4,0 2.3,0.1 2.3,2.8c0,4.7 3.8,8.5 8.5,8.5c2.7,0 2.8,1.9 2.8,2.3s-0.1,2.3 -2.8,2.3c-4.7,0 -8.5,3.8 -8.5,8.5c0,0.3 0,0.5 0,0.6c-0.3,1.5 -1.4,2.2 -2.4,2.2c0,0 0,0 0,0z" class="st1"/>
  <path stroke="#191919" fill="#ffff00" clip-rule="evenodd" fill-rule="evenodd" id="svg_2" d="m42.908835,86.878101c-0.575657,0 -1.151314,0 -1.726971,-0.055283c-19.745037,-0.82925 -35.460475,-16.419155 -35.748304,-35.381345c-0.172697,-9.72987 3.684205,-18.906906 10.764787,-25.817325c7.080582,-6.910419 16.578923,-10.72497 26.710488,-10.72497c0.863486,0 1.726971,0.055283 2.648022,0.110567c0.748354,0.055283 1.381577,0.552834 1.554274,1.271517c0.172697,0.718684 -0.115131,1.437367 -0.748354,1.824351c-7.77137,4.699085 -12.549324,13.433854 -12.549324,22.832024c0,14.484238 11.167747,26.314875 24.868385,26.314875c6.562491,0 12.779587,-2.708884 17.442409,-7.573819c0.287829,-0.3317 0.748354,-0.49755 1.151314,-0.49755c0.518091,0 0.978617,0.221133 1.266446,0.608117c0.287829,0.386983 0.40296,0.884534 0.230263,1.3268c-4.662822,15.202922 -19.399643,25.762042 -35.863435,25.762042z" class="st0"/>
  <path stroke="null" fill="#ffbc33" clip-rule="evenodd" fill-rule="evenodd" id="svg_6" d="m12.456576,51.441473c-0.287829,-18.409356 14.391427,-33.612277 33.100281,-35.104928c-0.057566,0 -0.115131,-0.055283 -0.172697,-0.055283c-0.863486,-0.055283 -1.669405,-0.110567 -2.532891,-0.110567c-20.147997,0 -36.439092,15.811038 -36.151264,35.270778c0.287829,18.243506 15.485175,33.335861 34.481858,34.165111c1.554274,0.055283 3.108548,0.055283 4.605257,-0.055283c-18.421026,-1.382084 -33.042715,-16.253305 -33.330544,-34.109828z" class="st1"/>
  <path stroke="#191919" fill="#ffff00" clip-rule="evenodd" fill-rule="evenodd" id="svg_15" d="m116.212662,72.230752c-0.4,0 -2.3,-0.1 -2.3,-2.8c0,-4.7 -3.8,-8.5 -8.5,-8.5c-0.3,0 -0.5,0 -0.6,0c-1.5,-0.2 -2.1,-1.3 -2.1,-2.3c0,-0.4 0.1,-2.3 2.8,-2.3c4.7,0 8.5,-3.8 8.5,-8.5c0,-2.6 1.9,-2.8 2.3,-2.8c0.4,0 2.3,0.1 2.3,2.8c0,4.7 3.8,8.5 8.5,8.5c2.7,0 2.8,1.9 2.8,2.3s-0.1,2.3 -2.8,2.3c-4.7,0 -8.5,3.8 -8.5,8.5c0,0.3 0,0.5 0,0.6c-0.3,1.5 -1.4,2.2 -2.4,2.2c0,0 0,0 0,0z" class="st1"/>
  <path stroke="#191919" fill="#ffff00" clip-rule="evenodd" fill-rule="evenodd" id="svg_16" d="m112.477259,28.806719c-0.4,0 -2.3,-0.1 -2.3,-2.8c0,-4.7 -3.8,-8.5 -8.5,-8.5c-0.3,0 -0.5,0 -0.6,0c-1.5,-0.2 -2.1,-1.3 -2.1,-2.3c0,-0.4 0.1,-2.3 2.8,-2.3c4.7,0 8.5,-3.8 8.5,-8.5c0,-2.6 1.9,-2.8 2.3,-2.8c0.4,0 2.3,0.1 2.3,2.8c0,4.7 3.8,8.5 8.5,8.5c2.7,0 2.8,1.9 2.8,2.3s-0.1,2.3 -2.8,2.3c-4.7,0 -8.5,3.8 -8.5,8.5c0,0.3 0,0.5 0,0.6c-0.3,1.5 -1.4,2.2 -2.4,2.2c0,0 0,0 0,0z" class="st1"/>
  <path stroke="#191919" fill="#ffff00" clip-rule="evenodd" fill-rule="evenodd" id="svg_17" d="m133.488887,48.417573c-0.4,0 -2.3,-0.1 -2.3,-2.8c0,-4.7 -3.8,-8.5 -8.5,-8.5c-0.3,0 -0.5,0 -0.6,0c-1.5,-0.2 -2.1,-1.3 -2.1,-2.3c0,-0.4 0.1,-2.3 2.8,-2.3c4.7,0 8.5,-3.8 8.5,-8.5c0,-2.6 1.9,-2.8 2.3,-2.8c0.4,0 2.3,0.1 2.3,2.8c0,4.7 3.8,8.5 8.5,8.5c2.7,0 2.8,1.9 2.8,2.3s-0.1,2.3 -2.8,2.3c-4.7,0 -8.5,3.8 -8.5,8.5c0,0.3 0,0.5 0,0.6c-0.3,1.5 -1.4,2.2 -2.4,2.2c0,0 0,0 0,0z" class="st1"/>
  <line stroke="#7f7f7f" stroke-linecap="null" stroke-linejoin="null" id="svg_20" y2="90.982405" x2="132.665238" y1="91.449326" x1="5.194694" stroke-width="null" fill="none"/>
  <line stroke="#7f7f7f" stroke-linecap="null" stroke-linejoin="null" id="svg_21" y2="93.783955" x2="132.665238" y1="94.250876" x1="5.194694" stroke-width="null" fill="none"/>
  <line stroke="#7f7f7f" stroke-linecap="null" stroke-linejoin="null" id="svg_22" y2="96.585506" x2="132.665238" y1="97.052426" x1="5.194694" stroke-width="null" fill="none"/>
 </g>
</svg>