<?xml version="1.0" ?>
<svg id="Слой_1" style="enable-background:new 0 0 512 512;" version="1.1" viewBox="0 0 512 512" xml:space="preserve"
     xmlns="http://www.w3.org/2000/svg"><style type="text/css">
	.st0{fill:#98A655;}
	.st1{fill:#C3D659;}
	.st2{fill:#836246;}
	.st3{fill:#FFFFFF;}
	.st4{fill:#6A9E5C;}
	.st5{fill:#5F965A;}
</style>
    <g id="XMLID_9_"><g id="XMLID_18_"><path class="st0" d="M281.6,473.7h-22.9c-60.5-2.3-102.6-23.6-125.1-63.3c-10-17.5-15.1-37-17.1-56.4    c-4.6,31-3.4,68.8,14.3,99.9c20.7,36.4,59.2,56,114.7,58.1h21l0.1,0c55.3-2.1,93.9-21.6,114.6-58.1c4.1-7.2,7.2-14.7,9.7-22.4    C366.6,457.6,330.2,471.9,281.6,473.7L281.6,473.7z" id="XMLID_7_"/><path
            class="st1"
            d="M381,303.6c-11.4-22.4-26-58.4-44.5-104c-4.5-11.1-9.3-22.8-14.3-35    c-13.2-32.3-28.2-52.8-62.3-55l-8.3,0c-33.8,2.2-48.8,22.7-62,55c-5,12.2-9.7,23.9-14.3,35c-18.5,45.6-33.1,81.6-44.5,104    c-5.2,10.3-11.2,28.7-14.4,50.4c2,19.4,7.1,38.9,17.1,56.4c22.5,39.7,64.6,61,125.1,63.3h22.9l0.1,0    c48.5-1.8,84.9-16.2,109.2-42.2C406.6,382.2,392,325.1,381,303.6z"
            id="XMLID_6_"/></g>
        <g id="XMLID_14_"><path class="st0" d="M278.1,131.2c0,5-9.4,9.1-21,9.1c-11.6,0-21-4.1-21-9.1c0-5,9.4-9.1,21-9.1    C268.7,122,278.1,126.1,278.1,131.2z" id="XMLID_5_"/>
            <g id="XMLID_15_"><path class="st2" d="M260.6,131.2c-2.1-7.2-2.4-23.9,14.9-60.4l-11.1-1.1c-13.9,33.5-13.7,51.6-11.5,61.5H260.6z" id="XMLID_4_"/></g></g>
        <path class="st3"
              d="M298.2,198.8c-5.6,1.3-12.5-7.7-15.5-20.1c-3-12.5-0.9-23.7,4.6-25c5.6-1.3,12.5,7.7,15.5,20.1   C305.8,186.3,303.7,197.5,298.2,198.8z"
              id="XMLID_3_"/>
        <g id="XMLID_10_"><path class="st4" d="M260,73.9C257.7,46.6,237.9,5,139.5,0c3.2,14.8,7,27.5,11.2,38.5    C207.7,100.7,247.2,82.7,260,73.9z" id="XMLID_2_"/>
            <path class="st5"
                  d="M257.9,97.6c0,0,3.2-10.1,2.1-23.7c-12.7,8.9-52.3,26.8-109.3-35.4    C187.6,135.3,257,97.8,257.9,97.6z"
                  id="XMLID_1_"/></g></g></svg>
