<svg width="922.0000000000001" height="451.99999999999994" xmlns="http://www.w3.org/2000/svg">
 <g>
  <title>background</title>
  <rect x="-1" y="-1" width="924" height="454" id="canvas_background" fill="none"/>
 </g>
 <g>
  <title>Layer 1</title>
  <path transform="rotate(-81.58456420898438 353.1860656738282,141.9476318359375) " class="st0" d="m380.444613,168.187627c-7.04167,1.87236 -14.08334,2.45747 -20.68239,1.67732l0,0c-0.12072,0 -0.24143,-0.03901 -0.32191,-0.03901c-0.04023,0 -0.12071,0 -0.16095,-0.03901c-0.16095,-0.039 -0.3219,-0.039 -0.48286,-0.07801c-0.12071,-0.03901 -0.20119,-0.03901 -0.3219,-0.07802c-0.16095,-0.039 -0.32191,-0.07801 -0.5231,-0.15603c-0.08047,0 -0.16095,-0.039 -0.20119,-0.07801c-0.08047,0 -0.12071,-0.03901 -0.20119,-0.07802c-0.12071,-0.039 -0.20119,-0.07801 -0.3219,-0.11702c-0.12072,-0.03901 -0.20119,-0.07801 -0.32191,-0.11702c-6.03571,-2.80854 -6.96119,-11.74126 -12.3531,-16.92926c-5.3919,-5.188 -14.56619,-6.08518 -17.46334,-11.97531c-0.04024,-0.07802 -0.08047,-0.19504 -0.12071,-0.31206c-0.04024,-0.11702 -0.08048,-0.19504 -0.12072,-0.31206c-0.04023,-0.07802 -0.04023,-0.11702 -0.08047,-0.19504c-0.04024,-0.07801 -0.04024,-0.15603 -0.08048,-0.19504c-0.04024,-0.15603 -0.12071,-0.31206 -0.16095,-0.5071c-0.04024,-0.11702 -0.04024,-0.19503 -0.08048,-0.31206c-0.04024,-0.15603 -0.08047,-0.31206 -0.08047,-0.46809c0,-0.039 -0.04024,-0.11702 -0.04024,-0.15603c0,-0.11702 -0.04024,-0.23404 -0.04024,-0.31206l0,0c-0.96572,-7.52845 0.04024,-15.68102 2.89714,-23.71657c8.20858,5.22701 14.00287,10.25898 18.38882,15.99309c2.05214,2.76953 3.94334,5.7341 5.75405,8.62066c3.01786,4.75891 6.19667,9.67386 10.18024,14.0427c4.02381,4.75892 9.69739,10.96112 16.94025,15.83706z" id="svg_444" fill="#3b4652" stroke="null"/>
  <path transform="rotate(-81.58456420898438 341.33337402343756,122.56386566162114) " class="st0" d="m380.646026,147.06058c-6.96119,6.28021 -14.72714,11.00012 -22.65405,14.08172c-8.40977,-4.71991 -14.96858,-11.85829 -19.39477,-17.0853c-0.04024,-0.039 -0.04024,-0.07801 -0.08048,-0.07801c-3.70191,-4.01778 -6.59905,-8.54265 -9.65715,-13.30156c-1.89119,-2.96458 -3.82262,-5.96815 -5.99547,-8.93273c0,0 0,-0.039 -0.04024,-0.039c-4.94929,-6.51426 -11.46786,-12.17035 -20.80311,-17.98247l0,0c3.17881,-6.90433 7.68548,-13.61362 13.56025,-19.7378l65.06502,63.07515z" id="svg_445" fill="#3b4652" stroke="null"/>
  <path transform="rotate(-81.58456420898438 326.6650695800781,102.17092132568361) " class="st0" d="m366.460583,118.300528c-3.17882,7.68448 -8.04763,15.21293 -14.52596,21.96123l-65.06503,-63.03615c6.27715,-5.69509 13.23834,-10.06394 20.36048,-13.14553c5.99548,9.04974 11.83001,15.36896 18.54977,20.16689c0,0 0.04024,0.039 0.04024,0.039c3.01786,2.10641 6.15643,3.97877 9.21453,5.81212c4.94929,2.96458 9.57667,5.77312 13.7212,9.36181c0.04023,0.03901 0.04023,0.03901 0.08047,0.07801c5.39191,4.25182 12.75548,10.64906 17.6243,18.76262z" id="svg_446" fill="#3b4652" stroke="null"/>
  <path transform="rotate(-81.58456420898438 312.1749572753906,84.85667419433594) " class="st0" d="m339.256825,111.223041c-5.07,-6.98234 -11.42763,-12.4824 -16.33668,-16.34415c-4.50666,-3.90075 -9.57667,-6.94334 -14.48572,-9.8689c-2.93738,-1.75534 -5.99547,-3.58869 -8.89262,-5.57807c-5.915,-4.25182 -11.14596,-9.8299 -16.49762,-17.78743c8.28905,-2.76954 16.69881,-3.74472 24.46477,-2.80854c0.24143,0.039 0.44262,0.039 0.68405,0.07801c0.20119,0.03901 0.40238,0.03901 0.56333,0.07802c0,0 0.04024,0 0.04024,0c0.20119,0.039 0.36214,0.07801 0.56333,0.11702c0.16095,0.03901 0.28167,0.07801 0.44262,0.11702c0.08048,0.03901 0.16095,0.03901 0.20119,0.07802c0.12071,0.039 0.28167,0.07801 0.40238,0.11702c0.24143,0.07801 0.44262,0.15603 0.64381,0.27305c0.12072,0.03901 0.20119,0.11702 0.32191,0.15603c0.20119,0.11702 0.40238,0.19504 0.60357,0.31206c0.36214,0.19504 0.68405,0.39008 1.00595,0.62412c0.16095,0.11702 0.28167,0.19504 0.40238,0.31206c0.40238,0.31206 0.80476,0.66313 1.16691,1.0142c0.12071,0.11702 0.24143,0.23404 0.36214,0.35107c0.12071,0.11702 0.20119,0.23404 0.32191,0.35106c3.17881,3.47167 5.23095,8.50364 9.01333,12.20936c3.78238,3.6667 9.01334,5.65609 12.59453,8.73768c0.12072,0.11702 0.24143,0.19504 0.32191,0.31206c0.12071,0.11702 0.24142,0.23404 0.36214,0.35107c0.36214,0.35106 0.72429,0.74114 1.04619,1.13122c0.12071,0.11702 0.20119,0.27305 0.3219,0.42908c0.24143,0.31206 0.44262,0.62412 0.64381,0.97519c0.12072,0.19503 0.24143,0.39007 0.32191,0.58511c0.04024,0.11702 0.12071,0.19504 0.16095,0.31206c0.08048,0.19504 0.20119,0.42908 0.28167,0.62412c0.04024,0.11702 0.08048,0.23404 0.12071,0.39007c0.04024,0.07802 0.04024,0.15603 0.08048,0.23405c0.04024,0.15603 0.08048,0.27305 0.12071,0.42908c0.04024,0.15603 0.08048,0.35107 0.12072,0.54611c0,0 0,0.039 0,0.039c0.04024,0.19504 0.08047,0.35107 0.08047,0.54611c0.04024,0.23405 0.04024,0.42908 0.08048,0.66313c0.88524,6.28021 0.28167,13.06752 -1.64976,19.89383z" id="svg_447" fill="#3b4652" stroke="null"/>
  <path transform="rotate(-81.58456420898438 286.6795959472656,46.94218826293946) " class="st1" d="m304.250031,70.843764c-5.67357,5.50006 -11.78977,9.55684 -17.06096,11.70225c-0.04024,-0.23404 -0.08048,-0.5071 -0.12071,-0.74114l-0.16096,-0.85817l-0.04023,-0.07801c-0.04024,-0.19504 -0.08048,-0.35107 -0.16096,-0.54611c-0.04024,-0.11702 -0.08047,-0.19503 -0.08047,-0.31206c-0.08048,-0.19503 -0.16096,-0.42908 -0.20119,-0.62412c-0.12072,-0.31206 -0.24143,-0.66312 -0.40239,-0.97518c-0.04023,-0.11703 -0.08047,-0.19504 -0.16095,-0.31206l-0.04024,-0.11703c-0.16095,-0.31206 -0.3219,-0.66313 -0.52309,-0.97519c-0.32191,-0.50709 -0.64381,-1.01419 -0.96572,-1.44327c-0.12071,-0.15603 -0.28166,-0.39008 -0.48285,-0.62412c-0.44262,-0.54611 -0.92548,-1.05321 -1.48881,-1.59931l-0.04024,-0.03901c-0.16095,-0.11702 -0.28167,-0.27305 -0.44262,-0.42908c-0.12072,-0.11702 -0.28167,-0.23405 -0.44262,-0.39008c-1.97167,-1.67732 -4.18476,-3.00358 -6.31738,-4.29082c-2.25334,-1.36527 -4.4262,-2.65252 -6.03572,-4.21282c-1.60952,-1.5603 -2.93738,-3.6667 -4.34572,-5.85112c-1.32785,-2.0674 -2.69595,-4.21282 -4.42619,-6.08518l-0.04024,-0.039c-0.12071,-0.11703 -0.24143,-0.27306 -0.36214,-0.39008c-0.16095,-0.15603 -0.28167,-0.27305 -0.44262,-0.46809c-0.52309,-0.5461 -1.08643,-1.01419 -1.64976,-1.44328c-0.24143,-0.19503 -0.48286,-0.35106 -0.64381,-0.46809c-0.48286,-0.35107 -0.96572,-0.66313 -1.48881,-0.93618c-0.36214,-0.19504 -0.68405,-0.39007 -1.04619,-0.5461l-0.12072,-0.03901c-0.12071,-0.03901 -0.20119,-0.11702 -0.3219,-0.15603c-0.36214,-0.15603 -0.68405,-0.27305 -1.00595,-0.39008c-0.2012,-0.07801 -0.44262,-0.15603 -0.64381,-0.19503c-0.12072,-0.03901 -0.20119,-0.07802 -0.32191,-0.07802c-0.20119,-0.07801 -0.40238,-0.11702 -0.64381,-0.15603l-0.08048,-0.03901l-0.80476,-0.15603c-0.24143,-0.039 -0.48285,-0.07801 -0.76452,-0.11702c2.17286,-5.10998 6.39786,-11.03913 12.07143,-16.53919c11.38739,-11.03912 18.4693,-22.07825 23.17715,-17.47536c2.49477,2.41846 8.16834,12.87248 5.63334,18.37254c5.67357,-2.45748 10.46191,-2.76954 12.95667,-0.35107c2.49476,2.41847 2.17286,7.09937 -0.36214,12.56042c5.67357,-2.45747 16.45739,3.04259 18.95215,5.46105c4.66762,4.48587 -6.71977,11.35119 -18.10715,22.39032z" id="svg_448" fill="#2b79c2" stroke="null"/>
  <path transform="rotate(-81.58456420898438 380.8331298828125,178.1439361572266) " class="st1" d="m417.600431,178.719568c-2.17286,5.10999 -6.35762,11.03913 -12.07143,16.53919c-11.38739,11.03913 -18.46929,22.07825 -23.17715,17.47537c-2.49477,-2.41847 -8.16834,-12.87249 -5.63334,-18.37254c-5.67357,2.45747 -10.46191,2.76953 -12.95667,0.35106c-2.49476,-2.41846 -2.17286,-7.09937 0.36214,-12.56042c-5.67357,2.45748 -16.45739,-3.04258 -18.95215,-5.46105c-4.7481,-4.60289 6.63929,-11.46821 18.02668,-22.50734c5.67357,-5.50006 11.78976,-9.59585 17.06095,-11.70225c0.04024,0.23404 0.08048,0.42908 0.12072,0.66313l0.12071,0.42908c0.08048,0.27305 0.16096,0.5461 0.24143,0.78015c0.04024,0.15603 0.08048,0.27305 0.12072,0.39007c0.04023,0.15603 0.12071,0.27306 0.16095,0.39008c0.04024,0.15603 0.12071,0.31206 0.20119,0.42908c0.08048,0.19504 0.16095,0.35107 0.24143,0.54611c2.49476,4.99296 7.40381,7.33341 11.70929,9.3618c2.65571,1.24824 5.15048,2.45747 6.84048,4.05678c1.64976,1.63832 2.89714,4.05678 4.18476,6.63128c2.13262,4.21281 4.50667,8.93272 9.65715,11.35119c0.16095,0.07801 0.36214,0.15603 0.52309,0.23404c0.16096,0.07802 0.32191,0.11703 0.48286,0.19504c0.12072,0.03901 0.24143,0.07802 0.40238,0.15603c0.12072,0.03901 0.28167,0.07802 0.40238,0.11702c0.24143,0.07802 0.5231,0.15603 0.80477,0.23405l0.44261,0.11702c0.24143,0.07802 0.44262,0.11702 0.68405,0.15603z" id="svg_449" fill="#2b79c2" stroke="null"/>
  <path class="st0" d="m148.000745,159.829983c-6.88558,1.82951 -13.77115,2.40124 -20.22392,1.63894l0,0c-0.11804,0 -0.23608,-0.03812 -0.31477,-0.03812c-0.03934,0 -0.11804,0 -0.15738,-0.03811c-0.15739,-0.03812 -0.31477,-0.03812 -0.47216,-0.07623c-0.11803,-0.03812 -0.19673,-0.03812 -0.31477,-0.07623c-0.15738,-0.03812 -0.31476,-0.07623 -0.5115,-0.15246c-0.07869,0 -0.15738,-0.03812 -0.19673,-0.07623c-0.07869,0 -0.11803,-0.03812 -0.19673,-0.07623c-0.11804,-0.03812 -0.19673,-0.07623 -0.31477,-0.11435c-0.11803,-0.03811 -0.19673,-0.07623 -0.31477,-0.11434c-5.90192,-2.74428 -6.80688,-11.4726 -12.07926,-16.54188c-5.27238,-5.06929 -14.2433,-5.94593 -17.07622,-11.70129c-0.03935,-0.07623 -0.0787,-0.19057 -0.11804,-0.30492c-0.03935,-0.11434 -0.07869,-0.19057 -0.11804,-0.30492c-0.03935,-0.07623 -0.03935,-0.11434 -0.07869,-0.19057c-0.03935,-0.07623 -0.03935,-0.15246 -0.07869,-0.19058c-0.03935,-0.15246 -0.11804,-0.30492 -0.15739,-0.49549c-0.03935,-0.11435 -0.03935,-0.19058 -0.07869,-0.30492c-0.03935,-0.15246 -0.07869,-0.30492 -0.07869,-0.45738c0,-0.03811 -0.03935,-0.11434 -0.03935,-0.15246c0,-0.11434 -0.03934,-0.22869 -0.03934,-0.30492l0,0c-0.94431,-7.35618 0.03934,-15.3222 2.83292,-23.17388c8.02661,5.1074 13.69245,10.02423 17.98118,15.62712c2.00666,2.70616 3.85592,5.6029 5.6265,8.4234c2.95096,4.65003 6.0593,9.45251 9.95457,13.72138c3.93462,4.65002 9.48242,10.7103 16.56473,15.47467z" id="svg_2" fill="#3b4652" stroke="null" transform="rotate(-94.6010971069336 121.34649658203128,134.1903991699219) "/>
  <path class="st0" d="m126.255515,117.894503c-3.10834,7.50864 -7.86923,14.86482 -14.20395,21.45871l-63.62271,-61.59374c6.138,-5.56478 12.94488,-9.83365 19.90915,-12.84473c5.86257,8.84266 11.56776,15.01728 18.13857,19.70542c0,0 0.03934,0.03812 0.03934,0.03812c2.95096,2.0582 6.01996,3.88772 9.01027,5.67912c4.83957,2.89674 9.36438,5.64101 13.41703,9.14758c0.03935,0.03812 0.03935,0.03812 0.07869,0.07623c5.27239,4.15453 12.47273,10.40538 17.23361,18.33329z" id="svg_4" fill="#3b4652" stroke="null" transform="rotate(-94.6010971069336 87.34221649169922,102.13396453857422) "/>
  <path class="st0" d="m96.217624,114.591959c-4.95761,-6.82257 -11.1743,-12.19678 -15.97453,-15.97016c-4.40677,-3.81149 -9.36438,-6.78446 -14.16461,-9.64308c-2.87227,-1.71517 -5.86258,-3.50657 -8.6955,-5.45043c-5.78388,-4.15453 -10.89888,-9.60497 -16.13191,-17.38041c8.1053,-2.70616 16.32864,-3.65904 23.92245,-2.74428c0.23607,0.03812 0.43281,0.03812 0.66888,0.07623c0.19673,0.03812 0.39346,0.03812 0.55085,0.07623c0,0 0.03934,0 0.03934,0c0.19674,0.03812 0.35412,0.07623 0.55085,0.11435c0.15739,0.03811 0.27542,0.07623 0.43281,0.11434c0.07869,0.03812 0.15738,0.03812 0.19673,0.07623c0.11804,0.03812 0.27542,0.07623 0.39346,0.11435c0.23608,0.07623 0.43281,0.15246 0.62954,0.2668c0.11804,0.03812 0.19673,0.11435 0.31477,0.15246c0.19673,0.11435 0.39346,0.19058 0.59019,0.30492c0.35411,0.19057 0.66888,0.38115 0.98365,0.60984c0.15739,0.11434 0.27543,0.19057 0.39346,0.30492c0.39346,0.30492 0.78693,0.64795 1.14104,0.99099c0.11804,0.11434 0.23608,0.22869 0.35412,0.34303c0.11803,0.11434 0.19673,0.22869 0.31477,0.34303c3.10834,3.39223 5.11499,8.30906 8.81353,11.92998c3.69854,3.5828 8.81354,5.52667 12.31534,8.53774c0.11804,0.11435 0.23608,0.19058 0.31477,0.30492c0.11804,0.11435 0.23608,0.22869 0.35412,0.34304c0.35411,0.34303 0.70823,0.72418 1.023,1.10533c0.11803,0.11434 0.19673,0.26681 0.31476,0.41926c0.23608,0.30492 0.43281,0.60984 0.62954,0.95288c0.11804,0.19057 0.23608,0.38115 0.31477,0.57172c0.03935,0.11435 0.11804,0.19058 0.15739,0.30492c0.07869,0.19057 0.19673,0.41926 0.27542,0.60984c0.03935,0.11434 0.07869,0.22869 0.11804,0.38115c0.03934,0.07623 0.03934,0.15246 0.07869,0.22869c0.03935,0.15246 0.07869,0.2668 0.11804,0.41926c0.03934,0.15246 0.07869,0.34304 0.11804,0.53361c0,0 0,0.03812 0,0.03812c0.03934,0.19057 0.07869,0.34303 0.07869,0.5336c0.03934,0.22869 0.03934,0.41927 0.07869,0.64796c0.86561,6.1365 0.27542,12.7685 -1.61319,19.43862z" id="svg_5" fill="#3b4652" stroke="null" transform="rotate(-94.6010971069336 69.73610687255858,88.82889556884764) "/>
  <path class="st1" d="m54.299073,81.67546c-5.5478,5.37421 -11.52842,9.33816 -16.68276,11.43448c-0.03935,-0.22869 -0.07869,-0.49549 -0.11804,-0.72418l-0.15738,-0.83853l-0.03935,-0.07623c-0.03935,-0.19057 -0.07869,-0.34303 -0.15739,-0.53361c-0.03934,-0.11434 -0.07869,-0.19057 -0.07869,-0.30492c-0.07869,-0.19057 -0.15738,-0.41926 -0.19673,-0.60984c-0.11804,-0.30491 -0.23607,-0.64795 -0.39346,-0.95287c-0.03935,-0.11434 -0.07869,-0.19057 -0.15738,-0.30492l-0.03935,-0.11434c-0.15739,-0.30492 -0.31477,-0.64796 -0.5115,-0.95288c-0.31477,-0.49549 -0.62954,-0.99098 -0.94431,-1.41025c-0.11804,-0.15246 -0.27542,-0.38115 -0.47215,-0.60984c-0.43281,-0.53361 -0.90496,-1.0291 -1.45581,-1.56271l-0.03934,-0.03811c-0.15739,-0.11435 -0.27543,-0.26681 -0.43281,-0.41927c-0.11804,-0.11434 -0.27542,-0.22869 -0.43281,-0.38115c-1.92796,-1.63894 -4.092,-2.93485 -6.17734,-4.19264c-2.20339,-1.33402 -4.32808,-2.59182 -5.90192,-4.11641c-1.57385,-1.5246 -2.87227,-3.58281 -4.24939,-5.71724c-1.29842,-2.0201 -2.63619,-4.11642 -4.32807,-5.94593l-0.03935,-0.03812c-0.11804,-0.11434 -0.23608,-0.2668 -0.35411,-0.38115c-0.15739,-0.15246 -0.27543,-0.2668 -0.43281,-0.45738c-0.5115,-0.53361 -1.06235,-0.99098 -1.61319,-1.41025c-0.23608,-0.19057 -0.47216,-0.34303 -0.62954,-0.45738c-0.47216,-0.34303 -0.94431,-0.64795 -1.45581,-0.91476c-0.35411,-0.19057 -0.66888,-0.38115 -1.023,-0.53361l-0.11804,-0.03811c-0.11803,-0.03812 -0.19673,-0.11435 -0.31477,-0.15246c-0.35411,-0.15246 -0.66888,-0.26681 -0.98365,-0.38115c-0.19673,-0.07623 -0.43281,-0.15246 -0.62954,-0.19057c-0.11804,-0.03812 -0.19673,-0.07623 -0.31477,-0.07623c-0.19673,-0.07623 -0.39346,-0.11435 -0.62953,-0.15246l-0.0787,-0.03812l-0.78692,-0.15246c-0.23608,-0.03811 -0.47215,-0.07623 -0.74758,-0.11434c2.1247,-4.99306 6.25604,-10.78653 11.80385,-16.16074c11.13495,-10.78652 18.05987,-21.57305 22.66337,-17.07549c2.43946,2.36313 7.98727,12.57793 5.50846,17.95214c5.54781,-2.40125 10.23,-2.70616 12.66946,-0.34304c2.43946,2.36313 2.12469,6.93692 -0.35412,12.27301c5.54781,-2.40124 16.09257,2.97297 18.53203,5.33609c4.56416,4.38322 -6.5708,11.09145 -17.70576,21.87797z" id="svg_7" fill="#00ff00" stroke="null" transform="rotate(-94.6010971069336 37.11814880371093,58.32080078124999) "/>
  <path class="st1" d="m191.586914,163.150245c-2.12469,4.99305 -6.21669,10.78653 -11.80384,16.16073c-11.13496,10.78653 -18.05988,21.57305 -22.66338,17.07549c-2.43946,-2.36312 -7.98727,-12.57793 -5.50846,-17.95213c-5.54781,2.40124 -10.23,2.70616 -12.66946,0.34303c-2.43946,-2.36312 -2.12469,-6.93692 0.35412,-12.27301c-5.54781,2.40124 -16.09257,-2.97296 -18.53203,-5.33609c-4.64285,-4.49756 6.49211,-11.20579 17.62707,-21.99232c5.5478,-5.3742 11.52842,-9.37627 16.68276,-11.43448c0.03935,0.22869 0.07869,0.41927 0.11804,0.64796l0.11804,0.41926c0.07869,0.26681 0.15738,0.53361 0.23607,0.7623c0.03935,0.15246 0.0787,0.2668 0.11804,0.38115c0.03935,0.15246 0.11804,0.2668 0.15739,0.38115c0.03934,0.15246 0.11803,0.30492 0.19673,0.41926c0.07869,0.19058 0.15738,0.34304 0.23607,0.53361c2.43947,4.87871 7.23969,7.16561 11.44973,9.14758c2.59685,1.21968 5.03631,2.40125 6.68884,3.96396c1.6132,1.60082 2.83293,3.96395 4.092,6.47954c2.08535,4.11641 4.40677,8.72832 9.44308,11.09144c0.15738,0.07623 0.35411,0.15246 0.5115,0.22869c0.15738,0.07623 0.31476,0.11435 0.47215,0.19058c0.11804,0.03811 0.23608,0.07623 0.39346,0.15246c0.11804,0.03811 0.27542,0.07623 0.39346,0.11434c0.23608,0.07623 0.5115,0.15246 0.78692,0.22869l0.43281,0.11435c0.23608,0.07623 0.43281,0.11434 0.66889,0.15246z" id="svg_8" fill="#00ff00" stroke="null" transform="rotate(-94.6010971069336 155.63467407226565,162.58778381347656) "/>
  <path class="st0" d="m144.23682,142.269131c-6.80688,6.1365 -14.40069,10.74841 -22.15187,13.75949c-8.22335,-4.61191 -14.63677,-11.58694 -18.96484,-16.69434c-0.03935,-0.03812 -0.03935,-0.07623 -0.0787,-0.07623c-3.61984,-3.92584 -6.45276,-8.34717 -9.44307,-12.99719c-1.84927,-2.89674 -3.73788,-5.83159 -5.86257,-8.72832c0,0 0,-0.03812 -0.03935,-0.03812c-4.83957,-6.36519 -11.21365,-11.89186 -20.34195,-17.57098l0,0c3.10834,-6.74635 7.51511,-13.30212 13.25965,-19.28616l63.6227,61.63185z" id="svg_3" fill="#3b4652" stroke="null" transform="rotate(-94.6010971069336 105.79566955566408,118.33293914794923) "/>
  <path transform="rotate(-17.17206573486328 576.9536743164062,142.178192138672) " class="st0" d="m604.61505,167.617613c-7.14573,1.81523 -14.29146,2.38249 -20.98804,1.62614l0,0c-0.12249,0 -0.24499,-0.03781 -0.32666,-0.03781c-0.04083,0 -0.1225,0 -0.16333,-0.03782c-0.16333,-0.03782 -0.32666,-0.03782 -0.48999,-0.07563c-0.1225,-0.03782 -0.20417,-0.03782 -0.32667,-0.07564c-0.16333,-0.03782 -0.32666,-0.07563 -0.53082,-0.15127c-0.08167,0 -0.16333,-0.03782 -0.20417,-0.07564c-0.08166,0 -0.12249,-0.03781 -0.20416,-0.07563c-0.1225,-0.03782 -0.20416,-0.07564 -0.32666,-0.11345c-0.1225,-0.03782 -0.20417,-0.07564 -0.32666,-0.11345c-6.12492,-2.72286 -7.06407,-11.38304 -12.53566,-16.41276c-5.47159,-5.02972 -14.78146,-5.89952 -17.72142,-11.60995c-0.04083,-0.07563 -0.08166,-0.18908 -0.1225,-0.30253c-0.04083,-0.11346 -0.08166,-0.18909 -0.12249,-0.30254c-0.04084,-0.07564 -0.04084,-0.11346 -0.08167,-0.18909c-0.04083,-0.07564 -0.04083,-0.15127 -0.08167,-0.18909c-0.04083,-0.15127 -0.12249,-0.30254 -0.16333,-0.49162c-0.04083,-0.11346 -0.04083,-0.18909 -0.08166,-0.30254c-0.04084,-0.15127 -0.08167,-0.30254 -0.08167,-0.45381c0,-0.03782 -0.04083,-0.11345 -0.04083,-0.15127c0,-0.11345 -0.04084,-0.22691 -0.04084,-0.30254l0,0c-0.97998,-7.29876 0.04084,-15.2026 2.93996,-22.99299c8.32989,5.06754 14.2098,9.94598 18.66057,15.50514c2.08248,2.68504 4.00161,5.55916 5.83909,8.35765c3.06246,4.61372 6.28824,9.37872 10.33069,13.61427c4.08327,4.61372 9.84069,10.62669 17.19059,15.35387z" id="svg_97" fill="#3b4652" stroke="null"/>
  <path transform="rotate(-17.17206573486328 589.6948242187499,123.46467590332023) " class="st0" d="m629.588418,147.214009c-7.06407,6.0886 -14.94479,10.66451 -22.98885,13.65208c-8.53405,-4.57591 -15.18979,-11.49649 -19.68139,-16.56402c-0.04083,-0.03782 -0.04083,-0.07564 -0.08166,-0.07564c-3.75662,-3.89519 -6.69658,-8.28201 -9.79987,-12.89574c-1.91914,-2.87412 -3.87911,-5.78606 -6.08408,-8.66018c0,0 0,-0.03782 -0.04083,-0.03782c-5.02243,-6.31551 -11.63734,-11.79903 -21.11054,-17.43383l0,0c3.22579,-6.69368 7.79906,-13.19827 13.76064,-19.13561l66.02658,61.15076z" id="svg_98" fill="#3b4652" stroke="null"/>
  <path transform="rotate(-17.17206573486328 602.164794921875,101.85874938964852) " class="st0" d="m642.548379,117.496251c-3.22578,7.45003 -8.16655,14.74879 -14.74062,21.29121l-66.02657,-61.11294c6.36991,-5.52134 13.43397,-9.75689 20.66137,-12.74447c6.08408,8.77364 12.00483,14.90006 18.8239,19.5516c0,0 0.04084,0.03782 0.04084,0.03782c3.06245,2.04214 6.24741,3.85738 9.3507,5.6348c5.02243,2.87412 9.7182,5.59697 13.92397,9.07617c0.04083,0.03782 0.04083,0.03782 0.08167,0.07564c5.47159,4.1221 12.94398,10.32415 17.88475,18.19017l-0.00001,0z" id="svg_99" fill="#3b4652" stroke="null"/>
  <path transform="rotate(-17.17206573486328 611.8866577148438,81.7381286621096) " class="st0" d="m639.368767,107.300058c-5.14493,-6.76931 -11.5965,-12.10157 -16.5781,-15.84549c-4.57327,-3.78174 -9.7182,-6.7315 -14.69979,-9.56781c-2.98079,-1.70178 -6.08408,-3.4792 -9.02404,-5.40789c-6.00242,-4.12209 -11.31068,-9.52998 -16.74143,-17.24473c8.41154,-2.68504 16.94559,-3.63048 24.82631,-2.72286c0.245,0.03782 0.44916,0.03782 0.69416,0.07564c0.20416,0.03781 0.40833,0.03781 0.57166,0.07563c0,0 0.04083,0 0.04083,0c0.20417,0.03782 0.3675,0.07564 0.57166,0.11345c0.16333,0.03782 0.28583,0.07564 0.44916,0.11346c0.08167,0.03781 0.16333,0.03781 0.20417,0.07563c0.12249,0.03782 0.28582,0.07564 0.40832,0.11345c0.245,0.07564 0.44916,0.15127 0.65333,0.26472c0.12249,0.03782 0.20416,0.11346 0.32666,0.15127c0.20416,0.11346 0.40833,0.18909 0.61249,0.30254c0.36749,0.18909 0.69416,0.37818 1.02082,0.60508c0.16333,0.11345 0.28583,0.18909 0.40833,0.30254c0.40832,0.30254 0.81665,0.6429 1.18415,0.98325c0.12249,0.11346 0.24499,0.22691 0.36749,0.34036c0.1225,0.11345 0.20417,0.22691 0.32666,0.34036c3.22579,3.36575 5.30826,8.24419 9.14654,11.83685c3.83828,3.55484 9.14654,5.48352 12.78066,8.4711c0.12249,0.11345 0.24499,0.18909 0.32666,0.30254c0.1225,0.11345 0.245,0.2269 0.36749,0.34035c0.3675,0.34036 0.73499,0.71854 1.06166,1.09671c0.12249,0.11345 0.20416,0.26472 0.32666,0.41599c0.24499,0.30254 0.44916,0.60508 0.65332,0.94544c0.1225,0.18908 0.245,0.37817 0.32666,0.56726c0.04084,0.11345 0.1225,0.18908 0.16333,0.30254c0.08167,0.18908 0.20417,0.41599 0.28583,0.60508c0.04084,0.11345 0.08167,0.2269 0.1225,0.37817c0.04083,0.07563 0.04083,0.15127 0.08167,0.2269c0.04083,0.15127 0.08166,0.26473 0.1225,0.416c0.04083,0.15127 0.08166,0.34035 0.12249,0.52944c0,0 0,0.03782 0,0.03782c0.04084,0.18908 0.08167,0.34035 0.08167,0.52944c0.04083,0.2269 0.04083,0.41599 0.08167,0.6429c0.89832,6.0886 0.28582,12.66883 -1.67415,19.28688l0,-0.00001z" id="svg_100" fill="#3b4652" stroke="null"/>
  <path transform="rotate(-17.17206573486328 635.8256225585939,43.11787796020479) " class="st1" d="m653.655739,66.290231c-5.75742,5.33225 -11.964,9.26527 -17.31309,11.34522c-0.04084,-0.2269 -0.08167,-0.49162 -0.1225,-0.71853l-0.16333,-0.83198l-0.04084,-0.07564c-0.04083,-0.18908 -0.08166,-0.34035 -0.16333,-0.52944c-0.04083,-0.11345 -0.08166,-0.18909 -0.08166,-0.30254c-0.08167,-0.18909 -0.16333,-0.41599 -0.20417,-0.60508c-0.12249,-0.30254 -0.24499,-0.64289 -0.40832,-0.94543c-0.04084,-0.11345 -0.08167,-0.18909 -0.16334,-0.30254l-0.04083,-0.11345c-0.16333,-0.30254 -0.32666,-0.6429 -0.53082,-0.94544c-0.32667,-0.49162 -0.65333,-0.98325 -0.97999,-1.39924c-0.1225,-0.15127 -0.28583,-0.37818 -0.48999,-0.60508c-0.44916,-0.52945 -0.93916,-1.02107 -1.51082,-1.55052l-0.04083,-0.03781c-0.16333,-0.11345 -0.28583,-0.26473 -0.44916,-0.416c-0.1225,-0.11345 -0.28583,-0.2269 -0.44916,-0.37817c-2.0008,-1.62615 -4.24661,-2.91194 -6.41074,-4.15991c-2.28664,-1.32361 -4.49161,-2.57159 -6.12492,-4.08428c-1.63331,-1.5127 -2.98079,-3.55484 -4.40993,-5.67262c-1.34749,-2.00432 -2.7358,-4.08428 -4.49161,-5.89951l-0.04083,-0.03782c-0.1225,-0.11345 -0.245,-0.26472 -0.3675,-0.37817c-0.16333,-0.15127 -0.28583,-0.26472 -0.44916,-0.45381c-0.53082,-0.52945 -1.10248,-0.98325 -1.67414,-1.39925c-0.245,-0.18908 -0.48999,-0.34035 -0.65332,-0.4538c-0.49,-0.34036 -0.97999,-0.6429 -1.51082,-0.90762c-0.36749,-0.18909 -0.69415,-0.37818 -1.06165,-0.52945l-0.1225,-0.03781c-0.12249,-0.03782 -0.20416,-0.11346 -0.32666,-0.15127c-0.36749,-0.15127 -0.69415,-0.26473 -1.02082,-0.37818c-0.20416,-0.07563 -0.44916,-0.15127 -0.65332,-0.18908c-0.1225,-0.03782 -0.20416,-0.07564 -0.32666,-0.07564c-0.20417,-0.07563 -0.40833,-0.11345 -0.65333,-0.15127l-0.08166,-0.03782l-0.81666,-0.15127c-0.24499,-0.03781 -0.48999,-0.07563 -0.77582,-0.11345c2.20497,-4.95408 6.49241,-10.70233 12.24983,-16.03458c11.55567,-10.70233 18.74224,-21.40466 23.51967,-16.9422c2.53163,2.34468 8.28905,12.47975 5.71658,17.812c5.75742,-2.3825 10.61652,-2.68504 13.14815,-0.34036c2.53163,2.34468 2.20497,6.88277 -0.36749,12.17721c5.75742,-2.3825 16.7006,2.94976 19.23223,5.29444c4.7366,4.349 -6.81907,11.00486 -18.37474,21.70719z" id="svg_101" fill="#ff7f00" stroke="null"/>
  <path transform="rotate(-17.17206573486328 555.5052490234373,181.93351745605486) " class="st1" d="m592.815878,182.491593c-2.20497,4.95408 -6.45158,10.70233 -12.24983,16.03458c-11.55567,10.70233 -18.74224,21.40466 -23.51967,16.9422c-2.53163,-2.34468 -8.28905,-12.47974 -5.71659,-17.812c-5.75742,2.3825 -10.61652,2.68504 -13.14815,0.34036c-2.53163,-2.34468 -2.20497,-6.88277 0.3675,-12.17721c-5.75742,2.3825 -16.7006,-2.94975 -19.23223,-5.29443c-4.81827,-4.46246 6.7374,-11.11832 18.29307,-21.82065c5.75742,-5.33226 11.964,-9.30308 17.31309,-11.34522c0.04084,0.2269 0.08167,0.41599 0.1225,0.64289l0.1225,0.41599c0.08167,0.26473 0.16333,0.52945 0.245,0.75635c0.04083,0.15127 0.08166,0.26472 0.1225,0.37818c0.04083,0.15127 0.12249,0.26472 0.16333,0.37817c0.04083,0.15127 0.12249,0.30254 0.20416,0.41599c0.08167,0.18909 0.16333,0.34036 0.245,0.52945c2.53163,4.84063 7.51323,7.10967 11.88233,9.07618c2.69496,1.21015 5.22659,2.38249 6.94157,3.93301c1.67414,1.58833 2.93996,3.93301 4.24661,6.42896c2.16413,4.08428 4.57327,8.66018 9.79986,11.00486c0.16333,0.07564 0.36749,0.15127 0.53082,0.22691c0.16334,0.07563 0.32667,0.11345 0.49,0.18908c0.1225,0.03782 0.24499,0.07564 0.40833,0.15127c0.12249,0.03782 0.28582,0.07564 0.40832,0.11346c0.245,0.07563 0.53083,0.15127 0.81666,0.2269l0.44916,0.11345c0.245,0.07564 0.44916,0.11345 0.69416,0.15127z" id="svg_102" fill="#ff7f00" stroke="null"/>
  <path class="st0" d="m179.709943,120.388091c-6.88558,1.82952 -13.77115,2.40124 -20.22392,1.63894l0,0c-0.11804,0 -0.23607,-0.03811 -0.31477,-0.03811c-0.03934,0 -0.11804,0 -0.15738,-0.03812c-0.15739,-0.03811 -0.31477,-0.03811 -0.47216,-0.07623c-0.11803,-0.03811 -0.19673,-0.03811 -0.31476,-0.07623c-0.15739,-0.03811 -0.31477,-0.07623 -0.5115,-0.15246c-0.0787,0 -0.15739,-0.03811 -0.19673,-0.07623c-0.0787,0 -0.11804,-0.03811 -0.19674,-0.07623c-0.11803,-0.03811 -0.19673,-0.07623 -0.31476,-0.11434c-0.11804,-0.03812 -0.19674,-0.07623 -0.31477,-0.11435c-5.90192,-2.74427 -6.80689,-11.47259 -12.07927,-16.54188c-5.27238,-5.06928 -14.2433,-5.94593 -17.07622,-11.70128c-0.03935,-0.07623 -0.07869,-0.19058 -0.11804,-0.30492c-0.03935,-0.11435 -0.07869,-0.19058 -0.11804,-0.30492c-0.03935,-0.07623 -0.03935,-0.11435 -0.07869,-0.19058c-0.03935,-0.07623 -0.03935,-0.15246 -0.07869,-0.19057c-0.03935,-0.15246 -0.11804,-0.30492 -0.15739,-0.4955c-0.03934,-0.11434 -0.03934,-0.19057 -0.07869,-0.30492c-0.03935,-0.15246 -0.07869,-0.30492 -0.07869,-0.45737c0,-0.03812 -0.03935,-0.11435 -0.03935,-0.15246c0,-0.11435 -0.03935,-0.22869 -0.03935,-0.30492l0,0c-0.9443,-7.35619 0.03935,-15.32221 2.83293,-23.17388c8.02661,5.1074 13.69245,10.02422 17.98118,15.62712c2.00666,2.70616 3.85592,5.60289 5.6265,8.4234c2.95096,4.65002 6.05931,9.4525 9.95457,13.72138c3.93462,4.65002 9.48242,10.71029 16.56473,15.47466z" id="svg_417" fill="#3b4652" stroke="null" transform="rotate(44.65764236450195 153.05569458007807,94.74856567382815) "/>
  <path class="st0" d="m238.654321,112.60436c-3.10834,7.50864 -7.86923,14.86483 -14.20395,21.45871l-63.62271,-61.59373c6.138,-5.56479 12.94488,-9.83366 19.90915,-12.84474c5.86257,8.84267 11.56776,15.01729 18.13857,19.70542c0,0 0.03934,0.03812 0.03934,0.03812c2.95096,2.05821 6.01996,3.88772 9.01027,5.67912c4.83957,2.89674 9.36438,5.64101 13.41703,9.14759c0.03935,0.03811 0.03935,0.03811 0.07869,0.07623c5.27239,4.15453 12.47273,10.40538 17.23361,18.33328z" id="svg_418" fill="#3b4652" stroke="null" transform="rotate(44.65764236450195 199.7410125732422,96.8438491821289) "/>
  <path class="st0" d="m248.245611,121.197127c-4.95761,-6.82257 -11.1743,-12.19678 -15.97453,-15.97016c-4.40677,-3.81149 -9.36438,-6.78445 -14.16461,-9.64307c-2.87227,-1.71518 -5.86257,-3.50658 -8.6955,-5.45044c-5.78388,-4.15453 -10.89888,-9.60496 -16.13191,-17.38041c8.1053,-2.70616 16.32864,-3.65903 23.92245,-2.74428c0.23608,0.03812 0.43281,0.03812 0.66888,0.07623c0.19673,0.03812 0.39346,0.03812 0.55085,0.07623c0,0 0.03935,0 0.03935,0c0.19673,0.03812 0.35411,0.07623 0.55084,0.11435c0.15739,0.03811 0.27542,0.07623 0.43281,0.11434c0.07869,0.03812 0.15738,0.03812 0.19673,0.07623c0.11804,0.03812 0.27542,0.07623 0.39346,0.11435c0.23608,0.07623 0.43281,0.15246 0.62954,0.2668c0.11804,0.03812 0.19673,0.11435 0.31477,0.15246c0.19673,0.11435 0.39346,0.19058 0.59019,0.30492c0.35412,0.19058 0.66888,0.38115 0.98365,0.60984c0.15739,0.11435 0.27543,0.19058 0.39347,0.30492c0.39346,0.30492 0.78692,0.64795 1.14103,0.99099c0.11804,0.11434 0.23608,0.22869 0.35412,0.34303c0.11804,0.11435 0.19673,0.22869 0.31477,0.34304c3.10834,3.39223 5.115,8.30905 8.81353,11.92997c3.69854,3.58281 8.81354,5.52667 12.31534,8.53775c0.11804,0.11434 0.23608,0.19057 0.31477,0.30492c0.11804,0.11434 0.23608,0.22869 0.35412,0.34303c0.35411,0.34304 0.70823,0.72419 1.023,1.10533c0.11804,0.11435 0.19673,0.26681 0.31477,0.41927c0.23607,0.30492 0.4328,0.60984 0.62954,0.95287c0.11803,0.19058 0.23607,0.38115 0.31476,0.57173c0.03935,0.11434 0.11804,0.19057 0.15739,0.30492c0.07869,0.19057 0.19673,0.41926 0.27542,0.60984c0.03935,0.11434 0.07869,0.22868 0.11804,0.38114c0.03935,0.07623 0.03935,0.15246 0.07869,0.22869c0.03935,0.15246 0.07869,0.26681 0.11804,0.41927c0.03935,0.15246 0.07869,0.34303 0.11804,0.53361c0,0 0,0.03811 0,0.03811c0.03935,0.19058 0.07869,0.34304 0.07869,0.53361c0.03935,0.22869 0.03935,0.41927 0.07869,0.64796c0.86562,6.1365 0.27543,12.7685 -1.61319,19.43861z" id="svg_419" fill="#3b4652" stroke="null" transform="rotate(44.65764236450195 221.76409912109372,95.43402862548831) "/>
  <path class="st1" d="m283.569537,120.615669c-5.5478,5.3742 -11.52842,9.33816 -16.68276,11.43448c-0.03935,-0.22869 -0.07869,-0.4955 -0.11804,-0.72419l-0.15738,-0.83853l-0.03935,-0.07623c-0.03935,-0.19057 -0.07869,-0.34303 -0.15738,-0.5336c-0.03935,-0.11435 -0.0787,-0.19058 -0.0787,-0.30492c-0.07869,-0.19058 -0.15738,-0.41927 -0.19673,-0.60984c-0.11804,-0.30492 -0.23607,-0.64796 -0.39346,-0.95288c-0.03934,-0.11434 -0.07869,-0.19057 -0.15738,-0.30492l-0.03935,-0.11434c-0.15738,-0.30492 -0.31477,-0.64795 -0.5115,-0.95287c-0.31477,-0.4955 -0.62954,-0.99099 -0.94431,-1.41026c-0.11803,-0.15246 -0.27542,-0.38115 -0.47215,-0.60984c-0.43281,-0.5336 -0.90496,-1.0291 -1.45581,-1.56271l-0.03934,-0.03811c-0.15739,-0.11435 -0.27543,-0.26681 -0.43281,-0.41927c-0.11804,-0.11434 -0.27542,-0.22869 -0.43281,-0.38115c-1.92796,-1.63894 -4.092,-2.93485 -6.17734,-4.19264c-2.20339,-1.33402 -4.32808,-2.59181 -5.90192,-4.11641c-1.57385,-1.5246 -2.87227,-3.58281 -4.24939,-5.71724c-1.29842,-2.02009 -2.63619,-4.11642 -4.32807,-5.94593l-0.03935,-0.03812c-0.11804,-0.11434 -0.23607,-0.2668 -0.35411,-0.38115c-0.15739,-0.15246 -0.27543,-0.2668 -0.43281,-0.45738c-0.5115,-0.53361 -1.06235,-0.99098 -1.61319,-1.41025c-0.23608,-0.19057 -0.47216,-0.34303 -0.62954,-0.45738c-0.47215,-0.34303 -0.94431,-0.64795 -1.45581,-0.91476c-0.35411,-0.19057 -0.66888,-0.38115 -1.023,-0.53361l-0.11803,-0.03811c-0.11804,-0.03812 -0.19674,-0.11435 -0.31477,-0.15246c-0.35412,-0.15246 -0.66889,-0.2668 -0.98366,-0.38115c-0.19673,-0.07623 -0.4328,-0.15246 -0.62954,-0.19057c-0.11803,-0.03812 -0.19673,-0.07623 -0.31476,-0.07623c-0.19674,-0.07623 -0.39347,-0.11435 -0.62954,-0.15246l-0.0787,-0.03812l-0.78692,-0.15246c-0.23607,-0.03811 -0.47215,-0.07623 -0.74757,-0.11434c2.12469,-4.99306 6.25603,-10.78653 11.80384,-16.16074c11.13495,-10.78652 18.05987,-21.57305 22.66337,-17.07549c2.43946,2.36313 7.98727,12.57793 5.50846,17.95214c5.54781,-2.40124 10.23,-2.70616 12.66946,-0.34304c2.43946,2.36313 2.12469,6.93692 -0.35412,12.27301c5.54781,-2.40124 16.09257,2.97297 18.53203,5.33609c4.56416,4.38322 -6.5708,11.09145 -17.70576,21.87798z" id="svg_420" fill="#00ff00" stroke="null" transform="rotate(44.65764236450195 266.38864135742176,97.26086425781251) "/>
  <path class="st1" d="m144.495606,96.173272c-2.12469,4.99306 -6.21669,10.78653 -11.80384,16.16073c-11.13496,10.78653 -18.05988,21.57306 -22.66338,17.0755c-2.43946,-2.36313 -7.98727,-12.57793 -5.50846,-17.95214c-5.5478,2.40124 -10.23,2.70616 -12.66946,0.34304c-2.43946,-2.36313 -2.12469,-6.93692 0.35412,-12.27301c-5.54781,2.40124 -16.09257,-2.97297 -18.53203,-5.33609c-4.64285,-4.49757 6.49211,-11.2058 17.62707,-21.99232c5.5478,-5.37421 11.52842,-9.37628 16.68276,-11.43448c0.03935,0.22869 0.07869,0.41926 0.11804,0.64795l0.11804,0.41927c0.07869,0.2668 0.15738,0.5336 0.23607,0.76229c0.03935,0.15246 0.0787,0.26681 0.11804,0.38115c0.03935,0.15246 0.11804,0.26681 0.15739,0.38115c0.03934,0.15246 0.11804,0.30492 0.19673,0.41927c0.07869,0.19057 0.15738,0.34303 0.23608,0.53361c2.43946,4.87871 7.23968,7.1656 11.44972,9.14758c2.59685,1.21968 5.03631,2.40124 6.68885,3.96395c1.61319,1.60083 2.83292,3.96396 4.09199,6.47954c2.08535,4.11642 4.40677,8.72832 9.44308,11.09145c0.15738,0.07623 0.35411,0.15246 0.5115,0.22869c0.15738,0.07623 0.31477,0.11434 0.47215,0.19057c0.11804,0.03812 0.23608,0.07623 0.39346,0.15246c0.11804,0.03812 0.27542,0.07623 0.39346,0.11435c0.23608,0.07623 0.5115,0.15246 0.78693,0.22869l0.4328,0.11434c0.23608,0.07623 0.43281,0.11435 0.66889,0.15246z" id="svg_421" fill="#00ff00" stroke="null" transform="rotate(44.65764236450195 108.54336547851562,95.61085510253906) "/>
  <path class="st0" d="m213.628439,120.550184c-6.80688,6.13651 -14.40069,10.74841 -22.15188,13.75949c-8.22334,-4.6119 -14.63676,-11.58694 -18.96483,-16.69434c-0.03935,-0.03811 -0.03935,-0.07623 -0.0787,-0.07623c-3.61984,-3.92584 -6.45276,-8.34717 -9.44307,-12.99719c-1.84927,-2.89674 -3.73788,-5.83159 -5.86257,-8.72832c0,0 0,-0.03812 -0.03935,-0.03812c-4.83958,-6.36519 -11.21365,-11.89186 -20.34195,-17.57098l0,0c3.10834,-6.74634 7.51511,-13.30211 13.25964,-19.28616l63.62271,61.63185z" id="svg_422" fill="#3b4652" stroke="null" transform="rotate(44.65764236450195 175.18728637695312,96.6140365600586) "/>
  <metadata>image/svg+xmlOpenclipartOpen Box2010-11-28T11:37:30An open cardboard boxhttps://openclipart.org/detail/98491/open-box-by-piercolonepiercoloneapertaboxopenscatola</metadata>
  <metadata>image/svg+xmlOpenclipartOpen Box2010-11-28T11:37:30An open cardboard boxhttps://openclipart.org/detail/98491/open-box-by-piercolonepiercoloneapertaboxopenscatola</metadata>
  <metadata>image/svg+xmlOpenclipartbox2013-02-23T07:27:02https://openclipart.org/detail/175284/box-by-andinuryadin-175284andinuryadinbox</metadata>
  <metadata>image/svg+xmlOpenclipartOpen Box2010-11-28T11:37:30An open cardboard boxhttps://openclipart.org/detail/98491/open-box-by-piercolonepiercoloneapertaboxopenscatola</metadata>
  <path transform="rotate(44.36622619628906 424.63897705078125,92.79978179931643) " class="st0" d="m451.897502,119.039765c-7.04167,1.87237 -14.08334,2.45748 -20.68239,1.67733l0,0c-0.12071,0 -0.24143,-0.03901 -0.3219,-0.03901c-0.04024,0 -0.12072,0 -0.16096,-0.03901c-0.16095,-0.03901 -0.3219,-0.03901 -0.48285,-0.07801c-0.12072,-0.03901 -0.20119,-0.03901 -0.32191,-0.07802c-0.16095,-0.03901 -0.3219,-0.07801 -0.52309,-0.15603c-0.08048,0 -0.16096,-0.03901 -0.20119,-0.07801c-0.08048,0 -0.12072,-0.03901 -0.2012,-0.07802c-0.12071,-0.03901 -0.20119,-0.07801 -0.3219,-0.11702c-0.12071,-0.03901 -0.20119,-0.07802 -0.32191,-0.11702c-6.03571,-2.80854 -6.96119,-11.74127 -12.3531,-16.92927c-5.3919,-5.188 -14.56619,-6.08517 -17.46334,-11.9753c-0.04023,-0.07802 -0.08047,-0.19504 -0.12071,-0.31206c-0.04024,-0.11703 -0.08048,-0.19504 -0.12071,-0.31206c-0.04024,-0.07802 -0.04024,-0.11703 -0.08048,-0.19504c-0.04024,-0.07802 -0.04024,-0.15603 -0.08048,-0.19504c-0.04023,-0.15603 -0.12071,-0.31206 -0.16095,-0.5071c-0.04024,-0.11702 -0.04024,-0.19504 -0.08047,-0.31206c-0.04024,-0.15603 -0.08048,-0.31206 -0.08048,-0.46809c0,-0.03901 -0.04024,-0.11702 -0.04024,-0.15603c0,-0.11702 -0.04024,-0.23404 -0.04024,-0.31206l0,0c-0.96571,-7.52845 0.04024,-15.68102 2.89715,-23.71657c8.20857,5.22701 14.00286,10.25898 18.38881,15.99308c2.05215,2.76954 3.94334,5.73411 5.75406,8.62067c3.01785,4.75891 6.19666,9.67386 10.18024,14.0427c4.02381,4.75892 9.69738,10.96111 16.94024,15.83705z" id="svg_90" fill="#3b4652" stroke="null"/>
  <path transform="rotate(44.36622619628906 447.28915405273443,94.58480072021484) " class="st0" d="m486.601789,119.081517c-6.9612,6.28021 -14.72715,11.00012 -22.65406,14.08172c-8.40977,-4.71991 -14.96858,-11.85829 -19.39477,-17.0853c-0.04024,-0.039 -0.04024,-0.07801 -0.08048,-0.07801c-3.7019,-4.01777 -6.59905,-8.54265 -9.65714,-13.30156c-1.89119,-2.96457 -3.82263,-5.96815 -5.99548,-8.93272c0,0 0,-0.03901 -0.04024,-0.03901c-4.94929,-6.51426 -11.46786,-12.17035 -20.8031,-17.98247l0,0c3.17881,-6.90433 7.68547,-13.61362 13.56024,-19.7378l65.06503,63.07515z" id="svg_91" fill="#3b4652" stroke="null"/>
  <path transform="rotate(44.36622619628906 472.4093017578125,94.6829833984375) " class="st0" d="m512.204795,110.812595c-3.17881,7.68448 -8.04762,15.21293 -14.52596,21.96123l-65.06503,-63.03615c6.27715,-5.69509 13.23834,-10.06394 20.36049,-13.14553c5.99548,9.04975 11.83,15.36896 18.54977,20.16689c0,0 0.04024,0.039 0.04024,0.039c3.01785,2.10641 6.15643,3.97877 9.21452,5.81212c4.94929,2.96458 9.57667,5.77312 13.7212,9.36181c0.04024,0.03901 0.04024,0.03901 0.08048,0.07801c5.3919,4.25182 12.75548,10.64906 17.62429,18.76262z" id="svg_92" fill="#3b4652" stroke="null"/>
  <path transform="rotate(44.36622619628906 494.9325561523438,93.1179428100586) " class="st0" d="m522.014431,119.484314c-5.07,-6.98234 -11.42762,-12.4824 -16.33667,-16.34415c-4.50667,-3.90075 -9.57667,-6.94334 -14.48572,-9.8689c-2.93739,-1.75534 -5.99548,-3.58869 -8.89263,-5.57808c-5.915,-4.25181 -11.14595,-9.82989 -16.49762,-17.78742c8.28905,-2.76954 16.69881,-3.74473 24.46477,-2.80854c0.24143,0.039 0.44262,0.039 0.68405,0.07801c0.20119,0.03901 0.40238,0.03901 0.56333,0.07802c0,0 0.04024,0 0.04024,0c0.20119,0.039 0.36214,0.07801 0.56333,0.11702c0.16096,0.03901 0.28167,0.07801 0.44262,0.11702c0.08048,0.03901 0.16095,0.03901 0.20119,0.07802c0.12072,0.039 0.28167,0.07801 0.40238,0.11702c0.24143,0.07801 0.44262,0.15603 0.64381,0.27305c0.12072,0.03901 0.2012,0.11703 0.32191,0.15603c0.20119,0.11703 0.40238,0.19504 0.60357,0.31206c0.36214,0.19504 0.68405,0.39008 1.00595,0.62412c0.16096,0.11703 0.28167,0.19504 0.40239,0.31206c0.40238,0.31206 0.80476,0.66313 1.1669,1.0142c0.12071,0.11702 0.24143,0.23404 0.36214,0.35107c0.12072,0.11702 0.20119,0.23404 0.32191,0.35106c3.17881,3.47167 5.23095,8.50364 9.01334,12.20936c3.78238,3.6667 9.01333,5.65609 12.59452,8.73768c0.12072,0.11702 0.24143,0.19504 0.32191,0.31206c0.12071,0.11702 0.24143,0.23405 0.36214,0.35107c0.36215,0.35107 0.72429,0.74114 1.04619,1.13122c0.12072,0.11702 0.20119,0.27305 0.32191,0.42908c0.24143,0.31206 0.44262,0.62412 0.64381,0.97519c0.12071,0.19504 0.24143,0.39007 0.3219,0.58511c0.04024,0.11702 0.12072,0.19504 0.16096,0.31206c0.08047,0.19504 0.20119,0.42908 0.28166,0.62412c0.04024,0.11702 0.08048,0.23405 0.12072,0.39008c0.04023,0.07801 0.04023,0.15603 0.08047,0.23404c0.04024,0.15603 0.08048,0.27305 0.12072,0.42908c0.04023,0.15603 0.08047,0.35107 0.12071,0.54611c0,0 0,0.03901 0,0.03901c0.04024,0.19503 0.08048,0.35106 0.08048,0.5461c0.04023,0.23405 0.04023,0.42908 0.08047,0.66313c0.88524,6.28021 0.28167,13.06752 -1.64976,19.89383z" id="svg_93" fill="#3b4652" stroke="null"/>
  <path transform="rotate(44.36622619628906 540.5932006835938,94.73808288574219) " class="st1" d="m558.163667,118.639669c-5.67357,5.50006 -11.78976,9.55684 -17.06096,11.70225c-0.04024,-0.23404 -0.08047,-0.5071 -0.12071,-0.74114l-0.16095,-0.85817l-0.04024,-0.07801c-0.04024,-0.19504 -0.08048,-0.35107 -0.16095,-0.54611c-0.04024,-0.11702 -0.08048,-0.19503 -0.08048,-0.31206c-0.08047,-0.19503 -0.16095,-0.42908 -0.20119,-0.62412c-0.12071,-0.31206 -0.24143,-0.66312 -0.40238,-0.97518c-0.04024,-0.11703 -0.08048,-0.19504 -0.16095,-0.31206l-0.04024,-0.11703c-0.16095,-0.31206 -0.32191,-0.66312 -0.5231,-0.97519c-0.3219,-0.50709 -0.64381,-1.01419 -0.96571,-1.44327c-0.12072,-0.15603 -0.28167,-0.39008 -0.48286,-0.62412c-0.44262,-0.54611 -0.92547,-1.05321 -1.48881,-1.59931l-0.04024,-0.03901c-0.16095,-0.11702 -0.28166,-0.27305 -0.44261,-0.42908c-0.12072,-0.11703 -0.28167,-0.23405 -0.44262,-0.39008c-1.97167,-1.67732 -4.18477,-3.00358 -6.31739,-4.29082c-2.25333,-1.36527 -4.42619,-2.65252 -6.03571,-4.21282c-1.60953,-1.5603 -2.93739,-3.6667 -4.34572,-5.85112c-1.32786,-2.0674 -2.69595,-4.21282 -4.42619,-6.08518l-0.04024,-0.03901c-0.12072,-0.11702 -0.24143,-0.27305 -0.36214,-0.39007c-0.16096,-0.15603 -0.28167,-0.27305 -0.44262,-0.46809c-0.5231,-0.54611 -1.08643,-1.0142 -1.64977,-1.44328c-0.24142,-0.19504 -0.48285,-0.35107 -0.64381,-0.46809c-0.48285,-0.35107 -0.96571,-0.66313 -1.48881,-0.93618c-0.36214,-0.19504 -0.68404,-0.39007 -1.04619,-0.5461l-0.12071,-0.03901c-0.12072,-0.03901 -0.20119,-0.11702 -0.32191,-0.15603c-0.36214,-0.15603 -0.68404,-0.27305 -1.00595,-0.39008c-0.20119,-0.07801 -0.44262,-0.15603 -0.64381,-0.19503c-0.12071,-0.03901 -0.20119,-0.07802 -0.3219,-0.07802c-0.20119,-0.07801 -0.40238,-0.11702 -0.64381,-0.15603l-0.08048,-0.03901l-0.80476,-0.15603c-0.24143,-0.03901 -0.48286,-0.07801 -0.76453,-0.11702c2.17286,-5.10999 6.39786,-11.03913 12.07144,-16.53919c11.38738,-11.03912 18.46929,-22.07825 23.17715,-17.47537c2.49476,2.41847 8.16834,12.87249 5.63334,18.37254c5.67357,-2.45747 10.46191,-2.76953 12.95667,-0.35106c2.49476,2.41846 2.17286,7.09936 -0.36214,12.56042c5.67357,-2.45748 16.45738,3.04258 18.95215,5.46105c4.66762,4.48586 -6.71977,11.35119 -18.10715,22.39031l-0.00001,0.00001z" id="svg_94" fill="#2b79c2" stroke="null"/>
  <path transform="rotate(44.36622619628906 379.10598754882807,93.93018341064452) " class="st1" d="m415.873265,94.505817c-2.17286,5.10999 -6.35763,11.03913 -12.07144,16.53919c-11.38739,11.03913 -18.46929,22.07825 -23.17715,17.47537c-2.49476,-2.41847 -8.16834,-12.87248 -5.63334,-18.37254c-5.67357,2.45747 -10.46191,2.76953 -12.95667,0.35106c-2.49476,-2.41846 -2.17286,-7.09936 0.36214,-12.56042c-5.67357,2.45748 -16.45738,-3.04258 -18.95215,-5.46105c-4.74809,-4.60288 6.63929,-11.46821 18.02668,-22.50733c5.67357,-5.50006 11.78976,-9.59585 17.06096,-11.70226c0.04023,0.23405 0.08047,0.42908 0.12071,0.66313l0.12071,0.42908c0.08048,0.27305 0.16096,0.54611 0.24143,0.78015c0.04024,0.15603 0.08048,0.27305 0.12072,0.39008c0.04024,0.15603 0.12071,0.27305 0.16095,0.39007c0.04024,0.15603 0.12071,0.31206 0.20119,0.42908c0.08048,0.19504 0.16095,0.35107 0.24143,0.54611c2.49476,4.99296 7.40381,7.33341 11.70929,9.3618c2.65572,1.24824 5.15048,2.45748 6.84048,4.05679c1.64976,1.63831 2.89714,4.05678 4.18476,6.63127c2.13262,4.21282 4.50667,8.93272 9.65715,11.35119c0.16095,0.07802 0.36214,0.15603 0.5231,0.23405c0.16095,0.07801 0.3219,0.11702 0.48285,0.19503c0.12072,0.03901 0.24143,0.07802 0.40238,0.15603c0.12072,0.03901 0.28167,0.07802 0.40238,0.11703c0.24143,0.07801 0.5231,0.15603 0.80477,0.23404l0.44262,0.11702c0.24142,0.07802 0.44261,0.11703 0.68404,0.15603l0.00001,0z" id="svg_95" fill="#2b79c2" stroke="null"/>
  <defs>
   <filter color-interpolation-filters="sRGB" id="svg_410" x="-0.020446" width="1.040892" y="-0.334575" height="1.66915">
    <feGaussianBlur stdDeviation="2.024068" id="svg_414"/>
   </filter>
  </defs>
  <metadata id="svg_413">image/svg+xml</metadata>
  <path d="m51.52777,151.19942l0,244.29594l589.9291,0l0,-244.29594l-589.9291,0z" id="svg_412" fill="#7ebdfc" stroke="null"/>
  <path id="svg_409" d="m119.7055,131.28665c-57.62342,0 -72.45133,-0.97413 -72.45133,3.80065l0,23.04847l597.01418,0l0,-23.04847c0,-5.73672 -15.59011,-3.80065 -72.45132,-3.80065l-452.10148,0l-0.01005,0z" filter="url(#svg_410)" fill="#000000"/>
  <path d="m112.84269,124.34086c-59.56181,0 -74.88851,-3.89 -74.88851,15.17727l0,92.04031l617.09706,0l0,-92.04031c0,-22.90867 -16.11455,-15.17727 -74.8885,-15.17727l-467.30966,0l-0.01039,0z" id="svg_408" fill="#f998b0"/>
  <path d="m292.57416,128.5354l0,67.3251l108.11403,0l0,-67.3251l-108.11403,0zm10.85622,70.96255l0,193.20099l86.55184,0l0,-193.40184l-86.55184,0.20085z" id="svg_406" fill="#eeeeee" stroke="null"/>
  <text fill="#000000" stroke-width="0" stroke-opacity="null" x="145.222806" y="286.819582" id="svg_443" font-size="24" font-family="Helvetica, Arial, sans-serif" text-anchor="start" xml:space="preserve" transform="matrix(3.7989420890808105,0,0,4.238941028084042,-419.8413133621216,-867.6198633939318) " stroke="null">Toffee Box</text>
  <path transform="rotate(221.00299072265625 839.3685913085936,338.30395507812494) " class="st0" d="m867.029915,363.743401c-7.14573,1.81523 -14.29147,2.38249 -20.98804,1.62614l0,0c-0.1225,0 -0.24499,-0.03781 -0.32666,-0.03781c-0.04083,0 -0.1225,0 -0.16333,-0.03782c-0.16333,-0.03782 -0.32666,-0.03782 -0.48999,-0.07564c-0.1225,-0.03781 -0.20417,-0.03781 -0.32667,-0.07563c-0.16333,-0.03782 -0.32666,-0.07563 -0.53082,-0.15127c-0.08167,0 -0.16333,-0.03782 -0.20417,-0.07563c-0.08166,0 -0.12249,-0.03782 -0.20416,-0.07564c-0.1225,-0.03782 -0.20416,-0.07563 -0.32666,-0.11345c-0.1225,-0.03782 -0.20417,-0.07564 -0.32666,-0.11345c-6.12492,-2.72286 -7.06407,-11.38304 -12.53566,-16.41276c-5.47159,-5.02972 -14.78146,-5.89952 -17.72142,-11.60995c-0.04083,-0.07563 -0.08167,-0.18908 -0.1225,-0.30253c-0.04083,-0.11346 -0.08166,-0.18909 -0.1225,-0.30254c-0.04083,-0.07564 -0.04083,-0.11346 -0.08166,-0.18909c-0.04083,-0.07564 -0.04083,-0.15127 -0.08167,-0.18909c-0.04083,-0.15127 -0.1225,-0.30254 -0.16333,-0.49162c-0.04083,-0.11346 -0.04083,-0.18909 -0.08166,-0.30254c-0.04084,-0.15127 -0.08167,-0.30254 -0.08167,-0.45381c0,-0.03782 -0.04083,-0.11345 -0.04083,-0.15127c0,-0.11345 -0.04083,-0.22691 -0.04083,-0.30254l0,0c-0.97999,-7.29876 0.04083,-15.2026 2.93995,-22.99299c8.32989,5.06754 14.2098,9.94598 18.66058,15.50514c2.08247,2.68504 4.00161,5.55916 5.83908,8.35765c3.06246,4.61372 6.28824,9.37872 10.33069,13.61427c4.08327,4.61372 9.84069,10.62669 17.19059,15.35387z" id="svg_451" fill="#3b4652" stroke="null"/>
  <path transform="rotate(221.00299072265625 816.7496948242188,337.346435546875) " class="st0" d="m856.643344,361.09579c-7.06406,6.0886 -14.94479,10.66451 -22.98884,13.65208c-8.53405,-4.5759 -15.18979,-11.49649 -19.68139,-16.56402c-0.04083,-0.03782 -0.04083,-0.07564 -0.08167,-0.07564c-3.75661,-3.89519 -6.69657,-8.28201 -9.79986,-12.89573c-1.91914,-2.87413 -3.87911,-5.78607 -6.08408,-8.66019c0,0 0,-0.03782 -0.04083,-0.03782c-5.02243,-6.31551 -11.63734,-11.79903 -21.11054,-17.43383l0,0c3.22579,-6.69368 7.79906,-13.19827 13.76064,-19.13561l66.02657,61.15076z" id="svg_452" fill="#3b4652" stroke="null"/>
  <path transform="rotate(221.00299072265625 791.8162231445312,338.1445007324219) " class="st0" d="m832.199835,353.781978c-3.22578,7.45003 -8.16655,14.74879 -14.74062,21.29121l-66.02658,-61.11294c6.36991,-5.52134 13.43398,-9.75689 20.66138,-12.74447c6.08408,8.77364 12.00483,14.90006 18.8239,19.55161c0,0 0.04084,0.03781 0.04084,0.03781c3.06245,2.04214 6.24741,3.85738 9.3507,5.6348c5.02243,2.87412 9.71819,5.59697 13.92397,9.07618c0.04083,0.03781 0.04083,0.03781 0.08167,0.07563c5.47158,4.1221 12.94398,10.32415 17.88474,18.19017z" id="svg_453" fill="#3b4652" stroke="null"/>
  <path transform="rotate(221.00299072265625 769.5938110351561,340.4942932128906) " class="st0" d="m797.075893,366.056242c-5.14493,-6.76931 -11.5965,-12.10157 -16.5781,-15.84549c-4.57327,-3.78174 -9.7182,-6.7315 -14.69979,-9.56781c-2.98079,-1.70178 -6.08408,-3.4792 -9.02404,-5.40789c-6.00242,-4.12209 -11.31068,-9.52998 -16.74143,-17.24473c8.41154,-2.68504 16.94559,-3.63048 24.82631,-2.72286c0.245,0.03782 0.44916,0.03782 0.69416,0.07564c0.20416,0.03781 0.40833,0.03781 0.57166,0.07563c0,0 0.04083,0 0.04083,0c0.20417,0.03782 0.3675,0.07564 0.57166,0.11345c0.16333,0.03782 0.28583,0.07564 0.44916,0.11346c0.08167,0.03781 0.16333,0.03781 0.20416,0.07563c0.1225,0.03782 0.28583,0.07563 0.40833,0.11345c0.245,0.07564 0.44916,0.15127 0.65333,0.26472c0.12249,0.03782 0.20416,0.11346 0.32666,0.15127c0.20416,0.11346 0.40833,0.18909 0.61249,0.30254c0.36749,0.18909 0.69416,0.37818 1.02082,0.60508c0.16333,0.11345 0.28583,0.18909 0.40833,0.30254c0.40832,0.30254 0.81665,0.6429 1.18415,0.98325c0.12249,0.11346 0.24499,0.22691 0.36749,0.34036c0.1225,0.11345 0.20416,0.2269 0.32666,0.34036c3.22579,3.36575 5.30826,8.24419 9.14654,11.83685c3.83828,3.55483 9.14654,5.48352 12.78066,8.4711c0.12249,0.11345 0.24499,0.18908 0.32666,0.30254c0.1225,0.11345 0.24499,0.2269 0.36749,0.34035c0.3675,0.34036 0.73499,0.71853 1.06165,1.09671c0.1225,0.11345 0.20417,0.26472 0.32667,0.41599c0.24499,0.30254 0.44916,0.60508 0.65332,0.94543c0.1225,0.18909 0.245,0.37818 0.32666,0.56727c0.04084,0.11345 0.1225,0.18908 0.16333,0.30253c0.08167,0.18909 0.20417,0.416 0.28583,0.60508c0.04084,0.11346 0.08167,0.22691 0.1225,0.37818c0.04083,0.07563 0.04083,0.15127 0.08167,0.2269c0.04083,0.15127 0.08166,0.26472 0.1225,0.41599c0.04083,0.15127 0.08166,0.34036 0.12249,0.52945c0,0 0,0.03781 0,0.03781c0.04084,0.18909 0.08167,0.34036 0.08167,0.52945c0.04083,0.2269 0.04083,0.41599 0.08166,0.64289c0.89833,6.08861 0.28583,12.66884 -1.67414,19.28688z" id="svg_454" fill="#3b4652" stroke="null"/>
  <path transform="rotate(221.00299072265625 724.1560058593749,340.51971435546875) " class="st1" d="m741.986132,363.692063c-5.75741,5.33225 -11.96399,9.26527 -17.31309,11.34522c-0.04083,-0.2269 -0.08166,-0.49162 -0.12249,-0.71853l-0.16333,-0.83198l-0.04084,-0.07563c-0.04083,-0.18909 -0.08166,-0.34036 -0.16333,-0.52945c-0.04083,-0.11345 -0.08166,-0.18909 -0.08166,-0.30254c-0.08167,-0.18908 -0.16333,-0.41599 -0.20417,-0.60508c-0.1225,-0.30254 -0.24499,-0.64289 -0.40832,-0.94543c-0.04084,-0.11345 -0.08167,-0.18909 -0.16334,-0.30254l-0.04083,-0.11345c-0.16333,-0.30254 -0.32666,-0.6429 -0.53083,-0.94544c-0.32666,-0.49162 -0.65332,-0.98325 -0.97998,-1.39924c-0.1225,-0.15127 -0.28583,-0.37818 -0.48999,-0.60508c-0.44917,-0.52944 -0.93916,-1.02107 -1.51082,-1.55052l-0.04083,-0.03781c-0.16333,-0.11346 -0.28583,-0.26473 -0.44916,-0.41599c-0.1225,-0.11346 -0.28583,-0.22691 -0.44916,-0.37818c-2.00081,-1.62615 -4.24661,-2.91194 -6.41074,-4.15991c-2.28664,-1.32361 -4.49161,-2.57159 -6.12492,-4.08428c-1.63331,-1.5127 -2.98079,-3.55484 -4.40994,-5.67262c-1.34748,-2.00432 -2.73579,-4.08428 -4.4916,-5.89951l-0.04083,-0.03782c-0.1225,-0.11345 -0.245,-0.26472 -0.3675,-0.37817c-0.16333,-0.15127 -0.28583,-0.26473 -0.44916,-0.45381c-0.53082,-0.52945 -1.10248,-0.98326 -1.67414,-1.39925c-0.245,-0.18908 -0.48999,-0.34035 -0.65332,-0.45381c-0.49,-0.34035 -0.97999,-0.64289 -1.51082,-0.90761c-0.36749,-0.18909 -0.69415,-0.37818 -1.06165,-0.52945l-0.1225,-0.03781c-0.12249,-0.03782 -0.20416,-0.11346 -0.32666,-0.15127c-0.36749,-0.15127 -0.69416,-0.26473 -1.02082,-0.37818c-0.20416,-0.07563 -0.44916,-0.15127 -0.65332,-0.18909c-0.1225,-0.03781 -0.20417,-0.07563 -0.32666,-0.07563c-0.20417,-0.07564 -0.40833,-0.11345 -0.65333,-0.15127l-0.08166,-0.03782l-0.81666,-0.15127c-0.245,-0.03781 -0.48999,-0.07563 -0.77582,-0.11345c2.20497,-4.95408 6.49241,-10.70233 12.24983,-16.03458c11.55567,-10.70233 18.74223,-21.40466 23.51967,-16.9422c2.53163,2.34468 8.28905,12.47974 5.71658,17.812c5.75742,-2.3825 10.61652,-2.68504 13.14815,-0.34036c2.53163,2.34468 2.20497,6.88277 -0.36749,12.17721c5.75742,-2.3825 16.7006,2.94976 19.23223,5.29444c4.7366,4.349 -6.81907,11.00486 -18.37475,21.70719z" id="svg_455" fill="#ff7f00" stroke="null"/>
  <path transform="rotate(221.00299072265625 884.4576416015625,335.56393432617176) " class="st1" d="m921.768284,336.122027c-2.20497,4.95408 -6.45157,10.70233 -12.24982,16.03458c-11.55567,10.70233 -18.74224,21.40466 -23.51967,16.9422c-2.53163,-2.34467 -8.28905,-12.47974 -5.71659,-17.812c-5.75742,2.3825 -10.61652,2.68504 -13.14815,0.34036c-2.53163,-2.34468 -2.20497,-6.88277 0.3675,-12.17721c-5.75742,2.3825 -16.7006,-2.94975 -19.23223,-5.29443c-4.81827,-4.46246 6.7374,-11.11832 18.29307,-21.82065c5.75742,-5.33225 11.964,-9.30308 17.31309,-11.34522c0.04084,0.2269 0.08167,0.41599 0.1225,0.64289l0.1225,0.416c0.08166,0.26472 0.16333,0.52944 0.245,0.75634c0.04083,0.15127 0.08166,0.26473 0.12249,0.37818c0.04084,0.15127 0.1225,0.26472 0.16333,0.37817c0.04084,0.15127 0.1225,0.30254 0.20417,0.41599c0.08166,0.18909 0.16333,0.34036 0.245,0.52945c2.53163,4.84063 7.51322,7.10967 11.88233,9.07618c2.69496,1.21015 5.22659,2.38249 6.94157,3.93301c1.67414,1.58833 2.93996,3.93301 4.2466,6.42896c2.16414,4.08428 4.57327,8.66018 9.79987,11.00486c0.16333,0.07564 0.36749,0.15127 0.53082,0.22691c0.16333,0.07563 0.32667,0.11345 0.49,0.18908c0.12249,0.03782 0.24499,0.07564 0.40832,0.15127c0.1225,0.03782 0.28583,0.07564 0.40833,0.11346c0.245,0.07563 0.53083,0.15127 0.81666,0.2269l0.44916,0.11345c0.24499,0.07564 0.44916,0.11346 0.69415,0.15127z" id="svg_456" fill="#ff7f00" stroke="null"/>
  <text style="cursor: move;" fill="#000000" stroke-width="0" stroke-opacity="null" fill-opacity="null" x="291.913678" y="423.238139" id="svg_459" font-size="24" font-family="Helvetica, Arial, sans-serif" text-anchor="start" xml:space="preserve" transform="matrix(1.7165957484909087,0,0,1.7152665095946216,-233.27454057253738,-288.79441356429055) " stroke="null">14 toffees</text>
 </g>
</svg>