<svg width="1440" height="1024" viewBox="0 0 1440 1024" fill="none" xmlns="http://www.w3.org/2000/svg">
<g clip-path="url(#clip0_520_5173)">
<rect width="1440" height="1024" fill="#F3BE7C"/>
<g clip-path="url(#clip1_520_5173)">
<path d="M648.506 -144.125L586.377 -110.199L771.27 171.043L808.992 149.513L648.506 -144.125ZM642.656 -117.268C643.111 -113.599 641.397 -110.091 638.124 -108.936C634.851 -107.78 630.795 -109.647 628.818 -113.149C628.521 -113.674 628.224 -114.199 628.103 -114.823C626.43 -119.421 628.176 -124.101 631.974 -125.553C635.872 -126.83 640.323 -124.263 642.094 -119.49C642.49 -118.79 642.71 -117.991 642.656 -117.268Z" fill="#00BCE9"/>
<path d="M586.377 -110.199L586.35 -100.023L769.927 180.115L771.095 171.142L586.377 -110.199Z" fill="#05A7C1"/>
<path d="M771.096 171.142L808.994 149.513L807.582 157.238L769.928 180.115L771.096 171.142Z" fill="#0686BF"/>
<path d="M595.418 -107.684L609.426 -115.593L784.681 153.079L771.41 163.113L595.418 -107.684Z" fill="#ABE9F4"/>
<path d="M665.923 4.91573L665.034 3.33983L674.992 -2.74461L675.958 -1.44268L665.923 4.91573Z" fill="white"/>
<path d="M672.656 15.2013L671.766 13.6255L681.724 7.54103L682.515 8.94181L672.656 15.2013Z" fill="white"/>
<path d="M679.386 25.4865L678.42 24.1846L688.454 17.8262L689.245 19.227L679.386 25.4865Z" fill="white"/>
<path d="M686.118 35.7724L685.152 34.4705L695.186 28.1121L695.977 29.5129L686.118 35.7724Z" fill="white"/>
<path d="M692.673 46.1568L691.883 44.756L701.742 38.4965L702.807 39.9735L692.673 46.1568Z" fill="white"/>
<path d="M699.404 56.4423L698.613 55.0415L708.472 48.782L709.362 50.3579L699.404 56.4423Z" fill="white"/>
<path d="M706.235 66.9028L705.17 65.4258L715.303 59.2425L716.094 60.6432L706.235 66.9028Z" fill="white"/>
<path d="M712.966 77.1886L711.901 75.7116L722.034 69.5283L722.825 70.9291L712.966 77.1886Z" fill="white"/>
<path d="M719.523 87.5731L718.732 86.1723L728.591 79.9127L729.557 81.2147L719.523 87.5731Z" fill="white"/>
<path d="M726.254 97.8585L725.463 96.4577L735.322 90.1982L736.113 91.599L726.254 97.8585Z" fill="white"/>
<path d="M732.985 108.144L732.019 106.842L742.053 100.484L742.844 101.885L732.985 108.144Z" fill="white"/>
<path d="M739.716 118.43L738.75 117.128L748.784 110.769L749.674 112.345L739.716 118.43Z" fill="white"/>
<path d="M746.273 128.814L745.482 127.413L755.341 121.153L756.406 122.63L746.273 128.814Z" fill="white"/>
<path d="M753.103 139.275L752.213 137.699L762.171 131.614L762.962 133.015L753.103 139.275Z" fill="white"/>
<path d="M759.833 149.56L758.768 148.083L768.901 141.9L769.692 143.301L759.833 149.56Z" fill="white"/>
<path d="M766.565 159.846L765.599 158.544L775.634 152.186L776.424 153.586L766.565 159.846Z" fill="white"/>
<path d="M637.702 -133.405L647.409 -139.117L798.904 142.279L637.702 -133.405Z" fill="#22D2EF"/>
<path opacity="0.3" d="M795.685 157.027L808.894 149.338L648.506 -144.125L586.377 -110.199L586.35 -100.023L769.927 180.115L807.581 157.238L808.993 149.513L795.685 157.027ZM633.35 -121.481C636.624 -122.636 640.68 -120.77 642.657 -117.268C643.112 -113.599 641.398 -110.091 638.125 -108.936C634.851 -107.78 630.795 -109.647 628.818 -113.149C628.538 -116.916 630.252 -120.424 633.35 -121.481ZM714.621 85.0284L771.194 171.317L714.621 85.0284Z" fill="url(#paint0_linear_520_5173)"/>
</g>
<path d="M1412.47 686.581C1411.12 640.545 1371.34 598.388 1325.33 595.353C1279.31 592.149 1233.97 629.079 1228.41 674.946C1227.06 686.413 1228.07 698.554 1234.31 708.166C1240.54 717.778 1253.19 723.68 1263.97 719.801C1276.11 715.417 1281.5 699.734 1277.29 687.424C1273.24 675.114 1261.95 666.346 1249.98 661.624C1224.53 651.675 1193.35 658.42 1174.13 677.812C1152.56 699.734 1147.67 732.617 1139.41 762.464C1121.71 827.724 1091.54 928.902 992.764 919.964" stroke="white" stroke-width="3" stroke-miterlimit="10" stroke-linecap="round" stroke-linejoin="round" stroke-dasharray="8 8"/>
<path d="M285.158 585.235C228.186 592.149 167.168 576.635 126.04 536.67C84.9115 496.705 67.7186 431.276 91.1482 379.001C100.419 358.26 118.792 338.699 141.547 338.867C149.975 338.867 159.246 342.746 162.28 350.671C166.156 361.126 155.706 373.099 144.412 373.436C133.119 373.774 123.174 365.848 117.275 356.236C105.981 338.024 106.824 312.898 119.466 295.529" stroke="white" stroke-width="3" stroke-miterlimit="10" stroke-linecap="round" stroke-linejoin="round" stroke-dasharray="8 8"/>
<path d="M1447.12 484.748L1442.27 496.29C1441.26 498.465 1441.93 501.141 1443.77 502.647L1453.31 510.843C1457.33 514.356 1454.48 521.047 1449.13 520.545L1436.58 519.541C1434.24 519.374 1431.89 520.712 1430.89 522.887L1426.04 534.429C1423.86 539.447 1416.67 538.778 1415.5 533.592L1412.65 521.381C1412.15 519.04 1410.14 517.367 1407.63 517.032L1395.08 516.029C1389.73 515.527 1388.06 508.501 1392.74 505.658L1403.45 499.134C1405.46 497.963 1406.63 495.454 1405.96 493.112L1403.12 480.901C1401.94 475.548 1408.13 471.868 1412.15 475.381L1421.69 483.577C1423.53 485.083 1426.2 485.417 1428.21 484.079L1438.92 477.556C1443.77 474.879 1449.29 479.73 1447.12 484.748Z" fill="#C18327"/>
<g clip-path="url(#clip2_520_5173)">
<path d="M60.0403 876.185L79.4651 842.736C84.6885 833.741 96.0396 830.699 105.061 835.877L212.972 897.63C221.993 902.808 225.019 914.101 219.796 923.096L200.593 956.486C195.37 965.481 184.019 968.522 174.998 963.344L67.0867 901.592C58.0656 896.414 54.9801 884.899 60.0403 876.185Z" fill="#FF7765"/>
<path d="M154.617 864.134L105.06 835.877C96.0393 830.699 84.6882 833.741 79.4647 842.735L60.2626 876.125C55.0391 885.12 58.0653 896.414 67.0863 901.592L116.643 929.849L154.617 864.134Z" fill="#4774B5"/>
<path d="M173.263 952.417C168.189 949.504 165.979 943.925 168.264 939.99C170.549 936.055 176.514 935.169 181.588 938.081C186.663 940.994 188.873 946.573 186.588 950.508C184.303 954.443 178.338 955.329 173.263 952.417Z" fill="#E85D4C"/>
<path d="M155.711 926.976C152.61 925.196 151.275 921.994 152.522 919.523C153.828 917.275 157.507 916.763 160.608 918.543C163.709 920.323 165.044 923.526 163.798 925.996C162.27 928.304 158.812 928.756 155.711 926.976Z" fill="#E85D4C"/>
<g opacity="0.58">
<g opacity="0.58">
<g opacity="0.58">
<path opacity="0.58" d="M216.249 921.436C219.203 913.761 214.87 904.716 207.333 901.514C206.487 901.028 205.271 901.829 205.063 902.834C204.855 903.839 205.315 904.666 206.383 905.091C212.289 907.544 214.974 914.894 212.941 920.661C212.673 921.444 213.252 922.713 214.261 922.918C214.988 922.96 215.76 922.279 216.249 921.436Z" fill="white"/>
</g>
</g>
<g opacity="0.58">
<g opacity="0.58">
<path opacity="0.58" d="M192.512 893.38C169.247 881.338 146.25 868.513 123.638 855.346C121.664 854.214 119.869 857.306 121.842 858.438C144.513 871.826 167.452 884.43 190.717 896.472C192.69 897.605 194.485 894.513 192.512 893.38Z" fill="white"/>
</g>
</g>
</g>
</g>
<g clip-path="url(#clip3_520_5173)">
<path d="M611.111 973.403C607.185 978.145 599.988 981.252 594.59 981.906C588.375 982.56 582.65 980.761 577.906 977.327L590.665 1076.91C592.955 1094.41 608.821 1106.67 626.323 1104.55C643.825 1102.26 656.093 1086.4 653.967 1068.9L640.881 966.535C638.918 979.126 619.617 980.434 611.111 973.403Z" fill="#038D87"/>
<path d="M639.573 956.887L576.271 964.899L573 939.227L591.32 901.453C594.428 894.912 603.261 893.767 608.004 899.164L636.302 931.214L639.573 956.887Z" fill="#FDC0B8"/>
<path d="M613.728 905.541L608.004 899.164C603.26 893.767 594.427 894.912 591.319 901.453L587.721 908.811L613.728 905.541Z" fill="#038D87"/>
<path d="M606.533 938.082C602.607 942.824 595.41 945.931 590.012 946.585C583.797 947.239 578.072 945.441 573.328 942.007L590.012 1073.31L653.314 1065.3L636.139 931.214C634.34 943.969 615.039 945.114 606.533 938.082Z" fill="#038D87"/>
<path d="M607.023 952.145C608.332 962.774 609.804 973.566 611.113 984.195C611.276 985.667 613.73 985.667 613.566 984.195C612.258 973.566 610.786 962.774 609.477 952.145C609.313 950.673 606.86 950.51 607.023 952.145Z" fill="white"/>
<path d="M589.357 955.415C593.447 985.34 597.209 1015.43 600.644 1045.35C601.625 1053.86 602.607 1062.36 603.588 1070.86C603.752 1072.33 606.205 1072.33 606.042 1070.86C602.77 1040.77 599.008 1010.85 595.246 980.761C594.101 972.258 592.956 963.755 591.975 955.415C591.647 953.944 589.194 953.944 589.357 955.415Z" fill="white"/>
<path d="M710.564 1001.69C706.639 1006.43 699.441 1009.54 694.044 1010.19C687.828 1010.85 682.103 1009.05 677.359 1005.62L690.118 1105.2C692.408 1122.7 708.274 1134.96 725.776 1132.84C743.278 1130.55 755.546 1114.69 753.42 1097.19L740.334 994.824C738.535 1007.42 719.234 1008.72 710.564 1001.69Z" fill="#E65B49"/>
<path d="M739.189 985.013L675.887 993.025L672.615 967.352L690.935 929.579C694.043 923.038 702.876 921.893 707.619 927.29L735.917 959.34L739.189 985.013Z" fill="#FDC0B8"/>
<path d="M713.182 933.83L707.457 927.453C702.713 922.057 693.88 923.201 690.772 929.742L687.174 937.101L713.182 933.83Z" fill="#E65B49"/>
<path d="M706.148 966.371C702.223 971.113 695.025 974.22 689.628 974.874C683.412 975.529 677.687 973.73 672.943 970.296L689.628 1101.6L752.93 1093.59L735.755 959.503C733.955 972.258 714.654 973.403 706.148 966.371Z" fill="#E65B49"/>
<path d="M706.639 980.434C707.947 991.063 709.419 1001.86 710.728 1012.48C710.892 1013.96 713.345 1013.96 713.182 1012.48C711.873 1001.86 710.401 991.063 709.092 980.434C708.929 978.799 706.475 978.799 706.639 980.434Z" fill="white"/>
<path d="M688.973 983.705C693.062 1013.63 696.824 1043.72 700.259 1073.64C701.24 1082.14 702.222 1090.65 703.203 1099.15C703.367 1100.62 705.82 1100.62 705.657 1099.15C702.385 1069.06 698.623 1039.14 694.861 1009.05C693.716 1000.55 692.571 992.044 691.59 983.705C691.263 982.233 688.809 982.233 688.973 983.705Z" fill="white"/>
<path d="M802.98 950.673C799.055 955.415 791.857 958.522 786.46 959.176C780.244 959.83 774.519 958.031 769.775 954.597L782.534 1054.18C784.824 1071.68 800.69 1083.94 818.192 1081.82C835.695 1079.53 847.962 1063.67 845.836 1046.17L832.75 943.805C830.787 956.396 811.486 957.704 802.98 950.673Z" fill="#CC851E"/>
<path d="M831.443 933.994L768.141 942.006L764.869 916.333L783.189 878.56C786.297 872.019 795.13 870.874 799.873 876.271L828.171 908.484L831.443 933.994Z" fill="#FDC0B8"/>
<path d="M805.434 882.811L799.709 876.434C794.966 871.038 786.133 872.182 783.025 878.723L779.59 886.082L805.434 882.811Z" fill="#CC851E"/>
<path d="M798.402 915.352C794.476 920.094 787.279 923.201 781.882 923.855C775.666 924.51 769.941 922.711 765.197 919.277L781.882 1050.59L845.183 1042.57L828.009 908.484C826.209 921.239 806.908 922.384 798.402 915.352Z" fill="#CC851E"/>
<path d="M798.893 929.415C800.201 940.044 801.673 950.836 802.982 961.465C803.145 962.937 805.599 962.937 805.435 961.465C804.127 950.836 802.655 940.044 801.346 929.415C801.183 927.78 798.729 927.78 798.893 929.415Z" fill="white"/>
<path d="M781.227 932.686C785.316 962.61 789.078 992.698 792.513 1022.62C793.494 1031.13 794.476 1039.63 795.457 1048.13C795.621 1049.6 798.074 1049.6 797.911 1048.13C794.639 1018.04 790.877 988.12 787.115 958.032C785.97 949.528 784.825 941.025 783.844 932.686C783.517 931.214 781.063 931.214 781.227 932.686Z" fill="white"/>
</g>
<g clip-path="url(#clip4_520_5173)">
<path d="M1393.67 275.762C1391.05 281.953 1386.76 286.714 1381.76 291C1377.48 294.572 1374.86 295.762 1368.9 296C1356.52 296.476 1343.9 292.905 1333.9 285.762C1319.14 275.286 1312.24 258.857 1309.38 241.714C1304.38 212.191 1306.76 180.762 1320.81 154.572C1334.86 128.143 1361.76 107.667 1391.52 106C1403.67 105.286 1415.81 107.667 1427.24 111.714C1455.57 121.714 1481.05 145.048 1486.29 174.81C1487.71 183.143 1487.48 191.953 1483.43 199.334C1468.9 226.238 1420.81 213.381 1404.14 238.857C1397.24 249.81 1398.43 263.857 1393.67 275.762Z" fill="white"/>
<path d="M1360.57 214.095C1363.9 205.524 1359.62 195.762 1350.81 192.429C1342.24 189.095 1332.48 193.381 1329.14 202.191C1325.81 210.762 1330.09 220.524 1338.9 223.857C1347.48 226.953 1357.24 222.667 1360.57 214.095Z" fill="#002C44"/>
<path d="M1386.76 162.428C1390.1 153.857 1385.81 144.095 1377 140.762C1368.43 137.428 1358.67 141.714 1355.33 150.524C1352 159.095 1356.29 168.857 1365.1 172.19C1373.67 175.286 1383.43 171 1386.76 162.428Z" fill="#FF7765"/>
<path d="M1438.19 158.857C1441.52 150.286 1437.24 140.524 1428.43 137.19C1419.86 133.857 1410.09 138.143 1406.76 146.952C1403.43 155.524 1407.71 165.286 1416.52 168.619C1425.09 171.952 1434.86 167.667 1438.19 158.857Z" fill="#01B8C1"/>
</g>
<path d="M1023.11 129.218L1029.8 135.741C1031.14 137.08 1032.98 137.247 1034.65 136.411L1042.85 132.061C1046.36 130.221 1050.21 133.901 1048.54 137.581L1044.36 145.945C1043.52 147.618 1043.86 149.458 1045.19 150.796L1051.89 157.32C1054.73 160.164 1052.39 165.014 1048.37 164.345L1039.17 163.007C1037.33 162.673 1035.66 163.676 1034.82 165.349L1030.64 173.713C1028.8 177.393 1023.44 176.556 1022.77 172.542L1021.27 163.342C1020.93 161.502 1019.59 160.164 1017.75 159.996L1008.55 158.658C1004.54 158.156 1003.7 152.803 1007.21 150.796L1015.41 146.447C1017.08 145.611 1017.92 143.771 1017.59 142.098L1016.08 132.898C1015.41 128.883 1020.26 126.374 1023.11 129.218Z" fill="white"/>
<path d="M33.1719 477.048C34.8451 490.764 36.5182 504.481 38.1914 518.03C38.6934 522.212 41.5378 526.394 46.2227 526.059C50.2383 525.892 54.9231 522.547 54.2538 518.03C52.5807 504.314 50.9075 490.597 49.2343 477.048C48.7324 472.866 45.888 468.684 41.2032 469.019C37.3549 469.186 32.67 472.532 33.1719 477.048Z" fill="#A4742F"/>
<path d="M27.1479 506.99C28.8211 506.656 30.4943 506.488 32.1674 506.154C32.6694 506.154 33.004 505.987 33.506 505.987C32.5021 506.154 32.502 506.154 33.3386 505.987C34.0079 505.987 34.6772 505.819 35.3464 505.819C38.3581 505.485 41.3698 505.15 44.3815 504.983C50.7396 504.481 56.9303 503.979 63.2883 503.31C67.4712 502.976 71.6542 499.965 71.3196 495.281C71.1522 491.267 67.8059 486.75 63.2883 487.252C49.7357 488.59 36.3503 489.259 22.965 491.601C18.7821 492.27 16.105 497.623 17.2762 501.47C18.6148 505.819 22.6304 507.827 27.1479 506.99Z" fill="#A4742F"/>
<path d="M499.364 140.719C509.236 141.054 518.94 141.221 528.812 141.556C532.158 141.723 535.337 138.545 535.17 135.199C535.003 131.686 532.326 129.01 528.812 128.843C518.94 128.508 509.236 128.341 499.364 128.006C496.018 127.839 492.839 131.017 493.006 134.363C493.174 138.043 495.851 140.719 499.364 140.719Z" fill="white"/>
<path d="M499.364 167.985C509.236 168.319 518.94 168.487 528.812 168.821C532.158 168.988 535.337 165.81 535.17 162.465C535.003 158.952 532.326 156.276 528.812 156.108C518.94 155.774 509.236 155.606 499.364 155.272C496.018 155.105 492.839 158.283 493.006 161.628C493.174 165.141 495.851 167.985 499.364 167.985Z" fill="white"/>
<path d="M159.986 173.353C171.075 173.353 180.064 164.366 180.064 153.28C180.064 142.194 171.075 133.208 159.986 133.208C148.897 133.208 139.908 142.194 139.908 153.28C139.908 164.366 148.897 173.353 159.986 173.353Z" fill="#FD9143"/>
<path d="M59.4301 221.362C59.0954 215.006 62.2745 207.646 65.9554 203.464C70.1384 198.613 75.6598 195.936 81.6832 195.267L2.54236 129.528C-11.3449 117.987 -31.9249 119.827 -43.4698 133.71C-55.0146 147.594 -53.1741 168.169 -39.2868 179.711L41.8618 247.29C34.4999 236.417 48.0525 222.031 59.4301 221.362Z" fill="#FD9143"/>
<path d="M49.5586 253.645L91.3878 203.463L111.633 220.357L124.349 261.34C126.524 268.365 120.836 275.391 113.474 274.722L69.9713 270.54L49.5586 253.645Z" fill="#FDC0B8"/>
<path d="M104.771 273.885L113.472 274.721C120.834 275.391 126.523 268.365 124.348 261.339L121.838 253.31L104.771 273.885Z" fill="#FD9143"/>
<path d="M87.3711 244.612C87.0364 238.256 90.2155 230.896 93.8964 226.714C98.0794 221.863 103.601 219.187 109.624 218.518L5.38584 131.869L-36.4434 182.052L69.8028 270.373C62.4409 259.667 75.9935 245.281 87.3711 244.612Z" fill="#FD9143"/>
<path d="M77.1653 234.408C68.6322 227.383 60.2663 220.357 51.7332 213.332C50.5619 212.328 48.7215 214.001 49.8927 215.172C58.4258 222.197 66.7917 229.223 75.3248 236.248C76.6634 237.252 78.3365 235.412 77.1653 234.408Z" fill="white"/>
<path d="M88.0406 219.688C64.1143 200.117 40.5226 180.211 17.0983 160.306C10.4056 154.619 3.71294 148.931 -2.97973 143.077C-4.15094 142.073 -5.99143 143.746 -4.82021 144.917C18.6041 164.99 42.1958 184.895 65.9548 204.634C72.8148 210.321 79.5074 215.841 86.3674 221.528C87.5387 222.365 89.2118 220.692 88.0406 219.688Z" fill="white"/>
<path d="M1265.1 394.819C1272.46 385.284 1279.99 375.917 1287.35 366.382C1288.69 364.709 1289.69 363.204 1289.69 360.862C1289.69 359.022 1288.86 356.68 1287.35 355.342C1285.85 354.004 1284.01 353 1281.83 353C1279.99 353.167 1277.65 353.669 1276.31 355.342C1268.95 364.876 1261.42 374.244 1254.06 383.778C1252.72 385.451 1251.71 386.957 1251.71 389.299C1251.71 391.139 1252.55 393.48 1254.06 394.819C1255.56 396.157 1257.4 397.16 1259.58 397.16C1261.58 397.16 1263.93 396.491 1265.1 394.819Z" fill="#B55241"/>
<path d="M1252.72 368.891C1256.73 368.891 1260.75 365.378 1260.41 361.196C1260.25 357.014 1257.07 353.502 1252.72 353.502C1248.7 353.502 1244.68 357.014 1245.02 361.196C1245.02 365.211 1248.37 368.891 1252.72 368.891Z" fill="#B55241"/>
<path d="M1290.53 400.673C1294.55 400.673 1298.56 397.16 1298.23 392.978C1298.06 388.797 1294.88 385.284 1290.53 385.284C1286.51 385.284 1282.5 388.797 1282.83 392.978C1283 397.16 1286.18 400.673 1290.53 400.673Z" fill="#B55241"/>
<path d="M945.108 914.218L951.8 920.742C953.139 922.08 954.979 922.247 956.653 921.411L964.851 917.062C968.365 915.222 972.213 918.902 970.54 922.582L966.357 930.945C965.52 932.618 965.855 934.458 967.194 935.796L973.886 942.32C976.731 945.164 974.388 950.015 970.373 949.346L961.17 948.007C959.33 947.673 957.657 948.676 956.82 950.349L952.637 958.713C950.797 962.393 945.442 961.557 944.773 957.542L943.267 948.342C942.933 946.502 941.594 945.164 939.754 944.996L930.551 943.658C926.536 942.989 925.699 937.804 929.213 935.796L937.411 931.447C939.084 930.611 939.921 928.771 939.586 927.098L938.08 917.898C937.411 913.883 942.263 911.374 945.108 914.218Z" fill="#FFBBAE"/>
<path d="M382.108 919.114L388.8 925.638C390.139 926.976 391.979 927.143 393.653 926.307L401.851 921.958C405.365 920.118 409.213 923.798 407.54 927.478L403.357 935.841C402.52 937.514 402.855 939.354 404.194 940.692L410.886 947.216C413.731 950.06 411.388 954.911 407.373 954.242L398.17 952.903C396.33 952.569 394.657 953.572 393.82 955.245L389.637 963.609C387.797 967.289 382.442 966.453 381.773 962.438L380.267 953.238C379.933 951.398 378.594 950.06 376.754 949.892L367.551 948.554C363.536 948.052 362.699 942.7 366.213 940.692L374.411 936.343C376.084 935.507 376.921 933.667 376.586 931.994L375.08 922.794C374.411 918.947 379.263 916.438 382.108 919.114Z" fill="white"/>
<path d="M1225.08 957.146C1236.17 957.146 1245.16 948.159 1245.16 937.073C1245.16 925.987 1236.17 917 1225.08 917C1213.99 917 1205 925.987 1205 937.073C1205 948.159 1213.99 957.146 1225.08 957.146Z" fill="#FFFAF7"/>
<path d="M118.089 580L-231 858.213L-168.843 936.257L180.246 658.044L118.089 580Z" fill="white"/>
<path d="M-31.1246 700.417C-20.9394 711.505 -10.7543 722.592 -0.868731 733.68C1.22821 735.778 4.22383 732.481 2.42646 730.384C-7.75868 719.296 -17.9438 708.209 -27.8294 697.421C-29.9263 695.023 -32.922 698.32 -31.1246 700.417Z" fill="#002C44"/>
<path d="M-14.6483 687.232C-10.4544 692.027 -6.26054 696.822 -2.06666 701.317C-1.16797 702.216 0.329838 702.216 1.22853 701.317C2.12721 700.418 2.12721 699.219 1.22853 698.02C-2.96535 693.226 -7.15922 688.431 -11.3531 683.936C-12.2518 683.037 -13.7496 683.037 -14.6483 683.936C-15.2474 685.135 -15.2474 686.333 -14.6483 687.232Z" fill="#002C44"/>
<path d="M4.82245 673.149C9.91502 678.543 15.0076 683.638 20.1002 689.032C20.9989 689.93 22.4967 689.93 23.3954 689.032C24.294 688.133 24.294 686.634 23.3954 685.735C18.3028 680.341 13.2102 675.247 8.11766 669.853C7.21897 668.954 5.72114 668.954 4.82245 669.853C3.92377 671.052 3.92377 672.25 4.82245 673.149Z" fill="#002C44"/>
<path d="M22.7966 657.567C32.9817 668.654 43.1668 679.742 53.0524 690.53C55.1493 692.627 58.145 689.331 56.3476 687.233C46.1625 676.146 35.9773 665.058 26.0918 653.971C23.9948 652.472 20.6996 655.469 22.7966 657.567Z" fill="#002C44"/>
<path d="M39.2717 644.381C43.4656 649.175 47.6595 653.97 51.8533 658.465C52.752 659.364 54.2498 659.364 55.1485 658.465C56.0472 657.566 56.0472 656.367 55.1485 655.169C50.9546 650.374 46.7608 645.579 42.5669 641.084C41.6682 640.185 40.1704 640.185 39.2717 641.084C38.373 642.283 38.373 643.482 39.2717 644.381Z" fill="#002C44"/>
<path d="M58.4435 630.296C63.5361 635.69 68.6287 640.785 73.7213 646.179C74.62 647.078 76.1178 647.078 77.0165 646.179C77.9152 645.28 77.9152 643.781 77.0165 642.882C71.9239 637.488 66.8313 632.394 61.7387 627C60.84 626.101 59.3422 626.101 58.4435 627C57.5449 628.199 57.5449 629.397 58.4435 630.296Z" fill="#002C44"/>
<path d="M76.4184 614.715C86.6035 625.802 96.7887 636.89 106.674 647.977C108.771 650.075 111.767 646.779 109.969 644.681C99.7843 633.594 89.5991 622.506 79.7136 611.718C77.6166 609.621 74.621 612.617 76.4184 614.715Z" fill="#002C44"/>
<path d="M92.8934 601.529C97.0872 606.324 101.281 611.118 105.475 615.613C106.374 616.512 107.872 616.512 108.77 615.613C109.669 614.714 109.669 613.516 108.77 612.317C104.576 607.523 100.382 602.728 96.1885 598.233C95.2899 597.334 93.792 597.334 92.8934 598.233C91.9947 599.432 92.2942 600.63 92.8934 601.529Z" fill="#002C44"/>
<g clip-path="url(#clip5_520_5173)">
<path d="M1308.28 819.411L1429.87 885.9L1423.34 891.487L1307.16 827.979L1308.28 819.411Z" fill="#967740"/>
<path d="M1399.66 836.359L1386.6 829.282L1346.32 807.305L1333.27 800.228L1298.4 781.232L1284.41 773.596L1259.24 760L1281.06 826.116L1292.99 862.06L1327.12 964.866L1329.73 972.688L1339.8 967.659L1382.13 946.428L1395.37 939.909L1497 889.065L1399.66 836.359ZM1383.62 909.552L1353.78 925.755L1342.59 899.495L1330.66 871.186L1310.71 824.253L1331.97 835.987L1345.02 843.064L1385.3 865.227L1398.17 872.304L1424.83 887.017L1396.86 902.102L1383.62 909.552Z" fill="black"/>
<path d="M1298.4 781.231L1292.99 861.874L1281.06 825.929C1282.18 807.305 1283.29 788.681 1284.41 773.595L1298.4 781.231Z" fill="#764F12"/>
<path d="M1330.66 871.186L1342.6 899.495L1339.8 967.846L1329.73 972.874L1327.12 965.052C1328.05 941.399 1329.35 906.572 1330.66 871.186Z" fill="#764F12"/>
<path d="M1346.32 807.305L1344.83 843.063L1331.78 835.986C1332.15 823.508 1332.71 811.402 1333.08 800.228L1346.32 807.305Z" fill="#764F12"/>
<path d="M1383.62 909.552L1397.05 902.289L1395.55 940.096L1382.31 946.614C1382.69 935.067 1383.06 922.403 1383.62 909.552Z" fill="#764F12"/>
<path d="M1399.66 836.359L1398.17 872.49L1385.3 865.413C1385.67 853.121 1386.23 840.829 1386.6 829.282L1399.66 836.359Z" fill="#764F12"/>
<path d="M1497 889.252L1495.51 896.329L1329.54 982L1257 764.284L1259.24 760L1329.91 972.874L1497 889.252Z" fill="#967740"/>
<path d="M1274.34 793.71L1273.78 792.034L1282.92 787.936L1283.48 789.612L1274.34 793.71Z" fill="white"/>
<path d="M1279 806.933L1278.45 805.256L1287.58 801.159L1288.14 802.835L1279 806.933Z" fill="white"/>
<path d="M1283.67 820.156L1283.11 818.666L1292.24 814.383L1292.8 816.059L1283.67 820.156Z" fill="white"/>
<path d="M1288.33 833.565L1287.58 831.889L1296.72 827.606L1297.47 829.282L1288.33 833.565Z" fill="white"/>
<path d="M1292.99 846.789L1292.24 845.113L1301.38 840.829L1302.13 842.505L1292.99 846.789Z" fill="white"/>
<path d="M1297.65 860.011L1296.91 858.335L1306.04 854.238L1306.79 855.728L1297.65 860.011Z" fill="white"/>
<path d="M1302.13 873.235L1301.57 871.559L1310.71 867.462L1311.27 869.138L1302.13 873.235Z" fill="white"/>
<path d="M1306.79 886.458L1306.23 884.782L1315.37 880.684L1315.93 882.361L1306.79 886.458Z" fill="white"/>
<path d="M1311.45 899.682L1310.89 898.192L1320.03 893.908L1320.59 895.584L1311.45 899.682Z" fill="white"/>
<path d="M1316.11 913.091L1315.55 911.414L1324.69 907.131L1325.25 908.807L1316.11 913.091Z" fill="white"/>
<path d="M1320.78 926.313L1320.03 924.637L1329.17 920.354L1329.91 922.03L1320.78 926.313Z" fill="white"/>
<path d="M1325.44 939.537L1324.69 937.861L1333.83 933.763L1334.57 935.253L1325.44 939.537Z" fill="white"/>
<path d="M1329.91 952.76L1329.35 951.084L1338.49 946.987L1339.05 948.663L1329.91 952.76Z" fill="white"/>
<path opacity="0.4" d="M1358.45 958.534L1382.31 946.614L1395.55 940.096L1497.19 889.252L1399.66 836.359L1386.6 829.282L1346.32 807.305L1333.27 800.228L1298.4 781.232L1284.41 773.596L1259.24 760L1257 764.284L1329.54 982L1495.69 896.329L1497.19 889.252L1358.45 958.534ZM1292.99 861.874L1296.53 872.676L1292.06 858.894L1292.99 861.874ZM1383.62 909.552L1353.78 925.755L1342.59 899.495L1330.66 871.186L1313.88 831.703L1420.17 889.624L1397.05 902.102L1383.62 909.552Z" fill="#FFDA79"/>
</g>
</g>
<defs>
<linearGradient id="paint0_linear_520_5173" x1="765.464" y1="136.07" x2="628.074" y2="-103.587" gradientUnits="userSpaceOnUse">
<stop stop-color="#2E3192"/>
<stop offset="1" stop-color="#018FFF"/>
</linearGradient>
<clipPath id="clip0_520_5173">
<rect width="1440" height="1024" fill="white"/>
</clipPath>
<clipPath id="clip1_520_5173">
<rect width="75.808" height="343.046" fill="white" transform="translate(582 -107.728) rotate(-29.4505)"/>
</clipPath>
<clipPath id="clip2_520_5173">
<rect width="152" height="153" fill="white" transform="translate(194.223 806.29) rotate(75)"/>
</clipPath>
<clipPath id="clip3_520_5173">
<rect width="273" height="260" fill="white" transform="translate(573 873)"/>
</clipPath>
<clipPath id="clip4_520_5173">
<rect width="180" height="190" fill="white" transform="translate(1307 106)"/>
</clipPath>
<clipPath id="clip5_520_5173">
<rect width="240" height="222" fill="white" transform="translate(1257 760)"/>
</clipPath>
</defs>
</svg>
