<svg width="1440" height="1024" viewBox="0 0 1440 1024" fill="none" xmlns="http://www.w3.org/2000/svg">
<g clip-path="url(#clip0_520_3726)">
<rect width="1440" height="1024" fill="#7EA6F6"/>
<path d="M1198.26 600.578C1198.26 600.578 1182.73 600.135 1173.63 600.135C1164.53 600.135 1147 597.694 1147 627.874C1147 660.273 1165.86 656.501 1172.52 656.501L1198.93 655.391L1255.74 656.057C1255.74 656.057 1271.27 656.501 1280.37 656.501C1289.47 656.501 1307 658.942 1307 628.761C1307 596.362 1288.14 600.135 1281.48 600.135L1255.07 601.244L1198.26 600.578Z" fill="#C172BF"/>
<path d="M1198.26 678.248C1198.26 678.248 1182.73 677.805 1173.63 677.805C1164.53 677.805 1147 675.364 1147 705.544C1147 737.943 1165.86 734.171 1172.52 734.171L1198.93 733.061L1255.74 733.727C1255.74 733.727 1271.27 734.171 1280.37 734.171C1289.47 734.171 1307 736.612 1307 706.432C1307 674.032 1288.14 677.805 1281.48 677.805L1255.07 678.914L1198.26 678.248Z" fill="#C172BF"/>
<path opacity="0.8" d="M1170.97 625.876C1168.97 625.876 1166.97 625.654 1165.2 624.989C1161.43 623.435 1159.65 619.885 1161.87 616.112C1165.86 609.011 1176.52 608.345 1183.84 607.679C1197.6 606.348 1212.69 605.016 1226.22 607.901C1228.89 608.567 1231.77 609.233 1233.99 611.008C1240.87 616.334 1235.99 624.545 1228.67 624.989C1209.58 626.098 1190.94 625.876 1171.86 625.876C1171.63 625.876 1171.19 625.876 1170.97 625.876Z" fill="white"/>
<path opacity="0.8" d="M1189.38 703.769C1186.06 701.55 1185.17 694.67 1186.72 691.563C1189.61 685.794 1196.49 686.681 1202.03 686.016C1215.79 684.684 1230.88 683.353 1244.42 686.238C1247.08 686.903 1249.97 687.569 1252.19 689.344C1259.07 694.67 1254.18 702.881 1246.86 703.325C1235.99 703.991 1225.11 704.213 1214.24 704.213C1207.14 704.213 1200.04 704.213 1193.16 704.435C1192.27 704.435 1191.38 704.435 1190.49 704.213C1190.05 704.213 1189.61 703.991 1189.38 703.769Z" fill="white"/>
<path opacity="0.8" d="M1158.98 694.67C1156.54 698.664 1158.54 703.546 1162.75 705.765C1167.19 707.985 1172.74 706.431 1176.29 703.324C1178.73 701.327 1179.4 698.886 1178.51 695.779C1177.18 691.341 1174.52 685.793 1168.3 687.79C1165.64 688.456 1163.2 690.453 1161.2 692.229C1160.31 692.894 1159.43 693.782 1158.98 694.67Z" fill="white"/>
<circle cx="1118" cy="192" r="28" fill="#81C1FF"/>
<path opacity="0.8" d="M1114.39 168.817C1114.33 168.817 1114.26 168.817 1114.19 168.817C1112.89 168.68 1111.46 168.953 1110.23 169.227C1105.11 170.251 1100.53 173.188 1097.73 177.627C1096.3 180.836 1099.44 184.114 1102.24 181.588C1104.15 179.88 1105.99 177.968 1108.18 176.534C1109.61 175.578 1111.32 175.031 1112.96 174.622C1114.33 174.349 1116.24 174.485 1117.33 173.529C1119.58 171.48 1116.44 169.158 1114.39 168.817Z" fill="white"/>
<path opacity="0.8" d="M1092.75 187.939C1092.88 189.578 1094.11 191.285 1095.96 190.67C1098.62 189.783 1098.89 186.163 1097.39 184.114C1094.73 180.427 1092.54 185.275 1092.75 187.939Z" fill="white"/>
<circle cx="1262" cy="130" r="15" fill="#DFE7EE"/>
<path opacity="0.8" d="M1260.07 117.58C1260.03 117.58 1260 117.58 1259.96 117.58C1259.26 117.507 1258.5 117.653 1257.84 117.8C1255.09 118.349 1252.64 119.922 1251.14 122.3C1250.37 124.019 1252.06 125.775 1253.56 124.422C1254.58 123.507 1255.57 122.483 1256.74 121.714C1257.51 121.202 1258.42 120.91 1259.3 120.69C1260.03 120.544 1261.06 120.617 1261.64 120.105C1262.85 119.007 1261.17 117.763 1260.07 117.58Z" fill="white"/>
<path opacity="0.8" d="M1248.47 127.824C1248.54 128.702 1249.2 129.617 1250.19 129.288C1251.62 128.812 1251.76 126.873 1250.96 125.775C1249.53 123.8 1248.36 126.397 1248.47 127.824Z" fill="white"/>
<circle cx="1405" cy="852" r="15" fill="#DFE7EE"/>
<path opacity="0.8" d="M1403.07 839.58C1403.03 839.58 1403 839.58 1402.96 839.58C1402.26 839.507 1401.5 839.654 1400.84 839.8C1398.09 840.349 1395.64 841.922 1394.14 844.3C1393.37 846.019 1395.06 847.775 1396.56 846.422C1397.58 845.507 1398.57 844.483 1399.74 843.715C1400.51 843.202 1401.42 842.91 1402.3 842.69C1403.03 842.544 1404.06 842.617 1404.64 842.105C1405.85 841.007 1404.17 839.763 1403.07 839.58Z" fill="white"/>
<path opacity="0.8" d="M1391.47 849.824C1391.54 850.702 1392.2 851.617 1393.19 851.288C1394.62 850.812 1394.76 848.873 1393.96 847.775C1392.53 845.8 1391.36 848.397 1391.47 849.824Z" fill="white"/>
<circle cx="895.5" cy="930.5" r="18.5" fill="#81C1FF"/>
<path opacity="0.8" d="M893.118 915.182C893.073 915.182 893.028 915.182 892.983 915.182C892.125 915.092 891.178 915.273 890.366 915.453C886.981 916.13 883.958 918.07 882.108 921.003C881.161 923.124 883.236 925.29 885.086 923.62C886.35 922.492 887.568 921.229 889.012 920.281C889.959 919.65 891.088 919.289 892.17 919.018C893.073 918.837 894.336 918.928 895.058 918.296C896.547 916.942 894.472 915.408 893.118 915.182Z" fill="white"/>
<path opacity="0.8" d="M878.813 927.817C878.904 928.899 879.716 930.028 880.934 929.621C882.694 929.035 882.874 926.643 881.882 925.29C880.122 922.853 878.678 926.057 878.813 927.817Z" fill="white"/>
<circle cx="150.5" cy="648.5" r="18.5" fill="#81C1FF"/>
<path opacity="0.8" d="M148.118 633.182C148.073 633.182 148.028 633.182 147.983 633.182C147.125 633.092 146.178 633.273 145.366 633.453C141.981 634.13 138.958 636.07 137.108 639.003C136.161 641.124 138.236 643.29 140.086 641.62C141.35 640.492 142.568 639.229 144.012 638.281C144.959 637.65 146.088 637.289 147.17 637.018C148.073 636.837 149.336 636.928 150.058 636.296C151.547 634.942 149.472 633.408 148.118 633.182Z" fill="white"/>
<path opacity="0.8" d="M133.813 645.817C133.904 646.899 134.716 648.028 135.934 647.621C137.694 647.035 137.874 644.643 136.882 643.29C135.122 640.853 133.678 644.057 133.813 645.817Z" fill="white"/>
<circle cx="42.5" cy="134.5" r="18.5" fill="#81C1FF"/>
<path opacity="0.8" d="M40.118 119.182C40.0729 119.182 40.0278 119.182 39.9827 119.182C39.1253 119.092 38.1778 119.273 37.3656 119.453C33.9814 120.13 30.9583 122.07 29.1083 125.003C28.1607 127.124 30.2363 129.29 32.0863 127.62C33.3497 126.492 34.568 125.229 36.0119 124.281C36.9595 123.65 38.0875 123.289 39.1705 123.018C40.0729 122.837 41.3363 122.928 42.0583 122.296C43.5473 120.942 41.4717 119.408 40.118 119.182Z" fill="white"/>
<path opacity="0.8" d="M25.8135 131.817C25.9037 132.899 26.7159 134.028 27.9342 133.621C29.694 133.035 29.8745 130.643 28.8818 129.29C27.122 126.853 25.6781 130.057 25.8135 131.817Z" fill="white"/>
<circle cx="1367.5" cy="847.5" r="18.5" fill="#81C1FF"/>
<path opacity="0.8" d="M1365.12 832.182C1365.07 832.182 1365.03 832.182 1364.98 832.182C1364.13 832.092 1363.18 832.273 1362.37 832.453C1358.98 833.13 1355.96 835.07 1354.11 838.003C1353.16 840.124 1355.24 842.29 1357.09 840.62C1358.35 839.492 1359.57 838.229 1361.01 837.281C1361.96 836.65 1363.09 836.289 1364.17 836.018C1365.07 835.837 1366.34 835.928 1367.06 835.296C1368.55 833.942 1366.47 832.408 1365.12 832.182Z" fill="white"/>
<path opacity="0.8" d="M1350.81 844.817C1350.9 845.899 1351.72 847.028 1352.93 846.621C1354.69 846.035 1354.87 843.643 1353.88 842.29C1352.12 839.853 1350.68 843.057 1350.81 844.817Z" fill="white"/>
<path d="M249.883 205.423L223.199 206.369H223.009V204.666C223.009 204.666 223.388 189.147 223.388 179.874C223.388 170.6 225.848 153 195.189 153C162.449 153 166.234 172.115 166.234 178.928L167.18 205.612V205.801H165.477C165.477 205.801 149.958 205.423 140.685 205.423C131.6 205.423 114 202.773 114 233.432C114 266.173 133.114 262.388 139.928 262.388L166.612 261.442H166.801V263.145C166.801 263.145 166.423 278.664 166.423 287.937C166.423 297.21 163.963 314.811 194.621 314.811C227.362 314.811 223.577 295.696 223.577 288.883L222.631 262.199V262.009H224.334C224.334 262.009 239.853 262.388 249.126 262.388C258.4 262.388 276 264.848 276 234.189C275.811 201.638 256.696 205.423 249.883 205.423Z" fill="#A1EEFF"/>
<path d="M166.991 224.916C167.18 225.294 167.558 225.673 167.937 225.673H168.126C168.694 225.484 169.072 225.105 168.883 224.537C167.937 220.374 167.369 208.451 167.369 205.801H165.855C165.855 205.801 165.666 205.801 165.477 205.801C165.477 208.072 166.044 220.374 166.991 224.916Z" fill="#6DDFF2"/>
<path d="M223.009 204.856C223.009 204.856 223.009 204.666 223.009 204.477C219.224 204.477 205.598 205.234 202.57 205.991C202.002 206.18 201.812 206.748 201.812 207.127C202.002 207.505 202.38 207.884 202.759 207.884H202.948C205.976 207.127 219.602 206.37 222.82 206.37L223.009 204.856Z" fill="#6DDFF2"/>
<path d="M224.901 262.01C224.901 260.685 224.901 250.276 223.955 242.327C223.955 241.76 223.387 241.381 222.819 241.381C222.252 241.381 221.873 241.949 221.873 242.517C222.819 250.465 222.819 260.496 222.819 262.01H223.955C224.144 262.01 224.333 262.01 224.901 262.01Z" fill="#6DDFF2"/>
<path d="M166.611 263.524V261.631C166.611 261.631 178.723 261.253 184.401 261.253C184.969 261.253 185.347 261.631 185.347 262.199C185.347 262.767 184.969 263.145 184.401 263.145C178.723 263.145 166.611 263.524 166.611 263.524Z" fill="#6DDFF2"/>
<path opacity="0.8" d="M177.021 170.222C176.075 170.222 175.129 170.033 174.372 169.654C172.479 168.708 171.722 166.248 172.858 163.788C174.75 158.867 179.86 158.678 183.267 158.11C189.89 157.164 196.893 156.407 203.327 158.299C204.652 158.678 205.977 159.245 206.923 160.381C210.14 163.977 207.869 169.465 204.463 169.654C195.379 170.411 186.484 170.222 177.589 170.222C177.4 170.222 177.211 170.222 177.021 170.222Z" fill="white"/>
<path opacity="0.8" d="M127.437 221.698C126.491 221.698 125.734 221.509 124.788 221.131C123.084 220.184 122.327 218.103 123.274 215.832C125.166 211.479 129.897 211.1 133.304 210.722C139.549 209.965 146.362 209.018 152.608 210.911C153.932 211.289 155.068 211.857 156.203 212.803C159.421 216.021 157.15 220.941 153.743 221.32C145.038 221.888 136.521 221.888 127.816 221.888C127.626 221.698 127.437 221.698 127.437 221.698Z" fill="white"/>
<path opacity="0.8" d="M223.388 221.698C222.442 221.698 221.685 221.509 220.739 221.131C219.035 220.184 218.278 218.103 219.225 215.832C221.117 211.479 225.849 211.1 229.255 210.722C235.5 209.965 242.314 209.018 248.559 210.911C249.884 211.289 251.019 211.857 252.155 212.803C255.372 216.021 253.101 220.941 249.694 221.32C240.989 221.888 232.472 221.888 223.767 221.888C223.767 221.698 223.578 221.698 223.388 221.698Z" fill="white"/>
<path d="M64.0796 848.859C64.0796 848.859 17.0548 868.776 13.1822 823.687C12.0757 810.963 15.9484 800.728 26.4598 793.536C40.8438 783.855 56.3343 775.556 71.2716 766.981C84.5492 759.512 96.9969 753.427 112.764 755.363C112.764 755.363 139.596 757.853 143.192 797.685C145.681 823.687 143.468 849.413 142.915 875.415C142.639 893.671 142.915 912.205 142.915 930.461C143.192 945.952 146.235 962.272 132.68 973.06C122.446 981.082 109.445 985.231 96.7203 985.231C83.996 985.231 66.8457 980.529 60.7602 968.081C57.7174 961.996 59.1005 955.633 59.3771 948.995C59.6537 943.186 59.9303 937.653 60.207 931.844C61.3134 906.119 62.6965 880.117 63.803 854.392C63.803 852.455 64.0796 850.796 64.0796 848.859Z" fill="#FF8BBA"/>
<path d="M89.5288 828.943C88.9755 828.666 88.1457 828.666 87.5925 829.496C81.7835 839.731 66.8462 847.476 64.0801 848.859C64.0801 849.689 64.0801 850.795 64.0801 851.625C64.0801 851.625 64.0801 851.625 64.3567 851.625C64.6333 851.625 64.6333 851.625 64.9099 851.625C65.7398 851.349 83.4432 843.05 90.3586 830.879C90.3586 830.326 90.082 829.496 89.5288 828.943Z" fill="#D26099"/>
<path opacity="0.8" d="M100.871 763.938C100.594 763.938 100.318 763.938 100.041 763.938C94.5086 763.385 89.2529 765.875 84.5505 768.364C73.7624 774.726 58.5485 781.642 57.1654 785.514C55.7824 789.387 57.1654 797.132 75.1455 789.11C82.3375 786.068 89.5295 782.748 96.445 779.152C100.041 777.216 105.297 774.726 107.233 770.854C109.723 766.428 104.19 764.491 100.871 763.938Z" fill="white"/>
<path opacity="0.8" d="M46.9292 790.493C46.9292 790.493 35.5879 794.919 35.0347 799.345C34.2049 803.771 39.4606 807.643 48.8655 802.664C58.2705 797.409 53.8446 788.833 46.9292 790.493Z" fill="white"/>
<path opacity="0.8" d="M72.9323 860.477C72.3791 861.307 71.8258 862.413 71.8258 863.243C71.5492 869.882 71.2726 876.52 70.996 883.159C70.7194 887.309 70.7194 891.458 70.4428 895.607C70.1661 899.203 68.7831 904.459 72.9323 906.118C74.3154 906.672 76.2517 906.672 77.9114 906.395C83.4437 905.565 83.1671 901.139 83.4437 896.437C83.7203 891.458 83.997 886.755 83.997 881.776C84.2736 874.308 84.5502 866.839 84.2736 859.37C83.997 853.285 76.2517 855.774 72.9323 860.477Z" fill="white"/>
<path opacity="0.8" d="M69.6128 924.929C69.0596 929.632 69.8894 935.717 75.4217 935.994C80.9541 936.271 82.3371 932.398 82.3371 926.036C82.3371 917.184 70.9959 916.354 69.6128 924.929Z" fill="white"/>
<path d="M1455.43 238.79C1453.91 224.516 1447.62 222.307 1440.99 222.477C1433.85 222.647 1422.98 224.516 1412.44 224.686C1440.99 204.974 1445.07 174.556 1437.76 155.693C1430.28 136.831 1404.28 119.667 1367.92 134.792C1331.38 149.916 1333.93 182.713 1338.69 189.68C1355.85 211.771 1380.49 192.399 1380.49 192.399C1380.49 192.399 1369.45 203.444 1361.46 210.412C1348.55 221.967 1340.73 236.411 1342.43 254.084C1344.47 275.326 1383.21 272.947 1398.85 272.607C1459.68 271.078 1456.96 253.065 1455.43 238.79Z" fill="#A5BAFF"/>
<path d="M1392.9 170.817C1392.39 170.647 1392.05 170.987 1391.88 171.497C1388.99 184.922 1382.02 191.379 1378.46 193.928C1379.64 193.078 1380.32 192.569 1380.32 192.569C1380.32 192.569 1379.13 193.758 1377.1 195.797C1377.78 195.457 1389.33 190.869 1393.41 172.007C1393.75 171.327 1393.41 170.817 1392.9 170.817Z" fill="#6B89DD"/>
<path d="M1414.82 224.516C1413.97 224.516 1413.12 224.516 1412.44 224.516C1409.72 226.215 1402.25 230.464 1394.94 231.313C1394.43 231.313 1394.09 231.823 1394.26 232.333C1394.26 232.843 1394.6 233.013 1395.11 233.013C1395.11 233.013 1395.11 233.013 1395.28 233.013C1404.96 231.823 1414.14 225.366 1414.65 225.196C1414.82 225.026 1414.82 224.856 1414.82 224.516Z" fill="#6B89DD"/>
<path opacity="0.8" d="M1351.95 153.654C1351.95 153.654 1347.02 158.582 1349.74 163.85C1351.1 166.568 1355.68 166.908 1359.08 160.281C1362.14 153.654 1355.17 150.085 1351.95 153.654Z" fill="white"/>
<path opacity="0.8" d="M1395.45 134.961C1385.59 132.073 1371.83 136.491 1363.84 142.608C1361.46 144.478 1359.59 147.706 1361.29 150.595C1364.35 156.543 1372 150.935 1376.08 149.236C1382.19 146.687 1389.5 146.007 1396.13 145.157C1401.4 144.478 1405.65 137.85 1395.45 134.961Z" fill="white"/>
<path opacity="0.8" d="M1355.17 226.895C1355.17 226.895 1346.68 238.11 1348.38 249.496C1349.4 255.783 1355 262.58 1361.29 260.541C1362.65 260.201 1363.84 259.182 1364.18 257.822C1364.52 256.803 1364.52 255.443 1364.18 254.424C1363.5 250.685 1361.29 250.345 1359.08 247.966C1357.21 245.927 1357.38 243.548 1358.23 241.169C1359.42 238.11 1361.12 235.391 1362.82 232.502C1364.01 230.633 1364.86 229.443 1363.84 227.064C1361.97 222.306 1357.72 223.666 1355.17 226.895Z" fill="white"/>
<path opacity="0.8" d="M1369.45 211.261C1370.47 210.581 1371.32 210.072 1372 209.732C1374.04 208.882 1377.43 208.712 1378.28 211.431C1379.64 215.679 1375.74 220.438 1372.17 222.307C1367.41 224.686 1360.95 220.947 1364.86 215.34C1366.05 213.81 1367.75 212.451 1369.45 211.261Z" fill="white"/>
<path d="M1100.19 893.637C1102.34 888.149 1112.34 876.387 1129.59 879.523C1146.84 882.66 1152.13 891.677 1144.88 907.163C1137.82 922.65 1100.58 993.809 1096.85 1000.08C1093.13 1006.35 1089.4 1013.61 1069.6 1011.65C1049.81 1009.69 1049.02 999.69 1050.79 994.201C1052.55 988.712 1098.03 899.126 1100.19 893.637Z" fill="#4774B5"/>
<path d="M1150.57 939.901C1130.38 939.901 1114.3 956.563 1110.97 976.95C1107.64 997.533 1118.42 1014 1138.61 1014C1158.8 1014 1174.88 997.337 1178.21 976.95C1181.34 956.367 1170.56 939.901 1150.57 939.901ZM1150.96 979.107C1149.59 980.283 1146.84 982.831 1145.27 985.968C1145.08 986.556 1144.1 986.556 1143.9 985.968C1142.53 982.831 1139.79 980.283 1138.22 979.107C1137.83 978.715 1137.83 978.126 1138.41 977.93C1140.18 976.95 1141.75 975.382 1142.73 973.422C1143.12 972.638 1143.51 971.853 1143.9 971.069C1144.1 970.481 1144.29 969.501 1144.69 969.501C1144.88 969.501 1144.88 969.697 1145.08 970.089C1145.27 970.873 1145.67 971.853 1146.06 972.638C1147.04 974.794 1148.61 976.754 1150.76 977.93C1151.35 978.126 1151.35 978.715 1150.96 979.107Z" fill="#5681C7"/>
<path d="M1060.2 879.915C1040.01 879.915 1023.93 896.577 1020.6 916.965C1017.27 937.548 1028.05 954.014 1048.24 954.014C1068.43 954.014 1084.5 937.352 1087.84 916.965C1090.97 896.577 1080.19 879.915 1060.2 879.915ZM1060.78 919.121C1059.41 920.297 1056.67 922.846 1055.1 925.982C1054.9 926.57 1053.92 926.57 1053.73 925.982C1052.36 922.846 1049.61 920.297 1048.04 919.121C1047.65 918.729 1047.65 918.141 1048.24 917.945C1050 916.965 1051.57 915.396 1052.55 913.436C1052.94 912.652 1053.34 911.868 1053.73 911.084C1053.92 910.496 1054.12 909.516 1054.51 909.516C1054.71 909.516 1054.71 909.712 1054.9 910.104C1055.1 910.888 1055.49 911.868 1055.88 912.652C1056.86 914.808 1058.43 916.769 1060.59 917.945C1060.98 918.141 1061.18 918.729 1060.78 919.121Z" fill="#5681C7"/>
<path opacity="0.8" d="M1026.48 906.38C1026.48 906.38 1022.17 911.672 1025.3 916.573C1026.87 919.121 1031.38 918.925 1033.93 912.064C1036.48 905.203 1029.22 902.459 1026.48 906.38Z" fill="white"/>
<path opacity="0.8" d="M1065.1 883.64C1055.3 881.875 1042.36 887.56 1035.5 894.421C1033.34 896.578 1031.97 899.714 1033.73 902.459C1037.46 907.947 1044.12 901.674 1047.85 899.518C1053.53 896.382 1060.39 895.009 1066.67 893.441C1071.96 892.265 1075.29 885.404 1065.1 883.64Z" fill="white"/>
<path opacity="0.8" d="M1117.63 966.365C1117.63 966.365 1113.32 971.658 1116.46 976.559C1118.03 979.107 1122.53 978.911 1125.08 972.05C1127.63 965.189 1120.57 962.64 1117.63 966.365Z" fill="white"/>
<path opacity="0.8" d="M1155.47 943.625C1145.67 941.861 1132.73 947.546 1125.87 954.407C1123.71 956.563 1122.34 959.7 1124.1 962.444C1127.83 967.933 1134.49 961.66 1138.22 959.504C1143.9 956.367 1150.76 954.995 1157.04 953.427C1162.33 952.251 1165.66 945.389 1155.47 943.625Z" fill="white"/>
<path opacity="0.8" d="M1130.96 883.052C1130.96 883.052 1113.52 879.131 1105.67 894.029C1100.38 903.047 1097.83 908.34 1097.25 910.104C1096.66 911.672 1095.87 915.789 1099.01 916.965C1102.34 918.337 1105.28 915.005 1109.01 908.144C1112.93 901.479 1119.98 889.717 1127.63 891.089C1135.28 892.265 1136.26 883.64 1130.96 883.052Z" fill="white"/>
<path opacity="0.8" d="M1090.39 922.258C1087.05 926.571 1087.84 930.295 1090.97 931.863C1094.11 933.432 1097.05 930.687 1099.6 925.983C1101.95 921.474 1095.09 915.985 1090.39 922.258Z" fill="white"/>
<path d="M132.567 424.546C99.0169 402.709 51.3717 411.047 35.0929 437.847C18.6156 464.648 21.9905 511.697 47.5998 526.586C47.5998 526.586 40.2545 526.984 40.453 549.615C40.6515 572.246 54.3495 579.989 80.1574 578.599C105.965 577.21 146.067 565.1 158.772 529.167C171.279 493.036 166.117 446.384 132.567 424.546ZM100.804 475.765C98.0243 477.353 96.0391 479.735 94.451 482.515C93.8554 483.706 93.2598 484.897 92.8628 486.088C92.4657 486.882 92.2672 488.47 91.8701 488.47C91.6716 488.47 91.4731 488.272 91.2746 487.478C90.8776 486.088 90.282 484.897 89.6865 483.706C88.0983 480.529 85.716 477.552 82.5397 475.963C81.9441 475.566 81.7456 474.772 82.3411 474.177C84.5249 472.39 88.4953 468.42 90.4805 463.854C90.8776 462.861 92.0687 462.861 92.4658 463.854C94.6495 468.42 98.8184 472.39 101.002 473.978C101.399 474.574 101.399 475.566 100.804 475.765Z" fill="#D5A2FF"/>
<path d="M107.156 521.226C107.553 520.829 107.553 520.234 107.355 519.837C106.958 519.44 106.362 519.44 105.965 519.638C83.1352 538.101 52.7613 528.373 47.4012 526.388C47.4012 526.388 46.6071 526.388 45.416 527.381C45.6145 527.579 45.6146 527.778 45.8131 527.778C46.0116 527.778 57.5259 532.542 72.415 532.542C83.3337 532.741 96.0391 530.16 107.156 521.226Z" fill="#AD6EEA"/>
<path opacity="0.8" d="M99.8112 419.98C99.6127 419.98 99.4142 419.782 99.2156 419.782C95.6422 418.591 91.2748 418.392 87.7014 418.194C72.6137 417.797 57.7246 422.958 46.8059 433.877C40.6517 442.215 47.4014 453.332 56.9305 447.972C63.4817 444.399 70.0329 440.23 76.9812 437.649C81.7457 435.862 86.9073 435.465 91.8703 435.465C95.8407 435.465 101.201 437.252 104.973 435.267C112.715 430.899 105.37 422.363 99.8112 419.98Z" fill="white"/>
<path opacity="0.8" d="M31.7184 464.647C32.1155 469.412 35.6889 474.375 41.049 472.588C48.7913 470.007 49.5854 459.486 45.2179 453.53C37.4755 442.81 31.1229 456.905 31.7184 464.647Z" fill="white"/>
<path opacity="0.8" d="M53.9514 534.726C51.7676 534.329 49.7824 534.726 47.9957 536.116C44.4223 539.094 45.2164 545.446 46.209 549.417C48.5912 559.144 63.8775 555.174 64.8701 546.638C65.4657 541.476 59.7085 535.719 53.9514 534.726Z" fill="white"/>
<path d="M1412 421.609C1412 416.613 1409.28 411.769 1406.7 407.833C1403.22 402.382 1398.98 397.386 1394.29 392.844C1389.9 388.454 1385.66 383.912 1381.27 379.522C1376.73 374.98 1369.16 364.836 1353.86 380.127C1337.51 396.478 1349.02 404.048 1352.35 407.378L1366.13 420.095L1366.28 420.247L1365.37 421.155C1365.37 421.155 1357.35 428.725 1352.8 433.267C1348.26 437.809 1338.12 445.378 1353.41 460.669C1369.76 477.02 1377.33 465.514 1380.66 462.183C1380.66 462.032 1412 437.506 1412 421.609Z" fill="#FFDA79"/>
<path d="M1366.28 420.247L1365.37 421.004C1365.37 421.004 1365.22 421.155 1365.07 421.155C1365.67 421.761 1371.42 427.059 1374 429.633C1374.15 429.785 1374.3 429.785 1374.45 429.785C1374.6 429.785 1374.91 429.633 1375.06 429.482C1375.36 429.179 1375.36 428.725 1375.06 428.422C1372.64 426.302 1367.03 421.004 1366.28 420.247Z" fill="#FFA269"/>
<path d="M1260 421.609C1260 416.613 1262.73 411.769 1265.3 407.833C1268.78 402.382 1273.02 397.386 1277.71 392.844C1282.1 388.454 1286.34 383.912 1290.73 379.522C1295.27 374.98 1302.84 364.836 1318.14 380.127C1334.49 396.478 1322.98 404.048 1319.65 407.378L1305.87 420.095L1305.72 420.247L1306.63 421.155C1306.63 421.155 1314.65 428.725 1319.2 433.267C1323.74 437.809 1333.88 445.378 1318.59 460.669C1302.24 477.02 1294.67 465.514 1291.34 462.183C1291.34 462.032 1260 437.506 1260 421.609Z" fill="#FFDA79"/>
<path d="M1306.63 421.004L1305.72 420.247C1304.96 421.004 1299.36 426.302 1296.79 428.725C1296.49 429.028 1296.49 429.482 1296.79 429.785C1296.94 429.936 1297.09 430.087 1297.4 430.087C1297.55 430.087 1297.7 430.087 1297.85 429.936C1300.57 427.362 1306.33 421.912 1306.78 421.458C1306.78 421.155 1306.63 421.004 1306.63 421.004Z" fill="#FFA269"/>
<path opacity="0.8" d="M1368.1 374.98C1360.98 374.98 1353.86 383.912 1352.5 387.092C1351.14 390.271 1355.38 394.207 1358.56 391.482C1361.74 388.757 1367.04 383.761 1369.16 382.701C1371.28 381.641 1374.76 385.275 1377.18 383.458C1379.6 381.641 1377.18 374.98 1368.1 374.98Z" fill="white"/>
<path opacity="0.8" d="M1369.16 428.27C1367.64 426.151 1365.07 425.545 1362.8 426.908C1360.83 428.119 1359.16 430.239 1357.8 431.45C1355.53 433.569 1352.96 435.84 1351.29 438.414C1349.47 441.442 1352.65 447.497 1357.5 444.621C1360.98 442.501 1364.01 439.625 1366.73 436.597C1369 434.326 1371.58 431.601 1369.16 428.27Z" fill="white"/>
<path opacity="0.8" d="M1286.8 386.486C1286.8 386.486 1293.91 379.219 1296.64 376.797C1299.36 374.526 1305.57 372.558 1309.81 375.737C1314.2 378.916 1314.96 380.279 1314.05 381.793C1313.14 383.458 1310.11 386.335 1307.69 383.61C1305.27 380.884 1303.15 381.339 1301.03 383.61C1298.91 385.88 1294.97 389.817 1292.4 391.633C1288.76 394.207 1283.77 390.422 1286.8 386.486Z" fill="white"/>
<path opacity="0.8" d="M1266.51 411.466C1263.63 414.343 1261.36 420.096 1262.42 423.578C1263.94 428.422 1266.81 432.51 1268.78 433.418C1270.75 434.327 1274.68 432.661 1273.78 429.634C1272.87 426.606 1269.54 423.729 1269.84 421.307C1269.99 418.885 1272.11 415.554 1273.02 412.98C1274.08 410.104 1270.29 409.044 1268.33 410.104C1267.72 410.558 1267.11 411.012 1266.51 411.466Z" fill="white"/>
<path d="M346.931 934.747C346.931 934.747 333.482 934.249 335.142 907.847C336.636 881.279 365.695 882.774 373.001 883.106C380.307 883.272 421.156 883.77 427.465 883.604C432.613 883.438 440.417 882.276 447.391 879.453C450.214 878.291 453.203 879.453 454.864 881.944C458.185 887.423 463 896.888 463 906.685C463 921.629 451.21 929.102 451.21 929.102C451.21 929.102 454.199 967.957 454.365 974.433C454.698 980.079 454.365 986.057 452.705 991.536C451.875 994.525 450.546 997.348 448.222 999.507C445.731 1001.83 442.576 1002 439.255 1002.5C430.454 1003.82 413.683 1005.32 407.041 997.514C401.396 991.038 407.207 971.942 407.539 964.138C408.204 950.688 407.207 938.068 407.207 938.068C407.207 938.068 398.241 939.563 390.769 938.068C390.769 938.068 394.09 978.418 390.602 990.872C387.115 1003.16 376.156 1003.66 363.702 1003.33C351.249 1003.16 342.946 999.506 342.614 992.532C342.116 987.883 346.931 934.747 346.931 934.747Z" fill="#D4E25C"/>
<path d="M364.533 935.578C356.23 936.574 348.758 935.246 346.932 934.914C346.932 935.08 346.932 935.744 346.766 936.574C348.426 936.906 352.577 937.736 358.057 937.736C360.216 937.736 362.374 937.57 364.699 937.238C365.197 937.238 365.529 936.74 365.363 936.242C365.529 935.744 365.031 935.412 364.533 935.578Z" fill="#B8BF21"/>
<path d="M451.045 929.102C450.049 929.766 444.071 934.083 432.282 935.412C431.783 935.412 431.451 935.91 431.617 936.242C431.617 936.74 431.95 936.906 432.448 936.906C432.448 936.906 432.448 936.906 432.614 936.906C443.075 935.744 449.053 932.423 451.377 930.928C451.211 929.932 451.211 929.268 451.045 929.102Z" fill="#B8BF21"/>
<path opacity="0.8" d="M338.463 914.323C338.795 917.478 341.119 920.799 344.606 919.637C349.09 918.142 351.248 910.006 347.263 906.685C342.116 902.368 338.131 910.172 338.463 914.323Z" fill="white"/>
<path opacity="0.8" d="M344.607 896.058C347.762 888.42 358.389 885.929 365.696 885.929C382.134 885.929 397.743 886.427 401.562 887.091C405.381 887.755 408.204 894.231 403.389 896.058C400.4 897.22 396.415 896.722 393.26 896.556C388.112 896.39 382.965 896.224 377.651 895.892C373.5 895.726 369.183 895.228 365.197 895.726C360.05 896.39 357.393 901.205 352.91 902.866C348.592 904.526 342.615 901.87 344.441 896.39C344.441 896.39 344.441 896.224 344.607 896.058Z" fill="white"/>
<path opacity="0.8" d="M357.891 944.378C357.891 944.378 357.393 941.223 353.076 941.223C348.758 941.223 348.426 943.548 348.094 948.031C347.596 952.515 346.434 973.603 346.766 976.592C347.264 979.415 353.408 980.079 356.064 976.592C358.887 973.105 357.891 944.378 357.891 944.378Z" fill="white"/>
<path opacity="0.8" d="M415.344 938.566C409.201 939.231 411.193 945.208 411.193 945.208C411.525 947.865 413.186 950.688 416.507 950.522C419.994 950.19 422.319 948.363 422.152 944.71C422.152 940.891 421.488 938.068 415.344 938.566Z" fill="white"/>
<path opacity="0.8" d="M409.697 978.086C409.697 976.592 410.195 974.765 410.361 973.271C410.528 971.444 410.86 969.618 411.026 967.791C411.358 964.636 411.856 961.481 412.022 958.493C412.022 956.666 412.686 954.673 414.513 953.677C420.989 950.024 421.653 958.825 421.487 962.644C421.321 965.467 421.155 968.123 420.823 970.946C420.49 973.437 420.158 977.09 418.498 979.249C416.671 981.739 410.528 982.57 409.863 978.751C409.697 978.584 409.697 978.252 409.697 978.086Z" fill="white"/>
<path d="M59.3291 319.502L54.0672 314.645L54.0166 314.594L54.3202 314.29C54.3202 314.29 57.3559 311.407 59.0761 309.686C60.847 307.915 64.6416 305.082 58.8737 299.264C52.6505 293.04 49.7666 297.392 48.5017 298.707L43.6446 303.969L43.594 304.02L43.2904 303.716C43.2904 303.716 40.4065 300.68 38.6863 298.96C36.9155 297.189 34.0821 293.395 28.2637 299.163C22.0405 305.386 26.3917 308.27 27.7071 309.535L32.969 314.392L33.0196 314.442L32.7161 314.746C32.7161 314.746 29.6803 317.63 27.9601 319.35C26.2399 321.07 22.3946 323.954 28.1625 329.773C34.3857 335.996 37.2696 331.645 38.5345 330.329L43.3916 325.067L43.4422 325.017L43.7458 325.32C43.7458 325.32 46.6297 328.356 48.35 330.076C50.1208 331.847 52.9541 335.642 58.7726 329.874C64.9452 323.651 60.594 320.767 59.3291 319.502Z" fill="#FFBBAE"/>
<path d="M40.306 308.168C40.2554 308.168 40.2048 308.168 40.1542 308.118C40.0531 308.017 40.0025 307.865 40.0531 307.764C40.7614 306.651 43.3417 303.868 43.4429 303.767C43.5441 303.665 43.6959 303.665 43.7971 303.767C43.8983 303.868 43.8983 304.02 43.7971 304.121C43.7465 304.171 41.1661 306.954 40.4578 308.017C40.4578 308.168 40.3566 308.168 40.306 308.168Z" fill="#F7796F"/>
<path d="M54.0171 314.898C53.916 314.898 53.8654 314.847 53.8148 314.796C53.6124 314.543 50.4249 311.659 49.666 311.204C49.5648 311.153 49.5142 310.951 49.5648 310.85C49.6154 310.749 49.8177 310.698 49.9189 310.749C50.7285 311.204 54.1183 314.29 54.2195 314.493C54.3207 314.594 54.2701 314.796 54.1183 314.847C54.1183 314.847 54.0677 314.898 54.0171 314.898Z" fill="#F7796F"/>
<path d="M43.3408 325.27C43.2902 325.27 43.189 325.219 43.1384 325.168C43.0372 325.067 43.0372 324.915 43.1384 324.814C43.1384 324.814 45.2634 322.689 46.6801 320.918C46.7812 320.817 46.933 320.767 47.0342 320.868C47.1354 320.969 47.186 321.121 47.0848 321.222C45.6176 323.043 43.5432 325.168 43.4926 325.168C43.4926 325.27 43.442 325.27 43.3408 325.27Z" fill="#F7796F"/>
<path d="M36.4104 317.832C36.3598 317.832 36.2586 317.832 36.208 317.782C35.1455 316.77 32.7676 314.543 32.7676 314.543L33.1217 314.139C33.1217 314.139 35.4997 316.365 36.5622 317.377C36.6634 317.478 36.6634 317.63 36.5622 317.731C36.5622 317.832 36.461 317.832 36.4104 317.832Z" fill="#F7796F"/>
<path opacity="0.8" d="M28.1619 300.63C28.5667 300.124 29.0726 299.618 29.4268 299.314C31.5012 297.392 34.5369 295.874 36.9149 298.353C38.281 299.77 36.9655 300.781 36.0042 300.63C35.0429 300.478 34.7899 299.517 33.5756 299.82C32.5131 300.124 31.6024 301.034 30.7929 301.743C30.1351 302.299 28.7185 303.615 27.9089 302.603C27.403 301.996 27.7066 301.287 28.1619 300.63Z" fill="white"/>
<path opacity="0.8" d="M47.1868 301.692C47.1868 301.692 50.2731 298.252 51.3356 297.493C52.3981 296.784 54.2195 296.481 56.2433 298.151C57.154 299.011 56.7492 300.377 55.7879 300.427C54.8266 300.478 54.2701 299.567 53.41 299.668C52.5498 299.77 49.8177 302.957 48.8058 303.665C47.8445 304.424 45.6689 303.362 47.1868 301.692Z" fill="white"/>
<path opacity="0.8" d="M32.5632 316.77C32.1585 316.921 31.7537 317.225 31.3995 317.528C29.8817 318.844 28.0097 320.159 26.846 321.829C26.1376 322.892 25.9353 324.814 26.4412 325.927C26.9978 327.091 28.2626 326.939 28.971 325.927C29.6287 325.067 29.3251 323.802 29.9829 322.841C30.5394 322.082 31.2983 321.576 32.0067 321.02C32.715 320.412 34.7388 319.046 34.6376 317.984C34.587 317.68 34.4352 317.377 34.1823 317.124C33.7269 316.567 33.1198 316.517 32.5632 316.77Z" fill="white"/>
<path d="M257.329 964.502L252.067 959.645L252.017 959.594L252.32 959.29C252.32 959.29 255.356 956.407 257.076 954.686C258.847 952.915 262.642 950.082 256.874 944.264C250.651 938.04 247.767 942.392 246.502 943.707L241.645 948.969L241.594 949.02L241.29 948.716C241.29 948.716 238.407 945.68 236.686 943.96C234.915 942.189 232.082 938.395 226.264 944.163C220.04 950.386 224.392 953.27 225.707 954.535L230.969 959.392L231.02 959.442L230.716 959.746C230.716 959.746 227.68 962.63 225.96 964.35C224.24 966.07 220.395 968.954 226.162 974.773C232.386 980.996 235.27 976.645 236.534 975.329L241.392 970.067L241.442 970.017L241.746 970.32C241.746 970.32 244.63 973.356 246.35 975.076C248.121 976.847 250.954 980.642 256.773 974.874C262.945 968.651 258.594 965.767 257.329 964.502Z" fill="#FFBBAE"/>
<path d="M238.306 953.168C238.255 953.168 238.205 953.168 238.154 953.118C238.053 953.017 238.002 952.865 238.053 952.764C238.761 951.651 241.342 948.868 241.443 948.767C241.544 948.665 241.696 948.665 241.797 948.767C241.898 948.868 241.898 949.02 241.797 949.121C241.746 949.171 239.166 951.954 238.458 953.017C238.458 953.168 238.357 953.168 238.306 953.168Z" fill="#F7796F"/>
<path d="M252.017 959.898C251.916 959.898 251.865 959.847 251.815 959.796C251.612 959.543 248.425 956.659 247.666 956.204C247.565 956.153 247.514 955.951 247.565 955.85C247.615 955.749 247.818 955.698 247.919 955.749C248.728 956.204 252.118 959.29 252.22 959.493C252.321 959.594 252.27 959.796 252.118 959.847C252.118 959.847 252.068 959.898 252.017 959.898Z" fill="#F7796F"/>
<path d="M241.341 970.27C241.29 970.27 241.189 970.219 241.138 970.168C241.037 970.067 241.037 969.915 241.138 969.814C241.138 969.814 243.263 967.689 244.68 965.918C244.781 965.817 244.933 965.767 245.034 965.868C245.135 965.969 245.186 966.121 245.085 966.222C243.618 968.043 241.543 970.168 241.493 970.168C241.493 970.27 241.442 970.27 241.341 970.27Z" fill="#F7796F"/>
<path d="M234.41 962.832C234.36 962.832 234.259 962.832 234.208 962.782C233.146 961.77 230.768 959.543 230.768 959.543L231.122 959.139C231.122 959.139 233.5 961.365 234.562 962.377C234.663 962.478 234.663 962.63 234.562 962.731C234.562 962.832 234.461 962.832 234.41 962.832Z" fill="#F7796F"/>
<path opacity="0.8" d="M226.162 945.63C226.567 945.124 227.073 944.618 227.427 944.314C229.501 942.392 232.537 940.874 234.915 943.353C236.281 944.77 234.965 945.781 234.004 945.63C233.043 945.478 232.79 944.517 231.576 944.82C230.513 945.124 229.602 946.034 228.793 946.743C228.135 947.299 226.718 948.615 225.909 947.603C225.403 946.996 225.707 946.287 226.162 945.63Z" fill="white"/>
<path opacity="0.8" d="M245.187 946.692C245.187 946.692 248.273 943.252 249.336 942.493C250.398 941.784 252.219 941.481 254.243 943.151C255.154 944.011 254.749 945.377 253.788 945.427C252.827 945.478 252.27 944.567 251.41 944.668C250.55 944.77 247.818 947.957 246.806 948.665C245.845 949.424 243.669 948.362 245.187 946.692Z" fill="white"/>
<path opacity="0.8" d="M230.563 961.77C230.158 961.921 229.754 962.225 229.4 962.528C227.882 963.844 226.01 965.159 224.846 966.829C224.138 967.892 223.935 969.814 224.441 970.927C224.998 972.091 226.263 971.939 226.971 970.927C227.629 970.067 227.325 968.802 227.983 967.841C228.539 967.082 229.298 966.576 230.007 966.02C230.715 965.412 232.739 964.046 232.638 962.984C232.587 962.68 232.435 962.377 232.182 962.124C231.727 961.567 231.12 961.517 230.563 961.77Z" fill="white"/>
<path d="M532.329 135.502L527.067 130.645L527.017 130.594L527.32 130.29C527.32 130.29 530.356 127.407 532.076 125.686C533.847 123.915 537.642 121.082 531.874 115.264C525.651 109.04 522.767 113.392 521.502 114.707L516.645 119.969L516.594 120.02L516.29 119.716C516.29 119.716 513.407 116.68 511.686 114.96C509.915 113.189 507.082 109.395 501.264 115.163C495.04 121.386 499.392 124.27 500.707 125.535L505.969 130.392L506.02 130.442L505.716 130.746C505.716 130.746 502.68 133.63 500.96 135.35C499.24 137.07 495.395 139.954 501.162 145.773C507.386 151.996 510.27 147.645 511.534 146.329L516.392 141.067L516.442 141.017L516.746 141.32C516.746 141.32 519.63 144.356 521.35 146.076C523.121 147.847 525.954 151.642 531.773 145.874C537.945 139.651 533.594 136.767 532.329 135.502Z" fill="#FFBBAE"/>
<path d="M513.306 124.169C513.255 124.169 513.205 124.169 513.154 124.118C513.053 124.017 513.002 123.865 513.053 123.764C513.761 122.651 516.342 119.868 516.443 119.767C516.544 119.666 516.696 119.666 516.797 119.767C516.898 119.868 516.898 120.02 516.797 120.121C516.746 120.172 514.166 122.954 513.458 124.017C513.458 124.169 513.357 124.169 513.306 124.169Z" fill="#F7796F"/>
<path d="M527.017 130.898C526.916 130.898 526.865 130.847 526.815 130.796C526.612 130.543 523.425 127.66 522.666 127.204C522.565 127.154 522.514 126.951 522.565 126.85C522.615 126.749 522.818 126.698 522.919 126.749C523.728 127.204 527.118 130.291 527.22 130.493C527.321 130.594 527.27 130.796 527.118 130.847C527.118 130.847 527.068 130.898 527.017 130.898Z" fill="#F7796F"/>
<path d="M516.341 141.269C516.29 141.269 516.189 141.219 516.138 141.168C516.037 141.067 516.037 140.915 516.138 140.814C516.138 140.814 518.263 138.689 519.68 136.918C519.781 136.817 519.933 136.766 520.034 136.868C520.135 136.969 520.186 137.121 520.085 137.222C518.618 139.043 516.543 141.168 516.493 141.168C516.493 141.269 516.442 141.269 516.341 141.269Z" fill="#F7796F"/>
<path d="M509.41 133.832C509.36 133.832 509.259 133.832 509.208 133.782C508.146 132.77 505.768 130.543 505.768 130.543L506.122 130.139C506.122 130.139 508.5 132.365 509.562 133.377C509.663 133.478 509.663 133.63 509.562 133.731C509.562 133.832 509.461 133.832 509.41 133.832Z" fill="#F7796F"/>
<path opacity="0.8" d="M501.162 116.63C501.567 116.124 502.073 115.618 502.427 115.314C504.501 113.392 507.537 111.874 509.915 114.353C511.281 115.77 509.965 116.781 509.004 116.63C508.043 116.478 507.79 115.517 506.576 115.82C505.513 116.124 504.602 117.034 503.793 117.743C503.135 118.299 501.718 119.615 500.909 118.603C500.403 117.996 500.707 117.287 501.162 116.63Z" fill="white"/>
<path opacity="0.8" d="M520.187 117.692C520.187 117.692 523.273 114.252 524.336 113.493C525.398 112.785 527.219 112.481 529.243 114.151C530.154 115.011 529.749 116.377 528.788 116.427C527.827 116.478 527.27 115.567 526.41 115.669C525.55 115.77 522.818 118.957 521.806 119.666C520.845 120.424 518.669 119.362 520.187 117.692Z" fill="white"/>
<path opacity="0.8" d="M505.563 132.77C505.158 132.921 504.754 133.225 504.4 133.529C502.882 134.844 501.01 136.16 499.846 137.829C499.138 138.892 498.935 140.814 499.441 141.927C499.998 143.091 501.263 142.939 501.971 141.927C502.629 141.067 502.325 139.802 502.983 138.841C503.539 138.082 504.298 137.576 505.007 137.02C505.715 136.413 507.739 135.046 507.638 133.984C507.587 133.68 507.435 133.377 507.182 133.124C506.727 132.567 506.12 132.517 505.563 132.77Z" fill="white"/>
<path d="M1333.33 971.502L1328.07 966.645L1328.02 966.594L1328.32 966.29C1328.32 966.29 1331.36 963.407 1333.08 961.686C1334.85 959.915 1338.64 957.082 1332.87 951.264C1326.65 945.04 1323.77 949.392 1322.5 950.707L1317.64 955.969L1317.59 956.02L1317.29 955.716C1317.29 955.716 1314.41 952.68 1312.69 950.96C1310.92 949.189 1308.08 945.395 1302.26 951.163C1296.04 957.386 1300.39 960.27 1301.71 961.535L1306.97 966.392L1307.02 966.442L1306.72 966.746C1306.72 966.746 1303.68 969.63 1301.96 971.35C1300.24 973.07 1296.39 975.954 1302.16 981.773C1308.39 987.996 1311.27 983.645 1312.53 982.329L1317.39 977.067L1317.44 977.017L1317.75 977.32C1317.75 977.32 1320.63 980.356 1322.35 982.076C1324.12 983.847 1326.95 987.642 1332.77 981.874C1338.95 975.651 1334.59 972.767 1333.33 971.502Z" fill="#FFBBAE"/>
<path d="M1314.31 960.168C1314.26 960.168 1314.2 960.168 1314.15 960.118C1314.05 960.017 1314 959.865 1314.05 959.764C1314.76 958.651 1317.34 955.868 1317.44 955.767C1317.54 955.665 1317.7 955.665 1317.8 955.767C1317.9 955.868 1317.9 956.02 1317.8 956.121C1317.75 956.171 1315.17 958.954 1314.46 960.017C1314.46 960.168 1314.36 960.168 1314.31 960.168Z" fill="#F7796F"/>
<path d="M1328.02 966.898C1327.92 966.898 1327.87 966.847 1327.81 966.796C1327.61 966.543 1324.42 963.659 1323.67 963.204C1323.56 963.153 1323.51 962.951 1323.56 962.85C1323.62 962.749 1323.82 962.698 1323.92 962.749C1324.73 963.204 1328.12 966.29 1328.22 966.493C1328.32 966.594 1328.27 966.796 1328.12 966.847C1328.12 966.847 1328.07 966.898 1328.02 966.898Z" fill="#F7796F"/>
<path d="M1317.34 977.27C1317.29 977.27 1317.19 977.219 1317.14 977.168C1317.04 977.067 1317.04 976.915 1317.14 976.814C1317.14 976.814 1319.26 974.689 1320.68 972.918C1320.78 972.817 1320.93 972.767 1321.03 972.868C1321.14 972.969 1321.19 973.121 1321.08 973.222C1319.62 975.043 1317.54 977.168 1317.49 977.168C1317.49 977.27 1317.44 977.27 1317.34 977.27Z" fill="#F7796F"/>
<path d="M1310.41 969.832C1310.36 969.832 1310.26 969.832 1310.21 969.782C1309.15 968.77 1306.77 966.543 1306.77 966.543L1307.12 966.139C1307.12 966.139 1309.5 968.365 1310.56 969.377C1310.66 969.478 1310.66 969.63 1310.56 969.731C1310.56 969.832 1310.46 969.832 1310.41 969.832Z" fill="#F7796F"/>
<path opacity="0.8" d="M1302.16 952.63C1302.57 952.124 1303.07 951.618 1303.43 951.314C1305.5 949.392 1308.54 947.874 1310.91 950.353C1312.28 951.77 1310.97 952.781 1310 952.63C1309.04 952.478 1308.79 951.517 1307.58 951.82C1306.51 952.124 1305.6 953.034 1304.79 953.743C1304.14 954.299 1302.72 955.615 1301.91 954.603C1301.4 953.996 1301.71 953.287 1302.16 952.63Z" fill="white"/>
<path opacity="0.8" d="M1321.19 953.692C1321.19 953.692 1324.27 950.252 1325.34 949.493C1326.4 948.784 1328.22 948.481 1330.24 950.151C1331.15 951.011 1330.75 952.377 1329.79 952.427C1328.83 952.478 1328.27 951.567 1327.41 951.668C1326.55 951.77 1323.82 954.957 1322.81 955.665C1321.84 956.424 1319.67 955.362 1321.19 953.692Z" fill="white"/>
<path opacity="0.8" d="M1306.56 968.77C1306.16 968.921 1305.75 969.225 1305.4 969.528C1303.88 970.844 1302.01 972.159 1300.85 973.829C1300.14 974.892 1299.94 976.814 1300.44 977.927C1301 979.091 1302.26 978.939 1302.97 977.927C1303.63 977.067 1303.33 975.802 1303.98 974.841C1304.54 974.082 1305.3 973.576 1306.01 973.02C1306.72 972.412 1308.74 971.046 1308.64 969.984C1308.59 969.68 1308.44 969.377 1308.18 969.124C1307.73 968.567 1307.12 968.517 1306.56 968.77Z" fill="white"/>
<path d="M842.181 158.924C843.257 154.405 840.465 149.869 835.946 148.794C831.427 147.719 826.892 150.51 825.816 155.029C824.741 159.548 827.533 164.083 832.052 165.159C836.571 166.234 841.106 163.443 842.181 158.924Z" fill="#FFBF51"/>
<path d="M826.804 137.274C826.804 137.274 822.972 137.18 820.682 137.18C818.393 137.18 814 136.573 814 144.143C814 152.274 818.72 151.292 820.402 151.292L826.991 151.059L841.196 151.245C841.196 151.245 845.028 151.339 847.318 151.339C849.607 151.339 854 151.946 854 144.376C854 136.246 849.28 137.227 847.598 137.227L841.009 137.46L826.804 137.274Z" fill="#FFB251"/>
<path d="M839.948 137.843C843.233 134.558 843.233 129.232 839.948 125.947C836.663 122.663 831.338 122.663 828.053 125.947C824.768 129.232 824.768 134.558 828.053 137.843C831.338 141.127 836.663 141.127 839.948 137.843Z" fill="#FFBF51"/>
<path opacity="0.8" d="M827.224 128.769C827.224 128.769 826.149 129.844 826.756 131.012C827.083 131.619 828.065 131.666 828.766 130.217C829.467 128.769 827.925 127.974 827.224 128.769Z" fill="white"/>
<path opacity="0.8" d="M836.149 124.563C833.999 123.909 831.009 124.89 829.28 126.245C828.766 126.666 828.345 127.367 828.719 128.021C829.42 129.33 831.056 128.115 831.943 127.741C833.298 127.18 834.887 127.04 836.289 126.853C837.457 126.666 838.345 125.217 836.149 124.563Z" fill="white"/>
<path opacity="0.8" d="M832.224 151.806C832.224 151.806 829.327 151.806 828.859 151.806C828.392 151.806 826.756 153.488 826.71 155.731C826.663 157.974 828.953 157.741 828.953 156.479C828.953 155.778 829.233 155.077 829.42 154.563C829.607 154.143 830.027 153.862 830.495 153.862H833.065C833.766 153.909 834.28 151.806 832.224 151.806Z" fill="white"/>
<path opacity="0.8" d="M824.375 138.255C824.375 138.255 819.468 137.974 817.926 138.255C816.384 138.535 815.123 140.825 815.309 142.974C815.496 145.124 817.786 144.516 817.926 142.974C818.113 141.432 818.3 140.825 819.562 140.778C820.777 140.731 822.786 141.245 824.936 140.872C825.683 140.731 826.197 138.348 824.375 138.255Z" fill="white"/>
<path d="M585.181 910.924C586.257 906.405 583.465 901.87 578.946 900.794C574.427 899.719 569.892 902.51 568.816 907.029C567.741 911.548 570.533 916.084 575.052 917.159C579.571 918.234 584.106 915.443 585.181 910.924Z" fill="#FFBF51"/>
<path d="M569.804 889.274C569.804 889.274 565.972 889.18 563.682 889.18C561.393 889.18 557 888.573 557 896.143C557 904.274 561.72 903.292 563.402 903.292L569.991 903.059L584.196 903.246C584.196 903.246 588.028 903.339 590.318 903.339C592.607 903.339 597 903.947 597 896.376C597 888.246 592.28 889.227 590.598 889.227L584.009 889.461L569.804 889.274Z" fill="#FFB251"/>
<path d="M582.948 889.843C586.233 886.558 586.233 881.232 582.948 877.948C579.663 874.663 574.338 874.663 571.053 877.948C567.768 881.232 567.768 886.558 571.053 889.843C574.338 893.127 579.663 893.127 582.948 889.843Z" fill="#FFBF51"/>
<path opacity="0.8" d="M570.224 880.769C570.224 880.769 569.149 881.844 569.756 883.012C570.083 883.619 571.065 883.666 571.766 882.217C572.467 880.769 570.925 879.974 570.224 880.769Z" fill="white"/>
<path opacity="0.8" d="M579.149 876.563C576.999 875.909 574.009 876.89 572.28 878.245C571.766 878.666 571.345 879.367 571.719 880.021C572.42 881.33 574.056 880.115 574.943 879.741C576.298 879.18 577.887 879.04 579.289 878.853C580.457 878.666 581.345 877.217 579.149 876.563Z" fill="white"/>
<path opacity="0.8" d="M575.224 903.806C575.224 903.806 572.327 903.806 571.859 903.806C571.392 903.806 569.756 905.488 569.71 907.731C569.663 909.974 571.953 909.741 571.953 908.479C571.953 907.778 572.233 907.077 572.42 906.563C572.607 906.142 573.027 905.862 573.495 905.862H576.065C576.766 905.909 577.28 903.806 575.224 903.806Z" fill="white"/>
<path opacity="0.8" d="M567.375 890.255C567.375 890.255 562.468 889.974 560.926 890.255C559.384 890.535 558.123 892.825 558.309 894.974C558.496 897.124 560.786 896.516 560.926 894.974C561.113 893.432 561.3 892.825 562.562 892.778C563.777 892.731 565.786 893.245 567.936 892.872C568.683 892.731 569.197 890.348 567.375 890.255Z" fill="white"/>
<path d="M1401.18 607.924C1402.26 603.405 1399.46 598.87 1394.95 597.794C1390.43 596.719 1385.89 599.51 1384.82 604.029C1383.74 608.548 1386.53 613.084 1391.05 614.159C1395.57 615.234 1400.11 612.443 1401.18 607.924Z" fill="#FFBF51"/>
<path d="M1385.8 586.274C1385.8 586.274 1381.97 586.18 1379.68 586.18C1377.39 586.18 1373 585.573 1373 593.143C1373 601.274 1377.72 600.292 1379.4 600.292L1385.99 600.059L1400.2 600.246C1400.2 600.246 1404.03 600.339 1406.32 600.339C1408.61 600.339 1413 600.947 1413 593.376C1413 585.246 1408.28 586.227 1406.6 586.227L1400.01 586.461L1385.8 586.274Z" fill="#FFB251"/>
<path d="M1398.95 586.843C1402.23 583.558 1402.23 578.232 1398.95 574.948C1395.66 571.663 1390.34 571.663 1387.05 574.948C1383.77 578.232 1383.77 583.558 1387.05 586.843C1390.34 590.127 1395.66 590.127 1398.95 586.843Z" fill="#FFBF51"/>
<path opacity="0.8" d="M1386.22 577.769C1386.22 577.769 1385.15 578.844 1385.76 580.012C1386.08 580.619 1387.06 580.666 1387.77 579.217C1388.47 577.769 1386.92 576.974 1386.22 577.769Z" fill="white"/>
<path opacity="0.8" d="M1395.15 573.563C1393 572.909 1390.01 573.89 1388.28 575.245C1387.77 575.666 1387.35 576.367 1387.72 577.021C1388.42 578.33 1390.06 577.115 1390.94 576.741C1392.3 576.18 1393.89 576.04 1395.29 575.853C1396.46 575.666 1397.35 574.217 1395.15 573.563Z" fill="white"/>
<path opacity="0.8" d="M1391.22 600.806C1391.22 600.806 1388.33 600.806 1387.86 600.806C1387.39 600.806 1385.76 602.488 1385.71 604.731C1385.66 606.974 1387.95 606.741 1387.95 605.479C1387.95 604.778 1388.23 604.077 1388.42 603.563C1388.61 603.142 1389.03 602.862 1389.49 602.862H1392.06C1392.77 602.909 1393.28 600.806 1391.22 600.806Z" fill="white"/>
<path opacity="0.8" d="M1383.37 587.255C1383.37 587.255 1378.47 586.974 1376.93 587.255C1375.38 587.535 1374.12 589.825 1374.31 591.974C1374.5 594.124 1376.79 593.516 1376.93 591.974C1377.11 590.432 1377.3 589.825 1378.56 589.778C1379.78 589.731 1381.79 590.245 1383.94 589.872C1384.68 589.731 1385.2 587.348 1383.37 587.255Z" fill="white"/>
</g>
<defs>
<clipPath id="clip0_520_3726">
<rect width="1440" height="1024" fill="white"/>
</clipPath>
</defs>
</svg>
