<svg width="120" height="100.00000000000001" xmlns="http://www.w3.org/2000/svg">
 <title/>

 <g>
  <title>background</title>
  <rect x="-1" y="-1" width="122" height="102" id="canvas_background" fill="none"/>
 </g>
 <g>
  <title>Layer 1</title>
  <path d="m81.71006,73.63667a18.94993,18.94993 0 0 1 1.69512,1.15567a0.98348,0.98348 0 0 0 1.39354,-0.19718a1.02433,1.02433 0 0 0 -0.19372,-1.41816a20.936,20.936 0 0 0 -1.873,-1.27774a0.98517,0.98517 0 0 0 -1.3646,0.34869a1.0226,1.0226 0 0 0 0.34265,1.38871l0.00001,0.00001zm-7.67034,-3.33126q1.03288,0.326 1.9973,0.67814a0.99032,0.99032 0 0 0 1.27233,-0.61114a1.01733,1.01733 0 0 0 -0.60051,-1.29484q-1.0067,-0.3675 -2.07969,-0.70617a0.99182,0.99182 0 0 0 -1.245,0.66708a1.01583,1.01583 0 0 0 0.65552,1.26692l0.00005,0.00001zm-8.23617,-1.972q1.0617,0.1858 2.08531,0.39531a0.9956,0.9956 0 0 0 1.17145,-0.793a1.012,1.012 0 0 0 -0.77925,-1.19215q-1.05128,-0.2151 -2.14029,-0.40575a0.99668,0.99668 0 0 0 -1.1491,0.8262a1.01086,1.01086 0 0 0 0.81185,1.16941l0.00003,-0.00002zm-8.4357,-1.03691q1.071,0.08013 2.11913,0.18286a1.01244,1.01244 0 0 0 0.19055,-2.01559q-1.07024,-0.1048 -2.1638,-0.18673a1.01251,1.01251 0 0 0 -0.14585,2.01946l-0.00003,0z" id="svg_1"/>
  <path d="m40.51151,67.4799q1.04767,-0.10265 2.119,-0.183a1.01251,1.01251 0 0 0 -0.146,-2.01944q-1.09327,0.08184 -2.16374,0.18682a1.01244,1.01244 0 0 0 0.19067,2.01558l0.00007,0.00004zm-8.40151,1.24976q1.02309,-0.2094 2.08519,-0.39541a1.01088,1.01088 0 0 0 0.81179,-1.16944a0.99667,0.99667 0 0 0 -1.1491,-0.82615q-1.08863,0.19056 -2.14017,0.40585a1.012,1.012 0 0 0 -0.77919,1.1922a0.99558,0.99558 0 0 0 1.17151,0.79295l-0.00003,0zm-8.14768,2.25534q0.96357,-0.35188 1.99715,-0.67831a1.01588,1.01588 0 0 0 0.65537,-1.267a0.9918,0.9918 0 0 0 -1.245,-0.667q-1.07232,0.33857 -2.07958,0.70636a1.01734,1.01734 0 0 0 -0.60042,1.2949a0.99037,0.99037 0 0 0 1.27243,0.611l0.00005,0.00005zm-7.36732,3.80995a18.94226,18.94226 0 0 1 1.69478,-1.1561a1.02257,1.02257 0 0 0 0.34232,-1.38877a0.98513,0.98513 0 0 0 -1.36463,-0.3484a20.91659,20.91659 0 0 0 -1.87268,1.27832a1.02435,1.02435 0 0 0 -0.19334,1.41826a0.98351,0.98351 0 0 0 1.39363,0.19674l-0.00008,-0.00005z" id="svg_2"/>
  <path d="m51.99138,66.03266a0.99137,0.99137 0 0 1 -1.00482,0.99224l-1.96982,0a0.99137,0.99137 0 0 1 -1.00483,-0.99224a1.00961,1.00961 0 0 1 0.98491,-1.03266l2.00965,0a1.0096,1.0096 0 0 1 0.98491,1.03266z" id="svg_3"/>
  <path d="m88.1,16.69a13.82827,13.82827 0 0 0 -5.08,-4.8a45.66057,45.66057 0 0 0 -13.9,-5.01a93.15882,93.15882 0 0 0 -19.12,-1.88c-10.59,0 -20.19,1.58 -27.22,4.16a27.51224,27.51224 0 0 0 -8.45,4.64a10.81378,10.81378 0 0 0 -2.43,2.89a6.77349,6.77349 0 0 0 -0.9,3.31l0,60a6.77383,6.77383 0 0 0 0.9,3.31a13.82875,13.82875 0 0 0 5.08,4.8a45.66375,45.66375 0 0 0 13.9,5.01a93.15882,93.15882 0 0 0 19.12,1.88c10.59,0 20.19,-1.58 27.22,-4.16a27.51221,27.51221 0 0 0 8.45,-4.64a10.81471,10.81471 0 0 0 2.43,-2.89a6.77383,6.77383 0 0 0 0.9,-3.31l0,-60a6.77349,6.77349 0 0 0 -0.9,-3.31zm-74.45,0.97a11.82427,11.82427 0 0 1 4.37,-4.06a43.678,43.678 0 0 1 13.27,-4.77a91.85312,91.85312 0 0 1 18.71,-1.83c10.39,0 19.8,1.56 26.52,4.04a25.7621,25.7621 0 0 1 7.84,4.26a9.05234,9.05234 0 0 1 1.99,2.36a4.53688,4.53688 0 0 1 0,4.68a11.82379,11.82379 0 0 1 -4.37,4.06a43.67639,43.67639 0 0 1 -13.27,4.77a91.8529,91.8529 0 0 1 -18.71,1.83c-10.39,0 -19.8,-1.56 -26.52,-4.04a25.76211,25.76211 0 0 1 -7.84,-4.26a9.05251,9.05251 0 0 1 -1.99,-2.36a4.53688,4.53688 0 0 1 0,-4.68zm73.35,62.34a4.73886,4.73886 0 0 1 -0.65,2.34a11.82379,11.82379 0 0 1 -4.37,4.06a43.67639,43.67639 0 0 1 -13.27,4.77a91.8529,91.8529 0 0 1 -18.71,1.83c-10.39,0 -19.8,-1.56 -26.52,-4.04a25.76211,25.76211 0 0 1 -7.84,-4.26a9.05251,9.05251 0 0 1 -1.99,-2.36a4.73886,4.73886 0 0 1 -0.65,-2.34l0,-55.14a16.18592,16.18592 0 0 0 3.98,3.25a45.66375,45.66375 0 0 0 13.9,5.01a93.15882,93.15882 0 0 0 19.12,1.88c10.59,0 20.19,-1.58 27.22,-4.16a27.51221,27.51221 0 0 0 8.45,-4.64a12.776,12.776 0 0 0 1.33,-1.32l0,55.12z" id="svg_4"/>
  <line fill="none" x1="51.777888" y1="80.571716" x2="87.062149" y2="80.571716" id="svg_5" stroke-linejoin="undefined" stroke-linecap="undefined" stroke-dasharray="2,2" stroke="#000"/>
  <text fill="#007f00" stroke-width="0" x="64.452068" y="75.862058" id="svg_6" font-size="24" font-family="Helvetica, Arial, sans-serif" text-anchor="start" xml:space="preserve" transform="matrix(0.6793888211250305,0,0,0.45073217153549194,22.21234323643148,44.88548035733402) " stroke="#007f00">r</text>
  <text font-weight="bold" stroke="#000" transform="matrix(0.3002651631832123,0,0,0.33768725395202637,72.3132220422849,36.303017392754555) " xml:space="preserve" text-anchor="start" font-family="Helvetica, Arial, sans-serif" font-size="24" id="svg_7" y="49.663794" x="67.826788" stroke-width="0" fill="#000000">8cm</text>
  <line stroke-linecap="null" stroke-linejoin="null" id="svg_8" y2="19.84985" x2="99.52399" y1="46.655048" x1="100.071035" fill-opacity="null" stroke-opacity="null" stroke="#000" fill="none"/>
  <line stroke-linecap="null" stroke-linejoin="null" id="svg_9" y2="54.860722" x2="100.344557" y1="81.66592" x1="100.891602" fill-opacity="null" stroke-opacity="null" stroke="#000" fill="none"/>
 </g>
</svg>